<?xml version="1.0" encoding="us-ascii" standalone="no"?><svg xmlns="http://www.w3.org/2000/svg" xmlns:xlink="http://www.w3.org/1999/xlink" contentStyleType="text/css" height="429px" preserveAspectRatio="none" style="width:222px;height:429px;background:#FFFFFF;" version="1.1" viewBox="0 0 222 429" width="222px" zoomAndPan="magnify"><defs/><g><rect fill="none" height="407.5078" style="stroke:#000000;stroke-width:1.5;" width="200.5" x="11" y="11"/><path d="M163,11 L163,20.4883 L153,30.4883 L11,30.4883 " fill="none" style="stroke:#000000;stroke-width:1.5;"/><text fill="#000000" font-family="sans-serif" font-size="14" lengthAdjust="spacing" textLength="142" x="14" y="25.5352">XORFork_XORFork_a</text><rect fill="none" height="366.0195" style="stroke:#000000;stroke-width:1.5;" width="180.5" x="21" y="40.4883"/><path d="M173,40.4883 L173,49.9766 L163,59.9766 L21,59.9766 " fill="none" style="stroke:#000000;stroke-width:1.5;"/><text fill="#000000" font-family="sans-serif" font-size="14" lengthAdjust="spacing" textLength="142" x="24" y="55.0234">XORFork_XORFork_a</text><rect fill="#008000" height="34.1328" rx="12.5" ry="12.5" style="stroke:#181818;stroke-width:0.5;" width="28" x="114.5" y="69.9766"/><text fill="#000000" font-family="sans-serif" font-size="12" lengthAdjust="spacing" textLength="8" x="124.5" y="91.5781">A</text><polygon fill="#F1F1F1" points="116.5,124.1094,140.5,124.1094,152.5,136.1094,140.5,148.1094,116.5,148.1094,104.5,136.1094,116.5,124.1094" style="stroke:#181818;stroke-width:0.5;"/><text fill="#000000" font-family="sans-serif" font-size="11" lengthAdjust="spacing" textLength="23" x="117" y="140.2666">XOR</text><text fill="#000000" font-family="sans-serif" font-size="11" lengthAdjust="spacing" textLength="22" x="82.5" y="133.7891">true</text><text fill="#000000" font-family="sans-serif" font-size="11" lengthAdjust="spacing" textLength="25" x="152.5" y="133.7891">false</text><rect fill="#F1F1F1" height="34.1328" rx="12.5" ry="12.5" style="stroke:#181818;stroke-width:0.5;" width="27" x="68" y="158.1094"/><text fill="#000000" font-family="sans-serif" font-size="12" lengthAdjust="spacing" textLength="7" x="78" y="179.7109">B</text><polygon fill="#F1F1F1" points="69.5,212.2422,93.5,212.2422,105.5,224.2422,93.5,236.2422,69.5,236.2422,57.5,224.2422,69.5,212.2422" style="stroke:#181818;stroke-width:0.5;"/><text fill="#000000" font-family="sans-serif" font-size="11" lengthAdjust="spacing" textLength="23" x="70" y="228.3994">XOR</text><text fill="#000000" font-family="sans-serif" font-size="11" lengthAdjust="spacing" textLength="22" x="35.5" y="221.9219">true</text><text fill="#000000" font-family="sans-serif" font-size="11" lengthAdjust="spacing" textLength="25" x="105.5" y="221.9219">false</text><rect fill="#F1F1F1" height="34.1328" rx="12.5" ry="12.5" style="stroke:#181818;stroke-width:0.5;" width="29" x="33" y="246.2422"/><text fill="#000000" font-family="sans-serif" font-size="12" lengthAdjust="spacing" textLength="9" x="43" y="267.8438">D</text><rect fill="#F1F1F1" height="34.1328" rx="12.5" ry="12.5" style="stroke:#181818;stroke-width:0.5;" width="27" x="102" y="246.2422"/><text fill="#000000" font-family="sans-serif" font-size="12" lengthAdjust="spacing" textLength="7" x="112" y="267.8438">E</text><polygon fill="#F1F1F1" points="81.5,286.375,93.5,298.375,81.5,310.375,69.5,298.375,81.5,286.375" style="stroke:#181818;stroke-width:0.5;"/><rect fill="#F1F1F1" height="34.1328" rx="12.5" ry="12.5" style="stroke:#181818;stroke-width:0.5;" width="28" x="161.5" y="158.1094"/><text fill="#000000" font-family="sans-serif" font-size="12" lengthAdjust="spacing" textLength="8" x="171.5" y="179.7109">C</text><polygon fill="#F1F1F1" points="128.5,316.375,140.5,328.375,128.5,340.375,116.5,328.375,128.5,316.375" style="stroke:#181818;stroke-width:0.5;"/><rect fill="#FF0000" height="34.1328" rx="12.5" ry="12.5" style="stroke:#181818;stroke-width:0.5;" width="26" x="115.5" y="360.375"/><text fill="#000000" font-family="sans-serif" font-size="12" lengthAdjust="spacing" textLength="6" x="125.5" y="381.9766">F</text><line style="stroke:#181818;stroke-width:1.0;" x1="57.5" x2="47.5" y1="224.2422" y2="224.2422"/><line style="stroke:#181818;stroke-width:1.0;" x1="47.5" x2="47.5" y1="224.2422" y2="246.2422"/><polygon fill="#181818" points="43.5,236.2422,47.5,246.2422,51.5,236.2422,47.5,240.2422" style="stroke:#181818;stroke-width:1.0;"/><line style="stroke:#181818;stroke-width:1.0;" x1="105.5" x2="115.5" y1="224.2422" y2="224.2422"/><line style="stroke:#181818;stroke-width:1.0;" x1="115.5" x2="115.5" y1="224.2422" y2="246.2422"/><polygon fill="#181818" points="111.5,236.2422,115.5,246.2422,119.5,236.2422,115.5,240.2422" style="stroke:#181818;stroke-width:1.0;"/><line style="stroke:#181818;stroke-width:1.0;" x1="47.5" x2="47.5" y1="280.375" y2="298.375"/><line style="stroke:#181818;stroke-width:1.0;" x1="47.5" x2="69.5" y1="298.375" y2="298.375"/><polygon fill="#181818" points="59.5,294.375,69.5,298.375,59.5,302.375,63.5,298.375" style="stroke:#181818;stroke-width:1.0;"/><line style="stroke:#181818;stroke-width:1.0;" x1="115.5" x2="115.5" y1="280.375" y2="298.375"/><line style="stroke:#181818;stroke-width:1.0;" x1="115.5" x2="93.5" y1="298.375" y2="298.375"/><polygon fill="#181818" points="103.5,294.375,93.5,298.375,103.5,302.375,99.5,298.375" style="stroke:#181818;stroke-width:1.0;"/><line style="stroke:#181818;stroke-width:1.0;" x1="81.5" x2="81.5" y1="192.2422" y2="212.2422"/><polygon fill="#181818" points="77.5,202.2422,81.5,212.2422,85.5,202.2422,81.5,206.2422" style="stroke:#181818;stroke-width:1.0;"/><line style="stroke:#181818;stroke-width:1.0;" x1="104.5" x2="81.5" y1="136.1094" y2="136.1094"/><line style="stroke:#181818;stroke-width:1.0;" x1="81.5" x2="81.5" y1="136.1094" y2="158.1094"/><polygon fill="#181818" points="77.5,148.1094,81.5,158.1094,85.5,148.1094,81.5,152.1094" style="stroke:#181818;stroke-width:1.0;"/><line style="stroke:#181818;stroke-width:1.0;" x1="152.5" x2="175.5" y1="136.1094" y2="136.1094"/><line style="stroke:#181818;stroke-width:1.0;" x1="175.5" x2="175.5" y1="136.1094" y2="158.1094"/><polygon fill="#181818" points="171.5,148.1094,175.5,158.1094,179.5,148.1094,175.5,152.1094" style="stroke:#181818;stroke-width:1.0;"/><line style="stroke:#181818;stroke-width:1.0;" x1="81.5" x2="81.5" y1="310.375" y2="328.375"/><line style="stroke:#181818;stroke-width:1.0;" x1="81.5" x2="116.5" y1="328.375" y2="328.375"/><polygon fill="#181818" points="106.5,324.375,116.5,328.375,106.5,332.375,110.5,328.375" style="stroke:#181818;stroke-width:1.0;"/><line style="stroke:#181818;stroke-width:1.0;" x1="175.5" x2="175.5" y1="192.2422" y2="328.375"/><line style="stroke:#181818;stroke-width:1.0;" x1="175.5" x2="140.5" y1="328.375" y2="328.375"/><polygon fill="#181818" points="150.5,324.375,140.5,328.375,150.5,332.375,146.5,328.375" style="stroke:#181818;stroke-width:1.0;"/><line style="stroke:#181818;stroke-width:1.0;" x1="128.5" x2="128.5" y1="104.1094" y2="124.1094"/><polygon fill="#181818" points="124.5,114.1094,128.5,124.1094,132.5,114.1094,128.5,118.1094" style="stroke:#181818;stroke-width:1.0;"/><line style="stroke:#181818;stroke-width:1.0;" x1="128.5" x2="128.5" y1="340.375" y2="360.375"/><polygon fill="#181818" points="124.5,350.375,128.5,360.375,132.5,350.375,128.5,354.375" style="stroke:#181818;stroke-width:1.0;"/><!--SRC=[AqWiAiaioSpFKr2Ay0zooo_AZeVHYKeArLmAG91Ub5zQW4qUB0i2okb5gQbvLexMS97CD0KDe49DXPACr3m5ZPAYqbHDk2G8M3bPe_09QW1hSa7Lb9fJdAgWaPO8fB0eTaLJd9UIcSP5KAkLCq8RgXRbejGKApU8B5064YvSjG00]--></g></svg>