<?xml version="1.0" encoding="us-ascii" standalone="no"?><svg xmlns="http://www.w3.org/2000/svg" xmlns:xlink="http://www.w3.org/1999/xlink" contentStyleType="text/css" height="407px" preserveAspectRatio="none" style="width:213px;height:407px;background:#FFFFFF;" version="1.1" viewBox="0 0 213 407" width="213px" zoomAndPan="magnify"><defs/><g><rect fill="none" height="385.0078" style="stroke:#000000;stroke-width:1.5;" width="191" x="11" y="11"/><path d="M154,11 L154,20.4883 L144,30.4883 L11,30.4883 " fill="none" style="stroke:#000000;stroke-width:1.5;"/><text fill="#000000" font-family="sans-serif" font-size="14" lengthAdjust="spacing" textLength="133" x="14" y="25.5352">XORFork_ORFork_a</text><rect fill="none" height="343.5195" style="stroke:#000000;stroke-width:1.5;" width="171" x="21" y="40.4883"/><path d="M164,40.4883 L164,49.9766 L154,59.9766 L21,59.9766 " fill="none" style="stroke:#000000;stroke-width:1.5;"/><text fill="#000000" font-family="sans-serif" font-size="14" lengthAdjust="spacing" textLength="133" x="24" y="55.0234">XORFork_ORFork_a</text><rect fill="#008000" height="34.1328" rx="12.5" ry="12.5" style="stroke:#181818;stroke-width:0.5;" width="28" x="106.5" y="69.9766"/><text fill="#000000" font-family="sans-serif" font-size="12" lengthAdjust="spacing" textLength="8" x="116.5" y="91.5781">A</text><polygon fill="#F1F1F1" points="108.5,124.1094,132.5,124.1094,144.5,136.1094,132.5,148.1094,108.5,148.1094,96.5,136.1094,108.5,124.1094" style="stroke:#181818;stroke-width:0.5;"/><text fill="#000000" font-family="sans-serif" font-size="11" lengthAdjust="spacing" textLength="23" x="109" y="140.2666">XOR</text><text fill="#000000" font-family="sans-serif" font-size="11" lengthAdjust="spacing" textLength="22" x="74.5" y="133.7891">true</text><text fill="#000000" font-family="sans-serif" font-size="11" lengthAdjust="spacing" textLength="25" x="144.5" y="133.7891">false</text><rect fill="#F1F1F1" height="34.1328" rx="12.5" ry="12.5" style="stroke:#181818;stroke-width:0.5;" width="27" x="61.5" y="158.1094"/><text fill="#000000" font-family="sans-serif" font-size="12" lengthAdjust="spacing" textLength="7" x="71.5" y="179.7109">B</text><line style="stroke:#181818;stroke-width:1.5;" x1="47.5" x2="103.5" y1="212.2422" y2="212.2422"/><rect fill="#F1F1F1" height="34.1328" rx="12.5" ry="12.5" style="stroke:#181818;stroke-width:0.5;" width="29" x="33" y="232.2422"/><text fill="#000000" font-family="sans-serif" font-size="12" lengthAdjust="spacing" textLength="9" x="43" y="253.8438">D</text><rect fill="#F1F1F1" height="34.1328" rx="12.5" ry="12.5" style="stroke:#181818;stroke-width:0.5;" width="27" x="90" y="232.2422"/><text fill="#000000" font-family="sans-serif" font-size="12" lengthAdjust="spacing" textLength="7" x="100" y="253.8438">E</text><line style="stroke:#181818;stroke-width:1.5;" x1="47.5" x2="103.5" y1="286.375" y2="286.375"/><rect fill="#F1F1F1" height="34.1328" rx="12.5" ry="12.5" style="stroke:#181818;stroke-width:0.5;" width="28" x="152" y="158.1094"/><text fill="#000000" font-family="sans-serif" font-size="12" lengthAdjust="spacing" textLength="8" x="162" y="179.7109">C</text><polygon fill="#F1F1F1" points="120.5,293.875,132.5,305.875,120.5,317.875,108.5,305.875,120.5,293.875" style="stroke:#181818;stroke-width:0.5;"/><rect fill="#FF0000" height="34.1328" rx="12.5" ry="12.5" style="stroke:#181818;stroke-width:0.5;" width="26" x="107.5" y="337.875"/><text fill="#000000" font-family="sans-serif" font-size="12" lengthAdjust="spacing" textLength="6" x="117.5" y="359.4766">F</text><line style="stroke:#181818;stroke-width:1.0;" x1="47.5" x2="47.5" y1="213.7422" y2="232.2422"/><polygon fill="#181818" points="43.5,222.2422,47.5,232.2422,51.5,222.2422,47.5,226.2422" style="stroke:#181818;stroke-width:1.0;"/><line style="stroke:#181818;stroke-width:1.0;" x1="103.5" x2="103.5" y1="213.7422" y2="232.2422"/><polygon fill="#181818" points="99.5,222.2422,103.5,232.2422,107.5,222.2422,103.5,226.2422" style="stroke:#181818;stroke-width:1.0;"/><line style="stroke:#181818;stroke-width:1.0;" x1="47.5" x2="47.5" y1="266.375" y2="286.375"/><polygon fill="#181818" points="43.5,276.375,47.5,286.375,51.5,276.375,47.5,280.375" style="stroke:#181818;stroke-width:1.0;"/><line style="stroke:#181818;stroke-width:1.0;" x1="103.5" x2="103.5" y1="266.375" y2="286.375"/><polygon fill="#181818" points="99.5,276.375,103.5,286.375,107.5,276.375,103.5,280.375" style="stroke:#181818;stroke-width:1.0;"/><line style="stroke:#181818;stroke-width:1.0;" x1="75" x2="75" y1="192.2422" y2="212.2422"/><polygon fill="#181818" points="71,202.2422,75,212.2422,79,202.2422,75,206.2422" style="stroke:#181818;stroke-width:1.0;"/><line style="stroke:#181818;stroke-width:1.0;" x1="96.5" x2="75" y1="136.1094" y2="136.1094"/><line style="stroke:#181818;stroke-width:1.0;" x1="75" x2="75" y1="136.1094" y2="158.1094"/><polygon fill="#181818" points="71,148.1094,75,158.1094,79,148.1094,75,152.1094" style="stroke:#181818;stroke-width:1.0;"/><line style="stroke:#181818;stroke-width:1.0;" x1="144.5" x2="166" y1="136.1094" y2="136.1094"/><line style="stroke:#181818;stroke-width:1.0;" x1="166" x2="166" y1="136.1094" y2="158.1094"/><polygon fill="#181818" points="162,148.1094,166,158.1094,170,148.1094,166,152.1094" style="stroke:#181818;stroke-width:1.0;"/><line style="stroke:#181818;stroke-width:1.0;" x1="75" x2="75" y1="287.875" y2="305.875"/><line style="stroke:#181818;stroke-width:1.0;" x1="75" x2="108.5" y1="305.875" y2="305.875"/><polygon fill="#181818" points="98.5,301.875,108.5,305.875,98.5,309.875,102.5,305.875" style="stroke:#181818;stroke-width:1.0;"/><line style="stroke:#181818;stroke-width:1.0;" x1="166" x2="166" y1="192.2422" y2="305.875"/><line style="stroke:#181818;stroke-width:1.0;" x1="166" x2="132.5" y1="305.875" y2="305.875"/><polygon fill="#181818" points="142.5,301.875,132.5,305.875,142.5,309.875,138.5,305.875" style="stroke:#181818;stroke-width:1.0;"/><line style="stroke:#181818;stroke-width:1.0;" x1="120.5" x2="120.5" y1="104.1094" y2="124.1094"/><polygon fill="#181818" points="116.5,114.1094,120.5,124.1094,124.5,114.1094,120.5,118.1094" style="stroke:#181818;stroke-width:1.0;"/><line style="stroke:#181818;stroke-width:1.0;" x1="120.5" x2="120.5" y1="317.875" y2="337.875"/><polygon fill="#181818" points="116.5,327.875,120.5,337.875,124.5,327.875,120.5,331.875" style="stroke:#181818;stroke-width:1.0;"/><!--SRC=[AqWiAiaioSpFKr2Ay0zooo_AZeTIYKeArLmAG91Ub5zQW4KQB0a2okb5gQbvLexMS97CD0KDe7fDXPACr3m5ZPAYqbHDk2G8M3bPe_2B2t8oIr14mAfSiAXII4nFpCp3LEkAgZOrBmNDrDISubG5ZRH488Nc66U4Lg2sp3I4pufIKwpS8B8W0y51mLKB0000]--></g></svg>