<?xml version="1.0" encoding="us-ascii" standalone="no"?><svg xmlns="http://www.w3.org/2000/svg" xmlns:xlink="http://www.w3.org/1999/xlink" contentStyleType="text/css" height="365px" preserveAspectRatio="none" style="width:293px;height:365px;background:#FFFFFF;" version="1.1" viewBox="0 0 293 365" width="293px" zoomAndPan="magnify"><defs/><g><rect fill="none" height="343.5078" style="stroke:#000000;stroke-width:1.5;" width="271" x="11" y="11"/><path d="M182,11 L182,20.4883 L172,30.4883 L11,30.4883 " fill="none" style="stroke:#000000;stroke-width:1.5;"/><text fill="#000000" font-family="sans-serif" font-size="14" lengthAdjust="spacing" textLength="161" x="14" y="25.5352">XORFork_branch_count</text><rect fill="none" height="302.0195" style="stroke:#000000;stroke-width:1.5;" width="251" x="21" y="40.4883"/><path d="M192,40.4883 L192,49.9766 L182,59.9766 L21,59.9766 " fill="none" style="stroke:#000000;stroke-width:1.5;"/><text fill="#000000" font-family="sans-serif" font-size="14" lengthAdjust="spacing" textLength="161" x="24" y="55.0234">XORFork_branch_count</text><rect fill="#008000" height="34.1328" rx="12.5" ry="12.5" style="stroke:#181818;stroke-width:0.5;" width="28" x="170" y="69.9766"/><text fill="#000000" font-family="sans-serif" font-size="12" lengthAdjust="spacing" textLength="8" x="180" y="91.5781">A</text><polygon fill="#F1F1F1" points="172,124.1094,196,124.1094,208,136.1094,196,148.1094,172,148.1094,160,136.1094,172,124.1094" style="stroke:#181818;stroke-width:0.5;"/><text fill="#000000" font-family="sans-serif" font-size="11" lengthAdjust="spacing" textLength="23" x="172.5" y="140.2666">XOR</text><text fill="#000000" font-family="sans-serif" font-size="11" lengthAdjust="spacing" textLength="22" x="138" y="133.7891">true</text><text fill="#000000" font-family="sans-serif" font-size="11" lengthAdjust="spacing" textLength="25" x="208" y="133.7891">false</text><rect fill="#F1F1F1" height="34.1328" rx="12.5" ry="12.5" style="stroke:#181818;stroke-width:0.5;" width="178" x="33" y="158.1094"/><text fill="#000000" font-family="sans-serif" font-size="12" lengthAdjust="spacing" textLength="158" x="43" y="179.7109">B,BCNT,user=B,name=BC1</text><rect fill="#F1F1F1" height="34.1328" rx="12.5" ry="12.5" style="stroke:#181818;stroke-width:0.5;" width="29" x="107.5" y="212.2422"/><text fill="#000000" font-family="sans-serif" font-size="12" lengthAdjust="spacing" textLength="9" x="117.5" y="233.8438">D</text><rect fill="#F1F1F1" height="34.1328" rx="12.5" ry="12.5" style="stroke:#181818;stroke-width:0.5;" width="28" x="232" y="158.1094"/><text fill="#000000" font-family="sans-serif" font-size="12" lengthAdjust="spacing" textLength="8" x="242" y="179.7109">C</text><polygon fill="#F1F1F1" points="184,252.375,196,264.375,184,276.375,172,264.375,184,252.375" style="stroke:#181818;stroke-width:0.5;"/><rect fill="#FF0000" height="34.1328" rx="12.5" ry="12.5" style="stroke:#181818;stroke-width:0.5;" width="26" x="171" y="296.375"/><text fill="#000000" font-family="sans-serif" font-size="12" lengthAdjust="spacing" textLength="6" x="181" y="317.9766">F</text><line style="stroke:#181818;stroke-width:1.0;" x1="122" x2="122" y1="192.2422" y2="212.2422"/><polygon fill="#181818" points="118,202.2422,122,212.2422,126,202.2422,122,206.2422" style="stroke:#181818;stroke-width:1.0;"/><line style="stroke:#181818;stroke-width:1.0;" x1="160" x2="122" y1="136.1094" y2="136.1094"/><line style="stroke:#181818;stroke-width:1.0;" x1="122" x2="122" y1="136.1094" y2="158.1094"/><polygon fill="#181818" points="118,148.1094,122,158.1094,126,148.1094,122,152.1094" style="stroke:#181818;stroke-width:1.0;"/><line style="stroke:#181818;stroke-width:1.0;" x1="208" x2="246" y1="136.1094" y2="136.1094"/><line style="stroke:#181818;stroke-width:1.0;" x1="246" x2="246" y1="136.1094" y2="158.1094"/><polygon fill="#181818" points="242,148.1094,246,158.1094,250,148.1094,246,152.1094" style="stroke:#181818;stroke-width:1.0;"/><line style="stroke:#181818;stroke-width:1.0;" x1="122" x2="122" y1="246.375" y2="264.375"/><line style="stroke:#181818;stroke-width:1.0;" x1="122" x2="172" y1="264.375" y2="264.375"/><polygon fill="#181818" points="162,260.375,172,264.375,162,268.375,166,264.375" style="stroke:#181818;stroke-width:1.0;"/><line style="stroke:#181818;stroke-width:1.0;" x1="246" x2="246" y1="192.2422" y2="264.375"/><line style="stroke:#181818;stroke-width:1.0;" x1="246" x2="196" y1="264.375" y2="264.375"/><polygon fill="#181818" points="206,260.375,196,264.375,206,268.375,202,264.375" style="stroke:#181818;stroke-width:1.0;"/><line style="stroke:#181818;stroke-width:1.0;" x1="184" x2="184" y1="104.1094" y2="124.1094"/><polygon fill="#181818" points="180,114.1094,184,124.1094,188,114.1094,184,118.1094" style="stroke:#181818;stroke-width:1.0;"/><line style="stroke:#181818;stroke-width:1.0;" x1="184" x2="184" y1="276.375" y2="296.375"/><polygon fill="#181818" points="180,286.375,184,296.375,188,286.375,184,290.375" style="stroke:#181818;stroke-width:1.0;"/><!--SRC=[AqWiAiaioSpFKr2Ay0zooo_AZaygIinBpeXFpY_DAr5IgEPI08BqelpI0XnAm0f0G3czA3KrpyhH6YwIcQQW0TIZgL2IaPgde55IL9gg2PS40Iid7ITdln2TqkBK8biddRp4t5HR9sT3QrH5BWX-Qavnge96MYAGGZF96KbHNafc6i9PHQafLcuGMQ0Cn2zSjG00]--></g></svg>