<?xml version="1.0" encoding="us-ascii" standalone="no"?><svg xmlns="http://www.w3.org/2000/svg" xmlns:xlink="http://www.w3.org/1999/xlink" contentStyleType="text/css" height="453px" preserveAspectRatio="none" style="width:168px;height:453px;background:#FFFFFF;" version="1.1" viewBox="0 0 168 453" width="168px" zoomAndPan="magnify"><defs/><g><rect fill="none" height="431.5078" style="stroke:#000000;stroke-width:1.5;" width="146" x="11" y="11"/><path d="M134,11 L134,20.4883 L124,30.4883 L11,30.4883 " fill="none" style="stroke:#000000;stroke-width:1.5;"/><text fill="#000000" font-family="sans-serif" font-size="14" lengthAdjust="spacing" textLength="113" x="14" y="25.5352">XORFork_loop_a</text><rect fill="none" height="390.0195" style="stroke:#000000;stroke-width:1.5;" width="126" x="21" y="40.4883"/><path d="M144,40.4883 L144,49.9766 L134,59.9766 L21,59.9766 " fill="none" style="stroke:#000000;stroke-width:1.5;"/><text fill="#000000" font-family="sans-serif" font-size="14" lengthAdjust="spacing" textLength="113" x="24" y="55.0234">XORFork_loop_a</text><rect fill="#008000" height="34.1328" rx="12.5" ry="12.5" style="stroke:#181818;stroke-width:0.5;" width="28" x="70.25" y="69.9766"/><text fill="#000000" font-family="sans-serif" font-size="12" lengthAdjust="spacing" textLength="8" x="80.25" y="91.5781">A</text><polygon fill="#F1F1F1" points="72.25,124.1094,96.25,124.1094,108.25,136.1094,96.25,148.1094,72.25,148.1094,60.25,136.1094,72.25,124.1094" style="stroke:#181818;stroke-width:0.5;"/><text fill="#000000" font-family="sans-serif" font-size="11" lengthAdjust="spacing" textLength="23" x="72.75" y="140.2666">XOR</text><text fill="#000000" font-family="sans-serif" font-size="11" lengthAdjust="spacing" textLength="22" x="38.25" y="133.7891">true</text><text fill="#000000" font-family="sans-serif" font-size="11" lengthAdjust="spacing" textLength="25" x="108.25" y="133.7891">false</text><rect fill="#F1F1F1" height="34.1328" rx="12.5" ry="12.5" style="stroke:#181818;stroke-width:0.5;" width="27" x="34" y="158.1094"/><text fill="#000000" font-family="sans-serif" font-size="12" lengthAdjust="spacing" textLength="7" x="44" y="179.7109">B</text><rect fill="#F1F1F1" height="34.1328" rx="12.5" ry="12.5" style="stroke:#181818;stroke-width:0.5;" width="29" x="33" y="256.2422"/><text fill="#000000" font-family="sans-serif" font-size="12" lengthAdjust="spacing" textLength="9" x="43" y="277.8438">D</text><polygon fill="#F1F1F1" points="47.5,212.2422,59.5,224.2422,47.5,236.2422,35.5,224.2422,47.5,212.2422" style="stroke:#181818;stroke-width:0.5;"/><polygon fill="#F1F1F1" points="47.5,310.375,47.5,310.375,59.5,322.375,47.5,334.375,47.5,334.375,35.5,322.375,47.5,310.375" style="stroke:#181818;stroke-width:0.5;"/><rect fill="#F1F1F1" height="34.1328" rx="12.5" ry="12.5" style="stroke:#181818;stroke-width:0.5;" width="28" x="107" y="158.1094"/><text fill="#000000" font-family="sans-serif" font-size="12" lengthAdjust="spacing" textLength="8" x="117" y="179.7109">C</text><polygon fill="#F1F1F1" points="84.25,340.375,96.25,352.375,84.25,364.375,72.25,352.375,84.25,340.375" style="stroke:#181818;stroke-width:0.5;"/><rect fill="#FF0000" height="34.1328" rx="12.5" ry="12.5" style="stroke:#181818;stroke-width:0.5;" width="27" x="70.75" y="384.375"/><text fill="#000000" font-family="sans-serif" font-size="12" lengthAdjust="spacing" textLength="7" x="80.75" y="405.9766">E</text><line style="stroke:#181818;stroke-width:1.0;" x1="47.5" x2="47.5" y1="236.2422" y2="256.2422"/><polygon fill="#181818" points="43.5,246.2422,47.5,256.2422,51.5,246.2422,47.5,250.2422" style="stroke:#181818;stroke-width:1.0;"/><line style="stroke:#181818;stroke-width:1.0;" x1="59.5" x2="74" y1="322.375" y2="322.375"/><polygon fill="#181818" points="70,283.3086,74,273.3086,78,283.3086,74,279.3086" style="stroke:#181818;stroke-width:1.0;"/><line style="stroke:#181818;stroke-width:1.0;" x1="74" x2="74" y1="224.2422" y2="322.375"/><line style="stroke:#181818;stroke-width:1.0;" x1="74" x2="59.5" y1="224.2422" y2="224.2422"/><polygon fill="#181818" points="69.5,220.2422,59.5,224.2422,69.5,228.2422,65.5,224.2422" style="stroke:#181818;stroke-width:1.0;"/><line style="stroke:#181818;stroke-width:1.0;" x1="47.5" x2="47.5" y1="290.375" y2="310.375"/><polygon fill="#181818" points="43.5,300.375,47.5,310.375,51.5,300.375,47.5,304.375" style="stroke:#181818;stroke-width:1.0;"/><line style="stroke:#181818;stroke-width:1.0;" x1="47.5" x2="47.5" y1="192.2422" y2="212.2422"/><polygon fill="#181818" points="43.5,202.2422,47.5,212.2422,51.5,202.2422,47.5,206.2422" style="stroke:#181818;stroke-width:1.0;"/><line style="stroke:#181818;stroke-width:1.0;" x1="60.25" x2="47.5" y1="136.1094" y2="136.1094"/><line style="stroke:#181818;stroke-width:1.0;" x1="47.5" x2="47.5" y1="136.1094" y2="158.1094"/><polygon fill="#181818" points="43.5,148.1094,47.5,158.1094,51.5,148.1094,47.5,152.1094" style="stroke:#181818;stroke-width:1.0;"/><line style="stroke:#181818;stroke-width:1.0;" x1="108.25" x2="121" y1="136.1094" y2="136.1094"/><line style="stroke:#181818;stroke-width:1.0;" x1="121" x2="121" y1="136.1094" y2="158.1094"/><polygon fill="#181818" points="117,148.1094,121,158.1094,125,148.1094,121,152.1094" style="stroke:#181818;stroke-width:1.0;"/><line style="stroke:#181818;stroke-width:1.0;" x1="47.5" x2="47.5" y1="334.375" y2="352.375"/><line style="stroke:#181818;stroke-width:1.0;" x1="47.5" x2="72.25" y1="352.375" y2="352.375"/><polygon fill="#181818" points="62.25,348.375,72.25,352.375,62.25,356.375,66.25,352.375" style="stroke:#181818;stroke-width:1.0;"/><line style="stroke:#181818;stroke-width:1.0;" x1="121" x2="121" y1="192.2422" y2="352.375"/><line style="stroke:#181818;stroke-width:1.0;" x1="121" x2="96.25" y1="352.375" y2="352.375"/><polygon fill="#181818" points="106.25,348.375,96.25,352.375,106.25,356.375,102.25,352.375" style="stroke:#181818;stroke-width:1.0;"/><line style="stroke:#181818;stroke-width:1.0;" x1="84.25" x2="84.25" y1="104.1094" y2="124.1094"/><polygon fill="#181818" points="80.25,114.1094,84.25,124.1094,88.25,114.1094,84.25,118.1094" style="stroke:#181818;stroke-width:1.0;"/><line style="stroke:#181818;stroke-width:1.0;" x1="84.25" x2="84.25" y1="364.375" y2="384.375"/><polygon fill="#181818" points="80.25,374.375,84.25,384.375,88.25,374.375,84.25,378.375" style="stroke:#181818;stroke-width:1.0;"/><!--SRC=[AqWiAiaioSpFKr2Ay0zooo_AZi_9po-8JrHIgEPI08BqelpI0Wn9i1G8AASNfQRcMJbQmqKoqnGqWAer5KeoKlCKD4gAIbCruP8WOELaZS8lIYr8JIn14G8hSy6cJA4y8pCd5IwHcbESgg2HbWYaq2nnHkXEpKl9J4Euk2WrnSeL8WkKWNYGgnO0]--></g></svg>