<?xml version="1.0" encoding="us-ascii" standalone="no"?><svg xmlns="http://www.w3.org/2000/svg" xmlns:xlink="http://www.w3.org/1999/xlink" contentStyleType="text/css" height="417px" preserveAspectRatio="none" style="width:225px;height:417px;background:#FFFFFF;" version="1.1" viewBox="0 0 225 417" width="225px" zoomAndPan="magnify"><defs/><g><rect fill="none" height="395.5078" style="stroke:#000000;stroke-width:1.5;" width="203" x="11" y="11"/><path d="M164,11 L164,20.4883 L154,30.4883 L11,30.4883 " fill="none" style="stroke:#000000;stroke-width:1.5;"/><text fill="#000000" font-family="sans-serif" font-size="14" lengthAdjust="spacing" textLength="143" x="14" y="25.5352">XORFork_ANDFork_a</text><rect fill="none" height="354.0195" style="stroke:#000000;stroke-width:1.5;" width="183" x="21" y="40.4883"/><path d="M174,40.4883 L174,49.9766 L164,59.9766 L21,59.9766 " fill="none" style="stroke:#000000;stroke-width:1.5;"/><text fill="#000000" font-family="sans-serif" font-size="14" lengthAdjust="spacing" textLength="143" x="24" y="55.0234">XORFork_ANDFork_a</text><rect fill="#008000" height="34.1328" rx="12.5" ry="12.5" style="stroke:#181818;stroke-width:0.5;" width="28" x="118.5" y="69.9766"/><text fill="#000000" font-family="sans-serif" font-size="12" lengthAdjust="spacing" textLength="8" x="128.5" y="91.5781">A</text><polygon fill="#F1F1F1" points="120.5,124.1094,144.5,124.1094,156.5,136.1094,144.5,148.1094,120.5,148.1094,108.5,136.1094,120.5,124.1094" style="stroke:#181818;stroke-width:0.5;"/><text fill="#000000" font-family="sans-serif" font-size="11" lengthAdjust="spacing" textLength="23" x="121" y="140.2666">XOR</text><text fill="#000000" font-family="sans-serif" font-size="11" lengthAdjust="spacing" textLength="22" x="86.5" y="133.7891">true</text><text fill="#000000" font-family="sans-serif" font-size="11" lengthAdjust="spacing" textLength="25" x="156.5" y="133.7891">false</text><rect fill="#F1F1F1" height="34.1328" rx="12.5" ry="12.5" style="stroke:#181818;stroke-width:0.5;" width="27" x="73.5" y="158.1094"/><text fill="#000000" font-family="sans-serif" font-size="12" lengthAdjust="spacing" textLength="7" x="83.5" y="179.7109">B</text><rect fill="#555555" height="6" rx="2.5" ry="2.5" style="stroke:#555555;stroke-width:1.0;" width="110" x="33" y="212.2422"/><rect fill="#F1F1F1" height="34.1328" rx="12.5" ry="12.5" style="stroke:#181818;stroke-width:0.5;" width="29" x="45" y="238.2422"/><text fill="#000000" font-family="sans-serif" font-size="12" lengthAdjust="spacing" textLength="9" x="55" y="259.8438">D</text><rect fill="#F1F1F1" height="34.1328" rx="12.5" ry="12.5" style="stroke:#181818;stroke-width:0.5;" width="27" x="102" y="238.2422"/><text fill="#000000" font-family="sans-serif" font-size="12" lengthAdjust="spacing" textLength="7" x="112" y="259.8438">E</text><rect fill="#555555" height="6" rx="2.5" ry="2.5" style="stroke:#555555;stroke-width:1.0;" width="110" x="33" y="292.375"/><rect fill="#F1F1F1" height="34.1328" rx="12.5" ry="12.5" style="stroke:#181818;stroke-width:0.5;" width="28" x="164" y="158.1094"/><text fill="#000000" font-family="sans-serif" font-size="12" lengthAdjust="spacing" textLength="8" x="174" y="179.7109">C</text><polygon fill="#F1F1F1" points="132.5,304.375,144.5,316.375,132.5,328.375,120.5,316.375,132.5,304.375" style="stroke:#181818;stroke-width:0.5;"/><rect fill="#FF0000" height="34.1328" rx="12.5" ry="12.5" style="stroke:#181818;stroke-width:0.5;" width="26" x="119.5" y="348.375"/><text fill="#000000" font-family="sans-serif" font-size="12" lengthAdjust="spacing" textLength="6" x="129.5" y="369.9766">F</text><line style="stroke:#181818;stroke-width:1.0;" x1="59.5" x2="59.5" y1="218.2422" y2="238.2422"/><polygon fill="#181818" points="55.5,228.2422,59.5,238.2422,63.5,228.2422,59.5,232.2422" style="stroke:#181818;stroke-width:1.0;"/><line style="stroke:#181818;stroke-width:1.0;" x1="115.5" x2="115.5" y1="218.2422" y2="238.2422"/><polygon fill="#181818" points="111.5,228.2422,115.5,238.2422,119.5,228.2422,115.5,232.2422" style="stroke:#181818;stroke-width:1.0;"/><line style="stroke:#181818;stroke-width:1.0;" x1="59.5" x2="59.5" y1="272.375" y2="292.375"/><polygon fill="#181818" points="55.5,282.375,59.5,292.375,63.5,282.375,59.5,286.375" style="stroke:#181818;stroke-width:1.0;"/><line style="stroke:#181818;stroke-width:1.0;" x1="115.5" x2="115.5" y1="272.375" y2="292.375"/><polygon fill="#181818" points="111.5,282.375,115.5,292.375,119.5,282.375,115.5,286.375" style="stroke:#181818;stroke-width:1.0;"/><line style="stroke:#181818;stroke-width:1.0;" x1="87" x2="87" y1="192.2422" y2="212.2422"/><polygon fill="#181818" points="83,202.2422,87,212.2422,91,202.2422,87,206.2422" style="stroke:#181818;stroke-width:1.0;"/><line style="stroke:#181818;stroke-width:1.0;" x1="108.5" x2="87" y1="136.1094" y2="136.1094"/><line style="stroke:#181818;stroke-width:1.0;" x1="87" x2="87" y1="136.1094" y2="158.1094"/><polygon fill="#181818" points="83,148.1094,87,158.1094,91,148.1094,87,152.1094" style="stroke:#181818;stroke-width:1.0;"/><line style="stroke:#181818;stroke-width:1.0;" x1="156.5" x2="178" y1="136.1094" y2="136.1094"/><line style="stroke:#181818;stroke-width:1.0;" x1="178" x2="178" y1="136.1094" y2="158.1094"/><polygon fill="#181818" points="174,148.1094,178,158.1094,182,148.1094,178,152.1094" style="stroke:#181818;stroke-width:1.0;"/><line style="stroke:#181818;stroke-width:1.0;" x1="87" x2="87" y1="298.375" y2="316.375"/><line style="stroke:#181818;stroke-width:1.0;" x1="87" x2="120.5" y1="316.375" y2="316.375"/><polygon fill="#181818" points="110.5,312.375,120.5,316.375,110.5,320.375,114.5,316.375" style="stroke:#181818;stroke-width:1.0;"/><line style="stroke:#181818;stroke-width:1.0;" x1="178" x2="178" y1="192.2422" y2="316.375"/><line style="stroke:#181818;stroke-width:1.0;" x1="178" x2="144.5" y1="316.375" y2="316.375"/><polygon fill="#181818" points="154.5,312.375,144.5,316.375,154.5,320.375,150.5,316.375" style="stroke:#181818;stroke-width:1.0;"/><line style="stroke:#181818;stroke-width:1.0;" x1="132.5" x2="132.5" y1="104.1094" y2="124.1094"/><polygon fill="#181818" points="128.5,114.1094,132.5,124.1094,136.5,114.1094,132.5,118.1094" style="stroke:#181818;stroke-width:1.0;"/><line style="stroke:#181818;stroke-width:1.0;" x1="132.5" x2="132.5" y1="328.375" y2="348.375"/><polygon fill="#181818" points="128.5,338.375,132.5,348.375,136.5,338.375,132.5,342.375" style="stroke:#181818;stroke-width:1.0;"/><!--SRC=[AqWiAiaioSpFKr2Ay0zooo_AZdVqSm7JYKeArLmAG91Ub5zQW4qUB0i2okb5gQbvLexMS97CD0KDe0PDXPACr3m5ZPAYqbHDk2G8M3bPe_3JW4QY280LkM0gKaXCJypCmrJgYgeqDIy5rSpKdE9K1OsqH225vX9dX4wWhimqXBUAKbEit22o8FF00S5L2m00]--></g></svg>