<?xml version="1.0" encoding="us-ascii" standalone="no"?><svg xmlns="http://www.w3.org/2000/svg" xmlns:xlink="http://www.w3.org/1999/xlink" contentStyleType="text/css" height="830px" preserveAspectRatio="none" style="width:1309px;height:830px;background:#FFFFFF;" version="1.1" viewBox="0 0 1309 830" width="1309px" zoomAndPan="magnify"><defs/><g><ellipse cx="512.5" cy="20" fill="#222222" rx="10" ry="10" style="stroke:#222222;stroke-width:1.0;"/><rect fill="#F1F1F1" height="33.9688" rx="12.5" ry="12.5" style="stroke:#181818;stroke-width:0.5;" width="310" x="357.5" y="50"/><text fill="#000000" font-family="sans-serif" font-size="12" lengthAdjust="spacing" textLength="290" x="367.5" y="71.1387">input start events, SCC loop events and graph</text><rect fill="none" height="685.8281" style="stroke:#000000;stroke-width:1.5;" width="1287" x="11" y="93.9688"/><path d="M286,93.9688 L286,103.2656 L276,113.2656 L11,113.2656 " fill="none" style="stroke:#000000;stroke-width:1.5;"/><text fill="#000000" font-family="sans-serif" font-size="14" lengthAdjust="spacing" textLength="265" x="14" y="107.9639">calc_loop_end_break_and_loop_edges</text><rect fill="#F1F1F1" height="47.9375" rx="12.5" ry="12.5" style="stroke:#181818;stroke-width:0.5;" width="284" x="370.5" y="130.2656"/><text fill="#000000" font-family="sans-serif" font-size="12" lengthAdjust="spacing" textLength="199" x="380.5" y="151.4043">find all out edges of SCC events</text><text fill="#000000" font-family="sans-serif" font-size="12" lengthAdjust="spacing" textLength="264" x="380.5" y="165.373">that point to events not in the SCC events</text><polygon fill="#F1F1F1" points="443,198.2031,582,198.2031,594,210.2031,582,222.2031,443,222.2031,431,210.2031,443,198.2031" style="stroke:#181818;stroke-width:0.5;"/><text fill="#000000" font-family="sans-serif" font-size="11" lengthAdjust="spacing" textLength="139" x="443" y="214.0112">check if there are edges</text><text fill="#000000" font-family="sans-serif" font-size="11" lengthAdjust="spacing" textLength="84" x="347" y="207.6089">no edges exist</text><text fill="#000000" font-family="sans-serif" font-size="11" lengthAdjust="spacing" textLength="66" x="594" y="207.6089">edges exist</text><rect fill="#F1F1F1" height="47.9375" rx="12.5" ry="12.5" style="stroke:#181818;stroke-width:0.5;" width="333" x="23" y="232.2031"/><text fill="#000000" font-family="sans-serif" font-size="12" lengthAdjust="spacing" textLength="222" x="33" y="253.3418">get events furthest away from start</text><text fill="#000000" font-family="sans-serif" font-size="12" lengthAdjust="spacing" textLength="313" x="33" y="267.3105">events in SCC events that connect to start events</text><rect fill="#F1F1F1" height="33.9688" rx="12.5" ry="12.5" style="stroke:#181818;stroke-width:0.5;" width="133" x="123" y="314.1094"/><text fill="#000000" font-family="sans-serif" font-size="12" lengthAdjust="spacing" textLength="113" x="133" y="335.248">set as end events</text><rect fill="#F1F1F1" height="33.9688" rx="12.5" ry="12.5" style="stroke:#181818;stroke-width:0.5;" width="119" x="130" y="382.0469"/><text fill="#000000" font-family="sans-serif" font-size="12" lengthAdjust="spacing" textLength="99" x="140" y="403.1855">no break edges</text><rect fill="#F1F1F1" height="33.9688" rx="12.5" ry="12.5" style="stroke:#181818;stroke-width:0.5;" width="439" x="616" y="232.2031"/><text fill="#000000" font-family="sans-serif" font-size="12" lengthAdjust="spacing" textLength="419" x="626" y="253.3418">get set of Events that are the first entries in out edges EventTuple</text><rect fill="#F1F1F1" height="33.9688" rx="12.5" ry="12.5" style="stroke:#181818;stroke-width:0.5;" width="389" x="641" y="300.1406"/><text fill="#000000" font-family="sans-serif" font-size="12" lengthAdjust="spacing" textLength="369" x="651" y="321.2793">find subset of those events that have edge to start events</text><polygon fill="#F1F1F1" points="777.5,368.0781,893.5,368.0781,905.5,380.0781,893.5,392.0781,777.5,392.0781,765.5,380.0781,777.5,368.0781" style="stroke:#181818;stroke-width:0.5;"/><text fill="#000000" font-family="sans-serif" font-size="11" lengthAdjust="spacing" textLength="116" x="777.5" y="383.8862">check size of subset</text><text fill="#000000" font-family="sans-serif" font-size="11" lengthAdjust="spacing" textLength="78" x="687.5" y="377.4839">subset empty</text><text fill="#000000" font-family="sans-serif" font-size="11" lengthAdjust="spacing" textLength="100" x="905.5" y="377.4839">subset not empty</text><rect fill="#F1F1F1" height="47.9375" rx="12.5" ry="12.5" style="stroke:#181818;stroke-width:0.5;" width="333" x="439" y="402.0781"/><text fill="#000000" font-family="sans-serif" font-size="12" lengthAdjust="spacing" textLength="222" x="449" y="423.2168">get events furthest away from start</text><text fill="#000000" font-family="sans-serif" font-size="12" lengthAdjust="spacing" textLength="313" x="449" y="437.1855">events in SCC events that connect to start events</text><rect fill="#F1F1F1" height="33.9688" rx="12.5" ry="12.5" style="stroke:#181818;stroke-width:0.5;" width="133" x="539" y="483.9844"/><text fill="#000000" font-family="sans-serif" font-size="12" lengthAdjust="spacing" textLength="113" x="549" y="505.123">set as end events</text><rect fill="#F1F1F1" height="33.9688" rx="12.5" ry="12.5" style="stroke:#181818;stroke-width:0.5;" width="439" x="386" y="551.9219"/><text fill="#000000" font-family="sans-serif" font-size="12" lengthAdjust="spacing" textLength="419" x="396" y="573.0605">break events are then the second entries in out edges EventTuple</text><rect fill="#F1F1F1" height="33.9688" rx="12.5" ry="12.5" style="stroke:#181818;stroke-width:0.5;" width="180" x="975.5" y="402.0781"/><text fill="#000000" font-family="sans-serif" font-size="12" lengthAdjust="spacing" textLength="160" x="985.5" y="423.2168">set end events as subset</text><rect fill="#F1F1F1" height="61.9063" rx="12.5" ry="12.5" style="stroke:#181818;stroke-width:0.5;" width="441" x="845" y="470.0156"/><text fill="#000000" font-family="sans-serif" font-size="12" lengthAdjust="spacing" textLength="392" x="855" y="491.1543">break events are calculated as events at the end of the paths</text><text fill="#000000" font-family="sans-serif" font-size="12" lengthAdjust="spacing" textLength="205" x="855" y="505.123">between those events not in the</text><text fill="#000000" font-family="sans-serif" font-size="12" lengthAdjust="spacing" textLength="421" x="855" y="519.0918">subset and between the exits points from end events (if they exist)</text><polygon fill="#F1F1F1" points="835.5,591.8906,847.5,603.8906,835.5,615.8906,823.5,603.8906,835.5,591.8906" style="stroke:#181818;stroke-width:0.5;"/><polygon fill="#F1F1F1" points="512.5,621.8906,524.5,633.8906,512.5,645.8906,500.5,633.8906,512.5,621.8906" style="stroke:#181818;stroke-width:0.5;"/><rect fill="#F1F1F1" height="47.9375" rx="12.5" ry="12.5" style="stroke:#181818;stroke-width:0.5;" width="252" x="386.5" y="665.8906"/><text fill="#000000" font-family="sans-serif" font-size="12" lengthAdjust="spacing" textLength="232" x="396.5" y="687.0293">set loop edges as all edges between</text><text fill="#000000" font-family="sans-serif" font-size="12" lengthAdjust="spacing" textLength="178" x="396.5" y="700.998">end events and start events</text><rect fill="#F1F1F1" height="33.9688" rx="12.5" ry="12.5" style="stroke:#181818;stroke-width:0.5;" width="328" x="348.5" y="733.8281"/><text fill="#000000" font-family="sans-serif" font-size="12" lengthAdjust="spacing" textLength="308" x="358.5" y="754.9668">output end events, break events and loop edges</text><ellipse cx="512.5" cy="809.7969" fill="none" rx="10" ry="10" style="stroke:#222222;stroke-width:1.5;"/><line style="stroke:#222222;stroke-width:2.5;" x1="506.3128" x2="518.6872" y1="803.6097" y2="815.9841"/><line style="stroke:#222222;stroke-width:2.5;" x1="518.6872" x2="506.3128" y1="803.6097" y2="815.9841"/><line style="stroke:#181818;stroke-width:1.0;" x1="512.5" x2="512.5" y1="30" y2="50"/><polygon fill="#181818" points="508.5,40,512.5,50,516.5,40,512.5,44" style="stroke:#181818;stroke-width:1.0;"/><line style="stroke:#181818;stroke-width:1.0;" x1="189.5" x2="189.5" y1="280.1406" y2="314.1094"/><polygon fill="#181818" points="185.5,304.1094,189.5,314.1094,193.5,304.1094,189.5,308.1094" style="stroke:#181818;stroke-width:1.0;"/><line style="stroke:#181818;stroke-width:1.0;" x1="189.5" x2="189.5" y1="348.0781" y2="382.0469"/><polygon fill="#181818" points="185.5,372.0469,189.5,382.0469,193.5,372.0469,189.5,376.0469" style="stroke:#181818;stroke-width:1.0;"/><line style="stroke:#181818;stroke-width:1.0;" x1="835.5" x2="835.5" y1="266.1719" y2="300.1406"/><polygon fill="#181818" points="831.5,290.1406,835.5,300.1406,839.5,290.1406,835.5,294.1406" style="stroke:#181818;stroke-width:1.0;"/><line style="stroke:#181818;stroke-width:1.0;" x1="605.5" x2="605.5" y1="450.0156" y2="483.9844"/><polygon fill="#181818" points="601.5,473.9844,605.5,483.9844,609.5,473.9844,605.5,477.9844" style="stroke:#181818;stroke-width:1.0;"/><line style="stroke:#181818;stroke-width:1.0;" x1="605.5" x2="605.5" y1="517.9531" y2="551.9219"/><polygon fill="#181818" points="601.5,541.9219,605.5,551.9219,609.5,541.9219,605.5,545.9219" style="stroke:#181818;stroke-width:1.0;"/><line style="stroke:#181818;stroke-width:1.0;" x1="1065.5" x2="1065.5" y1="436.0469" y2="470.0156"/><polygon fill="#181818" points="1061.5,460.0156,1065.5,470.0156,1069.5,460.0156,1065.5,464.0156" style="stroke:#181818;stroke-width:1.0;"/><line style="stroke:#181818;stroke-width:1.0;" x1="765.5" x2="605.5" y1="380.0781" y2="380.0781"/><line style="stroke:#181818;stroke-width:1.0;" x1="605.5" x2="605.5" y1="380.0781" y2="402.0781"/><polygon fill="#181818" points="601.5,392.0781,605.5,402.0781,609.5,392.0781,605.5,396.0781" style="stroke:#181818;stroke-width:1.0;"/><line style="stroke:#181818;stroke-width:1.0;" x1="905.5" x2="1065.5" y1="380.0781" y2="380.0781"/><line style="stroke:#181818;stroke-width:1.0;" x1="1065.5" x2="1065.5" y1="380.0781" y2="402.0781"/><polygon fill="#181818" points="1061.5,392.0781,1065.5,402.0781,1069.5,392.0781,1065.5,396.0781" style="stroke:#181818;stroke-width:1.0;"/><line style="stroke:#181818;stroke-width:1.0;" x1="605.5" x2="605.5" y1="585.8906" y2="603.8906"/><line style="stroke:#181818;stroke-width:1.0;" x1="605.5" x2="823.5" y1="603.8906" y2="603.8906"/><polygon fill="#181818" points="813.5,599.8906,823.5,603.8906,813.5,607.8906,817.5,603.8906" style="stroke:#181818;stroke-width:1.0;"/><line style="stroke:#181818;stroke-width:1.0;" x1="1065.5" x2="1065.5" y1="531.9219" y2="603.8906"/><line style="stroke:#181818;stroke-width:1.0;" x1="1065.5" x2="847.5" y1="603.8906" y2="603.8906"/><polygon fill="#181818" points="857.5,599.8906,847.5,603.8906,857.5,607.8906,853.5,603.8906" style="stroke:#181818;stroke-width:1.0;"/><line style="stroke:#181818;stroke-width:1.0;" x1="835.5" x2="835.5" y1="334.1094" y2="368.0781"/><polygon fill="#181818" points="831.5,358.0781,835.5,368.0781,839.5,358.0781,835.5,362.0781" style="stroke:#181818;stroke-width:1.0;"/><line style="stroke:#181818;stroke-width:1.0;" x1="431" x2="189.5" y1="210.2031" y2="210.2031"/><line style="stroke:#181818;stroke-width:1.0;" x1="189.5" x2="189.5" y1="210.2031" y2="232.2031"/><polygon fill="#181818" points="185.5,222.2031,189.5,232.2031,193.5,222.2031,189.5,226.2031" style="stroke:#181818;stroke-width:1.0;"/><line style="stroke:#181818;stroke-width:1.0;" x1="594" x2="835.5" y1="210.2031" y2="210.2031"/><line style="stroke:#181818;stroke-width:1.0;" x1="835.5" x2="835.5" y1="210.2031" y2="232.2031"/><polygon fill="#181818" points="831.5,222.2031,835.5,232.2031,839.5,222.2031,835.5,226.2031" style="stroke:#181818;stroke-width:1.0;"/><line style="stroke:#181818;stroke-width:1.0;" x1="189.5" x2="189.5" y1="416.0156" y2="633.8906"/><line style="stroke:#181818;stroke-width:1.0;" x1="189.5" x2="500.5" y1="633.8906" y2="633.8906"/><polygon fill="#181818" points="490.5,629.8906,500.5,633.8906,490.5,637.8906,494.5,633.8906" style="stroke:#181818;stroke-width:1.0;"/><line style="stroke:#181818;stroke-width:1.0;" x1="835.5" x2="835.5" y1="615.8906" y2="633.8906"/><line style="stroke:#181818;stroke-width:1.0;" x1="835.5" x2="524.5" y1="633.8906" y2="633.8906"/><polygon fill="#181818" points="534.5,629.8906,524.5,633.8906,534.5,637.8906,530.5,633.8906" style="stroke:#181818;stroke-width:1.0;"/><line style="stroke:#181818;stroke-width:1.0;" x1="512.5" x2="512.5" y1="178.2031" y2="198.2031"/><polygon fill="#181818" points="508.5,188.2031,512.5,198.2031,516.5,188.2031,512.5,192.2031" style="stroke:#181818;stroke-width:1.0;"/><line style="stroke:#181818;stroke-width:1.0;" x1="512.5" x2="512.5" y1="645.8906" y2="665.8906"/><polygon fill="#181818" points="508.5,655.8906,512.5,665.8906,516.5,655.8906,512.5,659.8906" style="stroke:#181818;stroke-width:1.0;"/><line style="stroke:#181818;stroke-width:1.0;" x1="512.5" x2="512.5" y1="713.8281" y2="733.8281"/><polygon fill="#181818" points="508.5,723.8281,512.5,733.8281,516.5,723.8281,512.5,727.8281" style="stroke:#181818;stroke-width:1.0;"/><line style="stroke:#181818;stroke-width:1.0;" x1="512.5" x2="512.5" y1="83.9688" y2="130.2656"/><polygon fill="#181818" points="508.5,120.2656,512.5,130.2656,516.5,120.2656,512.5,124.2656" style="stroke:#181818;stroke-width:1.0;"/><line style="stroke:#181818;stroke-width:1.0;" x1="512.5" x2="512.5" y1="767.7969" y2="799.7969"/><polygon fill="#181818" points="508.5,789.7969,512.5,799.7969,516.5,789.7969,512.5,793.7969" style="stroke:#181818;stroke-width:1.0;"/><!--SRC=[lLJ1Ri8m3Btp5TPEHU8Bw17j2xOZ4WgjIoEAKpKkZ4txzpbEQ0jYY5rsg9Gcjj_pUt4003oRZcUoWAMbjkUu0NX4Oh-0jzKA6kVQj066IjXrfgrppMabrh9r12-5QOfD2DqWbPjjXsQ_aUYqLUxGly2N9YbOPQMIQHfmWgd7u2g5YqXhujemjCuI0xiBFZa6Iy0rJcBpeQoj82jgBFPX9K4TWf5Fwy_31a56Bk7XX_Ky7tALrWullKFLTvBW6Sp9dA7gt25giwOK83n63g1q2qU4XHAUwfXVWtW1CO8l2jmz5uQgN-IPmt2AZKV87hCFnKN9rmch845GhBATj2FxdKMbFsgluUzzs-0D5_N9zzjKbcid5AOjr-OO1NxSzEYCjvyOIiMY5rSI11vQFbztzM- -FEEDnYHpqaH4SUETz2X8vTyaZgQc_iFz_aq3rMVW5LZ6f6SOXkdi6yDOQdVfW9LqgAdMeimprp9wM-GJQaiJjyVHMrDY6rw3CHR3dPH0dLaVdPdmpU98djFDlH61IblDxlzfu_4HKY6bWV1mn9y4B-PFb0bNzgxDIx4ZF79Zy0AkjPA34IecViyIfny0]--></g></svg>