<?xml version="1.0" encoding="us-ascii" standalone="no"?><svg xmlns="http://www.w3.org/2000/svg" xmlns:xlink="http://www.w3.org/1999/xlink" contentStyleType="text/css" height="2574px" preserveAspectRatio="none" style="width:808px;height:2574px;background:#FFFFFF;" version="1.1" viewBox="0 0 808 2574" width="808px" zoomAndPan="magnify"><defs/><g><rect fill="none" height="2552.7109" style="stroke:#000000;stroke-width:1.5;" width="786" x="11" y="11"/><path d="M286,11 L286,20.2969 L276,30.2969 L11,30.2969 " fill="none" style="stroke:#000000;stroke-width:1.5;"/><text fill="#000000" font-family="sans-serif" font-size="14" lengthAdjust="spacing" textLength="265" x="14" y="24.9951">calc_loop_end_break_and_loop_edges</text><ellipse cx="280.375" cy="50.2969" fill="#222222" rx="10" ry="10" style="stroke:#222222;stroke-width:1.0;"/><rect fill="#F1F1F1" height="47.9375" rx="12.5" ry="12.5" style="stroke:#181818;stroke-width:0.5;" width="404" x="78.375" y="80.2969"/><text fill="#000000" font-family="sans-serif" font-size="12" lengthAdjust="spacing" textLength="384" x="88.375" y="101.4355">input start events, SCC loop events, graph and map of nodes</text><text fill="#000000" font-family="sans-serif" font-size="12" lengthAdjust="spacing" textLength="222" x="88.375" y="115.4043">to overlapping following nodes sets</text><rect fill="none" height="807.7344" style="stroke:#000000;stroke-width:1.5;" width="766" x="21" y="138.2344"/><path d="M132,138.2344 L132,147.5313 L122,157.5313 L21,157.5313 " fill="none" style="stroke:#000000;stroke-width:1.5;"/><text fill="#000000" font-family="sans-serif" font-size="14" lengthAdjust="spacing" textLength="101" x="24" y="152.2295">main algorithm</text><rect fill="#F1F1F1" height="33.9688" rx="12.5" ry="12.5" style="stroke:#181818;stroke-width:0.5;" width="310" x="125.375" y="174.5313"/><text fill="#000000" font-family="sans-serif" font-size="12" lengthAdjust="spacing" textLength="290" x="135.375" y="195.6699">input start events, SCC loop events and graph</text><rect fill="#F1F1F1" height="33.9688" rx="12.5" ry="12.5" style="stroke:#181818;stroke-width:0.5;" width="391" x="84.875" y="228.5"/><text fill="#000000" font-family="sans-serif" font-size="12" lengthAdjust="spacing" textLength="371" x="94.875" y="249.6387">find all nodes that have an edge not pointing back into scc</text><rect fill="#F1F1F1" height="33.9688" rx="12.5" ry="12.5" style="stroke:#181818;stroke-width:0.5;" width="369" x="95.875" y="282.4688"/><text fill="#000000" font-family="sans-serif" font-size="12" lengthAdjust="spacing" textLength="349" x="105.875" y="303.6074">find all loop end nodes using "loop end node algorithm"</text><polygon fill="#F1F1F1" points="189.375,336.4375,371.375,336.4375,383.375,348.4375,371.375,360.4375,189.375,360.4375,177.375,348.4375,189.375,336.4375" style="stroke:#181818;stroke-width:0.5;"/><text fill="#000000" font-family="sans-serif" font-size="11" lengthAdjust="spacing" textLength="182" x="189.375" y="352.2456">check if edges exiting loop exist</text><text fill="#000000" font-family="sans-serif" font-size="11" lengthAdjust="spacing" textLength="84" x="93.375" y="345.8433">no edges exist</text><text fill="#000000" font-family="sans-serif" font-size="11" lengthAdjust="spacing" textLength="66" x="383.375" y="345.8433">edges exist</text><rect fill="#F1F1F1" height="33.9688" rx="12.5" ry="12.5" style="stroke:#181818;stroke-width:0.5;" width="119" x="41" y="370.4375"/><text fill="#000000" font-family="sans-serif" font-size="12" lengthAdjust="spacing" textLength="99" x="51" y="391.5762">no break edges</text><rect fill="#F1F1F1" height="47.9375" rx="12.5" ry="12.5" style="stroke:#181818;stroke-width:0.5;" width="242" x="339.25" y="370.4375"/><text fill="#000000" font-family="sans-serif" font-size="12" lengthAdjust="spacing" textLength="222" x="349.25" y="391.5762">get set of end nodes that intersect</text><text fill="#000000" font-family="sans-serif" font-size="12" lengthAdjust="spacing" textLength="155" x="349.25" y="405.5449">with nodes that exit loop</text><rect fill="#F1F1F1" height="33.9688" rx="12.5" ry="12.5" style="stroke:#181818;stroke-width:0.5;" width="209" x="355.75" y="438.375"/><text fill="#000000" font-family="sans-serif" font-size="12" lengthAdjust="spacing" textLength="189" x="365.75" y="459.5137">get potential break out nodes</text><rect fill="#F1F1F1" height="61.9063" rx="12.5" ry="12.5" style="stroke:#181818;stroke-width:0.5;" width="298" x="311.25" y="492.3438"/><text fill="#000000" font-family="sans-serif" font-size="12" lengthAdjust="spacing" textLength="165" x="321.25" y="513.4824">filter break out nodes with</text><text fill="#000000" font-family="sans-serif" font-size="12" lengthAdjust="spacing" textLength="278" x="321.25" y="527.4512">"filter_break_out_nodes_based_on_overlaps"</text><text fill="#000000" font-family="sans-serif" font-size="12" lengthAdjust="spacing" textLength="59" x="321.25" y="541.4199">algorithm</text><polygon fill="#F1F1F1" points="402.25,574.25,518.25,574.25,530.25,586.25,518.25,598.25,402.25,598.25,390.25,586.25,402.25,574.25" style="stroke:#181818;stroke-width:0.5;"/><text fill="#000000" font-family="sans-serif" font-size="11" lengthAdjust="spacing" textLength="116" x="402.25" y="590.0581">check size of subset</text><text fill="#000000" font-family="sans-serif" font-size="11" lengthAdjust="spacing" textLength="78" x="312.25" y="583.6558">subset empty</text><text fill="#000000" font-family="sans-serif" font-size="11" lengthAdjust="spacing" textLength="100" x="530.25" y="583.6558">subset not empty</text><rect fill="#F1F1F1" height="47.9375" rx="12.5" ry="12.5" style="stroke:#181818;stroke-width:0.5;" width="238" x="190" y="608.25"/><text fill="#000000" font-family="sans-serif" font-size="12" lengthAdjust="spacing" textLength="202" x="200" y="629.3887">break nodes are the nodes that</text><text fill="#000000" font-family="sans-serif" font-size="12" lengthAdjust="spacing" textLength="218" x="200" y="643.3574">exit the loop from break out nodes</text><rect fill="#F1F1F1" height="61.9063" rx="12.5" ry="12.5" style="stroke:#181818;stroke-width:0.5;" width="300" x="461.5" y="608.25"/><text fill="#000000" font-family="sans-serif" font-size="12" lengthAdjust="spacing" textLength="280" x="471.5" y="629.3887">break nodes are calculated as inward nodes</text><text fill="#000000" font-family="sans-serif" font-size="12" lengthAdjust="spacing" textLength="279" x="471.5" y="643.3574">into the exit points of the end nodes if there</text><text fill="#000000" font-family="sans-serif" font-size="12" lengthAdjust="spacing" textLength="226" x="471.5" y="657.3262">is a path back to a break out nodes</text><rect fill="#F1F1F1" height="61.9063" rx="12.5" ry="12.5" style="stroke:#181818;stroke-width:0.5;" width="327" x="448" y="690.1563"/><text fill="#000000" font-family="sans-serif" font-size="12" lengthAdjust="spacing" textLength="301" x="458" y="711.2949">additional break nodes are calculated as nodes</text><text fill="#000000" font-family="sans-serif" font-size="12" lengthAdjust="spacing" textLength="307" x="458" y="725.2637">directly following the breakout nodes that do not</text><text fill="#000000" font-family="sans-serif" font-size="12" lengthAdjust="spacing" textLength="225" x="458" y="739.2324">have a path to end node exit points</text><polygon fill="#F1F1F1" points="460.25,758.0625,472.25,770.0625,460.25,782.0625,448.25,770.0625,460.25,758.0625" style="stroke:#181818;stroke-width:0.5;"/><polygon fill="#F1F1F1" points="280.375,788.0625,292.375,800.0625,280.375,812.0625,268.375,800.0625,280.375,788.0625" style="stroke:#181818;stroke-width:0.5;"/><rect fill="#F1F1F1" height="47.9375" rx="12.5" ry="12.5" style="stroke:#181818;stroke-width:0.5;" width="252" x="154.375" y="832.0625"/><text fill="#000000" font-family="sans-serif" font-size="12" lengthAdjust="spacing" textLength="232" x="164.375" y="853.2012">set loop edges as all edges between</text><text fill="#000000" font-family="sans-serif" font-size="12" lengthAdjust="spacing" textLength="178" x="164.375" y="867.1699">end events and start events</text><rect fill="#F1F1F1" height="33.9688" rx="12.5" ry="12.5" style="stroke:#181818;stroke-width:0.5;" width="328" x="116.375" y="900"/><text fill="#000000" font-family="sans-serif" font-size="12" lengthAdjust="spacing" textLength="308" x="126.375" y="921.1387">output end events, break events and loop edges</text><ellipse cx="280.375" cy="975.9688" fill="none" rx="10" ry="10" style="stroke:#222222;stroke-width:1.5;"/><line style="stroke:#222222;stroke-width:2.5;" x1="274.1878" x2="286.5622" y1="969.7816" y2="982.1559"/><line style="stroke:#222222;stroke-width:2.5;" x1="286.5622" x2="274.1878" y1="969.7816" y2="982.1559"/><rect fill="none" height="1555.7422" style="stroke:#000000;stroke-width:1.5;" width="568" x="25.375" y="995.9688"/><path d="M137.375,995.9688 L137.375,1005.2656 L127.375,1015.2656 L25.375,1015.2656 " fill="none" style="stroke:#000000;stroke-width:1.5;"/><text fill="#000000" font-family="sans-serif" font-size="14" lengthAdjust="spacing" textLength="102" x="28.375" y="1009.9639">sub algorithms</text><ellipse cx="280.375" cy="1035.2656" fill="#222222" rx="10" ry="10" style="stroke:#222222;stroke-width:1.0;"/><rect fill="#F1F1F1" height="33.9688" rx="12.5" ry="12.5" style="stroke:#181818;stroke-width:0.5;" width="270" x="145.375" y="1065.2656"/><text fill="#000000" font-family="sans-serif" font-size="12" lengthAdjust="spacing" textLength="250" x="155.375" y="1086.4043">input start nodes, scc nodes and graph</text><rect fill="none" height="724.418" style="stroke:#000000;stroke-width:1.5;" width="448" x="56.875" y="1109.2344"/><path d="M235.875,1109.2344 L235.875,1118.5313 L225.875,1128.5313 L56.875,1128.5313 " fill="none" style="stroke:#000000;stroke-width:1.5;"/><text fill="#000000" font-family="sans-serif" font-size="14" lengthAdjust="spacing" textLength="169" x="59.875" y="1123.2295">loop end node algorithm</text><rect fill="#F1F1F1" height="33.9688" rx="12.5" ry="12.5" style="stroke:#181818;stroke-width:0.5;" width="427" x="66.875" y="1145.5313"/><text fill="#000000" font-family="sans-serif" font-size="12" lengthAdjust="spacing" textLength="407" x="76.875" y="1166.6699">find the nodes with edges to start nodes as potential end nodes</text><rect fill="#F1F1F1" height="33.9688" rx="12.5" ry="12.5" style="stroke:#181818;stroke-width:0.5;" width="305" x="127.875" y="1199.5"/><text fill="#000000" font-family="sans-serif" font-size="12" lengthAdjust="spacing" textLength="285" x="137.875" y="1220.6387">copy graph and remove edges to start nodes</text><rect fill="#F1F1F1" height="33.9688" rx="12.5" ry="12.5" style="stroke:#181818;stroke-width:0.5;" width="219" x="170.875" y="1297.4688"/><text fill="#000000" font-family="sans-serif" font-size="12" lengthAdjust="spacing" textLength="199" x="180.875" y="1318.6074">set node as potential end node</text><rect fill="#F1F1F1" height="33.9688" rx="12.5" ry="12.5" style="stroke:#181818;stroke-width:0.5;" width="221" x="169.875" y="1395.4375"/><text fill="#000000" font-family="sans-serif" font-size="12" lengthAdjust="spacing" textLength="201" x="179.875" y="1416.5762">set as other potential end node</text><rect fill="#F1F1F1" height="47.9375" rx="12.5" ry="12.5" style="stroke:#181818;stroke-width:0.5;" width="333" x="113.875" y="1449.4063"/><text fill="#000000" font-family="sans-serif" font-size="12" lengthAdjust="spacing" textLength="210" x="123.875" y="1470.5449">check if other potential end node</text><text fill="#000000" font-family="sans-serif" font-size="12" lengthAdjust="spacing" textLength="313" x="123.875" y="1484.5137">has path to potential end node but not vice versa</text><rect fill="#F1F1F1" height="47.9375" rx="12.5" ry="12.5" style="stroke:#181818;stroke-width:0.5;" width="222" x="169.375" y="1565.7461"/><text fill="#000000" font-family="sans-serif" font-size="12" lengthAdjust="spacing" textLength="202" x="179.375" y="1586.8848">potential end node is not a loop</text><text fill="#000000" font-family="sans-serif" font-size="12" lengthAdjust="spacing" textLength="194" x="179.375" y="1600.8535">end node and remove from set</text><polygon fill="#F1F1F1" points="280.375,1517.3438,280.375,1517.3438,292.375,1529.3438,280.375,1541.3438,280.375,1541.3438,268.375,1529.3438,280.375,1517.3438" style="stroke:#181818;stroke-width:0.5;"/><text fill="#000000" font-family="sans-serif" font-size="11" lengthAdjust="spacing" textLength="23" x="284.375" y="1551.5542">true</text><polygon fill="#F1F1F1" points="280.375,1351.4375,292.375,1363.4375,280.375,1375.4375,268.375,1363.4375,280.375,1351.4375" style="stroke:#181818;stroke-width:0.5;"/><polygon fill="#F1F1F1" points="201.875,1655.6836,358.875,1655.6836,370.875,1667.6836,358.875,1679.6836,201.875,1679.6836,189.875,1667.6836,201.875,1655.6836" style="stroke:#181818;stroke-width:0.5;"/><text fill="#000000" font-family="sans-serif" font-size="11" lengthAdjust="spacing" textLength="157" x="201.875" y="1671.4917">for each potential end node</text><polygon fill="#F1F1F1" points="280.375,1699.6836,292.375,1711.6836,280.375,1723.6836,268.375,1711.6836,280.375,1699.6836" style="stroke:#181818;stroke-width:0.5;"/><polygon fill="#F1F1F1" points="280.375,1253.4688,292.375,1265.4688,280.375,1277.4688,268.375,1265.4688,280.375,1253.4688" style="stroke:#181818;stroke-width:0.5;"/><polygon fill="#F1F1F1" points="201.875,1743.6836,358.875,1743.6836,370.875,1755.6836,358.875,1767.6836,201.875,1767.6836,189.875,1755.6836,201.875,1743.6836" style="stroke:#181818;stroke-width:0.5;"/><text fill="#000000" font-family="sans-serif" font-size="11" lengthAdjust="spacing" textLength="157" x="201.875" y="1759.4917">for each potential end node</text><rect fill="#F1F1F1" height="33.9688" rx="12.5" ry="12.5" style="stroke:#181818;stroke-width:0.5;" width="336" x="112.375" y="1787.6836"/><text fill="#000000" font-family="sans-serif" font-size="12" lengthAdjust="spacing" textLength="316" x="122.375" y="1808.8223">output end nodes that were not removed from set</text><ellipse cx="280.375" cy="1863.6523" fill="none" rx="10" ry="10" style="stroke:#222222;stroke-width:1.5;"/><line style="stroke:#222222;stroke-width:2.5;" x1="274.1878" x2="286.5622" y1="1857.4652" y2="1869.8395"/><line style="stroke:#222222;stroke-width:2.5;" x1="286.5622" x2="274.1878" y1="1857.4652" y2="1869.8395"/><ellipse cx="280.375" cy="1893.6523" fill="#222222" rx="10" ry="10" style="stroke:#222222;stroke-width:1.0;"/><rect fill="#F1F1F1" height="47.9375" rx="12.5" ry="12.5" style="stroke:#181818;stroke-width:0.5;" width="277" x="141.875" y="1923.6523"/><text fill="#000000" font-family="sans-serif" font-size="12" lengthAdjust="spacing" textLength="257" x="151.875" y="1944.791">input potential break out nodes, node to</text><text fill="#000000" font-family="sans-serif" font-size="12" lengthAdjust="spacing" textLength="243" x="151.875" y="1958.7598">overlapping nodes map and scc nodes</text><rect fill="none" height="518.1211" style="stroke:#000000;stroke-width:1.5;" width="548" x="35.375" y="1981.5898"/><path d="M341.375,1981.5898 L341.375,1990.8867 L331.375,2000.8867 L35.375,2000.8867 " fill="none" style="stroke:#000000;stroke-width:1.5;"/><text fill="#000000" font-family="sans-serif" font-size="14" lengthAdjust="spacing" textLength="296" x="38.375" y="1995.585">filter_break_out_nodes_based_on_overlaps</text><rect fill="#F1F1F1" height="33.9688" rx="12.5" ry="12.5" style="stroke:#181818;stroke-width:0.5;" width="280" x="140.375" y="2017.8867"/><text fill="#000000" font-family="sans-serif" font-size="12" lengthAdjust="spacing" textLength="260" x="150.375" y="2039.0254">create empty set of new break out nodes</text><polygon fill="#F1F1F1" points="187.375,2115.8555,373.375,2115.8555,385.375,2128.6602,373.375,2141.4648,187.375,2141.4648,175.375,2128.6602,187.375,2115.8555" style="stroke:#181818;stroke-width:0.5;"/><text fill="#000000" font-family="sans-serif" font-size="11" lengthAdjust="spacing" textLength="186" x="187.375" y="2126.0659">check if potential break out node</text><text fill="#000000" font-family="sans-serif" font-size="11" lengthAdjust="spacing" textLength="156" x="187.375" y="2138.8706">in node to overlapping map</text><text fill="#000000" font-family="sans-serif" font-size="11" lengthAdjust="spacing" textLength="23" x="152.375" y="2126.0659">true</text><text fill="#000000" font-family="sans-serif" font-size="11" lengthAdjust="spacing" textLength="28" x="385.375" y="2126.0659">false</text><rect fill="#F1F1F1" height="33.9688" rx="12.5" ry="12.5" style="stroke:#181818;stroke-width:0.5;" width="198" x="55.375" y="2151.4648"/><text fill="#000000" font-family="sans-serif" font-size="12" lengthAdjust="spacing" textLength="178" x="65.375" y="2172.6035">add to new break out nodes</text><rect fill="#F1F1F1" height="61.9063" rx="12.5" ry="12.5" style="stroke:#181818;stroke-width:0.5;" width="266" x="273.375" y="2151.4648"/><text fill="#000000" font-family="sans-serif" font-size="12" lengthAdjust="spacing" textLength="236" x="283.375" y="2172.6035">check if potential break out node has</text><text fill="#000000" font-family="sans-serif" font-size="12" lengthAdjust="spacing" textLength="246" x="283.375" y="2186.5723">any overlapping node sets that overlap</text><text fill="#000000" font-family="sans-serif" font-size="12" lengthAdjust="spacing" textLength="221" x="283.375" y="2200.541">the scc suggesting AND or OR logic</text><rect fill="#F1F1F1" height="33.9688" rx="12.5" ry="12.5" style="stroke:#181818;stroke-width:0.5;" width="198" x="307.375" y="2281.7734"/><text fill="#000000" font-family="sans-serif" font-size="12" lengthAdjust="spacing" textLength="178" x="317.375" y="2302.9121">add to new break out nodes</text><polygon fill="#F1F1F1" points="381.375,2233.3711,431.375,2233.3711,443.375,2245.3711,431.375,2257.3711,381.375,2257.3711,369.375,2245.3711,381.375,2233.3711" style="stroke:#181818;stroke-width:0.5;"/><text fill="#000000" font-family="sans-serif" font-size="11" lengthAdjust="spacing" textLength="23" x="410.375" y="2267.5815">true</text><text fill="#000000" font-family="sans-serif" font-size="11" lengthAdjust="spacing" textLength="50" x="381.375" y="2249.1792">if it does</text><polygon fill="#F1F1F1" points="406.375,2335.7422,418.375,2347.7422,406.375,2359.7422,394.375,2347.7422,406.375,2335.7422" style="stroke:#181818;stroke-width:0.5;"/><polygon fill="#F1F1F1" points="280.375,2365.7422,292.375,2377.7422,280.375,2389.7422,268.375,2377.7422,280.375,2365.7422" style="stroke:#181818;stroke-width:0.5;"/><polygon fill="#F1F1F1" points="280.375,2071.8555,292.375,2083.8555,280.375,2095.8555,268.375,2083.8555,280.375,2071.8555" style="stroke:#181818;stroke-width:0.5;"/><polygon fill="#F1F1F1" points="158.875,2409.7422,401.875,2409.7422,413.875,2421.7422,401.875,2433.7422,158.875,2433.7422,146.875,2421.7422,158.875,2409.7422" style="stroke:#181818;stroke-width:0.5;"/><text fill="#000000" font-family="sans-serif" font-size="11" lengthAdjust="spacing" textLength="243" x="158.875" y="2425.5503">for each node in potential break out nodes</text><rect fill="#F1F1F1" height="33.9688" rx="12.5" ry="12.5" style="stroke:#181818;stroke-width:0.5;" width="199" x="180.875" y="2453.7422"/><text fill="#000000" font-family="sans-serif" font-size="12" lengthAdjust="spacing" textLength="179" x="190.875" y="2474.8809">output new break out nodes</text><ellipse cx="280.375" cy="2529.7109" fill="none" rx="10" ry="10" style="stroke:#222222;stroke-width:1.5;"/><line style="stroke:#222222;stroke-width:2.5;" x1="274.1878" x2="286.5622" y1="2523.5238" y2="2535.8981"/><line style="stroke:#222222;stroke-width:2.5;" x1="286.5622" x2="274.1878" y1="2523.5238" y2="2535.8981"/><line style="stroke:#181818;stroke-width:1.0;" x1="280.375" x2="280.375" y1="60.2969" y2="80.2969"/><polygon fill="#181818" points="276.375,70.2969,280.375,80.2969,284.375,70.2969,280.375,74.2969" style="stroke:#181818;stroke-width:1.0;"/><line style="stroke:#181818;stroke-width:1.0;" x1="280.375" x2="280.375" y1="208.5" y2="228.5"/><polygon fill="#181818" points="276.375,218.5,280.375,228.5,284.375,218.5,280.375,222.5" style="stroke:#181818;stroke-width:1.0;"/><line style="stroke:#181818;stroke-width:1.0;" x1="280.375" x2="280.375" y1="262.4688" y2="282.4688"/><polygon fill="#181818" points="276.375,272.4688,280.375,282.4688,284.375,272.4688,280.375,276.4688" style="stroke:#181818;stroke-width:1.0;"/><line style="stroke:#181818;stroke-width:1.0;" x1="460.25" x2="460.25" y1="418.375" y2="438.375"/><polygon fill="#181818" points="456.25,428.375,460.25,438.375,464.25,428.375,460.25,432.375" style="stroke:#181818;stroke-width:1.0;"/><line style="stroke:#181818;stroke-width:1.0;" x1="460.25" x2="460.25" y1="472.3438" y2="492.3438"/><polygon fill="#181818" points="456.25,482.3438,460.25,492.3438,464.25,482.3438,460.25,486.3438" style="stroke:#181818;stroke-width:1.0;"/><line style="stroke:#181818;stroke-width:1.0;" x1="611.5" x2="611.5" y1="670.1563" y2="690.1563"/><polygon fill="#181818" points="607.5,680.1563,611.5,690.1563,615.5,680.1563,611.5,684.1563" style="stroke:#181818;stroke-width:1.0;"/><line style="stroke:#181818;stroke-width:1.0;" x1="390.25" x2="309" y1="586.25" y2="586.25"/><line style="stroke:#181818;stroke-width:1.0;" x1="309" x2="309" y1="586.25" y2="608.25"/><polygon fill="#181818" points="305,598.25,309,608.25,313,598.25,309,602.25" style="stroke:#181818;stroke-width:1.0;"/><line style="stroke:#181818;stroke-width:1.0;" x1="530.25" x2="611.5" y1="586.25" y2="586.25"/><line style="stroke:#181818;stroke-width:1.0;" x1="611.5" x2="611.5" y1="586.25" y2="608.25"/><polygon fill="#181818" points="607.5,598.25,611.5,608.25,615.5,598.25,611.5,602.25" style="stroke:#181818;stroke-width:1.0;"/><line style="stroke:#181818;stroke-width:1.0;" x1="309" x2="309" y1="656.1875" y2="770.0625"/><line style="stroke:#181818;stroke-width:1.0;" x1="309" x2="448.25" y1="770.0625" y2="770.0625"/><polygon fill="#181818" points="438.25,766.0625,448.25,770.0625,438.25,774.0625,442.25,770.0625" style="stroke:#181818;stroke-width:1.0;"/><line style="stroke:#181818;stroke-width:1.0;" x1="611.5" x2="611.5" y1="752.0625" y2="770.0625"/><line style="stroke:#181818;stroke-width:1.0;" x1="611.5" x2="472.25" y1="770.0625" y2="770.0625"/><polygon fill="#181818" points="482.25,766.0625,472.25,770.0625,482.25,774.0625,478.25,770.0625" style="stroke:#181818;stroke-width:1.0;"/><line style="stroke:#181818;stroke-width:1.0;" x1="460.25" x2="460.25" y1="554.25" y2="574.25"/><polygon fill="#181818" points="456.25,564.25,460.25,574.25,464.25,564.25,460.25,568.25" style="stroke:#181818;stroke-width:1.0;"/><line style="stroke:#181818;stroke-width:1.0;" x1="177.375" x2="100.5" y1="348.4375" y2="348.4375"/><line style="stroke:#181818;stroke-width:1.0;" x1="100.5" x2="100.5" y1="348.4375" y2="370.4375"/><polygon fill="#181818" points="96.5,360.4375,100.5,370.4375,104.5,360.4375,100.5,364.4375" style="stroke:#181818;stroke-width:1.0;"/><line style="stroke:#181818;stroke-width:1.0;" x1="383.375" x2="460.25" y1="348.4375" y2="348.4375"/><line style="stroke:#181818;stroke-width:1.0;" x1="460.25" x2="460.25" y1="348.4375" y2="370.4375"/><polygon fill="#181818" points="456.25,360.4375,460.25,370.4375,464.25,360.4375,460.25,364.4375" style="stroke:#181818;stroke-width:1.0;"/><line style="stroke:#181818;stroke-width:1.0;" x1="100.5" x2="100.5" y1="404.4063" y2="800.0625"/><line style="stroke:#181818;stroke-width:1.0;" x1="100.5" x2="268.375" y1="800.0625" y2="800.0625"/><polygon fill="#181818" points="258.375,796.0625,268.375,800.0625,258.375,804.0625,262.375,800.0625" style="stroke:#181818;stroke-width:1.0;"/><line style="stroke:#181818;stroke-width:1.0;" x1="460.25" x2="460.25" y1="782.0625" y2="800.0625"/><line style="stroke:#181818;stroke-width:1.0;" x1="460.25" x2="292.375" y1="800.0625" y2="800.0625"/><polygon fill="#181818" points="302.375,796.0625,292.375,800.0625,302.375,804.0625,298.375,800.0625" style="stroke:#181818;stroke-width:1.0;"/><line style="stroke:#181818;stroke-width:1.0;" x1="280.375" x2="280.375" y1="316.4375" y2="336.4375"/><polygon fill="#181818" points="276.375,326.4375,280.375,336.4375,284.375,326.4375,280.375,330.4375" style="stroke:#181818;stroke-width:1.0;"/><line style="stroke:#181818;stroke-width:1.0;" x1="280.375" x2="280.375" y1="812.0625" y2="832.0625"/><polygon fill="#181818" points="276.375,822.0625,280.375,832.0625,284.375,822.0625,280.375,826.0625" style="stroke:#181818;stroke-width:1.0;"/><line style="stroke:#181818;stroke-width:1.0;" x1="280.375" x2="280.375" y1="880" y2="900"/><polygon fill="#181818" points="276.375,890,280.375,900,284.375,890,280.375,894" style="stroke:#181818;stroke-width:1.0;"/><line style="stroke:#181818;stroke-width:1.0;" x1="280.375" x2="280.375" y1="128.2344" y2="174.5313"/><polygon fill="#181818" points="276.375,164.5313,280.375,174.5313,284.375,164.5313,280.375,168.5313" style="stroke:#181818;stroke-width:1.0;"/><line style="stroke:#181818;stroke-width:1.0;" x1="280.375" x2="280.375" y1="933.9688" y2="965.9688"/><polygon fill="#181818" points="276.375,955.9688,280.375,965.9688,284.375,955.9688,280.375,959.9688" style="stroke:#181818;stroke-width:1.0;"/><line style="stroke:#181818;stroke-width:1.0;" x1="280.375" x2="280.375" y1="1045.2656" y2="1065.2656"/><polygon fill="#181818" points="276.375,1055.2656,280.375,1065.2656,284.375,1055.2656,280.375,1059.2656" style="stroke:#181818;stroke-width:1.0;"/><line style="stroke:#181818;stroke-width:1.0;" x1="280.375" x2="280.375" y1="1179.5" y2="1199.5"/><polygon fill="#181818" points="276.375,1189.5,280.375,1199.5,284.375,1189.5,280.375,1193.5" style="stroke:#181818;stroke-width:1.0;"/><line style="stroke:#181818;stroke-width:1.0;" x1="280.375" x2="280.375" y1="1429.4063" y2="1449.4063"/><polygon fill="#181818" points="276.375,1439.4063,280.375,1449.4063,284.375,1439.4063,280.375,1443.4063" style="stroke:#181818;stroke-width:1.0;"/><line style="stroke:#181818;stroke-width:1.0;" x1="280.375" x2="280.375" y1="1613.6836" y2="1618.6836"/><line style="stroke:#181818;stroke-width:1.0;" x1="280.375" x2="103.875" y1="1618.6836" y2="1618.6836"/><line style="stroke:#181818;stroke-width:1.0;" x1="103.875" x2="103.875" y1="1618.6836" y2="1711.6836"/><line style="stroke:#181818;stroke-width:1.0;" x1="103.875" x2="268.375" y1="1711.6836" y2="1711.6836"/><polygon fill="#181818" points="258.375,1707.6836,268.375,1711.6836,258.375,1715.6836,262.375,1711.6836" style="stroke:#181818;stroke-width:1.0;"/><line style="stroke:#181818;stroke-width:1.0;" x1="280.375" x2="280.375" y1="1541.3438" y2="1565.7461"/><polygon fill="#181818" points="276.375,1555.7461,280.375,1565.7461,284.375,1555.7461,280.375,1559.7461" style="stroke:#181818;stroke-width:1.0;"/><line style="stroke:#181818;stroke-width:1.0;" x1="292.375" x2="401.375" y1="1529.3438" y2="1529.3438"/><polygon fill="#181818" points="397.375,1594.2148,401.375,1604.2148,405.375,1594.2148,401.375,1598.2148" style="stroke:#181818;stroke-width:1.0;"/><line style="stroke:#181818;stroke-width:1.0;" x1="401.375" x2="401.375" y1="1529.3438" y2="1635.6836"/><line style="stroke:#181818;stroke-width:1.0;" x1="401.375" x2="280.375" y1="1635.6836" y2="1635.6836"/><line style="stroke:#181818;stroke-width:1.0;" x1="280.375" x2="280.375" y1="1635.6836" y2="1655.6836"/><polygon fill="#181818" points="276.375,1645.6836,280.375,1655.6836,284.375,1645.6836,280.375,1649.6836" style="stroke:#181818;stroke-width:1.0;"/><line style="stroke:#181818;stroke-width:1.0;" x1="280.375" x2="280.375" y1="1497.3438" y2="1517.3438"/><polygon fill="#181818" points="276.375,1507.3438,280.375,1517.3438,284.375,1507.3438,280.375,1511.3438" style="stroke:#181818;stroke-width:1.0;"/><line style="stroke:#181818;stroke-width:1.0;" x1="280.375" x2="280.375" y1="1375.4375" y2="1395.4375"/><polygon fill="#181818" points="276.375,1385.4375,280.375,1395.4375,284.375,1385.4375,280.375,1389.4375" style="stroke:#181818;stroke-width:1.0;"/><line style="stroke:#181818;stroke-width:1.0;" x1="370.875" x2="458.875" y1="1667.6836" y2="1667.6836"/><polygon fill="#181818" points="454.875,1532.2617,458.875,1522.2617,462.875,1532.2617,458.875,1528.2617" style="stroke:#181818;stroke-width:1.0;"/><line style="stroke:#181818;stroke-width:1.0;" x1="458.875" x2="458.875" y1="1363.4375" y2="1667.6836"/><line style="stroke:#181818;stroke-width:1.0;" x1="458.875" x2="292.375" y1="1363.4375" y2="1363.4375"/><polygon fill="#181818" points="302.375,1359.4375,292.375,1363.4375,302.375,1367.4375,298.375,1363.4375" style="stroke:#181818;stroke-width:1.0;"/><line style="stroke:#181818;stroke-width:1.0;" x1="280.375" x2="280.375" y1="1679.6836" y2="1699.6836"/><polygon fill="#181818" points="276.375,1689.6836,280.375,1699.6836,284.375,1689.6836,280.375,1693.6836" style="stroke:#181818;stroke-width:1.0;"/><line style="stroke:#181818;stroke-width:1.0;" x1="280.375" x2="280.375" y1="1331.4375" y2="1351.4375"/><polygon fill="#181818" points="276.375,1341.4375,280.375,1351.4375,284.375,1341.4375,280.375,1345.4375" style="stroke:#181818;stroke-width:1.0;"/><line style="stroke:#181818;stroke-width:1.0;" x1="280.375" x2="280.375" y1="1277.4688" y2="1297.4688"/><polygon fill="#181818" points="276.375,1287.4688,280.375,1297.4688,284.375,1287.4688,280.375,1291.4688" style="stroke:#181818;stroke-width:1.0;"/><line style="stroke:#181818;stroke-width:1.0;" x1="370.875" x2="482.875" y1="1755.6836" y2="1755.6836"/><polygon fill="#181818" points="478.875,1527.2773,482.875,1517.2773,486.875,1527.2773,482.875,1523.2773" style="stroke:#181818;stroke-width:1.0;"/><line style="stroke:#181818;stroke-width:1.0;" x1="482.875" x2="482.875" y1="1265.4688" y2="1755.6836"/><line style="stroke:#181818;stroke-width:1.0;" x1="482.875" x2="292.375" y1="1265.4688" y2="1265.4688"/><polygon fill="#181818" points="302.375,1261.4688,292.375,1265.4688,302.375,1269.4688,298.375,1265.4688" style="stroke:#181818;stroke-width:1.0;"/><line style="stroke:#181818;stroke-width:1.0;" x1="280.375" x2="280.375" y1="1723.6836" y2="1743.6836"/><polygon fill="#181818" points="276.375,1733.6836,280.375,1743.6836,284.375,1733.6836,280.375,1737.6836" style="stroke:#181818;stroke-width:1.0;"/><line style="stroke:#181818;stroke-width:1.0;" x1="280.375" x2="280.375" y1="1233.4688" y2="1253.4688"/><polygon fill="#181818" points="276.375,1243.4688,280.375,1253.4688,284.375,1243.4688,280.375,1247.4688" style="stroke:#181818;stroke-width:1.0;"/><line style="stroke:#181818;stroke-width:1.0;" x1="280.375" x2="280.375" y1="1767.6836" y2="1787.6836"/><polygon fill="#181818" points="276.375,1777.6836,280.375,1787.6836,284.375,1777.6836,280.375,1781.6836" style="stroke:#181818;stroke-width:1.0;"/><line style="stroke:#181818;stroke-width:1.0;" x1="280.375" x2="280.375" y1="1099.2344" y2="1145.5313"/><polygon fill="#181818" points="276.375,1135.5313,280.375,1145.5313,284.375,1135.5313,280.375,1139.5313" style="stroke:#181818;stroke-width:1.0;"/><line style="stroke:#181818;stroke-width:1.0;" x1="280.375" x2="280.375" y1="1821.6523" y2="1853.6523"/><polygon fill="#181818" points="276.375,1843.6523,280.375,1853.6523,284.375,1843.6523,280.375,1847.6523" style="stroke:#181818;stroke-width:1.0;"/><line style="stroke:#181818;stroke-width:1.0;" x1="280.375" x2="280.375" y1="1903.6523" y2="1923.6523"/><polygon fill="#181818" points="276.375,1913.6523,280.375,1923.6523,284.375,1913.6523,280.375,1917.6523" style="stroke:#181818;stroke-width:1.0;"/><line style="stroke:#181818;stroke-width:1.0;" x1="406.375" x2="406.375" y1="2257.3711" y2="2281.7734"/><polygon fill="#181818" points="402.375,2271.7734,406.375,2281.7734,410.375,2271.7734,406.375,2275.7734" style="stroke:#181818;stroke-width:1.0;"/><line style="stroke:#181818;stroke-width:1.0;" x1="443.375" x2="515.375" y1="2245.3711" y2="2245.3711"/><polygon fill="#181818" points="511.375,2288.7578,515.375,2298.7578,519.375,2288.7578,515.375,2292.7578" style="stroke:#181818;stroke-width:1.0;"/><line style="stroke:#181818;stroke-width:1.0;" x1="515.375" x2="515.375" y1="2245.3711" y2="2347.7422"/><line style="stroke:#181818;stroke-width:1.0;" x1="515.375" x2="418.375" y1="2347.7422" y2="2347.7422"/><polygon fill="#181818" points="428.375,2343.7422,418.375,2347.7422,428.375,2351.7422,424.375,2347.7422" style="stroke:#181818;stroke-width:1.0;"/><line style="stroke:#181818;stroke-width:1.0;" x1="406.375" x2="406.375" y1="2315.7422" y2="2335.7422"/><polygon fill="#181818" points="402.375,2325.7422,406.375,2335.7422,410.375,2325.7422,406.375,2329.7422" style="stroke:#181818;stroke-width:1.0;"/><line style="stroke:#181818;stroke-width:1.0;" x1="406.375" x2="406.375" y1="2213.3711" y2="2233.3711"/><polygon fill="#181818" points="402.375,2223.3711,406.375,2233.3711,410.375,2223.3711,406.375,2227.3711" style="stroke:#181818;stroke-width:1.0;"/><line style="stroke:#181818;stroke-width:1.0;" x1="175.375" x2="154.375" y1="2128.6602" y2="2128.6602"/><line style="stroke:#181818;stroke-width:1.0;" x1="154.375" x2="154.375" y1="2128.6602" y2="2151.4648"/><polygon fill="#181818" points="150.375,2141.4648,154.375,2151.4648,158.375,2141.4648,154.375,2145.4648" style="stroke:#181818;stroke-width:1.0;"/><line style="stroke:#181818;stroke-width:1.0;" x1="385.375" x2="406.375" y1="2128.6602" y2="2128.6602"/><line style="stroke:#181818;stroke-width:1.0;" x1="406.375" x2="406.375" y1="2128.6602" y2="2151.4648"/><polygon fill="#181818" points="402.375,2141.4648,406.375,2151.4648,410.375,2141.4648,406.375,2145.4648" style="stroke:#181818;stroke-width:1.0;"/><line style="stroke:#181818;stroke-width:1.0;" x1="154.375" x2="154.375" y1="2185.4336" y2="2377.7422"/><line style="stroke:#181818;stroke-width:1.0;" x1="154.375" x2="268.375" y1="2377.7422" y2="2377.7422"/><polygon fill="#181818" points="258.375,2373.7422,268.375,2377.7422,258.375,2381.7422,262.375,2377.7422" style="stroke:#181818;stroke-width:1.0;"/><line style="stroke:#181818;stroke-width:1.0;" x1="406.375" x2="406.375" y1="2359.7422" y2="2377.7422"/><line style="stroke:#181818;stroke-width:1.0;" x1="406.375" x2="292.375" y1="2377.7422" y2="2377.7422"/><polygon fill="#181818" points="302.375,2373.7422,292.375,2377.7422,302.375,2381.7422,298.375,2377.7422" style="stroke:#181818;stroke-width:1.0;"/><line style="stroke:#181818;stroke-width:1.0;" x1="280.375" x2="280.375" y1="2095.8555" y2="2115.8555"/><polygon fill="#181818" points="276.375,2105.8555,280.375,2115.8555,284.375,2105.8555,280.375,2109.8555" style="stroke:#181818;stroke-width:1.0;"/><line style="stroke:#181818;stroke-width:1.0;" x1="413.875" x2="561.375" y1="2421.7422" y2="2421.7422"/><polygon fill="#181818" points="557.375,2257.5,561.375,2247.5,565.375,2257.5,561.375,2253.5" style="stroke:#181818;stroke-width:1.0;"/><line style="stroke:#181818;stroke-width:1.0;" x1="561.375" x2="561.375" y1="2083.8555" y2="2421.7422"/><line style="stroke:#181818;stroke-width:1.0;" x1="561.375" x2="292.375" y1="2083.8555" y2="2083.8555"/><polygon fill="#181818" points="302.375,2079.8555,292.375,2083.8555,302.375,2087.8555,298.375,2083.8555" style="stroke:#181818;stroke-width:1.0;"/><line style="stroke:#181818;stroke-width:1.0;" x1="280.375" x2="280.375" y1="2389.7422" y2="2409.7422"/><polygon fill="#181818" points="276.375,2399.7422,280.375,2409.7422,284.375,2399.7422,280.375,2403.7422" style="stroke:#181818;stroke-width:1.0;"/><line style="stroke:#181818;stroke-width:1.0;" x1="280.375" x2="280.375" y1="2051.8555" y2="2071.8555"/><polygon fill="#181818" points="276.375,2061.8555,280.375,2071.8555,284.375,2061.8555,280.375,2065.8555" style="stroke:#181818;stroke-width:1.0;"/><line style="stroke:#181818;stroke-width:1.0;" x1="280.375" x2="280.375" y1="2433.7422" y2="2453.7422"/><polygon fill="#181818" points="276.375,2443.7422,280.375,2453.7422,284.375,2443.7422,280.375,2447.7422" style="stroke:#181818;stroke-width:1.0;"/><line style="stroke:#181818;stroke-width:1.0;" x1="280.375" x2="280.375" y1="1971.5898" y2="2017.8867"/><polygon fill="#181818" points="276.375,2007.8867,280.375,2017.8867,284.375,2007.8867,280.375,2011.8867" style="stroke:#181818;stroke-width:1.0;"/><line style="stroke:#181818;stroke-width:1.0;" x1="280.375" x2="280.375" y1="2487.7109" y2="2519.7109"/><polygon fill="#181818" points="276.375,2509.7109,280.375,2519.7109,284.375,2509.7109,280.375,2513.7109" style="stroke:#181818;stroke-width:1.0;"/><!--SRC=[hLRRRjim37tlLn1vQe5yGVCqTCyRiBq6C1IRTeGwaY79IREX_pwIyaLEx2GRDg1OB8dauUKS2G2WKIxeeAs1LQxgFAkjRJ8qHRPpgDupHR_YKb6XNy7l9-Z- -K2MmzUhDaqRuYBW4KtmQ_ZvzWPiF2nKJZLx89zmK0tO4emjq6zDi62Fw6hLDDfKKDgwjYV-9VlWCVZD4AfojcrWTL3QWAehwtJO7rP_XKGW29ZHxMkfQL7LTHSqx5M0lJeY7GREdjO3D5QRmCXsAdy7pSXzdizvYU7e8xfhFLkj9gi9_D63Bk4vtoDxBoMk1_pG4ZCQVsWVNWWU6dWsTZn2guCJWKARqiHuP0F3BjOUuNdPiCB0DUS6ZGb8FIXXT1xpi3KdmfrkCKX1kBbsrjX0PTUgxW1PQf2ONfmjTKt-Bmy1XzgQLTpj1fDsCzdDTifZaLcJTIFaLrip57OQOAojrx-Gy_FjZZBjonc_00zDE4zh8l0YheX9EMIZf09R8oNWHMbKwUpXThwn3rrGdgv70pDJsre5f57pr9IJSaNF9Pb91Y5eP5uzPofBGpUrB3Yay-IIL82QAIDDnkesQa6aYa9KOsZf4hWELQ4TJKrzJhZDWCHsRBGCKc6v5biJkHUX4Qg1D4bU5-MaAENJ_DShbpZoHyQUa359uySEmmdHK0CfHg8GgOOa52Uyh33ZuNNFiz5q3BL94KNnIbU6tuaGqqICqZ0HtK5uOKgSLFEab6kMfRufrsANwEYI8bqoaqwCyoxaZyLZ1HpZSc57jW_pTi7pt3Rdv39mU23kplgR6ZfiK8NhQOpyOVXpqQ_7Ty7Fu8lSMAR7GyvYHhrYBzdnFFjXcA_tOTT63JZg786KpAlvKAnXlLu5r-BBx2a1DHD5UmcYP43ZmCV2ZMqGtQ8gR1OToxJFxav9DoqtdFQw9hqhhGDK-Nwc22zF_y4ivMSYAoTIEyazfbaiv7bDqakYNZz-4WektdJhMETWjoPzwaI0_1eImUavEylKX- -_QuBaP1CmtY_zrMxmT5_eRp1byb1PofllepxpoHkFKdvmYkcgOUE7u8wtQgdelnjUxoAdjn_TMygSuR9VyXwDGzLjqGkMf96xvzkAH4nUQr- -VGMQsUy_Y6kLpfVfn8MaFyrN7_h7gl9FbLbcw5zpDug9MPxtcLTCnykxSEzJy5D-VVu1]--></g></svg>