<?xml version="1.0" encoding="us-ascii" standalone="no"?><svg xmlns="http://www.w3.org/2000/svg" xmlns:xlink="http://www.w3.org/1999/xlink" contentStyleType="text/css" height="1627px" preserveAspectRatio="none" style="width:1024px;height:1627px;background:#FFFFFF;" version="1.1" viewBox="0 0 1024 1627" width="1024px" zoomAndPan="magnify"><defs/><g><rect fill="none" height="1605.5625" style="stroke:#000000;stroke-width:1.5;" width="1002.75" x="11" y="11"/><path d="M286,11 L286,20.2969 L276,30.2969 L11,30.2969 " fill="none" style="stroke:#000000;stroke-width:1.5;"/><text fill="#000000" font-family="sans-serif" font-size="14" lengthAdjust="spacing" textLength="265" x="14" y="24.9951">calc_loop_end_break_and_loop_edges</text><ellipse cx="386.75" cy="50.2969" fill="#222222" rx="10" ry="10" style="stroke:#222222;stroke-width:1.0;"/><rect fill="#F1F1F1" height="33.9688" rx="12.5" ry="12.5" style="stroke:#181818;stroke-width:0.5;" width="310" x="231.75" y="80.2969"/><text fill="#000000" font-family="sans-serif" font-size="12" lengthAdjust="spacing" textLength="290" x="241.75" y="101.4355">input start events, SCC loop events and graph</text><rect fill="none" height="575.9844" style="stroke:#000000;stroke-width:1.5;" width="911" x="92.75" y="124.2656"/><path d="M203.75,124.2656 L203.75,133.5625 L193.75,143.5625 L92.75,143.5625 " fill="none" style="stroke:#000000;stroke-width:1.5;"/><text fill="#000000" font-family="sans-serif" font-size="14" lengthAdjust="spacing" textLength="101" x="95.75" y="138.2607">main algorithm</text><rect fill="#F1F1F1" height="33.9688" rx="12.5" ry="12.5" style="stroke:#181818;stroke-width:0.5;" width="310" x="231.75" y="160.5625"/><text fill="#000000" font-family="sans-serif" font-size="12" lengthAdjust="spacing" textLength="290" x="241.75" y="181.7012">input start events, SCC loop events and graph</text><rect fill="#F1F1F1" height="33.9688" rx="12.5" ry="12.5" style="stroke:#181818;stroke-width:0.5;" width="391" x="191.25" y="214.5313"/><text fill="#000000" font-family="sans-serif" font-size="12" lengthAdjust="spacing" textLength="371" x="201.25" y="235.6699">find all nodes that have an edge not pointing back into scc</text><rect fill="#F1F1F1" height="33.9688" rx="12.5" ry="12.5" style="stroke:#181818;stroke-width:0.5;" width="369" x="202.25" y="268.5"/><text fill="#000000" font-family="sans-serif" font-size="12" lengthAdjust="spacing" textLength="349" x="212.25" y="289.6387">find all loop end nodes using "loop end node algorithm"</text><polygon fill="#F1F1F1" points="295.75,322.4688,477.75,322.4688,489.75,334.4688,477.75,346.4688,295.75,346.4688,283.75,334.4688,295.75,322.4688" style="stroke:#181818;stroke-width:0.5;"/><text fill="#000000" font-family="sans-serif" font-size="11" lengthAdjust="spacing" textLength="182" x="295.75" y="338.2769">check if edges exiting loop exist</text><text fill="#000000" font-family="sans-serif" font-size="11" lengthAdjust="spacing" textLength="84" x="199.75" y="331.8745">no edges exist</text><text fill="#000000" font-family="sans-serif" font-size="11" lengthAdjust="spacing" textLength="66" x="489.75" y="331.8745">edges exist</text><rect fill="#F1F1F1" height="33.9688" rx="12.5" ry="12.5" style="stroke:#181818;stroke-width:0.5;" width="119" x="112.75" y="356.4688"/><text fill="#000000" font-family="sans-serif" font-size="12" lengthAdjust="spacing" textLength="99" x="122.75" y="377.6074">no break edges</text><rect fill="#F1F1F1" height="33.9688" rx="12.5" ry="12.5" style="stroke:#181818;stroke-width:0.5;" width="401" x="400.75" y="356.4688"/><text fill="#000000" font-family="sans-serif" font-size="12" lengthAdjust="spacing" textLength="381" x="410.75" y="377.6074">get set of end nodes that intersect with nodes that exit loop</text><polygon fill="#F1F1F1" points="543.25,410.4375,659.25,410.4375,671.25,422.4375,659.25,434.4375,543.25,434.4375,531.25,422.4375,543.25,410.4375" style="stroke:#181818;stroke-width:0.5;"/><text fill="#000000" font-family="sans-serif" font-size="11" lengthAdjust="spacing" textLength="116" x="543.25" y="426.2456">check size of subset</text><text fill="#000000" font-family="sans-serif" font-size="11" lengthAdjust="spacing" textLength="78" x="453.25" y="419.8433">subset empty</text><text fill="#000000" font-family="sans-serif" font-size="11" lengthAdjust="spacing" textLength="100" x="671.25" y="419.8433">subset not empty</text><rect fill="#F1F1F1" height="33.9688" rx="12.5" ry="12.5" style="stroke:#181818;stroke-width:0.5;" width="304" x="261.75" y="444.4375"/><text fill="#000000" font-family="sans-serif" font-size="12" lengthAdjust="spacing" textLength="284" x="271.75" y="465.5762">break nodes are the nodes that exit the loop</text><rect fill="#F1F1F1" height="61.9063" rx="12.5" ry="12.5" style="stroke:#181818;stroke-width:0.5;" width="406" x="585.75" y="444.4375"/><text fill="#000000" font-family="sans-serif" font-size="12" lengthAdjust="spacing" textLength="386" x="595.75" y="465.5762">break nodes are calculated as nodes at the end of the paths</text><text fill="#000000" font-family="sans-serif" font-size="12" lengthAdjust="spacing" textLength="202" x="595.75" y="479.5449">between those nodes not in the</text><text fill="#000000" font-family="sans-serif" font-size="12" lengthAdjust="spacing" textLength="333" x="595.75" y="493.5137">subset and between the exits points from end nodes</text><polygon fill="#F1F1F1" points="601.25,512.3438,613.25,524.3438,601.25,536.3438,589.25,524.3438,601.25,512.3438" style="stroke:#181818;stroke-width:0.5;"/><polygon fill="#F1F1F1" points="386.75,542.3438,398.75,554.3438,386.75,566.3438,374.75,554.3438,386.75,542.3438" style="stroke:#181818;stroke-width:0.5;"/><rect fill="#F1F1F1" height="47.9375" rx="12.5" ry="12.5" style="stroke:#181818;stroke-width:0.5;" width="252" x="260.75" y="586.3438"/><text fill="#000000" font-family="sans-serif" font-size="12" lengthAdjust="spacing" textLength="232" x="270.75" y="607.4824">set loop edges as all edges between</text><text fill="#000000" font-family="sans-serif" font-size="12" lengthAdjust="spacing" textLength="178" x="270.75" y="621.4512">end events and start events</text><rect fill="#F1F1F1" height="33.9688" rx="12.5" ry="12.5" style="stroke:#181818;stroke-width:0.5;" width="328" x="222.75" y="654.2813"/><text fill="#000000" font-family="sans-serif" font-size="12" lengthAdjust="spacing" textLength="308" x="232.75" y="675.4199">output end events, break events and loop edges</text><ellipse cx="386.75" cy="730.25" fill="none" rx="10" ry="10" style="stroke:#222222;stroke-width:1.5;"/><line style="stroke:#222222;stroke-width:2.5;" x1="380.5628" x2="392.9372" y1="724.0628" y2="736.4372"/><line style="stroke:#222222;stroke-width:2.5;" x1="392.9372" x2="380.5628" y1="724.0628" y2="736.4372"/><rect fill="none" height="854.3125" style="stroke:#000000;stroke-width:1.5;" width="615" x="21" y="750.25"/><path d="M133,750.25 L133,759.5469 L123,769.5469 L21,769.5469 " fill="none" style="stroke:#000000;stroke-width:1.5;"/><text fill="#000000" font-family="sans-serif" font-size="14" lengthAdjust="spacing" textLength="102" x="24" y="764.2451">sub algorithms</text><ellipse cx="386.75" cy="789.5469" fill="#222222" rx="10" ry="10" style="stroke:#222222;stroke-width:1.0;"/><rect fill="#F1F1F1" height="33.9688" rx="12.5" ry="12.5" style="stroke:#181818;stroke-width:0.5;" width="270" x="251.75" y="819.5469"/><text fill="#000000" font-family="sans-serif" font-size="12" lengthAdjust="spacing" textLength="250" x="261.75" y="840.6855">input start nodes, scc nodes and graph</text><rect fill="none" height="689.0469" style="stroke:#000000;stroke-width:1.5;" width="595" x="31" y="863.5156"/><path d="M210,863.5156 L210,872.8125 L200,882.8125 L31,882.8125 " fill="none" style="stroke:#000000;stroke-width:1.5;"/><text fill="#000000" font-family="sans-serif" font-size="14" lengthAdjust="spacing" textLength="169" x="34" y="877.5107">loop end node algorithm</text><rect fill="#F1F1F1" height="33.9688" rx="12.5" ry="12.5" style="stroke:#181818;stroke-width:0.5;" width="427" x="173.25" y="899.8125"/><text fill="#000000" font-family="sans-serif" font-size="12" lengthAdjust="spacing" textLength="407" x="183.25" y="920.9512">find the nodes with edges to start nodes as potential end nodes</text><rect fill="#F1F1F1" height="33.9688" rx="12.5" ry="12.5" style="stroke:#181818;stroke-width:0.5;" width="305" x="234.25" y="953.7813"/><text fill="#000000" font-family="sans-serif" font-size="12" lengthAdjust="spacing" textLength="285" x="244.25" y="974.9199">copy graph and remove edges to start nodes</text><rect fill="#F1F1F1" height="33.9688" rx="12.5" ry="12.5" style="stroke:#181818;stroke-width:0.5;" width="219" x="277.25" y="1051.75"/><text fill="#000000" font-family="sans-serif" font-size="12" lengthAdjust="spacing" textLength="199" x="287.25" y="1072.8887">set node as potential end node</text><rect fill="#F1F1F1" height="33.9688" rx="12.5" ry="12.5" style="stroke:#181818;stroke-width:0.5;" width="221" x="276.25" y="1149.7188"/><text fill="#000000" font-family="sans-serif" font-size="12" lengthAdjust="spacing" textLength="201" x="286.25" y="1170.8574">set as other potential end node</text><rect fill="#F1F1F1" height="47.9375" rx="12.5" ry="12.5" style="stroke:#181818;stroke-width:0.5;" width="333" x="220.25" y="1203.6875"/><text fill="#000000" font-family="sans-serif" font-size="12" lengthAdjust="spacing" textLength="210" x="230.25" y="1224.8262">check if other potential end node</text><text fill="#000000" font-family="sans-serif" font-size="12" lengthAdjust="spacing" textLength="313" x="230.25" y="1238.7949">has path to potential end node but not vice versa</text><polygon fill="#F1F1F1" points="386.75,1286.625,386.75,1286.625,398.75,1298.625,386.75,1310.625,386.75,1310.625,374.75,1298.625,386.75,1286.625" style="stroke:#181818;stroke-width:0.5;"/><text fill="#000000" font-family="sans-serif" font-size="11" lengthAdjust="spacing" textLength="23" x="351.75" y="1296.0308">true</text><text fill="#000000" font-family="sans-serif" font-size="11" lengthAdjust="spacing" textLength="28" x="398.75" y="1296.0308">false</text><rect fill="#F1F1F1" height="33.9688" rx="12.5" ry="12.5" style="stroke:#181818;stroke-width:0.5;" width="420" x="43" y="1320.625"/><text fill="#000000" font-family="sans-serif" font-size="12" lengthAdjust="spacing" textLength="400" x="53" y="1341.7637">potential end node is not a loop end node and remove from set</text><rect fill="#F1F1F1" height="33.9688" rx="12.5" ry="12.5" style="stroke:#181818;stroke-width:0.5;" width="75" x="483" y="1320.625"/><text fill="#000000" font-family="sans-serif" font-size="12" lengthAdjust="spacing" textLength="55" x="493" y="1341.7637">continue</text><polygon fill="#F1F1F1" points="386.75,1105.7188,398.75,1117.7188,386.75,1129.7188,374.75,1117.7188,386.75,1105.7188" style="stroke:#181818;stroke-width:0.5;"/><polygon fill="#F1F1F1" points="308.25,1374.5938,465.25,1374.5938,477.25,1386.5938,465.25,1398.5938,308.25,1398.5938,296.25,1386.5938,308.25,1374.5938" style="stroke:#181818;stroke-width:0.5;"/><text fill="#000000" font-family="sans-serif" font-size="11" lengthAdjust="spacing" textLength="157" x="308.25" y="1390.4019">for each potential end node</text><polygon fill="#F1F1F1" points="386.75,1418.5938,398.75,1430.5938,386.75,1442.5938,374.75,1430.5938,386.75,1418.5938" style="stroke:#181818;stroke-width:0.5;"/><polygon fill="#F1F1F1" points="386.75,1007.75,398.75,1019.75,386.75,1031.75,374.75,1019.75,386.75,1007.75" style="stroke:#181818;stroke-width:0.5;"/><polygon fill="#F1F1F1" points="308.25,1462.5938,465.25,1462.5938,477.25,1474.5938,465.25,1486.5938,308.25,1486.5938,296.25,1474.5938,308.25,1462.5938" style="stroke:#181818;stroke-width:0.5;"/><text fill="#000000" font-family="sans-serif" font-size="11" lengthAdjust="spacing" textLength="157" x="308.25" y="1478.4019">for each potential end node</text><rect fill="#F1F1F1" height="33.9688" rx="12.5" ry="12.5" style="stroke:#181818;stroke-width:0.5;" width="336" x="218.75" y="1506.5938"/><text fill="#000000" font-family="sans-serif" font-size="12" lengthAdjust="spacing" textLength="316" x="228.75" y="1527.7324">output end nodes that were not removed from set</text><ellipse cx="386.75" cy="1582.5625" fill="none" rx="10" ry="10" style="stroke:#222222;stroke-width:1.5;"/><line style="stroke:#222222;stroke-width:2.5;" x1="380.5628" x2="392.9372" y1="1576.3753" y2="1588.7497"/><line style="stroke:#222222;stroke-width:2.5;" x1="392.9372" x2="380.5628" y1="1576.3753" y2="1588.7497"/><line style="stroke:#181818;stroke-width:1.0;" x1="386.75" x2="386.75" y1="60.2969" y2="80.2969"/><polygon fill="#181818" points="382.75,70.2969,386.75,80.2969,390.75,70.2969,386.75,74.2969" style="stroke:#181818;stroke-width:1.0;"/><line style="stroke:#181818;stroke-width:1.0;" x1="386.75" x2="386.75" y1="194.5313" y2="214.5313"/><polygon fill="#181818" points="382.75,204.5313,386.75,214.5313,390.75,204.5313,386.75,208.5313" style="stroke:#181818;stroke-width:1.0;"/><line style="stroke:#181818;stroke-width:1.0;" x1="386.75" x2="386.75" y1="248.5" y2="268.5"/><polygon fill="#181818" points="382.75,258.5,386.75,268.5,390.75,258.5,386.75,262.5" style="stroke:#181818;stroke-width:1.0;"/><line style="stroke:#181818;stroke-width:1.0;" x1="531.25" x2="413.75" y1="422.4375" y2="422.4375"/><line style="stroke:#181818;stroke-width:1.0;" x1="413.75" x2="413.75" y1="422.4375" y2="444.4375"/><polygon fill="#181818" points="409.75,434.4375,413.75,444.4375,417.75,434.4375,413.75,438.4375" style="stroke:#181818;stroke-width:1.0;"/><line style="stroke:#181818;stroke-width:1.0;" x1="671.25" x2="788.75" y1="422.4375" y2="422.4375"/><line style="stroke:#181818;stroke-width:1.0;" x1="788.75" x2="788.75" y1="422.4375" y2="444.4375"/><polygon fill="#181818" points="784.75,434.4375,788.75,444.4375,792.75,434.4375,788.75,438.4375" style="stroke:#181818;stroke-width:1.0;"/><line style="stroke:#181818;stroke-width:1.0;" x1="413.75" x2="413.75" y1="478.4063" y2="524.3438"/><line style="stroke:#181818;stroke-width:1.0;" x1="413.75" x2="589.25" y1="524.3438" y2="524.3438"/><polygon fill="#181818" points="579.25,520.3438,589.25,524.3438,579.25,528.3438,583.25,524.3438" style="stroke:#181818;stroke-width:1.0;"/><line style="stroke:#181818;stroke-width:1.0;" x1="788.75" x2="788.75" y1="506.3438" y2="524.3438"/><line style="stroke:#181818;stroke-width:1.0;" x1="788.75" x2="613.25" y1="524.3438" y2="524.3438"/><polygon fill="#181818" points="623.25,520.3438,613.25,524.3438,623.25,528.3438,619.25,524.3438" style="stroke:#181818;stroke-width:1.0;"/><line style="stroke:#181818;stroke-width:1.0;" x1="601.25" x2="601.25" y1="390.4375" y2="410.4375"/><polygon fill="#181818" points="597.25,400.4375,601.25,410.4375,605.25,400.4375,601.25,404.4375" style="stroke:#181818;stroke-width:1.0;"/><line style="stroke:#181818;stroke-width:1.0;" x1="283.75" x2="172.25" y1="334.4688" y2="334.4688"/><line style="stroke:#181818;stroke-width:1.0;" x1="172.25" x2="172.25" y1="334.4688" y2="356.4688"/><polygon fill="#181818" points="168.25,346.4688,172.25,356.4688,176.25,346.4688,172.25,350.4688" style="stroke:#181818;stroke-width:1.0;"/><line style="stroke:#181818;stroke-width:1.0;" x1="489.75" x2="601.25" y1="334.4688" y2="334.4688"/><line style="stroke:#181818;stroke-width:1.0;" x1="601.25" x2="601.25" y1="334.4688" y2="356.4688"/><polygon fill="#181818" points="597.25,346.4688,601.25,356.4688,605.25,346.4688,601.25,350.4688" style="stroke:#181818;stroke-width:1.0;"/><line style="stroke:#181818;stroke-width:1.0;" x1="172.25" x2="172.25" y1="390.4375" y2="554.3438"/><line style="stroke:#181818;stroke-width:1.0;" x1="172.25" x2="374.75" y1="554.3438" y2="554.3438"/><polygon fill="#181818" points="364.75,550.3438,374.75,554.3438,364.75,558.3438,368.75,554.3438" style="stroke:#181818;stroke-width:1.0;"/><line style="stroke:#181818;stroke-width:1.0;" x1="601.25" x2="601.25" y1="536.3438" y2="554.3438"/><line style="stroke:#181818;stroke-width:1.0;" x1="601.25" x2="398.75" y1="554.3438" y2="554.3438"/><polygon fill="#181818" points="408.75,550.3438,398.75,554.3438,408.75,558.3438,404.75,554.3438" style="stroke:#181818;stroke-width:1.0;"/><line style="stroke:#181818;stroke-width:1.0;" x1="386.75" x2="386.75" y1="302.4688" y2="322.4688"/><polygon fill="#181818" points="382.75,312.4688,386.75,322.4688,390.75,312.4688,386.75,316.4688" style="stroke:#181818;stroke-width:1.0;"/><line style="stroke:#181818;stroke-width:1.0;" x1="386.75" x2="386.75" y1="566.3438" y2="586.3438"/><polygon fill="#181818" points="382.75,576.3438,386.75,586.3438,390.75,576.3438,386.75,580.3438" style="stroke:#181818;stroke-width:1.0;"/><line style="stroke:#181818;stroke-width:1.0;" x1="386.75" x2="386.75" y1="634.2813" y2="654.2813"/><polygon fill="#181818" points="382.75,644.2813,386.75,654.2813,390.75,644.2813,386.75,648.2813" style="stroke:#181818;stroke-width:1.0;"/><line style="stroke:#181818;stroke-width:1.0;" x1="386.75" x2="386.75" y1="114.2656" y2="160.5625"/><polygon fill="#181818" points="382.75,150.5625,386.75,160.5625,390.75,150.5625,386.75,154.5625" style="stroke:#181818;stroke-width:1.0;"/><line style="stroke:#181818;stroke-width:1.0;" x1="386.75" x2="386.75" y1="688.25" y2="720.25"/><polygon fill="#181818" points="382.75,710.25,386.75,720.25,390.75,710.25,386.75,714.25" style="stroke:#181818;stroke-width:1.0;"/><line style="stroke:#181818;stroke-width:1.0;" x1="386.75" x2="386.75" y1="799.5469" y2="819.5469"/><polygon fill="#181818" points="382.75,809.5469,386.75,819.5469,390.75,809.5469,386.75,813.5469" style="stroke:#181818;stroke-width:1.0;"/><line style="stroke:#181818;stroke-width:1.0;" x1="386.75" x2="386.75" y1="933.7813" y2="953.7813"/><polygon fill="#181818" points="382.75,943.7813,386.75,953.7813,390.75,943.7813,386.75,947.7813" style="stroke:#181818;stroke-width:1.0;"/><line style="stroke:#181818;stroke-width:1.0;" x1="386.75" x2="386.75" y1="1183.6875" y2="1203.6875"/><polygon fill="#181818" points="382.75,1193.6875,386.75,1203.6875,390.75,1193.6875,386.75,1197.6875" style="stroke:#181818;stroke-width:1.0;"/><line style="stroke:#181818;stroke-width:1.0;" x1="253" x2="253" y1="1354.5938" y2="1430.5938"/><line style="stroke:#181818;stroke-width:1.0;" x1="253" x2="374.75" y1="1430.5938" y2="1430.5938"/><polygon fill="#181818" points="364.75,1426.5938,374.75,1430.5938,364.75,1434.5938,368.75,1430.5938" style="stroke:#181818;stroke-width:1.0;"/><line style="stroke:#181818;stroke-width:1.0;" x1="374.75" x2="253" y1="1298.625" y2="1298.625"/><line style="stroke:#181818;stroke-width:1.0;" x1="253" x2="253" y1="1298.625" y2="1320.625"/><polygon fill="#181818" points="249,1310.625,253,1320.625,257,1310.625,253,1314.625" style="stroke:#181818;stroke-width:1.0;"/><line style="stroke:#181818;stroke-width:1.0;" x1="398.75" x2="520.5" y1="1298.625" y2="1298.625"/><line style="stroke:#181818;stroke-width:1.0;" x1="520.5" x2="520.5" y1="1298.625" y2="1320.625"/><polygon fill="#181818" points="516.5,1310.625,520.5,1320.625,524.5,1310.625,520.5,1314.625" style="stroke:#181818;stroke-width:1.0;"/><line style="stroke:#181818;stroke-width:1.0;" x1="520.5" x2="520.5" y1="1354.5938" y2="1359.5938"/><line style="stroke:#181818;stroke-width:1.0;" x1="520.5" x2="386.75" y1="1359.5938" y2="1359.5938"/><line style="stroke:#181818;stroke-width:1.0;" x1="386.75" x2="386.75" y1="1359.5938" y2="1374.5938"/><polygon fill="#181818" points="382.75,1364.5938,386.75,1374.5938,390.75,1364.5938,386.75,1368.5938" style="stroke:#181818;stroke-width:1.0;"/><line style="stroke:#181818;stroke-width:1.0;" x1="386.75" x2="386.75" y1="1251.625" y2="1286.625"/><polygon fill="#181818" points="382.75,1276.625,386.75,1286.625,390.75,1276.625,386.75,1280.625" style="stroke:#181818;stroke-width:1.0;"/><line style="stroke:#181818;stroke-width:1.0;" x1="386.75" x2="386.75" y1="1129.7188" y2="1149.7188"/><polygon fill="#181818" points="382.75,1139.7188,386.75,1149.7188,390.75,1139.7188,386.75,1143.7188" style="stroke:#181818;stroke-width:1.0;"/><line style="stroke:#181818;stroke-width:1.0;" x1="477.25" x2="580" y1="1386.5938" y2="1386.5938"/><polygon fill="#181818" points="576,1275.1563,580,1265.1563,584,1275.1563,580,1271.1563" style="stroke:#181818;stroke-width:1.0;"/><line style="stroke:#181818;stroke-width:1.0;" x1="580" x2="580" y1="1117.7188" y2="1386.5938"/><line style="stroke:#181818;stroke-width:1.0;" x1="580" x2="398.75" y1="1117.7188" y2="1117.7188"/><polygon fill="#181818" points="408.75,1113.7188,398.75,1117.7188,408.75,1121.7188,404.75,1117.7188" style="stroke:#181818;stroke-width:1.0;"/><line style="stroke:#181818;stroke-width:1.0;" x1="386.75" x2="386.75" y1="1398.5938" y2="1418.5938"/><polygon fill="#181818" points="382.75,1408.5938,386.75,1418.5938,390.75,1408.5938,386.75,1412.5938" style="stroke:#181818;stroke-width:1.0;"/><line style="stroke:#181818;stroke-width:1.0;" x1="386.75" x2="386.75" y1="1085.7188" y2="1105.7188"/><polygon fill="#181818" points="382.75,1095.7188,386.75,1105.7188,390.75,1095.7188,386.75,1099.7188" style="stroke:#181818;stroke-width:1.0;"/><line style="stroke:#181818;stroke-width:1.0;" x1="386.75" x2="386.75" y1="1031.75" y2="1051.75"/><polygon fill="#181818" points="382.75,1041.75,386.75,1051.75,390.75,1041.75,386.75,1045.75" style="stroke:#181818;stroke-width:1.0;"/><line style="stroke:#181818;stroke-width:1.0;" x1="477.25" x2="604" y1="1474.5938" y2="1474.5938"/><polygon fill="#181818" points="600,1270.1719,604,1260.1719,608,1270.1719,604,1266.1719" style="stroke:#181818;stroke-width:1.0;"/><line style="stroke:#181818;stroke-width:1.0;" x1="604" x2="604" y1="1019.75" y2="1474.5938"/><line style="stroke:#181818;stroke-width:1.0;" x1="604" x2="398.75" y1="1019.75" y2="1019.75"/><polygon fill="#181818" points="408.75,1015.75,398.75,1019.75,408.75,1023.75,404.75,1019.75" style="stroke:#181818;stroke-width:1.0;"/><line style="stroke:#181818;stroke-width:1.0;" x1="386.75" x2="386.75" y1="1442.5938" y2="1462.5938"/><polygon fill="#181818" points="382.75,1452.5938,386.75,1462.5938,390.75,1452.5938,386.75,1456.5938" style="stroke:#181818;stroke-width:1.0;"/><line style="stroke:#181818;stroke-width:1.0;" x1="386.75" x2="386.75" y1="987.75" y2="1007.75"/><polygon fill="#181818" points="382.75,997.75,386.75,1007.75,390.75,997.75,386.75,1001.75" style="stroke:#181818;stroke-width:1.0;"/><line style="stroke:#181818;stroke-width:1.0;" x1="386.75" x2="386.75" y1="1486.5938" y2="1506.5938"/><polygon fill="#181818" points="382.75,1496.5938,386.75,1506.5938,390.75,1496.5938,386.75,1500.5938" style="stroke:#181818;stroke-width:1.0;"/><line style="stroke:#181818;stroke-width:1.0;" x1="386.75" x2="386.75" y1="853.5156" y2="899.8125"/><polygon fill="#181818" points="382.75,889.8125,386.75,899.8125,390.75,889.8125,386.75,893.8125" style="stroke:#181818;stroke-width:1.0;"/><line style="stroke:#181818;stroke-width:1.0;" x1="386.75" x2="386.75" y1="1540.5625" y2="1572.5625"/><polygon fill="#181818" points="382.75,1562.5625,386.75,1572.5625,390.75,1562.5625,386.75,1566.5625" style="stroke:#181818;stroke-width:1.0;"/><!--SRC=[hLN1Zk8m3Btp5HOdaFW2UfnFs2iI2iLjeob9bQGmCwlvzxLZsgIqNOsqYuH8dFYzPySs002TSa47RGriIzMMvzRQxepcUhuuLEzdHIinNMlqM_YzWUV71_8STqTjkZw84V2E9lW3_7fx0tP-6e30e7QgQuhHhtQsxs1xKzg0QclhT6Xkst-6FLQQZAfjmTWhUWYD2j2eEz9bu5387g2psWHjQhYeyXreRS6NvHAAqD56u7hFNjk9DPEV47G5kx91HgyYhmVyq95Jd3-q3tkIXmPsngOhP1r1eXGwZ2yYLmeOJx7r2BjrnnefV_IrLHP0p0S5ZCvZ6U11ilCJrXW55XEi58tNNyY8lhyGzX20x01lNVYSgeXAHB_GA8ViD2DbsvnOOdp2yylzb89BkczLG7f6FzY5XPD14V2oKw7n9tF1y42A8pJM3ygOJBC9J-R9p-MMhcBKxQMMF5JEtbAUNw8mLrrjbdT7HfQIY2z9QhdkPFDaEna6pee-RukiQcqVk6dIvSDGEiarKHMv8kd7t3Akiq51YKZLFXaAus20QH7cRHmpS-1E6nvath_PQ5XhiYb1xDHKKB6W9NdSr8cN4zlPG7dGgbrxg6Dfkq-H5CKvl5aQ7KjuKqU77QemBqifMvQ_n5xC75PmHYo2iHIi-n6OH3GCeJM_asbO77K2HpW_XqilhNVN9SAT1eTQfk8XCGo4u7hSBzwAeXPOjBISWfTdJwyGEuoIKApYnc9VF9KvKYdw-OkiqlA_Gh-IocdVJbyC7erkcS4wG5Ks2tdSR_w3MzxYsGHze9C_DadLTILNypv_xVNlkFh-0m00]--></g></svg>