<?xml version="1.0" encoding="us-ascii" standalone="no"?><svg xmlns="http://www.w3.org/2000/svg" xmlns:xlink="http://www.w3.org/1999/xlink" contentStyleType="text/css" height="975px" preserveAspectRatio="none" style="width:900px;height:975px;background:#FFFFFF;" version="1.1" viewBox="0 0 900 975" width="900px" zoomAndPan="magnify"><defs/><g><rect fill="none" height="953.1875" style="stroke:#000000;stroke-width:1.5;" width="878" x="11" y="11"/><path d="M307,11 L307,20.2969 L297,30.2969 L11,30.2969 " fill="none" style="stroke:#000000;stroke-width:1.5;"/><text fill="#000000" font-family="sans-serif" font-size="14" lengthAdjust="spacing" textLength="286" x="14" y="24.9951">add_start_and_end_events_to_sub_graph</text><ellipse cx="465" cy="50.2969" fill="#222222" rx="10" ry="10" style="stroke:#222222;stroke-width:1.0;"/><rect fill="#F1F1F1" height="33.9688" rx="12.5" ry="12.5" style="stroke:#181818;stroke-width:0.5;" width="196" x="367" y="80.2969"/><text fill="#000000" font-family="sans-serif" font-size="12" lengthAdjust="spacing" textLength="176" x="377" y="101.4355">input "Loop" type and graph</text><rect fill="none" height="787.9219" style="stroke:#000000;stroke-width:1.5;" width="858" x="21" y="124.2656"/><path d="M132,124.2656 L132,133.5625 L122,143.5625 L21,143.5625 " fill="none" style="stroke:#000000;stroke-width:1.5;"/><text fill="#000000" font-family="sans-serif" font-size="14" lengthAdjust="spacing" textLength="101" x="24" y="138.2607">main algorithm</text><rect fill="#F1F1F1" height="33.9688" rx="12.5" ry="12.5" style="stroke:#181818;stroke-width:0.5;" width="326" x="302" y="160.5625"/><text fill="#000000" font-family="sans-serif" font-size="12" lengthAdjust="spacing" textLength="306" x="312" y="181.7012">Create dummy start event and dummy end event</text><rect fill="#F1F1F1" height="33.9688" rx="12.5" ry="12.5" style="stroke:#181818;stroke-width:0.5;" width="425" x="252.5" y="214.5313"/><text fill="#000000" font-family="sans-serif" font-size="12" lengthAdjust="spacing" textLength="405" x="262.5" y="235.6699">Get in edges to loop start events that are not in the loop events</text><rect fill="#F1F1F1" height="33.9688" rx="12.5" ry="12.5" style="stroke:#181818;stroke-width:0.5;" width="433" x="248.5" y="268.5"/><text fill="#000000" font-family="sans-serif" font-size="12" lengthAdjust="spacing" textLength="413" x="258.5" y="289.6387">Collect all the out EventSets from the events into the start events</text><rect fill="#F1F1F1" height="33.9688" rx="12.5" ry="12.5" style="stroke:#181818;stroke-width:0.5;" width="402" x="264" y="322.4688"/><text fill="#000000" font-family="sans-serif" font-size="12" lengthAdjust="spacing" textLength="382" x="274" y="343.6074">Add those EventSets to the dummy start event out event set</text><rect fill="#F1F1F1" height="33.9688" rx="12.5" ry="12.5" style="stroke:#181818;stroke-width:0.5;" width="413" x="258.5" y="420.4375"/><text fill="#000000" font-family="sans-serif" font-size="12" lengthAdjust="spacing" textLength="393" x="268.5" y="441.5762">Get out edges from end events that are not in the loop events</text><polygon fill="#F1F1F1" points="423,474.4063,507,474.4063,519,486.4063,507,498.4063,423,498.4063,411,486.4063,423,474.4063" style="stroke:#181818;stroke-width:0.5;"/><text fill="#000000" font-family="sans-serif" font-size="11" lengthAdjust="spacing" textLength="84" x="423" y="490.2144">do edges exist</text><text fill="#000000" font-family="sans-serif" font-size="11" lengthAdjust="spacing" textLength="20" x="391" y="483.812">yes</text><text fill="#000000" font-family="sans-serif" font-size="11" lengthAdjust="spacing" textLength="14" x="519" y="483.812">no</text><rect fill="#F1F1F1" height="33.9688" rx="12.5" ry="12.5" style="stroke:#181818;stroke-width:0.5;" width="446" x="33" y="508.4063"/><text fill="#000000" font-family="sans-serif" font-size="12" lengthAdjust="spacing" textLength="426" x="43" y="529.5449">Collect all the in EventSets from the Events out from the end events</text><rect fill="#F1F1F1" height="33.9688" rx="12.5" ry="12.5" style="stroke:#181818;stroke-width:0.5;" width="386" x="63" y="576.3438"/><text fill="#000000" font-family="sans-serif" font-size="12" lengthAdjust="spacing" textLength="366" x="73" y="597.4824">Add those EventSets to the dummy end event in event set</text><rect fill="#F1F1F1" height="47.9375" rx="12.5" ry="12.5" style="stroke:#181818;stroke-width:0.5;" width="350" x="499" y="508.4063"/><text fill="#000000" font-family="sans-serif" font-size="12" lengthAdjust="spacing" textLength="330" x="509" y="529.5449">Add a single EventSet that is the end event to the in</text><text fill="#000000" font-family="sans-serif" font-size="12" lengthAdjust="spacing" textLength="215" x="509" y="543.5137">event set of the dummy end event</text><polygon fill="#F1F1F1" points="465,616.3125,477,628.3125,465,640.3125,453,628.3125,465,616.3125" style="stroke:#181818;stroke-width:0.5;"/><polygon fill="#F1F1F1" points="465,376.4375,477,388.4375,465,400.4375,453,388.4375,465,376.4375" style="stroke:#181818;stroke-width:0.5;"/><polygon fill="#F1F1F1" points="411.5,660.3125,518.5,660.3125,530.5,672.3125,518.5,684.3125,411.5,684.3125,399.5,672.3125,411.5,660.3125" style="stroke:#181818;stroke-width:0.5;"/><text fill="#000000" font-family="sans-serif" font-size="11" lengthAdjust="spacing" textLength="107" x="411.5" y="676.1206">for each end event</text><rect fill="#F1F1F1" height="33.9688" rx="12.5" ry="12.5" style="stroke:#181818;stroke-width:0.5;" width="368" x="281" y="704.3125"/><text fill="#000000" font-family="sans-serif" font-size="12" lengthAdjust="spacing" textLength="348" x="291" y="725.4512">Add edges from dummy start event to loop start events</text><rect fill="#F1F1F1" height="33.9688" rx="12.5" ry="12.5" style="stroke:#181818;stroke-width:0.5;" width="447" x="241.5" y="758.2813"/><text fill="#000000" font-family="sans-serif" font-size="12" lengthAdjust="spacing" textLength="427" x="251.5" y="779.4199">Add an inevent set of the the dummy start event to the start events</text><rect fill="#F1F1F1" height="33.9688" rx="12.5" ry="12.5" style="stroke:#181818;stroke-width:0.5;" width="356" x="287" y="812.25"/><text fill="#000000" font-family="sans-serif" font-size="12" lengthAdjust="spacing" textLength="336" x="297" y="833.3887">Add edges from loop end events to dummy end event</text><rect fill="#F1F1F1" height="33.9688" rx="12.5" ry="12.5" style="stroke:#181818;stroke-width:0.5;" width="420" x="255" y="866.2188"/><text fill="#000000" font-family="sans-serif" font-size="12" lengthAdjust="spacing" textLength="400" x="265" y="887.3574">Add an outevent set of the dummy end event to the end events</text><ellipse cx="465" cy="942.1875" fill="none" rx="10" ry="10" style="stroke:#222222;stroke-width:1.5;"/><line style="stroke:#222222;stroke-width:2.5;" x1="458.8128" x2="471.1872" y1="936.0003" y2="948.3747"/><line style="stroke:#222222;stroke-width:2.5;" x1="471.1872" x2="458.8128" y1="936.0003" y2="948.3747"/><line style="stroke:#181818;stroke-width:1.0;" x1="465" x2="465" y1="60.2969" y2="80.2969"/><polygon fill="#181818" points="461,70.2969,465,80.2969,469,70.2969,465,74.2969" style="stroke:#181818;stroke-width:1.0;"/><line style="stroke:#181818;stroke-width:1.0;" x1="465" x2="465" y1="194.5313" y2="214.5313"/><polygon fill="#181818" points="461,204.5313,465,214.5313,469,204.5313,465,208.5313" style="stroke:#181818;stroke-width:1.0;"/><line style="stroke:#181818;stroke-width:1.0;" x1="465" x2="465" y1="248.5" y2="268.5"/><polygon fill="#181818" points="461,258.5,465,268.5,469,258.5,465,262.5" style="stroke:#181818;stroke-width:1.0;"/><line style="stroke:#181818;stroke-width:1.0;" x1="465" x2="465" y1="302.4688" y2="322.4688"/><polygon fill="#181818" points="461,312.4688,465,322.4688,469,312.4688,465,316.4688" style="stroke:#181818;stroke-width:1.0;"/><line style="stroke:#181818;stroke-width:1.0;" x1="256" x2="256" y1="542.375" y2="576.3438"/><polygon fill="#181818" points="252,566.3438,256,576.3438,260,566.3438,256,570.3438" style="stroke:#181818;stroke-width:1.0;"/><line style="stroke:#181818;stroke-width:1.0;" x1="411" x2="256" y1="486.4063" y2="486.4063"/><line style="stroke:#181818;stroke-width:1.0;" x1="256" x2="256" y1="486.4063" y2="508.4063"/><polygon fill="#181818" points="252,498.4063,256,508.4063,260,498.4063,256,502.4063" style="stroke:#181818;stroke-width:1.0;"/><line style="stroke:#181818;stroke-width:1.0;" x1="519" x2="674" y1="486.4063" y2="486.4063"/><line style="stroke:#181818;stroke-width:1.0;" x1="674" x2="674" y1="486.4063" y2="508.4063"/><polygon fill="#181818" points="670,498.4063,674,508.4063,678,498.4063,674,502.4063" style="stroke:#181818;stroke-width:1.0;"/><line style="stroke:#181818;stroke-width:1.0;" x1="256" x2="256" y1="610.3125" y2="628.3125"/><line style="stroke:#181818;stroke-width:1.0;" x1="256" x2="453" y1="628.3125" y2="628.3125"/><polygon fill="#181818" points="443,624.3125,453,628.3125,443,632.3125,447,628.3125" style="stroke:#181818;stroke-width:1.0;"/><line style="stroke:#181818;stroke-width:1.0;" x1="674" x2="674" y1="556.3438" y2="628.3125"/><line style="stroke:#181818;stroke-width:1.0;" x1="674" x2="477" y1="628.3125" y2="628.3125"/><polygon fill="#181818" points="487,624.3125,477,628.3125,487,632.3125,483,628.3125" style="stroke:#181818;stroke-width:1.0;"/><line style="stroke:#181818;stroke-width:1.0;" x1="465" x2="465" y1="454.4063" y2="474.4063"/><polygon fill="#181818" points="461,464.4063,465,474.4063,469,464.4063,465,468.4063" style="stroke:#181818;stroke-width:1.0;"/><line style="stroke:#181818;stroke-width:1.0;" x1="465" x2="465" y1="400.4375" y2="420.4375"/><polygon fill="#181818" points="461,410.4375,465,420.4375,469,410.4375,465,414.4375" style="stroke:#181818;stroke-width:1.0;"/><line style="stroke:#181818;stroke-width:1.0;" x1="530.5" x2="863" y1="672.3125" y2="672.3125"/><polygon fill="#181818" points="859,533.3906,863,523.3906,867,533.3906,863,529.3906" style="stroke:#181818;stroke-width:1.0;"/><line style="stroke:#181818;stroke-width:1.0;" x1="863" x2="863" y1="388.4375" y2="672.3125"/><line style="stroke:#181818;stroke-width:1.0;" x1="863" x2="477" y1="388.4375" y2="388.4375"/><polygon fill="#181818" points="487,384.4375,477,388.4375,487,392.4375,483,388.4375" style="stroke:#181818;stroke-width:1.0;"/><line style="stroke:#181818;stroke-width:1.0;" x1="465" x2="465" y1="640.3125" y2="660.3125"/><polygon fill="#181818" points="461,650.3125,465,660.3125,469,650.3125,465,654.3125" style="stroke:#181818;stroke-width:1.0;"/><line style="stroke:#181818;stroke-width:1.0;" x1="465" x2="465" y1="356.4375" y2="376.4375"/><polygon fill="#181818" points="461,366.4375,465,376.4375,469,366.4375,465,370.4375" style="stroke:#181818;stroke-width:1.0;"/><line style="stroke:#181818;stroke-width:1.0;" x1="465" x2="465" y1="684.3125" y2="704.3125"/><polygon fill="#181818" points="461,694.3125,465,704.3125,469,694.3125,465,698.3125" style="stroke:#181818;stroke-width:1.0;"/><line style="stroke:#181818;stroke-width:1.0;" x1="465" x2="465" y1="738.2813" y2="758.2813"/><polygon fill="#181818" points="461,748.2813,465,758.2813,469,748.2813,465,752.2813" style="stroke:#181818;stroke-width:1.0;"/><line style="stroke:#181818;stroke-width:1.0;" x1="465" x2="465" y1="792.25" y2="812.25"/><polygon fill="#181818" points="461,802.25,465,812.25,469,802.25,465,806.25" style="stroke:#181818;stroke-width:1.0;"/><line style="stroke:#181818;stroke-width:1.0;" x1="465" x2="465" y1="846.2188" y2="866.2188"/><polygon fill="#181818" points="461,856.2188,465,866.2188,469,856.2188,465,860.2188" style="stroke:#181818;stroke-width:1.0;"/><line style="stroke:#181818;stroke-width:1.0;" x1="465" x2="465" y1="114.2656" y2="160.5625"/><polygon fill="#181818" points="461,150.5625,465,160.5625,469,150.5625,465,154.5625" style="stroke:#181818;stroke-width:1.0;"/><line style="stroke:#181818;stroke-width:1.0;" x1="465" x2="465" y1="900.1875" y2="932.1875"/><polygon fill="#181818" points="461,922.1875,465,932.1875,469,922.1875,465,926.1875" style="stroke:#181818;stroke-width:1.0;"/><!--SRC=[bLJ1JeGm4Btx5HDEy0lkoMmsNhnvDI5rEq2JqY5jKJV6VtVQOfTTQbQRaD1XvhtNnmC0W4bOhxmY0vMGidMUzwqmiiLmlQ7nhlNKklcrxQsOXWe-xs1PiJdlxfMPPW_L4z5KWJzD28m3SMgNktfBymJLA9G1eNkooWzZbHz7eBr5uH7aF8wdH09HISHBLLQNQhlBqKVqmCWeUtJW2JIBMKDmSH0CP14CnLO_OEfApw_mzgGr7db0wzX9VC93Q7n6nkeiZR6yO2l3b66_Phn2V92IMyZX2cUPsXuuqAKxXrT7jJYnInUbx40SYnP4XTciVvu-BDL1BMb1mm_bV1E63DGdTCsclMWQynGyEoH5GUlPnwnqLuQ-wLv6Y34eMnSMQiQe3JM_ymXmolJwJ9NSK-vIwW-_CYyc4m9r9L457KQghl1YuNrGJ5rtP075SJXZDDiyhTxrDaEbhw2GIM7u11lzvLZ-BUKhLIbYgnZIZUzuKSJXk6NfZvXIT33-V_Y7iwx4-wzl]--></g></svg>