<?xml version="1.0" encoding="us-ascii" standalone="no"?><svg xmlns="http://www.w3.org/2000/svg" xmlns:xlink="http://www.w3.org/1999/xlink" contentStyleType="text/css" height="1136px" preserveAspectRatio="none" style="width:563px;height:1136px;background:#FFFFFF;" version="1.1" viewBox="0 0 563 1136" width="563px" zoomAndPan="magnify"><defs/><g><rect fill="none" height="1114.2188" style="stroke:#000000;stroke-width:1.5;" width="541" x="11" y="11"/><path d="M161,11 L161,20.2969 L151,30.2969 L11,30.2969 " fill="none" style="stroke:#000000;stroke-width:1.5;"/><text fill="#000000" font-family="sans-serif" font-size="14" lengthAdjust="spacing" textLength="140" x="14" y="24.9951">remove_loop_edges</text><ellipse cx="281.5" cy="50.2969" fill="#222222" rx="10" ry="10" style="stroke:#222222;stroke-width:1.0;"/><rect fill="#F1F1F1" height="33.9688" rx="12.5" ry="12.5" style="stroke:#181818;stroke-width:0.5;" width="196" x="183.5" y="80.2969"/><text fill="#000000" font-family="sans-serif" font-size="12" lengthAdjust="spacing" textLength="176" x="193.5" y="101.4355">input "Loop" type and graph</text><rect fill="none" height="460.0469" style="stroke:#000000;stroke-width:1.5;" width="521" x="21" y="124.2656"/><path d="M132,124.2656 L132,133.5625 L122,143.5625 L21,143.5625 " fill="none" style="stroke:#000000;stroke-width:1.5;"/><text fill="#000000" font-family="sans-serif" font-size="14" lengthAdjust="spacing" textLength="101" x="24" y="138.2607">main algorithm</text><rect fill="#F1F1F1" height="33.9688" rx="12.5" ry="12.5" style="stroke:#181818;stroke-width:0.5;" width="215" x="174" y="160.5625"/><text fill="#000000" font-family="sans-serif" font-size="12" lengthAdjust="spacing" textLength="195" x="184" y="181.7012">remove edges that create loop</text><rect fill="#F1F1F1" height="33.9688" rx="12.5" ry="12.5" style="stroke:#181818;stroke-width:0.5;" width="459" x="52" y="214.5313"/><text fill="#000000" font-family="sans-serif" font-size="12" lengthAdjust="spacing" textLength="439" x="62" y="235.6699">remove the EventSets from event_sets that mirror the removed edges</text><rect fill="#F1F1F1" height="33.9688" rx="12.5" ry="12.5" style="stroke:#181818;stroke-width:0.5;" width="193" x="185" y="268.5"/><text fill="#000000" font-family="sans-serif" font-size="12" lengthAdjust="spacing" textLength="173" x="195" y="289.6387">get in edges to start points</text><rect fill="#F1F1F1" height="33.9688" rx="12.5" ry="12.5" style="stroke:#181818;stroke-width:0.5;" width="323" x="120" y="322.4688"/><text fill="#000000" font-family="sans-serif" font-size="12" lengthAdjust="spacing" textLength="303" x="130" y="343.6074">get out edges from end points and break points</text><rect fill="#F1F1F1" height="33.9688" rx="12.5" ry="12.5" style="stroke:#181818;stroke-width:0.5;" width="218" x="172.5" y="376.4375"/><text fill="#000000" font-family="sans-serif" font-size="12" lengthAdjust="spacing" textLength="198" x="182.5" y="397.5762">remove in edges to start points</text><rect fill="#F1F1F1" height="33.9688" rx="12.5" ry="12.5" style="stroke:#181818;stroke-width:0.5;" width="439" x="62" y="430.4063"/><text fill="#000000" font-family="sans-serif" font-size="12" lengthAdjust="spacing" textLength="419" x="72" y="451.5449">remove EventSets that mirror the removed edges from start points</text><rect fill="#F1F1F1" height="33.9688" rx="12.5" ry="12.5" style="stroke:#181818;stroke-width:0.5;" width="348" x="107.5" y="484.375"/><text fill="#000000" font-family="sans-serif" font-size="12" lengthAdjust="spacing" textLength="328" x="117.5" y="505.5137">remove out edges from end points and break points</text><rect fill="#F1F1F1" height="33.9688" rx="12.5" ry="12.5" style="stroke:#181818;stroke-width:0.5;" width="501" x="31" y="538.3438"/><text fill="#000000" font-family="sans-serif" font-size="12" lengthAdjust="spacing" textLength="481" x="41" y="559.4824">remove EventSets that mirror the removed edges from end and break points</text><ellipse cx="281.5" cy="614.3125" fill="none" rx="10" ry="10" style="stroke:#222222;stroke-width:1.5;"/><line style="stroke:#222222;stroke-width:2.5;" x1="275.3128" x2="287.6872" y1="608.1253" y2="620.4997"/><line style="stroke:#222222;stroke-width:2.5;" x1="287.6872" x2="275.3128" y1="608.1253" y2="620.4997"/><rect fill="none" height="478.9063" style="stroke:#000000;stroke-width:1.5;" width="495" x="46" y="634.3125"/><path d="M158,634.3125 L158,643.6094 L148,653.6094 L46,653.6094 " fill="none" style="stroke:#000000;stroke-width:1.5;"/><text fill="#000000" font-family="sans-serif" font-size="14" lengthAdjust="spacing" textLength="102" x="49" y="648.3076">sub algorithms</text><ellipse cx="281.5" cy="673.6094" fill="#222222" rx="10" ry="10" style="stroke:#222222;stroke-width:1.0;"/><rect fill="#F1F1F1" height="33.9688" rx="12.5" ry="12.5" style="stroke:#181818;stroke-width:0.5;" width="153" x="205" y="703.6094"/><text fill="#000000" font-family="sans-serif" font-size="12" lengthAdjust="spacing" textLength="133" x="215" y="724.748">input removed edges</text><rect fill="none" height="313.6406" style="stroke:#000000;stroke-width:1.5;" width="475" x="56" y="747.5781"/><path d="M370,747.5781 L370,756.875 L360,766.875 L56,766.875 " fill="none" style="stroke:#000000;stroke-width:1.5;"/><text fill="#000000" font-family="sans-serif" font-size="14" lengthAdjust="spacing" textLength="304" x="59" y="761.5732">remove EventSets mirroring removed edges</text><rect fill="#F1F1F1" height="47.9375" rx="12.5" ry="12.5" style="stroke:#181818;stroke-width:0.5;" width="431" x="66" y="827.875"/><text fill="#000000" font-family="sans-serif" font-size="12" lengthAdjust="spacing" textLength="316" x="76" y="849.0137">remove EventSets containing the end Event of the</text><text fill="#000000" font-family="sans-serif" font-size="12" lengthAdjust="spacing" textLength="411" x="76" y="862.9824">edge from the event_sets attribute of the start Event of the edge</text><rect fill="#F1F1F1" height="47.9375" rx="12.5" ry="12.5" style="stroke:#181818;stroke-width:0.5;" width="383" x="90" y="903.3125"/><text fill="#000000" font-family="sans-serif" font-size="12" lengthAdjust="spacing" textLength="322" x="100" y="924.4512">remove EventSets containing the start Event of the</text><text fill="#000000" font-family="sans-serif" font-size="12" lengthAdjust="spacing" textLength="363" x="100" y="938.4199">edge from the in_event_sets of the end Event of the edge</text><polygon fill="#F1F1F1" points="281.5,783.875,293.5,795.875,281.5,807.875,269.5,795.875,281.5,783.875" style="stroke:#181818;stroke-width:0.5;"/><polygon fill="#F1F1F1" points="215,971.25,348,971.25,360,983.25,348,995.25,215,995.25,203,983.25,215,971.25" style="stroke:#181818;stroke-width:0.5;"/><text fill="#000000" font-family="sans-serif" font-size="11" lengthAdjust="spacing" textLength="133" x="215" y="987.0581">for each removed edge</text><rect fill="#F1F1F1" height="33.9688" rx="12.5" ry="12.5" style="stroke:#181818;stroke-width:0.5;" width="350" x="106.5" y="1015.25"/><text fill="#000000" font-family="sans-serif" font-size="12" lengthAdjust="spacing" textLength="330" x="116.5" y="1036.3887">output "EventSets" without mirroring removed edges</text><ellipse cx="281.5" cy="1091.2188" fill="none" rx="10" ry="10" style="stroke:#222222;stroke-width:1.5;"/><line style="stroke:#222222;stroke-width:2.5;" x1="275.3128" x2="287.6872" y1="1085.0316" y2="1097.4059"/><line style="stroke:#222222;stroke-width:2.5;" x1="287.6872" x2="275.3128" y1="1085.0316" y2="1097.4059"/><line style="stroke:#181818;stroke-width:1.0;" x1="281.5" x2="281.5" y1="60.2969" y2="80.2969"/><polygon fill="#181818" points="277.5,70.2969,281.5,80.2969,285.5,70.2969,281.5,74.2969" style="stroke:#181818;stroke-width:1.0;"/><line style="stroke:#181818;stroke-width:1.0;" x1="281.5" x2="281.5" y1="194.5313" y2="214.5313"/><polygon fill="#181818" points="277.5,204.5313,281.5,214.5313,285.5,204.5313,281.5,208.5313" style="stroke:#181818;stroke-width:1.0;"/><line style="stroke:#181818;stroke-width:1.0;" x1="281.5" x2="281.5" y1="248.5" y2="268.5"/><polygon fill="#181818" points="277.5,258.5,281.5,268.5,285.5,258.5,281.5,262.5" style="stroke:#181818;stroke-width:1.0;"/><line style="stroke:#181818;stroke-width:1.0;" x1="281.5" x2="281.5" y1="302.4688" y2="322.4688"/><polygon fill="#181818" points="277.5,312.4688,281.5,322.4688,285.5,312.4688,281.5,316.4688" style="stroke:#181818;stroke-width:1.0;"/><line style="stroke:#181818;stroke-width:1.0;" x1="281.5" x2="281.5" y1="356.4375" y2="376.4375"/><polygon fill="#181818" points="277.5,366.4375,281.5,376.4375,285.5,366.4375,281.5,370.4375" style="stroke:#181818;stroke-width:1.0;"/><line style="stroke:#181818;stroke-width:1.0;" x1="281.5" x2="281.5" y1="410.4063" y2="430.4063"/><polygon fill="#181818" points="277.5,420.4063,281.5,430.4063,285.5,420.4063,281.5,424.4063" style="stroke:#181818;stroke-width:1.0;"/><line style="stroke:#181818;stroke-width:1.0;" x1="281.5" x2="281.5" y1="464.375" y2="484.375"/><polygon fill="#181818" points="277.5,474.375,281.5,484.375,285.5,474.375,281.5,478.375" style="stroke:#181818;stroke-width:1.0;"/><line style="stroke:#181818;stroke-width:1.0;" x1="281.5" x2="281.5" y1="518.3438" y2="538.3438"/><polygon fill="#181818" points="277.5,528.3438,281.5,538.3438,285.5,528.3438,281.5,532.3438" style="stroke:#181818;stroke-width:1.0;"/><line style="stroke:#181818;stroke-width:1.0;" x1="281.5" x2="281.5" y1="114.2656" y2="160.5625"/><polygon fill="#181818" points="277.5,150.5625,281.5,160.5625,285.5,150.5625,281.5,154.5625" style="stroke:#181818;stroke-width:1.0;"/><line style="stroke:#181818;stroke-width:1.0;" x1="281.5" x2="281.5" y1="572.3125" y2="604.3125"/><polygon fill="#181818" points="277.5,594.3125,281.5,604.3125,285.5,594.3125,281.5,598.3125" style="stroke:#181818;stroke-width:1.0;"/><line style="stroke:#181818;stroke-width:1.0;" x1="281.5" x2="281.5" y1="683.6094" y2="703.6094"/><polygon fill="#181818" points="277.5,693.6094,281.5,703.6094,285.5,693.6094,281.5,697.6094" style="stroke:#181818;stroke-width:1.0;"/><line style="stroke:#181818;stroke-width:1.0;" x1="281.5" x2="281.5" y1="875.8125" y2="903.3125"/><polygon fill="#181818" points="277.5,893.3125,281.5,903.3125,285.5,893.3125,281.5,897.3125" style="stroke:#181818;stroke-width:1.0;"/><line style="stroke:#181818;stroke-width:1.0;" x1="281.5" x2="281.5" y1="807.875" y2="827.875"/><polygon fill="#181818" points="277.5,817.875,281.5,827.875,285.5,817.875,281.5,821.875" style="stroke:#181818;stroke-width:1.0;"/><line style="stroke:#181818;stroke-width:1.0;" x1="360" x2="509" y1="983.25" y2="983.25"/><polygon fill="#181818" points="505,895.8125,509,885.8125,513,895.8125,509,891.8125" style="stroke:#181818;stroke-width:1.0;"/><line style="stroke:#181818;stroke-width:1.0;" x1="509" x2="509" y1="795.875" y2="983.25"/><line style="stroke:#181818;stroke-width:1.0;" x1="509" x2="293.5" y1="795.875" y2="795.875"/><polygon fill="#181818" points="303.5,791.875,293.5,795.875,303.5,799.875,299.5,795.875" style="stroke:#181818;stroke-width:1.0;"/><line style="stroke:#181818;stroke-width:1.0;" x1="281.5" x2="281.5" y1="951.25" y2="971.25"/><polygon fill="#181818" points="277.5,961.25,281.5,971.25,285.5,961.25,281.5,965.25" style="stroke:#181818;stroke-width:1.0;"/><line style="stroke:#181818;stroke-width:1.0;" x1="281.5" x2="281.5" y1="995.25" y2="1015.25"/><polygon fill="#181818" points="277.5,1005.25,281.5,1015.25,285.5,1005.25,281.5,1009.25" style="stroke:#181818;stroke-width:1.0;"/><line style="stroke:#181818;stroke-width:1.0;" x1="281.5" x2="281.5" y1="737.5781" y2="783.875"/><polygon fill="#181818" points="277.5,773.875,281.5,783.875,285.5,773.875,281.5,777.875" style="stroke:#181818;stroke-width:1.0;"/><line style="stroke:#181818;stroke-width:1.0;" x1="281.5" x2="281.5" y1="1049.2188" y2="1081.2188"/><polygon fill="#181818" points="277.5,1071.2188,281.5,1081.2188,285.5,1071.2188,281.5,1075.2188" style="stroke:#181818;stroke-width:1.0;"/><!--SRC=[fLJBRi8m4BptAqO-jRy0vzvwwxLIP619h1AlvMn0gEBVwqSQyeA-SehjsPsPzIG0uBGN8uOjbAUQZrGSc5r1kv8QXOy7T4yZ0TYlLiQwLg1U0bP1pewWxGwbrwvQzwZIS-kWQcqizA5aRwIgLN-S6cLI93v8fGLRJre8KSPw4IiLuVb8Lbv96kmzrw2uB9guJZrguptxXCn5kymmQLYI86Zho3cRX6DZPGdAmNB6PjBWE6EJ-KtG_RvSt0d_8LM7lbgyQobh-RxTVyN_IaxiVhijfQY4R0nt-lT18fjsSmtEA8xpI0vYUUVAkqZEF6KxnfRZud5Ou-F9XNZEjfSdjMKh8VonRHnKz9qEmVkuyMOZIPvOEh-cM8juisd3Tv2XtGKFgvF2zT-KpBjDjHXR3EHyCKuCt92GPuHJPGw4nts82UbjDPhiqwne5GAQ_YczQ8LJkFUOsnktCsQUfsgQh4jwktm2]--></g></svg>