<?xml version="1.0" encoding="us-ascii" standalone="no"?><svg xmlns="http://www.w3.org/2000/svg" xmlns:xlink="http://www.w3.org/1999/xlink" contentStyleType="text/css" height="681px" preserveAspectRatio="none" style="width:259px;height:681px;background:#FFFFFF;" version="1.1" viewBox="0 0 259 681" width="259px" zoomAndPan="magnify"><defs/><g><rect fill="none" height="659.9063" style="stroke:#000000;stroke-width:1.5;" width="237" x="11" y="11"/><path d="M157,11 L157,20.4883 L147,30.4883 L11,30.4883 " fill="none" style="stroke:#000000;stroke-width:1.5;"/><text fill="#000000" font-family="sans-serif" font-size="14" lengthAdjust="spacing" textLength="136" x="14" y="25.5352">loop_with_2_breaks</text><rect fill="none" height="618.418" style="stroke:#000000;stroke-width:1.5;" width="217" x="21" y="40.4883"/><path d="M167,40.4883 L167,49.9766 L157,59.9766 L21,59.9766 " fill="none" style="stroke:#000000;stroke-width:1.5;"/><text fill="#000000" font-family="sans-serif" font-size="14" lengthAdjust="spacing" textLength="136" x="24" y="55.0234">loop_with_2_breaks</text><rect fill="#008000" height="34.1328" rx="12.5" ry="12.5" style="stroke:#181818;stroke-width:0.5;" width="28" x="98" y="69.9766"/><text fill="#000000" font-family="sans-serif" font-size="12" lengthAdjust="spacing" textLength="8" x="108" y="91.5781">A</text><rect fill="#F1F1F1" height="34.1328" rx="12.5" ry="12.5" style="stroke:#181818;stroke-width:0.5;" width="27" x="98.5" y="168.1094"/><text fill="#000000" font-family="sans-serif" font-size="12" lengthAdjust="spacing" textLength="7" x="108.5" y="189.7109">B</text><polygon fill="#F1F1F1" points="100,222.2422,124,222.2422,136,234.2422,124,246.2422,100,246.2422,88,234.2422,100,222.2422" style="stroke:#181818;stroke-width:0.5;"/><text fill="#000000" font-family="sans-serif" font-size="11" lengthAdjust="spacing" textLength="23" x="100.5" y="238.3994">XOR</text><text fill="#000000" font-family="sans-serif" font-size="11" lengthAdjust="spacing" textLength="22" x="66" y="231.9219">true</text><text fill="#000000" font-family="sans-serif" font-size="11" lengthAdjust="spacing" textLength="25" x="136" y="231.9219">false</text><rect fill="#F1F1F1" height="34.1328" rx="12.5" ry="12.5" style="stroke:#181818;stroke-width:0.5;" width="28" x="51" y="256.2422"/><text fill="#000000" font-family="sans-serif" font-size="12" lengthAdjust="spacing" textLength="8" x="61" y="277.8438">C</text><rect fill="#F1F1F1" height="34.1328" rx="12.5" ry="12.5" style="stroke:#181818;stroke-width:0.5;" width="29" x="144.5" y="256.2422"/><text fill="#000000" font-family="sans-serif" font-size="12" lengthAdjust="spacing" textLength="9" x="154.5" y="277.8438">D</text><polygon fill="#F1F1F1" points="147,310.375,171,310.375,183,322.375,171,334.375,147,334.375,135,322.375,147,310.375" style="stroke:#181818;stroke-width:0.5;"/><text fill="#000000" font-family="sans-serif" font-size="11" lengthAdjust="spacing" textLength="23" x="147.5" y="326.5322">XOR</text><text fill="#000000" font-family="sans-serif" font-size="11" lengthAdjust="spacing" textLength="22" x="113" y="320.0547">true</text><text fill="#000000" font-family="sans-serif" font-size="11" lengthAdjust="spacing" textLength="25" x="183" y="320.0547">false</text><rect fill="#F1F1F1" height="34.1328" rx="12.5" ry="12.5" style="stroke:#181818;stroke-width:0.5;" width="27" x="111.5" y="344.375"/><text fill="#000000" font-family="sans-serif" font-size="12" lengthAdjust="spacing" textLength="7" x="121.5" y="365.9766">E</text><rect fill="#F1F1F1" height="34.1328" rx="12.5" ry="12.5" style="stroke:#181818;stroke-width:0.5;" width="26" x="112" y="398.5078"/><text fill="#000000" font-family="sans-serif" font-size="12" lengthAdjust="spacing" textLength="6" x="122" y="420.1094">F</text><rect fill="#F1F1F1" height="34.1328" rx="12.5" ry="12.5" style="stroke:#181818;stroke-width:0.5;" width="29" x="110.5" y="452.6406"/><text fill="#000000" font-family="sans-serif" font-size="12" lengthAdjust="spacing" textLength="9" x="120.5" y="474.2422">G</text><rect fill="#F1F1F1" height="34.1328" rx="12.5" ry="12.5" style="stroke:#181818;stroke-width:0.5;" width="29" x="178.5" y="344.375"/><text fill="#000000" font-family="sans-serif" font-size="12" lengthAdjust="spacing" textLength="9" x="188.5" y="365.9766">H</text><polygon fill="#F1F1F1" points="112,124.1094,124,136.1094,112,148.1094,100,136.1094,112,124.1094" style="stroke:#181818;stroke-width:0.5;"/><polygon fill="#F1F1F1" points="112,524.7734,112,524.7734,124,536.7734,112,548.7734,112,548.7734,100,536.7734,112,524.7734" style="stroke:#181818;stroke-width:0.5;"/><polygon fill="#F1F1F1" points="112,568.7734,124,580.7734,112,592.7734,100,580.7734,112,568.7734" style="stroke:#181818;stroke-width:0.5;"/><rect fill="#FF0000" height="34.1328" rx="12.5" ry="12.5" style="stroke:#181818;stroke-width:0.5;" width="23" x="100.5" y="612.7734"/><text fill="#000000" font-family="sans-serif" font-size="12" lengthAdjust="spacing" textLength="3" x="110.5" y="634.375">I</text><line style="stroke:#181818;stroke-width:1.0;" x1="65" x2="65" y1="290.375" y2="580.7734"/><line style="stroke:#181818;stroke-width:1.0;" x1="65" x2="100" y1="580.7734" y2="580.7734"/><polygon fill="#181818" points="90,576.7734,100,580.7734,90,584.7734,94,580.7734" style="stroke:#181818;stroke-width:1.0;"/><line style="stroke:#181818;stroke-width:1.0;" x1="125" x2="125" y1="378.5078" y2="398.5078"/><polygon fill="#181818" points="121,388.5078,125,398.5078,129,388.5078,125,392.5078" style="stroke:#181818;stroke-width:1.0;"/><line style="stroke:#181818;stroke-width:1.0;" x1="125" x2="125" y1="432.6406" y2="452.6406"/><polygon fill="#181818" points="121,442.6406,125,452.6406,129,442.6406,125,446.6406" style="stroke:#181818;stroke-width:1.0;"/><line style="stroke:#181818;stroke-width:1.0;" x1="125" x2="125" y1="486.7734" y2="500.7734"/><line style="stroke:#181818;stroke-width:1.0;" x1="125" x2="31" y1="500.7734" y2="500.7734"/><polygon fill="#181818" points="41,496.7734,31,500.7734,41,504.7734,37,500.7734" style="stroke:#181818;stroke-width:1.0;"/><line style="stroke:#181818;stroke-width:1.0;" x1="135" x2="125" y1="322.375" y2="322.375"/><line style="stroke:#181818;stroke-width:1.0;" x1="125" x2="125" y1="322.375" y2="344.375"/><polygon fill="#181818" points="121,334.375,125,344.375,129,334.375,125,338.375" style="stroke:#181818;stroke-width:1.0;"/><line style="stroke:#181818;stroke-width:1.0;" x1="183" x2="193" y1="322.375" y2="322.375"/><line style="stroke:#181818;stroke-width:1.0;" x1="193" x2="193" y1="322.375" y2="344.375"/><polygon fill="#181818" points="189,334.375,193,344.375,197,334.375,193,338.375" style="stroke:#181818;stroke-width:1.0;"/><line style="stroke:#181818;stroke-width:1.0;" x1="193" x2="193" y1="378.5078" y2="509.7734"/><line style="stroke:#181818;stroke-width:1.0;" x1="193" x2="112" y1="509.7734" y2="509.7734"/><line style="stroke:#181818;stroke-width:1.0;" x1="112" x2="112" y1="509.7734" y2="524.7734"/><polygon fill="#181818" points="108,514.7734,112,524.7734,116,514.7734,112,518.7734" style="stroke:#181818;stroke-width:1.0;"/><line style="stroke:#181818;stroke-width:1.0;" x1="159" x2="159" y1="290.375" y2="310.375"/><polygon fill="#181818" points="155,300.375,159,310.375,163,300.375,159,304.375" style="stroke:#181818;stroke-width:1.0;"/><line style="stroke:#181818;stroke-width:1.0;" x1="88" x2="65" y1="234.2422" y2="234.2422"/><line style="stroke:#181818;stroke-width:1.0;" x1="65" x2="65" y1="234.2422" y2="256.2422"/><polygon fill="#181818" points="61,246.2422,65,256.2422,69,246.2422,65,250.2422" style="stroke:#181818;stroke-width:1.0;"/><line style="stroke:#181818;stroke-width:1.0;" x1="136" x2="159" y1="234.2422" y2="234.2422"/><line style="stroke:#181818;stroke-width:1.0;" x1="159" x2="159" y1="234.2422" y2="256.2422"/><polygon fill="#181818" points="155,246.2422,159,256.2422,163,246.2422,159,250.2422" style="stroke:#181818;stroke-width:1.0;"/><line style="stroke:#181818;stroke-width:1.0;" x1="112" x2="112" y1="202.2422" y2="222.2422"/><polygon fill="#181818" points="108,212.2422,112,222.2422,116,212.2422,112,216.2422" style="stroke:#181818;stroke-width:1.0;"/><line style="stroke:#181818;stroke-width:1.0;" x1="112" x2="112" y1="148.1094" y2="168.1094"/><polygon fill="#181818" points="108,158.1094,112,168.1094,116,158.1094,112,162.1094" style="stroke:#181818;stroke-width:1.0;"/><line style="stroke:#181818;stroke-width:1.0;" x1="124" x2="222" y1="536.7734" y2="536.7734"/><polygon fill="#181818" points="218,360.9414,222,350.9414,226,360.9414,222,356.9414" style="stroke:#181818;stroke-width:1.0;"/><line style="stroke:#181818;stroke-width:1.0;" x1="222" x2="222" y1="136.1094" y2="536.7734"/><line style="stroke:#181818;stroke-width:1.0;" x1="222" x2="124" y1="136.1094" y2="136.1094"/><polygon fill="#181818" points="134,132.1094,124,136.1094,134,140.1094,130,136.1094" style="stroke:#181818;stroke-width:1.0;"/><line style="stroke:#181818;stroke-width:1.0;" x1="112" x2="112" y1="548.7734" y2="568.7734"/><polygon fill="#181818" points="108,558.7734,112,568.7734,116,558.7734,112,562.7734" style="stroke:#181818;stroke-width:1.0;"/><line style="stroke:#181818;stroke-width:1.0;" x1="112" x2="112" y1="104.1094" y2="124.1094"/><polygon fill="#181818" points="108,114.1094,112,124.1094,116,114.1094,112,118.1094" style="stroke:#181818;stroke-width:1.0;"/><line style="stroke:#181818;stroke-width:1.0;" x1="112" x2="112" y1="592.7734" y2="612.7734"/><polygon fill="#181818" points="108,602.7734,112,612.7734,116,602.7734,112,606.7734" style="stroke:#181818;stroke-width:1.0;"/><!--SRC=[ZP5D3u8m38Rl-nMDNk3gaPtyrfE99szaXWABP5lA20VZVnU6mP2Dw7jP-gnzsxH6a9LMQWMBIckJjjAMwIgz4uf7lO0dWqu5wSO44znthsL1Y2fPyv4G6XHs37ib6pw9PGxHxNADmPQe8BBKO3n9S4LRxZ7NVKAngX6YN7HFm6BdM_pLsnNlUPWVPlWnpFsPVyxjx4w-7QfCvcoU3Ak7jfGLVYz4c2Ld3koJFroLlTu0]--></g></svg>