<?xml version="1.0" encoding="us-ascii" standalone="no"?><svg xmlns="http://www.w3.org/2000/svg" xmlns:xlink="http://www.w3.org/1999/xlink" contentStyleType="text/css" height="726px" preserveAspectRatio="none" style="width:207px;height:726px;background:#FFFFFF;" version="1.1" viewBox="0 0 207 726" width="207px" zoomAndPan="magnify"><defs/><g><rect fill="none" height="704.3398" style="stroke:#000000;stroke-width:1.5;" width="183.5" x="11" y="11"/><path d="M185,11 L185,20.4883 L175,30.4883 L11,30.4883 " fill="none" style="stroke:#000000;stroke-width:1.5;"/><text fill="#000000" font-family="sans-serif" font-size="14" lengthAdjust="spacing" textLength="164" x="14" y="25.5352">loop nested break point</text><rect fill="none" height="662.8516" style="stroke:#000000;stroke-width:1.5;" width="163.5" x="21" y="40.4883"/><path d="M195,40.4883 L195,49.9766 L185,59.9766 L21,59.9766 " fill="none" style="stroke:#000000;stroke-width:1.5;"/><text fill="#000000" font-family="sans-serif" font-size="14" lengthAdjust="spacing" textLength="164" x="24" y="55.0234">loop nested break point</text><rect fill="#008000" height="34.1328" rx="12.5" ry="12.5" style="stroke:#181818;stroke-width:0.5;" width="28" x="67.5" y="69.9766"/><text fill="#000000" font-family="sans-serif" font-size="12" lengthAdjust="spacing" textLength="8" x="77.5" y="91.5781">A</text><rect fill="#F1F1F1" height="34.1328" rx="12.5" ry="12.5" style="stroke:#181818;stroke-width:0.5;" width="27" x="68" y="168.1094"/><text fill="#000000" font-family="sans-serif" font-size="12" lengthAdjust="spacing" textLength="7" x="78" y="189.7109">B</text><rect fill="#F1F1F1" height="34.1328" rx="12.5" ry="12.5" style="stroke:#181818;stroke-width:0.5;" width="28" x="67.5" y="266.2422"/><text fill="#000000" font-family="sans-serif" font-size="12" lengthAdjust="spacing" textLength="8" x="77.5" y="287.8438">C</text><polygon fill="#F1F1F1" points="69.5,320.375,93.5,320.375,105.5,332.375,93.5,344.375,69.5,344.375,57.5,332.375,69.5,320.375" style="stroke:#181818;stroke-width:0.5;"/><text fill="#000000" font-family="sans-serif" font-size="11" lengthAdjust="spacing" textLength="23" x="70" y="336.5322">XOR</text><text fill="#000000" font-family="sans-serif" font-size="11" lengthAdjust="spacing" textLength="22" x="35.5" y="330.0547">true</text><text fill="#000000" font-family="sans-serif" font-size="11" lengthAdjust="spacing" textLength="25" x="105.5" y="330.0547">false</text><rect fill="#F1F1F1" height="34.1328" rx="12.5" ry="12.5" style="stroke:#181818;stroke-width:0.5;" width="29" x="33" y="354.375"/><text fill="#000000" font-family="sans-serif" font-size="12" lengthAdjust="spacing" textLength="9" x="43" y="375.9766">D</text><rect fill="#F1F1F1" height="34.1328" rx="12.5" ry="12.5" style="stroke:#181818;stroke-width:0.5;" width="27" x="102" y="354.375"/><text fill="#000000" font-family="sans-serif" font-size="12" lengthAdjust="spacing" textLength="7" x="112" y="375.9766">E</text><rect fill="#F1F1F1" height="34.1328" rx="12.5" ry="12.5" style="stroke:#181818;stroke-width:0.5;" width="26" x="102.5" y="416.9414"/><text fill="#000000" font-family="sans-serif" font-size="12" lengthAdjust="spacing" textLength="6" x="112.5" y="438.543">F</text><polygon fill="#F1F1F1" points="81.5,222.2422,93.5,234.2422,81.5,246.2422,69.5,234.2422,81.5,222.2422" style="stroke:#181818;stroke-width:0.5;"/><polygon fill="#F1F1F1" points="81.5,471.0742,81.5,471.0742,93.5,483.0742,81.5,495.0742,81.5,495.0742,69.5,483.0742,81.5,471.0742" style="stroke:#181818;stroke-width:0.5;"/><polygon fill="#F1F1F1" points="81.5,515.0742,93.5,527.0742,81.5,539.0742,69.5,527.0742,81.5,515.0742" style="stroke:#181818;stroke-width:0.5;"/><rect fill="#F1F1F1" height="34.1328" rx="12.5" ry="12.5" style="stroke:#181818;stroke-width:0.5;" width="29" x="67" y="559.0742"/><text fill="#000000" font-family="sans-serif" font-size="12" lengthAdjust="spacing" textLength="9" x="77" y="580.6758">G</text><polygon fill="#F1F1F1" points="81.5,124.1094,93.5,136.1094,81.5,148.1094,69.5,136.1094,81.5,124.1094" style="stroke:#181818;stroke-width:0.5;"/><polygon fill="#F1F1F1" points="81.5,613.207,81.5,613.207,93.5,625.207,81.5,637.207,81.5,637.207,69.5,625.207,81.5,613.207" style="stroke:#181818;stroke-width:0.5;"/><rect fill="#FF0000" height="34.1328" rx="12.5" ry="12.5" style="stroke:#181818;stroke-width:0.5;" width="27" x="68" y="657.207"/><text fill="#000000" font-family="sans-serif" font-size="12" lengthAdjust="spacing" textLength="7" x="78" y="678.8086">E</text><line style="stroke:#181818;stroke-width:1.0;" x1="47.5" x2="47.5" y1="388.5078" y2="527.0742"/><line style="stroke:#181818;stroke-width:1.0;" x1="47.5" x2="69.5" y1="527.0742" y2="527.0742"/><polygon fill="#181818" points="59.5,523.0742,69.5,527.0742,59.5,531.0742,63.5,527.0742" style="stroke:#181818;stroke-width:1.0;"/><line style="stroke:#181818;stroke-width:1.0;" x1="115.5" x2="115.5" y1="388.5078" y2="416.9414"/><polygon fill="#181818" points="111.5,406.9414,115.5,416.9414,119.5,406.9414,115.5,410.9414" style="stroke:#181818;stroke-width:1.0;"/><line style="stroke:#181818;stroke-width:1.0;" x1="57.5" x2="47.5" y1="332.375" y2="332.375"/><line style="stroke:#181818;stroke-width:1.0;" x1="47.5" x2="47.5" y1="332.375" y2="354.375"/><polygon fill="#181818" points="43.5,344.375,47.5,354.375,51.5,344.375,47.5,348.375" style="stroke:#181818;stroke-width:1.0;"/><line style="stroke:#181818;stroke-width:1.0;" x1="105.5" x2="115.5" y1="332.375" y2="332.375"/><line style="stroke:#181818;stroke-width:1.0;" x1="115.5" x2="115.5" y1="332.375" y2="354.375"/><polygon fill="#181818" points="111.5,344.375,115.5,354.375,119.5,344.375,115.5,348.375" style="stroke:#181818;stroke-width:1.0;"/><line style="stroke:#181818;stroke-width:1.0;" x1="115.5" x2="115.5" y1="451.0742" y2="456.0742"/><line style="stroke:#181818;stroke-width:1.0;" x1="115.5" x2="81.5" y1="456.0742" y2="456.0742"/><line style="stroke:#181818;stroke-width:1.0;" x1="81.5" x2="81.5" y1="456.0742" y2="471.0742"/><polygon fill="#181818" points="77.5,461.0742,81.5,471.0742,85.5,461.0742,81.5,465.0742" style="stroke:#181818;stroke-width:1.0;"/><line style="stroke:#181818;stroke-width:1.0;" x1="81.5" x2="81.5" y1="300.375" y2="320.375"/><polygon fill="#181818" points="77.5,310.375,81.5,320.375,85.5,310.375,81.5,314.375" style="stroke:#181818;stroke-width:1.0;"/><line style="stroke:#181818;stroke-width:1.0;" x1="81.5" x2="81.5" y1="246.2422" y2="266.2422"/><polygon fill="#181818" points="77.5,256.2422,81.5,266.2422,85.5,256.2422,81.5,260.2422" style="stroke:#181818;stroke-width:1.0;"/><line style="stroke:#181818;stroke-width:1.0;" x1="93.5" x2="144.5" y1="483.0742" y2="483.0742"/><polygon fill="#181818" points="140.5,367.4414,144.5,357.4414,148.5,367.4414,144.5,363.4414" style="stroke:#181818;stroke-width:1.0;"/><line style="stroke:#181818;stroke-width:1.0;" x1="144.5" x2="144.5" y1="234.2422" y2="483.0742"/><line style="stroke:#181818;stroke-width:1.0;" x1="144.5" x2="93.5" y1="234.2422" y2="234.2422"/><polygon fill="#181818" points="103.5,230.2422,93.5,234.2422,103.5,238.2422,99.5,234.2422" style="stroke:#181818;stroke-width:1.0;"/><line style="stroke:#181818;stroke-width:1.0;" x1="81.5" x2="81.5" y1="495.0742" y2="515.0742"/><polygon fill="#181818" points="77.5,505.0742,81.5,515.0742,85.5,505.0742,81.5,509.0742" style="stroke:#181818;stroke-width:1.0;"/><line style="stroke:#181818;stroke-width:1.0;" x1="81.5" x2="81.5" y1="202.2422" y2="222.2422"/><polygon fill="#181818" points="77.5,212.2422,81.5,222.2422,85.5,212.2422,81.5,216.2422" style="stroke:#181818;stroke-width:1.0;"/><line style="stroke:#181818;stroke-width:1.0;" x1="81.5" x2="81.5" y1="539.0742" y2="559.0742"/><polygon fill="#181818" points="77.5,549.0742,81.5,559.0742,85.5,549.0742,81.5,553.0742" style="stroke:#181818;stroke-width:1.0;"/><line style="stroke:#181818;stroke-width:1.0;" x1="81.5" x2="81.5" y1="148.1094" y2="168.1094"/><polygon fill="#181818" points="77.5,158.1094,81.5,168.1094,85.5,158.1094,81.5,162.1094" style="stroke:#181818;stroke-width:1.0;"/><line style="stroke:#181818;stroke-width:1.0;" x1="93.5" x2="168.5" y1="625.207" y2="625.207"/><polygon fill="#181818" points="164.5,396.9414,168.5,386.9414,172.5,396.9414,168.5,392.9414" style="stroke:#181818;stroke-width:1.0;"/><line style="stroke:#181818;stroke-width:1.0;" x1="168.5" x2="168.5" y1="136.1094" y2="625.207"/><line style="stroke:#181818;stroke-width:1.0;" x1="168.5" x2="93.5" y1="136.1094" y2="136.1094"/><polygon fill="#181818" points="103.5,132.1094,93.5,136.1094,103.5,140.1094,99.5,136.1094" style="stroke:#181818;stroke-width:1.0;"/><line style="stroke:#181818;stroke-width:1.0;" x1="81.5" x2="81.5" y1="593.207" y2="613.207"/><polygon fill="#181818" points="77.5,603.207,81.5,613.207,85.5,603.207,81.5,607.207" style="stroke:#181818;stroke-width:1.0;"/><line style="stroke:#181818;stroke-width:1.0;" x1="81.5" x2="81.5" y1="104.1094" y2="124.1094"/><polygon fill="#181818" points="77.5,114.1094,81.5,124.1094,85.5,114.1094,81.5,118.1094" style="stroke:#181818;stroke-width:1.0;"/><line style="stroke:#181818;stroke-width:1.0;" x1="81.5" x2="81.5" y1="637.207" y2="657.207"/><polygon fill="#181818" points="77.5,647.207,81.5,657.207,85.5,647.207,81.5,651.207" style="stroke:#181818;stroke-width:1.0;"/><!--SRC=[TP2z3eCm38HtdiA21Lw1JFqVAtNgcee3eg8aCaOTghvxWLP8GU6Mo9SlvzXUinWnpbBQEUV9eXTKz63e9tbdhAJqJcXKmsxmszJCJCeQ1covKul3yD2ob9FAlGhg67884LDJVh_U2f8MbdBX0KK0B0-FAkhFlmrkqFMWlDRZiH5rYaULvz27hKmT6OXUhUaGZdLPBsO5POngx4l9F_Yt-EJp1G00]--></g></svg>