<?xml version="1.0" encoding="us-ascii" standalone="no"?><svg xmlns="http://www.w3.org/2000/svg" xmlns:xlink="http://www.w3.org/1999/xlink" contentStyleType="text/css" height="570px" preserveAspectRatio="none" style="width:335px;height:570px;background:#FFFFFF;" version="1.1" viewBox="0 0 335 570" width="335px" zoomAndPan="magnify"><defs/><g><rect fill="none" height="548.0752" style="stroke:#000000;stroke-width:1.5;" width="313" x="11" y="11"/><path d="M299,11 L299,20.2969 L289,30.2969 L11,30.2969 " fill="none" style="stroke:#000000;stroke-width:1.5;"/><text fill="#000000" font-family="sans-serif" font-size="14" lengthAdjust="spacing" textLength="278" x="14" y="24.9951">loop_with_2_breaks_one_leads_to_other</text><rect fill="none" height="505.9766" style="stroke:#000000;stroke-width:1.5;" width="293" x="21" y="41.0986"/><path d="M309,41.0986 L309,50.3955 L299,60.3955 L21,60.3955 " fill="none" style="stroke:#000000;stroke-width:1.5;"/><text fill="#000000" font-family="sans-serif" font-size="14" lengthAdjust="spacing" textLength="278" x="24" y="55.0938">loop_with_2_breaks_one_leads_to_other</text><rect fill="#008000" height="33.9688" rx="12.5" ry="12.5" style="stroke:#181818;stroke-width:0.5;" width="28" x="144" y="70.3955"/><text fill="#000000" font-family="sans-serif" font-size="12" lengthAdjust="spacing" textLength="8" x="154" y="91.5342">A</text><rect fill="#F1F1F1" height="33.9688" rx="12.5" ry="12.5" style="stroke:#181818;stroke-width:0.5;" width="28" x="144" y="168.3643"/><text fill="#000000" font-family="sans-serif" font-size="12" lengthAdjust="spacing" textLength="8" x="154" y="189.5029">B</text><polygon fill="#F1F1F1" points="146,222.333,170,222.333,182,234.333,170,246.333,146,246.333,134,234.333,146,222.333" style="stroke:#181818;stroke-width:0.5;"/><text fill="#000000" font-family="sans-serif" font-size="11" lengthAdjust="spacing" textLength="23" x="146.5" y="238.1411">XOR</text><rect fill="#F1F1F1" height="33.9688" rx="12.5" ry="12.5" style="stroke:#181818;stroke-width:0.5;" width="28" x="95.5" y="281.9424"/><text fill="#000000" font-family="sans-serif" font-size="12" lengthAdjust="spacing" textLength="8" x="105.5" y="303.0811">E</text><rect fill="#F1F1F1" height="33.9688" rx="12.5" ry="12.5" style="stroke:#181818;stroke-width:0.5;" width="27" x="96" y="335.9111"/><text fill="#000000" font-family="sans-serif" font-size="12" lengthAdjust="spacing" textLength="7" x="106" y="357.0498">F</text><rect fill="#F1F1F1" height="33.9688" rx="12.5" ry="12.5" style="stroke:#181818;stroke-width:0.5;" width="29" x="95" y="403.1064"/><text fill="#000000" font-family="sans-serif" font-size="12" lengthAdjust="spacing" textLength="9" x="105" y="424.2451">G</text><rect fill="#F1F1F1" height="33.9688" rx="12.5" ry="12.5" style="stroke:#181818;stroke-width:0.5;" width="27" x="145" y="281.9424"/><text fill="#000000" font-family="sans-serif" font-size="12" lengthAdjust="spacing" textLength="7" x="155" y="303.0811">F</text><rect fill="#F1F1F1" height="33.9688" rx="12.5" ry="12.5" style="stroke:#181818;stroke-width:0.5;" width="29" x="144" y="335.9111"/><text fill="#000000" font-family="sans-serif" font-size="12" lengthAdjust="spacing" textLength="9" x="154" y="357.0498">G</text><rect fill="#F1F1F1" height="33.9688" rx="12.5" ry="12.5" style="stroke:#181818;stroke-width:0.5;" width="28" x="193" y="281.9424"/><text fill="#000000" font-family="sans-serif" font-size="12" lengthAdjust="spacing" textLength="8" x="203" y="303.0811">C</text><polygon fill="#F1F1F1" points="158,467.0752,158,467.0752,170,479.0752,158,491.0752,158,491.0752,146,479.0752,158,467.0752" style="stroke:#181818;stroke-width:0.5;"/><polygon fill="#F1F1F1" points="158,124.3643,170,136.3643,158,148.3643,146,136.3643,158,124.3643" style="stroke:#181818;stroke-width:0.5;"/><polygon fill="#F1F1F1" points="158,511.0752,158,511.0752,170,523.0752,158,535.0752,158,535.0752,146,523.0752,158,511.0752" style="stroke:#181818;stroke-width:0.5;"/><line style="stroke:#181818;stroke-width:1.0;" x1="109.5" x2="109.5" y1="315.9111" y2="335.9111"/><polygon fill="#181818" points="105.5,325.9111,109.5,335.9111,113.5,325.9111,109.5,329.9111" style="stroke:#181818;stroke-width:1.0;"/><line style="stroke:#181818;stroke-width:1.0;" x1="109.5" x2="109.5" y1="369.8799" y2="403.1064"/><polygon fill="#181818" points="105.5,393.1064,109.5,403.1064,113.5,393.1064,109.5,397.1064" style="stroke:#181818;stroke-width:1.0;"/><line style="stroke:#181818;stroke-width:1.0;" x1="109.5" x2="109.5" y1="437.0752" y2="457.0752"/><polygon fill="#181818" points="105.5,447.0752,109.5,457.0752,113.5,447.0752,109.5,451.0752" style="stroke:#181818;stroke-width:1.0;"/><line style="stroke:#181818;stroke-width:1.0;" x1="158.5" x2="158.5" y1="315.9111" y2="335.9111"/><polygon fill="#181818" points="154.5,325.9111,158.5,335.9111,162.5,325.9111,158.5,329.9111" style="stroke:#181818;stroke-width:1.0;"/><line style="stroke:#181818;stroke-width:1.0;" x1="158.5" x2="158.5" y1="369.8799" y2="403.1064"/><polygon fill="#181818" points="154.5,393.1064,158.5,403.1064,162.5,393.1064,158.5,397.1064" style="stroke:#181818;stroke-width:1.0;"/><line style="stroke:#181818;stroke-width:1.0;" x1="134" x2="109.5" y1="234.333" y2="234.333"/><line style="stroke:#181818;stroke-width:1.0;" x1="109.5" x2="109.5" y1="234.333" y2="281.9424"/><polygon fill="#181818" points="105.5,271.9424,109.5,281.9424,113.5,271.9424,109.5,275.9424" style="stroke:#181818;stroke-width:1.0;"/><text fill="#000000" font-family="sans-serif" font-size="11" lengthAdjust="spacing" textLength="10" x="109.5" y="261.9458">""</text><line style="stroke:#181818;stroke-width:1.0;" x1="182" x2="207" y1="234.333" y2="234.333"/><line style="stroke:#181818;stroke-width:1.0;" x1="207" x2="207" y1="234.333" y2="281.9424"/><polygon fill="#181818" points="203,271.9424,207,281.9424,211,271.9424,207,275.9424" style="stroke:#181818;stroke-width:1.0;"/><text fill="#000000" font-family="sans-serif" font-size="11" lengthAdjust="spacing" textLength="10" x="207" y="261.9458">""</text><line style="stroke:#181818;stroke-width:1.0;" x1="158" x2="158" y1="246.333" y2="258.2028"/><line style="stroke:#181818;stroke-width:1.0;" x1="158" x2="158.5" y1="258.2028" y2="258.2028"/><line style="stroke:#181818;stroke-width:1.0;" x1="158.5" x2="158.5" y1="258.2028" y2="281.9424"/><polygon fill="#181818" points="154.5,271.9424,158.5,281.9424,162.5,271.9424,158.5,275.9424" style="stroke:#181818;stroke-width:1.0;"/><text fill="#000000" font-family="sans-serif" font-size="11" lengthAdjust="spacing" textLength="10" x="158" y="262.9458">""</text><line style="stroke:#181818;stroke-width:1.0;" x1="207" x2="207" y1="315.9111" y2="479.0752"/><line style="stroke:#181818;stroke-width:1.0;" x1="207" x2="170" y1="479.0752" y2="479.0752"/><polygon fill="#181818" points="180,475.0752,170,479.0752,180,483.0752,176,479.0752" style="stroke:#181818;stroke-width:1.0;"/><line style="stroke:#181818;stroke-width:1.0;" x1="158" x2="158" y1="202.333" y2="222.333"/><polygon fill="#181818" points="154,212.333,158,222.333,162,212.333,158,216.333" style="stroke:#181818;stroke-width:1.0;"/><line style="stroke:#181818;stroke-width:1.0;" x1="158" x2="158" y1="148.3643" y2="168.3643"/><polygon fill="#181818" points="154,158.3643,158,168.3643,162,158.3643,158,162.3643" style="stroke:#181818;stroke-width:1.0;"/><line style="stroke:#181818;stroke-width:1.0;" x1="170" x2="233" y1="523.0752" y2="523.0752"/><polygon fill="#181818" points="229,383.1064,233,373.1064,237,383.1064,233,379.1064" style="stroke:#181818;stroke-width:1.0;"/><line style="stroke:#181818;stroke-width:1.0;" x1="233" x2="233" y1="136.3643" y2="523.0752"/><line style="stroke:#181818;stroke-width:1.0;" x1="233" x2="170" y1="136.3643" y2="136.3643"/><polygon fill="#181818" points="180,132.3643,170,136.3643,180,140.3643,176,136.3643" style="stroke:#181818;stroke-width:1.0;"/><line style="stroke:#181818;stroke-width:1.0;" x1="158" x2="158" y1="491.0752" y2="511.0752"/><polygon fill="#181818" points="154,501.0752,158,511.0752,162,501.0752,158,505.0752" style="stroke:#181818;stroke-width:1.0;"/><line style="stroke:#181818;stroke-width:1.0;" x1="158" x2="158" y1="104.3643" y2="124.3643"/><polygon fill="#181818" points="154,114.3643,158,124.3643,162,114.3643,158,118.3643" style="stroke:#181818;stroke-width:1.0;"/><!--SRC=[AqWiAiaioSpFKr3AoSylY2_FBCc8DufFAafDp2wEpyzBZSz9JKmfZY_9ZyyloKWjKbAevb80WlIY_D82OlM0TO20SdfHQcgUbQCrNAGejI0riGJE1G4h9siKVZ7G_EGC1Oq8_o1D50aGI4uiJbNGK5B2b04RvMgDNTmDXxWxTd6mrqYr6xST2bInnCePrOBKl1H8KA45ha9vHcPEAXTK2IJck6e1]--></g></svg>