<?xml version="1.0" encoding="us-ascii" standalone="no"?><svg xmlns="http://www.w3.org/2000/svg" xmlns:xlink="http://www.w3.org/1999/xlink" contentStyleType="text/css" height="2043px" preserveAspectRatio="none" style="width:678px;height:2043px;background:#FFFFFF;" version="1.1" viewBox="0 0 678 2043" width="678px" zoomAndPan="magnify"><defs/><g><ellipse cx="330" cy="20" fill="#222222" rx="10" ry="10" style="stroke:#222222;stroke-width:1.0;"/><rect fill="#F1F1F1" height="33.9688" rx="12.5" ry="12.5" style="stroke:#181818;stroke-width:0.5;" width="149" x="255.5" y="50"/><text fill="#000000" font-family="sans-serif" font-size="12" lengthAdjust="spacing" textLength="129" x="265.5" y="71.1387">Input directed graph</text><rect fill="none" height="1938.1172" style="stroke:#000000;stroke-width:1.5;" width="656" x="11" y="93.9688"/><path d="M193,93.9688 L193,103.2656 L183,113.2656 L11,113.2656 " fill="none" style="stroke:#000000;stroke-width:1.5;"/><text fill="#000000" font-family="sans-serif" font-size="14" lengthAdjust="spacing" textLength="172" x="14" y="107.9639">Loop detection algorithm</text><rect fill="#F1F1F1" height="33.9688" rx="12.5" ry="12.5" style="stroke:#181818;stroke-width:0.5;" width="209" x="225.5" y="130.2656"/><text fill="#000000" font-family="sans-serif" font-size="12" lengthAdjust="spacing" textLength="189" x="235.5" y="151.4043">Get SCC components of graph</text><rect fill="#F1F1F1" height="33.9688" rx="12.5" ry="12.5" style="stroke:#181818;stroke-width:0.5;" width="224" x="218" y="228.2344"/><text fill="#000000" font-family="sans-serif" font-size="12" lengthAdjust="spacing" textLength="204" x="228" y="249.373">Input SCC component and graph</text><rect fill="none" height="390.4063" style="stroke:#000000;stroke-width:1.5;" width="367" x="146.5" y="272.2031"/><path d="M366.5,272.2031 L366.5,281.5 L356.5,291.5 L146.5,291.5 " fill="none" style="stroke:#000000;stroke-width:1.5;"/><text fill="#000000" font-family="sans-serif" font-size="14" lengthAdjust="spacing" textLength="210" x="149.5" y="286.1982">Calculate components of Loop</text><rect fill="#F1F1F1" height="33.9688" rx="12.5" ry="12.5" style="stroke:#181818;stroke-width:0.5;" width="255" x="202.5" y="308.5"/><text fill="#000000" font-family="sans-serif" font-size="12" lengthAdjust="spacing" textLength="235" x="212.5" y="329.6387">Calculate in edges of SCC component</text><rect fill="#F1F1F1" height="33.9688" rx="12.5" ry="12.5" style="stroke:#181818;stroke-width:0.5;" width="212" x="224" y="362.4688"/><text fill="#000000" font-family="sans-serif" font-size="12" lengthAdjust="spacing" textLength="192" x="234" y="383.6074">Calculate "start points" of loop</text><rect fill="#F1F1F1" height="33.9688" rx="12.5" ry="12.5" style="stroke:#181818;stroke-width:0.5;" width="265" x="197.5" y="416.4375"/><text fill="#000000" font-family="sans-serif" font-size="12" lengthAdjust="spacing" textLength="245" x="207.5" y="437.5762">Calculate out edges of SCC component</text><rect fill="none" height="136.2344" style="stroke:#000000;stroke-width:1.5;" width="347" x="156.5" y="460.4063"/><path d="M383.5,460.4063 L383.5,469.7031 L373.5,479.7031 L156.5,479.7031 " fill="none" style="stroke:#000000;stroke-width:1.5;"/><text fill="#000000" font-family="sans-serif" font-size="14" lengthAdjust="spacing" textLength="217" x="159.5" y="474.4014">Break and end point calculation</text><rect fill="#F1F1F1" height="33.9688" rx="12.5" ry="12.5" style="stroke:#181818;stroke-width:0.5;" width="327" x="166.5" y="496.7031"/><text fill="#000000" font-family="sans-serif" font-size="12" lengthAdjust="spacing" textLength="307" x="176.5" y="517.8418">Calculate "end points" and "break points" of loop</text><rect fill="#F1F1F1" height="33.9688" rx="12.5" ry="12.5" style="stroke:#181818;stroke-width:0.5;" width="249" x="205.5" y="550.6719"/><text fill="#000000" font-family="sans-serif" font-size="12" lengthAdjust="spacing" textLength="229" x="215.5" y="571.8105">Output end and break points of loop</text><rect fill="#F1F1F1" height="33.9688" rx="12.5" ry="12.5" style="stroke:#181818;stroke-width:0.5;" width="287" x="186.5" y="616.6406"/><text fill="#000000" font-family="sans-serif" font-size="12" lengthAdjust="spacing" textLength="267" x="196.5" y="637.7793">Output start, end and break points of loop</text><rect fill="none" height="887.3984" style="stroke:#000000;stroke-width:1.5;" width="618" x="21" y="672.6094"/><path d="M206,672.6094 L206,681.9063 L196,691.9063 L21,691.9063 " fill="none" style="stroke:#000000;stroke-width:1.5;"/><text fill="#000000" font-family="sans-serif" font-size="14" lengthAdjust="spacing" textLength="175" x="24" y="686.6045">Create sub graph of Loop</text><rect fill="none" height="352.1094" style="stroke:#000000;stroke-width:1.5;" width="435" x="112.5" y="701.9063"/><path d="M337.5,701.9063 L337.5,711.2031 L327.5,721.2031 L112.5,721.2031 " fill="none" style="stroke:#000000;stroke-width:1.5;"/><text fill="#000000" font-family="sans-serif" font-size="14" lengthAdjust="spacing" textLength="215" x="115.5" y="715.9014">Remove edges describing loop</text><rect fill="#F1F1F1" height="33.9688" style="stroke:#181818;stroke-width:0.5;" width="227" x="216.5" y="738.2031"/><line style="stroke:#181818;stroke-width:0.5;" x1="221.5" x2="221.5" y1="738.2031" y2="772.1719"/><line style="stroke:#181818;stroke-width:0.5;" x1="438.5" x2="438.5" y1="738.2031" y2="772.1719"/><text fill="#000000" font-family="sans-serif" font-size="12" lengthAdjust="spacing" textLength="207" x="226.5" y="759.3418">Calculate edges that create loop</text><rect fill="#F1F1F1" height="33.9688" rx="12.5" ry="12.5" style="stroke:#181818;stroke-width:0.5;" width="415" x="122.5" y="792.1719"/><text fill="#000000" font-family="sans-serif" font-size="12" lengthAdjust="spacing" textLength="395" x="132.5" y="813.3105">Copy graph and remove in + out edges of start and end points</text><rect fill="#F1F1F1" height="33.9688" rx="12.5" ry="12.5" style="stroke:#181818;stroke-width:0.5;" width="337" x="161.5" y="846.1406"/><text fill="#000000" font-family="sans-serif" font-size="12" lengthAdjust="spacing" textLength="317" x="171.5" y="867.2793">Remove edges that create loop from copied graph</text><rect fill="#F1F1F1" height="33.9688" rx="12.5" ry="12.5" style="stroke:#181818;stroke-width:0.5;" width="308" x="176" y="900.1094"/><text fill="#000000" font-family="sans-serif" font-size="12" lengthAdjust="spacing" textLength="288" x="186" y="921.248">Remove EventSets that mirror removed edges</text><rect fill="#F1F1F1" height="33.9688" rx="12.5" ry="12.5" style="stroke:#181818;stroke-width:0.5;" width="331" x="164.5" y="954.0781"/><text fill="#000000" font-family="sans-serif" font-size="12" lengthAdjust="spacing" textLength="311" x="174.5" y="975.2168">Remove out edges of break points and EventSets</text><rect fill="#F1F1F1" height="33.9688" rx="12.5" ry="12.5" style="stroke:#181818;stroke-width:0.5;" width="235" x="212.5" y="1008.0469"/><text fill="#000000" font-family="sans-serif" font-size="12" lengthAdjust="spacing" textLength="215" x="222.5" y="1029.1855">Output copied and modified graph</text><rect fill="none" height="136.2344" style="stroke:#000000;stroke-width:1.5;" width="598" x="31" y="1075.6953"/><path d="M239,1075.6953 L239,1084.9922 L229,1094.9922 L31,1094.9922 " fill="none" style="stroke:#000000;stroke-width:1.5;"/><text fill="#000000" font-family="sans-serif" font-size="14" lengthAdjust="spacing" textLength="198" x="34" y="1089.6904">Get disconnected sub graph</text><rect fill="#F1F1F1" height="33.9688" rx="12.5" ry="12.5" style="stroke:#181818;stroke-width:0.5;" width="578" x="41" y="1111.9922"/><text fill="#000000" font-family="sans-serif" font-size="12" lengthAdjust="spacing" textLength="558" x="51" y="1133.1309">Get disconnected sub graph by finding disconnected components containing loop nodes</text><rect fill="#F1F1F1" height="33.9688" rx="12.5" ry="12.5" style="stroke:#181818;stroke-width:0.5;" width="220" x="220" y="1165.9609"/><text fill="#000000" font-family="sans-serif" font-size="12" lengthAdjust="spacing" textLength="200" x="230" y="1187.0996">Output disconnected sub graph</text><rect fill="none" height="272.1094" style="stroke:#000000;stroke-width:1.5;" width="330" x="165" y="1221.9297"/><path d="M399,1221.9297 L399,1231.2266 L389,1241.2266 L165,1241.2266 " fill="none" style="stroke:#000000;stroke-width:1.5;"/><text fill="#000000" font-family="sans-serif" font-size="14" lengthAdjust="spacing" textLength="224" x="168" y="1235.9248">Add start and end Event vertices</text><rect fill="#F1F1F1" height="33.9688" rx="12.5" ry="12.5" style="stroke:#181818;stroke-width:0.5;" width="244" x="208" y="1258.2266"/><text fill="#000000" font-family="sans-serif" font-size="12" lengthAdjust="spacing" textLength="224" x="218" y="1279.3652">Add start Event vertex to sub graph</text><rect fill="#F1F1F1" height="47.9375" rx="12.5" ry="12.5" style="stroke:#181818;stroke-width:0.5;" width="310" x="175" y="1312.1953"/><text fill="#000000" font-family="sans-serif" font-size="12" lengthAdjust="spacing" textLength="223" x="185" y="1333.334">Create out EventSets of start Event</text><text fill="#000000" font-family="sans-serif" font-size="12" lengthAdjust="spacing" textLength="290" x="185" y="1347.3027">vertex using out EventSets of incoming Events</text><rect fill="#F1F1F1" height="33.9688" rx="12.5" ry="12.5" style="stroke:#181818;stroke-width:0.5;" width="238" x="211" y="1380.1328"/><text fill="#000000" font-family="sans-serif" font-size="12" lengthAdjust="spacing" textLength="218" x="221" y="1401.2715">Add end Event vertex to sub graph</text><rect fill="#F1F1F1" height="47.9375" rx="12.5" ry="12.5" style="stroke:#181818;stroke-width:0.5;" width="300" x="180" y="1434.1016"/><text fill="#000000" font-family="sans-serif" font-size="12" lengthAdjust="spacing" textLength="207" x="190" y="1455.2402">Create in EventSets of end Event</text><text fill="#000000" font-family="sans-serif" font-size="12" lengthAdjust="spacing" textLength="280" x="190" y="1469.209">vertex using in EventSets of outgoing Events</text><rect fill="#F1F1F1" height="33.9688" rx="12.5" ry="12.5" style="stroke:#181818;stroke-width:0.5;" width="207" x="226.5" y="1514.0391"/><text fill="#000000" font-family="sans-serif" font-size="12" lengthAdjust="spacing" textLength="187" x="236.5" y="1535.1777">Output final subgraph of Loop</text><rect fill="none" height="244.1719" style="stroke:#000000;stroke-width:1.5;" width="481" x="89.5" y="1570.0078"/><path d="M226.5,1570.0078 L226.5,1579.3047 L216.5,1589.3047 L89.5,1589.3047 " fill="none" style="stroke:#000000;stroke-width:1.5;"/><text fill="#000000" font-family="sans-serif" font-size="14" lengthAdjust="spacing" textLength="127" x="92.5" y="1584.0029">Create Loop Event</text><rect fill="#F1F1F1" height="33.9688" rx="12.5" ry="12.5" style="stroke:#181818;stroke-width:0.5;" width="268" x="196" y="1606.3047"/><text fill="#000000" font-family="sans-serif" font-size="12" lengthAdjust="spacing" textLength="248" x="206" y="1627.4434">Create LoopEvent with subgraph added</text><rect fill="#F1F1F1" height="33.9688" rx="12.5" ry="12.5" style="stroke:#181818;stroke-width:0.5;" width="272" x="194" y="1660.2734"/><text fill="#000000" font-family="sans-serif" font-size="12" lengthAdjust="spacing" textLength="252" x="204" y="1681.4121">Update in + out EventSets of LoopEvent</text><rect fill="#F1F1F1" height="33.9688" rx="12.5" ry="12.5" style="stroke:#181818;stroke-width:0.5;" width="461" x="99.5" y="1714.2422"/><text fill="#000000" font-family="sans-serif" font-size="12" lengthAdjust="spacing" textLength="441" x="109.5" y="1735.3809">Update in + out EventSets with start and end events within LoopEvent</text><rect fill="#F1F1F1" height="33.9688" rx="12.5" ry="12.5" style="stroke:#181818;stroke-width:0.5;" width="132" x="264" y="1768.2109"/><text fill="#000000" font-family="sans-serif" font-size="12" lengthAdjust="spacing" textLength="112" x="274" y="1789.3496">Output LoopEvent</text><rect fill="#F1F1F1" height="33.9688" style="stroke:#181818;stroke-width:0.5;" width="388" x="136" y="1834.1797"/><line style="stroke:#181818;stroke-width:0.5;" x1="141" x2="141" y1="1834.1797" y2="1868.1484"/><line style="stroke:#181818;stroke-width:0.5;" x1="519" x2="519" y1="1834.1797" y2="1868.1484"/><text fill="#000000" font-family="sans-serif" font-size="12" lengthAdjust="spacing" textLength="368" x="146" y="1855.3184">Run "Loop detection algorithm" on sub graph of LoopEvent</text><rect fill="#F1F1F1" height="33.9688" style="stroke:#181818;stroke-width:0.5;" width="352" x="154" y="1888.1484"/><line style="stroke:#181818;stroke-width:0.5;" x1="159" x2="159" y1="1888.1484" y2="1922.1172"/><line style="stroke:#181818;stroke-width:0.5;" x1="501" x2="501" y1="1888.1484" y2="1922.1172"/><text fill="#000000" font-family="sans-serif" font-size="12" lengthAdjust="spacing" textLength="332" x="164" y="1909.2871">Recalculate graph from updated EventSets of Events</text><polygon fill="#F1F1F1" points="330,184.2344,342,196.2344,330,208.2344,318,196.2344,330,184.2344" style="stroke:#181818;stroke-width:0.5;"/><polygon fill="#F1F1F1" points="239,1942.1172,421,1942.1172,433,1954.1172,421,1966.1172,239,1966.1172,227,1954.1172,239,1942.1172" style="stroke:#181818;stroke-width:0.5;"/><text fill="#000000" font-family="sans-serif" font-size="11" lengthAdjust="spacing" textLength="182" x="239" y="1957.9253">SCC components are not empty</text><rect fill="#F1F1F1" height="33.9688" rx="12.5" ry="12.5" style="stroke:#181818;stroke-width:0.5;" width="270" x="195" y="1986.1172"/><text fill="#000000" font-family="sans-serif" font-size="12" lengthAdjust="spacing" textLength="250" x="205" y="2007.2559">Output Graph updated with LoopEvent's</text><line style="stroke:#181818;stroke-width:1.0;" x1="330" x2="330" y1="30" y2="50"/><polygon fill="#181818" points="326,40,330,50,334,40,330,44" style="stroke:#181818;stroke-width:1.0;"/><line style="stroke:#181818;stroke-width:1.0;" x1="330" x2="330" y1="342.4688" y2="362.4688"/><polygon fill="#181818" points="326,352.4688,330,362.4688,334,352.4688,330,356.4688" style="stroke:#181818;stroke-width:1.0;"/><line style="stroke:#181818;stroke-width:1.0;" x1="330" x2="330" y1="396.4375" y2="416.4375"/><polygon fill="#181818" points="326,406.4375,330,416.4375,334,406.4375,330,410.4375" style="stroke:#181818;stroke-width:1.0;"/><line style="stroke:#181818;stroke-width:1.0;" x1="330" x2="330" y1="530.6719" y2="550.6719"/><polygon fill="#181818" points="326,540.6719,330,550.6719,334,540.6719,330,544.6719" style="stroke:#181818;stroke-width:1.0;"/><line style="stroke:#181818;stroke-width:1.0;" x1="330" x2="330" y1="450.4063" y2="496.7031"/><polygon fill="#181818" points="326,486.7031,330,496.7031,334,486.7031,330,490.7031" style="stroke:#181818;stroke-width:1.0;"/><line style="stroke:#181818;stroke-width:1.0;" x1="330" x2="330" y1="584.6406" y2="616.6406"/><polygon fill="#181818" points="326,606.6406,330,616.6406,334,606.6406,330,610.6406" style="stroke:#181818;stroke-width:1.0;"/><line style="stroke:#181818;stroke-width:1.0;" x1="330" x2="330" y1="262.2031" y2="308.5"/><polygon fill="#181818" points="326,298.5,330,308.5,334,298.5,330,302.5" style="stroke:#181818;stroke-width:1.0;"/><line style="stroke:#181818;stroke-width:1.0;" x1="330" x2="330" y1="772.1719" y2="792.1719"/><polygon fill="#181818" points="326,782.1719,330,792.1719,334,782.1719,330,786.1719" style="stroke:#181818;stroke-width:1.0;"/><line style="stroke:#181818;stroke-width:1.0;" x1="330" x2="330" y1="826.1406" y2="846.1406"/><polygon fill="#181818" points="326,836.1406,330,846.1406,334,836.1406,330,840.1406" style="stroke:#181818;stroke-width:1.0;"/><line style="stroke:#181818;stroke-width:1.0;" x1="330" x2="330" y1="880.1094" y2="900.1094"/><polygon fill="#181818" points="326,890.1094,330,900.1094,334,890.1094,330,894.1094" style="stroke:#181818;stroke-width:1.0;"/><line style="stroke:#181818;stroke-width:1.0;" x1="330" x2="330" y1="934.0781" y2="954.0781"/><polygon fill="#181818" points="326,944.0781,330,954.0781,334,944.0781,330,948.0781" style="stroke:#181818;stroke-width:1.0;"/><line style="stroke:#181818;stroke-width:1.0;" x1="330" x2="330" y1="988.0469" y2="1008.0469"/><polygon fill="#181818" points="326,998.0469,330,1008.0469,334,998.0469,330,1002.0469" style="stroke:#181818;stroke-width:1.0;"/><line style="stroke:#181818;stroke-width:1.0;" x1="330" x2="330" y1="1145.9609" y2="1165.9609"/><polygon fill="#181818" points="326,1155.9609,330,1165.9609,334,1155.9609,330,1159.9609" style="stroke:#181818;stroke-width:1.0;"/><line style="stroke:#181818;stroke-width:1.0;" x1="330" x2="330" y1="1042.0156" y2="1111.9922"/><polygon fill="#181818" points="326,1101.9922,330,1111.9922,334,1101.9922,330,1105.9922" style="stroke:#181818;stroke-width:1.0;"/><line style="stroke:#181818;stroke-width:1.0;" x1="330" x2="330" y1="1292.1953" y2="1312.1953"/><polygon fill="#181818" points="326,1302.1953,330,1312.1953,334,1302.1953,330,1306.1953" style="stroke:#181818;stroke-width:1.0;"/><line style="stroke:#181818;stroke-width:1.0;" x1="330" x2="330" y1="1360.1328" y2="1380.1328"/><polygon fill="#181818" points="326,1370.1328,330,1380.1328,334,1370.1328,330,1374.1328" style="stroke:#181818;stroke-width:1.0;"/><line style="stroke:#181818;stroke-width:1.0;" x1="330" x2="330" y1="1414.1016" y2="1434.1016"/><polygon fill="#181818" points="326,1424.1016,330,1434.1016,334,1424.1016,330,1428.1016" style="stroke:#181818;stroke-width:1.0;"/><line style="stroke:#181818;stroke-width:1.0;" x1="330" x2="330" y1="1199.9297" y2="1258.2266"/><polygon fill="#181818" points="326,1248.2266,330,1258.2266,334,1248.2266,330,1252.2266" style="stroke:#181818;stroke-width:1.0;"/><line style="stroke:#181818;stroke-width:1.0;" x1="330" x2="330" y1="1482.0391" y2="1514.0391"/><polygon fill="#181818" points="326,1504.0391,330,1514.0391,334,1504.0391,330,1508.0391" style="stroke:#181818;stroke-width:1.0;"/><line style="stroke:#181818;stroke-width:1.0;" x1="330" x2="330" y1="650.6094" y2="738.2031"/><polygon fill="#181818" points="326,728.2031,330,738.2031,334,728.2031,330,732.2031" style="stroke:#181818;stroke-width:1.0;"/><line style="stroke:#181818;stroke-width:1.0;" x1="330" x2="330" y1="1640.2734" y2="1660.2734"/><polygon fill="#181818" points="326,1650.2734,330,1660.2734,334,1650.2734,330,1654.2734" style="stroke:#181818;stroke-width:1.0;"/><line style="stroke:#181818;stroke-width:1.0;" x1="330" x2="330" y1="1694.2422" y2="1714.2422"/><polygon fill="#181818" points="326,1704.2422,330,1714.2422,334,1704.2422,330,1708.2422" style="stroke:#181818;stroke-width:1.0;"/><line style="stroke:#181818;stroke-width:1.0;" x1="330" x2="330" y1="1748.2109" y2="1768.2109"/><polygon fill="#181818" points="326,1758.2109,330,1768.2109,334,1758.2109,330,1762.2109" style="stroke:#181818;stroke-width:1.0;"/><line style="stroke:#181818;stroke-width:1.0;" x1="330" x2="330" y1="1548.0078" y2="1606.3047"/><polygon fill="#181818" points="326,1596.3047,330,1606.3047,334,1596.3047,330,1600.3047" style="stroke:#181818;stroke-width:1.0;"/><line style="stroke:#181818;stroke-width:1.0;" x1="330" x2="330" y1="1802.1797" y2="1834.1797"/><polygon fill="#181818" points="326,1824.1797,330,1834.1797,334,1824.1797,330,1828.1797" style="stroke:#181818;stroke-width:1.0;"/><line style="stroke:#181818;stroke-width:1.0;" x1="330" x2="330" y1="1868.1484" y2="1888.1484"/><polygon fill="#181818" points="326,1878.1484,330,1888.1484,334,1878.1484,330,1882.1484" style="stroke:#181818;stroke-width:1.0;"/><line style="stroke:#181818;stroke-width:1.0;" x1="330" x2="330" y1="208.2344" y2="228.2344"/><polygon fill="#181818" points="326,218.2344,330,228.2344,334,218.2344,330,222.2344" style="stroke:#181818;stroke-width:1.0;"/><line style="stroke:#181818;stroke-width:1.0;" x1="433" x2="651" y1="1954.1172" y2="1954.1172"/><polygon fill="#181818" points="647,1074.0156,651,1064.0156,655,1074.0156,651,1070.0156" style="stroke:#181818;stroke-width:1.0;"/><line style="stroke:#181818;stroke-width:1.0;" x1="651" x2="651" y1="196.2344" y2="1954.1172"/><line style="stroke:#181818;stroke-width:1.0;" x1="651" x2="342" y1="196.2344" y2="196.2344"/><polygon fill="#181818" points="352,192.2344,342,196.2344,352,200.2344,348,196.2344" style="stroke:#181818;stroke-width:1.0;"/><line style="stroke:#181818;stroke-width:1.0;" x1="330" x2="330" y1="1922.1172" y2="1942.1172"/><polygon fill="#181818" points="326,1932.1172,330,1942.1172,334,1932.1172,330,1936.1172" style="stroke:#181818;stroke-width:1.0;"/><line style="stroke:#181818;stroke-width:1.0;" x1="330" x2="330" y1="164.2344" y2="184.2344"/><polygon fill="#181818" points="326,174.2344,330,184.2344,334,174.2344,330,178.2344" style="stroke:#181818;stroke-width:1.0;"/><line style="stroke:#181818;stroke-width:1.0;" x1="330" x2="330" y1="1966.1172" y2="1986.1172"/><polygon fill="#181818" points="326,1976.1172,330,1986.1172,334,1976.1172,330,1980.1172" style="stroke:#181818;stroke-width:1.0;"/><line style="stroke:#181818;stroke-width:1.0;" x1="330" x2="330" y1="83.9688" y2="130.2656"/><polygon fill="#181818" points="326,120.2656,330,130.2656,334,120.2656,330,124.2656" style="stroke:#181818;stroke-width:1.0;"/><!--SRC=[bLR1Rjim3BtdAmXVjg7xWlQq1KCnOC205hljebXC8ioM15bE5opvzr6KQrjAv3O50jGst-CZ-KmP0A3pmlaL_GFttxNjFKZbiFOeOUU4tJ_m8qinoYkZeVfXZ0M9dcB2jMXsnYc_Rolunw7Cz8WUdjThg4rhZKRjEp3REM7uSsXH-F5o9Y61Wj0oXsQQrgAf-qPup186hNDTOve9e3IWt2679saVbb0LTmsiKPIf2jY6KYr23DNrtaopqhuw57-u1KW_JWZrG4e1rwhBjOv0KXg8gWrplYcUUNxsFamaS0Ji75f6dbSb7kxRvnlepiMP4vIgw_fDDCVIl6Um9spD0OT9IEngfpPAxpZpEvePSNulQ0fHG02U2Z1ZZuEuKAoBgSbnTwaRefcI6NU5SIJoSncmTQObNrc5Lz-OdENRWTptZ7vWQfLpnWqoPSonJ91KaSmo53FIBrjhq1iGhP5gko3-l3JPi7EawcgZTTnVepMASor3O7E4hT8oM2E9c2qOkkc5qg_k0Mqalb7hzMGt5lf5oimot6au88NKs1NBdO0J0F-2DqjIefEZoSAy9zECpkLRl_L0rtUX8nUXIbFhmXE-M-fJa9XMT9D0UhUIf2DLfYwF8xKxioIklD789Q89-f8jTDiIupELKry_hQQes9SNEd2db49Ab5VEdbzM3Zsvknp7I7OJC2PEl8VSCNv2W2NQeM65aBH7zq_zuhS6NLriVYOzPJHOZxix1lEExBb2cROaplwKVP_0orur21-ppndXa5vuMd-jzSTFgxp8HyxrceRRDahyCFZh_1y0]--></g></svg>