<?xml version="1.0" encoding="us-ascii" standalone="no"?><svg xmlns="http://www.w3.org/2000/svg" xmlns:xlink="http://www.w3.org/1999/xlink" contentStyleType="text/css" height="1419px" preserveAspectRatio="none" style="width:428px;height:1419px;background:#FFFFFF;" version="1.1" viewBox="0 0 428 1419" width="428px" zoomAndPan="magnify"><defs/><g><ellipse cx="209" cy="20" fill="#222222" rx="10" ry="10" style="stroke:#222222;stroke-width:1.0;"/><rect fill="#F1F1F1" height="33.9688" rx="12.5" ry="12.5" style="stroke:#181818;stroke-width:0.5;" width="149" x="134.5" y="50"/><text fill="#000000" font-family="sans-serif" font-size="12" lengthAdjust="spacing" textLength="129" x="144.5" y="71.1387">Input directed graph</text><rect fill="#F1F1F1" height="33.9688" rx="12.5" ry="12.5" style="stroke:#181818;stroke-width:0.5;" width="324" x="47" y="103.9688"/><text fill="#000000" font-family="sans-serif" font-size="12" lengthAdjust="spacing" textLength="304" x="57" y="125.1074">Initalise dictionary of LoopEvents and subgraphs</text><rect fill="none" height="1193.0674" style="stroke:#000000;stroke-width:1.5;" width="392" x="25" y="147.9375"/><path d="M207,147.9375 L207,157.2344 L197,167.2344 L25,167.2344 " fill="none" style="stroke:#000000;stroke-width:1.5;"/><text fill="#000000" font-family="sans-serif" font-size="14" lengthAdjust="spacing" textLength="172" x="28" y="161.9326">Loop detection algorithm</text><rect fill="#F1F1F1" height="33.9688" rx="12.5" ry="12.5" style="stroke:#181818;stroke-width:0.5;" width="209" x="104.5" y="184.2344"/><text fill="#000000" font-family="sans-serif" font-size="12" lengthAdjust="spacing" textLength="189" x="114.5" y="205.373">Get SCC components of graph</text><rect fill="#F1F1F1" height="33.9688" rx="12.5" ry="12.5" style="stroke:#181818;stroke-width:0.5;" width="145" x="136.5" y="282.2031"/><text fill="#000000" font-family="sans-serif" font-size="12" lengthAdjust="spacing" textLength="125" x="146.5" y="303.3418">Get SCC component</text><rect fill="none" height="298.1406" style="stroke:#000000;stroke-width:1.5;" width="348" x="35" y="326.9736"/><path d="M373,326.9736 L373,336.2705 L363,346.2705 L35,346.2705 " fill="none" style="stroke:#000000;stroke-width:1.5;"/><text fill="#000000" font-family="sans-serif" font-size="14" lengthAdjust="spacing" textLength="328" x="38" y="340.9688">Replace SCC component with LoopEvent vertex</text><rect fill="#F1F1F1" height="33.9688" rx="12.5" ry="12.5" style="stroke:#181818;stroke-width:0.5;" width="255" x="81.5" y="363.2705"/><text fill="#000000" font-family="sans-serif" font-size="12" lengthAdjust="spacing" textLength="235" x="91.5" y="384.4092">Calculate in edges of SCC component</text><rect fill="#F1F1F1" height="33.9688" rx="12.5" ry="12.5" style="stroke:#181818;stroke-width:0.5;" width="265" x="76.5" y="417.2393"/><text fill="#000000" font-family="sans-serif" font-size="12" lengthAdjust="spacing" textLength="245" x="86.5" y="438.3779">Calculate out edges of SCC component</text><rect fill="#F1F1F1" height="33.9688" rx="12.5" ry="12.5" style="stroke:#181818;stroke-width:0.5;" width="173" x="122.5" y="471.208"/><text fill="#000000" font-family="sans-serif" font-size="12" lengthAdjust="spacing" textLength="153" x="132.5" y="492.3467">Create LoopEvent vertex</text><rect fill="#F1F1F1" height="33.9688" rx="12.5" ry="12.5" style="stroke:#181818;stroke-width:0.5;" width="314" x="52" y="525.1768"/><text fill="#000000" font-family="sans-serif" font-size="12" lengthAdjust="spacing" textLength="294" x="62" y="546.3154">Update in + out EventSets of LoopEvent vertex</text><rect fill="#F1F1F1" height="33.9688" rx="12.5" ry="12.5" style="stroke:#181818;stroke-width:0.5;" width="327" x="45.5" y="579.1455"/><text fill="#000000" font-family="sans-serif" font-size="12" lengthAdjust="spacing" textLength="307" x="55.5" y="600.2842">Update in + out EventSets with LoopEvent vertex</text><rect fill="none" height="406.0781" style="stroke:#000000;stroke-width:1.5;" width="305" x="56.5" y="635.1143"/><path d="M219.5,635.1143 L219.5,644.4111 L209.5,654.4111 L56.5,654.4111 " fill="none" style="stroke:#000000;stroke-width:1.5;"/><text fill="#000000" font-family="sans-serif" font-size="14" lengthAdjust="spacing" textLength="153" x="59.5" y="649.1094">Create SCC sub graph</text><rect fill="#F1F1F1" height="33.9688" rx="12.5" ry="12.5" style="stroke:#181818;stroke-width:0.5;" width="212" x="103" y="671.4111"/><text fill="#000000" font-family="sans-serif" font-size="12" lengthAdjust="spacing" textLength="192" x="113" y="692.5498">Calculate "start points" of loop</text><rect fill="#F1F1F1" height="33.9688" rx="12.5" ry="12.5" style="stroke:#181818;stroke-width:0.5;" width="206" x="106" y="725.3799"/><text fill="#000000" font-family="sans-serif" font-size="12" lengthAdjust="spacing" textLength="186" x="116" y="746.5186">Calculate "end points" of loop</text><rect fill="#F1F1F1" height="33.9688" rx="12.5" ry="12.5" style="stroke:#181818;stroke-width:0.5;" width="218" x="100" y="779.3486"/><text fill="#000000" font-family="sans-serif" font-size="12" lengthAdjust="spacing" textLength="198" x="110" y="800.4873">Remove edges that create loop</text><rect fill="#F1F1F1" height="33.9688" rx="12.5" ry="12.5" style="stroke:#181818;stroke-width:0.5;" width="272" x="73" y="833.3174"/><text fill="#000000" font-family="sans-serif" font-size="12" lengthAdjust="spacing" textLength="252" x="83" y="854.4561">Add start Event vertex to SCC sub graph</text><rect fill="#F1F1F1" height="33.9688" rx="12.5" ry="12.5" style="stroke:#181818;stroke-width:0.5;" width="266" x="76" y="887.2861"/><text fill="#000000" font-family="sans-serif" font-size="12" lengthAdjust="spacing" textLength="246" x="86" y="908.4248">Add end Event vertex to SCC sub graph</text><rect fill="#F1F1F1" height="33.9688" rx="12.5" ry="12.5" style="stroke:#181818;stroke-width:0.5;" width="285" x="66.5" y="941.2549"/><text fill="#000000" font-family="sans-serif" font-size="12" lengthAdjust="spacing" textLength="265" x="76.5" y="962.3936">Create out EventSets of start Event vertex</text><rect fill="#F1F1F1" height="33.9688" rx="12.5" ry="12.5" style="stroke:#181818;stroke-width:0.5;" width="269" x="74.5" y="995.2236"/><text fill="#000000" font-family="sans-serif" font-size="12" lengthAdjust="spacing" textLength="249" x="84.5" y="1016.3623">Create in EventSets of end Event vertex</text><rect fill="#F1F1F1" height="47.9375" rx="12.5" ry="12.5" style="stroke:#181818;stroke-width:0.5;" width="222" x="98" y="1061.1924"/><text fill="#000000" font-family="sans-serif" font-size="12" lengthAdjust="spacing" textLength="202" x="108" y="1082.3311">Add SCC sub graph to dictionary</text><text fill="#000000" font-family="sans-serif" font-size="12" lengthAdjust="spacing" textLength="173" x="108" y="1096.2998">of LoopEvent and subgraph</text><rect fill="#F1F1F1" height="33.9688" rx="12.5" ry="12.5" style="stroke:#181818;stroke-width:0.5;" width="287" x="65.5" y="1129.1299"/><text fill="#000000" font-family="sans-serif" font-size="12" lengthAdjust="spacing" textLength="267" x="75.5" y="1150.2686">Run SCC detection algorithm on sub graph</text><rect fill="#F1F1F1" height="47.9375" rx="12.5" ry="12.5" style="stroke:#181818;stroke-width:0.5;" width="287" x="65.5" y="1183.0986"/><text fill="#000000" font-family="sans-serif" font-size="12" lengthAdjust="spacing" textLength="267" x="75.5" y="1204.2373">Update dictionary of LoopEvents and tuple</text><text fill="#000000" font-family="sans-serif" font-size="12" lengthAdjust="spacing" textLength="264" x="75.5" y="1218.2061">of subgraphs and recursive sub dictionary</text><rect fill="#F1F1F1" height="33.9688" rx="12.5" ry="12.5" style="stroke:#181818;stroke-width:0.5;" width="276" x="71" y="1251.0361"/><text fill="#000000" font-family="sans-serif" font-size="12" lengthAdjust="spacing" textLength="256" x="81" y="1272.1748">Recalculate graph from updated vertices</text><polygon fill="#F1F1F1" points="209,238.2031,221,250.2031,209,262.2031,197,250.2031,209,238.2031" style="stroke:#181818;stroke-width:0.5;"/><polygon fill="#F1F1F1" points="118,1305.0049,300,1305.0049,312,1317.0049,300,1329.0049,118,1329.0049,106,1317.0049,118,1305.0049" style="stroke:#181818;stroke-width:0.5;"/><text fill="#000000" font-family="sans-serif" font-size="11" lengthAdjust="spacing" textLength="182" x="118" y="1320.813">SCC components are not empty</text><rect fill="#F1F1F1" height="47.9375" rx="12.5" ry="12.5" style="stroke:#181818;stroke-width:0.5;" width="396" x="11" y="1361.0049"/><text fill="#000000" font-family="sans-serif" font-size="12" lengthAdjust="spacing" textLength="376" x="21" y="1382.1436">Output tuple of graph with recursive dictionary of LoopEvent</text><text fill="#000000" font-family="sans-serif" font-size="12" lengthAdjust="spacing" textLength="310" x="21" y="1396.1123">to tuple of subgraph and recursive sub dictionary</text><line style="stroke:#181818;stroke-width:1.0;" x1="209" x2="209" y1="30" y2="50"/><polygon fill="#181818" points="205,40,209,50,213,40,209,44" style="stroke:#181818;stroke-width:1.0;"/><line style="stroke:#181818;stroke-width:1.0;" x1="209" x2="209" y1="83.9688" y2="103.9688"/><polygon fill="#181818" points="205,93.9688,209,103.9688,213,93.9688,209,97.9688" style="stroke:#181818;stroke-width:1.0;"/><line style="stroke:#181818;stroke-width:1.0;" x1="209" x2="209" y1="397.2393" y2="417.2393"/><polygon fill="#181818" points="205,407.2393,209,417.2393,213,407.2393,209,411.2393" style="stroke:#181818;stroke-width:1.0;"/><line style="stroke:#181818;stroke-width:1.0;" x1="209" x2="209" y1="451.208" y2="471.208"/><polygon fill="#181818" points="205,461.208,209,471.208,213,461.208,209,465.208" style="stroke:#181818;stroke-width:1.0;"/><line style="stroke:#181818;stroke-width:1.0;" x1="209" x2="209" y1="505.1768" y2="525.1768"/><polygon fill="#181818" points="205,515.1768,209,525.1768,213,515.1768,209,519.1768" style="stroke:#181818;stroke-width:1.0;"/><line style="stroke:#181818;stroke-width:1.0;" x1="209" x2="209" y1="559.1455" y2="579.1455"/><polygon fill="#181818" points="205,569.1455,209,579.1455,213,569.1455,209,573.1455" style="stroke:#181818;stroke-width:1.0;"/><line style="stroke:#181818;stroke-width:1.0;" x1="209" x2="209" y1="316.1719" y2="363.2705"/><polygon fill="#181818" points="205,353.2705,209,363.2705,213,353.2705,209,357.2705" style="stroke:#181818;stroke-width:1.0;"/><line style="stroke:#181818;stroke-width:1.0;" x1="209" x2="209" y1="705.3799" y2="725.3799"/><polygon fill="#181818" points="205,715.3799,209,725.3799,213,715.3799,209,719.3799" style="stroke:#181818;stroke-width:1.0;"/><line style="stroke:#181818;stroke-width:1.0;" x1="209" x2="209" y1="759.3486" y2="779.3486"/><polygon fill="#181818" points="205,769.3486,209,779.3486,213,769.3486,209,773.3486" style="stroke:#181818;stroke-width:1.0;"/><line style="stroke:#181818;stroke-width:1.0;" x1="209" x2="209" y1="813.3174" y2="833.3174"/><polygon fill="#181818" points="205,823.3174,209,833.3174,213,823.3174,209,827.3174" style="stroke:#181818;stroke-width:1.0;"/><line style="stroke:#181818;stroke-width:1.0;" x1="209" x2="209" y1="867.2861" y2="887.2861"/><polygon fill="#181818" points="205,877.2861,209,887.2861,213,877.2861,209,881.2861" style="stroke:#181818;stroke-width:1.0;"/><line style="stroke:#181818;stroke-width:1.0;" x1="209" x2="209" y1="921.2549" y2="941.2549"/><polygon fill="#181818" points="205,931.2549,209,941.2549,213,931.2549,209,935.2549" style="stroke:#181818;stroke-width:1.0;"/><line style="stroke:#181818;stroke-width:1.0;" x1="209" x2="209" y1="975.2236" y2="995.2236"/><polygon fill="#181818" points="205,985.2236,209,995.2236,213,985.2236,209,989.2236" style="stroke:#181818;stroke-width:1.0;"/><line style="stroke:#181818;stroke-width:1.0;" x1="209" x2="209" y1="613.1143" y2="671.4111"/><polygon fill="#181818" points="205,661.4111,209,671.4111,213,661.4111,209,665.4111" style="stroke:#181818;stroke-width:1.0;"/><line style="stroke:#181818;stroke-width:1.0;" x1="209" x2="209" y1="1029.1924" y2="1061.1924"/><polygon fill="#181818" points="205,1051.1924,209,1061.1924,213,1051.1924,209,1055.1924" style="stroke:#181818;stroke-width:1.0;"/><line style="stroke:#181818;stroke-width:1.0;" x1="209" x2="209" y1="1109.1299" y2="1129.1299"/><polygon fill="#181818" points="205,1119.1299,209,1129.1299,213,1119.1299,209,1123.1299" style="stroke:#181818;stroke-width:1.0;"/><line style="stroke:#181818;stroke-width:1.0;" x1="209" x2="209" y1="1163.0986" y2="1183.0986"/><polygon fill="#181818" points="205,1173.0986,209,1183.0986,213,1173.0986,209,1177.0986" style="stroke:#181818;stroke-width:1.0;"/><line style="stroke:#181818;stroke-width:1.0;" x1="209" x2="209" y1="1231.0361" y2="1251.0361"/><polygon fill="#181818" points="205,1241.0361,209,1251.0361,213,1241.0361,209,1245.0361" style="stroke:#181818;stroke-width:1.0;"/><line style="stroke:#181818;stroke-width:1.0;" x1="209" x2="209" y1="262.2031" y2="282.2031"/><polygon fill="#181818" points="205,272.2031,209,282.2031,213,272.2031,209,276.2031" style="stroke:#181818;stroke-width:1.0;"/><line style="stroke:#181818;stroke-width:1.0;" x1="312" x2="395" y1="1317.0049" y2="1317.0049"/><polygon fill="#181818" points="391,784.0049,395,774.0049,399,784.0049,395,780.0049" style="stroke:#181818;stroke-width:1.0;"/><line style="stroke:#181818;stroke-width:1.0;" x1="395" x2="395" y1="250.2031" y2="1317.0049"/><line style="stroke:#181818;stroke-width:1.0;" x1="395" x2="221" y1="250.2031" y2="250.2031"/><polygon fill="#181818" points="231,246.2031,221,250.2031,231,254.2031,227,250.2031" style="stroke:#181818;stroke-width:1.0;"/><line style="stroke:#181818;stroke-width:1.0;" x1="209" x2="209" y1="1285.0049" y2="1305.0049"/><polygon fill="#181818" points="205,1295.0049,209,1305.0049,213,1295.0049,209,1299.0049" style="stroke:#181818;stroke-width:1.0;"/><line style="stroke:#181818;stroke-width:1.0;" x1="209" x2="209" y1="218.2031" y2="238.2031"/><polygon fill="#181818" points="205,228.2031,209,238.2031,213,228.2031,209,232.2031" style="stroke:#181818;stroke-width:1.0;"/><line style="stroke:#181818;stroke-width:1.0;" x1="209" x2="209" y1="137.9375" y2="184.2344"/><polygon fill="#181818" points="205,174.2344,209,184.2344,213,174.2344,209,178.2344" style="stroke:#181818;stroke-width:1.0;"/><line style="stroke:#181818;stroke-width:1.0;" x1="209" x2="209" y1="1329.0049" y2="1361.0049"/><polygon fill="#181818" points="205,1351.0049,209,1361.0049,213,1351.0049,209,1355.0049" style="stroke:#181818;stroke-width:1.0;"/><!--SRC=[fLJBQiCm4BpdAnQVMle7oQc4KWg5Ga9lkQZI9XR8af1NIKFflrUI7RzYEotroP9sTcTd7m009J57Y_03onTjFO6G3ZcXW8DZDbzTdYGn9KiCpvoaqSoTmUpXrHZxT4HD9J0jeFGV2LLMC1jSosWDMJG4WOG93KmTZ9EK5nby9TCKvHa9jkirS5DOevFN4AF38tuEBJ9gZkF0LU-zmsE3LZ6EVMiu1IfjBd14H_ZPfTP4MZF5lMA483MWE62YE1DxW391uT_374RCaDY8vRiLDQU752APRx4Iy5_uKMdw7hwdnAxvnpH3PrI5lA5gbleHh96X-bbahqBiMKap39rt6x31mXon5fzoHi0hUXFsZq9Kmm7Tp85CFvy9PEJqLrmjrrNzhbbCWqC5UzWXZxdA9U8zaf5rE_0xtMkcxi3ttIutNYT78mCFuJ0XmgKBPrSCUQimCMcMJReFIykxKeOAH- -jYo4pv4tZL2dkdId0fyWYYIGvbiDr0wTSAeIxmNPY3a6RCD65fVFzefLq-UOfBjF4jbbYrJ2rJ2SItUaWUuEyf3cVvGy0]--></g></svg>