<?xml version="1.0" encoding="us-ascii" standalone="no"?><svg xmlns="http://www.w3.org/2000/svg" xmlns:xlink="http://www.w3.org/1999/xlink" contentStyleType="text/css" height="2259px" preserveAspectRatio="none" style="width:678px;height:2259px;background:#FFFFFF;" version="1.1" viewBox="0 0 678 2259" width="678px" zoomAndPan="magnify"><defs/><g><ellipse cx="330" cy="20" fill="#222222" rx="10" ry="10" style="stroke:#222222;stroke-width:1.0;"/><rect fill="#F1F1F1" height="33.9688" rx="12.5" ry="12.5" style="stroke:#181818;stroke-width:0.5;" width="149" x="255.5" y="50"/><text fill="#000000" font-family="sans-serif" font-size="12" lengthAdjust="spacing" textLength="129" x="265.5" y="71.1387">Input directed graph</text><rect fill="none" height="2154.5781" style="stroke:#000000;stroke-width:1.5;" width="656" x="11" y="93.9688"/><path d="M193,93.9688 L193,103.2656 L183,113.2656 L11,113.2656 " fill="none" style="stroke:#000000;stroke-width:1.5;"/><text fill="#000000" font-family="sans-serif" font-size="14" lengthAdjust="spacing" textLength="172" x="14" y="107.9639">Loop detection algorithm</text><rect fill="#F1F1F1" height="33.9688" rx="12.5" ry="12.5" style="stroke:#181818;stroke-width:0.5;" width="209" x="225.5" y="130.2656"/><text fill="#000000" font-family="sans-serif" font-size="12" lengthAdjust="spacing" textLength="189" x="235.5" y="151.4043">Get SCC components of graph</text><rect fill="#F1F1F1" height="33.9688" rx="12.5" ry="12.5" style="stroke:#181818;stroke-width:0.5;" width="224" x="218" y="228.2344"/><text fill="#000000" font-family="sans-serif" font-size="12" lengthAdjust="spacing" textLength="204" x="228" y="249.373">Input SCC component and graph</text><rect fill="none" height="526.2813" style="stroke:#000000;stroke-width:1.5;" width="367" x="146.5" y="272.2031"/><path d="M366.5,272.2031 L366.5,281.5 L356.5,291.5 L146.5,291.5 " fill="none" style="stroke:#000000;stroke-width:1.5;"/><text fill="#000000" font-family="sans-serif" font-size="14" lengthAdjust="spacing" textLength="210" x="149.5" y="286.1982">Calculate components of Loop</text><rect fill="#F1F1F1" height="33.9688" rx="12.5" ry="12.5" style="stroke:#181818;stroke-width:0.5;" width="255" x="202.5" y="308.5"/><text fill="#000000" font-family="sans-serif" font-size="12" lengthAdjust="spacing" textLength="235" x="212.5" y="329.6387">Calculate in edges of SCC component</text><rect fill="#F1F1F1" height="33.9688" rx="12.5" ry="12.5" style="stroke:#181818;stroke-width:0.5;" width="212" x="224" y="362.4688"/><text fill="#000000" font-family="sans-serif" font-size="12" lengthAdjust="spacing" textLength="192" x="234" y="383.6074">Calculate "start points" of loop</text><rect fill="#F1F1F1" height="33.9688" rx="12.5" ry="12.5" style="stroke:#181818;stroke-width:0.5;" width="265" x="197.5" y="416.4375"/><text fill="#000000" font-family="sans-serif" font-size="12" lengthAdjust="spacing" textLength="245" x="207.5" y="437.5762">Calculate out edges of SCC component</text><rect fill="#F1F1F1" height="33.9688" rx="12.5" ry="12.5" style="stroke:#181818;stroke-width:0.5;" width="272" x="194" y="470.4063"/><text fill="#000000" font-family="sans-serif" font-size="12" lengthAdjust="spacing" textLength="252" x="204" y="491.5449">Input start points and out edges of loop</text><rect fill="none" height="204.1719" style="stroke:#000000;stroke-width:1.5;" width="347" x="156.5" y="514.375"/><path d="M383.5,514.375 L383.5,523.6719 L373.5,533.6719 L156.5,533.6719 " fill="none" style="stroke:#000000;stroke-width:1.5;"/><text fill="#000000" font-family="sans-serif" font-size="14" lengthAdjust="spacing" textLength="217" x="159.5" y="528.3701">Break and end point calculation</text><rect fill="#F1F1F1" height="33.9688" rx="12.5" ry="12.5" style="stroke:#181818;stroke-width:0.5;" width="227" x="216.5" y="550.6719"/><text fill="#000000" font-family="sans-serif" font-size="12" lengthAdjust="spacing" textLength="207" x="226.5" y="571.8105">Calculate edges that create loop</text><rect fill="#F1F1F1" height="33.9688" rx="12.5" ry="12.5" style="stroke:#181818;stroke-width:0.5;" width="327" x="166.5" y="604.6406"/><text fill="#000000" font-family="sans-serif" font-size="12" lengthAdjust="spacing" textLength="307" x="176.5" y="625.7793">Calculate "end points" and "break points" of loop</text><rect fill="#F1F1F1" height="47.9375" rx="12.5" ry="12.5" style="stroke:#181818;stroke-width:0.5;" width="277" x="191.5" y="658.6094"/><text fill="#000000" font-family="sans-serif" font-size="12" lengthAdjust="spacing" textLength="257" x="201.5" y="679.748">Output end and break points of loop and</text><text fill="#000000" font-family="sans-serif" font-size="12" lengthAdjust="spacing" textLength="145" x="201.5" y="693.7168">edges that create loop</text><rect fill="#F1F1F1" height="47.9375" rx="12.5" ry="12.5" style="stroke:#181818;stroke-width:0.5;" width="287" x="186.5" y="738.5469"/><text fill="#000000" font-family="sans-serif" font-size="12" lengthAdjust="spacing" textLength="267" x="196.5" y="759.6855">Output start, end and break points of loop</text><text fill="#000000" font-family="sans-serif" font-size="12" lengthAdjust="spacing" textLength="173" x="196.5" y="773.6543">and edges that create loop</text><rect fill="none" height="821.75" style="stroke:#000000;stroke-width:1.5;" width="618" x="21" y="808.4844"/><path d="M206,808.4844 L206,817.7813 L196,827.7813 L21,827.7813 " fill="none" style="stroke:#000000;stroke-width:1.5;"/><text fill="#000000" font-family="sans-serif" font-size="14" lengthAdjust="spacing" textLength="175" x="24" y="822.4795">Create sub graph of Loop</text><rect fill="none" height="298.1406" style="stroke:#000000;stroke-width:1.5;" width="435" x="112.5" y="837.7813"/><path d="M337.5,837.7813 L337.5,847.0781 L327.5,857.0781 L112.5,857.0781 " fill="none" style="stroke:#000000;stroke-width:1.5;"/><text fill="#000000" font-family="sans-serif" font-size="14" lengthAdjust="spacing" textLength="215" x="115.5" y="851.7764">Remove edges describing loop</text><rect fill="#F1F1F1" height="33.9688" rx="12.5" ry="12.5" style="stroke:#181818;stroke-width:0.5;" width="415" x="122.5" y="874.0781"/><text fill="#000000" font-family="sans-serif" font-size="12" lengthAdjust="spacing" textLength="395" x="132.5" y="895.2168">Copy graph and remove in + out edges of start and end points</text><rect fill="#F1F1F1" height="33.9688" rx="12.5" ry="12.5" style="stroke:#181818;stroke-width:0.5;" width="337" x="161.5" y="928.0469"/><text fill="#000000" font-family="sans-serif" font-size="12" lengthAdjust="spacing" textLength="317" x="171.5" y="949.1855">Remove edges that create loop from copied graph</text><rect fill="#F1F1F1" height="33.9688" rx="12.5" ry="12.5" style="stroke:#181818;stroke-width:0.5;" width="308" x="176" y="982.0156"/><text fill="#000000" font-family="sans-serif" font-size="12" lengthAdjust="spacing" textLength="288" x="186" y="1003.1543">Remove EventSets that mirror removed edges</text><rect fill="#F1F1F1" height="33.9688" rx="12.5" ry="12.5" style="stroke:#181818;stroke-width:0.5;" width="331" x="164.5" y="1035.9844"/><text fill="#000000" font-family="sans-serif" font-size="12" lengthAdjust="spacing" textLength="311" x="174.5" y="1057.123">Remove out edges of break points and EventSets</text><rect fill="#F1F1F1" height="33.9688" rx="12.5" ry="12.5" style="stroke:#181818;stroke-width:0.5;" width="235" x="212.5" y="1089.9531"/><text fill="#000000" font-family="sans-serif" font-size="12" lengthAdjust="spacing" textLength="215" x="222.5" y="1111.0918">Output copied and modified graph</text><rect fill="none" height="136.2344" style="stroke:#000000;stroke-width:1.5;" width="598" x="31" y="1145.9219"/><path d="M239,1145.9219 L239,1155.2188 L229,1165.2188 L31,1165.2188 " fill="none" style="stroke:#000000;stroke-width:1.5;"/><text fill="#000000" font-family="sans-serif" font-size="14" lengthAdjust="spacing" textLength="198" x="34" y="1159.917">Get disconnected sub graph</text><rect fill="#F1F1F1" height="33.9688" rx="12.5" ry="12.5" style="stroke:#181818;stroke-width:0.5;" width="578" x="41" y="1182.2188"/><text fill="#000000" font-family="sans-serif" font-size="12" lengthAdjust="spacing" textLength="558" x="51" y="1203.3574">Get disconnected sub graph by finding disconnected components containing loop nodes</text><rect fill="#F1F1F1" height="33.9688" rx="12.5" ry="12.5" style="stroke:#181818;stroke-width:0.5;" width="220" x="220" y="1236.1875"/><text fill="#000000" font-family="sans-serif" font-size="12" lengthAdjust="spacing" textLength="200" x="230" y="1257.3262">Output disconnected sub graph</text><rect fill="none" height="272.1094" style="stroke:#000000;stroke-width:1.5;" width="330" x="165" y="1292.1563"/><path d="M399,1292.1563 L399,1301.4531 L389,1311.4531 L165,1311.4531 " fill="none" style="stroke:#000000;stroke-width:1.5;"/><text fill="#000000" font-family="sans-serif" font-size="14" lengthAdjust="spacing" textLength="224" x="168" y="1306.1514">Add start and end Event vertices</text><rect fill="#F1F1F1" height="33.9688" rx="12.5" ry="12.5" style="stroke:#181818;stroke-width:0.5;" width="244" x="208" y="1328.4531"/><text fill="#000000" font-family="sans-serif" font-size="12" lengthAdjust="spacing" textLength="224" x="218" y="1349.5918">Add start Event vertex to sub graph</text><rect fill="#F1F1F1" height="47.9375" rx="12.5" ry="12.5" style="stroke:#181818;stroke-width:0.5;" width="310" x="175" y="1382.4219"/><text fill="#000000" font-family="sans-serif" font-size="12" lengthAdjust="spacing" textLength="223" x="185" y="1403.5605">Create out EventSets of start Event</text><text fill="#000000" font-family="sans-serif" font-size="12" lengthAdjust="spacing" textLength="290" x="185" y="1417.5293">vertex using out EventSets of incoming Events</text><rect fill="#F1F1F1" height="33.9688" rx="12.5" ry="12.5" style="stroke:#181818;stroke-width:0.5;" width="238" x="211" y="1450.3594"/><text fill="#000000" font-family="sans-serif" font-size="12" lengthAdjust="spacing" textLength="218" x="221" y="1471.498">Add end Event vertex to sub graph</text><rect fill="#F1F1F1" height="47.9375" rx="12.5" ry="12.5" style="stroke:#181818;stroke-width:0.5;" width="300" x="180" y="1504.3281"/><text fill="#000000" font-family="sans-serif" font-size="12" lengthAdjust="spacing" textLength="207" x="190" y="1525.4668">Create in EventSets of end Event</text><text fill="#000000" font-family="sans-serif" font-size="12" lengthAdjust="spacing" textLength="280" x="190" y="1539.4355">vertex using in EventSets of outgoing Events</text><rect fill="#F1F1F1" height="33.9688" rx="12.5" ry="12.5" style="stroke:#181818;stroke-width:0.5;" width="207" x="226.5" y="1584.2656"/><text fill="#000000" font-family="sans-serif" font-size="12" lengthAdjust="spacing" textLength="187" x="236.5" y="1605.4043">Output final subgraph of Loop</text><rect fill="none" height="190.2031" style="stroke:#000000;stroke-width:1.5;" width="292" x="184" y="1640.2344"/><path d="M321,1640.2344 L321,1649.5313 L311,1659.5313 L184,1659.5313 " fill="none" style="stroke:#000000;stroke-width:1.5;"/><text fill="#000000" font-family="sans-serif" font-size="14" lengthAdjust="spacing" textLength="127" x="187" y="1654.2295">Create Loop Event</text><rect fill="#F1F1F1" height="33.9688" rx="12.5" ry="12.5" style="stroke:#181818;stroke-width:0.5;" width="268" x="196" y="1676.5313"/><text fill="#000000" font-family="sans-serif" font-size="12" lengthAdjust="spacing" textLength="248" x="206" y="1697.6699">Create LoopEvent with subgraph added</text><rect fill="#F1F1F1" height="33.9688" rx="12.5" ry="12.5" style="stroke:#181818;stroke-width:0.5;" width="272" x="194" y="1730.5"/><text fill="#000000" font-family="sans-serif" font-size="12" lengthAdjust="spacing" textLength="252" x="204" y="1751.6387">Update in + out EventSets of LoopEvent</text><rect fill="#F1F1F1" height="33.9688" rx="12.5" ry="12.5" style="stroke:#181818;stroke-width:0.5;" width="132" x="264" y="1784.4688"/><text fill="#000000" font-family="sans-serif" font-size="12" lengthAdjust="spacing" textLength="112" x="274" y="1805.6074">Output LoopEvent</text><rect fill="none" height="244.1719" style="stroke:#000000;stroke-width:1.5;" width="372" x="144" y="1840.4375"/><path d="M435,1840.4375 L435,1849.7344 L425,1859.7344 L144,1859.7344 " fill="none" style="stroke:#000000;stroke-width:1.5;"/><text fill="#000000" font-family="sans-serif" font-size="14" lengthAdjust="spacing" textLength="281" x="147" y="1854.4326">Calculate Updated Graph with LoopEvent</text><rect fill="#F1F1F1" height="33.9688" rx="12.5" ry="12.5" style="stroke:#181818;stroke-width:0.5;" width="344" x="158" y="1876.7344"/><text fill="#000000" font-family="sans-serif" font-size="12" lengthAdjust="spacing" textLength="324" x="168" y="1897.873">Update in + out EventSets connected to LoopEvent</text><rect fill="#F1F1F1" height="33.9688" rx="12.5" ry="12.5" style="stroke:#181818;stroke-width:0.5;" width="222" x="219" y="1930.7031"/><text fill="#000000" font-family="sans-serif" font-size="12" lengthAdjust="spacing" textLength="202" x="229" y="1951.8418">Remove loop Event's from graph</text><rect fill="#F1F1F1" height="33.9688" rx="12.5" ry="12.5" style="stroke:#181818;stroke-width:0.5;" width="352" x="154" y="1984.6719"/><text fill="#000000" font-family="sans-serif" font-size="12" lengthAdjust="spacing" textLength="332" x="164" y="2005.8105">Recalculate graph from updated EventSets of Events</text><rect fill="#F1F1F1" height="33.9688" rx="12.5" ry="12.5" style="stroke:#181818;stroke-width:0.5;" width="161" x="249.5" y="2038.6406"/><text fill="#000000" font-family="sans-serif" font-size="12" lengthAdjust="spacing" textLength="141" x="259.5" y="2059.7793">Output updated graph</text><rect fill="#F1F1F1" height="33.9688" style="stroke:#181818;stroke-width:0.5;" width="388" x="136" y="2104.6094"/><line style="stroke:#181818;stroke-width:0.5;" x1="141" x2="141" y1="2104.6094" y2="2138.5781"/><line style="stroke:#181818;stroke-width:0.5;" x1="519" x2="519" y1="2104.6094" y2="2138.5781"/><text fill="#000000" font-family="sans-serif" font-size="12" lengthAdjust="spacing" textLength="368" x="146" y="2125.748">Run "Loop detection algorithm" on sub graph of LoopEvent</text><polygon fill="#F1F1F1" points="330,184.2344,342,196.2344,330,208.2344,318,196.2344,330,184.2344" style="stroke:#181818;stroke-width:0.5;"/><polygon fill="#F1F1F1" points="239,2158.5781,421,2158.5781,433,2170.5781,421,2182.5781,239,2182.5781,227,2170.5781,239,2158.5781" style="stroke:#181818;stroke-width:0.5;"/><text fill="#000000" font-family="sans-serif" font-size="11" lengthAdjust="spacing" textLength="182" x="239" y="2174.3862">SCC components are not empty</text><rect fill="#F1F1F1" height="33.9688" rx="12.5" ry="12.5" style="stroke:#181818;stroke-width:0.5;" width="270" x="195" y="2202.5781"/><text fill="#000000" font-family="sans-serif" font-size="12" lengthAdjust="spacing" textLength="250" x="205" y="2223.7168">Output Graph updated with LoopEvent's</text><line style="stroke:#181818;stroke-width:1.0;" x1="330" x2="330" y1="30" y2="50"/><polygon fill="#181818" points="326,40,330,50,334,40,330,44" style="stroke:#181818;stroke-width:1.0;"/><line style="stroke:#181818;stroke-width:1.0;" x1="330" x2="330" y1="342.4688" y2="362.4688"/><polygon fill="#181818" points="326,352.4688,330,362.4688,334,352.4688,330,356.4688" style="stroke:#181818;stroke-width:1.0;"/><line style="stroke:#181818;stroke-width:1.0;" x1="330" x2="330" y1="396.4375" y2="416.4375"/><polygon fill="#181818" points="326,406.4375,330,416.4375,334,406.4375,330,410.4375" style="stroke:#181818;stroke-width:1.0;"/><line style="stroke:#181818;stroke-width:1.0;" x1="330" x2="330" y1="450.4063" y2="470.4063"/><polygon fill="#181818" points="326,460.4063,330,470.4063,334,460.4063,330,464.4063" style="stroke:#181818;stroke-width:1.0;"/><line style="stroke:#181818;stroke-width:1.0;" x1="330" x2="330" y1="584.6406" y2="604.6406"/><polygon fill="#181818" points="326,594.6406,330,604.6406,334,594.6406,330,598.6406" style="stroke:#181818;stroke-width:1.0;"/><line style="stroke:#181818;stroke-width:1.0;" x1="330" x2="330" y1="638.6094" y2="658.6094"/><polygon fill="#181818" points="326,648.6094,330,658.6094,334,648.6094,330,652.6094" style="stroke:#181818;stroke-width:1.0;"/><line style="stroke:#181818;stroke-width:1.0;" x1="330" x2="330" y1="504.375" y2="550.6719"/><polygon fill="#181818" points="326,540.6719,330,550.6719,334,540.6719,330,544.6719" style="stroke:#181818;stroke-width:1.0;"/><line style="stroke:#181818;stroke-width:1.0;" x1="330" x2="330" y1="706.5469" y2="738.5469"/><polygon fill="#181818" points="326,728.5469,330,738.5469,334,728.5469,330,732.5469" style="stroke:#181818;stroke-width:1.0;"/><line style="stroke:#181818;stroke-width:1.0;" x1="330" x2="330" y1="262.2031" y2="308.5"/><polygon fill="#181818" points="326,298.5,330,308.5,334,298.5,330,302.5" style="stroke:#181818;stroke-width:1.0;"/><line style="stroke:#181818;stroke-width:1.0;" x1="330" x2="330" y1="908.0469" y2="928.0469"/><polygon fill="#181818" points="326,918.0469,330,928.0469,334,918.0469,330,922.0469" style="stroke:#181818;stroke-width:1.0;"/><line style="stroke:#181818;stroke-width:1.0;" x1="330" x2="330" y1="962.0156" y2="982.0156"/><polygon fill="#181818" points="326,972.0156,330,982.0156,334,972.0156,330,976.0156" style="stroke:#181818;stroke-width:1.0;"/><line style="stroke:#181818;stroke-width:1.0;" x1="330" x2="330" y1="1015.9844" y2="1035.9844"/><polygon fill="#181818" points="326,1025.9844,330,1035.9844,334,1025.9844,330,1029.9844" style="stroke:#181818;stroke-width:1.0;"/><line style="stroke:#181818;stroke-width:1.0;" x1="330" x2="330" y1="1069.9531" y2="1089.9531"/><polygon fill="#181818" points="326,1079.9531,330,1089.9531,334,1079.9531,330,1083.9531" style="stroke:#181818;stroke-width:1.0;"/><line style="stroke:#181818;stroke-width:1.0;" x1="330" x2="330" y1="1216.1875" y2="1236.1875"/><polygon fill="#181818" points="326,1226.1875,330,1236.1875,334,1226.1875,330,1230.1875" style="stroke:#181818;stroke-width:1.0;"/><line style="stroke:#181818;stroke-width:1.0;" x1="330" x2="330" y1="1123.9219" y2="1182.2188"/><polygon fill="#181818" points="326,1172.2188,330,1182.2188,334,1172.2188,330,1176.2188" style="stroke:#181818;stroke-width:1.0;"/><line style="stroke:#181818;stroke-width:1.0;" x1="330" x2="330" y1="1362.4219" y2="1382.4219"/><polygon fill="#181818" points="326,1372.4219,330,1382.4219,334,1372.4219,330,1376.4219" style="stroke:#181818;stroke-width:1.0;"/><line style="stroke:#181818;stroke-width:1.0;" x1="330" x2="330" y1="1430.3594" y2="1450.3594"/><polygon fill="#181818" points="326,1440.3594,330,1450.3594,334,1440.3594,330,1444.3594" style="stroke:#181818;stroke-width:1.0;"/><line style="stroke:#181818;stroke-width:1.0;" x1="330" x2="330" y1="1484.3281" y2="1504.3281"/><polygon fill="#181818" points="326,1494.3281,330,1504.3281,334,1494.3281,330,1498.3281" style="stroke:#181818;stroke-width:1.0;"/><line style="stroke:#181818;stroke-width:1.0;" x1="330" x2="330" y1="1270.1563" y2="1328.4531"/><polygon fill="#181818" points="326,1318.4531,330,1328.4531,334,1318.4531,330,1322.4531" style="stroke:#181818;stroke-width:1.0;"/><line style="stroke:#181818;stroke-width:1.0;" x1="330" x2="330" y1="1552.2656" y2="1584.2656"/><polygon fill="#181818" points="326,1574.2656,330,1584.2656,334,1574.2656,330,1578.2656" style="stroke:#181818;stroke-width:1.0;"/><line style="stroke:#181818;stroke-width:1.0;" x1="330" x2="330" y1="786.4844" y2="874.0781"/><polygon fill="#181818" points="326,864.0781,330,874.0781,334,864.0781,330,868.0781" style="stroke:#181818;stroke-width:1.0;"/><line style="stroke:#181818;stroke-width:1.0;" x1="330" x2="330" y1="1710.5" y2="1730.5"/><polygon fill="#181818" points="326,1720.5,330,1730.5,334,1720.5,330,1724.5" style="stroke:#181818;stroke-width:1.0;"/><line style="stroke:#181818;stroke-width:1.0;" x1="330" x2="330" y1="1764.4688" y2="1784.4688"/><polygon fill="#181818" points="326,1774.4688,330,1784.4688,334,1774.4688,330,1778.4688" style="stroke:#181818;stroke-width:1.0;"/><line style="stroke:#181818;stroke-width:1.0;" x1="330" x2="330" y1="1618.2344" y2="1676.5313"/><polygon fill="#181818" points="326,1666.5313,330,1676.5313,334,1666.5313,330,1670.5313" style="stroke:#181818;stroke-width:1.0;"/><line style="stroke:#181818;stroke-width:1.0;" x1="330" x2="330" y1="1910.7031" y2="1930.7031"/><polygon fill="#181818" points="326,1920.7031,330,1930.7031,334,1920.7031,330,1924.7031" style="stroke:#181818;stroke-width:1.0;"/><line style="stroke:#181818;stroke-width:1.0;" x1="330" x2="330" y1="1964.6719" y2="1984.6719"/><polygon fill="#181818" points="326,1974.6719,330,1984.6719,334,1974.6719,330,1978.6719" style="stroke:#181818;stroke-width:1.0;"/><line style="stroke:#181818;stroke-width:1.0;" x1="330" x2="330" y1="2018.6406" y2="2038.6406"/><polygon fill="#181818" points="326,2028.6406,330,2038.6406,334,2028.6406,330,2032.6406" style="stroke:#181818;stroke-width:1.0;"/><line style="stroke:#181818;stroke-width:1.0;" x1="330" x2="330" y1="1818.4375" y2="1876.7344"/><polygon fill="#181818" points="326,1866.7344,330,1876.7344,334,1866.7344,330,1870.7344" style="stroke:#181818;stroke-width:1.0;"/><line style="stroke:#181818;stroke-width:1.0;" x1="330" x2="330" y1="2072.6094" y2="2104.6094"/><polygon fill="#181818" points="326,2094.6094,330,2104.6094,334,2094.6094,330,2098.6094" style="stroke:#181818;stroke-width:1.0;"/><line style="stroke:#181818;stroke-width:1.0;" x1="330" x2="330" y1="208.2344" y2="228.2344"/><polygon fill="#181818" points="326,218.2344,330,228.2344,334,218.2344,330,222.2344" style="stroke:#181818;stroke-width:1.0;"/><line style="stroke:#181818;stroke-width:1.0;" x1="433" x2="651" y1="2170.5781" y2="2170.5781"/><polygon fill="#181818" points="647,1192.9063,651,1182.9063,655,1192.9063,651,1188.9063" style="stroke:#181818;stroke-width:1.0;"/><line style="stroke:#181818;stroke-width:1.0;" x1="651" x2="651" y1="196.2344" y2="2170.5781"/><line style="stroke:#181818;stroke-width:1.0;" x1="651" x2="342" y1="196.2344" y2="196.2344"/><polygon fill="#181818" points="352,192.2344,342,196.2344,352,200.2344,348,196.2344" style="stroke:#181818;stroke-width:1.0;"/><line style="stroke:#181818;stroke-width:1.0;" x1="330" x2="330" y1="2138.5781" y2="2158.5781"/><polygon fill="#181818" points="326,2148.5781,330,2158.5781,334,2148.5781,330,2152.5781" style="stroke:#181818;stroke-width:1.0;"/><line style="stroke:#181818;stroke-width:1.0;" x1="330" x2="330" y1="164.2344" y2="184.2344"/><polygon fill="#181818" points="326,174.2344,330,184.2344,334,174.2344,330,178.2344" style="stroke:#181818;stroke-width:1.0;"/><line style="stroke:#181818;stroke-width:1.0;" x1="330" x2="330" y1="2182.5781" y2="2202.5781"/><polygon fill="#181818" points="326,2192.5781,330,2202.5781,334,2192.5781,330,2196.5781" style="stroke:#181818;stroke-width:1.0;"/><line style="stroke:#181818;stroke-width:1.0;" x1="330" x2="330" y1="83.9688" y2="130.2656"/><polygon fill="#181818" points="326,120.2656,330,130.2656,334,120.2656,330,124.2656" style="stroke:#181818;stroke-width:1.0;"/><!--SRC=[bLR1Yjim4BtdAuPSjcNx1PjJ6yfIA1HswIsmADOa4MjBHfQp3Mt-lIF9bYt5Sf908B5dvhrvypmo041Zc3OB-W4bss89fLBr6qU3XH5Alh5ohxGmXyg5FFsGTMk02qstaSDUi_gmShTgAYDi2Yn_KWa89I2KMC9V5-egFQE1r_KQ2bNLIg8q3QZTkA3zQAoHcV1tH25A1IPvcffmMhEoQ4jcC06qNCUy0ioG82GWtwCBZs1NSrbB9opKIX3IqkPQPMTJ5FLrCvANOGpYL8XgJ2EELFccaRsxFAIlAmD5nuS2feH9E7iiSs2KICNeoZHegax08sqi_dBhg5oLozNvrHhRlArXSyUfVQQziP6tiZilSXXEu2-pK1lf1Bm1wfnrfyzesgstyPmpHsalMAbZFmEEJQ75LiYzGyxFJjMd3iNorhu6cVmnDe-tLkID9ZEFY4Sg0UoqgiZAjS39XpIjylr8Xdz5qrMgXDPATpGxcUSBH5r40xFDXFBptkhusenASR6R8N-U6v5TSrmqXPBIhymmu-o0yYcmFS5EI6vd74MCTXfTD4p8tWOW5SShlKw3tTdeLyuJopYbuOWKKc2JRNT871Bm3nWrHyKxsPlCpdimJN2kkxIHNRcsiOfSX0f9qjaxxcfE9qinxkWkWlHiHQ2XLC8kZIEsUpL7Bh-so2MijFoYTNBVDdB7k8EUFY27AA_B1vtn0oJZ7Fd4kVMxvfqcZvVZ2CLMsSuo8UVh1xz7vl3i-3cseTXaXtcgm-D2BfWZtQsaCaZvqFXzcB4D9HI1i1VIXRSTzqYjd2rwgVga2QnOhgUNTlQrZVvT74qE_5_ofWOV1r4YV4fUx9X6saEqbQlQd3ulKfv-83tRU30FNN_d_m00]--></g></svg>