<?xml version="1.0" encoding="us-ascii" standalone="no"?><svg xmlns="http://www.w3.org/2000/svg" xmlns:xlink="http://www.w3.org/1999/xlink" contentStyleType="text/css" height="2232px" preserveAspectRatio="none" style="width:473px;height:2232px;background:#FFFFFF;" version="1.1" viewBox="0 0 473 2232" width="473px" zoomAndPan="magnify"><defs/><g><ellipse cx="227.5" cy="20" fill="#222222" rx="10" ry="10" style="stroke:#222222;stroke-width:1.0;"/><rect fill="#F1F1F1" height="33.9688" rx="12.5" ry="12.5" style="stroke:#181818;stroke-width:0.5;" width="149" x="153" y="50"/><text fill="#000000" font-family="sans-serif" font-size="12" lengthAdjust="spacing" textLength="129" x="163" y="71.1387">Input directed graph</text><rect fill="none" height="2127.25" style="stroke:#000000;stroke-width:1.5;" width="451" x="11" y="93.9688"/><path d="M193,93.9688 L193,103.2656 L183,113.2656 L11,113.2656 " fill="none" style="stroke:#000000;stroke-width:1.5;"/><text fill="#000000" font-family="sans-serif" font-size="14" lengthAdjust="spacing" textLength="172" x="14" y="107.9639">Loop detection algorithm</text><rect fill="#F1F1F1" height="33.9688" rx="12.5" ry="12.5" style="stroke:#181818;stroke-width:0.5;" width="209" x="123" y="130.2656"/><text fill="#000000" font-family="sans-serif" font-size="12" lengthAdjust="spacing" textLength="189" x="133" y="151.4043">Get SCC components of graph</text><rect fill="#F1F1F1" height="33.9688" rx="12.5" ry="12.5" style="stroke:#181818;stroke-width:0.5;" width="224" x="115.5" y="228.2344"/><text fill="#000000" font-family="sans-serif" font-size="12" lengthAdjust="spacing" textLength="204" x="125.5" y="249.373">Input SCC component and graph</text><rect fill="none" height="594.2188" style="stroke:#000000;stroke-width:1.5;" width="393" x="31" y="272.2031"/><path d="M251,272.2031 L251,281.5 L241,291.5 L31,291.5 " fill="none" style="stroke:#000000;stroke-width:1.5;"/><text fill="#000000" font-family="sans-serif" font-size="14" lengthAdjust="spacing" textLength="210" x="34" y="286.1982">Calculate components of Loop</text><rect fill="#F1F1F1" height="33.9688" rx="12.5" ry="12.5" style="stroke:#181818;stroke-width:0.5;" width="255" x="100" y="308.5"/><text fill="#000000" font-family="sans-serif" font-size="12" lengthAdjust="spacing" textLength="235" x="110" y="329.6387">Calculate in edges of SCC component</text><rect fill="#F1F1F1" height="33.9688" rx="12.5" ry="12.5" style="stroke:#181818;stroke-width:0.5;" width="212" x="121.5" y="362.4688"/><text fill="#000000" font-family="sans-serif" font-size="12" lengthAdjust="spacing" textLength="192" x="131.5" y="383.6074">Calculate "start points" of loop</text><rect fill="#F1F1F1" height="33.9688" rx="12.5" ry="12.5" style="stroke:#181818;stroke-width:0.5;" width="265" x="95" y="416.4375"/><text fill="#000000" font-family="sans-serif" font-size="12" lengthAdjust="spacing" textLength="245" x="105" y="437.5762">Calculate out edges of SCC component</text><rect fill="#F1F1F1" height="33.9688" rx="12.5" ry="12.5" style="stroke:#181818;stroke-width:0.5;" width="312" x="71.5" y="470.4063"/><text fill="#000000" font-family="sans-serif" font-size="12" lengthAdjust="spacing" textLength="292" x="81.5" y="491.5449">Input start points, SCC components and graph</text><rect fill="none" height="204.1719" style="stroke:#000000;stroke-width:1.5;" width="347" x="54" y="514.375"/><path d="M281,514.375 L281,523.6719 L271,533.6719 L54,533.6719 " fill="none" style="stroke:#000000;stroke-width:1.5;"/><text fill="#000000" font-family="sans-serif" font-size="14" lengthAdjust="spacing" textLength="217" x="57" y="528.3701">Break and end point calculation</text><rect fill="#F1F1F1" height="33.9688" rx="12.5" ry="12.5" style="stroke:#181818;stroke-width:0.5;" width="227" x="114" y="550.6719"/><text fill="#000000" font-family="sans-serif" font-size="12" lengthAdjust="spacing" textLength="207" x="124" y="571.8105">Calculate edges that create loop</text><rect fill="#F1F1F1" height="33.9688" rx="12.5" ry="12.5" style="stroke:#181818;stroke-width:0.5;" width="327" x="64" y="604.6406"/><text fill="#000000" font-family="sans-serif" font-size="12" lengthAdjust="spacing" textLength="307" x="74" y="625.7793">Calculate "end points" and "break points" of loop</text><rect fill="#F1F1F1" height="47.9375" rx="12.5" ry="12.5" style="stroke:#181818;stroke-width:0.5;" width="277" x="89" y="658.6094"/><text fill="#000000" font-family="sans-serif" font-size="12" lengthAdjust="spacing" textLength="257" x="99" y="679.748">Output end and break points of loop and</text><text fill="#000000" font-family="sans-serif" font-size="12" lengthAdjust="spacing" textLength="145" x="99" y="693.7168">edges that create loop</text><rect fill="#F1F1F1" height="47.9375" rx="12.5" ry="12.5" style="stroke:#181818;stroke-width:0.5;" width="373" x="41" y="738.5469"/><text fill="#000000" font-family="sans-serif" font-size="12" lengthAdjust="spacing" textLength="353" x="51" y="759.6855">filter and replace break points with dummy break events</text><text fill="#000000" font-family="sans-serif" font-size="12" lengthAdjust="spacing" textLength="323" x="51" y="773.6543">if they are an out node, not in SCC, of an end event</text><rect fill="#F1F1F1" height="47.9375" rx="12.5" ry="12.5" style="stroke:#181818;stroke-width:0.5;" width="287" x="84" y="806.4844"/><text fill="#000000" font-family="sans-serif" font-size="12" lengthAdjust="spacing" textLength="267" x="94" y="827.623">Output start, end and break points of loop</text><text fill="#000000" font-family="sans-serif" font-size="12" lengthAdjust="spacing" textLength="173" x="94" y="841.5918">and edges that create loop</text><rect fill="none" height="726.4844" style="stroke:#000000;stroke-width:1.5;" width="413" x="21" y="876.4219"/><path d="M206,876.4219 L206,885.7188 L196,895.7188 L21,895.7188 " fill="none" style="stroke:#000000;stroke-width:1.5;"/><text fill="#000000" font-family="sans-serif" font-size="14" lengthAdjust="spacing" textLength="175" x="24" y="890.417">Create sub graph of Loop</text><rect fill="#F1F1F1" height="33.9688" rx="12.5" ry="12.5" style="stroke:#181818;stroke-width:0.5;" width="232" x="111.5" y="912.7188"/><text fill="#000000" font-family="sans-serif" font-size="12" lengthAdjust="spacing" textLength="212" x="121.5" y="933.8574">Copy graph and loop components</text><rect fill="none" height="272.1094" style="stroke:#000000;stroke-width:1.5;" width="330" x="62.5" y="956.6875"/><path d="M296.5,956.6875 L296.5,965.9844 L286.5,975.9844 L62.5,975.9844 " fill="none" style="stroke:#000000;stroke-width:1.5;"/><text fill="#000000" font-family="sans-serif" font-size="14" lengthAdjust="spacing" textLength="224" x="65.5" y="970.6826">Add start and end Event vertices</text><rect fill="#F1F1F1" height="33.9688" rx="12.5" ry="12.5" style="stroke:#181818;stroke-width:0.5;" width="244" x="105.5" y="992.9844"/><text fill="#000000" font-family="sans-serif" font-size="12" lengthAdjust="spacing" textLength="224" x="115.5" y="1014.123">Add start Event vertex to sub graph</text><rect fill="#F1F1F1" height="47.9375" rx="12.5" ry="12.5" style="stroke:#181818;stroke-width:0.5;" width="310" x="72.5" y="1046.9531"/><text fill="#000000" font-family="sans-serif" font-size="12" lengthAdjust="spacing" textLength="223" x="82.5" y="1068.0918">Create out EventSets of start Event</text><text fill="#000000" font-family="sans-serif" font-size="12" lengthAdjust="spacing" textLength="290" x="82.5" y="1082.0605">vertex using out EventSets of incoming Events</text><rect fill="#F1F1F1" height="33.9688" rx="12.5" ry="12.5" style="stroke:#181818;stroke-width:0.5;" width="238" x="108.5" y="1114.8906"/><text fill="#000000" font-family="sans-serif" font-size="12" lengthAdjust="spacing" textLength="218" x="118.5" y="1136.0293">Add end Event vertex to sub graph</text><rect fill="#F1F1F1" height="47.9375" rx="12.5" ry="12.5" style="stroke:#181818;stroke-width:0.5;" width="300" x="77.5" y="1168.8594"/><text fill="#000000" font-family="sans-serif" font-size="12" lengthAdjust="spacing" textLength="207" x="87.5" y="1189.998">Create in EventSets of end Event</text><text fill="#000000" font-family="sans-serif" font-size="12" lengthAdjust="spacing" textLength="280" x="87.5" y="1203.9668">vertex using in EventSets of outgoing Events</text><rect fill="none" height="244.1719" style="stroke:#000000;stroke-width:1.5;" width="351" x="52" y="1238.7969"/><path d="M277,1238.7969 L277,1248.0938 L267,1258.0938 L52,1258.0938 " fill="none" style="stroke:#000000;stroke-width:1.5;"/><text fill="#000000" font-family="sans-serif" font-size="14" lengthAdjust="spacing" textLength="215" x="55" y="1252.792">Remove edges describing loop</text><rect fill="#F1F1F1" height="33.9688" rx="12.5" ry="12.5" style="stroke:#181818;stroke-width:0.5;" width="315" x="70" y="1275.0938"/><text fill="#000000" font-family="sans-serif" font-size="12" lengthAdjust="spacing" textLength="295" x="80" y="1296.2324">Remove in + out edges of start and end points</text><rect fill="#F1F1F1" height="33.9688" rx="12.5" ry="12.5" style="stroke:#181818;stroke-width:0.5;" width="291" x="82" y="1329.0625"/><text fill="#000000" font-family="sans-serif" font-size="12" lengthAdjust="spacing" textLength="271" x="92" y="1350.2012">Remove edges that create loop from graph</text><rect fill="#F1F1F1" height="33.9688" rx="12.5" ry="12.5" style="stroke:#181818;stroke-width:0.5;" width="308" x="73.5" y="1383.0313"/><text fill="#000000" font-family="sans-serif" font-size="12" lengthAdjust="spacing" textLength="288" x="83.5" y="1404.1699">Remove EventSets that mirror removed edges</text><rect fill="#F1F1F1" height="33.9688" rx="12.5" ry="12.5" style="stroke:#181818;stroke-width:0.5;" width="331" x="62" y="1437"/><text fill="#000000" font-family="sans-serif" font-size="12" lengthAdjust="spacing" textLength="311" x="72" y="1458.1387">Remove out edges of break points and EventSets</text><rect fill="#F1F1F1" height="33.9688" rx="12.5" ry="12.5" style="stroke:#181818;stroke-width:0.5;" width="311" x="72" y="1502.9688"/><text fill="#000000" font-family="sans-serif" font-size="12" lengthAdjust="spacing" textLength="291" x="82" y="1524.1074">Remove nodes that have no path back to loop</text><rect fill="#F1F1F1" height="33.9688" rx="12.5" ry="12.5" style="stroke:#181818;stroke-width:0.5;" width="393" x="31" y="1556.9375"/><text fill="#000000" font-family="sans-serif" font-size="12" lengthAdjust="spacing" textLength="373" x="41" y="1578.0762">Output final subgraph of Loop, start and end Event vertices</text><rect fill="none" height="190.2031" style="stroke:#000000;stroke-width:1.5;" width="292" x="81.5" y="1612.9063"/><path d="M218.5,1612.9063 L218.5,1622.2031 L208.5,1632.2031 L81.5,1632.2031 " fill="none" style="stroke:#000000;stroke-width:1.5;"/><text fill="#000000" font-family="sans-serif" font-size="14" lengthAdjust="spacing" textLength="127" x="84.5" y="1626.9014">Create Loop Event</text><rect fill="#F1F1F1" height="33.9688" rx="12.5" ry="12.5" style="stroke:#181818;stroke-width:0.5;" width="268" x="93.5" y="1649.2031"/><text fill="#000000" font-family="sans-serif" font-size="12" lengthAdjust="spacing" textLength="248" x="103.5" y="1670.3418">Create LoopEvent with subgraph added</text><rect fill="#F1F1F1" height="33.9688" rx="12.5" ry="12.5" style="stroke:#181818;stroke-width:0.5;" width="272" x="91.5" y="1703.1719"/><text fill="#000000" font-family="sans-serif" font-size="12" lengthAdjust="spacing" textLength="252" x="101.5" y="1724.3105">Update in + out EventSets of LoopEvent</text><rect fill="#F1F1F1" height="33.9688" rx="12.5" ry="12.5" style="stroke:#181818;stroke-width:0.5;" width="132" x="161.5" y="1757.1406"/><text fill="#000000" font-family="sans-serif" font-size="12" lengthAdjust="spacing" textLength="112" x="171.5" y="1778.2793">Output LoopEvent</text><rect fill="none" height="244.1719" style="stroke:#000000;stroke-width:1.5;" width="372" x="41.5" y="1813.1094"/><path d="M332.5,1813.1094 L332.5,1822.4063 L322.5,1832.4063 L41.5,1832.4063 " fill="none" style="stroke:#000000;stroke-width:1.5;"/><text fill="#000000" font-family="sans-serif" font-size="14" lengthAdjust="spacing" textLength="281" x="44.5" y="1827.1045">Calculate Updated Graph with LoopEvent</text><rect fill="#F1F1F1" height="33.9688" rx="12.5" ry="12.5" style="stroke:#181818;stroke-width:0.5;" width="344" x="55.5" y="1849.4063"/><text fill="#000000" font-family="sans-serif" font-size="12" lengthAdjust="spacing" textLength="324" x="65.5" y="1870.5449">Update in + out EventSets connected to LoopEvent</text><rect fill="#F1F1F1" height="33.9688" rx="12.5" ry="12.5" style="stroke:#181818;stroke-width:0.5;" width="222" x="116.5" y="1903.375"/><text fill="#000000" font-family="sans-serif" font-size="12" lengthAdjust="spacing" textLength="202" x="126.5" y="1924.5137">Remove loop Event's from graph</text><rect fill="#F1F1F1" height="33.9688" rx="12.5" ry="12.5" style="stroke:#181818;stroke-width:0.5;" width="352" x="51.5" y="1957.3438"/><text fill="#000000" font-family="sans-serif" font-size="12" lengthAdjust="spacing" textLength="332" x="61.5" y="1978.4824">Recalculate graph from updated EventSets of Events</text><rect fill="#F1F1F1" height="33.9688" rx="12.5" ry="12.5" style="stroke:#181818;stroke-width:0.5;" width="161" x="147" y="2011.3125"/><text fill="#000000" font-family="sans-serif" font-size="12" lengthAdjust="spacing" textLength="141" x="157" y="2032.4512">Output updated graph</text><rect fill="#F1F1F1" height="33.9688" style="stroke:#181818;stroke-width:0.5;" width="388" x="33.5" y="2077.2813"/><line style="stroke:#181818;stroke-width:0.5;" x1="38.5" x2="38.5" y1="2077.2813" y2="2111.25"/><line style="stroke:#181818;stroke-width:0.5;" x1="416.5" x2="416.5" y1="2077.2813" y2="2111.25"/><text fill="#000000" font-family="sans-serif" font-size="12" lengthAdjust="spacing" textLength="368" x="43.5" y="2098.4199">Run "Loop detection algorithm" on sub graph of LoopEvent</text><polygon fill="#F1F1F1" points="227.5,184.2344,239.5,196.2344,227.5,208.2344,215.5,196.2344,227.5,184.2344" style="stroke:#181818;stroke-width:0.5;"/><polygon fill="#F1F1F1" points="136.5,2131.25,318.5,2131.25,330.5,2143.25,318.5,2155.25,136.5,2155.25,124.5,2143.25,136.5,2131.25" style="stroke:#181818;stroke-width:0.5;"/><text fill="#000000" font-family="sans-serif" font-size="11" lengthAdjust="spacing" textLength="182" x="136.5" y="2147.0581">SCC components are not empty</text><rect fill="#F1F1F1" height="33.9688" rx="12.5" ry="12.5" style="stroke:#181818;stroke-width:0.5;" width="270" x="92.5" y="2175.25"/><text fill="#000000" font-family="sans-serif" font-size="12" lengthAdjust="spacing" textLength="250" x="102.5" y="2196.3887">Output Graph updated with LoopEvent's</text><line style="stroke:#181818;stroke-width:1.0;" x1="227.5" x2="227.5" y1="30" y2="50"/><polygon fill="#181818" points="223.5,40,227.5,50,231.5,40,227.5,44" style="stroke:#181818;stroke-width:1.0;"/><line style="stroke:#181818;stroke-width:1.0;" x1="227.5" x2="227.5" y1="342.4688" y2="362.4688"/><polygon fill="#181818" points="223.5,352.4688,227.5,362.4688,231.5,352.4688,227.5,356.4688" style="stroke:#181818;stroke-width:1.0;"/><line style="stroke:#181818;stroke-width:1.0;" x1="227.5" x2="227.5" y1="396.4375" y2="416.4375"/><polygon fill="#181818" points="223.5,406.4375,227.5,416.4375,231.5,406.4375,227.5,410.4375" style="stroke:#181818;stroke-width:1.0;"/><line style="stroke:#181818;stroke-width:1.0;" x1="227.5" x2="227.5" y1="450.4063" y2="470.4063"/><polygon fill="#181818" points="223.5,460.4063,227.5,470.4063,231.5,460.4063,227.5,464.4063" style="stroke:#181818;stroke-width:1.0;"/><line style="stroke:#181818;stroke-width:1.0;" x1="227.5" x2="227.5" y1="584.6406" y2="604.6406"/><polygon fill="#181818" points="223.5,594.6406,227.5,604.6406,231.5,594.6406,227.5,598.6406" style="stroke:#181818;stroke-width:1.0;"/><line style="stroke:#181818;stroke-width:1.0;" x1="227.5" x2="227.5" y1="638.6094" y2="658.6094"/><polygon fill="#181818" points="223.5,648.6094,227.5,658.6094,231.5,648.6094,227.5,652.6094" style="stroke:#181818;stroke-width:1.0;"/><line style="stroke:#181818;stroke-width:1.0;" x1="227.5" x2="227.5" y1="504.375" y2="550.6719"/><polygon fill="#181818" points="223.5,540.6719,227.5,550.6719,231.5,540.6719,227.5,544.6719" style="stroke:#181818;stroke-width:1.0;"/><line style="stroke:#181818;stroke-width:1.0;" x1="227.5" x2="227.5" y1="706.5469" y2="738.5469"/><polygon fill="#181818" points="223.5,728.5469,227.5,738.5469,231.5,728.5469,227.5,732.5469" style="stroke:#181818;stroke-width:1.0;"/><line style="stroke:#181818;stroke-width:1.0;" x1="227.5" x2="227.5" y1="786.4844" y2="806.4844"/><polygon fill="#181818" points="223.5,796.4844,227.5,806.4844,231.5,796.4844,227.5,800.4844" style="stroke:#181818;stroke-width:1.0;"/><line style="stroke:#181818;stroke-width:1.0;" x1="227.5" x2="227.5" y1="262.2031" y2="308.5"/><polygon fill="#181818" points="223.5,298.5,227.5,308.5,231.5,298.5,227.5,302.5" style="stroke:#181818;stroke-width:1.0;"/><line style="stroke:#181818;stroke-width:1.0;" x1="227.5" x2="227.5" y1="1026.9531" y2="1046.9531"/><polygon fill="#181818" points="223.5,1036.9531,227.5,1046.9531,231.5,1036.9531,227.5,1040.9531" style="stroke:#181818;stroke-width:1.0;"/><line style="stroke:#181818;stroke-width:1.0;" x1="227.5" x2="227.5" y1="1094.8906" y2="1114.8906"/><polygon fill="#181818" points="223.5,1104.8906,227.5,1114.8906,231.5,1104.8906,227.5,1108.8906" style="stroke:#181818;stroke-width:1.0;"/><line style="stroke:#181818;stroke-width:1.0;" x1="227.5" x2="227.5" y1="1148.8594" y2="1168.8594"/><polygon fill="#181818" points="223.5,1158.8594,227.5,1168.8594,231.5,1158.8594,227.5,1162.8594" style="stroke:#181818;stroke-width:1.0;"/><line style="stroke:#181818;stroke-width:1.0;" x1="227.5" x2="227.5" y1="946.6875" y2="992.9844"/><polygon fill="#181818" points="223.5,982.9844,227.5,992.9844,231.5,982.9844,227.5,986.9844" style="stroke:#181818;stroke-width:1.0;"/><line style="stroke:#181818;stroke-width:1.0;" x1="227.5" x2="227.5" y1="1309.0625" y2="1329.0625"/><polygon fill="#181818" points="223.5,1319.0625,227.5,1329.0625,231.5,1319.0625,227.5,1323.0625" style="stroke:#181818;stroke-width:1.0;"/><line style="stroke:#181818;stroke-width:1.0;" x1="227.5" x2="227.5" y1="1363.0313" y2="1383.0313"/><polygon fill="#181818" points="223.5,1373.0313,227.5,1383.0313,231.5,1373.0313,227.5,1377.0313" style="stroke:#181818;stroke-width:1.0;"/><line style="stroke:#181818;stroke-width:1.0;" x1="227.5" x2="227.5" y1="1417" y2="1437"/><polygon fill="#181818" points="223.5,1427,227.5,1437,231.5,1427,227.5,1431" style="stroke:#181818;stroke-width:1.0;"/><line style="stroke:#181818;stroke-width:1.0;" x1="227.5" x2="227.5" y1="1216.7969" y2="1275.0938"/><polygon fill="#181818" points="223.5,1265.0938,227.5,1275.0938,231.5,1265.0938,227.5,1269.0938" style="stroke:#181818;stroke-width:1.0;"/><line style="stroke:#181818;stroke-width:1.0;" x1="227.5" x2="227.5" y1="1470.9688" y2="1502.9688"/><polygon fill="#181818" points="223.5,1492.9688,227.5,1502.9688,231.5,1492.9688,227.5,1496.9688" style="stroke:#181818;stroke-width:1.0;"/><line style="stroke:#181818;stroke-width:1.0;" x1="227.5" x2="227.5" y1="1536.9375" y2="1556.9375"/><polygon fill="#181818" points="223.5,1546.9375,227.5,1556.9375,231.5,1546.9375,227.5,1550.9375" style="stroke:#181818;stroke-width:1.0;"/><line style="stroke:#181818;stroke-width:1.0;" x1="227.5" x2="227.5" y1="854.4219" y2="912.7188"/><polygon fill="#181818" points="223.5,902.7188,227.5,912.7188,231.5,902.7188,227.5,906.7188" style="stroke:#181818;stroke-width:1.0;"/><line style="stroke:#181818;stroke-width:1.0;" x1="227.5" x2="227.5" y1="1683.1719" y2="1703.1719"/><polygon fill="#181818" points="223.5,1693.1719,227.5,1703.1719,231.5,1693.1719,227.5,1697.1719" style="stroke:#181818;stroke-width:1.0;"/><line style="stroke:#181818;stroke-width:1.0;" x1="227.5" x2="227.5" y1="1737.1406" y2="1757.1406"/><polygon fill="#181818" points="223.5,1747.1406,227.5,1757.1406,231.5,1747.1406,227.5,1751.1406" style="stroke:#181818;stroke-width:1.0;"/><line style="stroke:#181818;stroke-width:1.0;" x1="227.5" x2="227.5" y1="1590.9063" y2="1649.2031"/><polygon fill="#181818" points="223.5,1639.2031,227.5,1649.2031,231.5,1639.2031,227.5,1643.2031" style="stroke:#181818;stroke-width:1.0;"/><line style="stroke:#181818;stroke-width:1.0;" x1="227.5" x2="227.5" y1="1883.375" y2="1903.375"/><polygon fill="#181818" points="223.5,1893.375,227.5,1903.375,231.5,1893.375,227.5,1897.375" style="stroke:#181818;stroke-width:1.0;"/><line style="stroke:#181818;stroke-width:1.0;" x1="227.5" x2="227.5" y1="1937.3438" y2="1957.3438"/><polygon fill="#181818" points="223.5,1947.3438,227.5,1957.3438,231.5,1947.3438,227.5,1951.3438" style="stroke:#181818;stroke-width:1.0;"/><line style="stroke:#181818;stroke-width:1.0;" x1="227.5" x2="227.5" y1="1991.3125" y2="2011.3125"/><polygon fill="#181818" points="223.5,2001.3125,227.5,2011.3125,231.5,2001.3125,227.5,2005.3125" style="stroke:#181818;stroke-width:1.0;"/><line style="stroke:#181818;stroke-width:1.0;" x1="227.5" x2="227.5" y1="1791.1094" y2="1849.4063"/><polygon fill="#181818" points="223.5,1839.4063,227.5,1849.4063,231.5,1839.4063,227.5,1843.4063" style="stroke:#181818;stroke-width:1.0;"/><line style="stroke:#181818;stroke-width:1.0;" x1="227.5" x2="227.5" y1="2045.2813" y2="2077.2813"/><polygon fill="#181818" points="223.5,2067.2813,227.5,2077.2813,231.5,2067.2813,227.5,2071.2813" style="stroke:#181818;stroke-width:1.0;"/><line style="stroke:#181818;stroke-width:1.0;" x1="227.5" x2="227.5" y1="208.2344" y2="228.2344"/><polygon fill="#181818" points="223.5,218.2344,227.5,228.2344,231.5,218.2344,227.5,222.2344" style="stroke:#181818;stroke-width:1.0;"/><line style="stroke:#181818;stroke-width:1.0;" x1="330.5" x2="446" y1="2143.25" y2="2143.25"/><polygon fill="#181818" points="442,1186.7422,446,1176.7422,450,1186.7422,446,1182.7422" style="stroke:#181818;stroke-width:1.0;"/><line style="stroke:#181818;stroke-width:1.0;" x1="446" x2="446" y1="196.2344" y2="2143.25"/><line style="stroke:#181818;stroke-width:1.0;" x1="446" x2="239.5" y1="196.2344" y2="196.2344"/><polygon fill="#181818" points="249.5,192.2344,239.5,196.2344,249.5,200.2344,245.5,196.2344" style="stroke:#181818;stroke-width:1.0;"/><line style="stroke:#181818;stroke-width:1.0;" x1="227.5" x2="227.5" y1="2111.25" y2="2131.25"/><polygon fill="#181818" points="223.5,2121.25,227.5,2131.25,231.5,2121.25,227.5,2125.25" style="stroke:#181818;stroke-width:1.0;"/><line style="stroke:#181818;stroke-width:1.0;" x1="227.5" x2="227.5" y1="164.2344" y2="184.2344"/><polygon fill="#181818" points="223.5,174.2344,227.5,184.2344,231.5,174.2344,227.5,178.2344" style="stroke:#181818;stroke-width:1.0;"/><line style="stroke:#181818;stroke-width:1.0;" x1="227.5" x2="227.5" y1="2155.25" y2="2175.25"/><polygon fill="#181818" points="223.5,2165.25,227.5,2175.25,231.5,2165.25,227.5,2169.25" style="stroke:#181818;stroke-width:1.0;"/><line style="stroke:#181818;stroke-width:1.0;" x1="227.5" x2="227.5" y1="83.9688" y2="130.2656"/><polygon fill="#181818" points="223.5,120.2656,227.5,130.2656,231.5,120.2656,227.5,124.2656" style="stroke:#181818;stroke-width:1.0;"/><!--SRC=[bLR1Rjim3BttAuXSkg7vWkQq5KDHOC205hi5A1IBIOJAaY7BwO8j_pwAbkt8iTMqG8lQudjyV2Hj0m3KNZX_G_-05XlKeAsjNYLwBBoovbNedNNAxqiEkNyoLUD1AaV7A67dHBLVyL55D2f0OF6JAA2dW9vY0Nyvb9aUqSFBmmCKjgoiGUDhiDjpml3Zi4BX-yip2GaKX95Zw4ZJWz15euN7KSAWzLnNdsO0A0CeTyZXITfL3hLWOw6oYZ8j0ZOucuLOgklgJAqDvqcMOpzdN1avyzsXUEDOf5-cWY9gee0fSqQwMyr-BmX8P7HdkjInGtq-yYVaNsnOoeUMCS-lnWS30aV0daCxP3XOcslLdIuztYhjqJ4_JQ8M1QPvtccgGJPbUOptyH2CNnkrfOHu1E6GqDnOOoKkwQyFyqIDMWQLT1OAODX4ZsEDtEHbjjIruGPUKUffTaDQHDrisg79RuUjZZ4i96QtXydBpjitAUFOTZFt8vGF1wIG0klPWHk00m3_WBU3vhcPQqiBRM3e2xREdR6jJQHhQcLsbw7AK7dXXE_Mgtc9QKMV4aYJaIJjgKRgnd6aTcTpuawvXZnZQG_T5aki2wSsWKpFD9yLHn0fkKkVMsbhsobTPJccfnQspfPPqo9yS88fIkMSTRIluJ2kH9uWaPyib-Zy3_GhkEQH4Jd3jaT1Uy7Nv3WzB3QYU0i3CVCkY0k_LKReC3J98YwpQ_EvBUTND1DCh_SGrMRX9rqlI4Y9SaB-xqh6CRwxtA2URBxkcP3Jno_rDhE4HzR7QdkooGhdfHRMcFRhXlgK4nrRhNihR-liq1AWw0MtHd9u4xKdRirjScTL1vh8bTfr_znaFydewkAHpyd_ZRx2u7slDCANyKU6GtwhOLdvuzURiSws8PtQj36tiRxJVm00]--></g></svg>