<?xml version="1.0" encoding="us-ascii" standalone="no"?><svg xmlns="http://www.w3.org/2000/svg" xmlns:xlink="http://www.w3.org/1999/xlink" contentStyleType="text/css" height="2310px" preserveAspectRatio="none" style="width:678px;height:2310px;background:#FFFFFF;" version="1.1" viewBox="0 0 678 2310" width="678px" zoomAndPan="magnify"><defs/><g><ellipse cx="330" cy="20" fill="#222222" rx="10" ry="10" style="stroke:#222222;stroke-width:1.0;"/><rect fill="#F1F1F1" height="33.9688" rx="12.5" ry="12.5" style="stroke:#181818;stroke-width:0.5;" width="149" x="255.5" y="50"/><text fill="#000000" font-family="sans-serif" font-size="12" lengthAdjust="spacing" textLength="129" x="265.5" y="71.1387">Input directed graph</text><rect fill="none" height="2205.5469" style="stroke:#000000;stroke-width:1.5;" width="656" x="11" y="93.9688"/><path d="M193,93.9688 L193,103.2656 L183,113.2656 L11,113.2656 " fill="none" style="stroke:#000000;stroke-width:1.5;"/><text fill="#000000" font-family="sans-serif" font-size="14" lengthAdjust="spacing" textLength="172" x="14" y="107.9639">Loop detection algorithm</text><rect fill="#F1F1F1" height="33.9688" rx="12.5" ry="12.5" style="stroke:#181818;stroke-width:0.5;" width="209" x="225.5" y="130.2656"/><text fill="#000000" font-family="sans-serif" font-size="12" lengthAdjust="spacing" textLength="189" x="235.5" y="151.4043">Get SCC components of graph</text><rect fill="#F1F1F1" height="33.9688" rx="12.5" ry="12.5" style="stroke:#181818;stroke-width:0.5;" width="224" x="218" y="228.2344"/><text fill="#000000" font-family="sans-serif" font-size="12" lengthAdjust="spacing" textLength="204" x="228" y="249.373">Input SCC component and graph</text><rect fill="none" height="526.2813" style="stroke:#000000;stroke-width:1.5;" width="367" x="146.5" y="272.2031"/><path d="M366.5,272.2031 L366.5,281.5 L356.5,291.5 L146.5,291.5 " fill="none" style="stroke:#000000;stroke-width:1.5;"/><text fill="#000000" font-family="sans-serif" font-size="14" lengthAdjust="spacing" textLength="210" x="149.5" y="286.1982">Calculate components of Loop</text><rect fill="#F1F1F1" height="33.9688" rx="12.5" ry="12.5" style="stroke:#181818;stroke-width:0.5;" width="255" x="202.5" y="308.5"/><text fill="#000000" font-family="sans-serif" font-size="12" lengthAdjust="spacing" textLength="235" x="212.5" y="329.6387">Calculate in edges of SCC component</text><rect fill="#F1F1F1" height="33.9688" rx="12.5" ry="12.5" style="stroke:#181818;stroke-width:0.5;" width="212" x="224" y="362.4688"/><text fill="#000000" font-family="sans-serif" font-size="12" lengthAdjust="spacing" textLength="192" x="234" y="383.6074">Calculate "start points" of loop</text><rect fill="#F1F1F1" height="33.9688" rx="12.5" ry="12.5" style="stroke:#181818;stroke-width:0.5;" width="265" x="197.5" y="416.4375"/><text fill="#000000" font-family="sans-serif" font-size="12" lengthAdjust="spacing" textLength="245" x="207.5" y="437.5762">Calculate out edges of SCC component</text><rect fill="#F1F1F1" height="33.9688" rx="12.5" ry="12.5" style="stroke:#181818;stroke-width:0.5;" width="312" x="174" y="470.4063"/><text fill="#000000" font-family="sans-serif" font-size="12" lengthAdjust="spacing" textLength="292" x="184" y="491.5449">Input start points, SCC components and graph</text><rect fill="none" height="204.1719" style="stroke:#000000;stroke-width:1.5;" width="347" x="156.5" y="514.375"/><path d="M383.5,514.375 L383.5,523.6719 L373.5,533.6719 L156.5,533.6719 " fill="none" style="stroke:#000000;stroke-width:1.5;"/><text fill="#000000" font-family="sans-serif" font-size="14" lengthAdjust="spacing" textLength="217" x="159.5" y="528.3701">Break and end point calculation</text><rect fill="#F1F1F1" height="33.9688" rx="12.5" ry="12.5" style="stroke:#181818;stroke-width:0.5;" width="227" x="216.5" y="550.6719"/><text fill="#000000" font-family="sans-serif" font-size="12" lengthAdjust="spacing" textLength="207" x="226.5" y="571.8105">Calculate edges that create loop</text><rect fill="#F1F1F1" height="33.9688" rx="12.5" ry="12.5" style="stroke:#181818;stroke-width:0.5;" width="327" x="166.5" y="604.6406"/><text fill="#000000" font-family="sans-serif" font-size="12" lengthAdjust="spacing" textLength="307" x="176.5" y="625.7793">Calculate "end points" and "break points" of loop</text><rect fill="#F1F1F1" height="47.9375" rx="12.5" ry="12.5" style="stroke:#181818;stroke-width:0.5;" width="277" x="191.5" y="658.6094"/><text fill="#000000" font-family="sans-serif" font-size="12" lengthAdjust="spacing" textLength="257" x="201.5" y="679.748">Output end and break points of loop and</text><text fill="#000000" font-family="sans-serif" font-size="12" lengthAdjust="spacing" textLength="145" x="201.5" y="693.7168">edges that create loop</text><rect fill="#F1F1F1" height="47.9375" rx="12.5" ry="12.5" style="stroke:#181818;stroke-width:0.5;" width="287" x="186.5" y="738.5469"/><text fill="#000000" font-family="sans-serif" font-size="12" lengthAdjust="spacing" textLength="267" x="196.5" y="759.6855">Output start, end and break points of loop</text><text fill="#000000" font-family="sans-serif" font-size="12" lengthAdjust="spacing" textLength="173" x="196.5" y="773.6543">and edges that create loop</text><rect fill="none" height="872.7188" style="stroke:#000000;stroke-width:1.5;" width="618" x="21" y="808.4844"/><path d="M206,808.4844 L206,817.7813 L196,827.7813 L21,827.7813 " fill="none" style="stroke:#000000;stroke-width:1.5;"/><text fill="#000000" font-family="sans-serif" font-size="14" lengthAdjust="spacing" textLength="175" x="24" y="822.4795">Create sub graph of Loop</text><rect fill="#F1F1F1" height="33.9688" rx="12.5" ry="12.5" style="stroke:#181818;stroke-width:0.5;" width="232" x="214" y="844.7813"/><text fill="#000000" font-family="sans-serif" font-size="12" lengthAdjust="spacing" textLength="212" x="224" y="865.9199">Copy graph and loop components</text><rect fill="none" height="272.1094" style="stroke:#000000;stroke-width:1.5;" width="330" x="165" y="888.75"/><path d="M399,888.75 L399,898.0469 L389,908.0469 L165,908.0469 " fill="none" style="stroke:#000000;stroke-width:1.5;"/><text fill="#000000" font-family="sans-serif" font-size="14" lengthAdjust="spacing" textLength="224" x="168" y="902.7451">Add start and end Event vertices</text><rect fill="#F1F1F1" height="33.9688" rx="12.5" ry="12.5" style="stroke:#181818;stroke-width:0.5;" width="244" x="208" y="925.0469"/><text fill="#000000" font-family="sans-serif" font-size="12" lengthAdjust="spacing" textLength="224" x="218" y="946.1855">Add start Event vertex to sub graph</text><rect fill="#F1F1F1" height="47.9375" rx="12.5" ry="12.5" style="stroke:#181818;stroke-width:0.5;" width="310" x="175" y="979.0156"/><text fill="#000000" font-family="sans-serif" font-size="12" lengthAdjust="spacing" textLength="223" x="185" y="1000.1543">Create out EventSets of start Event</text><text fill="#000000" font-family="sans-serif" font-size="12" lengthAdjust="spacing" textLength="290" x="185" y="1014.123">vertex using out EventSets of incoming Events</text><rect fill="#F1F1F1" height="33.9688" rx="12.5" ry="12.5" style="stroke:#181818;stroke-width:0.5;" width="238" x="211" y="1046.9531"/><text fill="#000000" font-family="sans-serif" font-size="12" lengthAdjust="spacing" textLength="218" x="221" y="1068.0918">Add end Event vertex to sub graph</text><rect fill="#F1F1F1" height="47.9375" rx="12.5" ry="12.5" style="stroke:#181818;stroke-width:0.5;" width="300" x="180" y="1100.9219"/><text fill="#000000" font-family="sans-serif" font-size="12" lengthAdjust="spacing" textLength="207" x="190" y="1122.0605">Create in EventSets of end Event</text><text fill="#000000" font-family="sans-serif" font-size="12" lengthAdjust="spacing" textLength="280" x="190" y="1136.0293">vertex using in EventSets of outgoing Events</text><rect fill="none" height="244.1719" style="stroke:#000000;stroke-width:1.5;" width="351" x="154.5" y="1170.8594"/><path d="M379.5,1170.8594 L379.5,1180.1563 L369.5,1190.1563 L154.5,1190.1563 " fill="none" style="stroke:#000000;stroke-width:1.5;"/><text fill="#000000" font-family="sans-serif" font-size="14" lengthAdjust="spacing" textLength="215" x="157.5" y="1184.8545">Remove edges describing loop</text><rect fill="#F1F1F1" height="33.9688" rx="12.5" ry="12.5" style="stroke:#181818;stroke-width:0.5;" width="315" x="172.5" y="1207.1563"/><text fill="#000000" font-family="sans-serif" font-size="12" lengthAdjust="spacing" textLength="295" x="182.5" y="1228.2949">Remove in + out edges of start and end points</text><rect fill="#F1F1F1" height="33.9688" rx="12.5" ry="12.5" style="stroke:#181818;stroke-width:0.5;" width="291" x="184.5" y="1261.125"/><text fill="#000000" font-family="sans-serif" font-size="12" lengthAdjust="spacing" textLength="271" x="194.5" y="1282.2637">Remove edges that create loop from graph</text><rect fill="#F1F1F1" height="33.9688" rx="12.5" ry="12.5" style="stroke:#181818;stroke-width:0.5;" width="308" x="176" y="1315.0938"/><text fill="#000000" font-family="sans-serif" font-size="12" lengthAdjust="spacing" textLength="288" x="186" y="1336.2324">Remove EventSets that mirror removed edges</text><rect fill="#F1F1F1" height="33.9688" rx="12.5" ry="12.5" style="stroke:#181818;stroke-width:0.5;" width="331" x="164.5" y="1369.0625"/><text fill="#000000" font-family="sans-serif" font-size="12" lengthAdjust="spacing" textLength="311" x="174.5" y="1390.2012">Remove out edges of break points and EventSets</text><rect fill="#F1F1F1" height="33.9688" rx="12.5" ry="12.5" style="stroke:#181818;stroke-width:0.5;" width="311" x="174.5" y="1435.0313"/><text fill="#000000" font-family="sans-serif" font-size="12" lengthAdjust="spacing" textLength="291" x="184.5" y="1456.1699">Remove nodes that have no path back to loop</text><rect fill="none" height="136.2344" style="stroke:#000000;stroke-width:1.5;" width="598" x="31" y="1479"/><path d="M239,1479 L239,1488.2969 L229,1498.2969 L31,1498.2969 " fill="none" style="stroke:#000000;stroke-width:1.5;"/><text fill="#000000" font-family="sans-serif" font-size="14" lengthAdjust="spacing" textLength="198" x="34" y="1492.9951">Get disconnected sub graph</text><rect fill="#F1F1F1" height="33.9688" rx="12.5" ry="12.5" style="stroke:#181818;stroke-width:0.5;" width="578" x="41" y="1515.2969"/><text fill="#000000" font-family="sans-serif" font-size="12" lengthAdjust="spacing" textLength="558" x="51" y="1536.4355">Get disconnected sub graph by finding disconnected components containing loop nodes</text><rect fill="#F1F1F1" height="33.9688" rx="12.5" ry="12.5" style="stroke:#181818;stroke-width:0.5;" width="220" x="220" y="1569.2656"/><text fill="#000000" font-family="sans-serif" font-size="12" lengthAdjust="spacing" textLength="200" x="230" y="1590.4043">Output disconnected sub graph</text><rect fill="#F1F1F1" height="33.9688" rx="12.5" ry="12.5" style="stroke:#181818;stroke-width:0.5;" width="207" x="226.5" y="1635.2344"/><text fill="#000000" font-family="sans-serif" font-size="12" lengthAdjust="spacing" textLength="187" x="236.5" y="1656.373">Output final subgraph of Loop</text><rect fill="none" height="190.2031" style="stroke:#000000;stroke-width:1.5;" width="292" x="184" y="1691.2031"/><path d="M321,1691.2031 L321,1700.5 L311,1710.5 L184,1710.5 " fill="none" style="stroke:#000000;stroke-width:1.5;"/><text fill="#000000" font-family="sans-serif" font-size="14" lengthAdjust="spacing" textLength="127" x="187" y="1705.1982">Create Loop Event</text><rect fill="#F1F1F1" height="33.9688" rx="12.5" ry="12.5" style="stroke:#181818;stroke-width:0.5;" width="268" x="196" y="1727.5"/><text fill="#000000" font-family="sans-serif" font-size="12" lengthAdjust="spacing" textLength="248" x="206" y="1748.6387">Create LoopEvent with subgraph added</text><rect fill="#F1F1F1" height="33.9688" rx="12.5" ry="12.5" style="stroke:#181818;stroke-width:0.5;" width="272" x="194" y="1781.4688"/><text fill="#000000" font-family="sans-serif" font-size="12" lengthAdjust="spacing" textLength="252" x="204" y="1802.6074">Update in + out EventSets of LoopEvent</text><rect fill="#F1F1F1" height="33.9688" rx="12.5" ry="12.5" style="stroke:#181818;stroke-width:0.5;" width="132" x="264" y="1835.4375"/><text fill="#000000" font-family="sans-serif" font-size="12" lengthAdjust="spacing" textLength="112" x="274" y="1856.5762">Output LoopEvent</text><rect fill="none" height="244.1719" style="stroke:#000000;stroke-width:1.5;" width="372" x="144" y="1891.4063"/><path d="M435,1891.4063 L435,1900.7031 L425,1910.7031 L144,1910.7031 " fill="none" style="stroke:#000000;stroke-width:1.5;"/><text fill="#000000" font-family="sans-serif" font-size="14" lengthAdjust="spacing" textLength="281" x="147" y="1905.4014">Calculate Updated Graph with LoopEvent</text><rect fill="#F1F1F1" height="33.9688" rx="12.5" ry="12.5" style="stroke:#181818;stroke-width:0.5;" width="344" x="158" y="1927.7031"/><text fill="#000000" font-family="sans-serif" font-size="12" lengthAdjust="spacing" textLength="324" x="168" y="1948.8418">Update in + out EventSets connected to LoopEvent</text><rect fill="#F1F1F1" height="33.9688" rx="12.5" ry="12.5" style="stroke:#181818;stroke-width:0.5;" width="222" x="219" y="1981.6719"/><text fill="#000000" font-family="sans-serif" font-size="12" lengthAdjust="spacing" textLength="202" x="229" y="2002.8105">Remove loop Event's from graph</text><rect fill="#F1F1F1" height="33.9688" rx="12.5" ry="12.5" style="stroke:#181818;stroke-width:0.5;" width="352" x="154" y="2035.6406"/><text fill="#000000" font-family="sans-serif" font-size="12" lengthAdjust="spacing" textLength="332" x="164" y="2056.7793">Recalculate graph from updated EventSets of Events</text><rect fill="#F1F1F1" height="33.9688" rx="12.5" ry="12.5" style="stroke:#181818;stroke-width:0.5;" width="161" x="249.5" y="2089.6094"/><text fill="#000000" font-family="sans-serif" font-size="12" lengthAdjust="spacing" textLength="141" x="259.5" y="2110.748">Output updated graph</text><rect fill="#F1F1F1" height="33.9688" style="stroke:#181818;stroke-width:0.5;" width="388" x="136" y="2155.5781"/><line style="stroke:#181818;stroke-width:0.5;" x1="141" x2="141" y1="2155.5781" y2="2189.5469"/><line style="stroke:#181818;stroke-width:0.5;" x1="519" x2="519" y1="2155.5781" y2="2189.5469"/><text fill="#000000" font-family="sans-serif" font-size="12" lengthAdjust="spacing" textLength="368" x="146" y="2176.7168">Run "Loop detection algorithm" on sub graph of LoopEvent</text><polygon fill="#F1F1F1" points="330,184.2344,342,196.2344,330,208.2344,318,196.2344,330,184.2344" style="stroke:#181818;stroke-width:0.5;"/><polygon fill="#F1F1F1" points="239,2209.5469,421,2209.5469,433,2221.5469,421,2233.5469,239,2233.5469,227,2221.5469,239,2209.5469" style="stroke:#181818;stroke-width:0.5;"/><text fill="#000000" font-family="sans-serif" font-size="11" lengthAdjust="spacing" textLength="182" x="239" y="2225.355">SCC components are not empty</text><rect fill="#F1F1F1" height="33.9688" rx="12.5" ry="12.5" style="stroke:#181818;stroke-width:0.5;" width="270" x="195" y="2253.5469"/><text fill="#000000" font-family="sans-serif" font-size="12" lengthAdjust="spacing" textLength="250" x="205" y="2274.6855">Output Graph updated with LoopEvent's</text><line style="stroke:#181818;stroke-width:1.0;" x1="330" x2="330" y1="30" y2="50"/><polygon fill="#181818" points="326,40,330,50,334,40,330,44" style="stroke:#181818;stroke-width:1.0;"/><line style="stroke:#181818;stroke-width:1.0;" x1="330" x2="330" y1="342.4688" y2="362.4688"/><polygon fill="#181818" points="326,352.4688,330,362.4688,334,352.4688,330,356.4688" style="stroke:#181818;stroke-width:1.0;"/><line style="stroke:#181818;stroke-width:1.0;" x1="330" x2="330" y1="396.4375" y2="416.4375"/><polygon fill="#181818" points="326,406.4375,330,416.4375,334,406.4375,330,410.4375" style="stroke:#181818;stroke-width:1.0;"/><line style="stroke:#181818;stroke-width:1.0;" x1="330" x2="330" y1="450.4063" y2="470.4063"/><polygon fill="#181818" points="326,460.4063,330,470.4063,334,460.4063,330,464.4063" style="stroke:#181818;stroke-width:1.0;"/><line style="stroke:#181818;stroke-width:1.0;" x1="330" x2="330" y1="584.6406" y2="604.6406"/><polygon fill="#181818" points="326,594.6406,330,604.6406,334,594.6406,330,598.6406" style="stroke:#181818;stroke-width:1.0;"/><line style="stroke:#181818;stroke-width:1.0;" x1="330" x2="330" y1="638.6094" y2="658.6094"/><polygon fill="#181818" points="326,648.6094,330,658.6094,334,648.6094,330,652.6094" style="stroke:#181818;stroke-width:1.0;"/><line style="stroke:#181818;stroke-width:1.0;" x1="330" x2="330" y1="504.375" y2="550.6719"/><polygon fill="#181818" points="326,540.6719,330,550.6719,334,540.6719,330,544.6719" style="stroke:#181818;stroke-width:1.0;"/><line style="stroke:#181818;stroke-width:1.0;" x1="330" x2="330" y1="706.5469" y2="738.5469"/><polygon fill="#181818" points="326,728.5469,330,738.5469,334,728.5469,330,732.5469" style="stroke:#181818;stroke-width:1.0;"/><line style="stroke:#181818;stroke-width:1.0;" x1="330" x2="330" y1="262.2031" y2="308.5"/><polygon fill="#181818" points="326,298.5,330,308.5,334,298.5,330,302.5" style="stroke:#181818;stroke-width:1.0;"/><line style="stroke:#181818;stroke-width:1.0;" x1="330" x2="330" y1="959.0156" y2="979.0156"/><polygon fill="#181818" points="326,969.0156,330,979.0156,334,969.0156,330,973.0156" style="stroke:#181818;stroke-width:1.0;"/><line style="stroke:#181818;stroke-width:1.0;" x1="330" x2="330" y1="1026.9531" y2="1046.9531"/><polygon fill="#181818" points="326,1036.9531,330,1046.9531,334,1036.9531,330,1040.9531" style="stroke:#181818;stroke-width:1.0;"/><line style="stroke:#181818;stroke-width:1.0;" x1="330" x2="330" y1="1080.9219" y2="1100.9219"/><polygon fill="#181818" points="326,1090.9219,330,1100.9219,334,1090.9219,330,1094.9219" style="stroke:#181818;stroke-width:1.0;"/><line style="stroke:#181818;stroke-width:1.0;" x1="330" x2="330" y1="878.75" y2="925.0469"/><polygon fill="#181818" points="326,915.0469,330,925.0469,334,915.0469,330,919.0469" style="stroke:#181818;stroke-width:1.0;"/><line style="stroke:#181818;stroke-width:1.0;" x1="330" x2="330" y1="1241.125" y2="1261.125"/><polygon fill="#181818" points="326,1251.125,330,1261.125,334,1251.125,330,1255.125" style="stroke:#181818;stroke-width:1.0;"/><line style="stroke:#181818;stroke-width:1.0;" x1="330" x2="330" y1="1295.0938" y2="1315.0938"/><polygon fill="#181818" points="326,1305.0938,330,1315.0938,334,1305.0938,330,1309.0938" style="stroke:#181818;stroke-width:1.0;"/><line style="stroke:#181818;stroke-width:1.0;" x1="330" x2="330" y1="1349.0625" y2="1369.0625"/><polygon fill="#181818" points="326,1359.0625,330,1369.0625,334,1359.0625,330,1363.0625" style="stroke:#181818;stroke-width:1.0;"/><line style="stroke:#181818;stroke-width:1.0;" x1="330" x2="330" y1="1148.8594" y2="1207.1563"/><polygon fill="#181818" points="326,1197.1563,330,1207.1563,334,1197.1563,330,1201.1563" style="stroke:#181818;stroke-width:1.0;"/><line style="stroke:#181818;stroke-width:1.0;" x1="330" x2="330" y1="1403.0313" y2="1435.0313"/><polygon fill="#181818" points="326,1425.0313,330,1435.0313,334,1425.0313,330,1429.0313" style="stroke:#181818;stroke-width:1.0;"/><line style="stroke:#181818;stroke-width:1.0;" x1="330" x2="330" y1="1549.2656" y2="1569.2656"/><polygon fill="#181818" points="326,1559.2656,330,1569.2656,334,1559.2656,330,1563.2656" style="stroke:#181818;stroke-width:1.0;"/><line style="stroke:#181818;stroke-width:1.0;" x1="330" x2="330" y1="1469" y2="1515.2969"/><polygon fill="#181818" points="326,1505.2969,330,1515.2969,334,1505.2969,330,1509.2969" style="stroke:#181818;stroke-width:1.0;"/><line style="stroke:#181818;stroke-width:1.0;" x1="330" x2="330" y1="1603.2344" y2="1635.2344"/><polygon fill="#181818" points="326,1625.2344,330,1635.2344,334,1625.2344,330,1629.2344" style="stroke:#181818;stroke-width:1.0;"/><line style="stroke:#181818;stroke-width:1.0;" x1="330" x2="330" y1="786.4844" y2="844.7813"/><polygon fill="#181818" points="326,834.7813,330,844.7813,334,834.7813,330,838.7813" style="stroke:#181818;stroke-width:1.0;"/><line style="stroke:#181818;stroke-width:1.0;" x1="330" x2="330" y1="1761.4688" y2="1781.4688"/><polygon fill="#181818" points="326,1771.4688,330,1781.4688,334,1771.4688,330,1775.4688" style="stroke:#181818;stroke-width:1.0;"/><line style="stroke:#181818;stroke-width:1.0;" x1="330" x2="330" y1="1815.4375" y2="1835.4375"/><polygon fill="#181818" points="326,1825.4375,330,1835.4375,334,1825.4375,330,1829.4375" style="stroke:#181818;stroke-width:1.0;"/><line style="stroke:#181818;stroke-width:1.0;" x1="330" x2="330" y1="1669.2031" y2="1727.5"/><polygon fill="#181818" points="326,1717.5,330,1727.5,334,1717.5,330,1721.5" style="stroke:#181818;stroke-width:1.0;"/><line style="stroke:#181818;stroke-width:1.0;" x1="330" x2="330" y1="1961.6719" y2="1981.6719"/><polygon fill="#181818" points="326,1971.6719,330,1981.6719,334,1971.6719,330,1975.6719" style="stroke:#181818;stroke-width:1.0;"/><line style="stroke:#181818;stroke-width:1.0;" x1="330" x2="330" y1="2015.6406" y2="2035.6406"/><polygon fill="#181818" points="326,2025.6406,330,2035.6406,334,2025.6406,330,2029.6406" style="stroke:#181818;stroke-width:1.0;"/><line style="stroke:#181818;stroke-width:1.0;" x1="330" x2="330" y1="2069.6094" y2="2089.6094"/><polygon fill="#181818" points="326,2079.6094,330,2089.6094,334,2079.6094,330,2083.6094" style="stroke:#181818;stroke-width:1.0;"/><line style="stroke:#181818;stroke-width:1.0;" x1="330" x2="330" y1="1869.4063" y2="1927.7031"/><polygon fill="#181818" points="326,1917.7031,330,1927.7031,334,1917.7031,330,1921.7031" style="stroke:#181818;stroke-width:1.0;"/><line style="stroke:#181818;stroke-width:1.0;" x1="330" x2="330" y1="2123.5781" y2="2155.5781"/><polygon fill="#181818" points="326,2145.5781,330,2155.5781,334,2145.5781,330,2149.5781" style="stroke:#181818;stroke-width:1.0;"/><line style="stroke:#181818;stroke-width:1.0;" x1="330" x2="330" y1="208.2344" y2="228.2344"/><polygon fill="#181818" points="326,218.2344,330,228.2344,334,218.2344,330,222.2344" style="stroke:#181818;stroke-width:1.0;"/><line style="stroke:#181818;stroke-width:1.0;" x1="433" x2="651" y1="2221.5469" y2="2221.5469"/><polygon fill="#181818" points="647,1224.3906,651,1214.3906,655,1224.3906,651,1220.3906" style="stroke:#181818;stroke-width:1.0;"/><line style="stroke:#181818;stroke-width:1.0;" x1="651" x2="651" y1="196.2344" y2="2221.5469"/><line style="stroke:#181818;stroke-width:1.0;" x1="651" x2="342" y1="196.2344" y2="196.2344"/><polygon fill="#181818" points="352,192.2344,342,196.2344,352,200.2344,348,196.2344" style="stroke:#181818;stroke-width:1.0;"/><line style="stroke:#181818;stroke-width:1.0;" x1="330" x2="330" y1="2189.5469" y2="2209.5469"/><polygon fill="#181818" points="326,2199.5469,330,2209.5469,334,2199.5469,330,2203.5469" style="stroke:#181818;stroke-width:1.0;"/><line style="stroke:#181818;stroke-width:1.0;" x1="330" x2="330" y1="164.2344" y2="184.2344"/><polygon fill="#181818" points="326,174.2344,330,184.2344,334,174.2344,330,178.2344" style="stroke:#181818;stroke-width:1.0;"/><line style="stroke:#181818;stroke-width:1.0;" x1="330" x2="330" y1="2233.5469" y2="2253.5469"/><polygon fill="#181818" points="326,2243.5469,330,2253.5469,334,2243.5469,330,2247.5469" style="stroke:#181818;stroke-width:1.0;"/><line style="stroke:#181818;stroke-width:1.0;" x1="330" x2="330" y1="83.9688" y2="130.2656"/><polygon fill="#181818" points="326,120.2656,330,130.2656,334,120.2656,330,124.2656" style="stroke:#181818;stroke-width:1.0;"/><!--SRC=[bLRRQkCm47tFLmnvwIxj5zHFks4fXOM5bdqB5DbI4b5RChASRjZDl-_eueiKIqqAWTgUS-RC6Maa081E4wLN-0_Kf6Grr5AsRvHfLcaknHkfzr9nVMXioEEpQ7iDb2lyp2Zi5MaFXVtK8Wqt45Z_H0eOAM2aMCDV6sgPdfY6ryq6AjcqKZ2XEv2xEQ7vKwnbH8-FCma158YWCJJIj25rrTT4ioYXqJhNDQQP05m0etjcmuEqHGwrjiP2ApbcMXkiSJOBaLZNrPcS3VCa3x6V2LSYPxuhHjvjBCEVfOBAQyA09NCYtKwpFX048Xc-MIurTcZCX_wO_ElIIldKCilpgzV60CDXi7FeW3GVjk9QTUTLAeSr-I6RQYkiWLUaEYTNg4DqVUcQbb-TiZtvC9FOLZjrFjllRvJwPJFq_CVHxA4Zmv2ATSc6Jy09mFw0bfFcLCzTQMPzM-WhSyxDsBR2q_KT5_lBK2wmFFF5lksAjCImefi4uauFaevKaReu3jNkPKxSETUG5zR8ux2BAEignKj3LYUQRnLx42gv3-T6s5gtIeiin_AgXPsIJTOq3v-Si1GDLqegdDpcezyIUO90Vh2voE2_eI_WcYthEOMaGqq7Of_HSNs0abJlPa4iZu1PKypnH7bNII7SKJSkeMHBqX0eJx3ZWfgk1X6pOOqlDU5YQBoh83_xbfFTCjbG5AaDD9WujmqiUzhRBYrFgYdAxSeFl0fCAGcbZ2uSRxzRwdVa_UKm6CcAP6M9aFFdzmENcSAJrMVLZcIB5QQbJjt19PSJxLTjFLfvrsNt7mAgKR0pqeRtNdlWLcee3LODe8LSeLsFBttsTeTF5wUNJVulkj31nu7N3Bx4znLbDYeEWwRLfw-hMAThoA0sRCoTh-_y7m00]--></g></svg>