<?xml version="1.0" encoding="us-ascii" standalone="no"?><svg xmlns="http://www.w3.org/2000/svg" xmlns:xlink="http://www.w3.org/1999/xlink" contentStyleType="text/css" height="2172px" preserveAspectRatio="none" style="width:473px;height:2172px;background:#FFFFFF;" version="1.1" viewBox="0 0 473 2172" width="473px" zoomAndPan="magnify"><defs/><g><ellipse cx="227.5" cy="20" fill="#222222" rx="10" ry="10" style="stroke:#222222;stroke-width:1.0;"/><rect fill="#F1F1F1" height="33.9688" rx="12.5" ry="12.5" style="stroke:#181818;stroke-width:0.5;" width="149" x="153" y="50"/><text fill="#000000" font-family="sans-serif" font-size="12" lengthAdjust="spacing" textLength="129" x="163" y="71.1387">Input directed graph</text><rect fill="none" height="2067.3125" style="stroke:#000000;stroke-width:1.5;" width="451" x="11" y="93.9688"/><path d="M193,93.9688 L193,103.2656 L183,113.2656 L11,113.2656 " fill="none" style="stroke:#000000;stroke-width:1.5;"/><text fill="#000000" font-family="sans-serif" font-size="14" lengthAdjust="spacing" textLength="172" x="14" y="107.9639">Loop detection algorithm</text><rect fill="#F1F1F1" height="33.9688" rx="12.5" ry="12.5" style="stroke:#181818;stroke-width:0.5;" width="209" x="123" y="130.2656"/><text fill="#000000" font-family="sans-serif" font-size="12" lengthAdjust="spacing" textLength="189" x="133" y="151.4043">Get SCC components of graph</text><rect fill="#F1F1F1" height="33.9688" rx="12.5" ry="12.5" style="stroke:#181818;stroke-width:0.5;" width="224" x="115.5" y="228.2344"/><text fill="#000000" font-family="sans-serif" font-size="12" lengthAdjust="spacing" textLength="204" x="125.5" y="249.373">Input SCC component and graph</text><rect fill="none" height="526.2813" style="stroke:#000000;stroke-width:1.5;" width="367" x="44" y="272.2031"/><path d="M264,272.2031 L264,281.5 L254,291.5 L44,291.5 " fill="none" style="stroke:#000000;stroke-width:1.5;"/><text fill="#000000" font-family="sans-serif" font-size="14" lengthAdjust="spacing" textLength="210" x="47" y="286.1982">Calculate components of Loop</text><rect fill="#F1F1F1" height="33.9688" rx="12.5" ry="12.5" style="stroke:#181818;stroke-width:0.5;" width="255" x="100" y="308.5"/><text fill="#000000" font-family="sans-serif" font-size="12" lengthAdjust="spacing" textLength="235" x="110" y="329.6387">Calculate in edges of SCC component</text><rect fill="#F1F1F1" height="33.9688" rx="12.5" ry="12.5" style="stroke:#181818;stroke-width:0.5;" width="212" x="121.5" y="362.4688"/><text fill="#000000" font-family="sans-serif" font-size="12" lengthAdjust="spacing" textLength="192" x="131.5" y="383.6074">Calculate "start points" of loop</text><rect fill="#F1F1F1" height="33.9688" rx="12.5" ry="12.5" style="stroke:#181818;stroke-width:0.5;" width="265" x="95" y="416.4375"/><text fill="#000000" font-family="sans-serif" font-size="12" lengthAdjust="spacing" textLength="245" x="105" y="437.5762">Calculate out edges of SCC component</text><rect fill="#F1F1F1" height="33.9688" rx="12.5" ry="12.5" style="stroke:#181818;stroke-width:0.5;" width="312" x="71.5" y="470.4063"/><text fill="#000000" font-family="sans-serif" font-size="12" lengthAdjust="spacing" textLength="292" x="81.5" y="491.5449">Input start points, SCC components and graph</text><rect fill="none" height="204.1719" style="stroke:#000000;stroke-width:1.5;" width="347" x="54" y="514.375"/><path d="M281,514.375 L281,523.6719 L271,533.6719 L54,533.6719 " fill="none" style="stroke:#000000;stroke-width:1.5;"/><text fill="#000000" font-family="sans-serif" font-size="14" lengthAdjust="spacing" textLength="217" x="57" y="528.3701">Break and end point calculation</text><rect fill="#F1F1F1" height="33.9688" rx="12.5" ry="12.5" style="stroke:#181818;stroke-width:0.5;" width="227" x="114" y="550.6719"/><text fill="#000000" font-family="sans-serif" font-size="12" lengthAdjust="spacing" textLength="207" x="124" y="571.8105">Calculate edges that create loop</text><rect fill="#F1F1F1" height="33.9688" rx="12.5" ry="12.5" style="stroke:#181818;stroke-width:0.5;" width="327" x="64" y="604.6406"/><text fill="#000000" font-family="sans-serif" font-size="12" lengthAdjust="spacing" textLength="307" x="74" y="625.7793">Calculate "end points" and "break points" of loop</text><rect fill="#F1F1F1" height="47.9375" rx="12.5" ry="12.5" style="stroke:#181818;stroke-width:0.5;" width="277" x="89" y="658.6094"/><text fill="#000000" font-family="sans-serif" font-size="12" lengthAdjust="spacing" textLength="257" x="99" y="679.748">Output end and break points of loop and</text><text fill="#000000" font-family="sans-serif" font-size="12" lengthAdjust="spacing" textLength="145" x="99" y="693.7168">edges that create loop</text><rect fill="#F1F1F1" height="47.9375" rx="12.5" ry="12.5" style="stroke:#181818;stroke-width:0.5;" width="287" x="84" y="738.5469"/><text fill="#000000" font-family="sans-serif" font-size="12" lengthAdjust="spacing" textLength="267" x="94" y="759.6855">Output start, end and break points of loop</text><text fill="#000000" font-family="sans-serif" font-size="12" lengthAdjust="spacing" textLength="173" x="94" y="773.6543">and edges that create loop</text><rect fill="none" height="734.4844" style="stroke:#000000;stroke-width:1.5;" width="413" x="21" y="808.4844"/><path d="M206,808.4844 L206,817.7813 L196,827.7813 L21,827.7813 " fill="none" style="stroke:#000000;stroke-width:1.5;"/><text fill="#000000" font-family="sans-serif" font-size="14" lengthAdjust="spacing" textLength="175" x="24" y="822.4795">Create sub graph of Loop</text><rect fill="#F1F1F1" height="33.9688" rx="12.5" ry="12.5" style="stroke:#181818;stroke-width:0.5;" width="232" x="111.5" y="844.7813"/><text fill="#000000" font-family="sans-serif" font-size="12" lengthAdjust="spacing" textLength="212" x="121.5" y="865.9199">Copy graph and loop components</text><rect fill="none" height="280.1094" style="stroke:#000000;stroke-width:1.5;" width="330" x="62.5" y="888.75"/><path d="M296.5,888.75 L296.5,898.0469 L286.5,908.0469 L62.5,908.0469 " fill="none" style="stroke:#000000;stroke-width:1.5;"/><text fill="#000000" font-family="sans-serif" font-size="14" lengthAdjust="spacing" textLength="224" x="65.5" y="902.7451">Add start and end Event vertices</text><rect fill="#F1F1F1" height="33.9688" rx="12.5" ry="12.5" style="stroke:#181818;stroke-width:0.5;" width="244" x="105.5" y="925.0469"/><text fill="#000000" font-family="sans-serif" font-size="12" lengthAdjust="spacing" textLength="224" x="115.5" y="946.1855">Add start Event vertex to sub graph</text><rect fill="#F1F1F1" height="47.9375" rx="12.5" ry="12.5" style="stroke:#181818;stroke-width:0.5;" width="310" x="72.5" y="979.0156"/><text fill="#000000" font-family="sans-serif" font-size="12" lengthAdjust="spacing" textLength="223" x="82.5" y="1000.1543">Create out EventSets of start Event</text><text fill="#000000" font-family="sans-serif" font-size="12" lengthAdjust="spacing" textLength="290" x="82.5" y="1014.123">vertex using out EventSets of incoming Events</text><rect fill="#F1F1F1" height="33.9688" rx="12.5" ry="12.5" style="stroke:#181818;stroke-width:0.5;" width="238" x="108.5" y="1046.9531"/><text fill="#000000" font-family="sans-serif" font-size="12" lengthAdjust="spacing" textLength="218" x="118.5" y="1068.0918">Add end Event vertex to sub graph</text><rect fill="#F1F1F1" height="47.9375" rx="12.5" ry="12.5" style="stroke:#181818;stroke-width:0.5;" width="300" x="77.5" y="1100.9219"/><text fill="#000000" font-family="sans-serif" font-size="12" lengthAdjust="spacing" textLength="207" x="87.5" y="1122.0605">Create in EventSets of end Event</text><text fill="#000000" font-family="sans-serif" font-size="12" lengthAdjust="spacing" textLength="280" x="87.5" y="1136.0293">vertex using in EventSets of outgoing Events</text><rect fill="none" height="244.1719" style="stroke:#000000;stroke-width:1.5;" width="351" x="52" y="1178.8594"/><path d="M277,1178.8594 L277,1188.1563 L267,1198.1563 L52,1198.1563 " fill="none" style="stroke:#000000;stroke-width:1.5;"/><text fill="#000000" font-family="sans-serif" font-size="14" lengthAdjust="spacing" textLength="215" x="55" y="1192.8545">Remove edges describing loop</text><rect fill="#F1F1F1" height="33.9688" rx="12.5" ry="12.5" style="stroke:#181818;stroke-width:0.5;" width="315" x="70" y="1215.1563"/><text fill="#000000" font-family="sans-serif" font-size="12" lengthAdjust="spacing" textLength="295" x="80" y="1236.2949">Remove in + out edges of start and end points</text><rect fill="#F1F1F1" height="33.9688" rx="12.5" ry="12.5" style="stroke:#181818;stroke-width:0.5;" width="291" x="82" y="1269.125"/><text fill="#000000" font-family="sans-serif" font-size="12" lengthAdjust="spacing" textLength="271" x="92" y="1290.2637">Remove edges that create loop from graph</text><rect fill="#F1F1F1" height="33.9688" rx="12.5" ry="12.5" style="stroke:#181818;stroke-width:0.5;" width="308" x="73.5" y="1323.0938"/><text fill="#000000" font-family="sans-serif" font-size="12" lengthAdjust="spacing" textLength="288" x="83.5" y="1344.2324">Remove EventSets that mirror removed edges</text><rect fill="#F1F1F1" height="33.9688" rx="12.5" ry="12.5" style="stroke:#181818;stroke-width:0.5;" width="331" x="62" y="1377.0625"/><text fill="#000000" font-family="sans-serif" font-size="12" lengthAdjust="spacing" textLength="311" x="72" y="1398.2012">Remove out edges of break points and EventSets</text><rect fill="#F1F1F1" height="33.9688" rx="12.5" ry="12.5" style="stroke:#181818;stroke-width:0.5;" width="311" x="72" y="1443.0313"/><text fill="#000000" font-family="sans-serif" font-size="12" lengthAdjust="spacing" textLength="291" x="82" y="1464.1699">Remove nodes that have no path back to loop</text><rect fill="#F1F1F1" height="33.9688" rx="12.5" ry="12.5" style="stroke:#181818;stroke-width:0.5;" width="393" x="31" y="1497"/><text fill="#000000" font-family="sans-serif" font-size="12" lengthAdjust="spacing" textLength="373" x="41" y="1518.1387">Output final subgraph of Loop, start and end Event vertices</text><rect fill="none" height="190.2031" style="stroke:#000000;stroke-width:1.5;" width="292" x="81.5" y="1552.9688"/><path d="M218.5,1552.9688 L218.5,1562.2656 L208.5,1572.2656 L81.5,1572.2656 " fill="none" style="stroke:#000000;stroke-width:1.5;"/><text fill="#000000" font-family="sans-serif" font-size="14" lengthAdjust="spacing" textLength="127" x="84.5" y="1566.9639">Create Loop Event</text><rect fill="#F1F1F1" height="33.9688" rx="12.5" ry="12.5" style="stroke:#181818;stroke-width:0.5;" width="268" x="93.5" y="1589.2656"/><text fill="#000000" font-family="sans-serif" font-size="12" lengthAdjust="spacing" textLength="248" x="103.5" y="1610.4043">Create LoopEvent with subgraph added</text><rect fill="#F1F1F1" height="33.9688" rx="12.5" ry="12.5" style="stroke:#181818;stroke-width:0.5;" width="272" x="91.5" y="1643.2344"/><text fill="#000000" font-family="sans-serif" font-size="12" lengthAdjust="spacing" textLength="252" x="101.5" y="1664.373">Update in + out EventSets of LoopEvent</text><rect fill="#F1F1F1" height="33.9688" rx="12.5" ry="12.5" style="stroke:#181818;stroke-width:0.5;" width="132" x="161.5" y="1697.2031"/><text fill="#000000" font-family="sans-serif" font-size="12" lengthAdjust="spacing" textLength="112" x="171.5" y="1718.3418">Output LoopEvent</text><rect fill="none" height="244.1719" style="stroke:#000000;stroke-width:1.5;" width="372" x="41.5" y="1753.1719"/><path d="M332.5,1753.1719 L332.5,1762.4688 L322.5,1772.4688 L41.5,1772.4688 " fill="none" style="stroke:#000000;stroke-width:1.5;"/><text fill="#000000" font-family="sans-serif" font-size="14" lengthAdjust="spacing" textLength="281" x="44.5" y="1767.167">Calculate Updated Graph with LoopEvent</text><rect fill="#F1F1F1" height="33.9688" rx="12.5" ry="12.5" style="stroke:#181818;stroke-width:0.5;" width="344" x="55.5" y="1789.4688"/><text fill="#000000" font-family="sans-serif" font-size="12" lengthAdjust="spacing" textLength="324" x="65.5" y="1810.6074">Update in + out EventSets connected to LoopEvent</text><rect fill="#F1F1F1" height="33.9688" rx="12.5" ry="12.5" style="stroke:#181818;stroke-width:0.5;" width="222" x="116.5" y="1843.4375"/><text fill="#000000" font-family="sans-serif" font-size="12" lengthAdjust="spacing" textLength="202" x="126.5" y="1864.5762">Remove loop Event's from graph</text><rect fill="#F1F1F1" height="33.9688" rx="12.5" ry="12.5" style="stroke:#181818;stroke-width:0.5;" width="352" x="51.5" y="1897.4063"/><text fill="#000000" font-family="sans-serif" font-size="12" lengthAdjust="spacing" textLength="332" x="61.5" y="1918.5449">Recalculate graph from updated EventSets of Events</text><rect fill="#F1F1F1" height="33.9688" rx="12.5" ry="12.5" style="stroke:#181818;stroke-width:0.5;" width="161" x="147" y="1951.375"/><text fill="#000000" font-family="sans-serif" font-size="12" lengthAdjust="spacing" textLength="141" x="157" y="1972.5137">Output updated graph</text><rect fill="#F1F1F1" height="33.9688" style="stroke:#181818;stroke-width:0.5;" width="388" x="33.5" y="2017.3438"/><line style="stroke:#181818;stroke-width:0.5;" x1="38.5" x2="38.5" y1="2017.3438" y2="2051.3125"/><line style="stroke:#181818;stroke-width:0.5;" x1="416.5" x2="416.5" y1="2017.3438" y2="2051.3125"/><text fill="#000000" font-family="sans-serif" font-size="12" lengthAdjust="spacing" textLength="368" x="43.5" y="2038.4824">Run "Loop detection algorithm" on sub graph of LoopEvent</text><polygon fill="#F1F1F1" points="227.5,184.2344,239.5,196.2344,227.5,208.2344,215.5,196.2344,227.5,184.2344" style="stroke:#181818;stroke-width:0.5;"/><polygon fill="#F1F1F1" points="136.5,2071.3125,318.5,2071.3125,330.5,2083.3125,318.5,2095.3125,136.5,2095.3125,124.5,2083.3125,136.5,2071.3125" style="stroke:#181818;stroke-width:0.5;"/><text fill="#000000" font-family="sans-serif" font-size="11" lengthAdjust="spacing" textLength="182" x="136.5" y="2087.1206">SCC components are not empty</text><rect fill="#F1F1F1" height="33.9688" rx="12.5" ry="12.5" style="stroke:#181818;stroke-width:0.5;" width="270" x="92.5" y="2115.3125"/><text fill="#000000" font-family="sans-serif" font-size="12" lengthAdjust="spacing" textLength="250" x="102.5" y="2136.4512">Output Graph updated with LoopEvent's</text><line style="stroke:#181818;stroke-width:1.0;" x1="227.5" x2="227.5" y1="30" y2="50"/><polygon fill="#181818" points="223.5,40,227.5,50,231.5,40,227.5,44" style="stroke:#181818;stroke-width:1.0;"/><line style="stroke:#181818;stroke-width:1.0;" x1="227.5" x2="227.5" y1="342.4688" y2="362.4688"/><polygon fill="#181818" points="223.5,352.4688,227.5,362.4688,231.5,352.4688,227.5,356.4688" style="stroke:#181818;stroke-width:1.0;"/><line style="stroke:#181818;stroke-width:1.0;" x1="227.5" x2="227.5" y1="396.4375" y2="416.4375"/><polygon fill="#181818" points="223.5,406.4375,227.5,416.4375,231.5,406.4375,227.5,410.4375" style="stroke:#181818;stroke-width:1.0;"/><line style="stroke:#181818;stroke-width:1.0;" x1="227.5" x2="227.5" y1="450.4063" y2="470.4063"/><polygon fill="#181818" points="223.5,460.4063,227.5,470.4063,231.5,460.4063,227.5,464.4063" style="stroke:#181818;stroke-width:1.0;"/><line style="stroke:#181818;stroke-width:1.0;" x1="227.5" x2="227.5" y1="584.6406" y2="604.6406"/><polygon fill="#181818" points="223.5,594.6406,227.5,604.6406,231.5,594.6406,227.5,598.6406" style="stroke:#181818;stroke-width:1.0;"/><line style="stroke:#181818;stroke-width:1.0;" x1="227.5" x2="227.5" y1="638.6094" y2="658.6094"/><polygon fill="#181818" points="223.5,648.6094,227.5,658.6094,231.5,648.6094,227.5,652.6094" style="stroke:#181818;stroke-width:1.0;"/><line style="stroke:#181818;stroke-width:1.0;" x1="227.5" x2="227.5" y1="504.375" y2="550.6719"/><polygon fill="#181818" points="223.5,540.6719,227.5,550.6719,231.5,540.6719,227.5,544.6719" style="stroke:#181818;stroke-width:1.0;"/><line style="stroke:#181818;stroke-width:1.0;" x1="227.5" x2="227.5" y1="706.5469" y2="738.5469"/><polygon fill="#181818" points="223.5,728.5469,227.5,738.5469,231.5,728.5469,227.5,732.5469" style="stroke:#181818;stroke-width:1.0;"/><line style="stroke:#181818;stroke-width:1.0;" x1="227.5" x2="227.5" y1="262.2031" y2="308.5"/><polygon fill="#181818" points="223.5,298.5,227.5,308.5,231.5,298.5,227.5,302.5" style="stroke:#181818;stroke-width:1.0;"/><line style="stroke:#181818;stroke-width:1.0;" x1="227.5" x2="227.5" y1="959.0156" y2="979.0156"/><polygon fill="#181818" points="223.5,969.0156,227.5,979.0156,231.5,969.0156,227.5,973.0156" style="stroke:#181818;stroke-width:1.0;"/><line style="stroke:#181818;stroke-width:1.0;" x1="227.5" x2="227.5" y1="1026.9531" y2="1046.9531"/><polygon fill="#181818" points="223.5,1036.9531,227.5,1046.9531,231.5,1036.9531,227.5,1040.9531" style="stroke:#181818;stroke-width:1.0;"/><line style="stroke:#181818;stroke-width:1.0;" x1="227.5" x2="227.5" y1="1080.9219" y2="1100.9219"/><polygon fill="#181818" points="223.5,1090.9219,227.5,1100.9219,231.5,1090.9219,227.5,1094.9219" style="stroke:#181818;stroke-width:1.0;"/><line style="stroke:#181818;stroke-width:1.0;" x1="227.5" x2="227.5" y1="878.75" y2="925.0469"/><polygon fill="#181818" points="223.5,915.0469,227.5,925.0469,231.5,915.0469,227.5,919.0469" style="stroke:#181818;stroke-width:1.0;"/><line style="stroke:#181818;stroke-width:1.0;" x1="227.5" x2="227.5" y1="1249.125" y2="1269.125"/><polygon fill="#181818" points="223.5,1259.125,227.5,1269.125,231.5,1259.125,227.5,1263.125" style="stroke:#181818;stroke-width:1.0;"/><line style="stroke:#181818;stroke-width:1.0;" x1="227.5" x2="227.5" y1="1303.0938" y2="1323.0938"/><polygon fill="#181818" points="223.5,1313.0938,227.5,1323.0938,231.5,1313.0938,227.5,1317.0938" style="stroke:#181818;stroke-width:1.0;"/><line style="stroke:#181818;stroke-width:1.0;" x1="227.5" x2="227.5" y1="1357.0625" y2="1377.0625"/><polygon fill="#181818" points="223.5,1367.0625,227.5,1377.0625,231.5,1367.0625,227.5,1371.0625" style="stroke:#181818;stroke-width:1.0;"/><line style="stroke:#181818;stroke-width:1.0;" x1="227.5" x2="227.5" y1="1148.8594" y2="1215.1563"/><polygon fill="#181818" points="223.5,1205.1563,227.5,1215.1563,231.5,1205.1563,227.5,1209.1563" style="stroke:#181818;stroke-width:1.0;"/><line style="stroke:#181818;stroke-width:1.0;" x1="227.5" x2="227.5" y1="1411.0313" y2="1443.0313"/><polygon fill="#181818" points="223.5,1433.0313,227.5,1443.0313,231.5,1433.0313,227.5,1437.0313" style="stroke:#181818;stroke-width:1.0;"/><line style="stroke:#181818;stroke-width:1.0;" x1="227.5" x2="227.5" y1="1477" y2="1497"/><polygon fill="#181818" points="223.5,1487,227.5,1497,231.5,1487,227.5,1491" style="stroke:#181818;stroke-width:1.0;"/><line style="stroke:#181818;stroke-width:1.0;" x1="227.5" x2="227.5" y1="786.4844" y2="844.7813"/><polygon fill="#181818" points="223.5,834.7813,227.5,844.7813,231.5,834.7813,227.5,838.7813" style="stroke:#181818;stroke-width:1.0;"/><line style="stroke:#181818;stroke-width:1.0;" x1="227.5" x2="227.5" y1="1623.2344" y2="1643.2344"/><polygon fill="#181818" points="223.5,1633.2344,227.5,1643.2344,231.5,1633.2344,227.5,1637.2344" style="stroke:#181818;stroke-width:1.0;"/><line style="stroke:#181818;stroke-width:1.0;" x1="227.5" x2="227.5" y1="1677.2031" y2="1697.2031"/><polygon fill="#181818" points="223.5,1687.2031,227.5,1697.2031,231.5,1687.2031,227.5,1691.2031" style="stroke:#181818;stroke-width:1.0;"/><line style="stroke:#181818;stroke-width:1.0;" x1="227.5" x2="227.5" y1="1530.9688" y2="1589.2656"/><polygon fill="#181818" points="223.5,1579.2656,227.5,1589.2656,231.5,1579.2656,227.5,1583.2656" style="stroke:#181818;stroke-width:1.0;"/><line style="stroke:#181818;stroke-width:1.0;" x1="227.5" x2="227.5" y1="1823.4375" y2="1843.4375"/><polygon fill="#181818" points="223.5,1833.4375,227.5,1843.4375,231.5,1833.4375,227.5,1837.4375" style="stroke:#181818;stroke-width:1.0;"/><line style="stroke:#181818;stroke-width:1.0;" x1="227.5" x2="227.5" y1="1877.4063" y2="1897.4063"/><polygon fill="#181818" points="223.5,1887.4063,227.5,1897.4063,231.5,1887.4063,227.5,1891.4063" style="stroke:#181818;stroke-width:1.0;"/><line style="stroke:#181818;stroke-width:1.0;" x1="227.5" x2="227.5" y1="1931.375" y2="1951.375"/><polygon fill="#181818" points="223.5,1941.375,227.5,1951.375,231.5,1941.375,227.5,1945.375" style="stroke:#181818;stroke-width:1.0;"/><line style="stroke:#181818;stroke-width:1.0;" x1="227.5" x2="227.5" y1="1731.1719" y2="1789.4688"/><polygon fill="#181818" points="223.5,1779.4688,227.5,1789.4688,231.5,1779.4688,227.5,1783.4688" style="stroke:#181818;stroke-width:1.0;"/><line style="stroke:#181818;stroke-width:1.0;" x1="227.5" x2="227.5" y1="1985.3438" y2="2017.3438"/><polygon fill="#181818" points="223.5,2007.3438,227.5,2017.3438,231.5,2007.3438,227.5,2011.3438" style="stroke:#181818;stroke-width:1.0;"/><line style="stroke:#181818;stroke-width:1.0;" x1="227.5" x2="227.5" y1="208.2344" y2="228.2344"/><polygon fill="#181818" points="223.5,218.2344,227.5,228.2344,231.5,218.2344,227.5,222.2344" style="stroke:#181818;stroke-width:1.0;"/><line style="stroke:#181818;stroke-width:1.0;" x1="330.5" x2="446" y1="2083.3125" y2="2083.3125"/><polygon fill="#181818" points="442,1160.2734,446,1150.2734,450,1160.2734,446,1156.2734" style="stroke:#181818;stroke-width:1.0;"/><line style="stroke:#181818;stroke-width:1.0;" x1="446" x2="446" y1="196.2344" y2="2083.3125"/><line style="stroke:#181818;stroke-width:1.0;" x1="446" x2="239.5" y1="196.2344" y2="196.2344"/><polygon fill="#181818" points="249.5,192.2344,239.5,196.2344,249.5,200.2344,245.5,196.2344" style="stroke:#181818;stroke-width:1.0;"/><line style="stroke:#181818;stroke-width:1.0;" x1="227.5" x2="227.5" y1="2051.3125" y2="2071.3125"/><polygon fill="#181818" points="223.5,2061.3125,227.5,2071.3125,231.5,2061.3125,227.5,2065.3125" style="stroke:#181818;stroke-width:1.0;"/><line style="stroke:#181818;stroke-width:1.0;" x1="227.5" x2="227.5" y1="164.2344" y2="184.2344"/><polygon fill="#181818" points="223.5,174.2344,227.5,184.2344,231.5,174.2344,227.5,178.2344" style="stroke:#181818;stroke-width:1.0;"/><line style="stroke:#181818;stroke-width:1.0;" x1="227.5" x2="227.5" y1="2095.3125" y2="2115.3125"/><polygon fill="#181818" points="223.5,2105.3125,227.5,2115.3125,231.5,2105.3125,227.5,2109.3125" style="stroke:#181818;stroke-width:1.0;"/><line style="stroke:#181818;stroke-width:1.0;" x1="227.5" x2="227.5" y1="83.9688" y2="130.2656"/><polygon fill="#181818" points="223.5,120.2656,227.5,130.2656,231.5,120.2656,227.5,124.2656" style="stroke:#181818;stroke-width:1.0;"/><!--SRC=[bLRRQkCm47tFLmnvwIxD5pHFks4fXOM5bdqB5CLIOb5RChASRjdDl-zeB5-aMceQ2CJHd3DdpipO1W1eBJDsXJ-WOWTHGQLryyo55OMLMZspwgIDj6LD8NSFgkaiS6dmM70u6TQKMpfga4Ow2An_8WMC531IhE4lXHBJlR3mjDj1eUj6Aw5i2_eu9tGV8nh1x7Wvan10WIaUGoDDErOLNSMiY18whNDTOve981K8VX8K7gJTvb1hCXOQBJ7Jsc6Tirc8nhgkpjJRC4-oYVrCk18vyzq8zaAn0hz41ONNX05BvaIwUyssP0X4ClndkTJOeJ4V-kFohmyavKFBYETNPvq1ZiDXvz01wGxswbfrbrKg1vcyoQRQApBmYbINv8JsYBOxz4tBJwTktdoOIqpLJftFzliRvtviXfx_EBiTEWiCAKIRRFW4d03Y3rWzQKxrl2_DpJT1dqJlt8njhpnTrqfrUXyg5PRdJkZVTfkM65RqAO6uwK7IaIfI5yUXsfFEYRla6l8eQdqUjeYBjZ3ouCYgHFD9iGUXajlmlX6sjf_IRPPZUMhXQ7ITDSt39oU8efR6Q8DtRdVeLo9F4CWFbeiD_ZlwBLopifvJQJxKL3AwHiTj2GTMlBY1IDoB_S8VfMAL6vfW4JVPjVdSbjCZaWYMrtkAwhEyulDp4iGu5tn1_k-6-p6-VRz18rcwxaJ8vUE7Qf-Pmptf8xKZsMA5QQc5Lgf_ky0-vKJxLbUZbJTjTcWHK8o2UoCflFFQ0xTIcpnODO0MSeLstJrssLSYl7ftowVa_wAt87WjPINWI_oGDswwSOFgnhvzNSKw-uOCQiF6tFZwBly1]--></g></svg>