<?xml version="1.0" encoding="us-ascii" standalone="no"?><svg xmlns="http://www.w3.org/2000/svg" xmlns:xlink="http://www.w3.org/1999/xlink" contentStyleType="text/css" height="2172px" preserveAspectRatio="none" style="width:448px;height:2172px;background:#FFFFFF;" version="1.1" viewBox="0 0 448 2172" width="448px" zoomAndPan="magnify"><defs/><g><ellipse cx="215" cy="20" fill="#222222" rx="10" ry="10" style="stroke:#222222;stroke-width:1.0;"/><rect fill="#F1F1F1" height="33.9688" rx="12.5" ry="12.5" style="stroke:#181818;stroke-width:0.5;" width="149" x="140.5" y="50"/><text fill="#000000" font-family="sans-serif" font-size="12" lengthAdjust="spacing" textLength="129" x="150.5" y="71.1387">Input directed graph</text><rect fill="none" height="2067.3125" style="stroke:#000000;stroke-width:1.5;" width="426" x="11" y="93.9688"/><path d="M193,93.9688 L193,103.2656 L183,113.2656 L11,113.2656 " fill="none" style="stroke:#000000;stroke-width:1.5;"/><text fill="#000000" font-family="sans-serif" font-size="14" lengthAdjust="spacing" textLength="172" x="14" y="107.9639">Loop detection algorithm</text><rect fill="#F1F1F1" height="33.9688" rx="12.5" ry="12.5" style="stroke:#181818;stroke-width:0.5;" width="209" x="110.5" y="130.2656"/><text fill="#000000" font-family="sans-serif" font-size="12" lengthAdjust="spacing" textLength="189" x="120.5" y="151.4043">Get SCC components of graph</text><rect fill="#F1F1F1" height="33.9688" rx="12.5" ry="12.5" style="stroke:#181818;stroke-width:0.5;" width="224" x="103" y="228.2344"/><text fill="#000000" font-family="sans-serif" font-size="12" lengthAdjust="spacing" textLength="204" x="113" y="249.373">Input SCC component and graph</text><rect fill="none" height="526.2813" style="stroke:#000000;stroke-width:1.5;" width="367" x="31.5" y="272.2031"/><path d="M251.5,272.2031 L251.5,281.5 L241.5,291.5 L31.5,291.5 " fill="none" style="stroke:#000000;stroke-width:1.5;"/><text fill="#000000" font-family="sans-serif" font-size="14" lengthAdjust="spacing" textLength="210" x="34.5" y="286.1982">Calculate components of Loop</text><rect fill="#F1F1F1" height="33.9688" rx="12.5" ry="12.5" style="stroke:#181818;stroke-width:0.5;" width="255" x="87.5" y="308.5"/><text fill="#000000" font-family="sans-serif" font-size="12" lengthAdjust="spacing" textLength="235" x="97.5" y="329.6387">Calculate in edges of SCC component</text><rect fill="#F1F1F1" height="33.9688" rx="12.5" ry="12.5" style="stroke:#181818;stroke-width:0.5;" width="212" x="109" y="362.4688"/><text fill="#000000" font-family="sans-serif" font-size="12" lengthAdjust="spacing" textLength="192" x="119" y="383.6074">Calculate "start points" of loop</text><rect fill="#F1F1F1" height="33.9688" rx="12.5" ry="12.5" style="stroke:#181818;stroke-width:0.5;" width="265" x="82.5" y="416.4375"/><text fill="#000000" font-family="sans-serif" font-size="12" lengthAdjust="spacing" textLength="245" x="92.5" y="437.5762">Calculate out edges of SCC component</text><rect fill="#F1F1F1" height="33.9688" rx="12.5" ry="12.5" style="stroke:#181818;stroke-width:0.5;" width="312" x="59" y="470.4063"/><text fill="#000000" font-family="sans-serif" font-size="12" lengthAdjust="spacing" textLength="292" x="69" y="491.5449">Input start points, SCC components and graph</text><rect fill="none" height="204.1719" style="stroke:#000000;stroke-width:1.5;" width="347" x="41.5" y="514.375"/><path d="M268.5,514.375 L268.5,523.6719 L258.5,533.6719 L41.5,533.6719 " fill="none" style="stroke:#000000;stroke-width:1.5;"/><text fill="#000000" font-family="sans-serif" font-size="14" lengthAdjust="spacing" textLength="217" x="44.5" y="528.3701">Break and end point calculation</text><rect fill="#F1F1F1" height="33.9688" rx="12.5" ry="12.5" style="stroke:#181818;stroke-width:0.5;" width="227" x="101.5" y="550.6719"/><text fill="#000000" font-family="sans-serif" font-size="12" lengthAdjust="spacing" textLength="207" x="111.5" y="571.8105">Calculate edges that create loop</text><rect fill="#F1F1F1" height="33.9688" rx="12.5" ry="12.5" style="stroke:#181818;stroke-width:0.5;" width="327" x="51.5" y="604.6406"/><text fill="#000000" font-family="sans-serif" font-size="12" lengthAdjust="spacing" textLength="307" x="61.5" y="625.7793">Calculate "end points" and "break points" of loop</text><rect fill="#F1F1F1" height="47.9375" rx="12.5" ry="12.5" style="stroke:#181818;stroke-width:0.5;" width="277" x="76.5" y="658.6094"/><text fill="#000000" font-family="sans-serif" font-size="12" lengthAdjust="spacing" textLength="257" x="86.5" y="679.748">Output end and break points of loop and</text><text fill="#000000" font-family="sans-serif" font-size="12" lengthAdjust="spacing" textLength="145" x="86.5" y="693.7168">edges that create loop</text><rect fill="#F1F1F1" height="47.9375" rx="12.5" ry="12.5" style="stroke:#181818;stroke-width:0.5;" width="287" x="71.5" y="738.5469"/><text fill="#000000" font-family="sans-serif" font-size="12" lengthAdjust="spacing" textLength="267" x="81.5" y="759.6855">Output start, end and break points of loop</text><text fill="#000000" font-family="sans-serif" font-size="12" lengthAdjust="spacing" textLength="173" x="81.5" y="773.6543">and edges that create loop</text><rect fill="none" height="734.4844" style="stroke:#000000;stroke-width:1.5;" width="371" x="29.5" y="808.4844"/><path d="M214.5,808.4844 L214.5,817.7813 L204.5,827.7813 L29.5,827.7813 " fill="none" style="stroke:#000000;stroke-width:1.5;"/><text fill="#000000" font-family="sans-serif" font-size="14" lengthAdjust="spacing" textLength="175" x="32.5" y="822.4795">Create sub graph of Loop</text><rect fill="#F1F1F1" height="33.9688" rx="12.5" ry="12.5" style="stroke:#181818;stroke-width:0.5;" width="232" x="99" y="844.7813"/><text fill="#000000" font-family="sans-serif" font-size="12" lengthAdjust="spacing" textLength="212" x="109" y="865.9199">Copy graph and loop components</text><rect fill="none" height="280.1094" style="stroke:#000000;stroke-width:1.5;" width="330" x="50" y="888.75"/><path d="M284,888.75 L284,898.0469 L274,908.0469 L50,908.0469 " fill="none" style="stroke:#000000;stroke-width:1.5;"/><text fill="#000000" font-family="sans-serif" font-size="14" lengthAdjust="spacing" textLength="224" x="53" y="902.7451">Add start and end Event vertices</text><rect fill="#F1F1F1" height="33.9688" rx="12.5" ry="12.5" style="stroke:#181818;stroke-width:0.5;" width="244" x="93" y="925.0469"/><text fill="#000000" font-family="sans-serif" font-size="12" lengthAdjust="spacing" textLength="224" x="103" y="946.1855">Add start Event vertex to sub graph</text><rect fill="#F1F1F1" height="47.9375" rx="12.5" ry="12.5" style="stroke:#181818;stroke-width:0.5;" width="310" x="60" y="979.0156"/><text fill="#000000" font-family="sans-serif" font-size="12" lengthAdjust="spacing" textLength="223" x="70" y="1000.1543">Create out EventSets of start Event</text><text fill="#000000" font-family="sans-serif" font-size="12" lengthAdjust="spacing" textLength="290" x="70" y="1014.123">vertex using out EventSets of incoming Events</text><rect fill="#F1F1F1" height="33.9688" rx="12.5" ry="12.5" style="stroke:#181818;stroke-width:0.5;" width="238" x="96" y="1046.9531"/><text fill="#000000" font-family="sans-serif" font-size="12" lengthAdjust="spacing" textLength="218" x="106" y="1068.0918">Add end Event vertex to sub graph</text><rect fill="#F1F1F1" height="47.9375" rx="12.5" ry="12.5" style="stroke:#181818;stroke-width:0.5;" width="300" x="65" y="1100.9219"/><text fill="#000000" font-family="sans-serif" font-size="12" lengthAdjust="spacing" textLength="207" x="75" y="1122.0605">Create in EventSets of end Event</text><text fill="#000000" font-family="sans-serif" font-size="12" lengthAdjust="spacing" textLength="280" x="75" y="1136.0293">vertex using in EventSets of outgoing Events</text><rect fill="none" height="244.1719" style="stroke:#000000;stroke-width:1.5;" width="351" x="39.5" y="1178.8594"/><path d="M264.5,1178.8594 L264.5,1188.1563 L254.5,1198.1563 L39.5,1198.1563 " fill="none" style="stroke:#000000;stroke-width:1.5;"/><text fill="#000000" font-family="sans-serif" font-size="14" lengthAdjust="spacing" textLength="215" x="42.5" y="1192.8545">Remove edges describing loop</text><rect fill="#F1F1F1" height="33.9688" rx="12.5" ry="12.5" style="stroke:#181818;stroke-width:0.5;" width="315" x="57.5" y="1215.1563"/><text fill="#000000" font-family="sans-serif" font-size="12" lengthAdjust="spacing" textLength="295" x="67.5" y="1236.2949">Remove in + out edges of start and end points</text><rect fill="#F1F1F1" height="33.9688" rx="12.5" ry="12.5" style="stroke:#181818;stroke-width:0.5;" width="291" x="69.5" y="1269.125"/><text fill="#000000" font-family="sans-serif" font-size="12" lengthAdjust="spacing" textLength="271" x="79.5" y="1290.2637">Remove edges that create loop from graph</text><rect fill="#F1F1F1" height="33.9688" rx="12.5" ry="12.5" style="stroke:#181818;stroke-width:0.5;" width="308" x="61" y="1323.0938"/><text fill="#000000" font-family="sans-serif" font-size="12" lengthAdjust="spacing" textLength="288" x="71" y="1344.2324">Remove EventSets that mirror removed edges</text><rect fill="#F1F1F1" height="33.9688" rx="12.5" ry="12.5" style="stroke:#181818;stroke-width:0.5;" width="331" x="49.5" y="1377.0625"/><text fill="#000000" font-family="sans-serif" font-size="12" lengthAdjust="spacing" textLength="311" x="59.5" y="1398.2012">Remove out edges of break points and EventSets</text><rect fill="#F1F1F1" height="33.9688" rx="12.5" ry="12.5" style="stroke:#181818;stroke-width:0.5;" width="311" x="59.5" y="1443.0313"/><text fill="#000000" font-family="sans-serif" font-size="12" lengthAdjust="spacing" textLength="291" x="69.5" y="1464.1699">Remove nodes that have no path back to loop</text><rect fill="#F1F1F1" height="33.9688" rx="12.5" ry="12.5" style="stroke:#181818;stroke-width:0.5;" width="207" x="111.5" y="1497"/><text fill="#000000" font-family="sans-serif" font-size="12" lengthAdjust="spacing" textLength="187" x="121.5" y="1518.1387">Output final subgraph of Loop</text><rect fill="none" height="190.2031" style="stroke:#000000;stroke-width:1.5;" width="292" x="69" y="1552.9688"/><path d="M206,1552.9688 L206,1562.2656 L196,1572.2656 L69,1572.2656 " fill="none" style="stroke:#000000;stroke-width:1.5;"/><text fill="#000000" font-family="sans-serif" font-size="14" lengthAdjust="spacing" textLength="127" x="72" y="1566.9639">Create Loop Event</text><rect fill="#F1F1F1" height="33.9688" rx="12.5" ry="12.5" style="stroke:#181818;stroke-width:0.5;" width="268" x="81" y="1589.2656"/><text fill="#000000" font-family="sans-serif" font-size="12" lengthAdjust="spacing" textLength="248" x="91" y="1610.4043">Create LoopEvent with subgraph added</text><rect fill="#F1F1F1" height="33.9688" rx="12.5" ry="12.5" style="stroke:#181818;stroke-width:0.5;" width="272" x="79" y="1643.2344"/><text fill="#000000" font-family="sans-serif" font-size="12" lengthAdjust="spacing" textLength="252" x="89" y="1664.373">Update in + out EventSets of LoopEvent</text><rect fill="#F1F1F1" height="33.9688" rx="12.5" ry="12.5" style="stroke:#181818;stroke-width:0.5;" width="132" x="149" y="1697.2031"/><text fill="#000000" font-family="sans-serif" font-size="12" lengthAdjust="spacing" textLength="112" x="159" y="1718.3418">Output LoopEvent</text><rect fill="none" height="244.1719" style="stroke:#000000;stroke-width:1.5;" width="372" x="29" y="1753.1719"/><path d="M320,1753.1719 L320,1762.4688 L310,1772.4688 L29,1772.4688 " fill="none" style="stroke:#000000;stroke-width:1.5;"/><text fill="#000000" font-family="sans-serif" font-size="14" lengthAdjust="spacing" textLength="281" x="32" y="1767.167">Calculate Updated Graph with LoopEvent</text><rect fill="#F1F1F1" height="33.9688" rx="12.5" ry="12.5" style="stroke:#181818;stroke-width:0.5;" width="344" x="43" y="1789.4688"/><text fill="#000000" font-family="sans-serif" font-size="12" lengthAdjust="spacing" textLength="324" x="53" y="1810.6074">Update in + out EventSets connected to LoopEvent</text><rect fill="#F1F1F1" height="33.9688" rx="12.5" ry="12.5" style="stroke:#181818;stroke-width:0.5;" width="222" x="104" y="1843.4375"/><text fill="#000000" font-family="sans-serif" font-size="12" lengthAdjust="spacing" textLength="202" x="114" y="1864.5762">Remove loop Event's from graph</text><rect fill="#F1F1F1" height="33.9688" rx="12.5" ry="12.5" style="stroke:#181818;stroke-width:0.5;" width="352" x="39" y="1897.4063"/><text fill="#000000" font-family="sans-serif" font-size="12" lengthAdjust="spacing" textLength="332" x="49" y="1918.5449">Recalculate graph from updated EventSets of Events</text><rect fill="#F1F1F1" height="33.9688" rx="12.5" ry="12.5" style="stroke:#181818;stroke-width:0.5;" width="161" x="134.5" y="1951.375"/><text fill="#000000" font-family="sans-serif" font-size="12" lengthAdjust="spacing" textLength="141" x="144.5" y="1972.5137">Output updated graph</text><rect fill="#F1F1F1" height="33.9688" style="stroke:#181818;stroke-width:0.5;" width="388" x="21" y="2017.3438"/><line style="stroke:#181818;stroke-width:0.5;" x1="26" x2="26" y1="2017.3438" y2="2051.3125"/><line style="stroke:#181818;stroke-width:0.5;" x1="404" x2="404" y1="2017.3438" y2="2051.3125"/><text fill="#000000" font-family="sans-serif" font-size="12" lengthAdjust="spacing" textLength="368" x="31" y="2038.4824">Run "Loop detection algorithm" on sub graph of LoopEvent</text><polygon fill="#F1F1F1" points="215,184.2344,227,196.2344,215,208.2344,203,196.2344,215,184.2344" style="stroke:#181818;stroke-width:0.5;"/><polygon fill="#F1F1F1" points="124,2071.3125,306,2071.3125,318,2083.3125,306,2095.3125,124,2095.3125,112,2083.3125,124,2071.3125" style="stroke:#181818;stroke-width:0.5;"/><text fill="#000000" font-family="sans-serif" font-size="11" lengthAdjust="spacing" textLength="182" x="124" y="2087.1206">SCC components are not empty</text><rect fill="#F1F1F1" height="33.9688" rx="12.5" ry="12.5" style="stroke:#181818;stroke-width:0.5;" width="270" x="80" y="2115.3125"/><text fill="#000000" font-family="sans-serif" font-size="12" lengthAdjust="spacing" textLength="250" x="90" y="2136.4512">Output Graph updated with LoopEvent's</text><line style="stroke:#181818;stroke-width:1.0;" x1="215" x2="215" y1="30" y2="50"/><polygon fill="#181818" points="211,40,215,50,219,40,215,44" style="stroke:#181818;stroke-width:1.0;"/><line style="stroke:#181818;stroke-width:1.0;" x1="215" x2="215" y1="342.4688" y2="362.4688"/><polygon fill="#181818" points="211,352.4688,215,362.4688,219,352.4688,215,356.4688" style="stroke:#181818;stroke-width:1.0;"/><line style="stroke:#181818;stroke-width:1.0;" x1="215" x2="215" y1="396.4375" y2="416.4375"/><polygon fill="#181818" points="211,406.4375,215,416.4375,219,406.4375,215,410.4375" style="stroke:#181818;stroke-width:1.0;"/><line style="stroke:#181818;stroke-width:1.0;" x1="215" x2="215" y1="450.4063" y2="470.4063"/><polygon fill="#181818" points="211,460.4063,215,470.4063,219,460.4063,215,464.4063" style="stroke:#181818;stroke-width:1.0;"/><line style="stroke:#181818;stroke-width:1.0;" x1="215" x2="215" y1="584.6406" y2="604.6406"/><polygon fill="#181818" points="211,594.6406,215,604.6406,219,594.6406,215,598.6406" style="stroke:#181818;stroke-width:1.0;"/><line style="stroke:#181818;stroke-width:1.0;" x1="215" x2="215" y1="638.6094" y2="658.6094"/><polygon fill="#181818" points="211,648.6094,215,658.6094,219,648.6094,215,652.6094" style="stroke:#181818;stroke-width:1.0;"/><line style="stroke:#181818;stroke-width:1.0;" x1="215" x2="215" y1="504.375" y2="550.6719"/><polygon fill="#181818" points="211,540.6719,215,550.6719,219,540.6719,215,544.6719" style="stroke:#181818;stroke-width:1.0;"/><line style="stroke:#181818;stroke-width:1.0;" x1="215" x2="215" y1="706.5469" y2="738.5469"/><polygon fill="#181818" points="211,728.5469,215,738.5469,219,728.5469,215,732.5469" style="stroke:#181818;stroke-width:1.0;"/><line style="stroke:#181818;stroke-width:1.0;" x1="215" x2="215" y1="262.2031" y2="308.5"/><polygon fill="#181818" points="211,298.5,215,308.5,219,298.5,215,302.5" style="stroke:#181818;stroke-width:1.0;"/><line style="stroke:#181818;stroke-width:1.0;" x1="215" x2="215" y1="959.0156" y2="979.0156"/><polygon fill="#181818" points="211,969.0156,215,979.0156,219,969.0156,215,973.0156" style="stroke:#181818;stroke-width:1.0;"/><line style="stroke:#181818;stroke-width:1.0;" x1="215" x2="215" y1="1026.9531" y2="1046.9531"/><polygon fill="#181818" points="211,1036.9531,215,1046.9531,219,1036.9531,215,1040.9531" style="stroke:#181818;stroke-width:1.0;"/><line style="stroke:#181818;stroke-width:1.0;" x1="215" x2="215" y1="1080.9219" y2="1100.9219"/><polygon fill="#181818" points="211,1090.9219,215,1100.9219,219,1090.9219,215,1094.9219" style="stroke:#181818;stroke-width:1.0;"/><line style="stroke:#181818;stroke-width:1.0;" x1="215" x2="215" y1="878.75" y2="925.0469"/><polygon fill="#181818" points="211,915.0469,215,925.0469,219,915.0469,215,919.0469" style="stroke:#181818;stroke-width:1.0;"/><line style="stroke:#181818;stroke-width:1.0;" x1="215" x2="215" y1="1249.125" y2="1269.125"/><polygon fill="#181818" points="211,1259.125,215,1269.125,219,1259.125,215,1263.125" style="stroke:#181818;stroke-width:1.0;"/><line style="stroke:#181818;stroke-width:1.0;" x1="215" x2="215" y1="1303.0938" y2="1323.0938"/><polygon fill="#181818" points="211,1313.0938,215,1323.0938,219,1313.0938,215,1317.0938" style="stroke:#181818;stroke-width:1.0;"/><line style="stroke:#181818;stroke-width:1.0;" x1="215" x2="215" y1="1357.0625" y2="1377.0625"/><polygon fill="#181818" points="211,1367.0625,215,1377.0625,219,1367.0625,215,1371.0625" style="stroke:#181818;stroke-width:1.0;"/><line style="stroke:#181818;stroke-width:1.0;" x1="215" x2="215" y1="1148.8594" y2="1215.1563"/><polygon fill="#181818" points="211,1205.1563,215,1215.1563,219,1205.1563,215,1209.1563" style="stroke:#181818;stroke-width:1.0;"/><line style="stroke:#181818;stroke-width:1.0;" x1="215" x2="215" y1="1411.0313" y2="1443.0313"/><polygon fill="#181818" points="211,1433.0313,215,1443.0313,219,1433.0313,215,1437.0313" style="stroke:#181818;stroke-width:1.0;"/><line style="stroke:#181818;stroke-width:1.0;" x1="215" x2="215" y1="1477" y2="1497"/><polygon fill="#181818" points="211,1487,215,1497,219,1487,215,1491" style="stroke:#181818;stroke-width:1.0;"/><line style="stroke:#181818;stroke-width:1.0;" x1="215" x2="215" y1="786.4844" y2="844.7813"/><polygon fill="#181818" points="211,834.7813,215,844.7813,219,834.7813,215,838.7813" style="stroke:#181818;stroke-width:1.0;"/><line style="stroke:#181818;stroke-width:1.0;" x1="215" x2="215" y1="1623.2344" y2="1643.2344"/><polygon fill="#181818" points="211,1633.2344,215,1643.2344,219,1633.2344,215,1637.2344" style="stroke:#181818;stroke-width:1.0;"/><line style="stroke:#181818;stroke-width:1.0;" x1="215" x2="215" y1="1677.2031" y2="1697.2031"/><polygon fill="#181818" points="211,1687.2031,215,1697.2031,219,1687.2031,215,1691.2031" style="stroke:#181818;stroke-width:1.0;"/><line style="stroke:#181818;stroke-width:1.0;" x1="215" x2="215" y1="1530.9688" y2="1589.2656"/><polygon fill="#181818" points="211,1579.2656,215,1589.2656,219,1579.2656,215,1583.2656" style="stroke:#181818;stroke-width:1.0;"/><line style="stroke:#181818;stroke-width:1.0;" x1="215" x2="215" y1="1823.4375" y2="1843.4375"/><polygon fill="#181818" points="211,1833.4375,215,1843.4375,219,1833.4375,215,1837.4375" style="stroke:#181818;stroke-width:1.0;"/><line style="stroke:#181818;stroke-width:1.0;" x1="215" x2="215" y1="1877.4063" y2="1897.4063"/><polygon fill="#181818" points="211,1887.4063,215,1897.4063,219,1887.4063,215,1891.4063" style="stroke:#181818;stroke-width:1.0;"/><line style="stroke:#181818;stroke-width:1.0;" x1="215" x2="215" y1="1931.375" y2="1951.375"/><polygon fill="#181818" points="211,1941.375,215,1951.375,219,1941.375,215,1945.375" style="stroke:#181818;stroke-width:1.0;"/><line style="stroke:#181818;stroke-width:1.0;" x1="215" x2="215" y1="1731.1719" y2="1789.4688"/><polygon fill="#181818" points="211,1779.4688,215,1789.4688,219,1779.4688,215,1783.4688" style="stroke:#181818;stroke-width:1.0;"/><line style="stroke:#181818;stroke-width:1.0;" x1="215" x2="215" y1="1985.3438" y2="2017.3438"/><polygon fill="#181818" points="211,2007.3438,215,2017.3438,219,2007.3438,215,2011.3438" style="stroke:#181818;stroke-width:1.0;"/><line style="stroke:#181818;stroke-width:1.0;" x1="215" x2="215" y1="208.2344" y2="228.2344"/><polygon fill="#181818" points="211,218.2344,215,228.2344,219,218.2344,215,222.2344" style="stroke:#181818;stroke-width:1.0;"/><line style="stroke:#181818;stroke-width:1.0;" x1="318" x2="421" y1="2083.3125" y2="2083.3125"/><polygon fill="#181818" points="417,1160.2734,421,1150.2734,425,1160.2734,421,1156.2734" style="stroke:#181818;stroke-width:1.0;"/><line style="stroke:#181818;stroke-width:1.0;" x1="421" x2="421" y1="196.2344" y2="2083.3125"/><line style="stroke:#181818;stroke-width:1.0;" x1="421" x2="227" y1="196.2344" y2="196.2344"/><polygon fill="#181818" points="237,192.2344,227,196.2344,237,200.2344,233,196.2344" style="stroke:#181818;stroke-width:1.0;"/><line style="stroke:#181818;stroke-width:1.0;" x1="215" x2="215" y1="2051.3125" y2="2071.3125"/><polygon fill="#181818" points="211,2061.3125,215,2071.3125,219,2061.3125,215,2065.3125" style="stroke:#181818;stroke-width:1.0;"/><line style="stroke:#181818;stroke-width:1.0;" x1="215" x2="215" y1="164.2344" y2="184.2344"/><polygon fill="#181818" points="211,174.2344,215,184.2344,219,174.2344,215,178.2344" style="stroke:#181818;stroke-width:1.0;"/><line style="stroke:#181818;stroke-width:1.0;" x1="215" x2="215" y1="2095.3125" y2="2115.3125"/><polygon fill="#181818" points="211,2105.3125,215,2115.3125,219,2105.3125,215,2109.3125" style="stroke:#181818;stroke-width:1.0;"/><line style="stroke:#181818;stroke-width:1.0;" x1="215" x2="215" y1="83.9688" y2="130.2656"/><polygon fill="#181818" points="211,120.2656,215,130.2656,219,120.2656,215,124.2656" style="stroke:#181818;stroke-width:1.0;"/><!--SRC=[bLRRQkCm47tFLmnvwIxj5pHFks4fXOM5bdqB5CLIOb5RChASRjdDl-zeB5-aM6eQ2CJHd3DdpipO1W1eBJDsXJ-WOdjHGQLryyA55OMLMhsmwgYDj6LD8VUFgkaiS6dmM70u6jQK6pfga4Ow2An_8WMC531IhE4lXHBJWx3mlDr2eUj6Aw5i2_em9tGV8nh1x7Wvan10WIaUGoDDMrOLNSMiY18whNDTOve981K8VXGK7gJTv51hCXOQBJ7Jsc6Tirc8nhgkpjJRC4zo5_kPS2LovhiHx9LY1Nw92Wgl2GEMp8bqzvfjoH28PFZFSgcnGsC-zCVbN-z9oeUM4S-lpZe378V3pg43qXtirBNgpgjK3ZBvBfjgfyZ0ArATanFQ8zfktpSjFvswUVTXBZ5LEtK-s-zldFkn6Nh-u-Hsw2Gmf11jik4JS0A8Fs3rf3dLyxuqDzy4VHQzSpEsdV9qNIlLyJ9KAYpFdT2_xIOjCQpeKm9nquEa8rMaBev3jKUT4tVEDUH9rFeqR14NRM7atf5LYUQJOWz29RVXVIDiRJ-bcop7yjJ2mUWwQvg7JquGHIsDqGRltExGhqIU890VB1SR_7Vq6xXcPJsdqdoegMHqZOxR4lQiU7K3aRWN-uK_ICKgDpJ18dvkZ-aXIEAN5tYAweVr3P-GKqh6kU0B0dytt0_gxUMEZ6JfoX8XvuyVctrc3W-aZzIEP8iLfgKMMgd-_G4xaHFjcrcDLjwqsR54G34AxesayCvh3znAxUfWrG1Qo1NQTV_KPLzwyEhYfax9_qNlEV1Moah0b_WnRjpyuexKZNt_kefrzWqPr8QDkV7rdVy3]--></g></svg>