<?xml version="1.0" encoding="UTF-8" standalone="no"?>
<!DOCTYPE svg PUBLIC "-//W3C//DTD SVG 1.1//EN"
 "http://www.w3.org/Graphics/SVG/1.1/DTD/svg11.dtd">
<!-- Generated by graphviz version 8.0.5 (20230506.1012)
 -->
<!-- Title: G Pages: 1 -->
<svg width="1143pt" height="246pt"
 viewBox="0.00 0.00 1142.74 246.00" xmlns="http://www.w3.org/2000/svg" xmlns:xlink="http://www.w3.org/1999/xlink">
<g id="graph0" class="graph" transform="scale(1 1) rotate(0) translate(4 242)">
<title>G</title>
<polygon fill="white" stroke="none" points="-4,4 -4,-242 1138.74,-242 1138.74,4 -4,4"/>
<!-- detect_loops -->
<g id="node1" class="node">
<title>detect_loops</title>
<ellipse fill="none" stroke="black" cx="81.2" cy="-99" rx="81.2" ry="18"/>
<text text-anchor="middle" x="81.2" y="-94.33" font-family="Times,serif" font-size="14.00">detect_loops()</text>
</g>
<!-- detect_loops&#45;&gt;detect_loops -->
<g id="edge9" class="edge">
<title>detect_loops&#45;&gt;detect_loops</title>
<path fill="none" stroke="black" d="M25.88,-112.48C3,-123.53 21.44,-135 81.2,-135 129.28,-135 150.61,-127.57 145.19,-118.91"/>
<polygon fill="black" stroke="black" points="147.63,-115.62 137.52,-112.48 143.46,-121.25 147.63,-115.62"/>
</g>
<!-- calc_components_of_loop -->
<g id="node2" class="node">
<title>calc_components_of_loop</title>
<ellipse fill="none" stroke="black" cx="426.9" cy="-207" rx="143.28" ry="18"/>
<text text-anchor="middle" x="426.9" y="-202.32" font-family="Times,serif" font-size="14.00">calc_components_of_loop()</text>
</g>
<!-- detect_loops&#45;&gt;calc_components_of_loop -->
<g id="edge1" class="edge">
<title>detect_loops&#45;&gt;calc_components_of_loop</title>
<path fill="none" stroke="black" d="M114.03,-115.92C136.98,-127.6 168.97,-142.79 198.39,-153 242.05,-168.15 291.87,-180.51 333.74,-189.56"/>
<polygon fill="black" stroke="black" points="332.97,-193.18 343.48,-191.84 334.43,-186.34 332.97,-193.18"/>
</g>
<!-- create_sub_graph_of_loop -->
<g id="node4" class="node">
<title>create_sub_graph_of_loop</title>
<ellipse fill="none" stroke="black" cx="426.9" cy="-126" rx="146.96" ry="18"/>
<text text-anchor="middle" x="426.9" y="-121.33" font-family="Times,serif" font-size="14.00">create_sub_graph_of_loop()</text>
</g>
<!-- detect_loops&#45;&gt;create_sub_graph_of_loop -->
<g id="edge3" class="edge">
<title>detect_loops&#45;&gt;create_sub_graph_of_loop</title>
<path fill="none" stroke="black" d="M158.48,-104.99C197.47,-108.06 246.1,-111.88 291.15,-115.41"/>
<polygon fill="black" stroke="black" points="290.67,-118.97 300.91,-116.26 291.22,-111.99 290.67,-118.97"/>
</g>
<!-- create_loop_event -->
<g id="node8" class="node">
<title>create_loop_event</title>
<ellipse fill="none" stroke="black" cx="426.9" cy="-72" rx="108.55" ry="18"/>
<text text-anchor="middle" x="426.9" y="-67.33" font-family="Times,serif" font-size="14.00">create_loop_event()</text>
</g>
<!-- detect_loops&#45;&gt;create_loop_event -->
<g id="edge7" class="edge">
<title>detect_loops&#45;&gt;create_loop_event</title>
<path fill="none" stroke="black" d="M158.48,-93.01C205.1,-89.35 265.48,-84.6 317.06,-80.55"/>
<polygon fill="black" stroke="black" points="317.23,-83.97 326.93,-79.7 316.69,-76.99 317.23,-83.97"/>
</g>
<!-- calculate_updated_graph_with_loop_event -->
<g id="node9" class="node">
<title>calculate_updated_graph_with_loop_event</title>
<ellipse fill="none" stroke="black" cx="426.9" cy="-18" rx="228.51" ry="18"/>
<text text-anchor="middle" x="426.9" y="-13.32" font-family="Times,serif" font-size="14.00">calculate_updated_graph_with_loop_event()</text>
</g>
<!-- detect_loops&#45;&gt;calculate_updated_graph_with_loop_event -->
<g id="edge8" class="edge">
<title>detect_loops&#45;&gt;calculate_updated_graph_with_loop_event</title>
<path fill="none" stroke="black" d="M111.76,-82.06C134.66,-69.74 167.58,-53.75 198.39,-45 215.83,-40.05 234.26,-36.01 252.79,-32.71"/>
<polygon fill="black" stroke="black" points="253.12,-36.03 262.39,-30.9 251.94,-29.13 253.12,-36.03"/>
</g>
<!-- calc_loop_end_break_and_loop_edges -->
<g id="node3" class="node">
<title>calc_loop_end_break_and_loop_edges</title>
<ellipse fill="none" stroke="black" cx="913.07" cy="-220" rx="203.25" ry="18"/>
<text text-anchor="middle" x="913.07" y="-215.32" font-family="Times,serif" font-size="14.00">calc_loop_end_break_and_loop_edges()</text>
</g>
<!-- calc_components_of_loop&#45;&gt;calc_loop_end_break_and_loop_edges -->
<g id="edge2" class="edge">
<title>calc_components_of_loop&#45;&gt;calc_loop_end_break_and_loop_edges</title>
<path fill="none" stroke="black" d="M567.62,-210.75C611.02,-211.92 659.81,-213.23 706.72,-214.49"/>
<polygon fill="black" stroke="black" points="706.55,-218.01 716.64,-214.78 706.74,-211.01 706.55,-218.01"/>
</g>
<!-- remove_loop_edges -->
<g id="node5" class="node">
<title>remove_loop_edges</title>
<ellipse fill="none" stroke="black" cx="913.07" cy="-166" rx="115.92" ry="18"/>
<text text-anchor="middle" x="913.07" y="-161.32" font-family="Times,serif" font-size="14.00">remove_loop_edges()</text>
</g>
<!-- create_sub_graph_of_loop&#45;&gt;remove_loop_edges -->
<g id="edge4" class="edge">
<title>create_sub_graph_of_loop&#45;&gt;remove_loop_edges</title>
<path fill="none" stroke="black" d="M550.08,-136.09C626.44,-142.4 724.1,-150.47 798.74,-156.64"/>
<polygon fill="black" stroke="black" points="798.32,-160.2 808.58,-157.53 798.9,-153.22 798.32,-160.2"/>
</g>
<!-- get_disconnected_loop_sub_graph -->
<g id="node6" class="node">
<title>get_disconnected_loop_sub_graph</title>
<ellipse fill="none" stroke="black" cx="913.07" cy="-112" rx="188" ry="18"/>
<text text-anchor="middle" x="913.07" y="-107.33" font-family="Times,serif" font-size="14.00">get_disconnected_loop_sub_graph()</text>
</g>
<!-- create_sub_graph_of_loop&#45;&gt;get_disconnected_loop_sub_graph -->
<g id="edge5" class="edge">
<title>create_sub_graph_of_loop&#45;&gt;get_disconnected_loop_sub_graph</title>
<path fill="none" stroke="black" d="M570.55,-121.88C617.95,-120.5 671.5,-118.96 721.9,-117.5"/>
<polygon fill="black" stroke="black" points="721.71,-120.98 731.6,-117.19 721.51,-113.98 721.71,-120.98"/>
</g>
<!-- add_start_and_end_events_to_sub_graph -->
<g id="node7" class="node">
<title>add_start_and_end_events_to_sub_graph</title>
<ellipse fill="none" stroke="black" cx="913.07" cy="-58" rx="221.67" ry="18"/>
<text text-anchor="middle" x="913.07" y="-53.33" font-family="Times,serif" font-size="14.00">add_start_and_end_events_to_sub_graph()</text>
</g>
<!-- create_sub_graph_of_loop&#45;&gt;add_start_and_end_events_to_sub_graph -->
<g id="edge6" class="edge">
<title>create_sub_graph_of_loop&#45;&gt;add_start_and_end_events_to_sub_graph</title>
<path fill="none" stroke="black" d="M554.39,-116.73C587.56,-112.74 623.09,-107.06 655.41,-99 672.06,-94.84 674.76,-89.19 691.41,-85 710.21,-80.27 730.12,-76.36 749.99,-73.13"/>
<polygon fill="black" stroke="black" points="750.36,-76.46 759.7,-71.45 749.27,-69.54 750.36,-76.46"/>
</g>
</g>
</svg>
