<?xml version="1.0" encoding="UTF-8" standalone="no"?>
<!DOCTYPE svg PUBLIC "-//W3C//DTD SVG 1.1//EN"
 "http://www.w3.org/Graphics/SVG/1.1/DTD/svg11.dtd">
<!-- Generated by graphviz version 8.0.5 (20230506.1012)
 -->
<!-- Title: G Pages: 1 -->
<svg width="1157pt" height="287pt"
 viewBox="0.00 0.00 1157.47 287.00" xmlns="http://www.w3.org/2000/svg" xmlns:xlink="http://www.w3.org/1999/xlink">
<g id="graph0" class="graph" transform="scale(1 1) rotate(0) translate(4 283)">
<title>G</title>
<polygon fill="white" stroke="none" points="-4,4 -4,-283 1153.47,-283 1153.47,4 -4,4"/>
<!-- detect_loops -->
<g id="node1" class="node">
<title>detect_loops</title>
<ellipse fill="none" stroke="black" cx="81.2" cy="-126" rx="81.2" ry="18"/>
<text text-anchor="middle" x="81.2" y="-121.33" font-family="Times,serif" font-size="14.00">detect_loops()</text>
</g>
<!-- detect_loops&#45;&gt;detect_loops -->
<g id="edge10" class="edge">
<title>detect_loops&#45;&gt;detect_loops</title>
<path fill="none" stroke="black" d="M25.88,-139.48C3,-150.53 21.44,-162 81.2,-162 129.28,-162 150.61,-154.57 145.19,-145.91"/>
<polygon fill="black" stroke="black" points="147.63,-142.62 137.52,-139.48 143.46,-148.25 147.63,-142.62"/>
</g>
<!-- calc_components_of_loop -->
<g id="node2" class="node">
<title>calc_components_of_loop</title>
<ellipse fill="none" stroke="black" cx="426.9" cy="-247" rx="143.28" ry="18"/>
<text text-anchor="middle" x="426.9" y="-242.32" font-family="Times,serif" font-size="14.00">calc_components_of_loop()</text>
</g>
<!-- detect_loops&#45;&gt;calc_components_of_loop -->
<g id="edge1" class="edge">
<title>detect_loops&#45;&gt;calc_components_of_loop</title>
<path fill="none" stroke="black" d="M101.59,-143.56C123.46,-162.35 160.89,-191.52 198.39,-207 229.67,-219.91 265.04,-228.65 298.41,-234.58"/>
<polygon fill="black" stroke="black" points="297.72,-238.18 308.17,-236.4 298.89,-231.28 297.72,-238.18"/>
</g>
<!-- create_sub_graph_of_loop -->
<g id="node4" class="node">
<title>create_sub_graph_of_loop</title>
<ellipse fill="none" stroke="black" cx="426.9" cy="-180" rx="146.96" ry="18"/>
<text text-anchor="middle" x="426.9" y="-175.32" font-family="Times,serif" font-size="14.00">create_sub_graph_of_loop()</text>
</g>
<!-- detect_loops&#45;&gt;create_sub_graph_of_loop -->
<g id="edge3" class="edge">
<title>detect_loops&#45;&gt;create_sub_graph_of_loop</title>
<path fill="none" stroke="black" d="M135.74,-139.74C155.36,-144.43 177.79,-149.39 198.39,-153 231.01,-158.71 266.46,-163.56 299.47,-167.5"/>
<polygon fill="black" stroke="black" points="298.75,-171.06 309.09,-168.75 299.57,-164.11 298.75,-171.06"/>
</g>
<!-- create_graph_from_events -->
<g id="node8" class="node">
<title>create_graph_from_events</title>
<ellipse fill="none" stroke="black" cx="426.9" cy="-126" rx="150.64" ry="18"/>
<text text-anchor="middle" x="426.9" y="-121.33" font-family="Times,serif" font-size="14.00">create_graph_from_events()</text>
</g>
<!-- detect_loops&#45;&gt;create_graph_from_events -->
<g id="edge9" class="edge">
<title>detect_loops&#45;&gt;create_graph_from_events</title>
<path fill="none" stroke="black" d="M162.78,-126C193.44,-126 229.56,-126 265.04,-126"/>
<polygon fill="black" stroke="black" points="265.03,-129.5 275.03,-126 265.03,-122.5 265.03,-129.5"/>
</g>
<!-- create_loop_event -->
<g id="node9" class="node">
<title>create_loop_event</title>
<ellipse fill="none" stroke="black" cx="426.9" cy="-72" rx="108.55" ry="18"/>
<text text-anchor="middle" x="426.9" y="-67.33" font-family="Times,serif" font-size="14.00">create_loop_event()</text>
</g>
<!-- detect_loops&#45;&gt;create_loop_event -->
<g id="edge7" class="edge">
<title>detect_loops&#45;&gt;create_loop_event</title>
<path fill="none" stroke="black" d="M135.74,-112.26C155.36,-107.57 177.79,-102.61 198.39,-99 238.14,-92.04 282.12,-86.36 320.73,-82.03"/>
<polygon fill="black" stroke="black" points="320.92,-85.43 330.47,-80.85 320.15,-78.47 320.92,-85.43"/>
</g>
<!-- calculate_updated_graph_with_loop_event -->
<g id="node10" class="node">
<title>calculate_updated_graph_with_loop_event</title>
<ellipse fill="none" stroke="black" cx="426.9" cy="-18" rx="228.51" ry="18"/>
<text text-anchor="middle" x="426.9" y="-13.32" font-family="Times,serif" font-size="14.00">calculate_updated_graph_with_loop_event()</text>
</g>
<!-- detect_loops&#45;&gt;calculate_updated_graph_with_loop_event -->
<g id="edge8" class="edge">
<title>detect_loops&#45;&gt;calculate_updated_graph_with_loop_event</title>
<path fill="none" stroke="black" d="M101.04,-108.39C122.71,-89.26 160.24,-59.51 198.39,-45 211.85,-39.88 226.06,-35.67 240.53,-32.21"/>
<polygon fill="black" stroke="black" points="241.12,-35.44 250.11,-29.82 239.58,-28.61 241.12,-35.44"/>
</g>
<!-- calc_loop_end_break_and_loop_edges -->
<g id="node3" class="node">
<title>calc_loop_end_break_and_loop_edges</title>
<ellipse fill="none" stroke="black" cx="920.44" cy="-261" rx="203.25" ry="18"/>
<text text-anchor="middle" x="920.44" y="-256.32" font-family="Times,serif" font-size="14.00">calc_loop_end_break_and_loop_edges()</text>
</g>
<!-- calc_components_of_loop&#45;&gt;calc_loop_end_break_and_loop_edges -->
<g id="edge2" class="edge">
<title>calc_components_of_loop&#45;&gt;calc_loop_end_break_and_loop_edges</title>
<path fill="none" stroke="black" d="M567.11,-250.97C613.13,-252.28 665.32,-253.76 715.17,-255.18"/>
<polygon fill="black" stroke="black" points="715.01,-258.71 725.11,-255.49 715.21,-251.71 715.01,-258.71"/>
</g>
<!-- add_start_and_end_events_to_sub_graph -->
<g id="node5" class="node">
<title>add_start_and_end_events_to_sub_graph</title>
<ellipse fill="none" stroke="black" cx="920.44" cy="-207" rx="221.67" ry="18"/>
<text text-anchor="middle" x="920.44" y="-202.32" font-family="Times,serif" font-size="14.00">add_start_and_end_events_to_sub_graph()</text>
</g>
<!-- create_sub_graph_of_loop&#45;&gt;add_start_and_end_events_to_sub_graph -->
<g id="edge4" class="edge">
<title>create_sub_graph_of_loop&#45;&gt;add_start_and_end_events_to_sub_graph</title>
<path fill="none" stroke="black" d="M561.89,-187.36C611.86,-190.1 669.66,-193.28 724.03,-196.27"/>
<polygon fill="black" stroke="black" points="723.68,-199.81 733.85,-196.86 724.06,-192.82 723.68,-199.81"/>
</g>
<!-- remove_loop_edges -->
<g id="node6" class="node">
<title>remove_loop_edges</title>
<ellipse fill="none" stroke="black" cx="920.44" cy="-153" rx="115.92" ry="18"/>
<text text-anchor="middle" x="920.44" y="-148.32" font-family="Times,serif" font-size="14.00">remove_loop_edges()</text>
</g>
<!-- create_sub_graph_of_loop&#45;&gt;remove_loop_edges -->
<g id="edge5" class="edge">
<title>create_sub_graph_of_loop&#45;&gt;remove_loop_edges</title>
<path fill="none" stroke="black" d="M561.89,-172.64C636.11,-168.56 727.62,-163.54 799.48,-159.59"/>
<polygon fill="black" stroke="black" points="799.59,-163.03 809.38,-158.99 799.2,-156.04 799.59,-163.03"/>
</g>
<!-- remove_nodes_without_path_back_to_loop -->
<g id="node7" class="node">
<title>remove_nodes_without_path_back_to_loop</title>
<ellipse fill="none" stroke="black" cx="920.44" cy="-99" rx="229.03" ry="18"/>
<text text-anchor="middle" x="920.44" y="-94.33" font-family="Times,serif" font-size="14.00">remove_nodes_without_path_back_to_loop()</text>
</g>
<!-- create_sub_graph_of_loop&#45;&gt;remove_nodes_without_path_back_to_loop -->
<g id="edge6" class="edge">
<title>create_sub_graph_of_loop&#45;&gt;remove_nodes_without_path_back_to_loop</title>
<path fill="none" stroke="black" d="M568.53,-174.97C597.96,-170.72 628.27,-163.87 655.41,-153 673.97,-145.57 672.84,-133.43 691.41,-126 704.24,-120.87 717.77,-116.63 731.59,-113.13"/>
<polygon fill="black" stroke="black" points="732.28,-116.33 741.2,-110.61 730.66,-109.52 732.28,-116.33"/>
</g>
</g>
</svg>
