<?xml version="1.0" encoding="UTF-8" standalone="no"?>
<!DOCTYPE svg PUBLIC "-//W3C//DTD SVG 1.1//EN"
 "http://www.w3.org/Graphics/SVG/1.1/DTD/svg11.dtd">
<!-- Generated by graphviz version 8.0.5 (20230506.1012)
 -->
<!-- Title: G Pages: 1 -->
<svg width="1143pt" height="325pt"
 viewBox="0.00 0.00 1142.74 325.00" xmlns="http://www.w3.org/2000/svg" xmlns:xlink="http://www.w3.org/1999/xlink">
<g id="graph0" class="graph" transform="scale(1 1) rotate(0) translate(4 321)">
<title>G</title>
<polygon fill="white" stroke="none" points="-4,4 -4,-321 1138.74,-321 1138.74,4 -4,4"/>
<!-- detect_loops -->
<g id="node1" class="node">
<title>detect_loops</title>
<ellipse fill="none" stroke="black" cx="81.2" cy="-118" rx="81.2" ry="18"/>
<text text-anchor="middle" x="81.2" y="-113.33" font-family="Times,serif" font-size="14.00">detect_loops()</text>
</g>
<!-- detect_loops&#45;&gt;detect_loops -->
<g id="edge11" class="edge">
<title>detect_loops&#45;&gt;detect_loops</title>
<path fill="none" stroke="black" d="M25.88,-131.48C3,-142.53 21.44,-154 81.2,-154 129.28,-154 150.61,-146.57 145.19,-137.91"/>
<polygon fill="black" stroke="black" points="147.63,-134.62 137.52,-131.48 143.46,-140.25 147.63,-134.62"/>
</g>
<!-- calc_components_of_loop -->
<g id="node2" class="node">
<title>calc_components_of_loop</title>
<ellipse fill="none" stroke="black" cx="426.9" cy="-259" rx="143.28" ry="18"/>
<text text-anchor="middle" x="426.9" y="-254.32" font-family="Times,serif" font-size="14.00">calc_components_of_loop()</text>
</g>
<!-- detect_loops&#45;&gt;calc_components_of_loop -->
<g id="edge1" class="edge">
<title>detect_loops&#45;&gt;calc_components_of_loop</title>
<path fill="none" stroke="black" d="M105.6,-135.38C128.34,-151.6 164.33,-175.55 198.39,-191 245.14,-212.2 300.24,-228.86 344.5,-240.39"/>
<polygon fill="black" stroke="black" points="343.37,-243.97 353.93,-243.06 345.11,-237.19 343.37,-243.97"/>
</g>
<!-- create_sub_graph_of_loop -->
<g id="node4" class="node">
<title>create_sub_graph_of_loop</title>
<ellipse fill="none" stroke="black" cx="426.9" cy="-164" rx="146.96" ry="18"/>
<text text-anchor="middle" x="426.9" y="-159.32" font-family="Times,serif" font-size="14.00">create_sub_graph_of_loop()</text>
</g>
<!-- detect_loops&#45;&gt;create_sub_graph_of_loop -->
<g id="edge3" class="edge">
<title>detect_loops&#45;&gt;create_sub_graph_of_loop</title>
<path fill="none" stroke="black" d="M151.75,-127.31C198.64,-133.58 261.51,-142 315.22,-149.19"/>
<polygon fill="black" stroke="black" points="314.45,-152.75 324.83,-150.61 315.38,-145.81 314.45,-152.75"/>
</g>
<!-- create_graph_from_events -->
<g id="node8" class="node">
<title>create_graph_from_events</title>
<ellipse fill="none" stroke="black" cx="913.07" cy="-83" rx="150.64" ry="18"/>
<text text-anchor="middle" x="913.07" y="-78.33" font-family="Times,serif" font-size="14.00">create_graph_from_events()</text>
</g>
<!-- detect_loops&#45;&gt;create_graph_from_events -->
<g id="edge10" class="edge">
<title>detect_loops&#45;&gt;create_graph_from_events</title>
<path fill="none" stroke="black" d="M162.44,-116.08C273.32,-113.25 479.62,-107.39 655.41,-99 692.55,-97.23 732.68,-94.91 769.94,-92.6"/>
<polygon fill="black" stroke="black" points="770.12,-96.03 779.88,-91.92 769.68,-89.05 770.12,-96.03"/>
</g>
<!-- create_loop_event -->
<g id="node9" class="node">
<title>create_loop_event</title>
<ellipse fill="none" stroke="black" cx="426.9" cy="-72" rx="108.55" ry="18"/>
<text text-anchor="middle" x="426.9" y="-67.33" font-family="Times,serif" font-size="14.00">create_loop_event()</text>
</g>
<!-- detect_loops&#45;&gt;create_loop_event -->
<g id="edge8" class="edge">
<title>detect_loops&#45;&gt;create_loop_event</title>
<path fill="none" stroke="black" d="M151.75,-108.69C203.07,-101.82 273.53,-92.39 330.17,-84.81"/>
<polygon fill="black" stroke="black" points="330.49,-88.17 339.94,-83.37 329.56,-81.23 330.49,-88.17"/>
</g>
<!-- calculate_updated_graph_with_loop_event -->
<g id="node10" class="node">
<title>calculate_updated_graph_with_loop_event</title>
<ellipse fill="none" stroke="black" cx="426.9" cy="-18" rx="228.51" ry="18"/>
<text text-anchor="middle" x="426.9" y="-13.32" font-family="Times,serif" font-size="14.00">calculate_updated_graph_with_loop_event()</text>
</g>
<!-- detect_loops&#45;&gt;calculate_updated_graph_with_loop_event -->
<g id="edge9" class="edge">
<title>detect_loops&#45;&gt;calculate_updated_graph_with_loop_event</title>
<path fill="none" stroke="black" d="M103.8,-100.26C126.05,-83.04 162.45,-57.69 198.39,-45 212.79,-39.91 227.99,-35.75 243.42,-32.34"/>
<polygon fill="black" stroke="black" points="244.06,-35.57 253.13,-30.09 242.63,-28.72 244.06,-35.57"/>
</g>
<!-- calc_loop_end_break_and_loop_edges -->
<g id="node3" class="node">
<title>calc_loop_end_break_and_loop_edges</title>
<ellipse fill="none" stroke="black" cx="913.07" cy="-299" rx="203.25" ry="18"/>
<text text-anchor="middle" x="913.07" y="-294.32" font-family="Times,serif" font-size="14.00">calc_loop_end_break_and_loop_edges()</text>
</g>
<!-- calc_components_of_loop&#45;&gt;calc_loop_end_break_and_loop_edges -->
<g id="edge2" class="edge">
<title>calc_components_of_loop&#45;&gt;calc_loop_end_break_and_loop_edges</title>
<path fill="none" stroke="black" d="M547.89,-268.91C609.43,-274 685.23,-280.26 751.71,-285.75"/>
<polygon fill="black" stroke="black" points="751.05,-289.29 761.3,-286.63 751.62,-282.31 751.05,-289.29"/>
</g>
<!-- add_start_and_end_events_to_sub_graph -->
<g id="node5" class="node">
<title>add_start_and_end_events_to_sub_graph</title>
<ellipse fill="none" stroke="black" cx="913.07" cy="-245" rx="221.67" ry="18"/>
<text text-anchor="middle" x="913.07" y="-240.32" font-family="Times,serif" font-size="14.00">add_start_and_end_events_to_sub_graph()</text>
</g>
<!-- create_sub_graph_of_loop&#45;&gt;add_start_and_end_events_to_sub_graph -->
<g id="edge4" class="edge">
<title>create_sub_graph_of_loop&#45;&gt;add_start_and_end_events_to_sub_graph</title>
<path fill="none" stroke="black" d="M498.63,-180.1C551.52,-191.75 625.73,-207.27 691.41,-218 715.82,-221.99 741.84,-225.67 767.14,-228.95"/>
<polygon fill="black" stroke="black" points="766.56,-232.54 776.92,-230.34 767.45,-225.59 766.56,-232.54"/>
</g>
<!-- get_disconnected_loop_sub_graph -->
<g id="node6" class="node">
<title>get_disconnected_loop_sub_graph</title>
<ellipse fill="none" stroke="black" cx="913.07" cy="-191" rx="188" ry="18"/>
<text text-anchor="middle" x="913.07" y="-186.32" font-family="Times,serif" font-size="14.00">get_disconnected_loop_sub_graph()</text>
</g>
<!-- create_sub_graph_of_loop&#45;&gt;get_disconnected_loop_sub_graph -->
<g id="edge5" class="edge">
<title>create_sub_graph_of_loop&#45;&gt;get_disconnected_loop_sub_graph</title>
<path fill="none" stroke="black" d="M561.81,-171.47C616.35,-174.51 680.11,-178.06 738.18,-181.3"/>
<polygon fill="black" stroke="black" points="737.77,-184.84 747.95,-181.9 738.16,-177.85 737.77,-184.84"/>
</g>
<!-- remove_loop_edges -->
<g id="node7" class="node">
<title>remove_loop_edges</title>
<ellipse fill="none" stroke="black" cx="913.07" cy="-137" rx="115.92" ry="18"/>
<text text-anchor="middle" x="913.07" y="-132.32" font-family="Times,serif" font-size="14.00">remove_loop_edges()</text>
</g>
<!-- create_sub_graph_of_loop&#45;&gt;remove_loop_edges -->
<g id="edge6" class="edge">
<title>create_sub_graph_of_loop&#45;&gt;remove_loop_edges</title>
<path fill="none" stroke="black" d="M561.81,-156.53C634.08,-152.5 722.56,-147.57 792.5,-143.67"/>
<polygon fill="black" stroke="black" points="792.34,-147.13 802.13,-143.08 791.95,-140.14 792.34,-147.13"/>
</g>
<!-- create_sub_graph_of_loop&#45;&gt;create_graph_from_events -->
<g id="edge7" class="edge">
<title>create_sub_graph_of_loop&#45;&gt;create_graph_from_events</title>
<path fill="none" stroke="black" d="M556.47,-155.21C589.37,-150.46 624.24,-143.17 655.41,-132 673.06,-125.67 673.7,-116.17 691.41,-110 714.53,-101.95 739.74,-96.23 764.59,-92.18"/>
<polygon fill="black" stroke="black" points="764.86,-95.52 774.21,-90.54 763.79,-88.61 764.86,-95.52"/>
</g>
</g>
</svg>
