<?xml version="1.0" encoding="us-ascii" standalone="no"?><svg xmlns="http://www.w3.org/2000/svg" xmlns:xlink="http://www.w3.org/1999/xlink" contentStyleType="text/css" height="646px" preserveAspectRatio="none" style="width:474px;height:646px;background:#FFFFFF;" version="1.1" viewBox="0 0 474 646" width="474px" zoomAndPan="magnify"><defs/><g><!--class Event--><g id="elem_Event"><rect codeLine="1" fill="#F1F1F1" height="162.0781" id="Event" rx="2.5" ry="2.5" style="stroke:#181818;stroke-width:0.5;" width="252" x="18.14" y="320.78"/><ellipse cx="120.39" cy="336.78" fill="#ADD1B2" rx="11" ry="11" style="stroke:#181818;stroke-width:1.0;"/><path d="M123.3588,342.4206 Q122.7806,342.7175 122.14,342.8581 Q121.4994,343.0144 120.7963,343.0144 Q118.2963,343.0144 116.9681,341.3738 Q115.6556,339.7175 115.6556,336.5925 Q115.6556,333.4675 116.9681,331.8113 Q118.2963,330.155 120.7963,330.155 Q121.4994,330.155 122.14,330.3113 Q122.7963,330.4675 123.3588,330.7644 L123.3588,333.4831 Q122.7338,332.905 122.14,332.6394 Q121.5463,332.3581 120.9213,332.3581 Q119.5775,332.3581 118.89,333.4363 Q118.2025,334.4988 118.2025,336.5925 Q118.2025,338.6863 118.89,339.7644 Q119.5775,340.8269 120.9213,340.8269 Q121.5463,340.8269 122.14,340.5613 Q122.7338,340.28 123.3588,339.7019 L123.3588,342.4206 Z " fill="#000000"/><text fill="#000000" font-family="sans-serif" font-size="14" lengthAdjust="spacing" textLength="39" x="140.89" y="341.6267">Event</text><line style="stroke:#181818;stroke-width:0.5;" x1="19.14" x2="269.14" y1="352.78" y2="352.78"/><polygon fill="none" points="29.14,361.4284,33.14,365.4284,29.14,369.4284,25.14,365.4284" style="stroke:#B38D22;stroke-width:1.0;"/><text fill="#000000" font-family="sans-serif" font-size="14" lengthAdjust="spacing" textLength="107" x="38.14" y="369.7751">event_type : str</text><ellipse cx="29.14" cy="382.7253" fill="none" rx="3" ry="3" style="stroke:#038048;stroke-width:1.0;"/><text fill="#000000" font-family="sans-serif" font-size="14" lengthAdjust="spacing" textLength="197" x="38.14" y="386.072">event_sets : set&lt;EventSet&gt;</text><ellipse cx="29.14" cy="399.0222" fill="none" rx="3" ry="3" style="stroke:#038048;stroke-width:1.0;"/><text fill="#000000" font-family="sans-serif" font-size="14" lengthAdjust="spacing" textLength="216" x="38.14" y="402.3689">in_event_sets : set&lt;EventSet&gt;</text><ellipse cx="29.14" cy="415.3191" fill="none" rx="3" ry="3" style="stroke:#038048;stroke-width:1.0;"/><text fill="#000000" font-family="sans-serif" font-size="14" lengthAdjust="spacing" textLength="202" x="38.14" y="418.6657">logic_gate_tree: ProcessTree</text><line style="stroke:#181818;stroke-width:0.5;" x1="19.14" x2="269.14" y1="425.9675" y2="425.9675"/><ellipse cx="29.14" cy="439.6159" fill="#84BE84" rx="3" ry="3" style="stroke:#038048;stroke-width:1.0;"/><text fill="#000000" font-family="sans-serif" font-size="14" lengthAdjust="spacing" textLength="102" x="38.14" y="442.9626">__hash__() : int</text><ellipse cx="29.14" cy="455.9128" fill="#84BE84" rx="3" ry="3" style="stroke:#038048;stroke-width:1.0;"/><text fill="#000000" font-family="sans-serif" font-size="14" lengthAdjust="spacing" textLength="207" x="38.14" y="459.2595">update_event_sets([]str): void</text><ellipse cx="29.14" cy="472.2097" fill="#84BE84" rx="3" ry="3" style="stroke:#038048;stroke-width:1.0;"/><text fill="#000000" font-family="sans-serif" font-size="14" lengthAdjust="spacing" textLength="226" x="38.14" y="475.5564">update_in_event_sets([]str): void</text></g><!--class EventTuple--><g id="elem_EventTuple"><rect codeLine="11" fill="#F1F1F1" height="113.1875" id="EventTuple" rx="2.5" ry="2.5" style="stroke:#181818;stroke-width:0.5;" width="199" x="44.64" y="147.59"/><ellipse cx="100.89" cy="163.59" fill="#ADD1B2" rx="11" ry="11" style="stroke:#181818;stroke-width:1.0;"/><path d="M103.8588,169.2306 Q103.2806,169.5275 102.64,169.6681 Q101.9994,169.8244 101.2963,169.8244 Q98.7963,169.8244 97.4681,168.1837 Q96.1556,166.5275 96.1556,163.4025 Q96.1556,160.2775 97.4681,158.6212 Q98.7963,156.965 101.2963,156.965 Q101.9994,156.965 102.64,157.1212 Q103.2963,157.2775 103.8588,157.5744 L103.8588,160.2931 Q103.2338,159.715 102.64,159.4494 Q102.0463,159.1681 101.4213,159.1681 Q100.0775,159.1681 99.39,160.2462 Q98.7025,161.3087 98.7025,163.4025 Q98.7025,165.4962 99.39,166.5744 Q100.0775,167.6369 101.4213,167.6369 Q102.0463,167.6369 102.64,167.3712 Q103.2338,167.09 103.8588,166.5119 L103.8588,169.2306 Z " fill="#000000"/><text fill="#000000" font-family="sans-serif" font-size="14" lengthAdjust="spacing" textLength="78" x="121.39" y="168.4367">EventTuple</text><line style="stroke:#181818;stroke-width:0.5;" x1="45.64" x2="242.64" y1="179.59" y2="179.59"/><polygon fill="none" points="55.64,188.2384,59.64,192.2384,55.64,196.2384,51.64,192.2384" style="stroke:#B38D22;stroke-width:1.0;"/><text fill="#000000" font-family="sans-serif" font-size="14" lengthAdjust="spacing" textLength="121" x="64.64" y="196.5851">out_event : Event</text><polygon fill="none" points="55.64,204.5353,59.64,208.5353,55.64,212.5353,51.64,208.5353" style="stroke:#B38D22;stroke-width:1.0;"/><text fill="#000000" font-family="sans-serif" font-size="14" lengthAdjust="spacing" textLength="110" x="64.64" y="212.882">in_event : Event</text><line style="stroke:#181818;stroke-width:0.5;" x1="45.64" x2="242.64" y1="220.1837" y2="220.1837"/><ellipse cx="55.64" cy="233.8322" fill="#84BE84" rx="3" ry="3" style="stroke:#038048;stroke-width:1.0;"/><text fill="#000000" font-family="sans-serif" font-size="14" lengthAdjust="spacing" textLength="102" x="64.64" y="237.1789">__hash__() : int</text><ellipse cx="55.64" cy="250.1291" fill="#84BE84" rx="3" ry="3" style="stroke:#038048;stroke-width:1.0;"/><text fill="#000000" font-family="sans-serif" font-size="14" lengthAdjust="spacing" textLength="173" x="64.64" y="253.4757">__eq__(EventTuple): bool</text></g><!--class EventSet--><g id="elem_EventSet"><rect codeLine="19" fill="#F1F1F1" height="96.8906" id="EventSet" rx="2.5" ry="2.5" style="stroke:#181818;stroke-width:0.5;" width="183" x="52.64" y="542.86"/><ellipse cx="108.89" cy="558.86" fill="#ADD1B2" rx="11" ry="11" style="stroke:#181818;stroke-width:1.0;"/><path d="M111.8588,564.5006 Q111.2806,564.7975 110.64,564.9381 Q109.9994,565.0944 109.2963,565.0944 Q106.7963,565.0944 105.4681,563.4538 Q104.1556,561.7975 104.1556,558.6725 Q104.1556,555.5475 105.4681,553.8913 Q106.7963,552.235 109.2963,552.235 Q109.9994,552.235 110.64,552.3913 Q111.2963,552.5475 111.8588,552.8444 L111.8588,555.5631 Q111.2338,554.985 110.64,554.7194 Q110.0463,554.4381 109.4213,554.4381 Q108.0775,554.4381 107.39,555.5163 Q106.7025,556.5788 106.7025,558.6725 Q106.7025,560.7663 107.39,561.8444 Q108.0775,562.9069 109.4213,562.9069 Q110.0463,562.9069 110.64,562.6413 Q111.2338,562.36 111.8588,561.7819 L111.8588,564.5006 Z " fill="#000000"/><text fill="#000000" font-family="sans-serif" font-size="14" lengthAdjust="spacing" textLength="62" x="129.39" y="563.7067">EventSet</text><line style="stroke:#181818;stroke-width:0.5;" x1="53.64" x2="234.64" y1="574.86" y2="574.86"/><polygon fill="none" points="63.64,583.5084,67.64,587.5084,63.64,591.5084,59.64,587.5084" style="stroke:#B38D22;stroke-width:1.0;"/><text fill="#000000" font-family="sans-serif" font-size="14" lengthAdjust="spacing" textLength="129" x="72.64" y="591.8551">self : dict&lt;str, int&gt;</text><line style="stroke:#181818;stroke-width:0.5;" x1="53.64" x2="234.64" y1="599.1569" y2="599.1569"/><ellipse cx="63.64" cy="612.8053" fill="#84BE84" rx="3" ry="3" style="stroke:#038048;stroke-width:1.0;"/><text fill="#000000" font-family="sans-serif" font-size="14" lengthAdjust="spacing" textLength="102" x="72.64" y="616.152">__hash__() : int</text><ellipse cx="63.64" cy="629.1022" fill="#84BE84" rx="3" ry="3" style="stroke:#038048;stroke-width:1.0;"/><text fill="#000000" font-family="sans-serif" font-size="14" lengthAdjust="spacing" textLength="157" x="72.64" y="632.4489">__eq__(EventSet): bool</text></g><!--class EventGraph--><g id="elem_EventGraph"><rect codeLine="25" fill="#F1F1F1" height="80.5938" id="EventGraph" rx="2.5" ry="2.5" style="stroke:#181818;stroke-width:0.5;" width="189" x="278.64" y="163.89"/><ellipse cx="328.39" cy="179.89" fill="#ADD1B2" rx="11" ry="11" style="stroke:#181818;stroke-width:1.0;"/><path d="M331.3588,185.5306 Q330.7806,185.8275 330.14,185.9681 Q329.4994,186.1244 328.7963,186.1244 Q326.2963,186.1244 324.9681,184.4838 Q323.6556,182.8275 323.6556,179.7025 Q323.6556,176.5775 324.9681,174.9213 Q326.2963,173.265 328.7963,173.265 Q329.4994,173.265 330.14,173.4213 Q330.7963,173.5775 331.3588,173.8744 L331.3588,176.5931 Q330.7338,176.015 330.14,175.7494 Q329.5463,175.4681 328.9213,175.4681 Q327.5775,175.4681 326.89,176.5463 Q326.2025,177.6088 326.2025,179.7025 Q326.2025,181.7963 326.89,182.8744 Q327.5775,183.9369 328.9213,183.9369 Q329.5463,183.9369 330.14,183.6713 Q330.7338,183.39 331.3588,182.8119 L331.3588,185.5306 Z " fill="#000000"/><text fill="#000000" font-family="sans-serif" font-size="14" lengthAdjust="spacing" textLength="81" x="348.89" y="184.7367">EventGraph</text><line style="stroke:#181818;stroke-width:0.5;" x1="279.64" x2="466.64" y1="195.89" y2="195.89"/><text fill="#000000" font-family="sans-serif" font-size="14" lengthAdjust="spacing" textLength="138" x="284.64" y="212.8851">nodes: set&lt;Event&gt;</text><text fill="#000000" font-family="sans-serif" font-size="14" lengthAdjust="spacing" textLength="177" x="284.64" y="229.182">edges: set&lt;EventTuple&gt;</text><line style="stroke:#181818;stroke-width:0.5;" x1="279.64" x2="466.64" y1="236.4838" y2="236.4838"/></g><!--class GraphLoopTuple--><g id="elem_GraphLoopTuple"><rect codeLine="30" fill="#F1F1F1" height="80.5938" id="GraphLoopTuple" rx="2.5" ry="2.5" style="stroke:#181818;stroke-width:0.5;" width="250" x="19.14" y="7"/><ellipse cx="82.39" cy="23" fill="#F1F1F1" rx="11" ry="11" style="stroke:#181818;stroke-width:1.0;"/><path d="M81.8744,23.5625 Q80.015,22.8594 79.3588,22.0938 Q78.7181,21.3125 78.7181,20 Q78.7181,18.3125 79.7963,17.3438 Q80.8744,16.375 82.7494,16.375 Q83.6088,16.375 84.4525,16.5781 Q85.3119,16.7656 86.1556,17.1563 L86.1556,19.5469 Q85.3744,18.9844 84.5463,18.7031 Q83.7338,18.4063 82.9369,18.4063 Q82.0619,18.4063 81.5775,18.7656 Q81.1088,19.125 81.1088,19.7813 Q81.1088,20.2969 81.4525,20.6406 Q81.7963,20.9688 82.89,21.375 L83.9525,21.7813 Q85.4369,22.3281 86.14,23.2344 Q86.8588,24.1406 86.8588,25.5156 Q86.8588,27.3906 85.7494,28.3125 Q84.64,29.2344 82.39,29.2344 Q81.4681,29.2344 80.5463,29.0156 Q79.6244,28.7969 78.765,28.375 L78.765,25.8438 Q79.7338,26.5313 80.6556,26.875 Q81.5775,27.2188 82.4681,27.2188 Q83.3744,27.2188 83.8744,26.8125 Q84.3744,26.3906 84.3744,25.6563 Q84.3744,25.0938 84.0306,24.6875 Q83.7025,24.2656 83.0775,24.0156 L81.8744,23.5625 Z " fill="#000000"/><text fill="#000000" font-family="sans-serif" font-size="14" lengthAdjust="spacing" textLength="115" x="102.89" y="27.8467">GraphLoopTuple</text><line style="stroke:#181818;stroke-width:0.5;" x1="20.14" x2="268.14" y1="39" y2="39"/><ellipse cx="30.14" cy="52.6484" fill="none" rx="3" ry="3" style="stroke:#038048;stroke-width:1.0;"/><text fill="#000000" font-family="sans-serif" font-size="14" lengthAdjust="spacing" textLength="130" x="39.14" y="55.9951">graph: EventGraph</text><ellipse cx="30.14" cy="68.9453" fill="none" rx="3" ry="3" style="stroke:#038048;stroke-width:1.0;"/><text fill="#000000" font-family="sans-serif" font-size="14" lengthAdjust="spacing" textLength="224" x="39.14" y="72.292">loops: dict&lt;Event, EventGraph&gt;</text><line style="stroke:#181818;stroke-width:0.5;" x1="20.14" x2="268.14" y1="79.5938" y2="79.5938"/></g><!--link Event to EventSet--><g id="link_Event_EventSet"><path codeLine="35" d="M144.14,483.15 C144.14,503.32 144.14,518.34 144.14,536.37 " fill="none" id="Event-to-EventSet" style="stroke:#181818;stroke-width:1.0;stroke-dasharray:7.0,7.0;"/><polygon fill="#181818" points="144.14,542.37,148.14,533.37,144.14,537.37,140.14,533.37,144.14,542.37" style="stroke:#181818;stroke-width:1.0;"/></g><!--link EventGraph to Event--><g id="link_EventGraph_Event"><path codeLine="36" d="M326.79,244.78 C301.31,266.55 273.3018,290.4725 242.7418,316.5825 " fill="none" id="EventGraph-to-Event" style="stroke:#181818;stroke-width:1.0;stroke-dasharray:7.0,7.0;"/><polygon fill="#181818" points="238.18,320.48,247.621,317.6749,241.9815,317.2321,242.4243,311.5926,238.18,320.48" style="stroke:#181818;stroke-width:1.0;"/></g><!--link GraphLoopTuple to EventGraph--><g id="link_GraphLoopTuple_EventGraph"><path codeLine="37" d="M202.81,87.98 C237.13,111.2 275.3499,137.0488 309.6399,160.2388 " fill="none" id="GraphLoopTuple-to-EventGraph" style="stroke:#181818;stroke-width:1.0;stroke-dasharray:7.0,7.0;"/><polygon fill="#181818" points="314.61,163.6,309.3957,155.2447,310.4682,160.799,304.914,161.8715,314.61,163.6" style="stroke:#181818;stroke-width:1.0;"/></g><!--link GraphLoopTuple to Event--><g id="link_GraphLoopTuple_Event"><path codeLine="38" d="M77.98,88 C57.82,103.8 38.1,123.9 27.14,147.59 C6,193.25 9.98,213.49 27.14,260.78 C34.86,282.08 43.7357,297.6489 57.7957,315.8789 " fill="none" id="GraphLoopTuple-to-Event" style="stroke:#181818;stroke-width:1.0;stroke-dasharray:7.0,7.0;"/><polygon fill="#181818" points="61.46,320.63,59.1309,311.0605,58.4064,316.6708,52.7961,315.9462,61.46,320.63" style="stroke:#181818;stroke-width:1.0;"/></g><!--link GraphLoopTuple to EventTuple--><g id="link_GraphLoopTuple_EventTuple"><path codeLine="39" d="M144.14,87.78 C144.14,105.8 144.14,121.45 144.14,141.12 " fill="none" id="GraphLoopTuple-to-EventTuple" style="stroke:#181818;stroke-width:1.0;stroke-dasharray:7.0,7.0;"/><polygon fill="#181818" points="144.14,147.12,148.14,138.12,144.14,142.12,140.14,138.12,144.14,147.12" style="stroke:#181818;stroke-width:1.0;"/></g><!--link EventTuple to Event--><g id="link_EventTuple_Event"><path codeLine="40" d="M144.14,261.25 C144.14,279.65 144.14,294.48 144.14,314.33 " fill="none" id="EventTuple-to-Event" style="stroke:#181818;stroke-width:1.0;stroke-dasharray:7.0,7.0;"/><polygon fill="#181818" points="144.14,320.33,148.14,311.33,144.14,315.33,140.14,311.33,144.14,320.33" style="stroke:#181818;stroke-width:1.0;"/></g><!--SRC=[ZLB1QiCm3BtxAmoxjBJq0qB9RUooms2zZM4oMqiC8VOYfJ36_dsotIJs86ovwJtflISvkcyGvVqL1f9VGl9t1w5GzEb1LX9fZEWXeGY40GKwnvbde3hnTb1_jVIkjLgr3O6Y4Q2IJwFJW7ZX8dKerJNOARNRiu8TAA6JDs5cbT-zl7AkVIMlpfgYfqXHjdqBeTTbBvFlOTxOJPJ6s3Mo2Px52dGZerBmmTYgpRPlplN1DlVbQyok2FqxInYhwSmvZq6i_gy7wsGEcS73sFZkPZ4u0vWzHL87qnPeZ5i76KunQP9Huj4vdn_fq0QqoapcHtKURrj4xfYrHDNqSvrEzN81aILTSF7BTY6IsHQxISHIP8-zZlm0]--></g></svg>