<?xml version="1.0" encoding="us-ascii" standalone="no"?><svg xmlns="http://www.w3.org/2000/svg" xmlns:xlink="http://www.w3.org/1999/xlink" contentStyleType="text/css" height="803px" preserveAspectRatio="none" style="width:574px;height:803px;background:#FFFFFF;" version="1.1" viewBox="0 0 574 803" width="574px" zoomAndPan="magnify"><defs/><g><!--class Event--><g id="elem_Event"><rect codeLine="2" fill="#F1F1F1" height="162.0781" id="Event" rx="2.5" ry="2.5" style="stroke:#181818;stroke-width:0.5;" width="252" x="244.5" y="477.67"/><ellipse cx="346.75" cy="493.67" fill="#ADD1B2" rx="11" ry="11" style="stroke:#181818;stroke-width:1.0;"/><path d="M349.7188,499.3106 Q349.1406,499.6075 348.5,499.7481 Q347.8594,499.9044 347.1563,499.9044 Q344.6563,499.9044 343.3281,498.2637 Q342.0156,496.6075 342.0156,493.4825 Q342.0156,490.3575 343.3281,488.7012 Q344.6563,487.045 347.1563,487.045 Q347.8594,487.045 348.5,487.2012 Q349.1563,487.3575 349.7188,487.6544 L349.7188,490.3731 Q349.0938,489.795 348.5,489.5294 Q347.9063,489.2481 347.2813,489.2481 Q345.9375,489.2481 345.25,490.3262 Q344.5625,491.3887 344.5625,493.4825 Q344.5625,495.5762 345.25,496.6544 Q345.9375,497.7169 347.2813,497.7169 Q347.9063,497.7169 348.5,497.4512 Q349.0938,497.17 349.7188,496.5919 L349.7188,499.3106 Z " fill="#000000"/><text fill="#000000" font-family="sans-serif" font-size="14" lengthAdjust="spacing" textLength="39" x="367.25" y="498.5167">Event</text><line style="stroke:#181818;stroke-width:0.5;" x1="245.5" x2="495.5" y1="509.67" y2="509.67"/><polygon fill="none" points="255.5,518.3184,259.5,522.3184,255.5,526.3184,251.5,522.3184" style="stroke:#B38D22;stroke-width:1.0;"/><text fill="#000000" font-family="sans-serif" font-size="14" lengthAdjust="spacing" textLength="107" x="264.5" y="526.6651">event_type : str</text><ellipse cx="255.5" cy="539.6153" fill="none" rx="3" ry="3" style="stroke:#038048;stroke-width:1.0;"/><text fill="#000000" font-family="sans-serif" font-size="14" lengthAdjust="spacing" textLength="197" x="264.5" y="542.962">event_sets : set&lt;EventSet&gt;</text><ellipse cx="255.5" cy="555.9122" fill="none" rx="3" ry="3" style="stroke:#038048;stroke-width:1.0;"/><text fill="#000000" font-family="sans-serif" font-size="14" lengthAdjust="spacing" textLength="216" x="264.5" y="559.2589">in_event_sets : set&lt;EventSet&gt;</text><ellipse cx="255.5" cy="572.2091" fill="none" rx="3" ry="3" style="stroke:#038048;stroke-width:1.0;"/><text fill="#000000" font-family="sans-serif" font-size="14" lengthAdjust="spacing" textLength="202" x="264.5" y="575.5557">logic_gate_tree: ProcessTree</text><line style="stroke:#181818;stroke-width:0.5;" x1="245.5" x2="495.5" y1="582.8575" y2="582.8575"/><ellipse cx="255.5" cy="596.5059" fill="#84BE84" rx="3" ry="3" style="stroke:#038048;stroke-width:1.0;"/><text fill="#000000" font-family="sans-serif" font-size="14" lengthAdjust="spacing" textLength="102" x="264.5" y="599.8526">__hash__() : int</text><ellipse cx="255.5" cy="612.8028" fill="#84BE84" rx="3" ry="3" style="stroke:#038048;stroke-width:1.0;"/><text fill="#000000" font-family="sans-serif" font-size="14" lengthAdjust="spacing" textLength="207" x="264.5" y="616.1495">update_event_sets([]str): void</text><ellipse cx="255.5" cy="629.0997" fill="#84BE84" rx="3" ry="3" style="stroke:#038048;stroke-width:1.0;"/><text fill="#000000" font-family="sans-serif" font-size="14" lengthAdjust="spacing" textLength="226" x="264.5" y="632.4464">update_in_event_sets([]str): void</text></g><!--class Loop--><g id="elem_Loop"><rect codeLine="12" fill="#F1F1F1" height="113.1875" id="Loop" rx="2.5" ry="2.5" style="stroke:#181818;stroke-width:0.5;" width="269" x="7" y="131.3"/><ellipse cx="120.25" cy="147.3" fill="#F1F1F1" rx="11" ry="11" style="stroke:#181818;stroke-width:1.0;"/><path d="M119.7344,147.8625 Q117.875,147.1594 117.2188,146.3937 Q116.5781,145.6125 116.5781,144.3 Q116.5781,142.6125 117.6563,141.6437 Q118.7344,140.675 120.6094,140.675 Q121.4688,140.675 122.3125,140.8781 Q123.1719,141.0656 124.0156,141.4562 L124.0156,143.8469 Q123.2344,143.2844 122.4063,143.0031 Q121.5938,142.7062 120.7969,142.7062 Q119.9219,142.7062 119.4375,143.0656 Q118.9688,143.425 118.9688,144.0812 Q118.9688,144.5969 119.3125,144.9406 Q119.6563,145.2687 120.75,145.675 L121.8125,146.0812 Q123.2969,146.6281 124,147.5344 Q124.7188,148.4406 124.7188,149.8156 Q124.7188,151.6906 123.6094,152.6125 Q122.5,153.5344 120.25,153.5344 Q119.3281,153.5344 118.4063,153.3156 Q117.4844,153.0969 116.625,152.675 L116.625,150.1437 Q117.5938,150.8312 118.5156,151.175 Q119.4375,151.5187 120.3281,151.5187 Q121.2344,151.5187 121.7344,151.1125 Q122.2344,150.6906 122.2344,149.9562 Q122.2344,149.3937 121.8906,148.9875 Q121.5625,148.5656 120.9375,148.3156 L119.7344,147.8625 Z " fill="#000000"/><text fill="#000000" font-family="sans-serif" font-size="14" lengthAdjust="spacing" textLength="34" x="140.75" y="152.1467">Loop</text><line style="stroke:#181818;stroke-width:0.5;" x1="8" x2="275" y1="163.3" y2="163.3"/><text fill="#000000" font-family="sans-serif" font-size="14" lengthAdjust="spacing" textLength="179" x="13" y="180.2951">start_events: set&lt;Event&gt;</text><text fill="#000000" font-family="sans-serif" font-size="14" lengthAdjust="spacing" textLength="175" x="13" y="196.592">end_events: set&lt;Event&gt;</text><text fill="#000000" font-family="sans-serif" font-size="14" lengthAdjust="spacing" textLength="187" x="13" y="212.8889">break_events: set&lt;Event&gt;</text><text fill="#000000" font-family="sans-serif" font-size="14" lengthAdjust="spacing" textLength="257" x="13" y="229.1857">edges_to_remove: set&lt;EventTuple&gt;</text><line style="stroke:#181818;stroke-width:0.5;" x1="8" x2="275" y1="236.4875" y2="236.4875"/></g><!--class LoopEvent--><g id="elem_LoopEvent"><rect codeLine="19" fill="#F1F1F1" height="64.2969" id="LoopEvent" rx="2.5" ry="2.5" style="stroke:#181818;stroke-width:0.5;" width="175" x="392" y="7"/><ellipse cx="438.75" cy="23" fill="#ADD1B2" rx="11" ry="11" style="stroke:#181818;stroke-width:1.0;"/><path d="M441.7188,28.6406 Q441.1406,28.9375 440.5,29.0781 Q439.8594,29.2344 439.1563,29.2344 Q436.6563,29.2344 435.3281,27.5938 Q434.0156,25.9375 434.0156,22.8125 Q434.0156,19.6875 435.3281,18.0313 Q436.6563,16.375 439.1563,16.375 Q439.8594,16.375 440.5,16.5313 Q441.1563,16.6875 441.7188,16.9844 L441.7188,19.7031 Q441.0938,19.125 440.5,18.8594 Q439.9063,18.5781 439.2813,18.5781 Q437.9375,18.5781 437.25,19.6563 Q436.5625,20.7188 436.5625,22.8125 Q436.5625,24.9063 437.25,25.9844 Q437.9375,27.0469 439.2813,27.0469 Q439.9063,27.0469 440.5,26.7813 Q441.0938,26.5 441.7188,25.9219 L441.7188,28.6406 Z " fill="#000000"/><text fill="#000000" font-family="sans-serif" font-size="14" lengthAdjust="spacing" textLength="73" x="459.25" y="27.8467">LoopEvent</text><line style="stroke:#181818;stroke-width:0.5;" x1="393" x2="566" y1="39" y2="39"/><text fill="#000000" font-family="sans-serif" font-size="14" lengthAdjust="spacing" textLength="163" x="398" y="55.9951">sub_graph: EventGraph</text><line style="stroke:#181818;stroke-width:0.5;" x1="393" x2="566" y1="63.2969" y2="63.2969"/></g><!--class EventTuple--><g id="elem_EventTuple"><rect codeLine="23" fill="#F1F1F1" height="113.1875" id="EventTuple" rx="2.5" ry="2.5" style="stroke:#181818;stroke-width:0.5;" width="199" x="195" y="304.48"/><ellipse cx="251.25" cy="320.48" fill="#ADD1B2" rx="11" ry="11" style="stroke:#181818;stroke-width:1.0;"/><path d="M254.2188,326.1206 Q253.6406,326.4175 253,326.5581 Q252.3594,326.7144 251.6563,326.7144 Q249.1563,326.7144 247.8281,325.0737 Q246.5156,323.4175 246.5156,320.2925 Q246.5156,317.1675 247.8281,315.5112 Q249.1563,313.855 251.6563,313.855 Q252.3594,313.855 253,314.0112 Q253.6563,314.1675 254.2188,314.4644 L254.2188,317.1831 Q253.5938,316.605 253,316.3394 Q252.4063,316.0581 251.7813,316.0581 Q250.4375,316.0581 249.75,317.1362 Q249.0625,318.1987 249.0625,320.2925 Q249.0625,322.3862 249.75,323.4644 Q250.4375,324.5269 251.7813,324.5269 Q252.4063,324.5269 253,324.2612 Q253.5938,323.98 254.2188,323.4019 L254.2188,326.1206 Z " fill="#000000"/><text fill="#000000" font-family="sans-serif" font-size="14" lengthAdjust="spacing" textLength="78" x="271.75" y="325.3267">EventTuple</text><line style="stroke:#181818;stroke-width:0.5;" x1="196" x2="393" y1="336.48" y2="336.48"/><polygon fill="none" points="206,345.1284,210,349.1284,206,353.1284,202,349.1284" style="stroke:#B38D22;stroke-width:1.0;"/><text fill="#000000" font-family="sans-serif" font-size="14" lengthAdjust="spacing" textLength="121" x="215" y="353.4751">out_event : Event</text><polygon fill="none" points="206,361.4253,210,365.4253,206,369.4253,202,365.4253" style="stroke:#B38D22;stroke-width:1.0;"/><text fill="#000000" font-family="sans-serif" font-size="14" lengthAdjust="spacing" textLength="110" x="215" y="369.772">in_event : Event</text><line style="stroke:#181818;stroke-width:0.5;" x1="196" x2="393" y1="377.0737" y2="377.0737"/><ellipse cx="206" cy="390.7222" fill="#84BE84" rx="3" ry="3" style="stroke:#038048;stroke-width:1.0;"/><text fill="#000000" font-family="sans-serif" font-size="14" lengthAdjust="spacing" textLength="102" x="215" y="394.0689">__hash__() : int</text><ellipse cx="206" cy="407.0191" fill="#84BE84" rx="3" ry="3" style="stroke:#038048;stroke-width:1.0;"/><text fill="#000000" font-family="sans-serif" font-size="14" lengthAdjust="spacing" textLength="173" x="215" y="410.3657">__eq__(EventTuple): bool</text></g><!--class EventSet--><g id="elem_EventSet"><rect codeLine="31" fill="#F1F1F1" height="96.8906" id="EventSet" rx="2.5" ry="2.5" style="stroke:#181818;stroke-width:0.5;" width="204" x="268.5" y="699.75"/><ellipse cx="283.5" cy="715.75" fill="#ADD1B2" rx="11" ry="11" style="stroke:#181818;stroke-width:1.0;"/><path d="M286.4688,721.3906 Q285.8906,721.6875 285.25,721.8281 Q284.6094,721.9844 283.9063,721.9844 Q281.4063,721.9844 280.0781,720.3438 Q278.7656,718.6875 278.7656,715.5625 Q278.7656,712.4375 280.0781,710.7813 Q281.4063,709.125 283.9063,709.125 Q284.6094,709.125 285.25,709.2813 Q285.9063,709.4375 286.4688,709.7344 L286.4688,712.4531 Q285.8438,711.875 285.25,711.6094 Q284.6563,711.3281 284.0313,711.3281 Q282.6875,711.3281 282,712.4063 Q281.3125,713.4688 281.3125,715.5625 Q281.3125,717.6563 282,718.7344 Q282.6875,719.7969 284.0313,719.7969 Q284.6563,719.7969 285.25,719.5313 Q285.8438,719.25 286.4688,718.6719 L286.4688,721.3906 Z " fill="#000000"/><text fill="#000000" font-family="sans-serif" font-size="14" lengthAdjust="spacing" textLength="62" x="297.5" y="720.5967">EventSet</text><rect fill="#FFFFFF" height="15.9688" style="stroke:#181818;stroke-width:1.0;stroke-dasharray:2.0,2.0;" width="108" x="367.5" y="696.75"/><text fill="#000000" font-family="sans-serif" font-size="12" font-style="italic" lengthAdjust="spacing" textLength="106" x="368.5" y="708.8887">inherits from dict</text><line style="stroke:#181818;stroke-width:0.5;" x1="269.5" x2="471.5" y1="731.75" y2="731.75"/><polygon fill="none" points="279.5,740.3984,283.5,744.3984,279.5,748.3984,275.5,744.3984" style="stroke:#B38D22;stroke-width:1.0;"/><text fill="#000000" font-family="sans-serif" font-size="14" lengthAdjust="spacing" textLength="129" x="288.5" y="748.7451">self : dict&lt;str, int&gt;</text><line style="stroke:#181818;stroke-width:0.5;" x1="269.5" x2="471.5" y1="756.0469" y2="756.0469"/><ellipse cx="279.5" cy="769.6953" fill="#84BE84" rx="3" ry="3" style="stroke:#038048;stroke-width:1.0;"/><text fill="#000000" font-family="sans-serif" font-size="14" lengthAdjust="spacing" textLength="102" x="288.5" y="773.042">__hash__() : int</text><ellipse cx="279.5" cy="785.9922" fill="#84BE84" rx="3" ry="3" style="stroke:#038048;stroke-width:1.0;"/><text fill="#000000" font-family="sans-serif" font-size="14" lengthAdjust="spacing" textLength="157" x="288.5" y="789.3389">__eq__(EventSet): bool</text></g><!--class EventGraph--><g id="elem_EventGraph"><rect codeLine="37" fill="#F1F1F1" height="80.5938" id="EventGraph" rx="2.5" ry="2.5" style="stroke:#181818;stroke-width:0.5;" width="189" x="311" y="147.59"/><ellipse cx="360.75" cy="163.59" fill="#ADD1B2" rx="11" ry="11" style="stroke:#181818;stroke-width:1.0;"/><path d="M363.7188,169.2306 Q363.1406,169.5275 362.5,169.6681 Q361.8594,169.8244 361.1563,169.8244 Q358.6563,169.8244 357.3281,168.1838 Q356.0156,166.5275 356.0156,163.4025 Q356.0156,160.2775 357.3281,158.6213 Q358.6563,156.965 361.1563,156.965 Q361.8594,156.965 362.5,157.1213 Q363.1563,157.2775 363.7188,157.5744 L363.7188,160.2931 Q363.0938,159.715 362.5,159.4494 Q361.9063,159.1681 361.2813,159.1681 Q359.9375,159.1681 359.25,160.2463 Q358.5625,161.3088 358.5625,163.4025 Q358.5625,165.4963 359.25,166.5744 Q359.9375,167.6369 361.2813,167.6369 Q361.9063,167.6369 362.5,167.3713 Q363.0938,167.09 363.7188,166.5119 L363.7188,169.2306 Z " fill="#000000"/><text fill="#000000" font-family="sans-serif" font-size="14" lengthAdjust="spacing" textLength="81" x="381.25" y="168.4367">EventGraph</text><line style="stroke:#181818;stroke-width:0.5;" x1="312" x2="499" y1="179.59" y2="179.59"/><text fill="#000000" font-family="sans-serif" font-size="14" lengthAdjust="spacing" textLength="138" x="317" y="196.5851">nodes: set&lt;Event&gt;</text><text fill="#000000" font-family="sans-serif" font-size="14" lengthAdjust="spacing" textLength="177" x="317" y="212.882">edges: set&lt;EventTuple&gt;</text><line style="stroke:#181818;stroke-width:0.5;" x1="312" x2="499" y1="220.1838" y2="220.1838"/></g><!--link Event to EventSet--><g id="link_Event_EventSet"><path codeLine="43" d="M370.5,640.04 C370.5,660.21 370.5,675.23 370.5,693.26 " fill="none" id="Event-to-EventSet" style="stroke:#181818;stroke-width:1.0;stroke-dasharray:7.0,7.0;"/><polygon fill="#181818" points="370.5,699.26,374.5,690.26,370.5,694.26,366.5,690.26,370.5,699.26" style="stroke:#181818;stroke-width:1.0;"/></g><!--link EventGraph to Event--><g id="link_EventGraph_Event"><path codeLine="44" d="M408.06,228.46 C409.38,250.77 410.84,279.17 411.5,304.48 C412.8,354.77 418.64,367.87 411.5,417.67 C408.68,437.36 405.3704,452.3686 399.8704,471.7186 " fill="none" id="EventGraph-to-Event" style="stroke:#181818;stroke-width:1.0;stroke-dasharray:7.0,7.0;"/><polygon fill="#181818" points="398.23,477.49,404.5383,469.9265,399.597,472.6805,396.8431,467.7393,398.23,477.49" style="stroke:#181818;stroke-width:1.0;"/></g><!--link EventGraph to EventTuple--><g id="link_EventGraph_EventTuple"><path codeLine="45" d="M379.76,228.59 C365.22,251.02 350.0738,274.3654 334.0938,299.0154 " fill="none" id="EventGraph-to-EventTuple" style="stroke:#181818;stroke-width:1.0;stroke-dasharray:7.0,7.0;"/><polygon fill="#181818" points="330.83,304.05,339.0822,298.6739,333.5499,299.8545,332.3693,294.3222,330.83,304.05" style="stroke:#181818;stroke-width:1.0;"/></g><!--link EventTuple to Event--><g id="link_EventTuple_Event"><path codeLine="46" d="M316.28,418.14 C323.43,436.54 329.3476,451.7771 337.0576,471.6271 " fill="none" id="EventTuple-to-Event" style="stroke:#181818;stroke-width:1.0;stroke-dasharray:7.0,7.0;"/><polygon fill="#181818" points="339.23,477.22,339.7001,467.3824,337.4197,472.5592,332.2428,470.2789,339.23,477.22" style="stroke:#181818;stroke-width:1.0;"/></g><!--link LoopEvent to Event--><g id="link_LoopEvent_Event"><path codeLine="47" d="M496.26,71.65 C504.43,88.77 513.36,110.62 517.5,131.3 C527.37,180.62 528.06,195.3 517.5,244.48 C499.49,328.32 458.8431,410.8441 423.7631,472.0641 " fill="none" id="LoopEvent-to-Event" style="stroke:#181818;stroke-width:1.0;"/><polygon fill="#181818" points="420.78,477.27,428.7252,471.4499,423.2659,472.9318,421.784,467.4724,420.78,477.27" style="stroke:#181818;stroke-width:1.0;"/></g><!--link Loop to EventTuple--><g id="link_Loop_EventTuple"><path codeLine="48" d="M191.6,244.94 C208.59,263.96 223.5718,280.7162 240.5518,299.7162 " fill="none" id="Loop-to-EventTuple" style="stroke:#181818;stroke-width:1.0;stroke-dasharray:7.0,7.0;"/><polygon fill="#181818" points="244.55,304.19,241.5353,294.8139,241.2182,300.4618,235.5702,300.1448,244.55,304.19" style="stroke:#181818;stroke-width:1.0;"/></g><!--link Loop to Event--><g id="link_Loop_Event"><path codeLine="49" d="M138.69,244.72 C138.78,293.74 145.37,365.21 177.5,417.67 C194.26,445.03 213.7909,465.0192 239.5309,484.6692 " fill="none" id="Loop-to-Event" style="stroke:#181818;stroke-width:1.0;stroke-dasharray:7.0,7.0;"/><polygon fill="#181818" points="244.3,488.31,239.5735,479.6694,240.3257,485.276,234.7191,486.0283,244.3,488.31" style="stroke:#181818;stroke-width:1.0;"/></g><!--link LoopEvent to EventGraph--><g id="link_LoopEvent_EventGraph"><path codeLine="50" d="M463.63,71.63 C452.46,93.78 440.1195,118.2216 428.1495,141.9816 " fill="none" id="LoopEvent-to-EventGraph" style="stroke:#181818;stroke-width:1.0;stroke-dasharray:7.0,7.0;"/><polygon fill="#181818" points="425.45,147.34,433.0715,141.102,427.6996,142.8747,425.927,137.5027,425.45,147.34" style="stroke:#181818;stroke-width:1.0;"/></g><!--SRC=[ZL5DQuGm4BtxAmAzxDBk_W0HRwMN7XQwjr86FsOrr3KsCmgbzBytCMfYMMazcPTv7tbJD1cHU1omPV4L2VFTeJq0VtOeOa6iH_JUeOHC5aLEHiuBSkhkPGj_ZJIgaWLK6IEmHep5IQi2YSxcu2O0wengWDtUACYM7TftfULu-TthcycrZyMWPBcQMQLOZtr7aJdr1OjdfRhfiSIPPaUX8BCBZ6svTPLhpDutUMM51An0urKD6DoV-wx1r4Ofnjvjah1xwdEeTDRLiLl9a_tturvZtfNgf_HYOZXuhc65RhGBW1y6yzgci5ofnjg6lcQF8f5jZLgQ1L-qkefI5fpEKGYRYz6rM6AAVh0EwN-DZNXW6xYE3KmMhIfne-sR7KUkskCnNLuG1Q8BVXCSPQAWSJ_kjtOuXDXlyXeBQ0lczli3]--></g></svg>