<?xml version="1.0" encoding="us-ascii" standalone="no"?><svg xmlns="http://www.w3.org/2000/svg" xmlns:xlink="http://www.w3.org/1999/xlink" contentStyleType="text/css" height="885px" preserveAspectRatio="none" style="width:581px;height:885px;background:#FFFFFF;" version="1.1" viewBox="0 0 581 885" width="581px" zoomAndPan="magnify"><defs/><g><!--class Event--><g id="elem_Event"><rect codeLine="2" fill="#F1F1F1" height="178.375" id="Event" rx="2.5" ry="2.5" style="stroke:#181818;stroke-width:0.5;" width="252" x="244.5" y="542.86"/><ellipse cx="346.75" cy="558.86" fill="#ADD1B2" rx="11" ry="11" style="stroke:#181818;stroke-width:1.0;"/><path d="M349.7188,564.5006 Q349.1406,564.7975 348.5,564.9381 Q347.8594,565.0944 347.1563,565.0944 Q344.6563,565.0944 343.3281,563.4538 Q342.0156,561.7975 342.0156,558.6725 Q342.0156,555.5475 343.3281,553.8913 Q344.6563,552.235 347.1563,552.235 Q347.8594,552.235 348.5,552.3913 Q349.1563,552.5475 349.7188,552.8444 L349.7188,555.5631 Q349.0938,554.985 348.5,554.7194 Q347.9063,554.4381 347.2813,554.4381 Q345.9375,554.4381 345.25,555.5163 Q344.5625,556.5788 344.5625,558.6725 Q344.5625,560.7663 345.25,561.8444 Q345.9375,562.9069 347.2813,562.9069 Q347.9063,562.9069 348.5,562.6413 Q349.0938,562.36 349.7188,561.7819 L349.7188,564.5006 Z " fill="#000000"/><text fill="#000000" font-family="sans-serif" font-size="14" lengthAdjust="spacing" textLength="39" x="367.25" y="563.7067">Event</text><line style="stroke:#181818;stroke-width:0.5;" x1="245.5" x2="495.5" y1="574.86" y2="574.86"/><polygon fill="none" points="255.5,583.5084,259.5,587.5084,255.5,591.5084,251.5,587.5084" style="stroke:#B38D22;stroke-width:1.0;"/><text fill="#000000" font-family="sans-serif" font-size="14" lengthAdjust="spacing" textLength="107" x="264.5" y="591.8551">event_type : str</text><polygon fill="none" points="255.5,599.8053,259.5,603.8053,255.5,607.8053,251.5,603.8053" style="stroke:#B38D22;stroke-width:1.0;"/><text fill="#000000" font-family="sans-serif" font-size="14" lengthAdjust="spacing" textLength="48" x="264.5" y="608.152">uid: str</text><ellipse cx="255.5" cy="621.1022" fill="none" rx="3" ry="3" style="stroke:#038048;stroke-width:1.0;"/><text fill="#000000" font-family="sans-serif" font-size="14" lengthAdjust="spacing" textLength="197" x="264.5" y="624.4489">event_sets : set&lt;EventSet&gt;</text><ellipse cx="255.5" cy="637.3991" fill="none" rx="3" ry="3" style="stroke:#038048;stroke-width:1.0;"/><text fill="#000000" font-family="sans-serif" font-size="14" lengthAdjust="spacing" textLength="216" x="264.5" y="640.7457">in_event_sets : set&lt;EventSet&gt;</text><ellipse cx="255.5" cy="653.6959" fill="none" rx="3" ry="3" style="stroke:#038048;stroke-width:1.0;"/><text fill="#000000" font-family="sans-serif" font-size="14" lengthAdjust="spacing" textLength="202" x="264.5" y="657.0426">logic_gate_tree: ProcessTree</text><line style="stroke:#181818;stroke-width:0.5;" x1="245.5" x2="495.5" y1="664.3444" y2="664.3444"/><ellipse cx="255.5" cy="677.9928" fill="#84BE84" rx="3" ry="3" style="stroke:#038048;stroke-width:1.0;"/><text fill="#000000" font-family="sans-serif" font-size="14" lengthAdjust="spacing" textLength="102" x="264.5" y="681.3395">__hash__() : int</text><ellipse cx="255.5" cy="694.2897" fill="#84BE84" rx="3" ry="3" style="stroke:#038048;stroke-width:1.0;"/><text fill="#000000" font-family="sans-serif" font-size="14" lengthAdjust="spacing" textLength="207" x="264.5" y="697.6364">update_event_sets([]str): void</text><ellipse cx="255.5" cy="710.5866" fill="#84BE84" rx="3" ry="3" style="stroke:#038048;stroke-width:1.0;"/><text fill="#000000" font-family="sans-serif" font-size="14" lengthAdjust="spacing" textLength="226" x="264.5" y="713.9332">update_in_event_sets([]str): void</text></g><!--class Loop--><g id="elem_Loop"><rect codeLine="13" fill="#F1F1F1" height="129.4844" id="Loop" rx="2.5" ry="2.5" style="stroke:#181818;stroke-width:0.5;" width="269" x="7" y="180.19"/><ellipse cx="120.25" cy="196.19" fill="#F1F1F1" rx="11" ry="11" style="stroke:#181818;stroke-width:1.0;"/><path d="M119.7344,196.7525 Q117.875,196.0494 117.2188,195.2837 Q116.5781,194.5025 116.5781,193.19 Q116.5781,191.5025 117.6563,190.5337 Q118.7344,189.565 120.6094,189.565 Q121.4688,189.565 122.3125,189.7681 Q123.1719,189.9556 124.0156,190.3462 L124.0156,192.7369 Q123.2344,192.1744 122.4063,191.8931 Q121.5938,191.5962 120.7969,191.5962 Q119.9219,191.5962 119.4375,191.9556 Q118.9688,192.315 118.9688,192.9712 Q118.9688,193.4869 119.3125,193.8306 Q119.6563,194.1587 120.75,194.565 L121.8125,194.9712 Q123.2969,195.5181 124,196.4244 Q124.7188,197.3306 124.7188,198.7056 Q124.7188,200.5806 123.6094,201.5025 Q122.5,202.4244 120.25,202.4244 Q119.3281,202.4244 118.4063,202.2056 Q117.4844,201.9869 116.625,201.565 L116.625,199.0337 Q117.5938,199.7212 118.5156,200.065 Q119.4375,200.4087 120.3281,200.4087 Q121.2344,200.4087 121.7344,200.0025 Q122.2344,199.5806 122.2344,198.8462 Q122.2344,198.2837 121.8906,197.8775 Q121.5625,197.4556 120.9375,197.2056 L119.7344,196.7525 Z " fill="#000000"/><text fill="#000000" font-family="sans-serif" font-size="14" lengthAdjust="spacing" textLength="34" x="140.75" y="201.0367">Loop</text><line style="stroke:#181818;stroke-width:0.5;" x1="8" x2="275" y1="212.19" y2="212.19"/><text fill="#000000" font-family="sans-serif" font-size="14" lengthAdjust="spacing" textLength="178" x="13" y="229.1851">loop_events: set&lt;Event&gt;</text><text fill="#000000" font-family="sans-serif" font-size="14" lengthAdjust="spacing" textLength="179" x="13" y="245.482">start_events: set&lt;Event&gt;</text><text fill="#000000" font-family="sans-serif" font-size="14" lengthAdjust="spacing" textLength="175" x="13" y="261.7789">end_events: set&lt;Event&gt;</text><text fill="#000000" font-family="sans-serif" font-size="14" lengthAdjust="spacing" textLength="187" x="13" y="278.0757">break_events: set&lt;Event&gt;</text><text fill="#000000" font-family="sans-serif" font-size="14" lengthAdjust="spacing" textLength="257" x="13" y="294.3726">edges_to_remove: set&lt;EventTuple&gt;</text><line style="stroke:#181818;stroke-width:0.5;" x1="8" x2="275" y1="301.6744" y2="301.6744"/></g><!--class LoopEvent--><g id="elem_LoopEvent"><rect codeLine="21" fill="#F1F1F1" height="113.1875" id="LoopEvent" rx="2.5" ry="2.5" style="stroke:#181818;stroke-width:0.5;" width="189" x="385" y="7"/><ellipse cx="438.75" cy="23" fill="#ADD1B2" rx="11" ry="11" style="stroke:#181818;stroke-width:1.0;"/><path d="M441.7188,28.6406 Q441.1406,28.9375 440.5,29.0781 Q439.8594,29.2344 439.1563,29.2344 Q436.6563,29.2344 435.3281,27.5938 Q434.0156,25.9375 434.0156,22.8125 Q434.0156,19.6875 435.3281,18.0313 Q436.6563,16.375 439.1563,16.375 Q439.8594,16.375 440.5,16.5313 Q441.1563,16.6875 441.7188,16.9844 L441.7188,19.7031 Q441.0938,19.125 440.5,18.8594 Q439.9063,18.5781 439.2813,18.5781 Q437.9375,18.5781 437.25,19.6563 Q436.5625,20.7188 436.5625,22.8125 Q436.5625,24.9063 437.25,25.9844 Q437.9375,27.0469 439.2813,27.0469 Q439.9063,27.0469 440.5,26.7813 Q441.0938,26.5 441.7188,25.9219 L441.7188,28.6406 Z " fill="#000000"/><text fill="#000000" font-family="sans-serif" font-size="14" lengthAdjust="spacing" textLength="73" x="459.25" y="27.8467">LoopEvent</text><line style="stroke:#181818;stroke-width:0.5;" x1="386" x2="573" y1="39" y2="39"/><polygon fill="none" points="396,47.6484,400,51.6484,396,55.6484,392,51.6484" style="stroke:#B38D22;stroke-width:1.0;"/><text fill="#000000" font-family="sans-serif" font-size="14" lengthAdjust="spacing" textLength="163" x="405" y="55.9951">sub_graph: EventGraph</text><polygon fill="none" points="396,63.9453,400,67.9453,396,71.9453,392,67.9453" style="stroke:#B38D22;stroke-width:1.0;"/><text fill="#000000" font-family="sans-serif" font-size="14" lengthAdjust="spacing" textLength="86" x="405" y="72.292">start_uid: str</text><polygon fill="none" points="396,80.2422,400,84.2422,396,88.2422,392,84.2422" style="stroke:#B38D22;stroke-width:1.0;"/><text fill="#000000" font-family="sans-serif" font-size="14" lengthAdjust="spacing" textLength="82" x="405" y="88.5889">end_uid: str</text><polygon fill="none" points="396,96.5391,400,100.5391,396,104.5391,392,100.5391" style="stroke:#B38D22;stroke-width:1.0;"/><text fill="#000000" font-family="sans-serif" font-size="14" lengthAdjust="spacing" textLength="148" x="405" y="104.8857">break_uids: set&lt;str&gt;</text><line style="stroke:#181818;stroke-width:0.5;" x1="386" x2="573" y1="112.1875" y2="112.1875"/></g><!--class EventTuple--><g id="elem_EventTuple"><rect codeLine="28" fill="#F1F1F1" height="113.1875" id="EventTuple" rx="2.5" ry="2.5" style="stroke:#181818;stroke-width:0.5;" width="199" x="195" y="369.68"/><ellipse cx="251.25" cy="385.68" fill="#ADD1B2" rx="11" ry="11" style="stroke:#181818;stroke-width:1.0;"/><path d="M254.2188,391.3206 Q253.6406,391.6175 253,391.7581 Q252.3594,391.9144 251.6563,391.9144 Q249.1563,391.9144 247.8281,390.2738 Q246.5156,388.6175 246.5156,385.4925 Q246.5156,382.3675 247.8281,380.7113 Q249.1563,379.055 251.6563,379.055 Q252.3594,379.055 253,379.2113 Q253.6563,379.3675 254.2188,379.6644 L254.2188,382.3831 Q253.5938,381.805 253,381.5394 Q252.4063,381.2581 251.7813,381.2581 Q250.4375,381.2581 249.75,382.3363 Q249.0625,383.3988 249.0625,385.4925 Q249.0625,387.5863 249.75,388.6644 Q250.4375,389.7269 251.7813,389.7269 Q252.4063,389.7269 253,389.4613 Q253.5938,389.18 254.2188,388.6019 L254.2188,391.3206 Z " fill="#000000"/><text fill="#000000" font-family="sans-serif" font-size="14" lengthAdjust="spacing" textLength="78" x="271.75" y="390.5267">EventTuple</text><line style="stroke:#181818;stroke-width:0.5;" x1="196" x2="393" y1="401.68" y2="401.68"/><polygon fill="none" points="206,410.3284,210,414.3284,206,418.3284,202,414.3284" style="stroke:#B38D22;stroke-width:1.0;"/><text fill="#000000" font-family="sans-serif" font-size="14" lengthAdjust="spacing" textLength="121" x="215" y="418.6751">out_event : Event</text><polygon fill="none" points="206,426.6253,210,430.6253,206,434.6253,202,430.6253" style="stroke:#B38D22;stroke-width:1.0;"/><text fill="#000000" font-family="sans-serif" font-size="14" lengthAdjust="spacing" textLength="110" x="215" y="434.972">in_event : Event</text><line style="stroke:#181818;stroke-width:0.5;" x1="196" x2="393" y1="442.2738" y2="442.2738"/><ellipse cx="206" cy="455.9222" fill="#84BE84" rx="3" ry="3" style="stroke:#038048;stroke-width:1.0;"/><text fill="#000000" font-family="sans-serif" font-size="14" lengthAdjust="spacing" textLength="102" x="215" y="459.2689">__hash__() : int</text><ellipse cx="206" cy="472.2191" fill="#84BE84" rx="3" ry="3" style="stroke:#038048;stroke-width:1.0;"/><text fill="#000000" font-family="sans-serif" font-size="14" lengthAdjust="spacing" textLength="173" x="215" y="475.5657">__eq__(EventTuple): bool</text></g><!--class EventSet--><g id="elem_EventSet"><rect codeLine="36" fill="#F1F1F1" height="96.8906" id="EventSet" rx="2.5" ry="2.5" style="stroke:#181818;stroke-width:0.5;" width="204" x="268.5" y="781.24"/><ellipse cx="283.5" cy="797.24" fill="#ADD1B2" rx="11" ry="11" style="stroke:#181818;stroke-width:1.0;"/><path d="M286.4688,802.8806 Q285.8906,803.1775 285.25,803.3181 Q284.6094,803.4744 283.9063,803.4744 Q281.4063,803.4744 280.0781,801.8338 Q278.7656,800.1775 278.7656,797.0525 Q278.7656,793.9275 280.0781,792.2713 Q281.4063,790.615 283.9063,790.615 Q284.6094,790.615 285.25,790.7713 Q285.9063,790.9275 286.4688,791.2244 L286.4688,793.9431 Q285.8438,793.365 285.25,793.0994 Q284.6563,792.8181 284.0313,792.8181 Q282.6875,792.8181 282,793.8963 Q281.3125,794.9588 281.3125,797.0525 Q281.3125,799.1463 282,800.2244 Q282.6875,801.2869 284.0313,801.2869 Q284.6563,801.2869 285.25,801.0213 Q285.8438,800.74 286.4688,800.1619 L286.4688,802.8806 Z " fill="#000000"/><text fill="#000000" font-family="sans-serif" font-size="14" lengthAdjust="spacing" textLength="62" x="297.5" y="802.0867">EventSet</text><rect fill="#FFFFFF" height="15.9688" style="stroke:#181818;stroke-width:1.0;stroke-dasharray:2.0,2.0;" width="108" x="367.5" y="778.24"/><text fill="#000000" font-family="sans-serif" font-size="12" font-style="italic" lengthAdjust="spacing" textLength="106" x="368.5" y="790.3787">inherits from dict</text><line style="stroke:#181818;stroke-width:0.5;" x1="269.5" x2="471.5" y1="813.24" y2="813.24"/><polygon fill="none" points="279.5,821.8884,283.5,825.8884,279.5,829.8884,275.5,825.8884" style="stroke:#B38D22;stroke-width:1.0;"/><text fill="#000000" font-family="sans-serif" font-size="14" lengthAdjust="spacing" textLength="129" x="288.5" y="830.2351">self : dict&lt;str, int&gt;</text><line style="stroke:#181818;stroke-width:0.5;" x1="269.5" x2="471.5" y1="837.5369" y2="837.5369"/><ellipse cx="279.5" cy="851.1853" fill="#84BE84" rx="3" ry="3" style="stroke:#038048;stroke-width:1.0;"/><text fill="#000000" font-family="sans-serif" font-size="14" lengthAdjust="spacing" textLength="102" x="288.5" y="854.532">__hash__() : int</text><ellipse cx="279.5" cy="867.4822" fill="#84BE84" rx="3" ry="3" style="stroke:#038048;stroke-width:1.0;"/><text fill="#000000" font-family="sans-serif" font-size="14" lengthAdjust="spacing" textLength="157" x="288.5" y="870.8289">__eq__(EventSet): bool</text></g><!--class EventGraph--><g id="elem_EventGraph"><rect codeLine="42" fill="#F1F1F1" height="80.5938" id="EventGraph" rx="2.5" ry="2.5" style="stroke:#181818;stroke-width:0.5;" width="189" x="311" y="204.64"/><ellipse cx="360.75" cy="220.64" fill="#ADD1B2" rx="11" ry="11" style="stroke:#181818;stroke-width:1.0;"/><path d="M363.7188,226.2806 Q363.1406,226.5775 362.5,226.7181 Q361.8594,226.8744 361.1563,226.8744 Q358.6563,226.8744 357.3281,225.2338 Q356.0156,223.5775 356.0156,220.4525 Q356.0156,217.3275 357.3281,215.6713 Q358.6563,214.015 361.1563,214.015 Q361.8594,214.015 362.5,214.1713 Q363.1563,214.3275 363.7188,214.6244 L363.7188,217.3431 Q363.0938,216.765 362.5,216.4994 Q361.9063,216.2181 361.2813,216.2181 Q359.9375,216.2181 359.25,217.2963 Q358.5625,218.3588 358.5625,220.4525 Q358.5625,222.5463 359.25,223.6244 Q359.9375,224.6869 361.2813,224.6869 Q361.9063,224.6869 362.5,224.4213 Q363.0938,224.14 363.7188,223.5619 L363.7188,226.2806 Z " fill="#000000"/><text fill="#000000" font-family="sans-serif" font-size="14" lengthAdjust="spacing" textLength="81" x="381.25" y="225.4867">EventGraph</text><line style="stroke:#181818;stroke-width:0.5;" x1="312" x2="499" y1="236.64" y2="236.64"/><text fill="#000000" font-family="sans-serif" font-size="14" lengthAdjust="spacing" textLength="138" x="317" y="253.6351">nodes: set&lt;Event&gt;</text><text fill="#000000" font-family="sans-serif" font-size="14" lengthAdjust="spacing" textLength="177" x="317" y="269.932">edges: set&lt;EventTuple&gt;</text><line style="stroke:#181818;stroke-width:0.5;" x1="312" x2="499" y1="277.2338" y2="277.2338"/></g><!--link Event to EventSet--><g id="link_Event_EventSet"><path codeLine="48" d="M370.5,721.71 C370.5,742.13 370.5,757.09 370.5,774.98 " fill="none" id="Event-to-EventSet" style="stroke:#181818;stroke-width:1.0;stroke-dasharray:7.0,7.0;"/><polygon fill="#181818" points="370.5,780.98,374.5,771.98,370.5,775.98,366.5,771.98,370.5,780.98" style="stroke:#181818;stroke-width:1.0;"/></g><!--link EventGraph to Event--><g id="link_EventGraph_Event"><path codeLine="49" d="M407.91,285.48 C409.26,309.77 410.82,341.51 411.5,369.68 C412.72,419.97 418.27,433.02 411.5,482.86 C408.84,502.44 405.8302,517.2784 400.7002,536.7284 " fill="none" id="EventGraph-to-Event" style="stroke:#181818;stroke-width:1.0;stroke-dasharray:7.0,7.0;"/><polygon fill="#181818" points="399.17,542.53,405.333,534.8477,400.4452,537.6953,397.5976,532.8075,399.17,542.53" style="stroke:#181818;stroke-width:1.0;"/></g><!--link EventGraph to EventTuple--><g id="link_EventGraph_EventTuple"><path codeLine="50" d="M381.14,285.29 C365.89,309.93 349.1579,336.9683 332.2779,364.2383 " fill="none" id="EventGraph-to-EventTuple" style="stroke:#181818;stroke-width:1.0;stroke-dasharray:7.0,7.0;"/><polygon fill="#181818" points="329.12,369.34,337.258,363.7927,331.7516,365.0886,330.4558,359.5821,329.12,369.34" style="stroke:#181818;stroke-width:1.0;"/></g><!--link EventTuple to Event--><g id="link_EventTuple_Event"><path codeLine="51" d="M315.37,483.22 C322.22,501.61 327.9224,516.8886 335.4524,537.0686 " fill="none" id="EventTuple-to-Event" style="stroke:#181818;stroke-width:1.0;stroke-dasharray:7.0,7.0;"/><polygon fill="#181818" points="337.55,542.69,338.1512,532.8595,335.802,538.0055,330.656,535.6563,337.55,542.69" style="stroke:#181818;stroke-width:1.0;"/></g><!--link LoopEvent to Event--><g id="link_LoopEvent_Event"><path codeLine="52" d="M501.82,120.44 C508.21,139.13 514.31,160.27 517.5,180.19 C526.6,237.02 529.59,253.41 517.5,309.68 C499.65,392.76 460.9793,474.7515 426.5893,537.3415 " fill="none" id="LoopEvent-to-Event" style="stroke:#181818;stroke-width:1.0;"/><polygon fill="#181818" points="423.7,542.6,431.5396,536.6384,426.1077,538.2179,424.5283,532.786,423.7,542.6" style="stroke:#181818;stroke-width:1.0;"/></g><!--link Loop to EventTuple--><g id="link_Loop_EventTuple"><path codeLine="53" d="M196.3,310.17 C212.77,329.47 226.7945,345.9166 242.7745,364.6366 " fill="none" id="Loop-to-EventTuple" style="stroke:#181818;stroke-width:1.0;stroke-dasharray:7.0,7.0;"/><polygon fill="#181818" points="246.67,369.2,243.869,359.7578,243.4237,365.3971,237.7844,364.9518,246.67,369.2" style="stroke:#181818;stroke-width:1.0;"/></g><!--link Loop to Event--><g id="link_Loop_Event"><path codeLine="54" d="M138.61,310.09 C139.2,360.37 146.51,430.38 177.5,482.86 C194.15,511.06 213.7286,531.9946 239.4586,552.7346 " fill="none" id="Loop-to-Event" style="stroke:#181818;stroke-width:1.0;stroke-dasharray:7.0,7.0;"/><polygon fill="#181818" points="244.13,556.5,239.6332,547.7376,240.2372,553.3622,234.6127,553.9661,244.13,556.5" style="stroke:#181818;stroke-width:1.0;"/></g><!--link LoopEvent to EventGraph--><g id="link_LoopEvent_EventGraph"><path codeLine="55" d="M456.49,120.36 C445.29,147.5 434.3672,173.9631 424.2072,198.6031 " fill="none" id="LoopEvent-to-EventGraph" style="stroke:#181818;stroke-width:1.0;stroke-dasharray:7.0,7.0;"/><polygon fill="#181818" points="421.92,204.15,429.0488,197.3544,423.826,199.5275,421.6529,194.3048,421.92,204.15" style="stroke:#181818;stroke-width:1.0;"/></g><!--SRC=[ZL91ReCm4Bpp2akv96gJ1w28MzLB3vMQMrMj06_0Ai7KNf2ggd_l6XEmgw2M4vxTdPdrk6noQyN3W2s9hqJmjq5t0FhiKAJ2al5eh-HoklCz5icw7gJZoF22bFcwQk6lbaPNgeGg9mGoYAbuDhf4Qqzyy1q0TMvhWEsE6LHB7kqxwMOM-kth6_lQfMBGIaOzaOkuxJj9-DIN99wqxgRL6_xr4pQmxFrQoWsj5R6LQwN2OFw-EYShj40Q35xqW47zr7SDPivcEIRaN4OfsRw0okHTdVhq7jt_L1gjHe5jdCCOySOOcsnn8T1RJ5m5TJ-jBoP53r_lE49NeWF03yOMRawZqBfnig4kFn9nL6sDHl7hEHjz4LALbCsxOtDcNeSvs_TE8VklC9C7ie7gU8EJHAibhiHrCwJ4PtCuPFC6IK0wupV1aIO9RdnfNsBVxqFizt2C1MCpvj_73m00]--></g></svg>