<?xml version="1.0" encoding="us-ascii" standalone="no"?><svg xmlns="http://www.w3.org/2000/svg" xmlns:xlink="http://www.w3.org/1999/xlink" contentStyleType="text/css" height="819px" preserveAspectRatio="none" style="width:374px;height:819px;background:#FFFFFF;" version="1.1" viewBox="0 0 374 819" width="374px" zoomAndPan="magnify"><defs/><g><!--class Event--><g id="elem_Event"><rect codeLine="2" fill="#F1F1F1" height="162.0781" id="Event" rx="2.5" ry="2.5" style="stroke:#181818;stroke-width:0.5;" width="252" x="39.5" y="493.97"/><ellipse cx="141.75" cy="509.97" fill="#ADD1B2" rx="11" ry="11" style="stroke:#181818;stroke-width:1.0;"/><path d="M144.7188,515.6106 Q144.1406,515.9075 143.5,516.0481 Q142.8594,516.2044 142.1563,516.2044 Q139.6563,516.2044 138.3281,514.5638 Q137.0156,512.9075 137.0156,509.7825 Q137.0156,506.6575 138.3281,505.0013 Q139.6563,503.345 142.1563,503.345 Q142.8594,503.345 143.5,503.5013 Q144.1563,503.6575 144.7188,503.9544 L144.7188,506.6731 Q144.0938,506.095 143.5,505.8294 Q142.9063,505.5481 142.2813,505.5481 Q140.9375,505.5481 140.25,506.6263 Q139.5625,507.6888 139.5625,509.7825 Q139.5625,511.8763 140.25,512.9544 Q140.9375,514.0169 142.2813,514.0169 Q142.9063,514.0169 143.5,513.7513 Q144.0938,513.47 144.7188,512.8919 L144.7188,515.6106 Z " fill="#000000"/><text fill="#000000" font-family="sans-serif" font-size="14" lengthAdjust="spacing" textLength="39" x="162.25" y="514.8167">Event</text><line style="stroke:#181818;stroke-width:0.5;" x1="40.5" x2="290.5" y1="525.97" y2="525.97"/><polygon fill="none" points="50.5,534.6184,54.5,538.6184,50.5,542.6184,46.5,538.6184" style="stroke:#B38D22;stroke-width:1.0;"/><text fill="#000000" font-family="sans-serif" font-size="14" lengthAdjust="spacing" textLength="107" x="59.5" y="542.9651">event_type : str</text><ellipse cx="50.5" cy="555.9153" fill="none" rx="3" ry="3" style="stroke:#038048;stroke-width:1.0;"/><text fill="#000000" font-family="sans-serif" font-size="14" lengthAdjust="spacing" textLength="197" x="59.5" y="559.262">event_sets : set&lt;EventSet&gt;</text><ellipse cx="50.5" cy="572.2122" fill="none" rx="3" ry="3" style="stroke:#038048;stroke-width:1.0;"/><text fill="#000000" font-family="sans-serif" font-size="14" lengthAdjust="spacing" textLength="216" x="59.5" y="575.5589">in_event_sets : set&lt;EventSet&gt;</text><ellipse cx="50.5" cy="588.5091" fill="none" rx="3" ry="3" style="stroke:#038048;stroke-width:1.0;"/><text fill="#000000" font-family="sans-serif" font-size="14" lengthAdjust="spacing" textLength="202" x="59.5" y="591.8557">logic_gate_tree: ProcessTree</text><line style="stroke:#181818;stroke-width:0.5;" x1="40.5" x2="290.5" y1="599.1575" y2="599.1575"/><ellipse cx="50.5" cy="612.8059" fill="#84BE84" rx="3" ry="3" style="stroke:#038048;stroke-width:1.0;"/><text fill="#000000" font-family="sans-serif" font-size="14" lengthAdjust="spacing" textLength="102" x="59.5" y="616.1526">__hash__() : int</text><ellipse cx="50.5" cy="629.1028" fill="#84BE84" rx="3" ry="3" style="stroke:#038048;stroke-width:1.0;"/><text fill="#000000" font-family="sans-serif" font-size="14" lengthAdjust="spacing" textLength="207" x="59.5" y="632.4495">update_event_sets([]str): void</text><ellipse cx="50.5" cy="645.3997" fill="#84BE84" rx="3" ry="3" style="stroke:#038048;stroke-width:1.0;"/><text fill="#000000" font-family="sans-serif" font-size="14" lengthAdjust="spacing" textLength="226" x="59.5" y="648.7464">update_in_event_sets([]str): void</text></g><!--class LoopEvent--><g id="elem_LoopEvent"><rect codeLine="12" fill="#F1F1F1" height="113.1875" id="LoopEvent" rx="2.5" ry="2.5" style="stroke:#181818;stroke-width:0.5;" width="235" x="7" y="7"/><ellipse cx="83.75" cy="23" fill="#ADD1B2" rx="11" ry="11" style="stroke:#181818;stroke-width:1.0;"/><path d="M86.7188,28.6406 Q86.1406,28.9375 85.5,29.0781 Q84.8594,29.2344 84.1563,29.2344 Q81.6563,29.2344 80.3281,27.5938 Q79.0156,25.9375 79.0156,22.8125 Q79.0156,19.6875 80.3281,18.0313 Q81.6563,16.375 84.1563,16.375 Q84.8594,16.375 85.5,16.5313 Q86.1563,16.6875 86.7188,16.9844 L86.7188,19.7031 Q86.0938,19.125 85.5,18.8594 Q84.9063,18.5781 84.2813,18.5781 Q82.9375,18.5781 82.25,19.6563 Q81.5625,20.7188 81.5625,22.8125 Q81.5625,24.9063 82.25,25.9844 Q82.9375,27.0469 84.2813,27.0469 Q84.9063,27.0469 85.5,26.7813 Q86.0938,26.5 86.7188,25.9219 L86.7188,28.6406 Z " fill="#000000"/><text fill="#000000" font-family="sans-serif" font-size="14" lengthAdjust="spacing" textLength="73" x="104.25" y="27.8467">LoopEvent</text><line style="stroke:#181818;stroke-width:0.5;" x1="8" x2="241" y1="39" y2="39"/><text fill="#000000" font-family="sans-serif" font-size="14" lengthAdjust="spacing" textLength="176" x="13" y="55.9951">start_nodes: set&lt;Event&gt;</text><text fill="#000000" font-family="sans-serif" font-size="14" lengthAdjust="spacing" textLength="172" x="13" y="72.292">end_nodes: set&lt;Event&gt;</text><text fill="#000000" font-family="sans-serif" font-size="14" lengthAdjust="spacing" textLength="223" x="13" y="88.5889">break_edges: set&lt;EventTuple&gt;</text><text fill="#000000" font-family="sans-serif" font-size="14" lengthAdjust="spacing" textLength="163" x="13" y="104.8857">sub_graph: EventGraph</text><line style="stroke:#181818;stroke-width:0.5;" x1="8" x2="241" y1="112.1875" y2="112.1875"/></g><!--class EventTuple--><g id="elem_EventTuple"><rect codeLine="19" fill="#F1F1F1" height="113.1875" id="EventTuple" rx="2.5" ry="2.5" style="stroke:#181818;stroke-width:0.5;" width="199" x="66" y="320.78"/><ellipse cx="122.25" cy="336.78" fill="#ADD1B2" rx="11" ry="11" style="stroke:#181818;stroke-width:1.0;"/><path d="M125.2188,342.4206 Q124.6406,342.7175 124,342.8581 Q123.3594,343.0144 122.6563,343.0144 Q120.1563,343.0144 118.8281,341.3738 Q117.5156,339.7175 117.5156,336.5925 Q117.5156,333.4675 118.8281,331.8113 Q120.1563,330.155 122.6563,330.155 Q123.3594,330.155 124,330.3113 Q124.6563,330.4675 125.2188,330.7644 L125.2188,333.4831 Q124.5938,332.905 124,332.6394 Q123.4063,332.3581 122.7813,332.3581 Q121.4375,332.3581 120.75,333.4363 Q120.0625,334.4988 120.0625,336.5925 Q120.0625,338.6863 120.75,339.7644 Q121.4375,340.8269 122.7813,340.8269 Q123.4063,340.8269 124,340.5613 Q124.5938,340.28 125.2188,339.7019 L125.2188,342.4206 Z " fill="#000000"/><text fill="#000000" font-family="sans-serif" font-size="14" lengthAdjust="spacing" textLength="78" x="142.75" y="341.6267">EventTuple</text><line style="stroke:#181818;stroke-width:0.5;" x1="67" x2="264" y1="352.78" y2="352.78"/><polygon fill="none" points="77,361.4284,81,365.4284,77,369.4284,73,365.4284" style="stroke:#B38D22;stroke-width:1.0;"/><text fill="#000000" font-family="sans-serif" font-size="14" lengthAdjust="spacing" textLength="121" x="86" y="369.7751">out_event : Event</text><polygon fill="none" points="77,377.7253,81,381.7253,77,385.7253,73,381.7253" style="stroke:#B38D22;stroke-width:1.0;"/><text fill="#000000" font-family="sans-serif" font-size="14" lengthAdjust="spacing" textLength="110" x="86" y="386.072">in_event : Event</text><line style="stroke:#181818;stroke-width:0.5;" x1="67" x2="264" y1="393.3738" y2="393.3738"/><ellipse cx="77" cy="407.0222" fill="#84BE84" rx="3" ry="3" style="stroke:#038048;stroke-width:1.0;"/><text fill="#000000" font-family="sans-serif" font-size="14" lengthAdjust="spacing" textLength="102" x="86" y="410.3689">__hash__() : int</text><ellipse cx="77" cy="423.3191" fill="#84BE84" rx="3" ry="3" style="stroke:#038048;stroke-width:1.0;"/><text fill="#000000" font-family="sans-serif" font-size="14" lengthAdjust="spacing" textLength="173" x="86" y="426.6657">__eq__(EventTuple): bool</text></g><!--class EventSet--><g id="elem_EventSet"><rect codeLine="27" fill="#F1F1F1" height="96.8906" id="EventSet" rx="2.5" ry="2.5" style="stroke:#181818;stroke-width:0.5;" width="204" x="63.5" y="716.05"/><ellipse cx="78.5" cy="732.05" fill="#ADD1B2" rx="11" ry="11" style="stroke:#181818;stroke-width:1.0;"/><path d="M81.4688,737.6906 Q80.8906,737.9875 80.25,738.1281 Q79.6094,738.2844 78.9063,738.2844 Q76.4063,738.2844 75.0781,736.6438 Q73.7656,734.9875 73.7656,731.8625 Q73.7656,728.7375 75.0781,727.0813 Q76.4063,725.425 78.9063,725.425 Q79.6094,725.425 80.25,725.5813 Q80.9063,725.7375 81.4688,726.0344 L81.4688,728.7531 Q80.8438,728.175 80.25,727.9094 Q79.6563,727.6281 79.0313,727.6281 Q77.6875,727.6281 77,728.7063 Q76.3125,729.7688 76.3125,731.8625 Q76.3125,733.9563 77,735.0344 Q77.6875,736.0969 79.0313,736.0969 Q79.6563,736.0969 80.25,735.8313 Q80.8438,735.55 81.4688,734.9719 L81.4688,737.6906 Z " fill="#000000"/><text fill="#000000" font-family="sans-serif" font-size="14" lengthAdjust="spacing" textLength="62" x="92.5" y="736.8967">EventSet</text><rect fill="#FFFFFF" height="15.9688" style="stroke:#181818;stroke-width:1.0;stroke-dasharray:2.0,2.0;" width="108" x="162.5" y="713.05"/><text fill="#000000" font-family="sans-serif" font-size="12" font-style="italic" lengthAdjust="spacing" textLength="106" x="163.5" y="725.1887">inherits from dict</text><line style="stroke:#181818;stroke-width:0.5;" x1="64.5" x2="266.5" y1="748.05" y2="748.05"/><polygon fill="none" points="74.5,756.6984,78.5,760.6984,74.5,764.6984,70.5,760.6984" style="stroke:#B38D22;stroke-width:1.0;"/><text fill="#000000" font-family="sans-serif" font-size="14" lengthAdjust="spacing" textLength="129" x="83.5" y="765.0451">self : dict&lt;str, int&gt;</text><line style="stroke:#181818;stroke-width:0.5;" x1="64.5" x2="266.5" y1="772.3469" y2="772.3469"/><ellipse cx="74.5" cy="785.9953" fill="#84BE84" rx="3" ry="3" style="stroke:#038048;stroke-width:1.0;"/><text fill="#000000" font-family="sans-serif" font-size="14" lengthAdjust="spacing" textLength="102" x="83.5" y="789.342">__hash__() : int</text><ellipse cx="74.5" cy="802.2922" fill="#84BE84" rx="3" ry="3" style="stroke:#038048;stroke-width:1.0;"/><text fill="#000000" font-family="sans-serif" font-size="14" lengthAdjust="spacing" textLength="157" x="83.5" y="805.6389">__eq__(EventSet): bool</text></g><!--class EventGraph--><g id="elem_EventGraph"><rect codeLine="33" fill="#F1F1F1" height="80.5938" id="EventGraph" rx="2.5" ry="2.5" style="stroke:#181818;stroke-width:0.5;" width="189" x="178" y="180.19"/><ellipse cx="227.75" cy="196.19" fill="#ADD1B2" rx="11" ry="11" style="stroke:#181818;stroke-width:1.0;"/><path d="M230.7188,201.8306 Q230.1406,202.1275 229.5,202.2681 Q228.8594,202.4244 228.1563,202.4244 Q225.6563,202.4244 224.3281,200.7838 Q223.0156,199.1275 223.0156,196.0025 Q223.0156,192.8775 224.3281,191.2213 Q225.6563,189.565 228.1563,189.565 Q228.8594,189.565 229.5,189.7213 Q230.1563,189.8775 230.7188,190.1744 L230.7188,192.8931 Q230.0938,192.315 229.5,192.0494 Q228.9063,191.7681 228.2813,191.7681 Q226.9375,191.7681 226.25,192.8463 Q225.5625,193.9088 225.5625,196.0025 Q225.5625,198.0963 226.25,199.1744 Q226.9375,200.2369 228.2813,200.2369 Q228.9063,200.2369 229.5,199.9713 Q230.0938,199.69 230.7188,199.1119 L230.7188,201.8306 Z " fill="#000000"/><text fill="#000000" font-family="sans-serif" font-size="14" lengthAdjust="spacing" textLength="81" x="248.25" y="201.0367">EventGraph</text><line style="stroke:#181818;stroke-width:0.5;" x1="179" x2="366" y1="212.19" y2="212.19"/><text fill="#000000" font-family="sans-serif" font-size="14" lengthAdjust="spacing" textLength="138" x="184" y="229.1851">nodes: set&lt;Event&gt;</text><text fill="#000000" font-family="sans-serif" font-size="14" lengthAdjust="spacing" textLength="177" x="184" y="245.482">edges: set&lt;EventTuple&gt;</text><line style="stroke:#181818;stroke-width:0.5;" x1="179" x2="366" y1="252.7838" y2="252.7838"/></g><!--link Event to EventSet--><g id="link_Event_EventSet"><path codeLine="39" d="M165.5,656.34 C165.5,676.51 165.5,691.53 165.5,709.56 " fill="none" id="Event-to-EventSet" style="stroke:#181818;stroke-width:1.0;stroke-dasharray:7.0,7.0;"/><polygon fill="#181818" points="165.5,715.56,169.5,706.56,165.5,710.56,161.5,706.56,165.5,715.56" style="stroke:#181818;stroke-width:1.0;"/></g><!--link EventGraph to Event--><g id="link_EventGraph_Event"><path codeLine="40" d="M283.27,261.23 C293.12,304.98 303.28,376.69 282.5,433.97 C274.78,455.27 265.9043,470.8389 251.8443,489.0689 " fill="none" id="EventGraph-to-Event" style="stroke:#181818;stroke-width:1.0;stroke-dasharray:7.0,7.0;"/><polygon fill="#181818" points="248.18,493.82,256.8439,489.1362,251.2336,489.8608,250.5091,484.2505,248.18,493.82" style="stroke:#181818;stroke-width:1.0;"/></g><!--link EventGraph to EventTuple--><g id="link_EventGraph_EventTuple"><path codeLine="41" d="M245.22,260.97 C232.78,278.99 221.2306,295.7036 207.6406,315.3736 " fill="none" id="EventGraph-to-EventTuple" style="stroke:#181818;stroke-width:1.0;stroke-dasharray:7.0,7.0;"/><polygon fill="#181818" points="204.23,320.31,212.6368,315.1791,207.0721,316.1963,206.0549,310.6317,204.23,320.31" style="stroke:#181818;stroke-width:1.0;"/></g><!--link EventTuple to Event--><g id="link_EventTuple_Event"><path codeLine="42" d="M165.5,434.44 C165.5,452.84 165.5,467.67 165.5,487.52 " fill="none" id="EventTuple-to-Event" style="stroke:#181818;stroke-width:1.0;stroke-dasharray:7.0,7.0;"/><polygon fill="#181818" points="165.5,493.52,169.5,484.52,165.5,488.52,161.5,484.52,165.5,493.52" style="stroke:#181818;stroke-width:1.0;"/></g><!--link LoopEvent to Event--><g id="link_LoopEvent_Event"><path codeLine="43" d="M94.45,120.42 C59.01,193.96 9.54,326.57 48.5,433.97 C56.22,455.27 65.0957,470.8389 79.1557,489.0689 " fill="none" id="LoopEvent-to-Event" style="stroke:#181818;stroke-width:1.0;"/><polygon fill="#181818" points="82.82,493.82,80.4909,484.2505,79.7664,489.8608,74.1561,489.1362,82.82,493.82" style="stroke:#181818;stroke-width:1.0;"/></g><!--link LoopEvent to EventTuple--><g id="link_LoopEvent_EventTuple"><path codeLine="44" d="M131.83,120.34 C139.26,176.82 149.9079,257.7912 157.3479,314.3812 " fill="none" id="LoopEvent-to-EventTuple" style="stroke:#181818;stroke-width:1.0;"/><polygon fill="#181818" points="158.13,320.33,160.9227,310.8854,157.4782,315.3727,152.991,311.9282,158.13,320.33" style="stroke:#181818;stroke-width:1.0;"/></g><!--link LoopEvent to EventGraph--><g id="link_LoopEvent_EventGraph"><path codeLine="45" d="M177.93,120.52 C196.81,140.27 213.4856,157.7213 230.7656,175.8113 " fill="none" id="LoopEvent-to-EventGraph" style="stroke:#181818;stroke-width:1.0;"/><polygon fill="#181818" points="234.91,180.15,231.5859,170.8791,231.4563,176.5344,225.801,176.4049,234.91,180.15" style="stroke:#181818;stroke-width:1.0;"/></g><!--SRC=[ZL91JiCm4Bpd5PQuj8Bs0L6K6-B20OdU45evoJQn27RmRYeXnD-nuwPsf1J8oPvTpypEfkubaRW_eMRnbGdttQ2_07yEA791R2VqDg24J1v5BgOtpyXbg2iDVxNqfbKrj98Hs2BcuicQ6eaExX8w03f97S1cwnYKve2EG-FVHFhDowlpjSt5oQXcqRDmiMpxph9w6lRHc24Tc5XQ1cqQfCHsy8owkLAfBCetmAPTr0xZq6DeeB62rigXoqEy3_uSNSJsENSpSZ0lpYy2F8-qGAya1O0V3elSRlZAcDxBfhfk9w9GkaEhtBAErhoBHjLSpbO8-wFZzLZX8hpp2kL_XHrv8fkeJWcS9Qx4lHwdTnysjj-NbmcoXFI2hu8JJPOa7jlZpx3R_O85XfL2sEeF]--></g></svg>