<?xml version="1.0" encoding="us-ascii" standalone="no"?><svg xmlns="http://www.w3.org/2000/svg" xmlns:xlink="http://www.w3.org/1999/xlink" contentStyleType="text/css" height="819px" preserveAspectRatio="none" style="width:574px;height:819px;background:#FFFFFF;" version="1.1" viewBox="0 0 574 819" width="574px" zoomAndPan="magnify"><defs/><g><!--class Event--><g id="elem_Event"><rect codeLine="2" fill="#F1F1F1" height="162.0781" id="Event" rx="2.5" ry="2.5" style="stroke:#181818;stroke-width:0.5;" width="252" x="244.5" y="493.97"/><ellipse cx="346.75" cy="509.97" fill="#ADD1B2" rx="11" ry="11" style="stroke:#181818;stroke-width:1.0;"/><path d="M349.7188,515.6106 Q349.1406,515.9075 348.5,516.0481 Q347.8594,516.2044 347.1563,516.2044 Q344.6563,516.2044 343.3281,514.5638 Q342.0156,512.9075 342.0156,509.7825 Q342.0156,506.6575 343.3281,505.0013 Q344.6563,503.345 347.1563,503.345 Q347.8594,503.345 348.5,503.5013 Q349.1563,503.6575 349.7188,503.9544 L349.7188,506.6731 Q349.0938,506.095 348.5,505.8294 Q347.9063,505.5481 347.2813,505.5481 Q345.9375,505.5481 345.25,506.6263 Q344.5625,507.6888 344.5625,509.7825 Q344.5625,511.8763 345.25,512.9544 Q345.9375,514.0169 347.2813,514.0169 Q347.9063,514.0169 348.5,513.7513 Q349.0938,513.47 349.7188,512.8919 L349.7188,515.6106 Z " fill="#000000"/><text fill="#000000" font-family="sans-serif" font-size="14" lengthAdjust="spacing" textLength="39" x="367.25" y="514.8167">Event</text><line style="stroke:#181818;stroke-width:0.5;" x1="245.5" x2="495.5" y1="525.97" y2="525.97"/><polygon fill="none" points="255.5,534.6184,259.5,538.6184,255.5,542.6184,251.5,538.6184" style="stroke:#B38D22;stroke-width:1.0;"/><text fill="#000000" font-family="sans-serif" font-size="14" lengthAdjust="spacing" textLength="107" x="264.5" y="542.9651">event_type : str</text><ellipse cx="255.5" cy="555.9153" fill="none" rx="3" ry="3" style="stroke:#038048;stroke-width:1.0;"/><text fill="#000000" font-family="sans-serif" font-size="14" lengthAdjust="spacing" textLength="197" x="264.5" y="559.262">event_sets : set&lt;EventSet&gt;</text><ellipse cx="255.5" cy="572.2122" fill="none" rx="3" ry="3" style="stroke:#038048;stroke-width:1.0;"/><text fill="#000000" font-family="sans-serif" font-size="14" lengthAdjust="spacing" textLength="216" x="264.5" y="575.5589">in_event_sets : set&lt;EventSet&gt;</text><ellipse cx="255.5" cy="588.5091" fill="none" rx="3" ry="3" style="stroke:#038048;stroke-width:1.0;"/><text fill="#000000" font-family="sans-serif" font-size="14" lengthAdjust="spacing" textLength="202" x="264.5" y="591.8557">logic_gate_tree: ProcessTree</text><line style="stroke:#181818;stroke-width:0.5;" x1="245.5" x2="495.5" y1="599.1575" y2="599.1575"/><ellipse cx="255.5" cy="612.8059" fill="#84BE84" rx="3" ry="3" style="stroke:#038048;stroke-width:1.0;"/><text fill="#000000" font-family="sans-serif" font-size="14" lengthAdjust="spacing" textLength="102" x="264.5" y="616.1526">__hash__() : int</text><ellipse cx="255.5" cy="629.1028" fill="#84BE84" rx="3" ry="3" style="stroke:#038048;stroke-width:1.0;"/><text fill="#000000" font-family="sans-serif" font-size="14" lengthAdjust="spacing" textLength="207" x="264.5" y="632.4495">update_event_sets([]str): void</text><ellipse cx="255.5" cy="645.3997" fill="#84BE84" rx="3" ry="3" style="stroke:#038048;stroke-width:1.0;"/><text fill="#000000" font-family="sans-serif" font-size="14" lengthAdjust="spacing" textLength="226" x="264.5" y="648.7464">update_in_event_sets([]str): void</text></g><!--class Loop--><g id="elem_Loop"><rect codeLine="12" fill="#F1F1F1" height="129.4844" id="Loop" rx="2.5" ry="2.5" style="stroke:#181818;stroke-width:0.5;" width="269" x="7" y="131.3"/><ellipse cx="120.25" cy="147.3" fill="#F1F1F1" rx="11" ry="11" style="stroke:#181818;stroke-width:1.0;"/><path d="M119.7344,147.8625 Q117.875,147.1594 117.2188,146.3938 Q116.5781,145.6125 116.5781,144.3 Q116.5781,142.6125 117.6563,141.6438 Q118.7344,140.675 120.6094,140.675 Q121.4688,140.675 122.3125,140.8781 Q123.1719,141.0656 124.0156,141.4563 L124.0156,143.8469 Q123.2344,143.2844 122.4063,143.0031 Q121.5938,142.7063 120.7969,142.7063 Q119.9219,142.7063 119.4375,143.0656 Q118.9688,143.425 118.9688,144.0813 Q118.9688,144.5969 119.3125,144.9406 Q119.6563,145.2688 120.75,145.675 L121.8125,146.0813 Q123.2969,146.6281 124,147.5344 Q124.7188,148.4406 124.7188,149.8156 Q124.7188,151.6906 123.6094,152.6125 Q122.5,153.5344 120.25,153.5344 Q119.3281,153.5344 118.4063,153.3156 Q117.4844,153.0969 116.625,152.675 L116.625,150.1438 Q117.5938,150.8313 118.5156,151.175 Q119.4375,151.5188 120.3281,151.5188 Q121.2344,151.5188 121.7344,151.1125 Q122.2344,150.6906 122.2344,149.9563 Q122.2344,149.3938 121.8906,148.9875 Q121.5625,148.5656 120.9375,148.3156 L119.7344,147.8625 Z " fill="#000000"/><text fill="#000000" font-family="sans-serif" font-size="14" lengthAdjust="spacing" textLength="34" x="140.75" y="152.1467">Loop</text><line style="stroke:#181818;stroke-width:0.5;" x1="8" x2="275" y1="163.3" y2="163.3"/><text fill="#000000" font-family="sans-serif" font-size="14" lengthAdjust="spacing" textLength="178" x="13" y="180.2951">loop_events: set&lt;Event&gt;</text><text fill="#000000" font-family="sans-serif" font-size="14" lengthAdjust="spacing" textLength="179" x="13" y="196.592">start_events: set&lt;Event&gt;</text><text fill="#000000" font-family="sans-serif" font-size="14" lengthAdjust="spacing" textLength="175" x="13" y="212.8889">end_events: set&lt;Event&gt;</text><text fill="#000000" font-family="sans-serif" font-size="14" lengthAdjust="spacing" textLength="187" x="13" y="229.1857">break_events: set&lt;Event&gt;</text><text fill="#000000" font-family="sans-serif" font-size="14" lengthAdjust="spacing" textLength="257" x="13" y="245.4826">edges_to_remove: set&lt;EventTuple&gt;</text><line style="stroke:#181818;stroke-width:0.5;" x1="8" x2="275" y1="252.7844" y2="252.7844"/></g><!--class LoopEvent--><g id="elem_LoopEvent"><rect codeLine="20" fill="#F1F1F1" height="64.2969" id="LoopEvent" rx="2.5" ry="2.5" style="stroke:#181818;stroke-width:0.5;" width="175" x="392" y="7"/><ellipse cx="438.75" cy="23" fill="#ADD1B2" rx="11" ry="11" style="stroke:#181818;stroke-width:1.0;"/><path d="M441.7188,28.6406 Q441.1406,28.9375 440.5,29.0781 Q439.8594,29.2344 439.1563,29.2344 Q436.6563,29.2344 435.3281,27.5938 Q434.0156,25.9375 434.0156,22.8125 Q434.0156,19.6875 435.3281,18.0313 Q436.6563,16.375 439.1563,16.375 Q439.8594,16.375 440.5,16.5313 Q441.1563,16.6875 441.7188,16.9844 L441.7188,19.7031 Q441.0938,19.125 440.5,18.8594 Q439.9063,18.5781 439.2813,18.5781 Q437.9375,18.5781 437.25,19.6563 Q436.5625,20.7188 436.5625,22.8125 Q436.5625,24.9063 437.25,25.9844 Q437.9375,27.0469 439.2813,27.0469 Q439.9063,27.0469 440.5,26.7813 Q441.0938,26.5 441.7188,25.9219 L441.7188,28.6406 Z " fill="#000000"/><text fill="#000000" font-family="sans-serif" font-size="14" lengthAdjust="spacing" textLength="73" x="459.25" y="27.8467">LoopEvent</text><line style="stroke:#181818;stroke-width:0.5;" x1="393" x2="566" y1="39" y2="39"/><text fill="#000000" font-family="sans-serif" font-size="14" lengthAdjust="spacing" textLength="163" x="398" y="55.9951">sub_graph: EventGraph</text><line style="stroke:#181818;stroke-width:0.5;" x1="393" x2="566" y1="63.2969" y2="63.2969"/></g><!--class EventTuple--><g id="elem_EventTuple"><rect codeLine="24" fill="#F1F1F1" height="113.1875" id="EventTuple" rx="2.5" ry="2.5" style="stroke:#181818;stroke-width:0.5;" width="199" x="195" y="320.78"/><ellipse cx="251.25" cy="336.78" fill="#ADD1B2" rx="11" ry="11" style="stroke:#181818;stroke-width:1.0;"/><path d="M254.2188,342.4206 Q253.6406,342.7175 253,342.8581 Q252.3594,343.0144 251.6563,343.0144 Q249.1563,343.0144 247.8281,341.3738 Q246.5156,339.7175 246.5156,336.5925 Q246.5156,333.4675 247.8281,331.8113 Q249.1563,330.155 251.6563,330.155 Q252.3594,330.155 253,330.3113 Q253.6563,330.4675 254.2188,330.7644 L254.2188,333.4831 Q253.5938,332.905 253,332.6394 Q252.4063,332.3581 251.7813,332.3581 Q250.4375,332.3581 249.75,333.4363 Q249.0625,334.4988 249.0625,336.5925 Q249.0625,338.6863 249.75,339.7644 Q250.4375,340.8269 251.7813,340.8269 Q252.4063,340.8269 253,340.5613 Q253.5938,340.28 254.2188,339.7019 L254.2188,342.4206 Z " fill="#000000"/><text fill="#000000" font-family="sans-serif" font-size="14" lengthAdjust="spacing" textLength="78" x="271.75" y="341.6267">EventTuple</text><line style="stroke:#181818;stroke-width:0.5;" x1="196" x2="393" y1="352.78" y2="352.78"/><polygon fill="none" points="206,361.4284,210,365.4284,206,369.4284,202,365.4284" style="stroke:#B38D22;stroke-width:1.0;"/><text fill="#000000" font-family="sans-serif" font-size="14" lengthAdjust="spacing" textLength="121" x="215" y="369.7751">out_event : Event</text><polygon fill="none" points="206,377.7253,210,381.7253,206,385.7253,202,381.7253" style="stroke:#B38D22;stroke-width:1.0;"/><text fill="#000000" font-family="sans-serif" font-size="14" lengthAdjust="spacing" textLength="110" x="215" y="386.072">in_event : Event</text><line style="stroke:#181818;stroke-width:0.5;" x1="196" x2="393" y1="393.3738" y2="393.3738"/><ellipse cx="206" cy="407.0222" fill="#84BE84" rx="3" ry="3" style="stroke:#038048;stroke-width:1.0;"/><text fill="#000000" font-family="sans-serif" font-size="14" lengthAdjust="spacing" textLength="102" x="215" y="410.3689">__hash__() : int</text><ellipse cx="206" cy="423.3191" fill="#84BE84" rx="3" ry="3" style="stroke:#038048;stroke-width:1.0;"/><text fill="#000000" font-family="sans-serif" font-size="14" lengthAdjust="spacing" textLength="173" x="215" y="426.6657">__eq__(EventTuple): bool</text></g><!--class EventSet--><g id="elem_EventSet"><rect codeLine="32" fill="#F1F1F1" height="96.8906" id="EventSet" rx="2.5" ry="2.5" style="stroke:#181818;stroke-width:0.5;" width="204" x="268.5" y="716.05"/><ellipse cx="283.5" cy="732.05" fill="#ADD1B2" rx="11" ry="11" style="stroke:#181818;stroke-width:1.0;"/><path d="M286.4688,737.6906 Q285.8906,737.9875 285.25,738.1281 Q284.6094,738.2844 283.9063,738.2844 Q281.4063,738.2844 280.0781,736.6438 Q278.7656,734.9875 278.7656,731.8625 Q278.7656,728.7375 280.0781,727.0813 Q281.4063,725.425 283.9063,725.425 Q284.6094,725.425 285.25,725.5813 Q285.9063,725.7375 286.4688,726.0344 L286.4688,728.7531 Q285.8438,728.175 285.25,727.9094 Q284.6563,727.6281 284.0313,727.6281 Q282.6875,727.6281 282,728.7063 Q281.3125,729.7688 281.3125,731.8625 Q281.3125,733.9563 282,735.0344 Q282.6875,736.0969 284.0313,736.0969 Q284.6563,736.0969 285.25,735.8313 Q285.8438,735.55 286.4688,734.9719 L286.4688,737.6906 Z " fill="#000000"/><text fill="#000000" font-family="sans-serif" font-size="14" lengthAdjust="spacing" textLength="62" x="297.5" y="736.8967">EventSet</text><rect fill="#FFFFFF" height="15.9688" style="stroke:#181818;stroke-width:1.0;stroke-dasharray:2.0,2.0;" width="108" x="367.5" y="713.05"/><text fill="#000000" font-family="sans-serif" font-size="12" font-style="italic" lengthAdjust="spacing" textLength="106" x="368.5" y="725.1887">inherits from dict</text><line style="stroke:#181818;stroke-width:0.5;" x1="269.5" x2="471.5" y1="748.05" y2="748.05"/><polygon fill="none" points="279.5,756.6984,283.5,760.6984,279.5,764.6984,275.5,760.6984" style="stroke:#B38D22;stroke-width:1.0;"/><text fill="#000000" font-family="sans-serif" font-size="14" lengthAdjust="spacing" textLength="129" x="288.5" y="765.0451">self : dict&lt;str, int&gt;</text><line style="stroke:#181818;stroke-width:0.5;" x1="269.5" x2="471.5" y1="772.3469" y2="772.3469"/><ellipse cx="279.5" cy="785.9953" fill="#84BE84" rx="3" ry="3" style="stroke:#038048;stroke-width:1.0;"/><text fill="#000000" font-family="sans-serif" font-size="14" lengthAdjust="spacing" textLength="102" x="288.5" y="789.342">__hash__() : int</text><ellipse cx="279.5" cy="802.2922" fill="#84BE84" rx="3" ry="3" style="stroke:#038048;stroke-width:1.0;"/><text fill="#000000" font-family="sans-serif" font-size="14" lengthAdjust="spacing" textLength="157" x="288.5" y="805.6389">__eq__(EventSet): bool</text></g><!--class EventGraph--><g id="elem_EventGraph"><rect codeLine="38" fill="#F1F1F1" height="80.5938" id="EventGraph" rx="2.5" ry="2.5" style="stroke:#181818;stroke-width:0.5;" width="189" x="311" y="155.74"/><ellipse cx="360.75" cy="171.74" fill="#ADD1B2" rx="11" ry="11" style="stroke:#181818;stroke-width:1.0;"/><path d="M363.7188,177.3806 Q363.1406,177.6775 362.5,177.8181 Q361.8594,177.9744 361.1563,177.9744 Q358.6563,177.9744 357.3281,176.3338 Q356.0156,174.6775 356.0156,171.5525 Q356.0156,168.4275 357.3281,166.7713 Q358.6563,165.115 361.1563,165.115 Q361.8594,165.115 362.5,165.2713 Q363.1563,165.4275 363.7188,165.7244 L363.7188,168.4431 Q363.0938,167.865 362.5,167.5994 Q361.9063,167.3181 361.2813,167.3181 Q359.9375,167.3181 359.25,168.3963 Q358.5625,169.4588 358.5625,171.5525 Q358.5625,173.6463 359.25,174.7244 Q359.9375,175.7869 361.2813,175.7869 Q361.9063,175.7869 362.5,175.5213 Q363.0938,175.24 363.7188,174.6619 L363.7188,177.3806 Z " fill="#000000"/><text fill="#000000" font-family="sans-serif" font-size="14" lengthAdjust="spacing" textLength="81" x="381.25" y="176.5867">EventGraph</text><line style="stroke:#181818;stroke-width:0.5;" x1="312" x2="499" y1="187.74" y2="187.74"/><text fill="#000000" font-family="sans-serif" font-size="14" lengthAdjust="spacing" textLength="138" x="317" y="204.7351">nodes: set&lt;Event&gt;</text><text fill="#000000" font-family="sans-serif" font-size="14" lengthAdjust="spacing" textLength="177" x="317" y="221.032">edges: set&lt;EventTuple&gt;</text><line style="stroke:#181818;stroke-width:0.5;" x1="312" x2="499" y1="228.3338" y2="228.3338"/></g><!--link Event to EventSet--><g id="link_Event_EventSet"><path codeLine="44" d="M370.5,656.34 C370.5,676.51 370.5,691.53 370.5,709.56 " fill="none" id="Event-to-EventSet" style="stroke:#181818;stroke-width:1.0;stroke-dasharray:7.0,7.0;"/><polygon fill="#181818" points="370.5,715.56,374.5,706.56,370.5,710.56,366.5,706.56,370.5,715.56" style="stroke:#181818;stroke-width:1.0;"/></g><!--link EventGraph to Event--><g id="link_EventGraph_Event"><path codeLine="45" d="M410.53,236.68 C415.59,283.93 421.37,365.14 411.5,433.97 C408.68,453.66 405.3704,468.6686 399.8704,488.0186 " fill="none" id="EventGraph-to-Event" style="stroke:#181818;stroke-width:1.0;stroke-dasharray:7.0,7.0;"/><polygon fill="#181818" points="398.23,493.79,404.5383,486.2265,399.597,488.9805,396.8431,484.0393,398.23,493.79" style="stroke:#181818;stroke-width:1.0;"/></g><!--link EventGraph to EventTuple--><g id="link_EventGraph_EventTuple"><path codeLine="46" d="M381.14,236.4 C365.89,261.04 349.1588,288.0788 332.2788,315.3388 " fill="none" id="EventGraph-to-EventTuple" style="stroke:#181818;stroke-width:1.0;stroke-dasharray:7.0,7.0;"/><polygon fill="#181818" points="329.12,320.44,337.259,314.8941,331.7523,316.189,330.4574,310.6824,329.12,320.44" style="stroke:#181818;stroke-width:1.0;"/></g><!--link EventTuple to Event--><g id="link_EventTuple_Event"><path codeLine="47" d="M316.28,434.44 C323.43,452.84 329.3476,468.0771 337.0576,487.9271 " fill="none" id="EventTuple-to-Event" style="stroke:#181818;stroke-width:1.0;stroke-dasharray:7.0,7.0;"/><polygon fill="#181818" points="339.23,493.52,339.7001,483.6824,337.4197,488.8592,332.2428,486.5789,339.23,493.52" style="stroke:#181818;stroke-width:1.0;"/></g><!--link LoopEvent to Event--><g id="link_LoopEvent_Event"><path codeLine="48" d="M496.26,71.65 C504.43,88.77 513.36,110.62 517.5,131.3 C528.79,187.73 529.45,204.49 517.5,260.78 C499.69,344.67 459.0273,427.1865 423.8873,488.3965 " fill="none" id="LoopEvent-to-Event" style="stroke:#181818;stroke-width:1.0;"/><polygon fill="#181818" points="420.9,493.6,428.8499,487.7863,423.3894,489.2638,421.9119,483.8033,420.9,493.6" style="stroke:#181818;stroke-width:1.0;"/></g><!--link Loop to EventTuple--><g id="link_Loop_EventTuple"><path codeLine="49" d="M196.3,261.28 C212.77,280.58 226.7945,297.0266 242.7745,315.7466 " fill="none" id="Loop-to-EventTuple" style="stroke:#181818;stroke-width:1.0;stroke-dasharray:7.0,7.0;"/><polygon fill="#181818" points="246.67,320.31,243.869,310.8678,243.4237,316.5071,237.7844,316.0618,246.67,320.31" style="stroke:#181818;stroke-width:1.0;"/></g><!--link Loop to Event--><g id="link_Loop_Event"><path codeLine="50" d="M138.22,261.17 C138.57,311.6 145.75,381.82 177.5,433.97 C194.19,461.37 213.6915,481.3783 239.4215,501.0283 " fill="none" id="Loop-to-Event" style="stroke:#181818;stroke-width:1.0;stroke-dasharray:7.0,7.0;"/><polygon fill="#181818" points="244.19,504.67,239.4651,496.0285,240.2163,501.6353,234.6095,502.3865,244.19,504.67" style="stroke:#181818;stroke-width:1.0;"/></g><!--link LoopEvent to EventGraph--><g id="link_LoopEvent_EventGraph"><path codeLine="51" d="M464.52,71.5 C452.95,95.72 439.4473,123.9865 426.9873,150.0565 " fill="none" id="LoopEvent-to-EventGraph" style="stroke:#181818;stroke-width:1.0;stroke-dasharray:7.0,7.0;"/><polygon fill="#181818" points="424.4,155.47,431.89,149.0747,426.5561,150.9588,424.672,145.6249,424.4,155.47" style="stroke:#181818;stroke-width:1.0;"/></g><!--SRC=[ZL7BQiCm4BpxAmIz9BJ91vZWM-cbXq1pAsLnx8qjwbYkTcqefV_UbUM7N69QdQJPtTdHJ5QbHEgnmvhLLwJatA5x07ysg695R7lqtgE4J0v5FlGpByY9h-iQ_cgfJA4pA596O8iOgwCr6HATvE4x0CgKIe3DLXXqpHvjczpDpFIRrpVHjOrLPtI-w5ceMBPzHv6ysepLip7DyDbAhdw20ibUBt5gUQs8TRvMEbjCtrVdyW89s835g-amg9_QfiB4oSpwJ9pAC1Tgpr3Oj2bZ7zUJky_jCyUOesa7zMgOyF1eqG9TSHu0FmIRkSNCip6LMnlkbOpLGTSbMYtXNwovgbndd8nI2AkBy3hi824yk0t9VnSBUR0ssDexCAoeJOuhRj_qEFBMxlV9z8Ce89tmcs1F4mMEp-rpQhjTYFqUNcB1s8JvV7y0]--></g></svg>