<?xml version="1.0" encoding="us-ascii" standalone="no"?><svg xmlns="http://www.w3.org/2000/svg" xmlns:xlink="http://www.w3.org/1999/xlink" contentStyleType="text/css" height="408px" preserveAspectRatio="none" style="width:229px;height:408px;background:#FFFFFF;" version="1.1" viewBox="0 0 229 408" width="229px" zoomAndPan="magnify"><defs/><g><rect fill="none" height="386.0742" style="stroke:#000000;stroke-width:1.5;" width="186" x="11" y="11"/><path d="M207,11 L207,20.4883 L197,30.4883 L11,30.4883 " fill="none" style="stroke:#000000;stroke-width:1.5;"/><text fill="#000000" font-family="sans-serif" font-size="14" lengthAdjust="spacing" textLength="186" x="14" y="25.5352">bunched_ANDFork_ORFork</text><rect fill="none" height="344.5859" style="stroke:#000000;stroke-width:1.5;" width="166" x="21" y="40.4883"/><path d="M217,40.4883 L217,49.9766 L207,59.9766 L21,59.9766 " fill="none" style="stroke:#000000;stroke-width:1.5;"/><text fill="#000000" font-family="sans-serif" font-size="14" lengthAdjust="spacing" textLength="186" x="24" y="55.0234">bunched_ANDFork_ORFork</text><rect fill="#008000" height="34.1328" rx="12.5" ry="12.5" style="stroke:#181818;stroke-width:0.5;" width="28" x="99" y="69.9766"/><text fill="#000000" font-family="sans-serif" font-size="12" lengthAdjust="spacing" textLength="8" x="109" y="91.5781">A</text><rect fill="#555555" height="6" rx="2.5" ry="2.5" style="stroke:#555555;stroke-width:1.0;" width="146" x="31" y="124.1094"/><line style="stroke:#181818;stroke-width:1.5;" x1="57.5" x2="113.5" y1="150.1094" y2="150.1094"/><rect fill="#F1F1F1" height="34.1328" rx="12.5" ry="12.5" style="stroke:#181818;stroke-width:0.5;" width="29" x="43" y="170.1094"/><text fill="#000000" font-family="sans-serif" font-size="12" lengthAdjust="spacing" textLength="9" x="53" y="191.7109">D</text><rect fill="#F1F1F1" height="34.1328" rx="12.5" ry="12.5" style="stroke:#181818;stroke-width:0.5;" width="27" x="100" y="170.1094"/><text fill="#000000" font-family="sans-serif" font-size="12" lengthAdjust="spacing" textLength="7" x="110" y="191.7109">E</text><line style="stroke:#181818;stroke-width:1.5;" x1="57.5" x2="113.5" y1="224.2422" y2="224.2422"/><rect fill="#F1F1F1" height="34.1328" rx="12.5" ry="12.5" style="stroke:#181818;stroke-width:0.5;" width="27" x="71.5" y="258.8086"/><text fill="#000000" font-family="sans-serif" font-size="12" lengthAdjust="spacing" textLength="7" x="81.5" y="280.4102">B</text><rect fill="#F1F1F1" height="34.1328" rx="12.5" ry="12.5" style="stroke:#181818;stroke-width:0.5;" width="28" x="137" y="204.6758"/><text fill="#000000" font-family="sans-serif" font-size="12" lengthAdjust="spacing" textLength="8" x="147" y="226.2773">C</text><rect fill="#555555" height="6" rx="2.5" ry="2.5" style="stroke:#555555;stroke-width:1.0;" width="146" x="31" y="312.9414"/><rect fill="#FF0000" height="34.1328" rx="12.5" ry="12.5" style="stroke:#181818;stroke-width:0.5;" width="26" x="100" y="338.9414"/><text fill="#000000" font-family="sans-serif" font-size="12" lengthAdjust="spacing" textLength="6" x="110" y="360.543">F</text><line style="stroke:#181818;stroke-width:1.0;" x1="57.5" x2="57.5" y1="151.6094" y2="170.1094"/><polygon fill="#181818" points="53.5,160.1094,57.5,170.1094,61.5,160.1094,57.5,164.1094" style="stroke:#181818;stroke-width:1.0;"/><line style="stroke:#181818;stroke-width:1.0;" x1="113.5" x2="113.5" y1="151.6094" y2="170.1094"/><polygon fill="#181818" points="109.5,160.1094,113.5,170.1094,117.5,160.1094,113.5,164.1094" style="stroke:#181818;stroke-width:1.0;"/><line style="stroke:#181818;stroke-width:1.0;" x1="57.5" x2="57.5" y1="204.2422" y2="224.2422"/><polygon fill="#181818" points="53.5,214.2422,57.5,224.2422,61.5,214.2422,57.5,218.2422" style="stroke:#181818;stroke-width:1.0;"/><line style="stroke:#181818;stroke-width:1.0;" x1="113.5" x2="113.5" y1="204.2422" y2="224.2422"/><polygon fill="#181818" points="109.5,214.2422,113.5,224.2422,117.5,214.2422,113.5,218.2422" style="stroke:#181818;stroke-width:1.0;"/><line style="stroke:#181818;stroke-width:1.0;" x1="85" x2="85" y1="225.7422" y2="258.8086"/><polygon fill="#181818" points="81,248.8086,85,258.8086,89,248.8086,85,252.8086" style="stroke:#181818;stroke-width:1.0;"/><line style="stroke:#181818;stroke-width:1.0;" x1="85" x2="85" y1="130.1094" y2="150.1094"/><polygon fill="#181818" points="81,140.1094,85,150.1094,89,140.1094,85,144.1094" style="stroke:#181818;stroke-width:1.0;"/><line style="stroke:#181818;stroke-width:1.0;" x1="151" x2="151" y1="130.1094" y2="204.6758"/><polygon fill="#181818" points="147,194.6758,151,204.6758,155,194.6758,151,198.6758" style="stroke:#181818;stroke-width:1.0;"/><line style="stroke:#181818;stroke-width:1.0;" x1="85" x2="85" y1="292.9414" y2="312.9414"/><polygon fill="#181818" points="81,302.9414,85,312.9414,89,302.9414,85,306.9414" style="stroke:#181818;stroke-width:1.0;"/><line style="stroke:#181818;stroke-width:1.0;" x1="151" x2="151" y1="238.8086" y2="312.9414"/><polygon fill="#181818" points="147,302.9414,151,312.9414,155,302.9414,151,306.9414" style="stroke:#181818;stroke-width:1.0;"/><line style="stroke:#181818;stroke-width:1.0;" x1="113" x2="113" y1="104.1094" y2="124.1094"/><polygon fill="#181818" points="109,114.1094,113,124.1094,117,114.1094,113,118.1094" style="stroke:#181818;stroke-width:1.0;"/><line style="stroke:#181818;stroke-width:1.0;" x1="113" x2="113" y1="318.9414" y2="338.9414"/><polygon fill="#181818" points="109,328.9414,113,338.9414,117,328.9414,113,332.9414" style="stroke:#181818;stroke-width:1.0;"/><!--SRC=[AqWiAiaioSpFKr1AAirBpaXDYNVqSt7BBygEzmy2KKeArLmAG91Ub5zQW5CHM0a8AASNfQRcMJbQmqNIWF9m3WWK5-Habg28W82LYpMcAeN4zCJCF4orhgXgK_DIi9XgvOJg22o6MJaZb80CGN6hSb5gYfKRH0584Xm2NBK0]--></g></svg>