<?xml version="1.0" encoding="us-ascii" standalone="no"?><svg xmlns="http://www.w3.org/2000/svg" xmlns:xlink="http://www.w3.org/1999/xlink" contentStyleType="text/css" height="420px" preserveAspectRatio="none" style="width:238px;height:420px;background:#FFFFFF;" version="1.1" viewBox="0 0 238 420" width="238px" zoomAndPan="magnify"><defs/><g><rect fill="none" height="398.0742" style="stroke:#000000;stroke-width:1.5;" width="200.5" x="11" y="11"/><path d="M216,11 L216,20.4883 L206,30.4883 L11,30.4883 " fill="none" style="stroke:#000000;stroke-width:1.5;"/><text fill="#000000" font-family="sans-serif" font-size="14" lengthAdjust="spacing" textLength="195" x="14" y="25.5352">bunched_ANDFork_XORFork</text><rect fill="none" height="356.5859" style="stroke:#000000;stroke-width:1.5;" width="180.5" x="21" y="40.4883"/><path d="M226,40.4883 L226,49.9766 L216,59.9766 L21,59.9766 " fill="none" style="stroke:#000000;stroke-width:1.5;"/><text fill="#000000" font-family="sans-serif" font-size="14" lengthAdjust="spacing" textLength="195" x="24" y="55.0234">bunched_ANDFork_XORFork</text><rect fill="#008000" height="34.1328" rx="12.5" ry="12.5" style="stroke:#181818;stroke-width:0.5;" width="28" x="105.5" y="69.9766"/><text fill="#000000" font-family="sans-serif" font-size="12" lengthAdjust="spacing" textLength="8" x="115.5" y="91.5781">A</text><rect fill="#555555" height="6" rx="2.5" ry="2.5" style="stroke:#555555;stroke-width:1.0;" width="160.5" x="31" y="124.1094"/><polygon fill="#F1F1F1" points="79.5,150.1094,103.5,150.1094,115.5,162.1094,103.5,174.1094,79.5,174.1094,67.5,162.1094,79.5,150.1094" style="stroke:#181818;stroke-width:0.5;"/><text fill="#000000" font-family="sans-serif" font-size="11" lengthAdjust="spacing" textLength="23" x="80" y="166.2666">XOR</text><text fill="#000000" font-family="sans-serif" font-size="11" lengthAdjust="spacing" textLength="22" x="45.5" y="159.7891">true</text><text fill="#000000" font-family="sans-serif" font-size="11" lengthAdjust="spacing" textLength="25" x="115.5" y="159.7891">false</text><rect fill="#F1F1F1" height="34.1328" rx="12.5" ry="12.5" style="stroke:#181818;stroke-width:0.5;" width="29" x="43" y="184.1094"/><text fill="#000000" font-family="sans-serif" font-size="12" lengthAdjust="spacing" textLength="9" x="53" y="205.7109">D</text><rect fill="#F1F1F1" height="34.1328" rx="12.5" ry="12.5" style="stroke:#181818;stroke-width:0.5;" width="27" x="112" y="184.1094"/><text fill="#000000" font-family="sans-serif" font-size="12" lengthAdjust="spacing" textLength="7" x="122" y="205.7109">E</text><polygon fill="#F1F1F1" points="91.5,224.2422,103.5,236.2422,91.5,248.2422,79.5,236.2422,91.5,224.2422" style="stroke:#181818;stroke-width:0.5;"/><rect fill="#F1F1F1" height="34.1328" rx="12.5" ry="12.5" style="stroke:#181818;stroke-width:0.5;" width="27" x="78" y="270.8086"/><text fill="#000000" font-family="sans-serif" font-size="12" lengthAdjust="spacing" textLength="7" x="88" y="292.4102">B</text><rect fill="#F1F1F1" height="34.1328" rx="12.5" ry="12.5" style="stroke:#181818;stroke-width:0.5;" width="28" x="150.5" y="216.6758"/><text fill="#000000" font-family="sans-serif" font-size="12" lengthAdjust="spacing" textLength="8" x="160.5" y="238.2773">C</text><rect fill="#555555" height="6" rx="2.5" ry="2.5" style="stroke:#555555;stroke-width:1.0;" width="160.5" x="31" y="324.9414"/><rect fill="#FF0000" height="34.1328" rx="12.5" ry="12.5" style="stroke:#181818;stroke-width:0.5;" width="26" x="106.5" y="350.9414"/><text fill="#000000" font-family="sans-serif" font-size="12" lengthAdjust="spacing" textLength="6" x="116.5" y="372.543">F</text><line style="stroke:#181818;stroke-width:1.0;" x1="67.5" x2="57.5" y1="162.1094" y2="162.1094"/><line style="stroke:#181818;stroke-width:1.0;" x1="57.5" x2="57.5" y1="162.1094" y2="184.1094"/><polygon fill="#181818" points="53.5,174.1094,57.5,184.1094,61.5,174.1094,57.5,178.1094" style="stroke:#181818;stroke-width:1.0;"/><line style="stroke:#181818;stroke-width:1.0;" x1="115.5" x2="125.5" y1="162.1094" y2="162.1094"/><line style="stroke:#181818;stroke-width:1.0;" x1="125.5" x2="125.5" y1="162.1094" y2="184.1094"/><polygon fill="#181818" points="121.5,174.1094,125.5,184.1094,129.5,174.1094,125.5,178.1094" style="stroke:#181818;stroke-width:1.0;"/><line style="stroke:#181818;stroke-width:1.0;" x1="57.5" x2="57.5" y1="218.2422" y2="236.2422"/><line style="stroke:#181818;stroke-width:1.0;" x1="57.5" x2="79.5" y1="236.2422" y2="236.2422"/><polygon fill="#181818" points="69.5,232.2422,79.5,236.2422,69.5,240.2422,73.5,236.2422" style="stroke:#181818;stroke-width:1.0;"/><line style="stroke:#181818;stroke-width:1.0;" x1="125.5" x2="125.5" y1="218.2422" y2="236.2422"/><line style="stroke:#181818;stroke-width:1.0;" x1="125.5" x2="103.5" y1="236.2422" y2="236.2422"/><polygon fill="#181818" points="113.5,232.2422,103.5,236.2422,113.5,240.2422,109.5,236.2422" style="stroke:#181818;stroke-width:1.0;"/><line style="stroke:#181818;stroke-width:1.0;" x1="91.5" x2="91.5" y1="248.2422" y2="270.8086"/><polygon fill="#181818" points="87.5,260.8086,91.5,270.8086,95.5,260.8086,91.5,264.8086" style="stroke:#181818;stroke-width:1.0;"/><line style="stroke:#181818;stroke-width:1.0;" x1="91.5" x2="91.5" y1="130.1094" y2="150.1094"/><polygon fill="#181818" points="87.5,140.1094,91.5,150.1094,95.5,140.1094,91.5,144.1094" style="stroke:#181818;stroke-width:1.0;"/><line style="stroke:#181818;stroke-width:1.0;" x1="164.5" x2="164.5" y1="130.1094" y2="216.6758"/><polygon fill="#181818" points="160.5,206.6758,164.5,216.6758,168.5,206.6758,164.5,210.6758" style="stroke:#181818;stroke-width:1.0;"/><line style="stroke:#181818;stroke-width:1.0;" x1="91.5" x2="91.5" y1="304.9414" y2="324.9414"/><polygon fill="#181818" points="87.5,314.9414,91.5,324.9414,95.5,314.9414,91.5,318.9414" style="stroke:#181818;stroke-width:1.0;"/><line style="stroke:#181818;stroke-width:1.0;" x1="164.5" x2="164.5" y1="250.8086" y2="324.9414"/><polygon fill="#181818" points="160.5,314.9414,164.5,324.9414,168.5,314.9414,164.5,318.9414" style="stroke:#181818;stroke-width:1.0;"/><line style="stroke:#181818;stroke-width:1.0;" x1="119.5" x2="119.5" y1="104.1094" y2="124.1094"/><polygon fill="#181818" points="115.5,114.1094,119.5,124.1094,123.5,114.1094,119.5,118.1094" style="stroke:#181818;stroke-width:1.0;"/><line style="stroke:#181818;stroke-width:1.0;" x1="119.5" x2="119.5" y1="330.9414" y2="350.9414"/><polygon fill="#181818" points="115.5,340.9414,119.5,350.9414,123.5,340.9414,119.5,344.9414" style="stroke:#181818;stroke-width:1.0;"/><!--SRC=[AqWiAiaioSpFKr1AAirBpaXDYNVqSt7BBygEZ_0F0j5A2jLS2a2GNfHVMe1R5LWD22Yd5wMcvbavMiD5qe3oS0u8PAOfQ03rQIgKPAJcAMYK59McQg8e004h5siKiTISubG5ZRH488L5iIkQuhoKp3GK4IidL0Sf9AOdPkQXAd56A04QWEfkvQBK52itY0AG93Wuk6e1]--></g></svg>