<?xml version="1.0" encoding="us-ascii" standalone="no"?><svg xmlns="http://www.w3.org/2000/svg" xmlns:xlink="http://www.w3.org/1999/xlink" contentStyleType="text/css" height="351px" preserveAspectRatio="none" style="width:304px;height:351px;background:#FFFFFF;" version="1.1" viewBox="0 0 304 351" width="304px" zoomAndPan="magnify"><defs/><g><rect fill="none" height="329.8281" style="stroke:#000000;stroke-width:1.5;" width="282" x="11" y="11"/><path d="M268,11 L268,20.4883 L258,30.4883 L11,30.4883 " fill="none" style="stroke:#000000;stroke-width:1.5;"/><text fill="#000000" font-family="sans-serif" font-size="14" lengthAdjust="spacing" textLength="247" x="14" y="25.5352">bunched_merge_ANDFork_ANDFork</text><rect fill="none" height="287.8867" style="stroke:#000000;stroke-width:1.5;" width="262" x="21" y="40.9414"/><path d="M278,40.9414 L278,50.4297 L268,60.4297 L21,60.4297 " fill="none" style="stroke:#000000;stroke-width:1.5;"/><text fill="#000000" font-family="sans-serif" font-size="14" lengthAdjust="spacing" textLength="247" x="24" y="55.4766">bunched_merge_ANDFork_ANDFork</text><rect fill="#008000" height="34.1328" rx="12.5" ry="12.5" style="stroke:#181818;stroke-width:0.5;" width="28" x="140.5" y="70.4297"/><text fill="#000000" font-family="sans-serif" font-size="12" lengthAdjust="spacing" textLength="8" x="150.5" y="92.0313">A</text><rect fill="#555555" height="6" rx="2.5" ry="2.5" style="stroke:#555555;stroke-width:1.0;" width="196" x="56.5" y="124.5625"/><rect fill="#555555" height="6" rx="2.5" ry="2.5" style="stroke:#555555;stroke-width:1.0;" width="112" x="70.5" y="150.5625"/><rect fill="#F1F1F1" height="34.1328" rx="12.5" ry="12.5" style="stroke:#181818;stroke-width:0.5;" width="29" x="84.5" y="176.5625"/><text fill="#000000" font-family="sans-serif" font-size="12" lengthAdjust="spacing" textLength="9" x="94.5" y="198.1641">D</text><rect fill="#F1F1F1" height="34.1328" rx="12.5" ry="12.5" style="stroke:#181818;stroke-width:0.5;" width="27" x="141.5" y="176.5625"/><text fill="#000000" font-family="sans-serif" font-size="12" lengthAdjust="spacing" textLength="7" x="151.5" y="198.1641">E</text><rect fill="#555555" height="6" rx="2.5" ry="2.5" style="stroke:#555555;stroke-width:1.0;" width="112" x="70.5" y="230.6953"/><rect fill="#F1F1F1" height="34.1328" rx="12.5" ry="12.5" style="stroke:#181818;stroke-width:0.5;" width="28" x="210.5" y="176.5625"/><text fill="#000000" font-family="sans-serif" font-size="12" lengthAdjust="spacing" textLength="8" x="220.5" y="198.1641">C</text><rect fill="#555555" height="6" rx="2.5" ry="2.5" style="stroke:#555555;stroke-width:1.0;" width="196" x="56.5" y="256.6953"/><rect fill="#FF0000" height="34.1328" rx="12.5" ry="12.5" style="stroke:#181818;stroke-width:0.5;" width="26" x="141.5" y="282.6953"/><text fill="#000000" font-family="sans-serif" font-size="12" lengthAdjust="spacing" textLength="6" x="151.5" y="304.2969">F</text><line style="stroke:#181818;stroke-width:1.0;" x1="99" x2="99" y1="156.5625" y2="176.5625"/><polygon fill="#181818" points="95,166.5625,99,176.5625,103,166.5625,99,170.5625" style="stroke:#181818;stroke-width:1.0;"/><line style="stroke:#181818;stroke-width:1.0;" x1="155" x2="155" y1="156.5625" y2="176.5625"/><polygon fill="#181818" points="151,166.5625,155,176.5625,159,166.5625,155,170.5625" style="stroke:#181818;stroke-width:1.0;"/><line style="stroke:#181818;stroke-width:1.0;" x1="99" x2="99" y1="210.6953" y2="230.6953"/><polygon fill="#181818" points="95,220.6953,99,230.6953,103,220.6953,99,224.6953" style="stroke:#181818;stroke-width:1.0;"/><line style="stroke:#181818;stroke-width:1.0;" x1="155" x2="155" y1="210.6953" y2="230.6953"/><polygon fill="#181818" points="151,220.6953,155,230.6953,159,220.6953,155,224.6953" style="stroke:#181818;stroke-width:1.0;"/><line style="stroke:#181818;stroke-width:1.0;" x1="126.5" x2="126.5" y1="130.5625" y2="150.5625"/><polygon fill="#181818" points="122.5,140.5625,126.5,150.5625,130.5,140.5625,126.5,144.5625" style="stroke:#181818;stroke-width:1.0;"/><line style="stroke:#181818;stroke-width:1.0;" x1="224.5" x2="224.5" y1="130.5625" y2="176.5625"/><polygon fill="#181818" points="220.5,166.5625,224.5,176.5625,228.5,166.5625,224.5,170.5625" style="stroke:#181818;stroke-width:1.0;"/><line style="stroke:#181818;stroke-width:1.0;" x1="126.5" x2="126.5" y1="236.6953" y2="256.6953"/><polygon fill="#181818" points="122.5,246.6953,126.5,256.6953,130.5,246.6953,126.5,250.6953" style="stroke:#181818;stroke-width:1.0;"/><line style="stroke:#181818;stroke-width:1.0;" x1="224.5" x2="224.5" y1="210.6953" y2="256.6953"/><polygon fill="#181818" points="220.5,246.6953,224.5,256.6953,228.5,246.6953,224.5,250.6953" style="stroke:#181818;stroke-width:1.0;"/><line style="stroke:#181818;stroke-width:1.0;" x1="154.5" x2="154.5" y1="104.5625" y2="124.5625"/><polygon fill="#181818" points="150.5,114.5625,154.5,124.5625,158.5,114.5625,154.5,118.5625" style="stroke:#181818;stroke-width:1.0;"/><line style="stroke:#181818;stroke-width:1.0;" x1="154.5" x2="154.5" y1="262.6953" y2="282.6953"/><polygon fill="#181818" points="150.5,272.6953,154.5,282.6953,158.5,272.6953,154.5,276.6953" style="stroke:#181818;stroke-width:1.0;"/><!--SRC=[AqWiAiaioSpFKr1AAirBpaXDYSzDBKfFZNVqSt7BByg6qKeArLmAG91Ub5zQG4WjM2K8AASNfQRcMJbQmqNIWF9m3bO14B1oiSPGf92OdfYPXwdK5LLfQbuAgfauz5ev8_HXw54kIasnSeCe04c2VSrL2m00]--></g></svg>