<?xml version="1.0" encoding="us-ascii" standalone="no"?><svg xmlns="http://www.w3.org/2000/svg" xmlns:xlink="http://www.w3.org/1999/xlink" contentStyleType="text/css" height="363px" preserveAspectRatio="none" style="width:303px;height:363px;background:#FFFFFF;" version="1.1" viewBox="0 0 303 363" width="303px" zoomAndPan="magnify"><defs/><g><rect fill="none" height="341.8281" style="stroke:#000000;stroke-width:1.5;" width="281" x="11" y="11"/><path d="M267,11 L267,20.4883 L257,30.4883 L11,30.4883 " fill="none" style="stroke:#000000;stroke-width:1.5;"/><text fill="#000000" font-family="sans-serif" font-size="14" lengthAdjust="spacing" textLength="246" x="14" y="25.5352">bunched_merge_ANDFork_XORFork</text><rect fill="none" height="299.8867" style="stroke:#000000;stroke-width:1.5;" width="261" x="21" y="40.9414"/><path d="M277,40.9414 L277,50.4297 L267,60.4297 L21,60.4297 " fill="none" style="stroke:#000000;stroke-width:1.5;"/><text fill="#000000" font-family="sans-serif" font-size="14" lengthAdjust="spacing" textLength="246" x="24" y="55.4766">bunched_merge_ANDFork_XORFork</text><rect fill="#008000" height="34.1328" rx="12.5" ry="12.5" style="stroke:#181818;stroke-width:0.5;" width="28" x="140" y="70.4297"/><text fill="#000000" font-family="sans-serif" font-size="12" lengthAdjust="spacing" textLength="8" x="150" y="92.0313">A</text><rect fill="#555555" height="6" rx="2.5" ry="2.5" style="stroke:#555555;stroke-width:1.0;" width="202" x="53" y="124.5625"/><polygon fill="#F1F1F1" points="114,150.5625,138,150.5625,150,162.5625,138,174.5625,114,174.5625,102,162.5625,114,150.5625" style="stroke:#181818;stroke-width:0.5;"/><text fill="#000000" font-family="sans-serif" font-size="11" lengthAdjust="spacing" textLength="23" x="114.5" y="166.7197">XOR</text><text fill="#000000" font-family="sans-serif" font-size="11" lengthAdjust="spacing" textLength="22" x="80" y="160.2422">true</text><text fill="#000000" font-family="sans-serif" font-size="11" lengthAdjust="spacing" textLength="25" x="150" y="160.2422">false</text><rect fill="#F1F1F1" height="34.1328" rx="12.5" ry="12.5" style="stroke:#181818;stroke-width:0.5;" width="29" x="77.5" y="184.5625"/><text fill="#000000" font-family="sans-serif" font-size="12" lengthAdjust="spacing" textLength="9" x="87.5" y="206.1641">D</text><rect fill="#F1F1F1" height="34.1328" rx="12.5" ry="12.5" style="stroke:#181818;stroke-width:0.5;" width="27" x="146.5" y="184.5625"/><text fill="#000000" font-family="sans-serif" font-size="12" lengthAdjust="spacing" textLength="7" x="156.5" y="206.1641">E</text><polygon fill="#F1F1F1" points="126,224.6953,138,236.6953,126,248.6953,114,236.6953,126,224.6953" style="stroke:#181818;stroke-width:0.5;"/><rect fill="#F1F1F1" height="34.1328" rx="12.5" ry="12.5" style="stroke:#181818;stroke-width:0.5;" width="28" x="213" y="182.5625"/><text fill="#000000" font-family="sans-serif" font-size="12" lengthAdjust="spacing" textLength="8" x="223" y="204.1641">C</text><rect fill="#555555" height="6" rx="2.5" ry="2.5" style="stroke:#555555;stroke-width:1.0;" width="202" x="53" y="268.6953"/><rect fill="#FF0000" height="34.1328" rx="12.5" ry="12.5" style="stroke:#181818;stroke-width:0.5;" width="26" x="141" y="294.6953"/><text fill="#000000" font-family="sans-serif" font-size="12" lengthAdjust="spacing" textLength="6" x="151" y="316.2969">F</text><line style="stroke:#181818;stroke-width:1.0;" x1="102" x2="92" y1="162.5625" y2="162.5625"/><line style="stroke:#181818;stroke-width:1.0;" x1="92" x2="92" y1="162.5625" y2="184.5625"/><polygon fill="#181818" points="88,174.5625,92,184.5625,96,174.5625,92,178.5625" style="stroke:#181818;stroke-width:1.0;"/><line style="stroke:#181818;stroke-width:1.0;" x1="150" x2="160" y1="162.5625" y2="162.5625"/><line style="stroke:#181818;stroke-width:1.0;" x1="160" x2="160" y1="162.5625" y2="184.5625"/><polygon fill="#181818" points="156,174.5625,160,184.5625,164,174.5625,160,178.5625" style="stroke:#181818;stroke-width:1.0;"/><line style="stroke:#181818;stroke-width:1.0;" x1="92" x2="92" y1="218.6953" y2="236.6953"/><line style="stroke:#181818;stroke-width:1.0;" x1="92" x2="114" y1="236.6953" y2="236.6953"/><polygon fill="#181818" points="104,232.6953,114,236.6953,104,240.6953,108,236.6953" style="stroke:#181818;stroke-width:1.0;"/><line style="stroke:#181818;stroke-width:1.0;" x1="160" x2="160" y1="218.6953" y2="236.6953"/><line style="stroke:#181818;stroke-width:1.0;" x1="160" x2="138" y1="236.6953" y2="236.6953"/><polygon fill="#181818" points="148,232.6953,138,236.6953,148,240.6953,144,236.6953" style="stroke:#181818;stroke-width:1.0;"/><line style="stroke:#181818;stroke-width:1.0;" x1="126" x2="126" y1="130.5625" y2="150.5625"/><polygon fill="#181818" points="122,140.5625,126,150.5625,130,140.5625,126,144.5625" style="stroke:#181818;stroke-width:1.0;"/><line style="stroke:#181818;stroke-width:1.0;" x1="227" x2="227" y1="130.5625" y2="182.5625"/><polygon fill="#181818" points="223,172.5625,227,182.5625,231,172.5625,227,176.5625" style="stroke:#181818;stroke-width:1.0;"/><line style="stroke:#181818;stroke-width:1.0;" x1="126" x2="126" y1="248.6953" y2="268.6953"/><polygon fill="#181818" points="122,258.6953,126,268.6953,130,258.6953,126,262.6953" style="stroke:#181818;stroke-width:1.0;"/><line style="stroke:#181818;stroke-width:1.0;" x1="227" x2="227" y1="216.6953" y2="268.6953"/><polygon fill="#181818" points="223,258.6953,227,268.6953,231,258.6953,227,262.6953" style="stroke:#181818;stroke-width:1.0;"/><line style="stroke:#181818;stroke-width:1.0;" x1="154" x2="154" y1="104.5625" y2="124.5625"/><polygon fill="#181818" points="150,114.5625,154,124.5625,158,114.5625,154,118.5625" style="stroke:#181818;stroke-width:1.0;"/><line style="stroke:#181818;stroke-width:1.0;" x1="154" x2="154" y1="274.6953" y2="294.6953"/><polygon fill="#181818" points="150,284.6953,154,294.6953,158,284.6953,154,288.6953" style="stroke:#181818;stroke-width:1.0;"/><!--SRC=[XP312i8m44Jl_OgblQI_a9wAjKS5Jzv2D9iqg4bPavFuxoOLAX71kImx-mQ6dIK56wntK9-YEq-en0t9eEXtm-Zf8exxGvurF2f8CkJZ_8zToAp64ABZVRSwEjtN9SjgO2dNGfZG0GiKiIs0B3vqXOVNEmBJCeqVyFOBTihgeW188wqh8BxvX5AWxDaGAZw-WNnSdb0zNm00]--></g></svg>