<?xml version="1.0" encoding="us-ascii" standalone="no"?><svg xmlns="http://www.w3.org/2000/svg" xmlns:xlink="http://www.w3.org/1999/xlink" contentStyleType="text/css" height="414px" preserveAspectRatio="none" style="width:258px;height:414px;background:#FFFFFF;" version="1.1" viewBox="0 0 258 414" width="258px" zoomAndPan="magnify"><defs/><g><rect fill="none" height="392.5273" style="stroke:#000000;stroke-width:1.5;" width="236" x="11" y="11"/><path d="M217,11 L217,20.4883 L207,30.4883 L11,30.4883 " fill="none" style="stroke:#000000;stroke-width:1.5;"/><text fill="#000000" font-family="sans-serif" font-size="14" lengthAdjust="spacing" textLength="196" x="14" y="25.5352">bunched_ANDFork_ANDFork</text><rect fill="none" height="350.5859" style="stroke:#000000;stroke-width:1.5;" width="216" x="21" y="40.9414"/><path d="M227,40.9414 L227,50.4297 L217,60.4297 L21,60.4297 " fill="none" style="stroke:#000000;stroke-width:1.5;"/><text fill="#000000" font-family="sans-serif" font-size="14" lengthAdjust="spacing" textLength="196" x="24" y="55.4766">bunched_ANDFork_ANDFork</text><rect fill="#008000" height="34.1328" rx="12.5" ry="12.5" style="stroke:#181818;stroke-width:0.5;" width="28" x="115" y="70.4297"/><text fill="#000000" font-family="sans-serif" font-size="12" lengthAdjust="spacing" textLength="8" x="125" y="92.0313">A</text><rect fill="#555555" height="6" rx="2.5" ry="2.5" style="stroke:#555555;stroke-width:1.0;" width="196" x="31" y="124.5625"/><rect fill="#555555" height="6" rx="2.5" ry="2.5" style="stroke:#555555;stroke-width:1.0;" width="112" x="45" y="150.5625"/><rect fill="#F1F1F1" height="34.1328" rx="12.5" ry="12.5" style="stroke:#181818;stroke-width:0.5;" width="29" x="59" y="176.5625"/><text fill="#000000" font-family="sans-serif" font-size="12" lengthAdjust="spacing" textLength="9" x="69" y="198.1641">D</text><rect fill="#F1F1F1" height="34.1328" rx="12.5" ry="12.5" style="stroke:#181818;stroke-width:0.5;" width="27" x="116" y="176.5625"/><text fill="#000000" font-family="sans-serif" font-size="12" lengthAdjust="spacing" textLength="7" x="126" y="198.1641">E</text><rect fill="#555555" height="6" rx="2.5" ry="2.5" style="stroke:#555555;stroke-width:1.0;" width="112" x="45" y="230.6953"/><rect fill="#F1F1F1" height="34.1328" rx="12.5" ry="12.5" style="stroke:#181818;stroke-width:0.5;" width="27" x="87.5" y="265.2617"/><text fill="#000000" font-family="sans-serif" font-size="12" lengthAdjust="spacing" textLength="7" x="97.5" y="286.8633">B</text><rect fill="#F1F1F1" height="34.1328" rx="12.5" ry="12.5" style="stroke:#181818;stroke-width:0.5;" width="28" x="185" y="211.1289"/><text fill="#000000" font-family="sans-serif" font-size="12" lengthAdjust="spacing" textLength="8" x="195" y="232.7305">C</text><rect fill="#555555" height="6" rx="2.5" ry="2.5" style="stroke:#555555;stroke-width:1.0;" width="196" x="31" y="319.3945"/><rect fill="#FF0000" height="34.1328" rx="12.5" ry="12.5" style="stroke:#181818;stroke-width:0.5;" width="26" x="116" y="345.3945"/><text fill="#000000" font-family="sans-serif" font-size="12" lengthAdjust="spacing" textLength="6" x="126" y="366.9961">F</text><line style="stroke:#181818;stroke-width:1.0;" x1="73.5" x2="73.5" y1="156.5625" y2="176.5625"/><polygon fill="#181818" points="69.5,166.5625,73.5,176.5625,77.5,166.5625,73.5,170.5625" style="stroke:#181818;stroke-width:1.0;"/><line style="stroke:#181818;stroke-width:1.0;" x1="129.5" x2="129.5" y1="156.5625" y2="176.5625"/><polygon fill="#181818" points="125.5,166.5625,129.5,176.5625,133.5,166.5625,129.5,170.5625" style="stroke:#181818;stroke-width:1.0;"/><line style="stroke:#181818;stroke-width:1.0;" x1="73.5" x2="73.5" y1="210.6953" y2="230.6953"/><polygon fill="#181818" points="69.5,220.6953,73.5,230.6953,77.5,220.6953,73.5,224.6953" style="stroke:#181818;stroke-width:1.0;"/><line style="stroke:#181818;stroke-width:1.0;" x1="129.5" x2="129.5" y1="210.6953" y2="230.6953"/><polygon fill="#181818" points="125.5,220.6953,129.5,230.6953,133.5,220.6953,129.5,224.6953" style="stroke:#181818;stroke-width:1.0;"/><line style="stroke:#181818;stroke-width:1.0;" x1="101" x2="101" y1="236.6953" y2="265.2617"/><polygon fill="#181818" points="97,255.2617,101,265.2617,105,255.2617,101,259.2617" style="stroke:#181818;stroke-width:1.0;"/><line style="stroke:#181818;stroke-width:1.0;" x1="101" x2="101" y1="130.5625" y2="150.5625"/><polygon fill="#181818" points="97,140.5625,101,150.5625,105,140.5625,101,144.5625" style="stroke:#181818;stroke-width:1.0;"/><line style="stroke:#181818;stroke-width:1.0;" x1="199" x2="199" y1="130.5625" y2="211.1289"/><polygon fill="#181818" points="195,201.1289,199,211.1289,203,201.1289,199,205.1289" style="stroke:#181818;stroke-width:1.0;"/><line style="stroke:#181818;stroke-width:1.0;" x1="101" x2="101" y1="299.3945" y2="319.3945"/><polygon fill="#181818" points="97,309.3945,101,319.3945,105,309.3945,101,313.3945" style="stroke:#181818;stroke-width:1.0;"/><line style="stroke:#181818;stroke-width:1.0;" x1="199" x2="199" y1="245.2617" y2="319.3945"/><polygon fill="#181818" points="195,309.3945,199,319.3945,203,309.3945,199,313.3945" style="stroke:#181818;stroke-width:1.0;"/><line style="stroke:#181818;stroke-width:1.0;" x1="129" x2="129" y1="104.5625" y2="124.5625"/><polygon fill="#181818" points="125,114.5625,129,124.5625,133,114.5625,129,118.5625" style="stroke:#181818;stroke-width:1.0;"/><line style="stroke:#181818;stroke-width:1.0;" x1="129" x2="129" y1="325.3945" y2="345.3945"/><polygon fill="#181818" points="125,335.3945,129,345.3945,133,335.3945,129,339.3945" style="stroke:#181818;stroke-width:1.0;"/><!--SRC=[AqWiAiaioSpFKr1AAirBpaXDYNVqSt7BByg6qKeArLmAG91Ub5zQW5iLM0q8AASNfQRcMJbQmqNIWF9m3bO14B1oiSPGf92OdfYPXwdK5LLfQbuAffbMJgWkm6AMbJD22OOPoaMfALPk40KWIR3_kMe1]--></g></svg>