<?xml version="1.0" encoding="us-ascii" standalone="no"?><svg xmlns="http://www.w3.org/2000/svg" xmlns:xlink="http://www.w3.org/1999/xlink" contentStyleType="text/css" height="892px" preserveAspectRatio="none" style="width:837px;height:892px;background:#FFFFFF;" version="1.1" viewBox="0 0 837 892" width="837px" zoomAndPan="magnify"><defs/><g><rect fill="none" height="870.4063" style="stroke:#000000;stroke-width:1.5;" width="815" x="11" y="11"/><path d="M351,11 L351,20.2969 L341,30.2969 L11,30.2969 " fill="none" style="stroke:#000000;stroke-width:1.5;"/><text fill="#000000" font-family="sans-serif" font-size="14" lengthAdjust="spacing" textLength="330" x="14" y="24.9951">find_and_add_loop_kill_paths_to_nested_graphs</text><ellipse cx="418.5" cy="50.2969" fill="#222222" rx="10" ry="10" style="stroke:#222222;stroke-width:1.0;"/><rect fill="#F1F1F1" height="33.9688" rx="12.5" ry="12.5" style="stroke:#181818;stroke-width:0.5;" width="169" x="334" y="80.2969"/><text fill="#000000" font-family="sans-serif" font-size="12" lengthAdjust="spacing" textLength="149" x="344" y="101.4355">input DiGraph of Node's</text><rect fill="none" height="285.7031" style="stroke:#000000;stroke-width:1.5;" width="645" x="108" y="124.2656"/><path d="M219,124.2656 L219,133.5625 L209,143.5625 L108,143.5625 " fill="none" style="stroke:#000000;stroke-width:1.5;"/><text fill="#000000" font-family="sans-serif" font-size="14" lengthAdjust="spacing" textLength="101" x="111" y="138.2607">main algorithm</text><rect fill="#F1F1F1" height="33.9688" rx="12.5" ry="12.5" style="stroke:#181818;stroke-width:0.5;" width="221" x="308" y="160.5625"/><text fill="#000000" font-family="sans-serif" font-size="12" lengthAdjust="spacing" textLength="201" x="318" y="181.7012">get all SubGraphNodes in graph</text><rect fill="#F1F1F1" height="33.9688" rx="12.5" ry="12.5" style="stroke:#181818;stroke-width:0.5;" width="413" x="212" y="258.5313"/><text fill="#000000" font-family="sans-serif" font-size="12" lengthAdjust="spacing" textLength="393" x="222" y="279.6699">call "find_and_add_loop_kill_paths_to_subgraph_node" function</text><rect fill="#F1F1F1" height="33.9688" rx="12.5" ry="12.5" style="stroke:#181818;stroke-width:0.5;" width="601" x="118" y="320"/><text fill="#000000" font-family="sans-serif" font-size="12" lengthAdjust="spacing" textLength="581" x="128" y="341.1387">recursively call "find_and_add_loop_kill_paths_to_nested_graphs" function with the sub graph</text><polygon fill="#F1F1F1" points="418.5,214.5313,430.5,226.5313,418.5,238.5313,406.5,226.5313,418.5,214.5313" style="stroke:#181818;stroke-width:0.5;"/><polygon fill="#F1F1F1" points="350,373.9688,487,373.9688,499,385.9688,487,397.9688,350,397.9688,338,385.9688,350,373.9688" style="stroke:#181818;stroke-width:0.5;"/><text fill="#000000" font-family="sans-serif" font-size="11" lengthAdjust="spacing" textLength="137" x="350" y="389.7769">for each SubGraphNode</text><ellipse cx="418.5" cy="439.9688" fill="none" rx="10" ry="10" style="stroke:#222222;stroke-width:1.5;"/><line style="stroke:#222222;stroke-width:2.5;" x1="412.3128" x2="424.6872" y1="433.7816" y2="446.1559"/><line style="stroke:#222222;stroke-width:2.5;" x1="424.6872" x2="412.3128" y1="433.7816" y2="446.1559"/><rect fill="none" height="409.4375" style="stroke:#000000;stroke-width:1.5;" width="795" x="21" y="459.9688"/><path d="M133,459.9688 L133,469.2656 L123,479.2656 L21,479.2656 " fill="none" style="stroke:#000000;stroke-width:1.5;"/><text fill="#000000" font-family="sans-serif" font-size="14" lengthAdjust="spacing" textLength="102" x="24" y="473.9639">sub algorithms</text><ellipse cx="418.5" cy="499.2656" fill="#222222" rx="10" ry="10" style="stroke:#222222;stroke-width:1.0;"/><rect fill="#F1F1F1" height="33.9688" rx="12.5" ry="12.5" style="stroke:#181818;stroke-width:0.5;" width="151" x="343" y="529.2656"/><text fill="#000000" font-family="sans-serif" font-size="12" lengthAdjust="spacing" textLength="131" x="353" y="550.4043">input SubGraphNode</text><rect fill="none" height="244.1719" style="stroke:#000000;stroke-width:1.5;" width="775" x="31" y="573.2344"/><path d="M376,573.2344 L376,582.5313 L366,592.5313 L31,592.5313 " fill="none" style="stroke:#000000;stroke-width:1.5;"/><text fill="#000000" font-family="sans-serif" font-size="14" lengthAdjust="spacing" textLength="335" x="34" y="587.2295">find_and_add_loop_kill_paths_to_subgraph_node</text><rect fill="#F1F1F1" height="33.9688" rx="12.5" ry="12.5" style="stroke:#181818;stroke-width:0.5;" width="755" x="41" y="609.5313"/><text fill="#000000" font-family="sans-serif" font-size="12" lengthAdjust="spacing" textLength="735" x="51" y="630.6699">get all kill edges from SubGraphNode.sub_graph using "get_all_kill_edges_from_loop_nodes_and_end_points" function</text><rect fill="#F1F1F1" height="33.9688" rx="12.5" ry="12.5" style="stroke:#181818;stroke-width:0.5;" width="269" x="284" y="663.5"/><text fill="#000000" font-family="sans-serif" font-size="12" lengthAdjust="spacing" textLength="249" x="294" y="684.6387">convert kill edges to edges of uid to uid</text><rect fill="#F1F1F1" height="33.9688" rx="12.5" ry="12.5" style="stroke:#181818;stroke-width:0.5;" width="466" x="185.5" y="717.4688"/><text fill="#000000" font-family="sans-serif" font-size="12" lengthAdjust="spacing" textLength="446" x="195.5" y="738.6074">get the node to node map using "get_node_to_node_map_from_edges"</text><rect fill="#F1F1F1" height="33.9688" rx="12.5" ry="12.5" style="stroke:#181818;stroke-width:0.5;" width="436" x="200.5" y="771.4375"/><text fill="#000000" font-family="sans-serif" font-size="12" lengthAdjust="spacing" textLength="416" x="210.5" y="792.5762">add loop kill paths to nodes using "add_loop_kill_paths_for_nodes"</text><ellipse cx="418.5" cy="847.4063" fill="none" rx="10" ry="10" style="stroke:#222222;stroke-width:1.5;"/><line style="stroke:#222222;stroke-width:2.5;" x1="412.3128" x2="424.6872" y1="841.2191" y2="853.5934"/><line style="stroke:#222222;stroke-width:2.5;" x1="424.6872" x2="412.3128" y1="841.2191" y2="853.5934"/><line style="stroke:#181818;stroke-width:1.0;" x1="418.5" x2="418.5" y1="60.2969" y2="80.2969"/><polygon fill="#181818" points="414.5,70.2969,418.5,80.2969,422.5,70.2969,418.5,74.2969" style="stroke:#181818;stroke-width:1.0;"/><line style="stroke:#181818;stroke-width:1.0;" x1="418.5" x2="418.5" y1="292.5" y2="320"/><polygon fill="#181818" points="414.5,310,418.5,320,422.5,310,418.5,314" style="stroke:#181818;stroke-width:1.0;"/><line style="stroke:#181818;stroke-width:1.0;" x1="418.5" x2="418.5" y1="238.5313" y2="258.5313"/><polygon fill="#181818" points="414.5,248.5313,418.5,258.5313,422.5,248.5313,418.5,252.5313" style="stroke:#181818;stroke-width:1.0;"/><line style="stroke:#181818;stroke-width:1.0;" x1="499" x2="731" y1="385.9688" y2="385.9688"/><polygon fill="#181818" points="727,312.5,731,302.5,735,312.5,731,308.5" style="stroke:#181818;stroke-width:1.0;"/><line style="stroke:#181818;stroke-width:1.0;" x1="731" x2="731" y1="226.5313" y2="385.9688"/><line style="stroke:#181818;stroke-width:1.0;" x1="731" x2="430.5" y1="226.5313" y2="226.5313"/><polygon fill="#181818" points="440.5,222.5313,430.5,226.5313,440.5,230.5313,436.5,226.5313" style="stroke:#181818;stroke-width:1.0;"/><line style="stroke:#181818;stroke-width:1.0;" x1="418.5" x2="418.5" y1="353.9688" y2="373.9688"/><polygon fill="#181818" points="414.5,363.9688,418.5,373.9688,422.5,363.9688,418.5,367.9688" style="stroke:#181818;stroke-width:1.0;"/><line style="stroke:#181818;stroke-width:1.0;" x1="418.5" x2="418.5" y1="194.5313" y2="214.5313"/><polygon fill="#181818" points="414.5,204.5313,418.5,214.5313,422.5,204.5313,418.5,208.5313" style="stroke:#181818;stroke-width:1.0;"/><line style="stroke:#181818;stroke-width:1.0;" x1="418.5" x2="418.5" y1="114.2656" y2="160.5625"/><polygon fill="#181818" points="414.5,150.5625,418.5,160.5625,422.5,150.5625,418.5,154.5625" style="stroke:#181818;stroke-width:1.0;"/><line style="stroke:#181818;stroke-width:1.0;" x1="418.5" x2="418.5" y1="397.9688" y2="429.9688"/><polygon fill="#181818" points="414.5,419.9688,418.5,429.9688,422.5,419.9688,418.5,423.9688" style="stroke:#181818;stroke-width:1.0;"/><line style="stroke:#181818;stroke-width:1.0;" x1="418.5" x2="418.5" y1="509.2656" y2="529.2656"/><polygon fill="#181818" points="414.5,519.2656,418.5,529.2656,422.5,519.2656,418.5,523.2656" style="stroke:#181818;stroke-width:1.0;"/><line style="stroke:#181818;stroke-width:1.0;" x1="418.5" x2="418.5" y1="643.5" y2="663.5"/><polygon fill="#181818" points="414.5,653.5,418.5,663.5,422.5,653.5,418.5,657.5" style="stroke:#181818;stroke-width:1.0;"/><line style="stroke:#181818;stroke-width:1.0;" x1="418.5" x2="418.5" y1="697.4688" y2="717.4688"/><polygon fill="#181818" points="414.5,707.4688,418.5,717.4688,422.5,707.4688,418.5,711.4688" style="stroke:#181818;stroke-width:1.0;"/><line style="stroke:#181818;stroke-width:1.0;" x1="418.5" x2="418.5" y1="751.4375" y2="771.4375"/><polygon fill="#181818" points="414.5,761.4375,418.5,771.4375,422.5,761.4375,418.5,765.4375" style="stroke:#181818;stroke-width:1.0;"/><line style="stroke:#181818;stroke-width:1.0;" x1="418.5" x2="418.5" y1="563.2344" y2="609.5313"/><polygon fill="#181818" points="414.5,599.5313,418.5,609.5313,422.5,599.5313,418.5,603.5313" style="stroke:#181818;stroke-width:1.0;"/><line style="stroke:#181818;stroke-width:1.0;" x1="418.5" x2="418.5" y1="805.4063" y2="837.4063"/><polygon fill="#181818" points="414.5,827.4063,418.5,837.4063,422.5,827.4063,418.5,831.4063" style="stroke:#181818;stroke-width:1.0;"/><!--SRC=[bLBBJiGm3Bpp5LOkm8KFe5SaRbpuW2ZRf6r4caHvx0gX_NViP5irT7bLglAoP-mP0m1u4P9EsbbWWxQI2_gbvCOvpz-qCToBD4MU7BSg9YNv68IV8eEF6xXyCI78UdhKrkS4J_gP0i4DyEAaketT6Z46bpsmMMWBmemkw3JDR7qk8ADA-6RWDHyA3c54m8H2tpN1GNabKdDLC7e2-BMjc0y5arkaO31asvCUtHulg3w7g8_AlCFViBz8jc332Jk6D2b0ykyxWjEaZOAxmGLGefyQCUxN16LbbNHxi-ut1XFPgdVZuDx5ZPDRrhRCYv7_KtYlw-8rPO6I8nez13Stn0y8KdM47BKTWM4MnwpALR8uPTK2Y2cMcb0BxfssAVxeRU_iKOMqhI6vomP7E6j9Proww_MJcKHAKMMTXTzMIdTb8cZ5jrfhmMTN8559e4PgFKN91JakiDVKnb6flIDeWxeVag-3SYwxyoS0]--></g></svg>