<?xml version="1.0" encoding="us-ascii" standalone="no"?><svg xmlns="http://www.w3.org/2000/svg" xmlns:xlink="http://www.w3.org/1999/xlink" contentStyleType="text/css" height="335px" preserveAspectRatio="none" style="width:116px;height:335px;background:#FFFFFF;" version="1.1" viewBox="0 0 116 335" width="116px" zoomAndPan="magnify"><defs/><g><rect fill="none" height="313.8281" style="stroke:#000000;stroke-width:1.5;" width="94" x="11" y="11"/><path d="M80,11 L80,20.4883 L70,30.4883 L11,30.4883 " fill="none" style="stroke:#000000;stroke-width:1.5;"/><text fill="#000000" font-family="sans-serif" font-size="14" lengthAdjust="spacing" textLength="59" x="14" y="25.5352">self loop</text><rect fill="none" height="271.8867" style="stroke:#000000;stroke-width:1.5;" width="74" x="21" y="40.9414"/><path d="M90,40.9414 L90,50.4297 L80,60.4297 L21,60.4297 " fill="none" style="stroke:#000000;stroke-width:1.5;"/><text fill="#000000" font-family="sans-serif" font-size="14" lengthAdjust="spacing" textLength="59" x="24" y="55.4766">self loop</text><rect fill="#F1F1F1" height="34.1328" rx="12.5" ry="12.5" style="stroke:#181818;stroke-width:0.5;" width="28" x="34.75" y="70.4297"/><text fill="#000000" font-family="sans-serif" font-size="12" lengthAdjust="spacing" textLength="8" x="44.75" y="92.0313">A</text><rect fill="#F1F1F1" height="34.1328" rx="12.5" ry="12.5" style="stroke:#181818;stroke-width:0.5;" width="27" x="35.25" y="168.5625"/><text fill="#000000" font-family="sans-serif" font-size="12" lengthAdjust="spacing" textLength="7" x="45.25" y="190.1641">B</text><polygon fill="#F1F1F1" points="48.75,124.5625,60.75,136.5625,48.75,148.5625,36.75,136.5625,48.75,124.5625" style="stroke:#181818;stroke-width:0.5;"/><polygon fill="#F1F1F1" points="48.75,222.6953,48.75,222.6953,60.75,234.6953,48.75,246.6953,48.75,246.6953,36.75,234.6953,48.75,222.6953" style="stroke:#181818;stroke-width:0.5;"/><rect fill="#F1F1F1" height="34.1328" rx="12.5" ry="12.5" style="stroke:#181818;stroke-width:0.5;" width="28" x="34.75" y="266.6953"/><text fill="#000000" font-family="sans-serif" font-size="12" lengthAdjust="spacing" textLength="8" x="44.75" y="288.2969">C</text><line style="stroke:#181818;stroke-width:1.0;" x1="48.75" x2="48.75" y1="148.5625" y2="168.5625"/><polygon fill="#181818" points="44.75,158.5625,48.75,168.5625,52.75,158.5625,48.75,162.5625" style="stroke:#181818;stroke-width:1.0;"/><line style="stroke:#181818;stroke-width:1.0;" x1="60.75" x2="74.25" y1="234.6953" y2="234.6953"/><polygon fill="#181818" points="70.25,195.6289,74.25,185.6289,78.25,195.6289,74.25,191.6289" style="stroke:#181818;stroke-width:1.0;"/><line style="stroke:#181818;stroke-width:1.0;" x1="74.25" x2="74.25" y1="136.5625" y2="234.6953"/><line style="stroke:#181818;stroke-width:1.0;" x1="74.25" x2="60.75" y1="136.5625" y2="136.5625"/><polygon fill="#181818" points="70.75,132.5625,60.75,136.5625,70.75,140.5625,66.75,136.5625" style="stroke:#181818;stroke-width:1.0;"/><line style="stroke:#181818;stroke-width:1.0;" x1="48.75" x2="48.75" y1="202.6953" y2="222.6953"/><polygon fill="#181818" points="44.75,212.6953,48.75,222.6953,52.75,212.6953,48.75,216.6953" style="stroke:#181818;stroke-width:1.0;"/><line style="stroke:#181818;stroke-width:1.0;" x1="48.75" x2="48.75" y1="104.5625" y2="124.5625"/><polygon fill="#181818" points="44.75,114.5625,48.75,124.5625,52.75,114.5625,48.75,118.5625" style="stroke:#181818;stroke-width:1.0;"/><line style="stroke:#181818;stroke-width:1.0;" x1="48.75" x2="48.75" y1="246.6953" y2="266.6953"/><polygon fill="#181818" points="44.75,256.6953,48.75,266.6953,52.75,256.6953,48.75,260.6953" style="stroke:#181818;stroke-width:1.0;"/><!--SRC=[Kr1GK2X8B2h9BCdCprDGAaxDILF8oSylK5AevbA0WlIY_D82P3cu30XOELgZy8jI2r8JIr24mCgSi2bJAC_8p4b5DSyPeJ0rBmLYErYa5W00]--></g></svg>