<?xml version="1.0" encoding="UTF-8" standalone="no"?>
<!DOCTYPE svg PUBLIC "-//W3C//DTD SVG 1.1//EN"
 "http://www.w3.org/Graphics/SVG/1.1/DTD/svg11.dtd">
<!-- Generated by graphviz version 8.0.5 (20230506.1012)
 -->
<!-- Title: G Pages: 1 -->
<svg width="366pt" height="213pt"
 viewBox="0.00 0.00 365.50 213.00" xmlns="http://www.w3.org/2000/svg" xmlns:xlink="http://www.w3.org/1999/xlink">
<g id="graph0" class="graph" transform="scale(1 1) rotate(0) translate(4 209)">
<title>G</title>
<polygon fill="white" stroke="none" points="-4,4 -4,-209 361.5,-209 361.5,4 -4,4"/>
<g id="clust1" class="cluster">
<title>clusterA</title>
<polygon fill="none" stroke="black" points="8,-8 8,-197 176.75,-197 176.75,-8 8,-8"/>
<text text-anchor="middle" x="92.38" y="-179.7" font-family="Times,serif" font-size="14.00">Async Group 1</text>
</g>
<!-- A -->
<g id="node1" class="node">
<title>A</title>
<path fill="none" stroke="black" d="M32.5,-127C32.5,-127 152.25,-127 152.25,-127 158.25,-127 164.25,-133 164.25,-139 164.25,-139 164.25,-151 164.25,-151 164.25,-157 158.25,-163 152.25,-163 152.25,-163 32.5,-163 32.5,-163 26.5,-163 20.5,-157 20.5,-151 20.5,-151 20.5,-139 20.5,-139 20.5,-133 26.5,-127 32.5,-127"/>
<text text-anchor="middle" x="56.25" y="-140.7" font-family="Times,serif" font-size="14.00">start=0</text>
<polyline fill="none" stroke="black" points="92,-127.75 92,-163"/>
<text text-anchor="middle" x="128.12" y="-140.7" font-family="Times,serif" font-size="14.00">end=10</text>
</g>
<!-- D -->
<g id="node4" class="node">
<title>D</title>
<path fill="none" stroke="black" d="M216.75,-72C216.75,-72 345.5,-72 345.5,-72 351.5,-72 357.5,-78 357.5,-84 357.5,-84 357.5,-96 357.5,-96 357.5,-102 351.5,-108 345.5,-108 345.5,-108 216.75,-108 216.75,-108 210.75,-108 204.75,-102 204.75,-96 204.75,-96 204.75,-84 204.75,-84 204.75,-78 210.75,-72 216.75,-72"/>
<text text-anchor="middle" x="245" y="-85.7" font-family="Times,serif" font-size="14.00">start=30</text>
<polyline fill="none" stroke="black" points="285.25,-72.75 285.25,-108"/>
<text text-anchor="middle" x="321.38" y="-85.7" font-family="Times,serif" font-size="14.00">end=40</text>
</g>
<!-- A&#45;&gt;D -->
<g id="edge1" class="edge">
<title>A&#45;&gt;D</title>
<path fill="none" stroke="black" d="M154.27,-127.07C171.71,-121.93 190.87,-116.29 208.87,-110.98"/>
<polygon fill="black" stroke="black" points="209.71,-114.09 218.32,-107.91 207.74,-107.38 209.71,-114.09"/>
</g>
<!-- B -->
<g id="node2" class="node">
<title>B</title>
<path fill="none" stroke="black" d="M32.5,-72C32.5,-72 152.25,-72 152.25,-72 158.25,-72 164.25,-78 164.25,-84 164.25,-84 164.25,-96 164.25,-96 164.25,-102 158.25,-108 152.25,-108 152.25,-108 32.5,-108 32.5,-108 26.5,-108 20.5,-102 20.5,-96 20.5,-96 20.5,-84 20.5,-84 20.5,-78 26.5,-72 32.5,-72"/>
<text text-anchor="middle" x="56.25" y="-85.7" font-family="Times,serif" font-size="14.00">start=5</text>
<polyline fill="none" stroke="black" points="92,-72.75 92,-108"/>
<text text-anchor="middle" x="128.12" y="-85.7" font-family="Times,serif" font-size="14.00">end=20</text>
</g>
<!-- B&#45;&gt;D -->
<g id="edge2" class="edge">
<title>B&#45;&gt;D</title>
<path fill="none" stroke="black" d="M164.24,-90C174.02,-90 184.14,-90 194.15,-90"/>
<polygon fill="black" stroke="black" points="193.95,-93.5 203.95,-90 193.95,-86.5 193.95,-93.5"/>
</g>
<!-- C -->
<g id="node3" class="node">
<title>C</title>
<path fill="none" stroke="black" d="M28,-17C28,-17 156.75,-17 156.75,-17 162.75,-17 168.75,-23 168.75,-29 168.75,-29 168.75,-41 168.75,-41 168.75,-47 162.75,-53 156.75,-53 156.75,-53 28,-53 28,-53 22,-53 16,-47 16,-41 16,-41 16,-29 16,-29 16,-23 22,-17 28,-17"/>
<text text-anchor="middle" x="56.25" y="-30.7" font-family="Times,serif" font-size="14.00">start=15</text>
<polyline fill="none" stroke="black" points="96.5,-17.75 96.5,-53"/>
<text text-anchor="middle" x="132.62" y="-30.7" font-family="Times,serif" font-size="14.00">end=25</text>
</g>
<!-- C&#45;&gt;D -->
<g id="edge3" class="edge">
<title>C&#45;&gt;D</title>
<path fill="none" stroke="black" d="M154.27,-52.93C171.71,-58.07 190.87,-63.71 208.87,-69.02"/>
<polygon fill="black" stroke="black" points="207.74,-72.62 218.32,-72.09 209.71,-65.91 207.74,-72.62"/>
</g>
</g>
</svg>
