<?xml version="1.0" encoding="UTF-8" standalone="no"?>
<!DOCTYPE svg PUBLIC "-//W3C//DTD SVG 1.1//EN"
 "http://www.w3.org/Graphics/SVG/1.1/DTD/svg11.dtd">
<!-- Generated by graphviz version 8.0.5 (20230506.1012)
 -->
<!-- Title: G Pages: 1 -->
<svg width="170pt" height="378pt"
 viewBox="0.00 0.00 170.00 378.00" xmlns="http://www.w3.org/2000/svg" xmlns:xlink="http://www.w3.org/1999/xlink">
<g id="graph0" class="graph" transform="scale(1 1) rotate(0) translate(4 374)">
<title>G</title>
<polygon fill="white" stroke="none" points="-4,4 -4,-374 166,-374 166,4 -4,4"/>
<g id="clust1" class="cluster">
<title>clusterA</title>
<polygon fill="none" stroke="black" points="7,-8 7,-362 80,-362 80,-8 7,-8"/>
<text text-anchor="middle" x="43.5" y="-344.7" font-family="Times,serif" font-size="14.00">group_1</text>
</g>
<!-- A -->
<g id="node1" class="node">
<title>A</title>
<path fill="none" stroke="black" d="M28,-292C28,-292 58,-292 58,-292 64,-292 70,-298 70,-304 70,-304 70,-316 70,-316 70,-322 64,-328 58,-328 58,-328 28,-328 28,-328 22,-328 16,-322 16,-316 16,-316 16,-304 16,-304 16,-298 22,-292 28,-292"/>
<text text-anchor="middle" x="43" y="-305.7" font-family="Times,serif" font-size="14.00">A</text>
</g>
<!-- D -->
<g id="node7" class="node">
<title>D</title>
<path fill="none" stroke="black" d="M120,-154C120,-154 150,-154 150,-154 156,-154 162,-160 162,-166 162,-166 162,-178 162,-178 162,-184 156,-190 150,-190 150,-190 120,-190 120,-190 114,-190 108,-184 108,-178 108,-178 108,-166 108,-166 108,-160 114,-154 120,-154"/>
<text text-anchor="middle" x="135" y="-167.7" font-family="Times,serif" font-size="14.00">D</text>
</g>
<!-- A&#45;&gt;D -->
<g id="edge1" class="edge">
<title>A&#45;&gt;D</title>
<path fill="none" stroke="black" d="M69.75,-293.11C73.45,-290.02 77.02,-286.62 80,-283 100.7,-257.92 115.84,-223.57 124.73,-199.75"/>
<polygon fill="black" stroke="black" points="128.28,-201.21 128.37,-190.62 121.69,-198.84 128.28,-201.21"/>
</g>
<!-- A2 -->
<g id="node2" class="node">
<title>A2</title>
<path fill="none" stroke="black" d="M28,-237C28,-237 58,-237 58,-237 64,-237 70,-243 70,-249 70,-249 70,-261 70,-261 70,-267 64,-273 58,-273 58,-273 28,-273 28,-273 22,-273 16,-267 16,-261 16,-261 16,-249 16,-249 16,-243 22,-237 28,-237"/>
<text text-anchor="middle" x="43" y="-250.7" font-family="Times,serif" font-size="14.00">A</text>
</g>
<!-- A2&#45;&gt;D -->
<g id="edge2" class="edge">
<title>A2&#45;&gt;D</title>
<path fill="none" stroke="black" d="M68.82,-237.21C72.64,-234.24 76.49,-231.1 80,-228 90.6,-218.64 101.56,-207.57 110.81,-197.75"/>
<polygon fill="black" stroke="black" points="112.9,-200.58 117.14,-190.87 107.77,-195.81 112.9,-200.58"/>
</g>
<!-- B -->
<g id="node3" class="node">
<title>B</title>
<path fill="none" stroke="black" d="M28,-182C28,-182 58,-182 58,-182 64,-182 70,-188 70,-194 70,-194 70,-206 70,-206 70,-212 64,-218 58,-218 58,-218 28,-218 28,-218 22,-218 16,-212 16,-206 16,-206 16,-194 16,-194 16,-188 22,-182 28,-182"/>
<text text-anchor="middle" x="43" y="-195.7" font-family="Times,serif" font-size="14.00">B</text>
</g>
<!-- B&#45;&gt;D -->
<g id="edge3" class="edge">
<title>B&#45;&gt;D</title>
<path fill="none" stroke="black" d="M69.55,-192.05C78.31,-189.33 88.29,-186.22 97.73,-183.28"/>
<polygon fill="black" stroke="black" points="98.57,-186.38 107.07,-180.07 96.49,-179.69 98.57,-186.38"/>
</g>
<!-- B2 -->
<g id="node4" class="node">
<title>B2</title>
<path fill="none" stroke="black" d="M28,-127C28,-127 58,-127 58,-127 64,-127 70,-133 70,-139 70,-139 70,-151 70,-151 70,-157 64,-163 58,-163 58,-163 28,-163 28,-163 22,-163 16,-157 16,-151 16,-151 16,-139 16,-139 16,-133 22,-127 28,-127"/>
<text text-anchor="middle" x="43" y="-140.7" font-family="Times,serif" font-size="14.00">B</text>
</g>
<!-- B2&#45;&gt;D -->
<g id="edge4" class="edge">
<title>B2&#45;&gt;D</title>
<path fill="none" stroke="black" d="M69.55,-152.66C78.31,-155.29 88.29,-158.29 97.73,-161.12"/>
<polygon fill="black" stroke="black" points="96.49,-164.7 107.07,-164.22 98.5,-158 96.49,-164.7"/>
</g>
<!-- C -->
<g id="node5" class="node">
<title>C</title>
<path fill="none" stroke="black" d="M28,-72C28,-72 58,-72 58,-72 64,-72 70,-78 70,-84 70,-84 70,-96 70,-96 70,-102 64,-108 58,-108 58,-108 28,-108 28,-108 22,-108 16,-102 16,-96 16,-96 16,-84 16,-84 16,-78 22,-72 28,-72"/>
<text text-anchor="middle" x="43" y="-85.7" font-family="Times,serif" font-size="14.00">C</text>
</g>
<!-- C&#45;&gt;D -->
<g id="edge5" class="edge">
<title>C&#45;&gt;D</title>
<path fill="none" stroke="black" d="M67.96,-107.97C72.05,-111.22 76.2,-114.65 80,-118 90.15,-126.96 100.79,-137.36 109.92,-146.63"/>
<polygon fill="black" stroke="black" points="107.02,-148.69 116.5,-153.42 112.03,-143.81 107.02,-148.69"/>
</g>
<!-- C2 -->
<g id="node6" class="node">
<title>C2</title>
<path fill="none" stroke="black" d="M28,-17C28,-17 58,-17 58,-17 64,-17 70,-23 70,-29 70,-29 70,-41 70,-41 70,-47 64,-53 58,-53 58,-53 28,-53 28,-53 22,-53 16,-47 16,-41 16,-41 16,-29 16,-29 16,-23 22,-17 28,-17"/>
<text text-anchor="middle" x="43" y="-30.7" font-family="Times,serif" font-size="14.00">C</text>
</g>
<!-- C2&#45;&gt;D -->
<g id="edge6" class="edge">
<title>C2&#45;&gt;D</title>
<path fill="none" stroke="black" d="M69.71,-52.64C73.42,-55.83 76.99,-59.32 80,-63 100.07,-87.57 115.18,-120.83 124.24,-144.13"/>
<polygon fill="black" stroke="black" points="121.29,-145.24 128.08,-153.37 127.85,-142.78 121.29,-145.24"/>
</g>
</g>
</svg>
