<?xml version="1.0" encoding="UTF-8" standalone="no"?>
<!DOCTYPE svg PUBLIC "-//W3C//DTD SVG 1.1//EN"
 "http://www.w3.org/Graphics/SVG/1.1/DTD/svg11.dtd">
<!-- Generated by graphviz version 8.0.5 (20230506.1012)
 -->
<!-- Title: G Pages: 1 -->
<svg width="527pt" height="565pt"
 viewBox="0.00 0.00 526.75 565.25" xmlns="http://www.w3.org/2000/svg" xmlns:xlink="http://www.w3.org/1999/xlink">
<g id="graph0" class="graph" transform="scale(1 1) rotate(0) translate(4 561.25)">
<title>G</title>
<polygon fill="white" stroke="none" points="-4,4 -4,-561.25 522.75,-561.25 522.75,4 -4,4"/>
<!-- root -->
<g id="node1" class="node">
<title>root</title>
<path fill="none" stroke="black" d="M280.75,-378.75C280.75,-378.75 374,-378.75 374,-378.75 380,-378.75 386,-384.75 386,-390.75 386,-390.75 386,-544.75 386,-544.75 386,-550.75 380,-556.75 374,-556.75 374,-556.75 280.75,-556.75 280.75,-556.75 274.75,-556.75 268.75,-550.75 268.75,-544.75 268.75,-544.75 268.75,-390.75 268.75,-390.75 268.75,-384.75 274.75,-378.75 280.75,-378.75"/>
<text text-anchor="middle" x="327.38" y="-539.45" font-family="Times,serif" font-size="14.00">spanid=root</text>
<polyline fill="none" stroke="black" points="268.75,-531.5 386,-531.5"/>
<text text-anchor="middle" x="327.38" y="-514.2" font-family="Times,serif" font-size="14.00">start=0</text>
<polyline fill="none" stroke="black" points="268.75,-506.25 386,-506.25"/>
<text text-anchor="middle" x="327.38" y="-488.95" font-family="Times,serif" font-size="14.00">end=100</text>
<polyline fill="none" stroke="black" points="268.75,-481 386,-481"/>
<text text-anchor="middle" x="327.38" y="-463.7" font-family="Times,serif" font-size="14.00">parent=None,</text>
<polyline fill="none" stroke="black" points="268.75,-455.75 386,-455.75"/>
<text text-anchor="middle" x="327.38" y="-438.45" font-family="Times,serif" font-size="14.00">children=[</text>
<text text-anchor="middle" x="327.38" y="-421.2" font-family="Times,serif" font-size="14.00">child1,</text>
<text text-anchor="middle" x="327.38" y="-403.95" font-family="Times,serif" font-size="14.00">child2</text>
<text text-anchor="middle" x="327.38" y="-386.7" font-family="Times,serif" font-size="14.00">]</text>
</g>
<!-- child1 -->
<g id="node2" class="node">
<title>child1</title>
<path fill="none" stroke="black" d="M212,-163.75C212,-163.75 306.75,-163.75 306.75,-163.75 312.75,-163.75 318.75,-169.75 318.75,-175.75 318.75,-175.75 318.75,-329.75 318.75,-329.75 318.75,-335.75 312.75,-341.75 306.75,-341.75 306.75,-341.75 212,-341.75 212,-341.75 206,-341.75 200,-335.75 200,-329.75 200,-329.75 200,-175.75 200,-175.75 200,-169.75 206,-163.75 212,-163.75"/>
<text text-anchor="middle" x="259.38" y="-324.45" font-family="Times,serif" font-size="14.00">spanid=child1</text>
<polyline fill="none" stroke="black" points="200,-316.5 318.75,-316.5"/>
<text text-anchor="middle" x="259.38" y="-299.2" font-family="Times,serif" font-size="14.00">start=10</text>
<polyline fill="none" stroke="black" points="200,-291.25 318.75,-291.25"/>
<text text-anchor="middle" x="259.38" y="-273.95" font-family="Times,serif" font-size="14.00">end=20</text>
<polyline fill="none" stroke="black" points="200,-266 318.75,-266"/>
<text text-anchor="middle" x="259.38" y="-248.7" font-family="Times,serif" font-size="14.00">parent=root,</text>
<polyline fill="none" stroke="black" points="200,-240.75 318.75,-240.75"/>
<text text-anchor="middle" x="259.38" y="-223.45" font-family="Times,serif" font-size="14.00">children=[</text>
<text text-anchor="middle" x="259.38" y="-206.2" font-family="Times,serif" font-size="14.00">grandchild1,</text>
<text text-anchor="middle" x="259.38" y="-188.95" font-family="Times,serif" font-size="14.00">grandchild2</text>
<text text-anchor="middle" x="259.38" y="-171.7" font-family="Times,serif" font-size="14.00">]</text>
</g>
<!-- root&#45;&gt;child1 -->
<g id="edge1" class="edge">
<title>root&#45;&gt;child1</title>
<path fill="none" stroke="black" d="M299.32,-378.89C296.45,-369.89 293.52,-360.72 290.62,-351.63"/>
<polygon fill="black" stroke="black" points="293.74,-350.87 287.36,-342.41 287.07,-353 293.74,-350.87"/>
</g>
<!-- child2 -->
<g id="node3" class="node">
<title>child2</title>
<path fill="none" stroke="black" d="M370,-172.38C370,-172.38 464.75,-172.38 464.75,-172.38 470.75,-172.38 476.75,-178.38 476.75,-184.38 476.75,-184.38 476.75,-321.12 476.75,-321.12 476.75,-327.12 470.75,-333.12 464.75,-333.12 464.75,-333.12 370,-333.12 370,-333.12 364,-333.12 358,-327.12 358,-321.12 358,-321.12 358,-184.38 358,-184.38 358,-178.38 364,-172.38 370,-172.38"/>
<text text-anchor="middle" x="417.38" y="-315.82" font-family="Times,serif" font-size="14.00">spanid=child2</text>
<polyline fill="none" stroke="black" points="358,-307.88 476.75,-307.88"/>
<text text-anchor="middle" x="417.38" y="-290.57" font-family="Times,serif" font-size="14.00">start=30</text>
<polyline fill="none" stroke="black" points="358,-282.62 476.75,-282.62"/>
<text text-anchor="middle" x="417.38" y="-265.32" font-family="Times,serif" font-size="14.00">end=40</text>
<polyline fill="none" stroke="black" points="358,-257.38 476.75,-257.38"/>
<text text-anchor="middle" x="417.38" y="-240.07" font-family="Times,serif" font-size="14.00">parent=root,</text>
<polyline fill="none" stroke="black" points="358,-232.12 476.75,-232.12"/>
<text text-anchor="middle" x="417.38" y="-214.82" font-family="Times,serif" font-size="14.00">children=[</text>
<text text-anchor="middle" x="417.38" y="-197.57" font-family="Times,serif" font-size="14.00">grandchild3</text>
<text text-anchor="middle" x="417.38" y="-180.32" font-family="Times,serif" font-size="14.00">]</text>
</g>
<!-- root&#45;&gt;child2 -->
<g id="edge2" class="edge">
<title>root&#45;&gt;child2</title>
<path fill="none" stroke="black" d="M364.5,-378.89C369.53,-366.98 374.7,-354.75 379.74,-342.82"/>
<polygon fill="black" stroke="black" points="383.27,-344.46 383.94,-333.89 376.82,-341.74 383.27,-344.46"/>
</g>
<!-- grandchild1 -->
<g id="node4" class="node">
<title>grandchild1</title>
<path fill="none" stroke="black" d="M12,-0.5C12,-0.5 148.75,-0.5 148.75,-0.5 154.75,-0.5 160.75,-6.5 160.75,-12.5 160.75,-12.5 160.75,-114.75 160.75,-114.75 160.75,-120.75 154.75,-126.75 148.75,-126.75 148.75,-126.75 12,-126.75 12,-126.75 6,-126.75 0,-120.75 0,-114.75 0,-114.75 0,-12.5 0,-12.5 0,-6.5 6,-0.5 12,-0.5"/>
<text text-anchor="middle" x="80.38" y="-109.45" font-family="Times,serif" font-size="14.00">spanid=grandchild1</text>
<polyline fill="none" stroke="black" points="0,-101.5 160.75,-101.5"/>
<text text-anchor="middle" x="80.38" y="-84.2" font-family="Times,serif" font-size="14.00">start=11</text>
<polyline fill="none" stroke="black" points="0,-76.25 160.75,-76.25"/>
<text text-anchor="middle" x="80.38" y="-58.95" font-family="Times,serif" font-size="14.00">end=15</text>
<polyline fill="none" stroke="black" points="0,-51 160.75,-51"/>
<text text-anchor="middle" x="80.38" y="-33.7" font-family="Times,serif" font-size="14.00">parent=child1,</text>
<polyline fill="none" stroke="black" points="0,-25.75 160.75,-25.75"/>
<text text-anchor="middle" x="80.38" y="-8.45" font-family="Times,serif" font-size="14.00">children=[]</text>
</g>
<!-- child1&#45;&gt;grandchild1 -->
<g id="edge3" class="edge">
<title>child1&#45;&gt;grandchild1</title>
<path fill="none" stroke="black" d="M200.02,-189.7C183.01,-171.92 164.36,-152.42 146.95,-134.22"/>
<polygon fill="black" stroke="black" points="150.01,-132.31 140.57,-127.51 144.95,-137.15 150.01,-132.31"/>
</g>
<!-- grandchild2 -->
<g id="node5" class="node">
<title>grandchild2</title>
<path fill="none" stroke="black" d="M191,-0.5C191,-0.5 327.75,-0.5 327.75,-0.5 333.75,-0.5 339.75,-6.5 339.75,-12.5 339.75,-12.5 339.75,-114.75 339.75,-114.75 339.75,-120.75 333.75,-126.75 327.75,-126.75 327.75,-126.75 191,-126.75 191,-126.75 185,-126.75 179,-120.75 179,-114.75 179,-114.75 179,-12.5 179,-12.5 179,-6.5 185,-0.5 191,-0.5"/>
<text text-anchor="middle" x="259.38" y="-109.45" font-family="Times,serif" font-size="14.00">spanid=grandchild2</text>
<polyline fill="none" stroke="black" points="179,-101.5 339.75,-101.5"/>
<text text-anchor="middle" x="259.38" y="-84.2" font-family="Times,serif" font-size="14.00">start=14</text>
<polyline fill="none" stroke="black" points="179,-76.25 339.75,-76.25"/>
<text text-anchor="middle" x="259.38" y="-58.95" font-family="Times,serif" font-size="14.00">end=19</text>
<polyline fill="none" stroke="black" points="179,-51 339.75,-51"/>
<text text-anchor="middle" x="259.38" y="-33.7" font-family="Times,serif" font-size="14.00">parent=child1,</text>
<polyline fill="none" stroke="black" points="179,-25.75 339.75,-25.75"/>
<text text-anchor="middle" x="259.38" y="-8.45" font-family="Times,serif" font-size="14.00">children=[]</text>
</g>
<!-- child1&#45;&gt;grandchild2 -->
<g id="edge4" class="edge">
<title>child1&#45;&gt;grandchild2</title>
<path fill="none" stroke="black" d="M259.38,-163.94C259.38,-155.06 259.38,-146.11 259.38,-137.41"/>
<polygon fill="black" stroke="black" points="262.88,-137.56 259.38,-127.56 255.88,-137.56 262.88,-137.56"/>
</g>
<!-- grandchild3 -->
<g id="node6" class="node">
<title>grandchild3</title>
<path fill="none" stroke="black" d="M370,-0.5C370,-0.5 506.75,-0.5 506.75,-0.5 512.75,-0.5 518.75,-6.5 518.75,-12.5 518.75,-12.5 518.75,-114.75 518.75,-114.75 518.75,-120.75 512.75,-126.75 506.75,-126.75 506.75,-126.75 370,-126.75 370,-126.75 364,-126.75 358,-120.75 358,-114.75 358,-114.75 358,-12.5 358,-12.5 358,-6.5 364,-0.5 370,-0.5"/>
<text text-anchor="middle" x="438.38" y="-109.45" font-family="Times,serif" font-size="14.00">spanid=grandchild3</text>
<polyline fill="none" stroke="black" points="358,-101.5 518.75,-101.5"/>
<text text-anchor="middle" x="438.38" y="-84.2" font-family="Times,serif" font-size="14.00">start=31</text>
<polyline fill="none" stroke="black" points="358,-76.25 518.75,-76.25"/>
<text text-anchor="middle" x="438.38" y="-58.95" font-family="Times,serif" font-size="14.00">end=39</text>
<polyline fill="none" stroke="black" points="358,-51 518.75,-51"/>
<text text-anchor="middle" x="438.38" y="-33.7" font-family="Times,serif" font-size="14.00">parent=child2,</text>
<polyline fill="none" stroke="black" points="358,-25.75 518.75,-25.75"/>
<text text-anchor="middle" x="438.38" y="-8.45" font-family="Times,serif" font-size="14.00">children=[]</text>
</g>
<!-- child2&#45;&gt;grandchild3 -->
<g id="edge5" class="edge">
<title>child2&#45;&gt;grandchild3</title>
<path fill="none" stroke="black" d="M426.28,-172.39C427.59,-160.77 428.92,-148.84 430.21,-137.36"/>
<polygon fill="black" stroke="black" points="433.79,-137.84 431.43,-127.51 426.84,-137.06 433.79,-137.84"/>
</g>
</g>
</svg>
