<?xml version="1.0" encoding="us-ascii" standalone="no"?><svg xmlns="http://www.w3.org/2000/svg" xmlns:xlink="http://www.w3.org/1999/xlink" contentStyleType="text/css" height="892px" preserveAspectRatio="none" style="width:724px;height:892px;background:#FFFFFF;" version="1.1" viewBox="0 0 724 892" width="724px" zoomAndPan="magnify"><defs/><g><!--cluster FolderOfPVEvents--><g id="cluster_FolderOfPVEvents"><path d="M217.5,525.49 L373.5,525.49 A3.75,3.75 0 0 1 376,527.99 L383,547.7869 L427.5,547.7869 A2.5,2.5 0 0 1 430,550.2869 L430,658.88 A2.5,2.5 0 0 1 427.5,661.38 L217.5,661.38 A2.5,2.5 0 0 1 215,658.88 L215,527.99 A2.5,2.5 0 0 1 217.5,525.49 " fill="none" style="stroke:#000000;stroke-width:1.5;"/><line style="stroke:#000000;stroke-width:1.5;" x1="215" x2="383" y1="547.7869" y2="547.7869"/><text fill="#000000" font-family="sans-serif" font-size="14" font-weight="bold" lengthAdjust="spacing" textLength="155" x="219" y="540.4851">Folder of PV Events</text></g><!--cluster SpanData--><g id="cluster_SpanData"><path d="M70.5,6 L147.5,6 A3.75,3.75 0 0 1 150,8.5 L157,28.2969 L221.5,28.2969 A2.5,2.5 0 0 1 224,30.7969 L224,123.1 A2.5,2.5 0 0 1 221.5,125.6 L70.5,125.6 A2.5,2.5 0 0 1 68,123.1 L68,8.5 A2.5,2.5 0 0 1 70.5,6 " fill="none" style="stroke:#000000;stroke-width:1.5;"/><line style="stroke:#000000;stroke-width:1.5;" x1="68" x2="157" y1="28.2969" y2="28.2969"/><text fill="#000000" font-family="sans-serif" font-size="14" font-weight="bold" lengthAdjust="spacing" textLength="76" x="72" y="20.9951">OTel Data</text></g><!--cluster OutputPVEventFiles--><g id="cluster_OutputPVEventFiles"><path d="M472.5,190.6 L695.5,190.6 A3.75,3.75 0 0 1 698,193.1 L705,212.8969 L714.5,212.8969 A2.5,2.5 0 0 1 717,215.3969 L717,698.88 A2.5,2.5 0 0 1 714.5,701.38 L472.5,701.38 A2.5,2.5 0 0 1 470,698.88 L470,193.1 A2.5,2.5 0 0 1 472.5,190.6 " fill="none" style="stroke:#000000;stroke-width:1.5;"/><line style="stroke:#000000;stroke-width:1.5;" x1="470" x2="705" y1="212.8969" y2="212.8969"/><text fill="#000000" font-family="sans-serif" font-size="14" font-weight="bold" lengthAdjust="spacing" textLength="222" x="474" y="205.5951">Output PV Event Sequences</text></g><!--cluster JobNameN--><g id="cluster_JobNameN"><path d="M520.5,525.49 L609.5,525.49 A3.75,3.75 0 0 1 612,527.99 L619,547.7869 L674.5,547.7869 A2.5,2.5 0 0 1 677,550.2869 L677,658.88 A2.5,2.5 0 0 1 674.5,661.38 L520.5,661.38 A2.5,2.5 0 0 1 518,658.88 L518,527.99 A2.5,2.5 0 0 1 520.5,525.49 " fill="none" style="stroke:#000000;stroke-width:1.5;"/><line style="stroke:#000000;stroke-width:1.5;" x1="518" x2="619" y1="547.7869" y2="547.7869"/><text fill="#000000" font-family="sans-serif" font-size="14" font-weight="bold" lengthAdjust="spacing" textLength="88" x="522" y="540.4851">Job Name n</text></g><!--cluster JobName1--><g id="cluster_JobName1"><path d="M520.5,249.6 L609.5,249.6 A3.75,3.75 0 0 1 612,252.1 L619,271.8969 L674.5,271.8969 A2.5,2.5 0 0 1 677,274.3969 L677,382.99 A2.5,2.5 0 0 1 674.5,385.49 L520.5,385.49 A2.5,2.5 0 0 1 518,382.99 L518,252.1 A2.5,2.5 0 0 1 520.5,249.6 " fill="none" style="stroke:#000000;stroke-width:1.5;"/><line style="stroke:#000000;stroke-width:1.5;" x1="518" x2="619" y1="271.8969" y2="271.8969"/><text fill="#000000" font-family="sans-serif" font-size="14" font-weight="bold" lengthAdjust="spacing" textLength="88" x="522" y="264.5951">Job Name 1</text></g><!--cluster OutputPUMLFiles--><g id="cluster_OutputPUMLFiles"><path d="M67.5,766.38 L211.5,766.38 A3.75,3.75 0 0 1 214,768.88 L221,788.6769 L360.5,788.6769 A2.5,2.5 0 0 1 363,791.1769 L363,883.47 A2.5,2.5 0 0 1 360.5,885.97 L67.5,885.97 A2.5,2.5 0 0 1 65,883.47 L65,768.88 A2.5,2.5 0 0 1 67.5,766.38 " fill="none" style="stroke:#000000;stroke-width:1.5;"/><line style="stroke:#000000;stroke-width:1.5;" x1="65" x2="221" y1="788.6769" y2="788.6769"/><text fill="#000000" font-family="sans-serif" font-size="14" font-weight="bold" lengthAdjust="spacing" textLength="143" x="69" y="781.3751">Output PUML Files</text></g><!--cluster oteltopuml--><g id="cluster_oteltopuml"><rect fill="none" height="373.19" rx="2.5" ry="2.5" style="stroke:#181818;stroke-width:1.0;" width="138" x="7" y="268.89"/><rect fill="none" height="10" style="stroke:#181818;stroke-width:1.0;" width="15" x="125" y="273.89"/><rect fill="none" height="2" style="stroke:#181818;stroke-width:1.0;" width="4" x="123" y="275.89"/><rect fill="none" height="2" style="stroke:#181818;stroke-width:1.0;" width="4" x="123" y="279.89"/><text fill="#000000" font-family="sans-serif" font-size="14" font-weight="bold" lengthAdjust="spacing" textLength="78" x="37" y="294.8851">otel2puml</text></g><!--entity PVEventFiles--><g id="elem_PVEventFiles"><path d="M258.5,570.99 L258.5,634.8806 A2.5,2.5 0 0 0 261,637.3806 L403,637.3806 A2.5,2.5 0 0 0 405.5,634.8806 L405.5,578.49 L395.5,568.49 L261,568.49 A2.5,2.5 0 0 0 258.5,570.99 " fill="#F1F1F1" style="stroke:#181818;stroke-width:0.5;"/><path d="M395.5,568.49 L395.5,575.99 A2.5,2.5 0 0 0 398,578.49 L405.5,578.49 " fill="#F1F1F1" style="stroke:#181818;stroke-width:0.5;"/><text fill="#000000" font-family="sans-serif" font-size="14" lengthAdjust="spacing" textLength="61" x="268.5" y="591.4851">PV Event</text><text fill="#000000" font-family="sans-serif" font-size="14" lengthAdjust="spacing" textLength="127" x="268.5" y="607.782">[Sequence,Single]</text><text fill="#000000" font-family="sans-serif" font-size="14" lengthAdjust="spacing" textLength="31" x="268.5" y="624.0789">Files</text></g><!--entity OTElJSON1--><g id="elem_OTElJSON1"><path d="M111.5,51.5 L111.5,99.0938 A2.5,2.5 0 0 0 114,101.5938 L198,101.5938 A2.5,2.5 0 0 0 200.5,99.0938 L200.5,59 L190.5,49 L114,49 A2.5,2.5 0 0 0 111.5,51.5 " fill="#F1F1F1" style="stroke:#181818;stroke-width:0.5;"/><path d="M190.5,49 L190.5,56.5 A2.5,2.5 0 0 0 193,59 L200.5,59 " fill="#F1F1F1" style="stroke:#181818;stroke-width:0.5;"/><text fill="#000000" font-family="sans-serif" font-size="14" lengthAdjust="spacing" textLength="69" x="121.5" y="71.9951">OTel JSON</text><text fill="#000000" font-family="sans-serif" font-size="14" lengthAdjust="spacing" textLength="31" x="121.5" y="88.292">Files</text></g><!--entity PVEventN_N--><g id="elem_PVEventN_N"><path d="M561.5,570.99 L561.5,634.8806 A2.5,2.5 0 0 0 564,637.3806 L650,637.3806 A2.5,2.5 0 0 0 652.5,634.8806 L652.5,578.49 L642.5,568.49 L564,568.49 A2.5,2.5 0 0 0 561.5,570.99 " fill="#F1F1F1" style="stroke:#181818;stroke-width:0.5;"/><path d="M642.5,568.49 L642.5,575.99 A2.5,2.5 0 0 0 645,578.49 L652.5,578.49 " fill="#F1F1F1" style="stroke:#181818;stroke-width:0.5;"/><text fill="#000000" font-family="sans-serif" font-size="14" lengthAdjust="spacing" textLength="61" x="571.5" y="591.4851">PV Event</text><text fill="#000000" font-family="sans-serif" font-size="14" lengthAdjust="spacing" textLength="71" x="571.5" y="607.782">Sequence</text><text fill="#000000" font-family="sans-serif" font-size="14" lengthAdjust="spacing" textLength="31" x="571.5" y="624.0789">Files</text></g><!--entity PVEvent1_1--><g id="elem_PVEvent1_1"><path d="M561.5,295.1 L561.5,358.9906 A2.5,2.5 0 0 0 564,361.4906 L650,361.4906 A2.5,2.5 0 0 0 652.5,358.9906 L652.5,302.6 L642.5,292.6 L564,292.6 A2.5,2.5 0 0 0 561.5,295.1 " fill="#F1F1F1" style="stroke:#181818;stroke-width:0.5;"/><path d="M642.5,292.6 L642.5,300.1 A2.5,2.5 0 0 0 645,302.6 L652.5,302.6 " fill="#F1F1F1" style="stroke:#181818;stroke-width:0.5;"/><text fill="#000000" font-family="sans-serif" font-size="14" lengthAdjust="spacing" textLength="61" x="571.5" y="315.5951">PV Event</text><text fill="#000000" font-family="sans-serif" font-size="14" lengthAdjust="spacing" textLength="71" x="571.5" y="331.892">Sequence</text><text fill="#000000" font-family="sans-serif" font-size="14" lengthAdjust="spacing" textLength="31" x="571.5" y="348.1889">Files</text></g><!--entity JobNameNPUML--><g id="elem_JobNameNPUML"><path d="M241,811.88 L241,859.4738 A2.5,2.5 0 0 0 243.5,861.9738 L336.5,861.9738 A2.5,2.5 0 0 0 339,859.4738 L339,819.38 L329,809.38 L243.5,809.38 A2.5,2.5 0 0 0 241,811.88 " fill="#F1F1F1" style="stroke:#181818;stroke-width:0.5;"/><path d="M329,809.38 L329,816.88 A2.5,2.5 0 0 0 331.5,819.38 L339,819.38 " fill="#F1F1F1" style="stroke:#181818;stroke-width:0.5;"/><text fill="#000000" font-family="sans-serif" font-size="14" lengthAdjust="spacing" textLength="78" x="251" y="832.3751">Job Name n</text><text fill="#000000" font-family="sans-serif" font-size="14" lengthAdjust="spacing" textLength="65" x="251" y="848.672">PUML File</text></g><!--entity JobName1PUML--><g id="elem_JobName1PUML"><path d="M108,811.88 L108,859.4738 A2.5,2.5 0 0 0 110.5,861.9738 L203.5,861.9738 A2.5,2.5 0 0 0 206,859.4738 L206,819.38 L196,809.38 L110.5,809.38 A2.5,2.5 0 0 0 108,811.88 " fill="#F1F1F1" style="stroke:#181818;stroke-width:0.5;"/><path d="M196,809.38 L196,816.88 A2.5,2.5 0 0 0 198.5,819.38 L206,819.38 " fill="#F1F1F1" style="stroke:#181818;stroke-width:0.5;"/><text fill="#000000" font-family="sans-serif" font-size="14" lengthAdjust="spacing" textLength="78" x="118" y="832.3751">Job Name 1</text><text fill="#000000" font-family="sans-serif" font-size="14" lengthAdjust="spacing" textLength="65" x="118" y="848.672">PUML File</text></g><!--entity pvtopuml--><g id="elem_pvtopuml"><rect fill="#F1F1F1" height="46.2969" rx="2.5" ry="2.5" style="stroke:#181818;stroke-width:0.5;" width="99" x="23.5" y="579.78"/><rect fill="#F1F1F1" height="10" style="stroke:#181818;stroke-width:0.5;" width="15" x="102.5" y="584.78"/><rect fill="#F1F1F1" height="2" style="stroke:#181818;stroke-width:0.5;" width="4" x="100.5" y="586.78"/><rect fill="#F1F1F1" height="2" style="stroke:#181818;stroke-width:0.5;" width="4" x="100.5" y="590.78"/><text fill="#000000" font-family="sans-serif" font-size="14" lengthAdjust="spacing" textLength="59" x="38.5" y="612.7751">pv2puml</text></g><!--entity oteltopv--><g id="elem_oteltopv"><rect fill="#F1F1F1" height="46.2969" rx="2.5" ry="2.5" style="stroke:#181818;stroke-width:0.5;" width="91" x="30.5" y="303.89"/><rect fill="#F1F1F1" height="10" style="stroke:#181818;stroke-width:0.5;" width="15" x="101.5" y="308.89"/><rect fill="#F1F1F1" height="2" style="stroke:#181818;stroke-width:0.5;" width="4" x="99.5" y="310.89"/><rect fill="#F1F1F1" height="2" style="stroke:#181818;stroke-width:0.5;" width="4" x="99.5" y="314.89"/><text fill="#000000" font-family="sans-serif" font-size="14" lengthAdjust="spacing" textLength="51" x="45.5" y="336.8851">otel2pv</text></g><!--link JobName1 to JobNameN--><!--link oteltopv to pvtopuml--><g id="link_oteltopv_pvtopuml"><path d="M75.75,350.45 C75.19,401.94 73.8765,522.1804 73.3065,573.5904 " fill="none" id="oteltopv-to-pvtopuml" style="stroke:#181818;stroke-width:1.0;"/><polygon fill="#181818" points="73.24,579.59,77.3395,570.6349,73.2954,574.5903,69.34,570.5462,73.24,579.59" style="stroke:#181818;stroke-width:1.0;"/><text fill="#000000" font-family="sans-serif" font-size="13" lengthAdjust="spacing" textLength="32" x="94.5" y="422.5569">Input</text><text fill="#000000" font-family="sans-serif" font-size="13" lengthAdjust="spacing" textLength="64" x="78.5" y="437.6897">PV Events</text><text fill="#000000" font-family="sans-serif" font-size="13" lengthAdjust="spacing" textLength="69" x="76" y="452.8225">sequences</text><text fill="#000000" font-family="sans-serif" font-size="13" lengthAdjust="spacing" textLength="64" x="78.5" y="467.9553">converted</text><text fill="#000000" font-family="sans-serif" font-size="13" lengthAdjust="spacing" textLength="30" x="95.5" y="483.0881">from</text><text fill="#000000" font-family="sans-serif" font-size="13" lengthAdjust="spacing" textLength="63" x="79" y="498.221">OTel Data</text></g><!--link pvtopuml to OutputPUMLFiles--><g id="link_pvtopuml_OutputPUMLFiles"><path d="M73,626.48 C73,655.055 73,705.935 73,750.2413 C73,753.0104 73,755.7539 73,758.4646 C73,759.82 73,761.1671 73,762.5053 C73,763.1743 73,763.8411 73,764.5055 C73,764.8377 73,759.1694 73,759.5004 " fill="none" id="pvtopuml-to-OutputPUMLFiles" style="stroke:#181818;stroke-width:1.0;"/><polygon fill="#181818" points="73,765.5004,77,756.5004,73,760.5004,69,756.5004,73,765.5004" style="stroke:#181818;stroke-width:1.0;"/><text fill="#000000" font-family="sans-serif" font-size="13" lengthAdjust="spacing" textLength="352" x="74" y="738.4469">Output PUML Files converted from PV Event sequences</text></g><!--link SpanData to oteltopv--><g id="link_SpanData_oteltopv"><path d="M76,125.7713 C76,128.3448 76,130.9867 76,133.6888 C76,144.4973 76,156.2697 76,168.4913 C76,217.3775 76,267.45 76,297.76 " fill="none" id="SpanData-to-oteltopv" style="stroke:#181818;stroke-width:1.0;"/><polygon fill="#181818" points="76,303.76,80,294.76,76,298.76,72,294.76,76,303.76" style="stroke:#181818;stroke-width:1.0;"/><text fill="#000000" font-family="sans-serif" font-size="13" lengthAdjust="spacing" textLength="175" x="77" y="162.6669">Ingest OTel Data From Files</text></g><!--reverse link pvtopuml to FolderOfPVEvents--><g id="link_pvtopuml_FolderOfPVEvents"><path d="M128.95,602.93 C149.405,602.93 166.6675,602.93 185.6113,602.93 C195.0831,602.93 203.4753,602.93 209.897,602.93 C211.5025,602.93 212.9847,602.93 214.3299,602.93 C214.4981,602.93 214.6641,602.93 214.8279,602.93 " fill="none" id="pvtopuml-backto-FolderOfPVEvents" style="stroke:#181818;stroke-width:1.0;"/><polygon fill="#181818" points="122.95,602.93,131.95,606.93,127.95,602.93,131.95,598.93,122.95,602.93" style="stroke:#181818;stroke-width:1.0;"/><text fill="#000000" font-family="sans-serif" font-size="13" lengthAdjust="spacing" textLength="32" x="156.57" y="565.9969">Input</text><text fill="#000000" font-family="sans-serif" font-size="13" lengthAdjust="spacing" textLength="64" x="140.57" y="581.1297">PV Events</text><text fill="#000000" font-family="sans-serif" font-size="13" lengthAdjust="spacing" textLength="59" x="143.07" y="596.2625">from files</text></g><!--link oteltopv to OutputPVEventFiles--><g id="link_oteltopv_OutputPVEventFiles"><path d="M121.72,327.04 C172.755,327.04 257.94,327.04 332.2188,327.04 C369.3581,327.04 403.7709,327.04 429.8252,327.04 C442.8523,327.04 453.7897,327.04 461.9335,327.04 C463.9695,327.04 465.8308,327.04 467.5066,327.04 C468.3445,327.04 463.1359,327.04 463.8796,327.04 " fill="none" id="oteltopv-to-OutputPVEventFiles" style="stroke:#181818;stroke-width:1.0;"/><polygon fill="#181818" points="469.8796,327.04,460.8796,323.04,464.8796,327.04,460.8796,331.04,469.8796,327.04" style="stroke:#181818;stroke-width:1.0;"/><text fill="#000000" font-family="sans-serif" font-size="13" lengthAdjust="spacing" textLength="105" x="247.07" y="290.1069">Output PV Event</text><text fill="#000000" font-family="sans-serif" font-size="13" lengthAdjust="spacing" textLength="139" x="230.07" y="305.2397">Sequences converted</text><text fill="#000000" font-family="sans-serif" font-size="13" lengthAdjust="spacing" textLength="146" x="226.57" y="320.3725">from OTel Data to Files</text></g><!--SRC=[dLGzRuD03Dtv5HPBbpBGCKEd9bAZ5YAHPWbHHE58a0uVXOCELVvxxuCxBWrLfR94TfwVdnysTq19oO4pQAlJcKDHjIJd5KElPBGWBVWh_SjAsEnWEH3adGzP1peVbvkTJiAN1-8fAqh0Dz0Kzmdvw0dcv3wfy4J98SMLW6YEiLObl8jj6My9XQUCPmgKD1dAuAg1WgoJE7BfuksIobpeSlMywRdL3aREMA7-TMMOBcFvchr3bDK4KE55AADeHCqDR1hCp1aT8rLscMyHkYt2_xK8Zw7Jmd851Vl4_Rag2eA7m8unuzFRwmiuZcf_HFBA7ALdiYP5MtRbaipE5OI_58IguEBbh6uOohVbCqxeGzFNLE5an9aCHoKEiXacN3Der4-CPXjSha5XJA2D2Xuj0opW6OK5Gh7P_XGxiqCfvWm7qd9If5Ysh4xHxgwOmv8OrfzsBk36Th2C80cdnRLDFNiGXjQgbs9FfEDWLS1AakW3kxdOGDx-NyCg5QKYc5nI7ujf8FT-ffbkzjKPRkITT8elaAh_1W00]--></g></svg>