<?xml version="1.0" encoding="UTF-8" standalone="no"?>
<!DOCTYPE svg PUBLIC "-//W3C//DTD SVG 1.1//EN"
 "http://www.w3.org/Graphics/SVG/1.1/DTD/svg11.dtd">
<!-- Generated by graphviz version 8.0.5 (20230506.1012)
 -->
<!-- Title: G Pages: 1 -->
<svg width="688pt" height="337pt"
 viewBox="0.00 0.00 688.25 337.00" xmlns="http://www.w3.org/2000/svg" xmlns:xlink="http://www.w3.org/1999/xlink">
<g id="graph0" class="graph" transform="scale(1 1) rotate(0) translate(4 333)">
<title>G</title>
<polygon fill="white" stroke="none" points="-4,4 -4,-333 684.25,-333 684.25,4 -4,4"/>
<!-- root -->
<g id="node1" class="node">
<title>root</title>
<path fill="none" stroke="black" d="M192.38,-0.5C192.38,-0.5 486.88,-0.5 486.88,-0.5 492.88,-0.5 498.88,-6.5 498.88,-12.5 498.88,-12.5 498.88,-24.5 498.88,-24.5 498.88,-30.5 492.88,-36.5 486.88,-36.5 486.88,-36.5 192.38,-36.5 192.38,-36.5 186.38,-36.5 180.38,-30.5 180.38,-24.5 180.38,-24.5 180.38,-12.5 180.38,-12.5 180.38,-6.5 186.38,-0.5 192.38,-0.5"/>
<text text-anchor="middle" x="236" y="-13.82" font-family="Times,serif" font-size="14.00">eventId=root</text>
<polyline fill="none" stroke="black" points="291.62,-0.5 291.62,-36.5"/>
<text text-anchor="middle" x="395.25" y="-13.82" font-family="Times,serif" font-size="14.00">previousEventIds=[child2]</text>
</g>
<!-- child1 -->
<g id="node2" class="node">
<title>child1</title>
<path fill="none" stroke="black" d="M117,-219.5C117,-219.5 562.25,-219.5 562.25,-219.5 568.25,-219.5 574.25,-225.5 574.25,-231.5 574.25,-231.5 574.25,-243.5 574.25,-243.5 574.25,-249.5 568.25,-255.5 562.25,-255.5 562.25,-255.5 117,-255.5 117,-255.5 111,-255.5 105,-249.5 105,-243.5 105,-243.5 105,-231.5 105,-231.5 105,-225.5 111,-219.5 117,-219.5"/>
<text text-anchor="middle" x="167.75" y="-232.82" font-family="Times,serif" font-size="14.00">eventId=child1</text>
<polyline fill="none" stroke="black" points="230.5,-219.5 230.5,-255.5"/>
<text text-anchor="middle" x="402.38" y="-232.82" font-family="Times,serif" font-size="14.00">previousEventIds=[grandchild1, grandchild2]</text>
</g>
<!-- grandchild3 -->
<g id="node6" class="node">
<title>grandchild3</title>
<path fill="none" stroke="black" d="M164.25,-146.5C164.25,-146.5 515,-146.5 515,-146.5 521,-146.5 527,-152.5 527,-158.5 527,-158.5 527,-170.5 527,-170.5 527,-176.5 521,-182.5 515,-182.5 515,-182.5 164.25,-182.5 164.25,-182.5 158.25,-182.5 152.25,-176.5 152.25,-170.5 152.25,-170.5 152.25,-158.5 152.25,-158.5 152.25,-152.5 158.25,-146.5 164.25,-146.5"/>
<text text-anchor="middle" x="236" y="-159.82" font-family="Times,serif" font-size="14.00">eventId=grandchild3</text>
<polyline fill="none" stroke="black" points="319.75,-146.5 319.75,-182.5"/>
<text text-anchor="middle" x="423.38" y="-159.82" font-family="Times,serif" font-size="14.00">previousEventIds=[child1]</text>
</g>
<!-- child1&#45;&gt;grandchild3 -->
<g id="edge3" class="edge">
<title>child1&#45;&gt;grandchild3</title>
<path fill="none" stroke="black" d="M339.62,-219.67C339.62,-211.72 339.62,-202.01 339.62,-193.02"/>
<polygon fill="black" stroke="black" points="343.13,-193.21 339.62,-183.21 336.13,-193.21 343.13,-193.21"/>
</g>
<!-- child2 -->
<g id="node3" class="node">
<title>child2</title>
<path fill="none" stroke="black" d="M164.25,-73.5C164.25,-73.5 515,-73.5 515,-73.5 521,-73.5 527,-79.5 527,-85.5 527,-85.5 527,-97.5 527,-97.5 527,-103.5 521,-109.5 515,-109.5 515,-109.5 164.25,-109.5 164.25,-109.5 158.25,-109.5 152.25,-103.5 152.25,-97.5 152.25,-97.5 152.25,-85.5 152.25,-85.5 152.25,-79.5 158.25,-73.5 164.25,-73.5"/>
<text text-anchor="middle" x="215" y="-86.83" font-family="Times,serif" font-size="14.00">eventId=child2</text>
<polyline fill="none" stroke="black" points="277.75,-73.5 277.75,-109.5"/>
<text text-anchor="middle" x="402.38" y="-86.83" font-family="Times,serif" font-size="14.00">previousEventIds=[grandchild3]</text>
</g>
<!-- child2&#45;&gt;root -->
<g id="edge5" class="edge">
<title>child2&#45;&gt;root</title>
<path fill="none" stroke="black" d="M339.62,-73.67C339.62,-65.72 339.62,-56.01 339.62,-47.02"/>
<polygon fill="black" stroke="black" points="343.13,-47.21 339.62,-37.21 336.13,-47.21 343.13,-47.21"/>
</g>
<!-- grandchild1 -->
<g id="node4" class="node">
<title>grandchild1</title>
<path fill="none" stroke="black" d="M12,-292.5C12,-292.5 319.25,-292.5 319.25,-292.5 325.25,-292.5 331.25,-298.5 331.25,-304.5 331.25,-304.5 331.25,-316.5 331.25,-316.5 331.25,-322.5 325.25,-328.5 319.25,-328.5 319.25,-328.5 12,-328.5 12,-328.5 6,-328.5 0,-322.5 0,-316.5 0,-316.5 0,-304.5 0,-304.5 0,-298.5 6,-292.5 12,-292.5"/>
<text text-anchor="middle" x="83.75" y="-305.82" font-family="Times,serif" font-size="14.00">eventId=grandchild1</text>
<polyline fill="none" stroke="black" points="167.5,-292.5 167.5,-328.5"/>
<text text-anchor="middle" x="249.38" y="-305.82" font-family="Times,serif" font-size="14.00">previousEventIds=[]</text>
</g>
<!-- grandchild1&#45;&gt;child1 -->
<g id="edge1" class="edge">
<title>grandchild1&#45;&gt;child1</title>
<path fill="none" stroke="black" d="M206.86,-292.67C231.17,-282.75 262.14,-270.12 288.06,-259.54"/>
<polygon fill="black" stroke="black" points="289.15,-262.47 297.08,-255.45 286.5,-255.99 289.15,-262.47"/>
</g>
<!-- grandchild2 -->
<g id="node5" class="node">
<title>grandchild2</title>
<path fill="none" stroke="black" d="M361,-292.5C361,-292.5 668.25,-292.5 668.25,-292.5 674.25,-292.5 680.25,-298.5 680.25,-304.5 680.25,-304.5 680.25,-316.5 680.25,-316.5 680.25,-322.5 674.25,-328.5 668.25,-328.5 668.25,-328.5 361,-328.5 361,-328.5 355,-328.5 349,-322.5 349,-316.5 349,-316.5 349,-304.5 349,-304.5 349,-298.5 355,-292.5 361,-292.5"/>
<text text-anchor="middle" x="432.75" y="-305.82" font-family="Times,serif" font-size="14.00">eventId=grandchild2</text>
<polyline fill="none" stroke="black" points="516.5,-292.5 516.5,-328.5"/>
<text text-anchor="middle" x="598.38" y="-305.82" font-family="Times,serif" font-size="14.00">previousEventIds=[]</text>
</g>
<!-- grandchild2&#45;&gt;child1 -->
<g id="edge2" class="edge">
<title>grandchild2&#45;&gt;child1</title>
<path fill="none" stroke="black" d="M473.15,-292.67C448.7,-282.75 417.55,-270.12 391.49,-259.54"/>
<polygon fill="black" stroke="black" points="392.99,-255.97 382.41,-255.45 390.36,-262.45 392.99,-255.97"/>
</g>
<!-- grandchild3&#45;&gt;child2 -->
<g id="edge4" class="edge">
<title>grandchild3&#45;&gt;child2</title>
<path fill="none" stroke="black" d="M339.62,-146.67C339.62,-138.72 339.62,-129.01 339.62,-120.02"/>
<polygon fill="black" stroke="black" points="343.13,-120.21 339.62,-110.21 336.13,-120.21 343.13,-120.21"/>
</g>
</g>
</svg>
