<?xml version="1.0" encoding="UTF-8" standalone="no"?>
<!DOCTYPE svg PUBLIC "-//W3C//DTD SVG 1.1//EN"
 "http://www.w3.org/Graphics/SVG/1.1/DTD/svg11.dtd">
<!-- Generated by graphviz version 8.0.5 (20230506.1012)
 -->
<!-- Title: G Pages: 1 -->
<svg width="797pt" height="264pt"
 viewBox="0.00 0.00 796.75 264.00" xmlns="http://www.w3.org/2000/svg" xmlns:xlink="http://www.w3.org/1999/xlink">
<g id="graph0" class="graph" transform="scale(1 1) rotate(0) translate(4 260)">
<title>G</title>
<polygon fill="white" stroke="none" points="-4,4 -4,-260 792.75,-260 792.75,4 -4,4"/>
<!-- root -->
<g id="node1" class="node">
<title>root</title>
<path fill="none" stroke="black" d="M230.88,-0.5C230.88,-0.5 577.88,-0.5 577.88,-0.5 583.88,-0.5 589.88,-6.5 589.88,-12.5 589.88,-12.5 589.88,-24.5 589.88,-24.5 589.88,-30.5 583.88,-36.5 577.88,-36.5 577.88,-36.5 230.88,-36.5 230.88,-36.5 224.87,-36.5 218.88,-30.5 218.88,-24.5 218.88,-24.5 218.88,-12.5 218.88,-12.5 218.88,-6.5 224.88,-0.5 230.88,-0.5"/>
<text text-anchor="middle" x="274.5" y="-13.82" font-family="Times,serif" font-size="14.00">eventId=root</text>
<polyline fill="none" stroke="black" points="330.12,-0.5 330.12,-36.5"/>
<text text-anchor="middle" x="460" y="-13.82" font-family="Times,serif" font-size="14.00">previousEventIds=[child1, child2]</text>
</g>
<!-- child1 -->
<g id="node2" class="node">
<title>child1</title>
<path fill="none" stroke="black" d="M33,-73.5C33,-73.5 383.75,-73.5 383.75,-73.5 389.75,-73.5 395.75,-79.5 395.75,-85.5 395.75,-85.5 395.75,-97.5 395.75,-97.5 395.75,-103.5 389.75,-109.5 383.75,-109.5 383.75,-109.5 33,-109.5 33,-109.5 27,-109.5 21,-103.5 21,-97.5 21,-97.5 21,-85.5 21,-85.5 21,-79.5 27,-73.5 33,-73.5"/>
<text text-anchor="middle" x="83.75" y="-86.83" font-family="Times,serif" font-size="14.00">eventId=child1</text>
<polyline fill="none" stroke="black" points="146.5,-73.5 146.5,-109.5"/>
<text text-anchor="middle" x="271.12" y="-86.83" font-family="Times,serif" font-size="14.00">previousEventIds=[grandchild2]</text>
</g>
<!-- child1&#45;&gt;root -->
<g id="edge5" class="edge">
<title>child1&#45;&gt;root</title>
<path fill="none" stroke="black" d="M254.82,-73.67C282.57,-63.62 318.02,-50.78 347.45,-40.12"/>
<polygon fill="black" stroke="black" points="348.37,-43.15 356.58,-36.45 345.99,-36.57 348.37,-43.15"/>
</g>
<!-- child2 -->
<g id="node3" class="node">
<title>child2</title>
<path fill="none" stroke="black" d="M426,-73.5C426,-73.5 776.75,-73.5 776.75,-73.5 782.75,-73.5 788.75,-79.5 788.75,-85.5 788.75,-85.5 788.75,-97.5 788.75,-97.5 788.75,-103.5 782.75,-109.5 776.75,-109.5 776.75,-109.5 426,-109.5 426,-109.5 420,-109.5 414,-103.5 414,-97.5 414,-97.5 414,-85.5 414,-85.5 414,-79.5 420,-73.5 426,-73.5"/>
<text text-anchor="middle" x="476.75" y="-86.83" font-family="Times,serif" font-size="14.00">eventId=child2</text>
<polyline fill="none" stroke="black" points="539.5,-73.5 539.5,-109.5"/>
<text text-anchor="middle" x="664.12" y="-86.83" font-family="Times,serif" font-size="14.00">previousEventIds=[grandchild3]</text>
</g>
<!-- child2&#45;&gt;root -->
<g id="edge4" class="edge">
<title>child2&#45;&gt;root</title>
<path fill="none" stroke="black" d="M554.44,-73.58C526.54,-63.53 490.97,-50.71 461.46,-40.07"/>
<polygon fill="black" stroke="black" points="462.89,-36.51 452.29,-36.41 460.51,-43.09 462.89,-36.51"/>
</g>
<!-- grandchild1 -->
<g id="node4" class="node">
<title>grandchild1</title>
<path fill="none" stroke="black" d="M54.75,-219.5C54.75,-219.5 362,-219.5 362,-219.5 368,-219.5 374,-225.5 374,-231.5 374,-231.5 374,-243.5 374,-243.5 374,-249.5 368,-255.5 362,-255.5 362,-255.5 54.75,-255.5 54.75,-255.5 48.75,-255.5 42.75,-249.5 42.75,-243.5 42.75,-243.5 42.75,-231.5 42.75,-231.5 42.75,-225.5 48.75,-219.5 54.75,-219.5"/>
<text text-anchor="middle" x="126.5" y="-232.82" font-family="Times,serif" font-size="14.00">eventId=grandchild1</text>
<polyline fill="none" stroke="black" points="210.25,-219.5 210.25,-255.5"/>
<text text-anchor="middle" x="292.12" y="-232.82" font-family="Times,serif" font-size="14.00">previousEventIds=[]</text>
</g>
<!-- grandchild2 -->
<g id="node5" class="node">
<title>grandchild2</title>
<path fill="none" stroke="black" d="M12,-146.5C12,-146.5 404.75,-146.5 404.75,-146.5 410.75,-146.5 416.75,-152.5 416.75,-158.5 416.75,-158.5 416.75,-170.5 416.75,-170.5 416.75,-176.5 410.75,-182.5 404.75,-182.5 404.75,-182.5 12,-182.5 12,-182.5 6,-182.5 0,-176.5 0,-170.5 0,-170.5 0,-158.5 0,-158.5 0,-152.5 6,-146.5 12,-146.5"/>
<text text-anchor="middle" x="83.75" y="-159.82" font-family="Times,serif" font-size="14.00">eventId=grandchild2</text>
<polyline fill="none" stroke="black" points="167.5,-146.5 167.5,-182.5"/>
<text text-anchor="middle" x="292.12" y="-159.82" font-family="Times,serif" font-size="14.00">previousEventIds=[grandchild1]</text>
</g>
<!-- grandchild1&#45;&gt;grandchild2 -->
<g id="edge1" class="edge">
<title>grandchild1&#45;&gt;grandchild2</title>
<path fill="none" stroke="black" d="M208.38,-219.67C208.38,-211.72 208.38,-202.01 208.38,-193.02"/>
<polygon fill="black" stroke="black" points="211.88,-193.21 208.38,-183.21 204.88,-193.21 211.88,-193.21"/>
</g>
<!-- grandchild2&#45;&gt;child1 -->
<g id="edge2" class="edge">
<title>grandchild2&#45;&gt;child1</title>
<path fill="none" stroke="black" d="M208.38,-146.67C208.38,-138.72 208.38,-129.01 208.38,-120.02"/>
<polygon fill="black" stroke="black" points="211.88,-120.21 208.38,-110.21 204.88,-120.21 211.88,-120.21"/>
</g>
<!-- grandchild3 -->
<g id="node6" class="node">
<title>grandchild3</title>
<path fill="none" stroke="black" d="M447.75,-146.5C447.75,-146.5 755,-146.5 755,-146.5 761,-146.5 767,-152.5 767,-158.5 767,-158.5 767,-170.5 767,-170.5 767,-176.5 761,-182.5 755,-182.5 755,-182.5 447.75,-182.5 447.75,-182.5 441.75,-182.5 435.75,-176.5 435.75,-170.5 435.75,-170.5 435.75,-158.5 435.75,-158.5 435.75,-152.5 441.75,-146.5 447.75,-146.5"/>
<text text-anchor="middle" x="519.5" y="-159.82" font-family="Times,serif" font-size="14.00">eventId=grandchild3</text>
<polyline fill="none" stroke="black" points="603.25,-146.5 603.25,-182.5"/>
<text text-anchor="middle" x="685.12" y="-159.82" font-family="Times,serif" font-size="14.00">previousEventIds=[]</text>
</g>
<!-- grandchild3&#45;&gt;child2 -->
<g id="edge3" class="edge">
<title>grandchild3&#45;&gt;child2</title>
<path fill="none" stroke="black" d="M601.38,-146.67C601.38,-138.72 601.38,-129.01 601.38,-120.02"/>
<polygon fill="black" stroke="black" points="604.88,-120.21 601.38,-110.21 597.88,-120.21 604.88,-120.21"/>
</g>
</g>
</svg>
