<?xml version="1.0" encoding="UTF-8" standalone="no"?>
<!DOCTYPE svg PUBLIC "-//W3C//DTD SVG 1.1//EN"
 "http://www.w3.org/Graphics/SVG/1.1/DTD/svg11.dtd">
<!-- Generated by graphviz version 8.0.5 (20230506.1012)
 -->
<!-- Title: G Pages: 1 -->
<svg width="425pt" height="410pt"
 viewBox="0.00 0.00 424.75 410.00" xmlns="http://www.w3.org/2000/svg" xmlns:xlink="http://www.w3.org/1999/xlink">
<g id="graph0" class="graph" transform="scale(1 1) rotate(0) translate(4 406)">
<title>G</title>
<polygon fill="white" stroke="none" points="-4,4 -4,-406 420.75,-406 420.75,4 -4,4"/>
<!-- root -->
<g id="node1" class="node">
<title>root</title>
<path fill="none" stroke="black" d="M61.12,-0.5C61.12,-0.5 355.62,-0.5 355.62,-0.5 361.62,-0.5 367.62,-6.5 367.62,-12.5 367.62,-12.5 367.62,-24.5 367.62,-24.5 367.62,-30.5 361.62,-36.5 355.62,-36.5 355.62,-36.5 61.13,-36.5 61.13,-36.5 55.13,-36.5 49.12,-30.5 49.12,-24.5 49.12,-24.5 49.12,-12.5 49.12,-12.5 49.12,-6.5 55.12,-0.5 61.12,-0.5"/>
<text text-anchor="middle" x="104.75" y="-13.82" font-family="Times,serif" font-size="14.00">eventId=root</text>
<polyline fill="none" stroke="black" points="160.38,-0.5 160.38,-36.5"/>
<text text-anchor="middle" x="264" y="-13.82" font-family="Times,serif" font-size="14.00">previousEventIds=[child2]</text>
</g>
<!-- child1 -->
<g id="node2" class="node">
<title>child1</title>
<path fill="none" stroke="black" d="M33,-219.5C33,-219.5 383.75,-219.5 383.75,-219.5 389.75,-219.5 395.75,-225.5 395.75,-231.5 395.75,-231.5 395.75,-243.5 395.75,-243.5 395.75,-249.5 389.75,-255.5 383.75,-255.5 383.75,-255.5 33,-255.5 33,-255.5 27,-255.5 21,-249.5 21,-243.5 21,-243.5 21,-231.5 21,-231.5 21,-225.5 27,-219.5 33,-219.5"/>
<text text-anchor="middle" x="83.75" y="-232.82" font-family="Times,serif" font-size="14.00">eventId=child1</text>
<polyline fill="none" stroke="black" points="146.5,-219.5 146.5,-255.5"/>
<text text-anchor="middle" x="271.12" y="-232.82" font-family="Times,serif" font-size="14.00">previousEventIds=[grandchild2]</text>
</g>
<!-- grandchild3 -->
<g id="node6" class="node">
<title>grandchild3</title>
<path fill="none" stroke="black" d="M33,-146.5C33,-146.5 383.75,-146.5 383.75,-146.5 389.75,-146.5 395.75,-152.5 395.75,-158.5 395.75,-158.5 395.75,-170.5 395.75,-170.5 395.75,-176.5 389.75,-182.5 383.75,-182.5 383.75,-182.5 33,-182.5 33,-182.5 27,-182.5 21,-176.5 21,-170.5 21,-170.5 21,-158.5 21,-158.5 21,-152.5 27,-146.5 33,-146.5"/>
<text text-anchor="middle" x="104.75" y="-159.82" font-family="Times,serif" font-size="14.00">eventId=grandchild3</text>
<polyline fill="none" stroke="black" points="188.5,-146.5 188.5,-182.5"/>
<text text-anchor="middle" x="292.12" y="-159.82" font-family="Times,serif" font-size="14.00">previousEventIds=[child1]</text>
</g>
<!-- child1&#45;&gt;grandchild3 -->
<g id="edge3" class="edge">
<title>child1&#45;&gt;grandchild3</title>
<path fill="none" stroke="black" d="M208.38,-219.67C208.38,-211.72 208.38,-202.01 208.38,-193.02"/>
<polygon fill="black" stroke="black" points="211.88,-193.21 208.38,-183.21 204.88,-193.21 211.88,-193.21"/>
</g>
<!-- child2 -->
<g id="node3" class="node">
<title>child2</title>
<path fill="none" stroke="black" d="M33,-73.5C33,-73.5 383.75,-73.5 383.75,-73.5 389.75,-73.5 395.75,-79.5 395.75,-85.5 395.75,-85.5 395.75,-97.5 395.75,-97.5 395.75,-103.5 389.75,-109.5 383.75,-109.5 383.75,-109.5 33,-109.5 33,-109.5 27,-109.5 21,-103.5 21,-97.5 21,-97.5 21,-85.5 21,-85.5 21,-79.5 27,-73.5 33,-73.5"/>
<text text-anchor="middle" x="83.75" y="-86.83" font-family="Times,serif" font-size="14.00">eventId=child2</text>
<polyline fill="none" stroke="black" points="146.5,-73.5 146.5,-109.5"/>
<text text-anchor="middle" x="271.12" y="-86.83" font-family="Times,serif" font-size="14.00">previousEventIds=[grandchild3]</text>
</g>
<!-- child2&#45;&gt;root -->
<g id="edge5" class="edge">
<title>child2&#45;&gt;root</title>
<path fill="none" stroke="black" d="M208.38,-73.67C208.38,-65.72 208.38,-56.01 208.38,-47.02"/>
<polygon fill="black" stroke="black" points="211.88,-47.21 208.38,-37.21 204.88,-47.21 211.88,-47.21"/>
</g>
<!-- grandchild1 -->
<g id="node4" class="node">
<title>grandchild1</title>
<path fill="none" stroke="black" d="M54.75,-365.5C54.75,-365.5 362,-365.5 362,-365.5 368,-365.5 374,-371.5 374,-377.5 374,-377.5 374,-389.5 374,-389.5 374,-395.5 368,-401.5 362,-401.5 362,-401.5 54.75,-401.5 54.75,-401.5 48.75,-401.5 42.75,-395.5 42.75,-389.5 42.75,-389.5 42.75,-377.5 42.75,-377.5 42.75,-371.5 48.75,-365.5 54.75,-365.5"/>
<text text-anchor="middle" x="126.5" y="-378.82" font-family="Times,serif" font-size="14.00">eventId=grandchild1</text>
<polyline fill="none" stroke="black" points="210.25,-365.5 210.25,-401.5"/>
<text text-anchor="middle" x="292.12" y="-378.82" font-family="Times,serif" font-size="14.00">previousEventIds=[]</text>
</g>
<!-- grandchild2 -->
<g id="node5" class="node">
<title>grandchild2</title>
<path fill="none" stroke="black" d="M12,-292.5C12,-292.5 404.75,-292.5 404.75,-292.5 410.75,-292.5 416.75,-298.5 416.75,-304.5 416.75,-304.5 416.75,-316.5 416.75,-316.5 416.75,-322.5 410.75,-328.5 404.75,-328.5 404.75,-328.5 12,-328.5 12,-328.5 6,-328.5 0,-322.5 0,-316.5 0,-316.5 0,-304.5 0,-304.5 0,-298.5 6,-292.5 12,-292.5"/>
<text text-anchor="middle" x="83.75" y="-305.82" font-family="Times,serif" font-size="14.00">eventId=grandchild2</text>
<polyline fill="none" stroke="black" points="167.5,-292.5 167.5,-328.5"/>
<text text-anchor="middle" x="292.12" y="-305.82" font-family="Times,serif" font-size="14.00">previousEventIds=[grandchild1]</text>
</g>
<!-- grandchild1&#45;&gt;grandchild2 -->
<g id="edge1" class="edge">
<title>grandchild1&#45;&gt;grandchild2</title>
<path fill="none" stroke="black" d="M208.38,-365.67C208.38,-357.72 208.38,-348.01 208.38,-339.02"/>
<polygon fill="black" stroke="black" points="211.88,-339.21 208.38,-329.21 204.88,-339.21 211.88,-339.21"/>
</g>
<!-- grandchild2&#45;&gt;child1 -->
<g id="edge2" class="edge">
<title>grandchild2&#45;&gt;child1</title>
<path fill="none" stroke="black" d="M208.38,-292.67C208.38,-284.72 208.38,-275.01 208.38,-266.02"/>
<polygon fill="black" stroke="black" points="211.88,-266.21 208.38,-256.21 204.88,-266.21 211.88,-266.21"/>
</g>
<!-- grandchild3&#45;&gt;child2 -->
<g id="edge4" class="edge">
<title>grandchild3&#45;&gt;child2</title>
<path fill="none" stroke="black" d="M208.38,-146.67C208.38,-138.72 208.38,-129.01 208.38,-120.02"/>
<polygon fill="black" stroke="black" points="211.88,-120.21 208.38,-110.21 204.88,-120.21 211.88,-120.21"/>
</g>
</g>
</svg>
