<?xml version="1.0" encoding="us-ascii" standalone="no"?><svg xmlns="http://www.w3.org/2000/svg" xmlns:xlink="http://www.w3.org/1999/xlink" contentStyleType="text/css" height="235px" preserveAspectRatio="none" style="width:169px;height:235px;background:#FFFFFF;" version="1.1" viewBox="0 0 169 235" width="169px" zoomAndPan="magnify"><defs/><g><rect fill="none" height="213.2422" style="stroke:#000000;stroke-width:1.5;" width="147" x="11" y="11"/><path d="M117,11 L117,20.4883 L107,30.4883 L11,30.4883 " fill="none" style="stroke:#000000;stroke-width:1.5;"/><text fill="#000000" font-family="sans-serif" font-size="14" lengthAdjust="spacing" textLength="96" x="14" y="25.5352">kill_no_merge</text><rect fill="none" height="171.7539" style="stroke:#000000;stroke-width:1.5;" width="127" x="21" y="40.4883"/><path d="M127,40.4883 L127,49.9766 L117,59.9766 L21,59.9766 " fill="none" style="stroke:#000000;stroke-width:1.5;"/><text fill="#000000" font-family="sans-serif" font-size="14" lengthAdjust="spacing" textLength="96" x="24" y="55.0234">kill_no_merge</text><rect fill="#008000" height="34.1328" rx="12.5" ry="12.5" style="stroke:#181818;stroke-width:0.5;" width="28" x="70.5" y="69.9766"/><text fill="#000000" font-family="sans-serif" font-size="12" lengthAdjust="spacing" textLength="8" x="80.5" y="91.5781">A</text><rect fill="#555555" height="6" rx="2.5" ry="2.5" style="stroke:#555555;stroke-width:1.0;" width="107" x="31" y="124.1094"/><rect fill="#F1F1F1" height="34.1328" rx="12.5" ry="12.5" style="stroke:#181818;stroke-width:0.5;" width="27" x="43" y="150.1094"/><text fill="#000000" font-family="sans-serif" font-size="12" lengthAdjust="spacing" textLength="7" x="53" y="171.7109">B</text><rect fill="#F1F1F1" height="34.1328" rx="12.5" ry="12.5" style="stroke:#181818;stroke-width:0.5;" width="28" x="98" y="150.1094"/><text fill="#000000" font-family="sans-serif" font-size="12" lengthAdjust="spacing" textLength="8" x="108" y="171.7109">C</text><rect fill="#555555" height="6" rx="2.5" ry="2.5" style="stroke:#555555;stroke-width:1.0;" width="107" x="31" y="194.2422"/><line style="stroke:#181818;stroke-width:1.0;" x1="56.5" x2="56.5" y1="130.1094" y2="150.1094"/><polygon fill="#181818" points="52.5,140.1094,56.5,150.1094,60.5,140.1094,56.5,144.1094" style="stroke:#181818;stroke-width:1.0;"/><line style="stroke:#181818;stroke-width:1.0;" x1="112" x2="112" y1="130.1094" y2="150.1094"/><polygon fill="#181818" points="108,140.1094,112,150.1094,116,140.1094,112,144.1094" style="stroke:#181818;stroke-width:1.0;"/><line style="stroke:#181818;stroke-width:1.0;" x1="84.5" x2="84.5" y1="104.1094" y2="124.1094"/><polygon fill="#181818" points="80.5,114.1094,84.5,124.1094,88.5,114.1094,84.5,118.1094" style="stroke:#181818;stroke-width:1.0;"/><!--SRC=[AqWiAiaioSpFKr3Apip9YS_BZyzDBKfFLLAevb80WlIY_D82T3cm30WefnUbfkPPELh3HTBoYxBX712mSh96uODCGb6ja9YUc9c7giSPZvxKl1I4BI0Es8bSjG00]--></g></svg>