<?xml version="1.0" encoding="us-ascii" standalone="no"?><svg xmlns="http://www.w3.org/2000/svg" xmlns:xlink="http://www.w3.org/1999/xlink" contentStyleType="text/css" height="299px" preserveAspectRatio="none" style="width:194px;height:299px;background:#FFFFFF;" version="1.1" viewBox="0 0 194 299" width="194px" zoomAndPan="magnify"><defs/><g><rect fill="none" height="277.375" style="stroke:#000000;stroke-width:1.5;" width="172" x="11" y="11"/><path d="M128,11 L128,20.4883 L118,30.4883 L11,30.4883 " fill="none" style="stroke:#000000;stroke-width:1.5;"/><text fill="#000000" font-family="sans-serif" font-size="14" lengthAdjust="spacing" textLength="107" x="14" y="25.5352">kill_with_merge</text><rect fill="none" height="235.8867" style="stroke:#000000;stroke-width:1.5;" width="152" x="21" y="40.4883"/><path d="M138,40.4883 L138,49.9766 L128,59.9766 L21,59.9766 " fill="none" style="stroke:#000000;stroke-width:1.5;"/><text fill="#000000" font-family="sans-serif" font-size="14" lengthAdjust="spacing" textLength="107" x="24" y="55.0234">kill_with_merge</text><rect fill="#008000" height="34.1328" rx="12.5" ry="12.5" style="stroke:#181818;stroke-width:0.5;" width="28" x="81" y="69.9766"/><text fill="#000000" font-family="sans-serif" font-size="12" lengthAdjust="spacing" textLength="8" x="91" y="91.5781">A</text><rect fill="#555555" height="6" rx="2.5" ry="2.5" style="stroke:#555555;stroke-width:1.0;" width="132" x="31" y="124.1094"/><rect fill="#F1F1F1" height="34.1328" rx="12.5" ry="12.5" style="stroke:#181818;stroke-width:0.5;" width="27" x="43" y="150.1094"/><text fill="#000000" font-family="sans-serif" font-size="12" lengthAdjust="spacing" textLength="7" x="53" y="171.7109">B</text><rect fill="#F1F1F1" height="34.1328" rx="12.5" ry="12.5" style="stroke:#181818;stroke-width:0.5;" width="28" x="80" y="150.1094"/><text fill="#000000" font-family="sans-serif" font-size="12" lengthAdjust="spacing" textLength="8" x="90" y="171.7109">C</text><rect fill="#F1F1F1" height="34.1328" rx="12.5" ry="12.5" style="stroke:#181818;stroke-width:0.5;" width="29" x="122" y="150.1094"/><text fill="#000000" font-family="sans-serif" font-size="12" lengthAdjust="spacing" textLength="9" x="132" y="171.7109">D</text><rect fill="#555555" height="6" rx="2.5" ry="2.5" style="stroke:#555555;stroke-width:1.0;" width="132" x="31" y="204.2422"/><rect fill="#F1F1F1" height="34.1328" rx="12.5" ry="12.5" style="stroke:#181818;stroke-width:0.5;" width="27" x="81.5" y="230.2422"/><text fill="#000000" font-family="sans-serif" font-size="12" lengthAdjust="spacing" textLength="7" x="91.5" y="251.8438">E</text><line style="stroke:#181818;stroke-width:1.0;" x1="56.5" x2="56.5" y1="130.1094" y2="150.1094"/><polygon fill="#181818" points="52.5,140.1094,56.5,150.1094,60.5,140.1094,56.5,144.1094" style="stroke:#181818;stroke-width:1.0;"/><line style="stroke:#181818;stroke-width:1.0;" x1="94" x2="94" y1="130.1094" y2="150.1094"/><polygon fill="#181818" points="90,140.1094,94,150.1094,98,140.1094,94,144.1094" style="stroke:#181818;stroke-width:1.0;"/><line style="stroke:#181818;stroke-width:1.0;" x1="136.5" x2="136.5" y1="130.1094" y2="150.1094"/><polygon fill="#181818" points="132.5,140.1094,136.5,150.1094,140.5,140.1094,136.5,144.1094" style="stroke:#181818;stroke-width:1.0;"/><line style="stroke:#181818;stroke-width:1.0;" x1="56.5" x2="56.5" y1="184.2422" y2="204.2422"/><polygon fill="#181818" points="52.5,194.2422,56.5,204.2422,60.5,194.2422,56.5,198.2422" style="stroke:#181818;stroke-width:1.0;"/><line style="stroke:#181818;stroke-width:1.0;" x1="136.5" x2="136.5" y1="184.2422" y2="204.2422"/><polygon fill="#181818" points="132.5,194.2422,136.5,204.2422,140.5,194.2422,136.5,198.2422" style="stroke:#181818;stroke-width:1.0;"/><line style="stroke:#181818;stroke-width:1.0;" x1="95" x2="95" y1="104.1094" y2="124.1094"/><polygon fill="#181818" points="91,114.1094,95,124.1094,99,114.1094,95,118.1094" style="stroke:#181818;stroke-width:1.0;"/><line style="stroke:#181818;stroke-width:1.0;" x1="95" x2="95" y1="210.2422" y2="230.2422"/><polygon fill="#181818" points="91,220.2422,95,230.2422,99,220.2422,95,224.2422" style="stroke:#181818;stroke-width:1.0;"/><!--SRC=[AqWiAiaioSpFKr3Apip9YI_FBCc8pqqjIazLKgZcKW22zAByqW9CMR0S22Yd5wMcvbavMiD5qlABik4S4B1oGfLKI4nFpCn3LU9iZS87MKTGZmj2JsfU2ggzLguGIP04s0jSjG00]--></g></svg>