<?xml version="1.0" encoding="us-ascii" standalone="no"?><svg xmlns="http://www.w3.org/2000/svg" xmlns:xlink="http://www.w3.org/1999/xlink" contentStyleType="text/css" height="495px" preserveAspectRatio="none" style="width:224px;height:495px;background:#FFFFFF;" version="1.1" viewBox="0 0 224 495" width="224px" zoomAndPan="magnify"><defs/><g><rect fill="none" height="473.6406" style="stroke:#000000;stroke-width:1.5;" width="202" x="11" y="11"/><path d="M99,11 L99,20.4883 L89,30.4883 L11,30.4883 " fill="none" style="stroke:#000000;stroke-width:1.5;"/><text fill="#000000" font-family="sans-serif" font-size="14" lengthAdjust="spacing" textLength="78" x="14" y="25.5352">kill_in_loop</text><rect fill="none" height="432.1523" style="stroke:#000000;stroke-width:1.5;" width="182" x="21" y="40.4883"/><path d="M109,40.4883 L109,49.9766 L99,59.9766 L21,59.9766 " fill="none" style="stroke:#000000;stroke-width:1.5;"/><text fill="#000000" font-family="sans-serif" font-size="14" lengthAdjust="spacing" textLength="78" x="24" y="55.0234">kill_in_loop</text><rect fill="#008000" height="34.1328" rx="12.5" ry="12.5" style="stroke:#181818;stroke-width:0.5;" width="28" x="90" y="69.9766"/><text fill="#000000" font-family="sans-serif" font-size="12" lengthAdjust="spacing" textLength="8" x="100" y="91.5781">A</text><rect fill="#F1F1F1" height="34.1328" rx="12.5" ry="12.5" style="stroke:#181818;stroke-width:0.5;" width="27" x="90.5" y="168.1094"/><text fill="#000000" font-family="sans-serif" font-size="12" lengthAdjust="spacing" textLength="7" x="100.5" y="189.7109">B</text><rect fill="#555555" height="6" rx="2.5" ry="2.5" style="stroke:#555555;stroke-width:1.0;" width="144" x="31" y="222.2422"/><rect fill="#F1F1F1" height="34.1328" rx="12.5" ry="12.5" style="stroke:#181818;stroke-width:0.5;" width="28" x="43" y="248.2422"/><text fill="#000000" font-family="sans-serif" font-size="12" lengthAdjust="spacing" textLength="8" x="53" y="269.8438">C</text><rect fill="#F1F1F1" height="34.1328" rx="12.5" ry="12.5" style="stroke:#181818;stroke-width:0.5;" width="29" x="90" y="248.2422"/><text fill="#000000" font-family="sans-serif" font-size="12" lengthAdjust="spacing" textLength="9" x="100" y="269.8438">D</text><rect fill="#F1F1F1" height="34.1328" rx="12.5" ry="12.5" style="stroke:#181818;stroke-width:0.5;" width="27" x="136" y="248.2422"/><text fill="#000000" font-family="sans-serif" font-size="12" lengthAdjust="spacing" textLength="7" x="146" y="269.8438">E</text><rect fill="#555555" height="6" rx="2.5" ry="2.5" style="stroke:#555555;stroke-width:1.0;" width="144" x="31" y="302.375"/><rect fill="#F1F1F1" height="34.1328" rx="12.5" ry="12.5" style="stroke:#181818;stroke-width:0.5;" width="26" x="91" y="328.375"/><text fill="#000000" font-family="sans-serif" font-size="12" lengthAdjust="spacing" textLength="6" x="101" y="349.9766">F</text><polygon fill="#F1F1F1" points="104,124.1094,116,136.1094,104,148.1094,92,136.1094,104,124.1094" style="stroke:#181818;stroke-width:0.5;"/><polygon fill="#F1F1F1" points="104,382.5078,104,382.5078,116,394.5078,104,406.5078,104,406.5078,92,394.5078,104,382.5078" style="stroke:#181818;stroke-width:0.5;"/><rect fill="#F1F1F1" height="34.1328" rx="12.5" ry="12.5" style="stroke:#181818;stroke-width:0.5;" width="29" x="89.5" y="426.5078"/><text fill="#000000" font-family="sans-serif" font-size="12" lengthAdjust="spacing" textLength="9" x="99.5" y="448.1094">G</text><line style="stroke:#181818;stroke-width:1.0;" x1="57" x2="57" y1="228.2422" y2="248.2422"/><polygon fill="#181818" points="53,238.2422,57,248.2422,61,238.2422,57,242.2422" style="stroke:#181818;stroke-width:1.0;"/><line style="stroke:#181818;stroke-width:1.0;" x1="104.5" x2="104.5" y1="228.2422" y2="248.2422"/><polygon fill="#181818" points="100.5,238.2422,104.5,248.2422,108.5,238.2422,104.5,242.2422" style="stroke:#181818;stroke-width:1.0;"/><line style="stroke:#181818;stroke-width:1.0;" x1="149.5" x2="149.5" y1="228.2422" y2="248.2422"/><polygon fill="#181818" points="145.5,238.2422,149.5,248.2422,153.5,238.2422,149.5,242.2422" style="stroke:#181818;stroke-width:1.0;"/><line style="stroke:#181818;stroke-width:1.0;" x1="57" x2="57" y1="282.375" y2="302.375"/><polygon fill="#181818" points="53,292.375,57,302.375,61,292.375,57,296.375" style="stroke:#181818;stroke-width:1.0;"/><line style="stroke:#181818;stroke-width:1.0;" x1="104" x2="104" y1="202.2422" y2="222.2422"/><polygon fill="#181818" points="100,212.2422,104,222.2422,108,212.2422,104,216.2422" style="stroke:#181818;stroke-width:1.0;"/><line style="stroke:#181818;stroke-width:1.0;" x1="104" x2="104" y1="308.375" y2="328.375"/><polygon fill="#181818" points="100,318.375,104,328.375,108,318.375,104,322.375" style="stroke:#181818;stroke-width:1.0;"/><line style="stroke:#181818;stroke-width:1.0;" x1="104" x2="104" y1="148.1094" y2="168.1094"/><polygon fill="#181818" points="100,158.1094,104,168.1094,108,158.1094,104,162.1094" style="stroke:#181818;stroke-width:1.0;"/><line style="stroke:#181818;stroke-width:1.0;" x1="116" x2="187" y1="394.5078" y2="394.5078"/><polygon fill="#181818" points="183,275.3086,187,265.3086,191,275.3086,187,271.3086" style="stroke:#181818;stroke-width:1.0;"/><line style="stroke:#181818;stroke-width:1.0;" x1="187" x2="187" y1="136.1094" y2="394.5078"/><line style="stroke:#181818;stroke-width:1.0;" x1="187" x2="116" y1="136.1094" y2="136.1094"/><polygon fill="#181818" points="126,132.1094,116,136.1094,126,140.1094,122,136.1094" style="stroke:#181818;stroke-width:1.0;"/><line style="stroke:#181818;stroke-width:1.0;" x1="104" x2="104" y1="362.5078" y2="382.5078"/><polygon fill="#181818" points="100,372.5078,104,382.5078,108,372.5078,104,376.5078" style="stroke:#181818;stroke-width:1.0;"/><line style="stroke:#181818;stroke-width:1.0;" x1="104" x2="104" y1="104.1094" y2="124.1094"/><polygon fill="#181818" points="100,114.1094,104,124.1094,108,114.1094,104,118.1094" style="stroke:#181818;stroke-width:1.0;"/><line style="stroke:#181818;stroke-width:1.0;" x1="104" x2="104" y1="406.5078" y2="426.5078"/><polygon fill="#181818" points="100,416.5078,104,426.5078,108,416.5078,104,420.5078" style="stroke:#181818;stroke-width:1.0;"/><!--SRC=[ZL192iCm3Bpd5IBzXNtgbZmZ6AAw8aOomgM7qhytTi6G-9AvpGOZHQU94Wb3lr084_4KH68FdmvMU9LNt5d5o3XvHMHpjbLHZEXIfHdcOZVy8RfiX1AwjY5mtX6tqPjjj3plSFz-e8yyjqFDi3yKtayAM4Kp_WEvNHxNVNy0]--></g></svg>