<?xml version="1.0" encoding="us-ascii" standalone="no"?><svg xmlns="http://www.w3.org/2000/svg" xmlns:xlink="http://www.w3.org/1999/xlink" contentStyleType="text/css" height="414px" preserveAspectRatio="none" style="width:273px;height:414px;background:#FFFFFF;" version="1.1" viewBox="0 0 273 414" width="273px" zoomAndPan="magnify"><defs/><g><rect fill="none" height="392.0742" style="stroke:#000000;stroke-width:1.5;" width="251" x="11" y="11"/><path d="M205,11 L205,20.4883 L195,30.4883 L11,30.4883 " fill="none" style="stroke:#000000;stroke-width:1.5;"/><text fill="#000000" font-family="sans-serif" font-size="14" lengthAdjust="spacing" textLength="184" x="14" y="25.5352">kill_with_merge_on_parent</text><rect fill="none" height="350.5859" style="stroke:#000000;stroke-width:1.5;" width="231" x="21" y="40.4883"/><path d="M215,40.4883 L215,49.9766 L205,59.9766 L21,59.9766 " fill="none" style="stroke:#000000;stroke-width:1.5;"/><text fill="#000000" font-family="sans-serif" font-size="14" lengthAdjust="spacing" textLength="184" x="24" y="55.0234">kill_with_merge_on_parent</text><rect fill="#008000" height="34.1328" rx="12.5" ry="12.5" style="stroke:#181818;stroke-width:0.5;" width="28" x="121.5" y="69.9766"/><text fill="#000000" font-family="sans-serif" font-size="12" lengthAdjust="spacing" textLength="8" x="131.5" y="91.5781">A</text><rect fill="#555555" height="6" rx="2.5" ry="2.5" style="stroke:#555555;stroke-width:1.0;" width="211" x="31" y="124.1094"/><rect fill="#F1F1F1" height="34.1328" rx="12.5" ry="12.5" style="stroke:#181818;stroke-width:0.5;" width="27" x="93.5" y="150.1094"/><text fill="#000000" font-family="sans-serif" font-size="12" lengthAdjust="spacing" textLength="7" x="103.5" y="171.7109">E</text><rect fill="#555555" height="6" rx="2.5" ry="2.5" style="stroke:#555555;stroke-width:1.0;" width="148" x="43" y="212.8086"/><rect fill="#F1F1F1" height="34.1328" rx="12.5" ry="12.5" style="stroke:#181818;stroke-width:0.5;" width="27" x="55" y="238.8086"/><text fill="#000000" font-family="sans-serif" font-size="12" lengthAdjust="spacing" textLength="7" x="65" y="260.4102">B</text><rect fill="#F1F1F1" height="34.1328" rx="12.5" ry="12.5" style="stroke:#181818;stroke-width:0.5;" width="28" x="92" y="238.8086"/><text fill="#000000" font-family="sans-serif" font-size="12" lengthAdjust="spacing" textLength="8" x="102" y="260.4102">C</text><rect fill="#F1F1F1" height="34.1328" rx="12.5" ry="12.5" style="stroke:#181818;stroke-width:0.5;" width="29" x="148" y="238.8086"/><text fill="#000000" font-family="sans-serif" font-size="12" lengthAdjust="spacing" textLength="9" x="158" y="260.4102">D</text><rect fill="#555555" height="6" rx="2.5" ry="2.5" style="stroke:#555555;stroke-width:1.0;" width="148" x="43" y="292.9414"/><rect fill="#F1F1F1" height="34.1328" rx="12.5" ry="12.5" style="stroke:#181818;stroke-width:0.5;" width="29" x="201" y="204.2422"/><text fill="#000000" font-family="sans-serif" font-size="12" lengthAdjust="spacing" textLength="9" x="211" y="225.8438">G</text><rect fill="#555555" height="6" rx="2.5" ry="2.5" style="stroke:#555555;stroke-width:1.0;" width="211" x="31" y="318.9414"/><rect fill="#F1F1F1" height="34.1328" rx="12.5" ry="12.5" style="stroke:#181818;stroke-width:0.5;" width="26" x="122.5" y="344.9414"/><text fill="#000000" font-family="sans-serif" font-size="12" lengthAdjust="spacing" textLength="6" x="132.5" y="366.543">F</text><line style="stroke:#181818;stroke-width:1.0;" x1="68.5" x2="68.5" y1="218.8086" y2="238.8086"/><polygon fill="#181818" points="64.5,228.8086,68.5,238.8086,72.5,228.8086,68.5,232.8086" style="stroke:#181818;stroke-width:1.0;"/><line style="stroke:#181818;stroke-width:1.0;" x1="106" x2="106" y1="218.8086" y2="238.8086"/><polygon fill="#181818" points="102,228.8086,106,238.8086,110,228.8086,106,232.8086" style="stroke:#181818;stroke-width:1.0;"/><line style="stroke:#181818;stroke-width:1.0;" x1="162.5" x2="162.5" y1="218.8086" y2="238.8086"/><polygon fill="#181818" points="158.5,228.8086,162.5,238.8086,166.5,228.8086,162.5,232.8086" style="stroke:#181818;stroke-width:1.0;"/><line style="stroke:#181818;stroke-width:1.0;" x1="162.5" x2="162.5" y1="272.9414" y2="292.9414"/><polygon fill="#181818" points="158.5,282.9414,162.5,292.9414,166.5,282.9414,162.5,286.9414" style="stroke:#181818;stroke-width:1.0;"/><line style="stroke:#181818;stroke-width:1.0;" x1="107" x2="107" y1="184.2422" y2="212.8086"/><polygon fill="#181818" points="103,202.8086,107,212.8086,111,202.8086,107,206.8086" style="stroke:#181818;stroke-width:1.0;"/><line style="stroke:#181818;stroke-width:1.0;" x1="107" x2="107" y1="130.1094" y2="150.1094"/><polygon fill="#181818" points="103,140.1094,107,150.1094,111,140.1094,107,144.1094" style="stroke:#181818;stroke-width:1.0;"/><line style="stroke:#181818;stroke-width:1.0;" x1="215.5" x2="215.5" y1="130.1094" y2="204.2422"/><polygon fill="#181818" points="211.5,194.2422,215.5,204.2422,219.5,194.2422,215.5,198.2422" style="stroke:#181818;stroke-width:1.0;"/><line style="stroke:#181818;stroke-width:1.0;" x1="107" x2="107" y1="298.9414" y2="318.9414"/><polygon fill="#181818" points="103,308.9414,107,318.9414,111,308.9414,107,312.9414" style="stroke:#181818;stroke-width:1.0;"/><line style="stroke:#181818;stroke-width:1.0;" x1="215.5" x2="215.5" y1="238.375" y2="318.9414"/><polygon fill="#181818" points="211.5,308.9414,215.5,318.9414,219.5,308.9414,215.5,312.9414" style="stroke:#181818;stroke-width:1.0;"/><line style="stroke:#181818;stroke-width:1.0;" x1="135.5" x2="135.5" y1="104.1094" y2="124.1094"/><polygon fill="#181818" points="131.5,114.1094,135.5,124.1094,139.5,114.1094,135.5,118.1094" style="stroke:#181818;stroke-width:1.0;"/><line style="stroke:#181818;stroke-width:1.0;" x1="135.5" x2="135.5" y1="324.9414" y2="344.9414"/><polygon fill="#181818" points="131.5,334.9414,135.5,344.9414,139.5,334.9414,135.5,338.9414" style="stroke:#181818;stroke-width:1.0;"/><!--SRC=[AqWiAiaioSpFKr3Apip9YI_FBCc8pqqjIa-Dpy-BBqWiIiqhKLAevb80WlIY_D82VEh0ga10ERqeDJNFoj4QBfAMNvGDvu20bQir2Xz30LYHapM66CXw39qAYUc9cNcO-fqfrE-2gZyrBmNLeJZqMhaZz67eiNA3I88am47ALGi0]--></g></svg>