<?xml version="1.0" encoding="us-ascii" standalone="no"?><svg xmlns="http://www.w3.org/2000/svg" xmlns:xlink="http://www.w3.org/1999/xlink" contentStyleType="text/css" height="364px" preserveAspectRatio="none" style="width:249px;height:364px;background:#FFFFFF;" version="1.1" viewBox="0 0 249 364" width="249px" zoomAndPan="magnify"><defs/><g><rect fill="none" height="342.4688" style="stroke:#000000;stroke-width:1.5;" width="227" x="11" y="11"/><path d="M201,11 L201,20.2969 L191,30.2969 L11,30.2969 " fill="none" style="stroke:#000000;stroke-width:1.5;"/><text fill="#000000" font-family="sans-serif" font-size="14" lengthAdjust="spacing" textLength="180" x="14" y="24.9951">branch_with_bunched_OR</text><rect fill="none" height="301.1719" style="stroke:#000000;stroke-width:1.5;" width="207" x="21" y="40.2969"/><path d="M211,40.2969 L211,49.5938 L201,59.5938 L21,59.5938 " fill="none" style="stroke:#000000;stroke-width:1.5;"/><text fill="#000000" font-family="sans-serif" font-size="14" lengthAdjust="spacing" textLength="180" x="24" y="54.292">branch_with_bunched_OR</text><rect fill="#F1F1F1" height="33.9688" rx="12.5" ry="12.5" style="stroke:#181818;stroke-width:0.5;" width="28" x="110.5" y="69.5938"/><text fill="#000000" font-family="sans-serif" font-size="12" lengthAdjust="spacing" textLength="8" x="120.5" y="90.7324">A</text><rect fill="#F1F1F1" height="33.9688" rx="12.5" ry="12.5" style="stroke:#181818;stroke-width:0.5;" width="187" x="31" y="123.5625"/><text fill="#000000" font-family="sans-serif" font-size="12" lengthAdjust="spacing" textLength="167" x="41" y="144.7012">B,BCNT,user=B,name=BC1</text><polygon fill="#F1F1F1" points="124.5,177.5313,124.5,177.5313,136.5,189.5313,124.5,201.5313,124.5,201.5313,112.5,189.5313,124.5,177.5313" style="stroke:#181818;stroke-width:0.5;"/><text fill="#000000" font-family="sans-serif" font-size="11" lengthAdjust="spacing" textLength="23" x="89.5" y="186.937">true</text><text fill="#000000" font-family="sans-serif" font-size="11" lengthAdjust="spacing" textLength="28" x="136.5" y="186.937">false</text><rect fill="#F1F1F1" height="33.9688" rx="12.5" ry="12.5" style="stroke:#181818;stroke-width:0.5;" width="28" x="85.5" y="211.5313"/><text fill="#000000" font-family="sans-serif" font-size="12" lengthAdjust="spacing" textLength="8" x="95.5" y="232.6699">C</text><rect fill="#F1F1F1" height="33.9688" rx="12.5" ry="12.5" style="stroke:#181818;stroke-width:0.5;" width="29" x="135" y="211.5313"/><text fill="#000000" font-family="sans-serif" font-size="12" lengthAdjust="spacing" textLength="9" x="145" y="232.6699">D</text><polygon fill="#F1F1F1" points="124.5,251.5,136.5,263.5,124.5,275.5,112.5,263.5,124.5,251.5" style="stroke:#181818;stroke-width:0.5;"/><rect fill="#F1F1F1" height="33.9688" rx="12.5" ry="12.5" style="stroke:#181818;stroke-width:0.5;" width="28" x="110.5" y="295.5"/><text fill="#000000" font-family="sans-serif" font-size="12" lengthAdjust="spacing" textLength="8" x="120.5" y="316.6387">E</text><line style="stroke:#181818;stroke-width:1.0;" x1="124.5" x2="124.5" y1="103.5625" y2="123.5625"/><polygon fill="#181818" points="120.5,113.5625,124.5,123.5625,128.5,113.5625,124.5,117.5625" style="stroke:#181818;stroke-width:1.0;"/><line style="stroke:#181818;stroke-width:1.0;" x1="112.5" x2="99.5" y1="189.5313" y2="189.5313"/><line style="stroke:#181818;stroke-width:1.0;" x1="99.5" x2="99.5" y1="189.5313" y2="211.5313"/><polygon fill="#181818" points="95.5,201.5313,99.5,211.5313,103.5,201.5313,99.5,205.5313" style="stroke:#181818;stroke-width:1.0;"/><line style="stroke:#181818;stroke-width:1.0;" x1="136.5" x2="149.5" y1="189.5313" y2="189.5313"/><line style="stroke:#181818;stroke-width:1.0;" x1="149.5" x2="149.5" y1="189.5313" y2="211.5313"/><polygon fill="#181818" points="145.5,201.5313,149.5,211.5313,153.5,201.5313,149.5,205.5313" style="stroke:#181818;stroke-width:1.0;"/><line style="stroke:#181818;stroke-width:1.0;" x1="99.5" x2="99.5" y1="245.5" y2="263.5"/><line style="stroke:#181818;stroke-width:1.0;" x1="99.5" x2="112.5" y1="263.5" y2="263.5"/><polygon fill="#181818" points="102.5,259.5,112.5,263.5,102.5,267.5,106.5,263.5" style="stroke:#181818;stroke-width:1.0;"/><line style="stroke:#181818;stroke-width:1.0;" x1="149.5" x2="149.5" y1="245.5" y2="263.5"/><line style="stroke:#181818;stroke-width:1.0;" x1="149.5" x2="136.5" y1="263.5" y2="263.5"/><polygon fill="#181818" points="146.5,259.5,136.5,263.5,146.5,267.5,142.5,263.5" style="stroke:#181818;stroke-width:1.0;"/><line style="stroke:#181818;stroke-width:1.0;" x1="124.5" x2="124.5" y1="157.5313" y2="177.5313"/><polygon fill="#181818" points="120.5,167.5313,124.5,177.5313,128.5,167.5313,124.5,171.5313" style="stroke:#181818;stroke-width:1.0;"/><line style="stroke:#181818;stroke-width:1.0;" x1="124.5" x2="124.5" y1="275.5" y2="295.5"/><polygon fill="#181818" points="120.5,285.5,124.5,295.5,128.5,285.5,124.5,289.5" style="stroke:#181818;stroke-width:1.0;"/><!--SRC=[Kr1GK2X8B2h9BCdCprDGIYfAp4lEY2_FBCc8Joe5CbDJuls3b1IgkHIW8BqelxG0fqAuCX2mShH6vJlfE3dxXUYK5gSMsJhfv2NcfjewEHkYAifCKz3GL2Z9ICrJq2WfAatLH9456-ECgYCrfpXLGICj4KXXKUo2fZWl9JCDrLMk21L0MOW7mIAr0000]--></g></svg>