<?xml version="1.0" encoding="us-ascii" standalone="no"?><svg xmlns="http://www.w3.org/2000/svg" xmlns:xlink="http://www.w3.org/1999/xlink" contentStyleType="text/css" height="340px" preserveAspectRatio="none" style="width:249px;height:340px;background:#FFFFFF;" version="1.1" viewBox="0 0 249 340" width="249px" zoomAndPan="magnify"><defs/><g><rect fill="none" height="318.4688" style="stroke:#000000;stroke-width:1.5;" width="227" x="11" y="11"/><path d="M201,11 L201,20.2969 L191,30.2969 L11,30.2969 " fill="none" style="stroke:#000000;stroke-width:1.5;"/><text fill="#000000" font-family="sans-serif" font-size="14" lengthAdjust="spacing" textLength="180" x="14" y="24.9951">branch_with_bunched_OR</text><rect fill="none" height="277.1719" style="stroke:#000000;stroke-width:1.5;" width="207" x="21" y="40.2969"/><path d="M211,40.2969 L211,49.5938 L201,59.5938 L21,59.5938 " fill="none" style="stroke:#000000;stroke-width:1.5;"/><text fill="#000000" font-family="sans-serif" font-size="14" lengthAdjust="spacing" textLength="180" x="24" y="54.292">branch_with_bunched_OR</text><rect fill="#F1F1F1" height="33.9688" rx="12.5" ry="12.5" style="stroke:#181818;stroke-width:0.5;" width="28" x="110.5" y="69.5938"/><text fill="#000000" font-family="sans-serif" font-size="12" lengthAdjust="spacing" textLength="8" x="120.5" y="90.7324">A</text><rect fill="#F1F1F1" height="33.9688" rx="12.5" ry="12.5" style="stroke:#181818;stroke-width:0.5;" width="187" x="31" y="123.5625"/><text fill="#000000" font-family="sans-serif" font-size="12" lengthAdjust="spacing" textLength="167" x="41" y="144.7012">B,BCNT,user=B,name=BC1</text><line style="stroke:#181818;stroke-width:1.5;" x1="96" x2="152.5" y1="177.5313" y2="177.5313"/><rect fill="#F1F1F1" height="33.9688" rx="12.5" ry="12.5" style="stroke:#181818;stroke-width:0.5;" width="28" x="82" y="197.5313"/><text fill="#000000" font-family="sans-serif" font-size="12" lengthAdjust="spacing" textLength="8" x="92" y="218.6699">C</text><rect fill="#F1F1F1" height="33.9688" rx="12.5" ry="12.5" style="stroke:#181818;stroke-width:0.5;" width="29" x="138" y="197.5313"/><text fill="#000000" font-family="sans-serif" font-size="12" lengthAdjust="spacing" textLength="9" x="148" y="218.6699">D</text><line style="stroke:#181818;stroke-width:1.5;" x1="96" x2="152.5" y1="251.5" y2="251.5"/><rect fill="#F1F1F1" height="33.9688" rx="12.5" ry="12.5" style="stroke:#181818;stroke-width:0.5;" width="28" x="110.5" y="271.5"/><text fill="#000000" font-family="sans-serif" font-size="12" lengthAdjust="spacing" textLength="8" x="120.5" y="292.6387">E</text><line style="stroke:#181818;stroke-width:1.0;" x1="124.5" x2="124.5" y1="103.5625" y2="123.5625"/><polygon fill="#181818" points="120.5,113.5625,124.5,123.5625,128.5,113.5625,124.5,117.5625" style="stroke:#181818;stroke-width:1.0;"/><line style="stroke:#181818;stroke-width:1.0;" x1="96" x2="96" y1="179.0313" y2="197.5313"/><polygon fill="#181818" points="92,187.5313,96,197.5313,100,187.5313,96,191.5313" style="stroke:#181818;stroke-width:1.0;"/><line style="stroke:#181818;stroke-width:1.0;" x1="152.5" x2="152.5" y1="179.0313" y2="197.5313"/><polygon fill="#181818" points="148.5,187.5313,152.5,197.5313,156.5,187.5313,152.5,191.5313" style="stroke:#181818;stroke-width:1.0;"/><line style="stroke:#181818;stroke-width:1.0;" x1="96" x2="96" y1="231.5" y2="251.5"/><polygon fill="#181818" points="92,241.5,96,251.5,100,241.5,96,245.5" style="stroke:#181818;stroke-width:1.0;"/><line style="stroke:#181818;stroke-width:1.0;" x1="152.5" x2="152.5" y1="231.5" y2="251.5"/><polygon fill="#181818" points="148.5,241.5,152.5,251.5,156.5,241.5,152.5,245.5" style="stroke:#181818;stroke-width:1.0;"/><line style="stroke:#181818;stroke-width:1.0;" x1="124.5" x2="124.5" y1="157.5313" y2="177.5313"/><polygon fill="#181818" points="120.5,167.5313,124.5,177.5313,128.5,167.5313,124.5,171.5313" style="stroke:#181818;stroke-width:1.0;"/><line style="stroke:#181818;stroke-width:1.0;" x1="124.5" x2="124.5" y1="253" y2="271.5"/><polygon fill="#181818" points="120.5,261.5,124.5,271.5,128.5,261.5,124.5,265.5" style="stroke:#181818;stroke-width:1.0;"/><!--SRC=[Kr1GK2X8B2h9BCdCprDGIYfAp4lEY2_FBCc8Joe5CbDJuls3b1IgkHIW8BqelxG0fqAuCX2mShH6vJlfE3dxXUYK5gSMsJhfv2NcfjewEHkYAb9NiAgfgN49zVMD1DAeSiK5EPabA29WOvsng598J4_CpCDKwuAgDZKl1OkfLgu8LI0LO3-3HMe1]--></g></svg>