<?xml version="1.0" encoding="us-ascii" standalone="no"?><svg xmlns="http://www.w3.org/2000/svg" xmlns:xlink="http://www.w3.org/1999/xlink" contentStyleType="text/css" height="353px" preserveAspectRatio="none" style="width:251px;height:353px;background:#FFFFFF;" version="1.1" viewBox="0 0 251 353" width="251px" zoomAndPan="magnify"><defs/><g><rect fill="none" height="331.2705" style="stroke:#000000;stroke-width:1.5;" width="229" x="11" y="11"/><path d="M210,11 L210,20.2969 L200,30.2969 L11,30.2969 " fill="none" style="stroke:#000000;stroke-width:1.5;"/><text fill="#000000" font-family="sans-serif" font-size="14" lengthAdjust="spacing" textLength="189" x="14" y="24.9951">branch_with_bunched_AND</text><rect fill="none" height="289.1719" style="stroke:#000000;stroke-width:1.5;" width="209" x="21" y="41.0986"/><path d="M220,41.0986 L220,50.3955 L210,60.3955 L21,60.3955 " fill="none" style="stroke:#000000;stroke-width:1.5;"/><text fill="#000000" font-family="sans-serif" font-size="14" lengthAdjust="spacing" textLength="189" x="24" y="55.0938">branch_with_bunched_AND</text><rect fill="#F1F1F1" height="33.9688" rx="12.5" ry="12.5" style="stroke:#181818;stroke-width:0.5;" width="28" x="111.5" y="70.3955"/><text fill="#000000" font-family="sans-serif" font-size="12" lengthAdjust="spacing" textLength="8" x="121.5" y="91.5342">A</text><rect fill="#F1F1F1" height="33.9688" rx="12.5" ry="12.5" style="stroke:#181818;stroke-width:0.5;" width="187" x="32" y="124.3643"/><text fill="#000000" font-family="sans-serif" font-size="12" lengthAdjust="spacing" textLength="167" x="42" y="145.5029">B,BCNT,user=B,name=BC1</text><rect fill="#555555" height="6" rx="2.5" ry="2.5" style="stroke:#555555;stroke-width:1.0;" width="113" x="69" y="178.333"/><rect fill="#F1F1F1" height="33.9688" rx="12.5" ry="12.5" style="stroke:#181818;stroke-width:0.5;" width="28" x="83" y="204.333"/><text fill="#000000" font-family="sans-serif" font-size="12" lengthAdjust="spacing" textLength="8" x="93" y="225.4717">C</text><rect fill="#F1F1F1" height="33.9688" rx="12.5" ry="12.5" style="stroke:#181818;stroke-width:0.5;" width="29" x="139" y="204.333"/><text fill="#000000" font-family="sans-serif" font-size="12" lengthAdjust="spacing" textLength="9" x="149" y="225.4717">D</text><rect fill="#555555" height="6" rx="2.5" ry="2.5" style="stroke:#555555;stroke-width:1.0;" width="113" x="69" y="258.3018"/><rect fill="#F1F1F1" height="33.9688" rx="12.5" ry="12.5" style="stroke:#181818;stroke-width:0.5;" width="28" x="111.5" y="284.3018"/><text fill="#000000" font-family="sans-serif" font-size="12" lengthAdjust="spacing" textLength="8" x="121.5" y="305.4404">E</text><line style="stroke:#181818;stroke-width:1.0;" x1="125.5" x2="125.5" y1="104.3643" y2="124.3643"/><polygon fill="#181818" points="121.5,114.3643,125.5,124.3643,129.5,114.3643,125.5,118.3643" style="stroke:#181818;stroke-width:1.0;"/><line style="stroke:#181818;stroke-width:1.0;" x1="97" x2="97" y1="184.333" y2="204.333"/><polygon fill="#181818" points="93,194.333,97,204.333,101,194.333,97,198.333" style="stroke:#181818;stroke-width:1.0;"/><line style="stroke:#181818;stroke-width:1.0;" x1="153.5" x2="153.5" y1="184.333" y2="204.333"/><polygon fill="#181818" points="149.5,194.333,153.5,204.333,157.5,194.333,153.5,198.333" style="stroke:#181818;stroke-width:1.0;"/><line style="stroke:#181818;stroke-width:1.0;" x1="97" x2="97" y1="238.3018" y2="258.3018"/><polygon fill="#181818" points="93,248.3018,97,258.3018,101,248.3018,97,252.3018" style="stroke:#181818;stroke-width:1.0;"/><line style="stroke:#181818;stroke-width:1.0;" x1="153.5" x2="153.5" y1="238.3018" y2="258.3018"/><polygon fill="#181818" points="149.5,248.3018,153.5,258.3018,157.5,248.3018,153.5,252.3018" style="stroke:#181818;stroke-width:1.0;"/><line style="stroke:#181818;stroke-width:1.0;" x1="125.5" x2="125.5" y1="158.333" y2="178.333"/><polygon fill="#181818" points="121.5,168.333,125.5,178.333,129.5,168.333,125.5,172.333" style="stroke:#181818;stroke-width:1.0;"/><line style="stroke:#181818;stroke-width:1.0;" x1="125.5" x2="125.5" y1="264.3018" y2="284.3018"/><polygon fill="#181818" points="121.5,274.3018,125.5,284.3018,129.5,274.3018,125.5,278.3018" style="stroke:#181818;stroke-width:1.0;"/><!--SRC=[Kr1GK2X8B2h9BCdCprDGIYfAp4lEY2_FBCc8Joe5CbDJuXtzN9GKghaKe22zAB-q0BTAk3eGi7AqHkKxwJWv-uNeb1Qd5jawwUGbvgRQEZaReYfAoo_AHX40wtJ6LAIGc9wOcOUfr0LLQMfU2gQPLgu8HI05O5-1HMe1]--></g></svg>