<?xml version="1.0" encoding="us-ascii" standalone="no"?><svg xmlns="http://www.w3.org/2000/svg" xmlns:xlink="http://www.w3.org/1999/xlink" contentStyleType="text/css" height="301px" preserveAspectRatio="none" style="width:242px;height:301px;background:#FFFFFF;" version="1.1" viewBox="0 0 242 301" width="242px" zoomAndPan="magnify"><defs/><g><rect fill="none" height="279.5078" style="stroke:#000000;stroke-width:1.5;" width="220" x="11" y="11"/><path d="M170,11 L170,20.4883 L160,30.4883 L11,30.4883 " fill="none" style="stroke:#000000;stroke-width:1.5;"/><text fill="#000000" font-family="sans-serif" font-size="14" lengthAdjust="spacing" textLength="149" x="14" y="25.5352">double_branch_count</text><rect fill="none" height="238.0195" style="stroke:#000000;stroke-width:1.5;" width="200" x="21" y="40.4883"/><path d="M180,40.4883 L180,49.9766 L170,59.9766 L21,59.9766 " fill="none" style="stroke:#000000;stroke-width:1.5;"/><text fill="#000000" font-family="sans-serif" font-size="14" lengthAdjust="spacing" textLength="149" x="24" y="55.0234">double_branch_count</text><rect fill="#F1F1F1" height="34.1328" rx="12.5" ry="12.5" style="stroke:#181818;stroke-width:0.5;" width="28" x="107" y="69.9766"/><text fill="#000000" font-family="sans-serif" font-size="12" lengthAdjust="spacing" textLength="8" x="117" y="91.5781">A</text><rect fill="#F1F1F1" height="34.1328" rx="12.5" ry="12.5" style="stroke:#181818;stroke-width:0.5;" width="178" x="32" y="124.1094"/><text fill="#000000" font-family="sans-serif" font-size="12" lengthAdjust="spacing" textLength="158" x="42" y="145.7109">B,BCNT,user=B,name=BC1</text><rect fill="#F1F1F1" height="34.1328" rx="12.5" ry="12.5" style="stroke:#181818;stroke-width:0.5;" width="180" x="31" y="178.2422"/><text fill="#000000" font-family="sans-serif" font-size="12" lengthAdjust="spacing" textLength="160" x="41" y="199.8438">C,BCNT,user=C,name=BC2</text><rect fill="#F1F1F1" height="34.1328" rx="12.5" ry="12.5" style="stroke:#181818;stroke-width:0.5;" width="29" x="106.5" y="232.375"/><text fill="#000000" font-family="sans-serif" font-size="12" lengthAdjust="spacing" textLength="9" x="116.5" y="253.9766">D</text><line style="stroke:#181818;stroke-width:1.0;" x1="121" x2="121" y1="104.1094" y2="124.1094"/><polygon fill="#181818" points="117,114.1094,121,124.1094,125,114.1094,121,118.1094" style="stroke:#181818;stroke-width:1.0;"/><line style="stroke:#181818;stroke-width:1.0;" x1="121" x2="121" y1="158.2422" y2="178.2422"/><polygon fill="#181818" points="117,168.2422,121,178.2422,125,168.2422,121,172.2422" style="stroke:#181818;stroke-width:1.0;"/><line style="stroke:#181818;stroke-width:1.0;" x1="121" x2="121" y1="212.375" y2="232.375"/><polygon fill="#181818" points="117,222.375,121,232.375,125,222.375,121,226.375" style="stroke:#181818;stroke-width:1.0;"/><!--SRC=[Kr1GK2X8B2h9BCdCprDGIialJSf9ZKygIinBpeXFpY_DAr5IgEPIW8BqelpI0kogu6f0mChH6fNlfEFax1UYKrgSMcJhf9ENc9jgw-HiYAR86KcHCqoH4PeY5mG_DIy5uYAmI2q0]--></g></svg>