<?xml version="1.0" encoding="us-ascii" standalone="no"?><svg xmlns="http://www.w3.org/2000/svg" xmlns:xlink="http://www.w3.org/1999/xlink" contentStyleType="text/css" height="247px" preserveAspectRatio="none" style="width:240px;height:247px;background:#FFFFFF;" version="1.1" viewBox="0 0 240 247" width="240px" zoomAndPan="magnify"><defs/><g><rect fill="none" height="225.375" style="stroke:#000000;stroke-width:1.5;" width="218" x="11" y="11"/><path d="M167,11 L167,20.4883 L157,30.4883 L11,30.4883 " fill="none" style="stroke:#000000;stroke-width:1.5;"/><text fill="#000000" font-family="sans-serif" font-size="14" lengthAdjust="spacing" textLength="146" x="14" y="25.5352">simple_branch_count</text><rect fill="none" height="183.8867" style="stroke:#000000;stroke-width:1.5;" width="198" x="21" y="40.4883"/><path d="M177,40.4883 L177,49.9766 L167,59.9766 L21,59.9766 " fill="none" style="stroke:#000000;stroke-width:1.5;"/><text fill="#000000" font-family="sans-serif" font-size="14" lengthAdjust="spacing" textLength="146" x="24" y="55.0234">simple_branch_count</text><rect fill="#F1F1F1" height="34.1328" rx="12.5" ry="12.5" style="stroke:#181818;stroke-width:0.5;" width="28" x="106" y="69.9766"/><text fill="#000000" font-family="sans-serif" font-size="12" lengthAdjust="spacing" textLength="8" x="116" y="91.5781">A</text><rect fill="#F1F1F1" height="34.1328" rx="12.5" ry="12.5" style="stroke:#181818;stroke-width:0.5;" width="178" x="31" y="124.1094"/><text fill="#000000" font-family="sans-serif" font-size="12" lengthAdjust="spacing" textLength="158" x="41" y="145.7109">B,BCNT,user=B,name=BC1</text><rect fill="#F1F1F1" height="34.1328" rx="12.5" ry="12.5" style="stroke:#181818;stroke-width:0.5;" width="28" x="106" y="178.2422"/><text fill="#000000" font-family="sans-serif" font-size="12" lengthAdjust="spacing" textLength="8" x="116" y="199.8438">C</text><line style="stroke:#181818;stroke-width:1.0;" x1="120" x2="120" y1="104.1094" y2="124.1094"/><polygon fill="#181818" points="116,114.1094,120,124.1094,124,114.1094,120,118.1094" style="stroke:#181818;stroke-width:1.0;"/><line style="stroke:#181818;stroke-width:1.0;" x1="120" x2="120" y1="158.2422" y2="178.2422"/><polygon fill="#181818" points="116,168.2422,120,178.2422,124,168.2422,120,172.2422" style="stroke:#181818;stroke-width:1.0;"/><!--SRC=[Kr1GK2X8B2h9BCdCprDGAixCBSX9ZKygIinBpeXFpY_DAr5IgEPIW8BqelpI0kogu6f0mChH6fNlfEFax1UYKrgSMcJhf9ENc9jgw-HiYAR86S5FpKk1M0OMgGK0]--></g></svg>