<?xml version="1.0" encoding="us-ascii" standalone="no"?><svg xmlns="http://www.w3.org/2000/svg" xmlns:xlink="http://www.w3.org/1999/xlink" contentStyleType="text/css" height="734px" preserveAspectRatio="none" style="width:1006px;height:734px;background:#FFFFFF;" version="1.1" viewBox="0 0 1006 734" width="1006px" zoomAndPan="magnify"><defs/><g><!--class OTelEvent--><g id="elem_OTelEvent"><rect codeLine="2" fill="#F1F1F1" height="194.6719" id="OTelEvent" rx="2.5" ry="2.5" style="stroke:#181818;stroke-width:0.5;" width="285" x="287" y="532.64"/><ellipse cx="389.75" cy="548.64" fill="#F1F1F1" rx="11" ry="11" style="stroke:#181818;stroke-width:1.0;"/><path d="M389.2344,549.2025 Q387.375,548.4994 386.7188,547.7338 Q386.0781,546.9525 386.0781,545.64 Q386.0781,543.9525 387.1563,542.9838 Q388.2344,542.015 390.1094,542.015 Q390.9688,542.015 391.8125,542.2181 Q392.6719,542.4056 393.5156,542.7963 L393.5156,545.1869 Q392.7344,544.6244 391.9063,544.3431 Q391.0938,544.0463 390.2969,544.0463 Q389.4219,544.0463 388.9375,544.4056 Q388.4688,544.765 388.4688,545.4213 Q388.4688,545.9369 388.8125,546.2806 Q389.1563,546.6088 390.25,547.015 L391.3125,547.4213 Q392.7969,547.9681 393.5,548.8744 Q394.2188,549.7806 394.2188,551.1556 Q394.2188,553.0306 393.1094,553.9525 Q392,554.8744 389.75,554.8744 Q388.8281,554.8744 387.9063,554.6556 Q386.9844,554.4369 386.125,554.015 L386.125,551.4838 Q387.0938,552.1713 388.0156,552.515 Q388.9375,552.8588 389.8281,552.8588 Q390.7344,552.8588 391.2344,552.4525 Q391.7344,552.0306 391.7344,551.2963 Q391.7344,550.7338 391.3906,550.3275 Q391.0625,549.9056 390.4375,549.6556 L389.2344,549.2025 Z " fill="#000000"/><text fill="#000000" font-family="sans-serif" font-size="14" lengthAdjust="spacing" textLength="71" x="410.25" y="553.4867">OTelEvent</text><line style="stroke:#181818;stroke-width:0.5;" x1="288" x2="571" y1="564.64" y2="564.64"/><text fill="#000000" font-family="sans-serif" font-size="14" lengthAdjust="spacing" textLength="94" x="293" y="581.6351">job_name: str</text><text fill="#000000" font-family="sans-serif" font-size="14" lengthAdjust="spacing" textLength="67" x="293" y="597.932">job_id: str</text><text fill="#000000" font-family="sans-serif" font-size="14" lengthAdjust="spacing" textLength="103" x="293" y="614.2289">event_type: str</text><text fill="#000000" font-family="sans-serif" font-size="14" lengthAdjust="spacing" textLength="85" x="293" y="630.5257">event_id: str</text><text fill="#000000" font-family="sans-serif" font-size="14" lengthAdjust="spacing" textLength="138" x="293" y="646.8226">start_timestamp: str</text><text fill="#000000" font-family="sans-serif" font-size="14" lengthAdjust="spacing" textLength="134" x="293" y="663.1195">end_timestamp: str</text><text fill="#000000" font-family="sans-serif" font-size="14" lengthAdjust="spacing" textLength="147" x="293" y="679.4164">application_name: str</text><text fill="#000000" font-family="sans-serif" font-size="14" lengthAdjust="spacing" textLength="137" x="293" y="695.7132">parent_event_id: str</text><text fill="#000000" font-family="sans-serif" font-size="14" lengthAdjust="spacing" textLength="273" x="293" y="712.0101">child_event_ids: Optional[list[str], None]</text><line style="stroke:#181818;stroke-width:0.5;" x1="288" x2="571" y1="719.3119" y2="719.3119"/></g><!--class OTELDataSource--><g id="elem_OTELDataSource"><rect codeLine="14" fill="#F1F1F1" height="276.1563" id="OTELDataSource" rx="2.5" ry="2.5" style="stroke:#181818;stroke-width:0.5;" width="201" x="219" y="196.48"/><ellipse cx="257.4" cy="212.48" fill="#A9DCDF" rx="11" ry="11" style="stroke:#181818;stroke-width:1.0;"/><path d="M257.5094,207.8237 L256.3531,212.9019 L258.6813,212.9019 L257.5094,207.8237 Z M256.025,205.5894 L259.0094,205.5894 L262.3688,217.98 L259.9156,217.98 L259.15,214.9175 L255.8687,214.9175 L255.1187,217.98 L252.6812,217.98 L256.025,205.5894 Z " fill="#000000"/><text fill="#000000" font-family="sans-serif" font-size="14" font-style="italic" lengthAdjust="spacing" textLength="117" x="276.6" y="217.3267">OTELDataSource</text><line style="stroke:#181818;stroke-width:0.5;" x1="220" x2="419" y1="228.48" y2="228.48"/><polygon fill="none" points="230,237.1284,234,241.1284,230,245.1284,226,241.1284" style="stroke:#B38D22;stroke-width:1.0;"/><text fill="#000000" font-family="sans-serif" font-size="14" lengthAdjust="spacing" textLength="175" x="239" y="245.4751">yaml_config: dict[str, Any]</text><polygon fill="none" points="230,253.4253,234,257.4253,230,261.4253,226,257.4253" style="stroke:#B38D22;stroke-width:1.0;"/><text fill="#000000" font-family="sans-serif" font-size="14" lengthAdjust="spacing" textLength="148" x="239" y="261.772">valid_file_exts: list[str]</text><polygon fill="none" points="230,269.7222,234,273.7222,230,277.7222,226,273.7222" style="stroke:#B38D22;stroke-width:1.0;"/><text fill="#000000" font-family="sans-serif" font-size="14" lengthAdjust="spacing" textLength="74" x="239" y="278.0689">file_ext: str</text><polygon fill="none" points="230,286.0191,234,290.0191,230,294.0191,226,290.0191" style="stroke:#B38D22;stroke-width:1.0;"/><text fill="#000000" font-family="sans-serif" font-size="14" lengthAdjust="spacing" textLength="79" x="239" y="294.3657">dirpath : str</text><polygon fill="none" points="230,302.3159,234,306.3159,230,310.3159,226,306.3159" style="stroke:#B38D22;stroke-width:1.0;"/><text fill="#000000" font-family="sans-serif" font-size="14" lengthAdjust="spacing" textLength="77" x="239" y="310.6626">filepath: str</text><polygon fill="none" points="230,318.6128,234,322.6128,230,326.6128,226,322.6128" style="stroke:#B38D22;stroke-width:1.0;"/><text fill="#000000" font-family="sans-serif" font-size="14" lengthAdjust="spacing" textLength="101" x="239" y="326.9595">file_list: list[str]</text><line style="stroke:#181818;stroke-width:0.5;" x1="220" x2="419" y1="334.2612" y2="334.2612"/><ellipse cx="230" cy="347.9097" fill="#84BE84" rx="3" ry="3" style="stroke:#038048;stroke-width:1.0;"/><text fill="#000000" font-family="sans-serif" font-size="14" lengthAdjust="spacing" textLength="104" x="239" y="351.2564">__init__(): None</text><ellipse cx="230" cy="364.2066" fill="#84BE84" rx="3" ry="3" style="stroke:#038048;stroke-width:1.0;"/><text fill="#000000" font-family="sans-serif" font-size="14" lengthAdjust="spacing" textLength="94" x="239" y="367.5532">__iter__(): Self</text><ellipse cx="230" cy="380.5034" fill="#84BE84" rx="3" ry="3" style="stroke:#038048;stroke-width:1.0;"/><text fill="#000000" font-family="sans-serif" font-size="14" lengthAdjust="spacing" textLength="148" x="239" y="383.8501">__next__(): OTelEvent</text><ellipse cx="230" cy="396.8003" fill="#84BE84" rx="3" ry="3" style="stroke:#038048;stroke-width:1.0;"/><text fill="#000000" font-family="sans-serif" font-size="14" lengthAdjust="spacing" textLength="154" x="239" y="400.147">get_yaml_config(): Any</text><ellipse cx="230" cy="413.0972" fill="#84BE84" rx="3" ry="3" style="stroke:#038048;stroke-width:1.0;"/><text fill="#000000" font-family="sans-serif" font-size="14" lengthAdjust="spacing" textLength="113" x="239" y="416.4439">set_file_ext(): str</text><ellipse cx="230" cy="429.3941" fill="#84BE84" rx="3" ry="3" style="stroke:#038048;stroke-width:1.0;"/><text fill="#000000" font-family="sans-serif" font-size="14" lengthAdjust="spacing" textLength="164" x="239" y="432.7407">set_dirpath(): str | None</text><ellipse cx="230" cy="445.6909" fill="#84BE84" rx="3" ry="3" style="stroke:#038048;stroke-width:1.0;"/><text fill="#000000" font-family="sans-serif" font-size="14" lengthAdjust="spacing" textLength="166" x="239" y="449.0376">set_filepath(): str | None</text><ellipse cx="230" cy="461.9878" fill="#84BE84" rx="3" ry="3" style="stroke:#038048;stroke-width:1.0;"/><text fill="#000000" font-family="sans-serif" font-size="14" lengthAdjust="spacing" textLength="141" x="239" y="465.3345">get_file_list(): list[str]</text></g><!--class JSONDataSource--><g id="elem_JSONDataSource"><rect codeLine="31" fill="#F1F1F1" height="129.4844" id="JSONDataSource" rx="2.5" ry="2.5" style="stroke:#181818;stroke-width:0.5;" width="383" x="9" y="7"/><ellipse cx="139.25" cy="23" fill="#ADD1B2" rx="11" ry="11" style="stroke:#181818;stroke-width:1.0;"/><path d="M142.2188,28.6406 Q141.6406,28.9375 141,29.0781 Q140.3594,29.2344 139.6563,29.2344 Q137.1563,29.2344 135.8281,27.5938 Q134.5156,25.9375 134.5156,22.8125 Q134.5156,19.6875 135.8281,18.0313 Q137.1563,16.375 139.6563,16.375 Q140.3594,16.375 141,16.5313 Q141.6563,16.6875 142.2188,16.9844 L142.2188,19.7031 Q141.5938,19.125 141,18.8594 Q140.4063,18.5781 139.7813,18.5781 Q138.4375,18.5781 137.75,19.6563 Q137.0625,20.7188 137.0625,22.8125 Q137.0625,24.9063 137.75,25.9844 Q138.4375,27.0469 139.7813,27.0469 Q140.4063,27.0469 141,26.7813 Q141.5938,26.5 142.2188,25.9219 L142.2188,28.6406 Z " fill="#000000"/><text fill="#000000" font-family="sans-serif" font-size="14" lengthAdjust="spacing" textLength="114" x="159.75" y="27.8467">JSONDataSource</text><line style="stroke:#181818;stroke-width:0.5;" x1="10" x2="391" y1="39" y2="39"/><polygon fill="none" points="20,47.6484,24,51.6484,20,55.6484,16,51.6484" style="stroke:#B38D22;stroke-width:1.0;"/><text fill="#000000" font-family="sans-serif" font-size="14" lengthAdjust="spacing" textLength="146" x="29" y="55.9951">current_file_index: int</text><polygon fill="none" points="20,63.9453,24,67.9453,20,71.9453,16,67.9453" style="stroke:#B38D22;stroke-width:1.0;"/><text fill="#000000" font-family="sans-serif" font-size="14" lengthAdjust="spacing" textLength="290" x="29" y="72.292">current_parser: Iterator[OTelEvent] | None</text><line style="stroke:#181818;stroke-width:0.5;" x1="10" x2="391" y1="79.5938" y2="79.5938"/><ellipse cx="20" cy="93.2422" fill="#84BE84" rx="3" ry="3" style="stroke:#038048;stroke-width:1.0;"/><text fill="#000000" font-family="sans-serif" font-size="14" lengthAdjust="spacing" textLength="104" x="29" y="96.5889">__init__(): None</text><ellipse cx="20" cy="109.5391" fill="#84BE84" rx="3" ry="3" style="stroke:#038048;stroke-width:1.0;"/><text fill="#000000" font-family="sans-serif" font-size="14" lengthAdjust="spacing" textLength="356" x="29" y="112.8857">parse_json_stream(filepath: str): Iterator[OTelEvent]</text><ellipse cx="20" cy="125.8359" fill="#84BE84" rx="3" ry="3" style="stroke:#038048;stroke-width:1.0;"/><text fill="#000000" font-family="sans-serif" font-size="14" lengthAdjust="spacing" textLength="357" x="29" y="129.1826">create_otel_object(record: dict[str, Any]): OTelEvent</text></g><!--class SQLDataHolder--><g id="elem_SQLDataHolder"><rect codeLine="39" fill="#F1F1F1" height="113.1875" id="SQLDataHolder" rx="2.5" ry="2.5" style="stroke:#181818;stroke-width:0.5;" width="239" x="737" y="15.15"/><ellipse cx="800.25" cy="31.15" fill="#ADD1B2" rx="11" ry="11" style="stroke:#181818;stroke-width:1.0;"/><path d="M803.2188,36.7906 Q802.6406,37.0875 802,37.2281 Q801.3594,37.3844 800.6563,37.3844 Q798.1563,37.3844 796.8281,35.7437 Q795.5156,34.0875 795.5156,30.9625 Q795.5156,27.8375 796.8281,26.1812 Q798.1563,24.525 800.6563,24.525 Q801.3594,24.525 802,24.6812 Q802.6563,24.8375 803.2188,25.1344 L803.2188,27.8531 Q802.5938,27.275 802,27.0094 Q801.4063,26.7281 800.7813,26.7281 Q799.4375,26.7281 798.75,27.8062 Q798.0625,28.8687 798.0625,30.9625 Q798.0625,33.0562 798.75,34.1344 Q799.4375,35.1969 800.7813,35.1969 Q801.4063,35.1969 802,34.9312 Q802.5938,34.65 803.2188,34.0719 L803.2188,36.7906 Z " fill="#000000"/><text fill="#000000" font-family="sans-serif" font-size="14" lengthAdjust="spacing" textLength="104" x="820.75" y="35.9967">SQLDataHolder</text><line style="stroke:#181818;stroke-width:0.5;" x1="738" x2="975" y1="47.15" y2="47.15"/><polygon fill="none" points="748,55.7984,752,59.7984,748,63.7984,744,59.7984" style="stroke:#B38D22;stroke-width:1.0;"/><text fill="#000000" font-family="sans-serif" font-size="14" lengthAdjust="spacing" textLength="213" x="757" y="64.1451">data_to_save: list&lt;OTelEvent&gt;</text><polygon fill="none" points="748,72.0953,752,76.0953,748,80.0953,744,76.0953" style="stroke:#B38D22;stroke-width:1.0;"/><text fill="#000000" font-family="sans-serif" font-size="14" lengthAdjust="spacing" textLength="100" x="757" y="80.442">batch_size: int</text><polygon fill="none" points="748,88.3922,752,92.3922,748,96.3922,744,92.3922" style="stroke:#B38D22;stroke-width:1.0;"/><text fill="#000000" font-family="sans-serif" font-size="14" lengthAdjust="spacing" textLength="75" x="757" y="96.7389">engine: str</text><line style="stroke:#181818;stroke-width:0.5;" x1="738" x2="975" y1="104.0406" y2="104.0406"/><ellipse cx="748" cy="117.6891" fill="#84BE84" rx="3" ry="3" style="stroke:#038048;stroke-width:1.0;"/><text fill="#000000" font-family="sans-serif" font-size="14" lengthAdjust="spacing" textLength="174" x="757" y="121.0357">create_db_tables(): None</text></g><!--class NodeModel--><g id="elem_NodeModel"><rect codeLine="46" fill="#F1F1F1" height="194.6719" id="NodeModel" rx="2.5" ry="2.5" style="stroke:#181818;stroke-width:0.5;" width="285" x="714" y="237.22"/><ellipse cx="812.75" cy="253.22" fill="#ADD1B2" rx="11" ry="11" style="stroke:#181818;stroke-width:1.0;"/><path d="M815.7188,258.8606 Q815.1406,259.1575 814.5,259.2981 Q813.8594,259.4544 813.1563,259.4544 Q810.6563,259.4544 809.3281,257.8137 Q808.0156,256.1575 808.0156,253.0325 Q808.0156,249.9075 809.3281,248.2512 Q810.6563,246.595 813.1563,246.595 Q813.8594,246.595 814.5,246.7512 Q815.1563,246.9075 815.7188,247.2044 L815.7188,249.9231 Q815.0938,249.345 814.5,249.0794 Q813.9063,248.7981 813.2813,248.7981 Q811.9375,248.7981 811.25,249.8762 Q810.5625,250.9387 810.5625,253.0325 Q810.5625,255.1262 811.25,256.2044 Q811.9375,257.2669 813.2813,257.2669 Q813.9063,257.2669 814.5,257.0012 Q815.0938,256.72 815.7188,256.1419 L815.7188,258.8606 Z " fill="#000000"/><text fill="#000000" font-family="sans-serif" font-size="14" lengthAdjust="spacing" textLength="79" x="833.25" y="258.0667">NodeModel</text><line style="stroke:#181818;stroke-width:0.5;" x1="715" x2="998" y1="269.22" y2="269.22"/><text fill="#000000" font-family="sans-serif" font-size="14" lengthAdjust="spacing" textLength="94" x="720" y="286.2151">job_name: str</text><text fill="#000000" font-family="sans-serif" font-size="14" lengthAdjust="spacing" textLength="67" x="720" y="302.512">job_id: str</text><text fill="#000000" font-family="sans-serif" font-size="14" lengthAdjust="spacing" textLength="103" x="720" y="318.8089">event_type: str</text><text fill="#000000" font-family="sans-serif" font-size="14" lengthAdjust="spacing" textLength="85" x="720" y="335.1057">event_id: str</text><text fill="#000000" font-family="sans-serif" font-size="14" lengthAdjust="spacing" textLength="138" x="720" y="351.4026">start_timestamp: str</text><text fill="#000000" font-family="sans-serif" font-size="14" lengthAdjust="spacing" textLength="134" x="720" y="367.6995">end_timestamp: str</text><text fill="#000000" font-family="sans-serif" font-size="14" lengthAdjust="spacing" textLength="147" x="720" y="383.9964">application_name: str</text><text fill="#000000" font-family="sans-serif" font-size="14" lengthAdjust="spacing" textLength="137" x="720" y="400.2932">parent_event_id: str</text><text fill="#000000" font-family="sans-serif" font-size="14" lengthAdjust="spacing" textLength="273" x="720" y="416.5901">child_event_ids: Optional[list[str], None]</text><line style="stroke:#181818;stroke-width:0.5;" x1="715" x2="998" y1="423.8919" y2="423.8919"/></g><!--class Base--><g id="elem_Base"><rect codeLine="58" fill="#F1F1F1" height="64.2969" id="Base" rx="2.5" ry="2.5" style="stroke:#181818;stroke-width:0.5;" width="276" x="718.5" y="597.83"/><ellipse cx="834.75" cy="613.83" fill="#ADD1B2" rx="11" ry="11" style="stroke:#181818;stroke-width:1.0;"/><path d="M837.7188,619.4706 Q837.1406,619.7675 836.5,619.9081 Q835.8594,620.0644 835.1563,620.0644 Q832.6563,620.0644 831.3281,618.4237 Q830.0156,616.7675 830.0156,613.6425 Q830.0156,610.5175 831.3281,608.8612 Q832.6563,607.205 835.1563,607.205 Q835.8594,607.205 836.5,607.3612 Q837.1563,607.5175 837.7188,607.8144 L837.7188,610.5331 Q837.0938,609.955 836.5,609.6894 Q835.9063,609.4081 835.2813,609.4081 Q833.9375,609.4081 833.25,610.4862 Q832.5625,611.5487 832.5625,613.6425 Q832.5625,615.7362 833.25,616.8144 Q833.9375,617.8769 835.2813,617.8769 Q835.9063,617.8769 836.5,617.6112 Q837.0938,617.33 837.7188,616.7519 L837.7188,619.4706 Z " fill="#000000"/><text fill="#000000" font-family="sans-serif" font-size="14" lengthAdjust="spacing" textLength="35" x="855.25" y="618.6767">Base</text><line style="stroke:#181818;stroke-width:0.5;" x1="719.5" x2="993.5" y1="629.83" y2="629.83"/><text fill="#000000" font-family="monospace" font-size="14" lengthAdjust="spacing" textLength="264" x="724.5" y="646.8251">SQLAlchemy&#160;declarative&#160;base&#160;class</text><line style="stroke:#181818;stroke-width:0.5;" x1="719.5" x2="993.5" y1="654.1269" y2="654.1269"/></g><!--class DataHolder--><g id="elem_DataHolder"><rect codeLine="62" fill="#F1F1F1" height="64.2969" id="DataHolder" rx="2.5" ry="2.5" style="stroke:#181818;stroke-width:0.5;" width="222" x="455.5" y="302.41"/><ellipse cx="523.75" cy="318.41" fill="#A9DCDF" rx="11" ry="11" style="stroke:#181818;stroke-width:1.0;"/><path d="M523.8594,313.7537 L522.7031,318.8319 L525.0313,318.8319 L523.8594,313.7537 Z M522.375,311.5194 L525.3594,311.5194 L528.7188,323.91 L526.2656,323.91 L525.5,320.8475 L522.2188,320.8475 L521.4688,323.91 L519.0313,323.91 L522.375,311.5194 Z " fill="#000000"/><text fill="#000000" font-family="sans-serif" font-size="14" font-style="italic" lengthAdjust="spacing" textLength="77" x="544.25" y="323.2567">DataHolder</text><line style="stroke:#181818;stroke-width:0.5;" x1="456.5" x2="676.5" y1="334.41" y2="334.41"/><line style="stroke:#181818;stroke-width:0.5;" x1="456.5" x2="676.5" y1="342.41" y2="342.41"/><ellipse cx="466.5" cy="356.0584" fill="#84BE84" rx="3" ry="3" style="stroke:#038048;stroke-width:1.0;"/><text fill="#000000" font-family="sans-serif" font-size="14" lengthAdjust="spacing" textLength="196" x="475.5" y="359.4051">save_data(OTelEvent): None</text></g><!--class IngestData--><g id="elem_IngestData"><rect codeLine="66" fill="#F1F1F1" height="96.8906" id="IngestData" rx="2.5" ry="2.5" style="stroke:#181818;stroke-width:0.5;" width="274" x="427.5" y="23.29"/><ellipse cx="522.75" cy="39.29" fill="#ADD1B2" rx="11" ry="11" style="stroke:#181818;stroke-width:1.0;"/><path d="M525.7188,44.9306 Q525.1406,45.2275 524.5,45.3681 Q523.8594,45.5244 523.1563,45.5244 Q520.6563,45.5244 519.3281,43.8837 Q518.0156,42.2275 518.0156,39.1025 Q518.0156,35.9775 519.3281,34.3212 Q520.6563,32.665 523.1563,32.665 Q523.8594,32.665 524.5,32.8212 Q525.1563,32.9775 525.7188,33.2744 L525.7188,35.9931 Q525.0938,35.415 524.5,35.1494 Q523.9063,34.8681 523.2813,34.8681 Q521.9375,34.8681 521.25,35.9462 Q520.5625,37.0087 520.5625,39.1025 Q520.5625,41.1962 521.25,42.2744 Q521.9375,43.3369 523.2813,43.3369 Q523.9063,43.3369 524.5,43.0712 Q525.0938,42.79 525.7188,42.2119 L525.7188,44.9306 Z " fill="#000000"/><text fill="#000000" font-family="sans-serif" font-size="14" lengthAdjust="spacing" textLength="75" x="543.25" y="44.1367">IngestData</text><line style="stroke:#181818;stroke-width:0.5;" x1="428.5" x2="700.5" y1="55.29" y2="55.29"/><polygon fill="none" points="438.5,63.9384,442.5,67.9384,438.5,71.9384,434.5,67.9384" style="stroke:#B38D22;stroke-width:1.0;"/><text fill="#000000" font-family="sans-serif" font-size="14" lengthAdjust="spacing" textLength="248" x="447.5" y="72.2851">otel_data_source : OTELDataSource</text><polygon fill="none" points="438.5,80.2353,442.5,84.2353,438.5,88.2353,434.5,84.2353" style="stroke:#B38D22;stroke-width:1.0;"/><text fill="#000000" font-family="sans-serif" font-size="14" lengthAdjust="spacing" textLength="171" x="447.5" y="88.582">data_holder : DataHolder</text><line style="stroke:#181818;stroke-width:0.5;" x1="428.5" x2="700.5" y1="95.8837" y2="95.8837"/><ellipse cx="438.5" cy="109.5322" fill="#84BE84" rx="3" ry="3" style="stroke:#038048;stroke-width:1.0;"/><text fill="#000000" font-family="sans-serif" font-size="14" lengthAdjust="spacing" textLength="194" x="447.5" y="112.8789">load_to_data_holder(): None</text></g><!--link IngestData to OTELDataSource--><g id="link_IngestData_OTELDataSource"><path codeLine="72" d="M513.92,120.63 C490.53,143.22 462.65,170.8 438.5,196.48 C432.56,202.8 430.564,204.8885 424.524,211.5385 " fill="none" id="IngestData-to-OTELDataSource" style="stroke:#181818;stroke-width:1.0;stroke-dasharray:7.0,7.0;"/><polygon fill="#181818" points="420.49,215.98,429.502,212.0072,423.8517,212.2788,423.5801,206.6285,420.49,215.98" style="stroke:#181818;stroke-width:1.0;"/></g><!--link IngestData to DataHolder--><g id="link_IngestData_DataHolder"><path codeLine="73" d="M564.87,120.58 C565.27,173.37 565.8635,250.8402 566.2135,296.0102 " fill="none" id="IngestData-to-DataHolder" style="stroke:#181818;stroke-width:1.0;stroke-dasharray:7.0,7.0;"/><polygon fill="#181818" points="566.26,302.01,570.1901,292.9793,566.2213,297.0102,562.1904,293.0413,566.26,302.01" style="stroke:#181818;stroke-width:1.0;"/></g><!--link OTELDataSource to OTelEvent--><g id="link_OTELDataSource_OTelEvent"><path codeLine="74" d="M370.96,472.82 C378.51,492.95 384.032,507.7125 391.192,526.7925 " fill="none" id="OTELDataSource-to-OTelEvent" style="stroke:#181818;stroke-width:1.0;stroke-dasharray:7.0,7.0;"/><polygon fill="#181818" points="393.3,532.41,393.8829,522.5784,391.5433,527.7288,386.393,525.3891,393.3,532.41" style="stroke:#181818;stroke-width:1.0;"/></g><!--link JSONDataSource to OTELDataSource--><g id="link_JSONDataSource_OTELDataSource"><path codeLine="75" d="M229.76,136.88 C238.02,154.98 244.8508,169.9407 254.2708,190.6007 " fill="none" id="JSONDataSource-to-OTELDataSource" style="stroke:#181818;stroke-width:1.0;"/><polygon fill="#181818" points="256.76,196.06,256.6658,186.2116,254.6857,191.5106,249.3867,189.5305,256.76,196.06" style="stroke:#181818;stroke-width:1.0;"/></g><!--link SQLDataHolder to DataHolder--><g id="link_SQLDataHolder_DataHolder"><path codeLine="76" d="M779.28,128.66 C752.36,149.14 722.42,173.05 696.5,196.48 C658.91,230.47 623.324,268.8736 597.864,297.5436 " fill="none" id="SQLDataHolder-to-DataHolder" style="stroke:#181818;stroke-width:1.0;"/><polygon fill="#181818" points="593.88,302.03,602.847,297.9565,597.2,298.2914,596.8652,292.6444,593.88,302.03" style="stroke:#181818;stroke-width:1.0;"/></g><!--link SQLDataHolder to NodeModel--><g id="link_SQLDataHolder_NodeModel"><path codeLine="77" d="M856.5,128.69 C856.5,160.2 856.5,194.43 856.5,230.88 " fill="none" id="SQLDataHolder-to-NodeModel" style="stroke:#181818;stroke-width:1.0;stroke-dasharray:7.0,7.0;"/><polygon fill="#181818" points="856.5,236.88,860.5,227.88,856.5,231.88,852.5,227.88,856.5,236.88" style="stroke:#181818;stroke-width:1.0;"/></g><!--link NodeModel to Base--><g id="link_NodeModel_Base"><path codeLine="78" d="M856.5,432.04 C856.5,489.33 856.5,552.24 856.5,591.5 " fill="none" id="NodeModel-to-Base" style="stroke:#181818;stroke-width:1.0;"/><polygon fill="#181818" points="856.5,597.5,860.5,588.5,856.5,592.5,852.5,588.5,856.5,597.5" style="stroke:#181818;stroke-width:1.0;"/></g><!--link DataHolder to OTelEvent--><g id="link_DataHolder_OTelEvent"><path codeLine="79" d="M551.84,366.96 C533.55,406.14 503.9588,469.5136 477.2088,526.7936 " fill="none" id="DataHolder-to-OTelEvent" style="stroke:#181818;stroke-width:1.0;stroke-dasharray:7.0,7.0;"/><polygon fill="#181818" points="474.67,532.23,482.1025,525.768,476.7857,527.6997,474.854,522.3829,474.67,532.23" style="stroke:#181818;stroke-width:1.0;"/></g><!--SRC=[tLJRYben57q_Nn6S5uUvVC2X34pfGAUqIh5l8Y4dsQEHdEIGH1bx-VVkd9WOe_s12eAklVPbPUt4URlZdin_W7hPW_RaLqFmipKTrQo7bZXlCoB5wJy4DlM70MgiP3dFBB9a3_Yh7mgg5jTWDWnASkQbqLN_WTbG_B85tqWbCkvQCXz2EbDB9PrV8crrJsP6mwhvqpIiGu2XOgwOSwZxvUidvjd2x2o7e_YR0-iLvKQ_oNLBXEHZbNloh0-hIDWp9GLzameel7licLl5U8gSfhmHqWxCRqW11LR0AeY6OdN9EqgbbfxIwMqxgice1nlH1QYtX6fi7j7iR0ojmTD2Nc2Wh1Xp64kJXq2QQWmSvp_Yv7SnHChxLtoTwWP9WN2IXev48xuivhDB8_ZEZgwFsL8BU6-9F4h9GTmC1xObhtWIp1kxp99NPsDSFy4ncsuTBXnE1AoVdjboUxLkJEL8zq2D1qLDjmNkfnQuiQ9UcZCRikJ5zt7rFXibm2R50X7g3NLi3_6WFkJKfqZfcESRwkHFA0u3z5hguhgauKH7FUiKkAmwzvyP0T_mg_xtEn_bVcGkxTLaWcV_hFW6-WCHW74qMEw1T84pqYUJAw_5XLrtmIOQF9jcboxE-LMlKNB8JIQF6pCwxUAwjzL3LEp29lPhY-QnjJ9CX4qfMAN7HTV7nwUwVXKjQbSlOinDkrlTqeU7YyBdInq8HUtpO2YTTx0vRMD82cOr5VSqHlCN]--></g></svg>