<?xml version="1.0" encoding="us-ascii" standalone="no"?><svg xmlns="http://www.w3.org/2000/svg" xmlns:xlink="http://www.w3.org/1999/xlink" contentStyleType="text/css" height="1023px" preserveAspectRatio="none" style="width:1659px;height:1023px;background:#FFFFFF;" version="1.1" viewBox="0 0 1659 1023" width="1659px" zoomAndPan="magnify"><defs/><g><!--cluster otel_ingestion--><g id="cluster_otel_ingestion"><path d="M8.5,6 L119.5,6 A3.75,3.75 0 0 1 122,8.5 L129,28.2969 L1649.5,28.2969 A2.5,2.5 0 0 1 1652,30.7969 L1652,1013.7 A2.5,2.5 0 0 1 1649.5,1016.2 L8.5,1016.2 A2.5,2.5 0 0 1 6,1013.7 L6,8.5 A2.5,2.5 0 0 1 8.5,6 " fill="none" style="stroke:#000000;stroke-width:1.5;"/><line style="stroke:#000000;stroke-width:1.5;" x1="6" x2="129" y1="28.2969" y2="28.2969"/><text fill="#000000" font-family="sans-serif" font-size="14" font-weight="bold" lengthAdjust="spacing" textLength="110" x="10" y="20.9951">otel_ingestion</text></g><!--cluster otel_data_model--><g id="cluster_otel_data_model"><path d="M395.5,557.04 L522.5,557.04 A3.75,3.75 0 0 1 525,559.54 L532,579.3369 L1341.5,579.3369 A2.5,2.5 0 0 1 1344,581.8369 L1344,989.7 A2.5,2.5 0 0 1 1341.5,992.2 L395.5,992.2 A2.5,2.5 0 0 1 393,989.7 L393,559.54 A2.5,2.5 0 0 1 395.5,557.04 " fill="none" style="stroke:#000000;stroke-width:1.5;"/><line style="stroke:#000000;stroke-width:1.5;" x1="393" x2="532" y1="579.3369" y2="579.3369"/><text fill="#000000" font-family="sans-serif" font-size="14" font-weight="bold" lengthAdjust="spacing" textLength="126" x="397" y="572.0351">otel_data_model</text></g><!--cluster otel_data_source--><g id="cluster_otel_data_source"><path d="M32.5,57.15 L166.5,57.15 A3.75,3.75 0 0 1 169,59.65 L176,79.4469 L483.5,79.4469 A2.5,2.5 0 0 1 486,81.9469 L486,530.54 A2.5,2.5 0 0 1 483.5,533.04 L32.5,533.04 A2.5,2.5 0 0 1 30,530.54 L30,59.65 A2.5,2.5 0 0 1 32.5,57.15 " fill="none" style="stroke:#000000;stroke-width:1.5;"/><line style="stroke:#000000;stroke-width:1.5;" x1="30" x2="176" y1="79.4469" y2="79.4469"/><text fill="#000000" font-family="sans-serif" font-size="14" font-weight="bold" lengthAdjust="spacing" textLength="133" x="34" y="72.1451">otel_data_source</text></g><!--cluster otel_data_holder--><g id="cluster_otel_data_holder"><path d="M842.5,49 L972.5,49 A3.75,3.75 0 0 1 975,51.5 L982,71.2969 L1625.5,71.2969 A2.5,2.5 0 0 1 1628,73.7969 L1628,530.54 A2.5,2.5 0 0 1 1625.5,533.04 L842.5,533.04 A2.5,2.5 0 0 1 840,530.54 L840,51.5 A2.5,2.5 0 0 1 842.5,49 " fill="none" style="stroke:#000000;stroke-width:1.5;"/><line style="stroke:#000000;stroke-width:1.5;" x1="840" x2="982" y1="71.2969" y2="71.2969"/><text fill="#000000" font-family="sans-serif" font-size="14" font-weight="bold" lengthAdjust="spacing" textLength="129" x="844" y="63.9951">otel_data_holder</text></g><!--cluster ingest_data--><g id="cluster_ingest_data"><path d="M512.5,146.78 L603.5,146.78 A3.75,3.75 0 0 1 606,149.28 L613,169.0769 L813.5,169.0769 A2.5,2.5 0 0 1 816,171.5769 L816,292.17 A2.5,2.5 0 0 1 813.5,294.67 L512.5,294.67 A2.5,2.5 0 0 1 510,292.17 L510,149.28 A2.5,2.5 0 0 1 512.5,146.78 " fill="none" style="stroke:#000000;stroke-width:1.5;"/><line style="stroke:#000000;stroke-width:1.5;" x1="510" x2="613" y1="169.0769" y2="169.0769"/><text fill="#000000" font-family="sans-serif" font-size="14" font-weight="bold" lengthAdjust="spacing" textLength="90" x="514" y="161.7751">ingest_data</text></g><!--class OTelEvent--><g id="elem_OTelEvent"><rect codeLine="2" fill="#F1F1F1" height="194.6719" id="OTelEvent" rx="2.5" ry="2.5" style="stroke:#181818;stroke-width:0.5;" width="285" x="717.5" y="600.19"/><ellipse cx="820.25" cy="616.19" fill="#F1F1F1" rx="11" ry="11" style="stroke:#181818;stroke-width:1.0;"/><path d="M819.7344,616.7525 Q817.875,616.0494 817.2188,615.2838 Q816.5781,614.5025 816.5781,613.19 Q816.5781,611.5025 817.6563,610.5338 Q818.7344,609.565 820.6094,609.565 Q821.4688,609.565 822.3125,609.7681 Q823.1719,609.9556 824.0156,610.3463 L824.0156,612.7369 Q823.2344,612.1744 822.4063,611.8931 Q821.5938,611.5963 820.7969,611.5963 Q819.9219,611.5963 819.4375,611.9556 Q818.9688,612.315 818.9688,612.9713 Q818.9688,613.4869 819.3125,613.8306 Q819.6563,614.1588 820.75,614.565 L821.8125,614.9713 Q823.2969,615.5181 824,616.4244 Q824.7188,617.3306 824.7188,618.7056 Q824.7188,620.5806 823.6094,621.5025 Q822.5,622.4244 820.25,622.4244 Q819.3281,622.4244 818.4063,622.2056 Q817.4844,621.9869 816.625,621.565 L816.625,619.0338 Q817.5938,619.7213 818.5156,620.065 Q819.4375,620.4088 820.3281,620.4088 Q821.2344,620.4088 821.7344,620.0025 Q822.2344,619.5806 822.2344,618.8463 Q822.2344,618.2838 821.8906,617.8775 Q821.5625,617.4556 820.9375,617.2056 L819.7344,616.7525 Z " fill="#000000"/><text fill="#000000" font-family="sans-serif" font-size="14" lengthAdjust="spacing" textLength="71" x="840.75" y="621.0367">OTelEvent</text><line style="stroke:#181818;stroke-width:0.5;" x1="718.5" x2="1001.5" y1="632.19" y2="632.19"/><text fill="#000000" font-family="sans-serif" font-size="14" lengthAdjust="spacing" textLength="94" x="723.5" y="649.1851">job_name: str</text><text fill="#000000" font-family="sans-serif" font-size="14" lengthAdjust="spacing" textLength="67" x="723.5" y="665.482">job_id: str</text><text fill="#000000" font-family="sans-serif" font-size="14" lengthAdjust="spacing" textLength="103" x="723.5" y="681.7789">event_type: str</text><text fill="#000000" font-family="sans-serif" font-size="14" lengthAdjust="spacing" textLength="85" x="723.5" y="698.0757">event_id: str</text><text fill="#000000" font-family="sans-serif" font-size="14" lengthAdjust="spacing" textLength="137" x="723.5" y="714.3726">start_timestamp: int</text><text fill="#000000" font-family="sans-serif" font-size="14" lengthAdjust="spacing" textLength="133" x="723.5" y="730.6695">end_timestamp: int</text><text fill="#000000" font-family="sans-serif" font-size="14" lengthAdjust="spacing" textLength="147" x="723.5" y="746.9664">application_name: str</text><text fill="#000000" font-family="sans-serif" font-size="14" lengthAdjust="spacing" textLength="204" x="723.5" y="763.2632">parent_event_id: Optional[str]</text><text fill="#000000" font-family="sans-serif" font-size="14" lengthAdjust="spacing" textLength="273" x="723.5" y="779.5601">child_event_ids: Optional[list[str], None]</text><line style="stroke:#181818;stroke-width:0.5;" x1="718.5" x2="1001.5" y1="786.8619" y2="786.8619"/></g><!--class NodeModel--><g id="elem_NodeModel"><rect codeLine="54" fill="#F1F1F1" height="210.9688" id="NodeModel" rx="2.5" ry="2.5" style="stroke:#181818;stroke-width:0.5;" width="285" x="1043.5" y="592.04"/><ellipse cx="1142.25" cy="608.04" fill="#ADD1B2" rx="11" ry="11" style="stroke:#181818;stroke-width:1.0;"/><path d="M1145.2188,613.6806 Q1144.6406,613.9775 1144,614.1181 Q1143.3594,614.2744 1142.6563,614.2744 Q1140.1563,614.2744 1138.8281,612.6338 Q1137.5156,610.9775 1137.5156,607.8525 Q1137.5156,604.7275 1138.8281,603.0713 Q1140.1563,601.415 1142.6563,601.415 Q1143.3594,601.415 1144,601.5713 Q1144.6563,601.7275 1145.2188,602.0244 L1145.2188,604.7431 Q1144.5938,604.165 1144,603.8994 Q1143.4063,603.6181 1142.7813,603.6181 Q1141.4375,603.6181 1140.75,604.6963 Q1140.0625,605.7588 1140.0625,607.8525 Q1140.0625,609.9463 1140.75,611.0244 Q1141.4375,612.0869 1142.7813,612.0869 Q1143.4063,612.0869 1144,611.8213 Q1144.5938,611.54 1145.2188,610.9619 L1145.2188,613.6806 Z " fill="#000000"/><text fill="#000000" font-family="sans-serif" font-size="14" lengthAdjust="spacing" textLength="79" x="1162.75" y="612.8867">NodeModel</text><line style="stroke:#181818;stroke-width:0.5;" x1="1044.5" x2="1327.5" y1="624.04" y2="624.04"/><text fill="#000000" font-family="sans-serif" font-size="14" lengthAdjust="spacing" textLength="38" x="1049.5" y="641.0351">id: int</text><text fill="#000000" font-family="sans-serif" font-size="14" lengthAdjust="spacing" textLength="94" x="1049.5" y="657.332">job_name: str</text><text fill="#000000" font-family="sans-serif" font-size="14" lengthAdjust="spacing" textLength="67" x="1049.5" y="673.6289">job_id: str</text><text fill="#000000" font-family="sans-serif" font-size="14" lengthAdjust="spacing" textLength="103" x="1049.5" y="689.9257">event_type: str</text><text fill="#000000" font-family="sans-serif" font-size="14" lengthAdjust="spacing" textLength="85" x="1049.5" y="706.2226">event_id: str</text><text fill="#000000" font-family="sans-serif" font-size="14" lengthAdjust="spacing" textLength="181" x="1049.5" y="722.5195">start_timestamp: datetime</text><text fill="#000000" font-family="sans-serif" font-size="14" lengthAdjust="spacing" textLength="177" x="1049.5" y="738.8164">end_timestamp: datetime</text><text fill="#000000" font-family="sans-serif" font-size="14" lengthAdjust="spacing" textLength="147" x="1049.5" y="755.1132">application_name: str</text><text fill="#000000" font-family="sans-serif" font-size="14" lengthAdjust="spacing" textLength="204" x="1049.5" y="771.4101">parent_event_id: Optional[str]</text><text fill="#000000" font-family="sans-serif" font-size="14" lengthAdjust="spacing" textLength="273" x="1049.5" y="787.707">child_event_ids: Optional[list[str], None]</text><line style="stroke:#181818;stroke-width:0.5;" x1="1044.5" x2="1327.5" y1="795.0088" y2="795.0088"/></g><!--class Base--><g id="elem_Base"><rect codeLine="67" fill="#F1F1F1" height="64.2969" id="Base" rx="2.5" ry="2.5" style="stroke:#181818;stroke-width:0.5;" width="276" x="1052" y="887.46"/><ellipse cx="1168.25" cy="903.46" fill="#ADD1B2" rx="11" ry="11" style="stroke:#181818;stroke-width:1.0;"/><path d="M1171.2188,909.1006 Q1170.6406,909.3975 1170,909.5381 Q1169.3594,909.6944 1168.6563,909.6944 Q1166.1563,909.6944 1164.8281,908.0538 Q1163.5156,906.3975 1163.5156,903.2725 Q1163.5156,900.1475 1164.8281,898.4913 Q1166.1563,896.835 1168.6563,896.835 Q1169.3594,896.835 1170,896.9913 Q1170.6563,897.1475 1171.2188,897.4444 L1171.2188,900.1631 Q1170.5938,899.585 1170,899.3194 Q1169.4063,899.0381 1168.7813,899.0381 Q1167.4375,899.0381 1166.75,900.1163 Q1166.0625,901.1788 1166.0625,903.2725 Q1166.0625,905.3663 1166.75,906.4444 Q1167.4375,907.5069 1168.7813,907.5069 Q1169.4063,907.5069 1170,907.2413 Q1170.5938,906.96 1171.2188,906.3819 L1171.2188,909.1006 Z " fill="#000000"/><text fill="#000000" font-family="sans-serif" font-size="14" lengthAdjust="spacing" textLength="35" x="1188.75" y="908.3067">Base</text><line style="stroke:#181818;stroke-width:0.5;" x1="1053" x2="1327" y1="919.46" y2="919.46"/><text fill="#000000" font-family="monospace" font-size="14" lengthAdjust="spacing" textLength="264" x="1058" y="936.4551">SQLAlchemy&#160;declarative&#160;base&#160;class</text><line style="stroke:#181818;stroke-width:0.5;" x1="1053" x2="1327" y1="943.7569" y2="943.7569"/></g><!--class JSONDataSourceConfig--><g id="elem_JSONDataSourceConfig"><rect codeLine="82" fill="#F1F1F1" height="145.7813" id="JSONDataSourceConfig" rx="2.5" ry="2.5" style="stroke:#181818;stroke-width:0.5;" width="253" x="416.5" y="624.64"/><ellipse cx="459.85" cy="640.64" fill="#ADD1B2" rx="11" ry="11" style="stroke:#181818;stroke-width:1.0;"/><path d="M462.8188,646.2806 Q462.2406,646.5775 461.6,646.7181 Q460.9594,646.8744 460.2563,646.8744 Q457.7563,646.8744 456.4281,645.2338 Q455.1156,643.5775 455.1156,640.4525 Q455.1156,637.3275 456.4281,635.6713 Q457.7563,634.015 460.2563,634.015 Q460.9594,634.015 461.6,634.1713 Q462.2563,634.3275 462.8188,634.6244 L462.8188,637.3431 Q462.1938,636.765 461.6,636.4994 Q461.0063,636.2181 460.3813,636.2181 Q459.0375,636.2181 458.35,637.2963 Q457.6625,638.3588 457.6625,640.4525 Q457.6625,642.5463 458.35,643.6244 Q459.0375,644.6869 460.3813,644.6869 Q461.0063,644.6869 461.6,644.4213 Q462.1938,644.14 462.8188,643.5619 L462.8188,646.2806 Z " fill="#000000"/><text fill="#000000" font-family="sans-serif" font-size="14" lengthAdjust="spacing" textLength="158" x="480.15" y="645.4867">JSONDataSourceConfig</text><line style="stroke:#181818;stroke-width:0.5;" x1="417.5" x2="668.5" y1="656.64" y2="656.64"/><text fill="#000000" font-family="sans-serif" font-size="14" lengthAdjust="spacing" textLength="77" x="422.5" y="673.6351">filepath: str</text><text fill="#000000" font-family="sans-serif" font-size="14" lengthAdjust="spacing" textLength="75" x="422.5" y="689.932">dirpath: str</text><text fill="#000000" font-family="sans-serif" font-size="14" lengthAdjust="spacing" textLength="118" x="422.5" y="706.2289">data_location: str</text><text fill="#000000" font-family="sans-serif" font-size="14" lengthAdjust="spacing" textLength="204" x="422.5" y="722.5257">header: dict[str, HeaderSpec]</text><text fill="#000000" font-family="sans-serif" font-size="14" lengthAdjust="spacing" textLength="241" x="422.5" y="738.8226">span_mapping: dict[str, SpanSpec]</text><text fill="#000000" font-family="sans-serif" font-size="14" lengthAdjust="spacing" textLength="232" x="422.5" y="755.1195">field_mapping: dict[str, FieldSpec]</text><line style="stroke:#181818;stroke-width:0.5;" x1="417.5" x2="668.5" y1="762.4213" y2="762.4213"/></g><!--class HeaderSpec--><g id="elem_HeaderSpec"><rect codeLine="91" fill="#F1F1F1" height="64.2969" id="HeaderSpec" rx="2.5" ry="2.5" style="stroke:#181818;stroke-width:0.5;" width="117" x="900.5" y="887.46"/><ellipse cx="915.5" cy="903.46" fill="#ADD1B2" rx="11" ry="11" style="stroke:#181818;stroke-width:1.0;"/><path d="M918.4688,909.1006 Q917.8906,909.3975 917.25,909.5381 Q916.6094,909.6944 915.9063,909.6944 Q913.4063,909.6944 912.0781,908.0538 Q910.7656,906.3975 910.7656,903.2725 Q910.7656,900.1475 912.0781,898.4913 Q913.4063,896.835 915.9063,896.835 Q916.6094,896.835 917.25,896.9913 Q917.9063,897.1475 918.4688,897.4444 L918.4688,900.1631 Q917.8438,899.585 917.25,899.3194 Q916.6563,899.0381 916.0313,899.0381 Q914.6875,899.0381 914,900.1163 Q913.3125,901.1788 913.3125,903.2725 Q913.3125,905.3663 914,906.4444 Q914.6875,907.5069 916.0313,907.5069 Q916.6563,907.5069 917.25,907.2413 Q917.8438,906.96 918.4688,906.3819 L918.4688,909.1006 Z " fill="#000000"/><text fill="#000000" font-family="sans-serif" font-size="14" lengthAdjust="spacing" textLength="85" x="929.5" y="908.3067">HeaderSpec</text><line style="stroke:#181818;stroke-width:0.5;" x1="901.5" x2="1016.5" y1="919.46" y2="919.46"/><text fill="#000000" font-family="sans-serif" font-size="14" lengthAdjust="spacing" textLength="95" x="906.5" y="936.4551">paths: list[str]</text><line style="stroke:#181818;stroke-width:0.5;" x1="901.5" x2="1016.5" y1="943.7569" y2="943.7569"/></g><!--class SpanSpec--><g id="elem_SpanSpec"><rect codeLine="95" fill="#F1F1F1" height="64.2969" id="SpanSpec" rx="2.5" ry="2.5" style="stroke:#181818;stroke-width:0.5;" width="138" x="409" y="887.46"/><ellipse cx="440.2" cy="903.46" fill="#ADD1B2" rx="11" ry="11" style="stroke:#181818;stroke-width:1.0;"/><path d="M443.1688,909.1006 Q442.5906,909.3975 441.95,909.5381 Q441.3094,909.6944 440.6063,909.6944 Q438.1063,909.6944 436.7781,908.0538 Q435.4656,906.3975 435.4656,903.2725 Q435.4656,900.1475 436.7781,898.4913 Q438.1063,896.835 440.6063,896.835 Q441.3094,896.835 441.95,896.9913 Q442.6063,897.1475 443.1688,897.4444 L443.1688,900.1631 Q442.5438,899.585 441.95,899.3194 Q441.3563,899.0381 440.7313,899.0381 Q439.3875,899.0381 438.7,900.1163 Q438.0125,901.1788 438.0125,903.2725 Q438.0125,905.3663 438.7,906.4444 Q439.3875,907.5069 440.7313,907.5069 Q441.3563,907.5069 441.95,907.2413 Q442.5438,906.96 443.1688,906.3819 L443.1688,909.1006 Z " fill="#000000"/><text fill="#000000" font-family="sans-serif" font-size="14" lengthAdjust="spacing" textLength="70" x="457.8" y="908.3067">SpanSpec</text><line style="stroke:#181818;stroke-width:0.5;" x1="410" x2="546" y1="919.46" y2="919.46"/><text fill="#000000" font-family="sans-serif" font-size="14" lengthAdjust="spacing" textLength="126" x="415" y="936.4551">key_paths: list[str]</text><line style="stroke:#181818;stroke-width:0.5;" x1="410" x2="546" y1="943.7569" y2="943.7569"/></g><!--class FieldSpec--><g id="elem_FieldSpec"><rect codeLine="99" fill="#F1F1F1" height="113.1875" id="FieldSpec" rx="2.5" ry="2.5" style="stroke:#181818;stroke-width:0.5;" width="284" x="582" y="863.01"/><ellipse cx="686.25" cy="879.01" fill="#ADD1B2" rx="11" ry="11" style="stroke:#181818;stroke-width:1.0;"/><path d="M689.2188,884.6506 Q688.6406,884.9475 688,885.0881 Q687.3594,885.2444 686.6563,885.2444 Q684.1563,885.2444 682.8281,883.6038 Q681.5156,881.9475 681.5156,878.8225 Q681.5156,875.6975 682.8281,874.0413 Q684.1563,872.385 686.6563,872.385 Q687.3594,872.385 688,872.5413 Q688.6563,872.6975 689.2188,872.9944 L689.2188,875.7131 Q688.5938,875.135 688,874.8694 Q687.4063,874.5881 686.7813,874.5881 Q685.4375,874.5881 684.75,875.6663 Q684.0625,876.7288 684.0625,878.8225 Q684.0625,880.9163 684.75,881.9944 Q685.4375,883.0569 686.7813,883.0569 Q687.4063,883.0569 688,882.7913 Q688.5938,882.51 689.2188,881.9319 L689.2188,884.6506 Z " fill="#000000"/><text fill="#000000" font-family="sans-serif" font-size="14" lengthAdjust="spacing" textLength="67" x="706.75" y="883.8567">FieldSpec</text><line style="stroke:#181818;stroke-width:0.5;" x1="583" x2="865" y1="895.01" y2="895.01"/><text fill="#000000" font-family="sans-serif" font-size="14" lengthAdjust="spacing" textLength="126" x="588" y="912.0051">key_paths: list[str]</text><text fill="#000000" font-family="sans-serif" font-size="14" lengthAdjust="spacing" textLength="257" x="588" y="928.302">key_value: Optional[list[Optional[str]]]</text><text fill="#000000" font-family="sans-serif" font-size="14" lengthAdjust="spacing" textLength="272" x="588" y="944.5989">value_paths: Optional[list[Optional[str]]]</text><text fill="#000000" font-family="sans-serif" font-size="14" lengthAdjust="spacing" textLength="175" x="588" y="960.8957">value_type: Union[str, int]</text><line style="stroke:#181818;stroke-width:0.5;" x1="583" x2="865" y1="968.1975" y2="968.1975"/></g><!--class OTELDataSource--><g id="elem_OTELDataSource"><rect codeLine="14" fill="#F1F1F1" height="80.5938" id="OTELDataSource" rx="2.5" ry="2.5" style="stroke:#181818;stroke-width:0.5;" width="174" x="296" y="436.45"/><ellipse cx="322.25" cy="452.45" fill="#A9DCDF" rx="11" ry="11" style="stroke:#181818;stroke-width:1.0;"/><path d="M322.3594,447.7938 L321.2031,452.8719 L323.5313,452.8719 L322.3594,447.7938 Z M320.875,445.5594 L323.8594,445.5594 L327.2188,457.95 L324.7656,457.95 L324,454.8875 L320.7188,454.8875 L319.9688,457.95 L317.5313,457.95 L320.875,445.5594 Z " fill="#000000"/><text fill="#000000" font-family="sans-serif" font-size="14" font-style="italic" lengthAdjust="spacing" textLength="117" x="338.75" y="457.2967">OTELDataSource</text><line style="stroke:#181818;stroke-width:0.5;" x1="297" x2="469" y1="468.45" y2="468.45"/><line style="stroke:#181818;stroke-width:0.5;" x1="297" x2="469" y1="476.45" y2="476.45"/><ellipse cx="307" cy="490.0984" fill="#84BE84" rx="3" ry="3" style="stroke:#038048;stroke-width:1.0;"/><text fill="#000000" font-family="sans-serif" font-size="14" lengthAdjust="spacing" textLength="94" x="316" y="493.4451">__iter__(): Self</text><ellipse cx="307" cy="506.3953" fill="#84BE84" rx="3" ry="3" style="stroke:#038048;stroke-width:1.0;"/><text fill="#000000" font-family="sans-serif" font-size="14" lengthAdjust="spacing" textLength="148" x="316" y="509.742">__next__(): OTelEvent</text></g><!--class JSONDataSource--><g id="elem_JSONDataSource"><rect codeLine="19" fill="#F1F1F1" height="276.1563" id="JSONDataSource" rx="2.5" ry="2.5" style="stroke:#181818;stroke-width:0.5;" width="423" x="46.5" y="92.15"/><ellipse cx="196.75" cy="108.15" fill="#ADD1B2" rx="11" ry="11" style="stroke:#181818;stroke-width:1.0;"/><path d="M199.7188,113.7906 Q199.1406,114.0875 198.5,114.2281 Q197.8594,114.3844 197.1563,114.3844 Q194.6563,114.3844 193.3281,112.7438 Q192.0156,111.0875 192.0156,107.9625 Q192.0156,104.8375 193.3281,103.1813 Q194.6563,101.525 197.1563,101.525 Q197.8594,101.525 198.5,101.6813 Q199.1563,101.8375 199.7188,102.1344 L199.7188,104.8531 Q199.0938,104.275 198.5,104.0094 Q197.9063,103.7281 197.2813,103.7281 Q195.9375,103.7281 195.25,104.8063 Q194.5625,105.8688 194.5625,107.9625 Q194.5625,110.0563 195.25,111.1344 Q195.9375,112.1969 197.2813,112.1969 Q197.9063,112.1969 198.5,111.9313 Q199.0938,111.65 199.7188,111.0719 L199.7188,113.7906 Z " fill="#000000"/><text fill="#000000" font-family="sans-serif" font-size="14" lengthAdjust="spacing" textLength="114" x="217.25" y="112.9967">JSONDataSource</text><line style="stroke:#181818;stroke-width:0.5;" x1="47.5" x2="468.5" y1="124.15" y2="124.15"/><polygon fill="none" points="57.5,132.7984,61.5,136.7984,57.5,140.7984,53.5,136.7984" style="stroke:#B38D22;stroke-width:1.0;"/><text fill="#000000" font-family="sans-serif" font-size="14" lengthAdjust="spacing" textLength="209" x="66.5" y="141.1451">config: JSONDataSourceConfig</text><polygon fill="none" points="57.5,149.0953,61.5,153.0953,57.5,157.0953,53.5,153.0953" style="stroke:#B38D22;stroke-width:1.0;"/><text fill="#000000" font-family="sans-serif" font-size="14" lengthAdjust="spacing" textLength="146" x="66.5" y="157.442">current_file_index: int</text><polygon fill="none" points="57.5,165.3922,61.5,169.3922,57.5,173.3922,53.5,169.3922" style="stroke:#B38D22;stroke-width:1.0;"/><text fill="#000000" font-family="sans-serif" font-size="14" lengthAdjust="spacing" textLength="290" x="66.5" y="173.7389">current_parser: Iterator[OTelEvent] | None</text><polygon fill="none" points="57.5,181.6891,61.5,185.6891,57.5,189.6891,53.5,185.6891" style="stroke:#B38D22;stroke-width:1.0;"/><text fill="#000000" font-family="sans-serif" font-size="14" lengthAdjust="spacing" textLength="79" x="66.5" y="190.0357">dirpath : str</text><polygon fill="none" points="57.5,197.9859,61.5,201.9859,57.5,205.9859,53.5,201.9859" style="stroke:#B38D22;stroke-width:1.0;"/><text fill="#000000" font-family="sans-serif" font-size="14" lengthAdjust="spacing" textLength="77" x="66.5" y="206.3326">filepath: str</text><polygon fill="none" points="57.5,214.2828,61.5,218.2828,57.5,222.2828,53.5,218.2828" style="stroke:#B38D22;stroke-width:1.0;"/><text fill="#000000" font-family="sans-serif" font-size="14" lengthAdjust="spacing" textLength="101" x="66.5" y="222.6295">file_list: list[str]</text><line style="stroke:#181818;stroke-width:0.5;" x1="47.5" x2="468.5" y1="229.9313" y2="229.9313"/><ellipse cx="57.5" cy="243.5797" fill="#84BE84" rx="3" ry="3" style="stroke:#038048;stroke-width:1.0;"/><text fill="#000000" font-family="sans-serif" font-size="14" lengthAdjust="spacing" textLength="104" x="66.5" y="246.9264">__init__(): None</text><ellipse cx="57.5" cy="259.8766" fill="#84BE84" rx="3" ry="3" style="stroke:#038048;stroke-width:1.0;"/><text fill="#000000" font-family="sans-serif" font-size="14" lengthAdjust="spacing" textLength="148" x="66.5" y="263.2232">__next__(): OTelEvent</text><ellipse cx="57.5" cy="276.1734" fill="#84BE84" rx="3" ry="3" style="stroke:#038048;stroke-width:1.0;"/><text fill="#000000" font-family="sans-serif" font-size="14" lengthAdjust="spacing" textLength="356" x="66.5" y="279.5201">parse_json_stream(filepath: str): Iterator[OTelEvent]</text><ellipse cx="57.5" cy="292.4703" fill="#84BE84" rx="3" ry="3" style="stroke:#038048;stroke-width:1.0;"/><text fill="#000000" font-family="sans-serif" font-size="14" lengthAdjust="spacing" textLength="357" x="66.5" y="295.817">create_otel_object(record: dict[str, Any]): OTelEvent</text><ellipse cx="57.5" cy="308.7672" fill="#84BE84" rx="3" ry="3" style="stroke:#038048;stroke-width:1.0;"/><text fill="#000000" font-family="sans-serif" font-size="14" lengthAdjust="spacing" textLength="164" x="66.5" y="312.1139">set_dirpath(): str | None</text><ellipse cx="57.5" cy="325.0641" fill="#84BE84" rx="3" ry="3" style="stroke:#038048;stroke-width:1.0;"/><text fill="#000000" font-family="sans-serif" font-size="14" lengthAdjust="spacing" textLength="166" x="66.5" y="328.4107">set_filepath(): str | None</text><ellipse cx="57.5" cy="341.3609" fill="#84BE84" rx="3" ry="3" style="stroke:#038048;stroke-width:1.0;"/><text fill="#000000" font-family="sans-serif" font-size="14" lengthAdjust="spacing" textLength="141" x="66.5" y="344.7076">get_file_list(): list[str]</text><ellipse cx="57.5" cy="357.6578" fill="#84BE84" rx="3" ry="3" style="stroke:#038048;stroke-width:1.0;"/><text fill="#000000" font-family="sans-serif" font-size="14" lengthAdjust="spacing" textLength="397" x="66.5" y="361.0045">process_record(record: dict[str, Any]): Iterator[OTelEvent]</text></g><!--class SQLDataHolder--><g id="elem_SQLDataHolder"><rect codeLine="36" fill="#F1F1F1" height="292.4531" id="SQLDataHolder" rx="2.5" ry="2.5" style="stroke:#181818;stroke-width:0.5;" width="756" x="856" y="84"/><ellipse cx="1177.75" cy="100" fill="#ADD1B2" rx="11" ry="11" style="stroke:#181818;stroke-width:1.0;"/><path d="M1180.7188,105.6406 Q1180.1406,105.9375 1179.5,106.0781 Q1178.8594,106.2344 1178.1563,106.2344 Q1175.6563,106.2344 1174.3281,104.5938 Q1173.0156,102.9375 1173.0156,99.8125 Q1173.0156,96.6875 1174.3281,95.0313 Q1175.6563,93.375 1178.1563,93.375 Q1178.8594,93.375 1179.5,93.5313 Q1180.1563,93.6875 1180.7188,93.9844 L1180.7188,96.7031 Q1180.0938,96.125 1179.5,95.8594 Q1178.9063,95.5781 1178.2813,95.5781 Q1176.9375,95.5781 1176.25,96.6563 Q1175.5625,97.7188 1175.5625,99.8125 Q1175.5625,101.9063 1176.25,102.9844 Q1176.9375,104.0469 1178.2813,104.0469 Q1178.9063,104.0469 1179.5,103.7813 Q1180.0938,103.5 1180.7188,102.9219 L1180.7188,105.6406 Z " fill="#000000"/><text fill="#000000" font-family="sans-serif" font-size="14" lengthAdjust="spacing" textLength="104" x="1198.25" y="104.8467">SQLDataHolder</text><line style="stroke:#181818;stroke-width:0.5;" x1="857" x2="1611" y1="116" y2="116"/><polygon fill="none" points="867,124.6484,871,128.6484,867,132.6484,863,128.6484" style="stroke:#B38D22;stroke-width:1.0;"/><text fill="#000000" font-family="sans-serif" font-size="14" lengthAdjust="spacing" textLength="285" x="876" y="132.9951">node_models_to_save: list&lt;NodeModel&gt;</text><polygon fill="none" points="867,140.9453,871,144.9453,867,148.9453,863,144.9453" style="stroke:#B38D22;stroke-width:1.0;"/><text fill="#000000" font-family="sans-serif" font-size="14" lengthAdjust="spacing" textLength="308" x="876" y="149.292">node_relationships_to_save: list[dict[str, str]]</text><polygon fill="none" points="867,157.2422,871,161.2422,867,165.2422,863,161.2422" style="stroke:#B38D22;stroke-width:1.0;"/><text fill="#000000" font-family="sans-serif" font-size="14" lengthAdjust="spacing" textLength="100" x="876" y="165.5889">batch_size: int</text><polygon fill="none" points="867,173.5391,871,177.5391,867,181.5391,863,177.5391" style="stroke:#B38D22;stroke-width:1.0;"/><text fill="#000000" font-family="sans-serif" font-size="14" lengthAdjust="spacing" textLength="75" x="876" y="181.8857">engine: str</text><polygon fill="none" points="867,189.8359,871,193.8359,867,197.8359,863,193.8359" style="stroke:#B38D22;stroke-width:1.0;"/><text fill="#000000" font-family="sans-serif" font-size="14" lengthAdjust="spacing" textLength="118" x="876" y="198.1826">session: Session</text><polygon fill="none" points="867,206.1328,871,210.1328,867,214.1328,863,210.1328" style="stroke:#B38D22;stroke-width:1.0;"/><text fill="#000000" font-family="sans-serif" font-size="14" lengthAdjust="spacing" textLength="78" x="876" y="214.4795">base: Base</text><line style="stroke:#181818;stroke-width:0.5;" x1="857" x2="1611" y1="221.7813" y2="221.7813"/><ellipse cx="867" cy="235.4297" fill="#84BE84" rx="3" ry="3" style="stroke:#038048;stroke-width:1.0;"/><text fill="#000000" font-family="sans-serif" font-size="14" lengthAdjust="spacing" textLength="555" x="876" y="238.7764">save_data(OTelEvent, min_datetime_unix_nano, max_datetime_unix_nano): None</text><ellipse cx="867" cy="251.7266" fill="#84BE84" rx="3" ry="3" style="stroke:#038048;stroke-width:1.0;"/><text fill="#000000" font-family="sans-serif" font-size="14" lengthAdjust="spacing" textLength="174" x="876" y="255.0732">create_db_tables(): None</text><ellipse cx="867" cy="268.0234" fill="#84BE84" rx="3" ry="3" style="stroke:#038048;stroke-width:1.0;"/><text fill="#000000" font-family="sans-serif" font-size="14" lengthAdjust="spacing" textLength="730" x="876" y="271.3701">check_otel_event_within_timeframe(OTelEvent, min_datetime_unix_nano, max_datetime_unix_nano): None</text><ellipse cx="867" cy="284.3203" fill="#84BE84" rx="3" ry="3" style="stroke:#038048;stroke-width:1.0;"/><text fill="#000000" font-family="sans-serif" font-size="14" lengthAdjust="spacing" textLength="300" x="876" y="287.667">commit_batched_data_to_database(): None</text><ellipse cx="867" cy="300.6172" fill="#84BE84" rx="3" ry="3" style="stroke:#038048;stroke-width:1.0;"/><text fill="#000000" font-family="sans-serif" font-size="14" lengthAdjust="spacing" textLength="242" x="876" y="303.9639">batch_insert_node_models(): None</text><ellipse cx="867" cy="316.9141" fill="#84BE84" rx="3" ry="3" style="stroke:#038048;stroke-width:1.0;"/><text fill="#000000" font-family="sans-serif" font-size="14" lengthAdjust="spacing" textLength="277" x="876" y="320.2607">batch_insert_node_associations(): None</text><ellipse cx="867" cy="333.2109" fill="#84BE84" rx="3" ry="3" style="stroke:#038048;stroke-width:1.0;"/><text fill="#000000" font-family="sans-serif" font-size="14" lengthAdjust="spacing" textLength="262" x="876" y="336.5576">add_node_relations(OTelEvent): None</text><ellipse cx="867" cy="349.5078" fill="#84BE84" rx="3" ry="3" style="stroke:#038048;stroke-width:1.0;"/><text fill="#000000" font-family="sans-serif" font-size="14" lengthAdjust="spacing" textLength="414" x="876" y="352.8545">convert_otel_event_to_node_model(OTelEvent): NodeModel</text><ellipse cx="867" cy="365.8047" fill="#84BE84" rx="3" ry="3" style="stroke:#038048;stroke-width:1.0;"/><text fill="#000000" font-family="sans-serif" font-size="14" lengthAdjust="spacing" textLength="118" x="876" y="369.1514">clean_up(): None</text></g><!--class DataHolder--><g id="elem_DataHolder"><rect codeLine="71" fill="#F1F1F1" height="80.5938" id="DataHolder" rx="2.5" ry="2.5" style="stroke:#181818;stroke-width:0.5;" width="581" x="855.5" y="436.45"/><ellipse cx="1103.25" cy="452.45" fill="#A9DCDF" rx="11" ry="11" style="stroke:#181818;stroke-width:1.0;"/><path d="M1103.3594,447.7938 L1102.2031,452.8719 L1104.5313,452.8719 L1103.3594,447.7938 Z M1101.875,445.5594 L1104.8594,445.5594 L1108.2188,457.95 L1105.7656,457.95 L1105,454.8875 L1101.7188,454.8875 L1100.9688,457.95 L1098.5313,457.95 L1101.875,445.5594 Z " fill="#000000"/><text fill="#000000" font-family="sans-serif" font-size="14" font-style="italic" lengthAdjust="spacing" textLength="77" x="1123.75" y="457.2967">DataHolder</text><line style="stroke:#181818;stroke-width:0.5;" x1="856.5" x2="1435.5" y1="468.45" y2="468.45"/><line style="stroke:#181818;stroke-width:0.5;" x1="856.5" x2="1435.5" y1="476.45" y2="476.45"/><ellipse cx="866.5" cy="490.0984" fill="#84BE84" rx="3" ry="3" style="stroke:#038048;stroke-width:1.0;"/><text fill="#000000" font-family="sans-serif" font-size="14" lengthAdjust="spacing" textLength="555" x="875.5" y="493.4451">save_data(OTelEvent, min_datetime_unix_nano, max_datetime_unix_nano): None</text><ellipse cx="866.5" cy="506.3953" fill="#84BE84" rx="3" ry="3" style="stroke:#038048;stroke-width:1.0;"/><text fill="#000000" font-family="sans-serif" font-size="14" lengthAdjust="spacing" textLength="118" x="875.5" y="509.742">clean_up(): None</text></g><!--class IngestData--><g id="elem_IngestData"><rect codeLine="76" fill="#F1F1F1" height="96.8906" id="IngestData" rx="2.5" ry="2.5" style="stroke:#181818;stroke-width:0.5;" width="274" x="526" y="181.78"/><ellipse cx="621.25" cy="197.78" fill="#ADD1B2" rx="11" ry="11" style="stroke:#181818;stroke-width:1.0;"/><path d="M624.2188,203.4206 Q623.6406,203.7175 623,203.8581 Q622.3594,204.0144 621.6563,204.0144 Q619.1563,204.0144 617.8281,202.3738 Q616.5156,200.7175 616.5156,197.5925 Q616.5156,194.4675 617.8281,192.8113 Q619.1563,191.155 621.6563,191.155 Q622.3594,191.155 623,191.3113 Q623.6563,191.4675 624.2188,191.7644 L624.2188,194.4831 Q623.5938,193.905 623,193.6394 Q622.4063,193.3581 621.7813,193.3581 Q620.4375,193.3581 619.75,194.4363 Q619.0625,195.4988 619.0625,197.5925 Q619.0625,199.6863 619.75,200.7644 Q620.4375,201.8269 621.7813,201.8269 Q622.4063,201.8269 623,201.5613 Q623.5938,201.28 624.2188,200.7019 L624.2188,203.4206 Z " fill="#000000"/><text fill="#000000" font-family="sans-serif" font-size="14" lengthAdjust="spacing" textLength="75" x="641.75" y="202.6267">IngestData</text><line style="stroke:#181818;stroke-width:0.5;" x1="527" x2="799" y1="213.78" y2="213.78"/><polygon fill="none" points="537,222.4284,541,226.4284,537,230.4284,533,226.4284" style="stroke:#B38D22;stroke-width:1.0;"/><text fill="#000000" font-family="sans-serif" font-size="14" lengthAdjust="spacing" textLength="248" x="546" y="230.7751">otel_data_source : OTELDataSource</text><polygon fill="none" points="537,238.7253,541,242.7253,537,246.7253,533,242.7253" style="stroke:#B38D22;stroke-width:1.0;"/><text fill="#000000" font-family="sans-serif" font-size="14" lengthAdjust="spacing" textLength="171" x="546" y="247.072">data_holder : DataHolder</text><line style="stroke:#181818;stroke-width:0.5;" x1="527" x2="799" y1="254.3738" y2="254.3738"/><ellipse cx="537" cy="268.0222" fill="#84BE84" rx="3" ry="3" style="stroke:#038048;stroke-width:1.0;"/><text fill="#000000" font-family="sans-serif" font-size="14" lengthAdjust="spacing" textLength="194" x="546" y="271.3689">load_to_data_holder(): None</text></g><!--link IngestData to OTELDataSource--><g id="link_IngestData_OTELDataSource"><path codeLine="106" d="M608.35,278.95 C555.83,324.82 481.9195,389.3636 432.7895,432.2636 " fill="none" id="IngestData-to-OTELDataSource" style="stroke:#181818;stroke-width:1.0;stroke-dasharray:7.0,7.0;"/><polygon fill="#181818" points="428.27,436.21,437.6802,433.3034,432.0363,432.9213,432.4183,427.2774,428.27,436.21" style="stroke:#181818;stroke-width:1.0;"/></g><!--link IngestData to DataHolder--><g id="link_IngestData_DataHolder"><path codeLine="108" d="M710.84,278.91 C744.54,310.28 792.05,350.23 840,376.45 C885.08,401.1 931.5559,419.0616 979.9359,434.2616 " fill="none" id="IngestData-to-DataHolder" style="stroke:#181818;stroke-width:1.0;stroke-dasharray:7.0,7.0;"/><polygon fill="#181818" points="985.66,436.06,978.2727,429.5463,980.8899,434.5613,975.8749,437.1785,985.66,436.06" style="stroke:#181818;stroke-width:1.0;"/></g><!--link OTELDataSource to OTelEvent--><g id="link_OTELDataSource_OTelEvent"><path codeLine="110" d="M470.29,487.05 C533.19,496.36 618.67,514.49 687,549.04 C713.59,562.49 734.9112,577.0245 758.2912,596.2045 " fill="none" id="OTELDataSource-to-OTelEvent" style="stroke:#181818;stroke-width:1.0;stroke-dasharray:7.0,7.0;"/><polygon fill="#181818" points="762.93,600.01,758.5088,591.2093,759.0643,596.8388,753.4348,597.3943,762.93,600.01" style="stroke:#181818;stroke-width:1.0;"/></g><!--link JSONDataSource to OTELDataSource--><g id="link_JSONDataSource_OTELDataSource"><path codeLine="112" d="M328.17,368.5 C340.81,393.21 350.2783,411.7479 359.9583,430.6779 " fill="none" id="JSONDataSource-to-OTELDataSource" style="stroke:#181818;stroke-width:1.0;"/><polygon fill="#181818" points="362.69,436.02,362.1538,426.1857,360.4136,431.5683,355.0311,429.828,362.69,436.02" style="stroke:#181818;stroke-width:1.0;"/></g><!--link SQLDataHolder to DataHolder--><g id="link_SQLDataHolder_DataHolder"><path codeLine="114" d="M1181.67,376.64 C1173.77,398.59 1168.2701,413.8539 1162.1901,430.7639 " fill="none" id="SQLDataHolder-to-DataHolder" style="stroke:#181818;stroke-width:1.0;"/><polygon fill="#181818" points="1160.16,436.41,1166.9692,429.2942,1161.8517,431.7049,1159.441,426.5874,1160.16,436.41" style="stroke:#181818;stroke-width:1.0;"/></g><!--link SQLDataHolder to NodeModel--><g id="link_SQLDataHolder_NodeModel"><path codeLine="116" d="M1419.81,376.75 C1461.96,427.38 1486.02,485.45 1454,541.04 C1426.28,589.17 1382.7023,621.0982 1334.1423,645.2482 " fill="none" id="SQLDataHolder-to-NodeModel" style="stroke:#181818;stroke-width:1.0;stroke-dasharray:7.0,7.0;"/><polygon fill="#181818" points="1328.77,647.92,1338.6096,647.4939,1333.2469,645.6935,1335.0473,640.3308,1328.77,647.92" style="stroke:#181818;stroke-width:1.0;"/></g><!--link NodeModel to Base--><g id="link_NodeModel_Base"><path codeLine="118" d="M1187.91,803.41 C1188.46,833.97 1188.9218,859.051 1189.3218,881.221 " fill="none" id="NodeModel-to-Base" style="stroke:#181818;stroke-width:1.0;"/><polygon fill="#181818" points="1189.43,887.22,1193.267,878.1493,1189.3398,882.2208,1185.2683,878.2936,1189.43,887.22" style="stroke:#181818;stroke-width:1.0;"/></g><!--link DataHolder to OTelEvent--><g id="link_DataHolder_OTelEvent"><path codeLine="120" d="M1074.13,517.42 C1057.92,527.19 1041.06,538.03 1026,549.04 C1004.84,564.51 987.7393,578.2464 967.3893,595.8364 " fill="none" id="DataHolder-to-OTelEvent" style="stroke:#181818;stroke-width:1.0;stroke-dasharray:7.0,7.0;"/><polygon fill="#181818" points="962.85,599.76,972.2747,596.9007,966.6327,596.4903,967.0432,590.8484,962.85,599.76" style="stroke:#181818;stroke-width:1.0;"/></g><!--link JSONDataSource to JSONDataSourceConfig--><g id="link_JSONDataSource_JSONDataSourceConfig"><path codeLine="122" d="M239.75,368.57 C238.75,425.68 246.75,490.34 278,541.04 C309.48,592.13 359.0489,625.7687 410.8089,650.3187 " fill="none" id="JSONDataSource-to-JSONDataSourceConfig" style="stroke:#181818;stroke-width:1.0;stroke-dasharray:7.0,7.0;"/><polygon fill="#181818" points="416.23,652.89,409.8125,645.419,411.7124,650.7473,406.3841,652.6472,416.23,652.89" style="stroke:#181818;stroke-width:1.0;"/></g><!--link JSONDataSourceConfig to HeaderSpec--><g id="link_JSONDataSourceConfig_HeaderSpec"><path codeLine="124" d="M642.8,770.7 C661.31,782.41 680.86,793.72 700,803.01 C777,840.4 806.85,823.93 883,863.01 C895.94,869.66 904.2418,874.838 915.8718,883.418 " fill="none" id="JSONDataSourceConfig-to-HeaderSpec" style="stroke:#181818;stroke-width:1.0;stroke-dasharray:7.0,7.0;"/><polygon fill="#181818" points="920.7,886.98,915.8323,878.4181,916.6765,884.0116,911.0829,884.8558,920.7,886.98" style="stroke:#181818;stroke-width:1.0;"/></g><!--link JSONDataSourceConfig to SpanSpec--><g id="link_JSONDataSourceConfig_SpanSpec"><path codeLine="126" d="M521.63,770.89 C510.01,810.23 497.9301,851.1259 489.0101,881.3159 " fill="none" id="JSONDataSourceConfig-to-SpanSpec" style="stroke:#181818;stroke-width:1.0;stroke-dasharray:7.0,7.0;"/><polygon fill="#181818" points="487.31,887.07,493.6962,879.5723,488.7268,882.2749,486.0241,877.3054,487.31,887.07" style="stroke:#181818;stroke-width:1.0;"/></g><!--link JSONDataSourceConfig to FieldSpec--><g id="link_JSONDataSourceConfig_FieldSpec"><path codeLine="128" d="M602.52,770.89 C627.04,800.71 651.1981,830.0965 674.1181,857.9565 " fill="none" id="JSONDataSourceConfig-to-FieldSpec" style="stroke:#181818;stroke-width:1.0;stroke-dasharray:7.0,7.0;"/><polygon fill="#181818" points="677.93,862.59,675.3011,853.0985,674.7534,858.7287,669.1231,858.181,677.93,862.59" style="stroke:#181818;stroke-width:1.0;"/></g><!--SRC=[lLVRJXin47tFLrZa9QYG3uWg9DfIGTM2ghHFABAStKdMuBLNQoTDUldtZYzxpP9iA9G7o8xFpfmvdalG9bz5XYW3WdAv16suacFt63F3QAfY4EExRo2krY0D-JKW-FEWvbIo52P4cxoqyBXw1ekcPfj1srP7QSDoHF4Kux8qcn0kZOVAkClCiapmY5cEhVWPowtpAiHTPb5Ct2DYvY1HmaLS8dGD8hWs3dT6RfM4sU3FOC3cQ60eJIIOrayBfDKgZm0Lklhy0P-dxZ78z8PIRY2dT7Gw8LCGYy8gOMEyjLJMnkmNwjFqxdOdr31ISi6N4z8yVU-i0R7AdKOBBW3znx2fX2qFKKSD-OJS86zcL7vV4foHtquTZuzvdZ6JaEe6XjQljRLCrAex8QN6fJAI1mrAhqyeuuuSCVgWyURH2x1qr8XtsadPlneXt01rGghv0qHcb4EaSgoIc4UErHcvbDlPRbGDXePKBIT4rbLmnmMDhlDbE7SQM41BXInN4MXDFPsdMNMbThXU4YLYoCVJhwuohzrJKIuI-zetjwP6KStMuDczlKNZ5tjmKKFc85pNwOHdhHVkAxOsCP_PSCvCb53DVqAjo40kkQmrxL1ZykZLDeVxKBoh4VGEVmULCPRBQ5IcVqPIBgqDx9IWAyatE12aGZlRTDWRLHRg8PvJm-O2TBC6emIYHryiVbRyu2R1ODRX8iUXyr8iL9fY1pYX8FOtXiBQlrQ09Yal9vVOcuRMxkuG2kj3HTnVNHFBufWshxRAgyLJhgs_cY98i-BGUYqKJtXN09DqbPMX3nUjNpYbdr2lTg8NPVHgowUuiAuDr3ZxZskebrgsLO9G9oVOxfS2IohTaXZmTHmSV0t4rfJVPISdn-otC4Hs9iZBTsNVMl6VNEZnZVjioHM3hRqkYPtfzTqSzbUL6oAgx3mNeLXSD6D07Lt2NOiuaDpTb677r0pMaL2-o2fp0YoswxcQkTVECiqWykMbCrGnnGf5PdNS5EqLQi41Yx03zj4UU5pVH2i68JsRYQxlkhwU2ex1poDiwRDzbOdiSrOSh9bOGRiJ6wqRzfe35dxwmlqW-Yxns8lCm_xkLzZZySMHNpzVnFDEu-zuFVGbUA_xrZyMXvstllQUd_-pAWU-AUsDS8mwdTvxY5Cjqq7lTRcNTBKj3hCzZkhpxx67yyv_QGRF6RyzWbNJxDL256FkrGAKi-yl]--></g></svg>