<?xml version="1.0" encoding="us-ascii" standalone="no"?><svg xmlns="http://www.w3.org/2000/svg" xmlns:xlink="http://www.w3.org/1999/xlink" contentStyleType="text/css" height="1006px" preserveAspectRatio="none" style="width:1141px;height:1006px;background:#FFFFFF;" version="1.1" viewBox="0 0 1141 1006" width="1141px" zoomAndPan="magnify"><defs/><g><!--cluster otel_ingestion--><g id="cluster_otel_ingestion"><path d="M8.5,6 L119.5,6 A3.75,3.75 0 0 1 122,8.5 L129,28.2969 L1131.5,28.2969 A2.5,2.5 0 0 1 1134,30.7969 L1134,997.41 A2.5,2.5 0 0 1 1131.5,999.91 L8.5,999.91 A2.5,2.5 0 0 1 6,997.41 L6,8.5 A2.5,2.5 0 0 1 8.5,6 " fill="none" style="stroke:#000000;stroke-width:1.5;"/><line style="stroke:#000000;stroke-width:1.5;" x1="6" x2="129" y1="28.2969" y2="28.2969"/><text fill="#000000" font-family="sans-serif" font-size="14" font-weight="bold" lengthAdjust="spacing" textLength="110" x="10" y="20.9951">otel_ingestion</text></g><!--cluster otel_data_model--><g id="cluster_otel_data_model"><path d="M136.5,540.75 L263.5,540.75 A3.75,3.75 0 0 1 266,543.25 L273,563.0469 L1082.5,563.0469 A2.5,2.5 0 0 1 1085,565.5469 L1085,973.41 A2.5,2.5 0 0 1 1082.5,975.91 L136.5,975.91 A2.5,2.5 0 0 1 134,973.41 L134,543.25 A2.5,2.5 0 0 1 136.5,540.75 " fill="none" style="stroke:#000000;stroke-width:1.5;"/><line style="stroke:#000000;stroke-width:1.5;" x1="134" x2="273" y1="563.0469" y2="563.0469"/><text fill="#000000" font-family="sans-serif" font-size="14" font-weight="bold" lengthAdjust="spacing" textLength="126" x="138" y="555.7451">otel_data_model</text></g><!--cluster otel_data_source--><g id="cluster_otel_data_source"><path d="M32.5,49 L166.5,49 A3.75,3.75 0 0 1 169,51.5 L176,71.2969 L483.5,71.2969 A2.5,2.5 0 0 1 486,73.7969 L486,514.25 A2.5,2.5 0 0 1 483.5,516.75 L32.5,516.75 A2.5,2.5 0 0 1 30,514.25 L30,51.5 A2.5,2.5 0 0 1 32.5,49 " fill="none" style="stroke:#000000;stroke-width:1.5;"/><line style="stroke:#000000;stroke-width:1.5;" x1="30" x2="176" y1="71.2969" y2="71.2969"/><text fill="#000000" font-family="sans-serif" font-size="14" font-weight="bold" lengthAdjust="spacing" textLength="133" x="34" y="63.9951">otel_data_source</text></g><!--cluster otel_data_holder--><g id="cluster_otel_data_holder"><path d="M842.5,130.49 L972.5,130.49 A3.75,3.75 0 0 1 975,132.99 L982,152.7869 L1107.5,152.7869 A2.5,2.5 0 0 1 1110,155.2869 L1110,506.11 A2.5,2.5 0 0 1 1107.5,508.61 L842.5,508.61 A2.5,2.5 0 0 1 840,506.11 L840,132.99 A2.5,2.5 0 0 1 842.5,130.49 " fill="none" style="stroke:#000000;stroke-width:1.5;"/><line style="stroke:#000000;stroke-width:1.5;" x1="840" x2="982" y1="152.7869" y2="152.7869"/><text fill="#000000" font-family="sans-serif" font-size="14" font-weight="bold" lengthAdjust="spacing" textLength="129" x="844" y="145.4851">otel_data_holder</text></g><!--cluster ingest_data--><g id="cluster_ingest_data"><path d="M512.5,138.64 L603.5,138.64 A3.75,3.75 0 0 1 606,141.14 L613,160.9369 L813.5,160.9369 A2.5,2.5 0 0 1 816,163.4369 L816,284.03 A2.5,2.5 0 0 1 813.5,286.53 L512.5,286.53 A2.5,2.5 0 0 1 510,284.03 L510,141.14 A2.5,2.5 0 0 1 512.5,138.64 " fill="none" style="stroke:#000000;stroke-width:1.5;"/><line style="stroke:#000000;stroke-width:1.5;" x1="510" x2="613" y1="160.9369" y2="160.9369"/><text fill="#000000" font-family="sans-serif" font-size="14" font-weight="bold" lengthAdjust="spacing" textLength="90" x="514" y="153.6351">ingest_data</text></g><!--class OTelEvent--><g id="elem_OTelEvent"><rect codeLine="2" fill="#F1F1F1" height="194.6719" id="OTelEvent" rx="2.5" ry="2.5" style="stroke:#181818;stroke-width:0.5;" width="285" x="458.5" y="583.9"/><ellipse cx="561.25" cy="599.9" fill="#F1F1F1" rx="11" ry="11" style="stroke:#181818;stroke-width:1.0;"/><path d="M560.7344,600.4625 Q558.875,599.7594 558.2188,598.9938 Q557.5781,598.2125 557.5781,596.9 Q557.5781,595.2125 558.6563,594.2438 Q559.7344,593.275 561.6094,593.275 Q562.4688,593.275 563.3125,593.4781 Q564.1719,593.6656 565.0156,594.0563 L565.0156,596.4469 Q564.2344,595.8844 563.4063,595.6031 Q562.5938,595.3063 561.7969,595.3063 Q560.9219,595.3063 560.4375,595.6656 Q559.9688,596.025 559.9688,596.6813 Q559.9688,597.1969 560.3125,597.5406 Q560.6563,597.8688 561.75,598.275 L562.8125,598.6813 Q564.2969,599.2281 565,600.1344 Q565.7188,601.0406 565.7188,602.4156 Q565.7188,604.2906 564.6094,605.2125 Q563.5,606.1344 561.25,606.1344 Q560.3281,606.1344 559.4063,605.9156 Q558.4844,605.6969 557.625,605.275 L557.625,602.7438 Q558.5938,603.4313 559.5156,603.775 Q560.4375,604.1188 561.3281,604.1188 Q562.2344,604.1188 562.7344,603.7125 Q563.2344,603.2906 563.2344,602.5563 Q563.2344,601.9938 562.8906,601.5875 Q562.5625,601.1656 561.9375,600.9156 L560.7344,600.4625 Z " fill="#000000"/><text fill="#000000" font-family="sans-serif" font-size="14" lengthAdjust="spacing" textLength="71" x="581.75" y="604.7467">OTelEvent</text><line style="stroke:#181818;stroke-width:0.5;" x1="459.5" x2="742.5" y1="615.9" y2="615.9"/><text fill="#000000" font-family="sans-serif" font-size="14" lengthAdjust="spacing" textLength="94" x="464.5" y="632.8951">job_name: str</text><text fill="#000000" font-family="sans-serif" font-size="14" lengthAdjust="spacing" textLength="67" x="464.5" y="649.192">job_id: str</text><text fill="#000000" font-family="sans-serif" font-size="14" lengthAdjust="spacing" textLength="103" x="464.5" y="665.4889">event_type: str</text><text fill="#000000" font-family="sans-serif" font-size="14" lengthAdjust="spacing" textLength="85" x="464.5" y="681.7857">event_id: str</text><text fill="#000000" font-family="sans-serif" font-size="14" lengthAdjust="spacing" textLength="138" x="464.5" y="698.0826">start_timestamp: str</text><text fill="#000000" font-family="sans-serif" font-size="14" lengthAdjust="spacing" textLength="134" x="464.5" y="714.3795">end_timestamp: str</text><text fill="#000000" font-family="sans-serif" font-size="14" lengthAdjust="spacing" textLength="147" x="464.5" y="730.6764">application_name: str</text><text fill="#000000" font-family="sans-serif" font-size="14" lengthAdjust="spacing" textLength="204" x="464.5" y="746.9732">parent_event_id: Optional[str]</text><text fill="#000000" font-family="sans-serif" font-size="14" lengthAdjust="spacing" textLength="273" x="464.5" y="763.2701">child_event_ids: Optional[list[str], None]</text><line style="stroke:#181818;stroke-width:0.5;" x1="459.5" x2="742.5" y1="770.5719" y2="770.5719"/></g><!--class NodeModel--><g id="elem_NodeModel"><rect codeLine="43" fill="#F1F1F1" height="210.9688" id="NodeModel" rx="2.5" ry="2.5" style="stroke:#181818;stroke-width:0.5;" width="285" x="784.5" y="575.75"/><ellipse cx="883.25" cy="591.75" fill="#ADD1B2" rx="11" ry="11" style="stroke:#181818;stroke-width:1.0;"/><path d="M886.2188,597.3906 Q885.6406,597.6875 885,597.8281 Q884.3594,597.9844 883.6563,597.9844 Q881.1563,597.9844 879.8281,596.3437 Q878.5156,594.6875 878.5156,591.5625 Q878.5156,588.4375 879.8281,586.7812 Q881.1563,585.125 883.6563,585.125 Q884.3594,585.125 885,585.2812 Q885.6563,585.4375 886.2188,585.7344 L886.2188,588.4531 Q885.5938,587.875 885,587.6094 Q884.4063,587.3281 883.7813,587.3281 Q882.4375,587.3281 881.75,588.4062 Q881.0625,589.4687 881.0625,591.5625 Q881.0625,593.6562 881.75,594.7344 Q882.4375,595.7969 883.7813,595.7969 Q884.4063,595.7969 885,595.5312 Q885.5938,595.25 886.2188,594.6719 L886.2188,597.3906 Z " fill="#000000"/><text fill="#000000" font-family="sans-serif" font-size="14" lengthAdjust="spacing" textLength="79" x="903.75" y="596.5967">NodeModel</text><line style="stroke:#181818;stroke-width:0.5;" x1="785.5" x2="1068.5" y1="607.75" y2="607.75"/><text fill="#000000" font-family="sans-serif" font-size="14" lengthAdjust="spacing" textLength="38" x="790.5" y="624.7451">id: int</text><text fill="#000000" font-family="sans-serif" font-size="14" lengthAdjust="spacing" textLength="94" x="790.5" y="641.042">job_name: str</text><text fill="#000000" font-family="sans-serif" font-size="14" lengthAdjust="spacing" textLength="67" x="790.5" y="657.3389">job_id: str</text><text fill="#000000" font-family="sans-serif" font-size="14" lengthAdjust="spacing" textLength="103" x="790.5" y="673.6357">event_type: str</text><text fill="#000000" font-family="sans-serif" font-size="14" lengthAdjust="spacing" textLength="85" x="790.5" y="689.9326">event_id: str</text><text fill="#000000" font-family="sans-serif" font-size="14" lengthAdjust="spacing" textLength="181" x="790.5" y="706.2295">start_timestamp: datetime</text><text fill="#000000" font-family="sans-serif" font-size="14" lengthAdjust="spacing" textLength="177" x="790.5" y="722.5264">end_timestamp: datetime</text><text fill="#000000" font-family="sans-serif" font-size="14" lengthAdjust="spacing" textLength="147" x="790.5" y="738.8232">application_name: str</text><text fill="#000000" font-family="sans-serif" font-size="14" lengthAdjust="spacing" textLength="137" x="790.5" y="755.1201">parent_event_id: str</text><text fill="#000000" font-family="sans-serif" font-size="14" lengthAdjust="spacing" textLength="273" x="790.5" y="771.417">child_event_ids: Optional[list[str], None]</text><line style="stroke:#181818;stroke-width:0.5;" x1="785.5" x2="1068.5" y1="778.7187" y2="778.7187"/></g><!--class Base--><g id="elem_Base"><rect codeLine="56" fill="#F1F1F1" height="64.2969" id="Base" rx="2.5" ry="2.5" style="stroke:#181818;stroke-width:0.5;" width="276" x="793" y="871.17"/><ellipse cx="909.25" cy="887.17" fill="#ADD1B2" rx="11" ry="11" style="stroke:#181818;stroke-width:1.0;"/><path d="M912.2188,892.8106 Q911.6406,893.1075 911,893.2481 Q910.3594,893.4044 909.6563,893.4044 Q907.1563,893.4044 905.8281,891.7638 Q904.5156,890.1075 904.5156,886.9825 Q904.5156,883.8575 905.8281,882.2013 Q907.1563,880.545 909.6563,880.545 Q910.3594,880.545 911,880.7013 Q911.6563,880.8575 912.2188,881.1544 L912.2188,883.8731 Q911.5938,883.295 911,883.0294 Q910.4063,882.7481 909.7813,882.7481 Q908.4375,882.7481 907.75,883.8263 Q907.0625,884.8888 907.0625,886.9825 Q907.0625,889.0763 907.75,890.1544 Q908.4375,891.2169 909.7813,891.2169 Q910.4063,891.2169 911,890.9513 Q911.5938,890.67 912.2188,890.0919 L912.2188,892.8106 Z " fill="#000000"/><text fill="#000000" font-family="sans-serif" font-size="14" lengthAdjust="spacing" textLength="35" x="929.75" y="892.0167">Base</text><line style="stroke:#181818;stroke-width:0.5;" x1="794" x2="1068" y1="903.17" y2="903.17"/><text fill="#000000" font-family="monospace" font-size="14" lengthAdjust="spacing" textLength="264" x="799" y="920.1651">SQLAlchemy&#160;declarative&#160;base&#160;class</text><line style="stroke:#181818;stroke-width:0.5;" x1="794" x2="1068" y1="927.4669" y2="927.4669"/></g><!--class JSONDataSourceConfig--><g id="elem_JSONDataSourceConfig"><rect codeLine="70" fill="#F1F1F1" height="145.7813" id="JSONDataSourceConfig" rx="2.5" ry="2.5" style="stroke:#181818;stroke-width:0.5;" width="253" x="157.5" y="608.35"/><ellipse cx="200.85" cy="624.35" fill="#ADD1B2" rx="11" ry="11" style="stroke:#181818;stroke-width:1.0;"/><path d="M203.8188,629.9906 Q203.2406,630.2875 202.6,630.4281 Q201.9594,630.5844 201.2563,630.5844 Q198.7563,630.5844 197.4281,628.9438 Q196.1156,627.2875 196.1156,624.1625 Q196.1156,621.0375 197.4281,619.3813 Q198.7563,617.725 201.2563,617.725 Q201.9594,617.725 202.6,617.8813 Q203.2563,618.0375 203.8188,618.3344 L203.8188,621.0531 Q203.1938,620.475 202.6,620.2094 Q202.0063,619.9281 201.3813,619.9281 Q200.0375,619.9281 199.35,621.0063 Q198.6625,622.0688 198.6625,624.1625 Q198.6625,626.2563 199.35,627.3344 Q200.0375,628.3969 201.3813,628.3969 Q202.0063,628.3969 202.6,628.1313 Q203.1938,627.85 203.8188,627.2719 L203.8188,629.9906 Z " fill="#000000"/><text fill="#000000" font-family="sans-serif" font-size="14" lengthAdjust="spacing" textLength="158" x="221.15" y="629.1967">JSONDataSourceConfig</text><line style="stroke:#181818;stroke-width:0.5;" x1="158.5" x2="409.5" y1="640.35" y2="640.35"/><text fill="#000000" font-family="sans-serif" font-size="14" lengthAdjust="spacing" textLength="77" x="163.5" y="657.3451">filepath: str</text><text fill="#000000" font-family="sans-serif" font-size="14" lengthAdjust="spacing" textLength="75" x="163.5" y="673.642">dirpath: str</text><text fill="#000000" font-family="sans-serif" font-size="14" lengthAdjust="spacing" textLength="118" x="163.5" y="689.9389">data_location: str</text><text fill="#000000" font-family="sans-serif" font-size="14" lengthAdjust="spacing" textLength="204" x="163.5" y="706.2357">header: dict[str, HeaderSpec]</text><text fill="#000000" font-family="sans-serif" font-size="14" lengthAdjust="spacing" textLength="241" x="163.5" y="722.5326">span_mapping: dict[str, SpanSpec]</text><text fill="#000000" font-family="sans-serif" font-size="14" lengthAdjust="spacing" textLength="232" x="163.5" y="738.8295">field_mapping: dict[str, FieldSpec]</text><line style="stroke:#181818;stroke-width:0.5;" x1="158.5" x2="409.5" y1="746.1313" y2="746.1313"/></g><!--class HeaderSpec--><g id="elem_HeaderSpec"><rect codeLine="79" fill="#F1F1F1" height="64.2969" id="HeaderSpec" rx="2.5" ry="2.5" style="stroke:#181818;stroke-width:0.5;" width="117" x="641.5" y="871.17"/><ellipse cx="656.5" cy="887.17" fill="#ADD1B2" rx="11" ry="11" style="stroke:#181818;stroke-width:1.0;"/><path d="M659.4688,892.8106 Q658.8906,893.1075 658.25,893.2481 Q657.6094,893.4044 656.9063,893.4044 Q654.4063,893.4044 653.0781,891.7638 Q651.7656,890.1075 651.7656,886.9825 Q651.7656,883.8575 653.0781,882.2013 Q654.4063,880.545 656.9063,880.545 Q657.6094,880.545 658.25,880.7013 Q658.9063,880.8575 659.4688,881.1544 L659.4688,883.8731 Q658.8438,883.295 658.25,883.0294 Q657.6563,882.7481 657.0313,882.7481 Q655.6875,882.7481 655,883.8263 Q654.3125,884.8888 654.3125,886.9825 Q654.3125,889.0763 655,890.1544 Q655.6875,891.2169 657.0313,891.2169 Q657.6563,891.2169 658.25,890.9513 Q658.8438,890.67 659.4688,890.0919 L659.4688,892.8106 Z " fill="#000000"/><text fill="#000000" font-family="sans-serif" font-size="14" lengthAdjust="spacing" textLength="85" x="670.5" y="892.0167">HeaderSpec</text><line style="stroke:#181818;stroke-width:0.5;" x1="642.5" x2="757.5" y1="903.17" y2="903.17"/><text fill="#000000" font-family="sans-serif" font-size="14" lengthAdjust="spacing" textLength="95" x="647.5" y="920.1651">paths: list[str]</text><line style="stroke:#181818;stroke-width:0.5;" x1="642.5" x2="757.5" y1="927.4669" y2="927.4669"/></g><!--class SpanSpec--><g id="elem_SpanSpec"><rect codeLine="83" fill="#F1F1F1" height="64.2969" id="SpanSpec" rx="2.5" ry="2.5" style="stroke:#181818;stroke-width:0.5;" width="138" x="150" y="871.17"/><ellipse cx="181.2" cy="887.17" fill="#ADD1B2" rx="11" ry="11" style="stroke:#181818;stroke-width:1.0;"/><path d="M184.1688,892.8106 Q183.5906,893.1075 182.95,893.2481 Q182.3094,893.4044 181.6063,893.4044 Q179.1063,893.4044 177.7781,891.7638 Q176.4656,890.1075 176.4656,886.9825 Q176.4656,883.8575 177.7781,882.2013 Q179.1063,880.545 181.6063,880.545 Q182.3094,880.545 182.95,880.7013 Q183.6063,880.8575 184.1688,881.1544 L184.1688,883.8731 Q183.5438,883.295 182.95,883.0294 Q182.3563,882.7481 181.7313,882.7481 Q180.3875,882.7481 179.7,883.8263 Q179.0125,884.8888 179.0125,886.9825 Q179.0125,889.0763 179.7,890.1544 Q180.3875,891.2169 181.7313,891.2169 Q182.3563,891.2169 182.95,890.9513 Q183.5438,890.67 184.1688,890.0919 L184.1688,892.8106 Z " fill="#000000"/><text fill="#000000" font-family="sans-serif" font-size="14" lengthAdjust="spacing" textLength="70" x="198.8" y="892.0167">SpanSpec</text><line style="stroke:#181818;stroke-width:0.5;" x1="151" x2="287" y1="903.17" y2="903.17"/><text fill="#000000" font-family="sans-serif" font-size="14" lengthAdjust="spacing" textLength="126" x="156" y="920.1651">key_paths: list[str]</text><line style="stroke:#181818;stroke-width:0.5;" x1="151" x2="287" y1="927.4669" y2="927.4669"/></g><!--class FieldSpec--><g id="elem_FieldSpec"><rect codeLine="87" fill="#F1F1F1" height="113.1875" id="FieldSpec" rx="2.5" ry="2.5" style="stroke:#181818;stroke-width:0.5;" width="284" x="323" y="846.72"/><ellipse cx="427.25" cy="862.72" fill="#ADD1B2" rx="11" ry="11" style="stroke:#181818;stroke-width:1.0;"/><path d="M430.2188,868.3606 Q429.6406,868.6575 429,868.7981 Q428.3594,868.9544 427.6563,868.9544 Q425.1563,868.9544 423.8281,867.3137 Q422.5156,865.6575 422.5156,862.5325 Q422.5156,859.4075 423.8281,857.7512 Q425.1563,856.095 427.6563,856.095 Q428.3594,856.095 429,856.2512 Q429.6563,856.4075 430.2188,856.7044 L430.2188,859.4231 Q429.5938,858.845 429,858.5794 Q428.4063,858.2981 427.7813,858.2981 Q426.4375,858.2981 425.75,859.3762 Q425.0625,860.4387 425.0625,862.5325 Q425.0625,864.6262 425.75,865.7044 Q426.4375,866.7669 427.7813,866.7669 Q428.4063,866.7669 429,866.5012 Q429.5938,866.22 430.2188,865.6419 L430.2188,868.3606 Z " fill="#000000"/><text fill="#000000" font-family="sans-serif" font-size="14" lengthAdjust="spacing" textLength="67" x="447.75" y="867.5667">FieldSpec</text><line style="stroke:#181818;stroke-width:0.5;" x1="324" x2="606" y1="878.72" y2="878.72"/><text fill="#000000" font-family="sans-serif" font-size="14" lengthAdjust="spacing" textLength="126" x="329" y="895.7151">key_paths: list[str]</text><text fill="#000000" font-family="sans-serif" font-size="14" lengthAdjust="spacing" textLength="257" x="329" y="912.012">key_value: Optional[list[Optional[str]]]</text><text fill="#000000" font-family="sans-serif" font-size="14" lengthAdjust="spacing" textLength="272" x="329" y="928.3089">value_paths: Optional[list[Optional[str]]]</text><text fill="#000000" font-family="sans-serif" font-size="14" lengthAdjust="spacing" textLength="175" x="329" y="944.6057">value_type: Union[str, int]</text><line style="stroke:#181818;stroke-width:0.5;" x1="324" x2="606" y1="951.9075" y2="951.9075"/></g><!--class OTELDataSource--><g id="elem_OTELDataSource"><rect codeLine="14" fill="#F1F1F1" height="80.5938" id="OTELDataSource" rx="2.5" ry="2.5" style="stroke:#181818;stroke-width:0.5;" width="174" x="296" y="420.16"/><ellipse cx="322.25" cy="436.16" fill="#A9DCDF" rx="11" ry="11" style="stroke:#181818;stroke-width:1.0;"/><path d="M322.3594,431.5037 L321.2031,436.5819 L323.5313,436.5819 L322.3594,431.5037 Z M320.875,429.2694 L323.8594,429.2694 L327.2188,441.66 L324.7656,441.66 L324,438.5975 L320.7188,438.5975 L319.9688,441.66 L317.5313,441.66 L320.875,429.2694 Z " fill="#000000"/><text fill="#000000" font-family="sans-serif" font-size="14" font-style="italic" lengthAdjust="spacing" textLength="117" x="338.75" y="441.0067">OTELDataSource</text><line style="stroke:#181818;stroke-width:0.5;" x1="297" x2="469" y1="452.16" y2="452.16"/><line style="stroke:#181818;stroke-width:0.5;" x1="297" x2="469" y1="460.16" y2="460.16"/><ellipse cx="307" cy="473.8084" fill="#84BE84" rx="3" ry="3" style="stroke:#038048;stroke-width:1.0;"/><text fill="#000000" font-family="sans-serif" font-size="14" lengthAdjust="spacing" textLength="94" x="316" y="477.1551">__iter__(): Self</text><ellipse cx="307" cy="490.1053" fill="#84BE84" rx="3" ry="3" style="stroke:#038048;stroke-width:1.0;"/><text fill="#000000" font-family="sans-serif" font-size="14" lengthAdjust="spacing" textLength="148" x="316" y="493.452">__next__(): OTelEvent</text></g><!--class JSONDataSource--><g id="elem_JSONDataSource"><rect codeLine="19" fill="#F1F1F1" height="276.1563" id="JSONDataSource" rx="2.5" ry="2.5" style="stroke:#181818;stroke-width:0.5;" width="423" x="46.5" y="84"/><ellipse cx="196.75" cy="100" fill="#ADD1B2" rx="11" ry="11" style="stroke:#181818;stroke-width:1.0;"/><path d="M199.7188,105.6406 Q199.1406,105.9375 198.5,106.0781 Q197.8594,106.2344 197.1563,106.2344 Q194.6563,106.2344 193.3281,104.5938 Q192.0156,102.9375 192.0156,99.8125 Q192.0156,96.6875 193.3281,95.0313 Q194.6563,93.375 197.1563,93.375 Q197.8594,93.375 198.5,93.5313 Q199.1563,93.6875 199.7188,93.9844 L199.7188,96.7031 Q199.0938,96.125 198.5,95.8594 Q197.9063,95.5781 197.2813,95.5781 Q195.9375,95.5781 195.25,96.6563 Q194.5625,97.7188 194.5625,99.8125 Q194.5625,101.9063 195.25,102.9844 Q195.9375,104.0469 197.2813,104.0469 Q197.9063,104.0469 198.5,103.7813 Q199.0938,103.5 199.7188,102.9219 L199.7188,105.6406 Z " fill="#000000"/><text fill="#000000" font-family="sans-serif" font-size="14" lengthAdjust="spacing" textLength="114" x="217.25" y="104.8467">JSONDataSource</text><line style="stroke:#181818;stroke-width:0.5;" x1="47.5" x2="468.5" y1="116" y2="116"/><polygon fill="none" points="57.5,124.6484,61.5,128.6484,57.5,132.6484,53.5,128.6484" style="stroke:#B38D22;stroke-width:1.0;"/><text fill="#000000" font-family="sans-serif" font-size="14" lengthAdjust="spacing" textLength="209" x="66.5" y="132.9951">config: JSONDataSourceConfig</text><polygon fill="none" points="57.5,140.9453,61.5,144.9453,57.5,148.9453,53.5,144.9453" style="stroke:#B38D22;stroke-width:1.0;"/><text fill="#000000" font-family="sans-serif" font-size="14" lengthAdjust="spacing" textLength="146" x="66.5" y="149.292">current_file_index: int</text><polygon fill="none" points="57.5,157.2422,61.5,161.2422,57.5,165.2422,53.5,161.2422" style="stroke:#B38D22;stroke-width:1.0;"/><text fill="#000000" font-family="sans-serif" font-size="14" lengthAdjust="spacing" textLength="290" x="66.5" y="165.5889">current_parser: Iterator[OTelEvent] | None</text><polygon fill="none" points="57.5,173.5391,61.5,177.5391,57.5,181.5391,53.5,177.5391" style="stroke:#B38D22;stroke-width:1.0;"/><text fill="#000000" font-family="sans-serif" font-size="14" lengthAdjust="spacing" textLength="79" x="66.5" y="181.8857">dirpath : str</text><polygon fill="none" points="57.5,189.8359,61.5,193.8359,57.5,197.8359,53.5,193.8359" style="stroke:#B38D22;stroke-width:1.0;"/><text fill="#000000" font-family="sans-serif" font-size="14" lengthAdjust="spacing" textLength="77" x="66.5" y="198.1826">filepath: str</text><polygon fill="none" points="57.5,206.1328,61.5,210.1328,57.5,214.1328,53.5,210.1328" style="stroke:#B38D22;stroke-width:1.0;"/><text fill="#000000" font-family="sans-serif" font-size="14" lengthAdjust="spacing" textLength="101" x="66.5" y="214.4795">file_list: list[str]</text><line style="stroke:#181818;stroke-width:0.5;" x1="47.5" x2="468.5" y1="221.7813" y2="221.7813"/><ellipse cx="57.5" cy="235.4297" fill="#84BE84" rx="3" ry="3" style="stroke:#038048;stroke-width:1.0;"/><text fill="#000000" font-family="sans-serif" font-size="14" lengthAdjust="spacing" textLength="104" x="66.5" y="238.7764">__init__(): None</text><ellipse cx="57.5" cy="251.7266" fill="#84BE84" rx="3" ry="3" style="stroke:#038048;stroke-width:1.0;"/><text fill="#000000" font-family="sans-serif" font-size="14" lengthAdjust="spacing" textLength="148" x="66.5" y="255.0732">__next__(): OTelEvent</text><ellipse cx="57.5" cy="268.0234" fill="#84BE84" rx="3" ry="3" style="stroke:#038048;stroke-width:1.0;"/><text fill="#000000" font-family="sans-serif" font-size="14" lengthAdjust="spacing" textLength="356" x="66.5" y="271.3701">parse_json_stream(filepath: str): Iterator[OTelEvent]</text><ellipse cx="57.5" cy="284.3203" fill="#84BE84" rx="3" ry="3" style="stroke:#038048;stroke-width:1.0;"/><text fill="#000000" font-family="sans-serif" font-size="14" lengthAdjust="spacing" textLength="357" x="66.5" y="287.667">create_otel_object(record: dict[str, Any]): OTelEvent</text><ellipse cx="57.5" cy="300.6172" fill="#84BE84" rx="3" ry="3" style="stroke:#038048;stroke-width:1.0;"/><text fill="#000000" font-family="sans-serif" font-size="14" lengthAdjust="spacing" textLength="164" x="66.5" y="303.9639">set_dirpath(): str | None</text><ellipse cx="57.5" cy="316.9141" fill="#84BE84" rx="3" ry="3" style="stroke:#038048;stroke-width:1.0;"/><text fill="#000000" font-family="sans-serif" font-size="14" lengthAdjust="spacing" textLength="166" x="66.5" y="320.2607">set_filepath(): str | None</text><ellipse cx="57.5" cy="333.2109" fill="#84BE84" rx="3" ry="3" style="stroke:#038048;stroke-width:1.0;"/><text fill="#000000" font-family="sans-serif" font-size="14" lengthAdjust="spacing" textLength="141" x="66.5" y="336.5576">get_file_list(): list[str]</text><ellipse cx="57.5" cy="349.5078" fill="#84BE84" rx="3" ry="3" style="stroke:#038048;stroke-width:1.0;"/><text fill="#000000" font-family="sans-serif" font-size="14" lengthAdjust="spacing" textLength="397" x="66.5" y="352.8545">process_record(record: dict[str, Any]): Iterator[OTelEvent]</text></g><!--class SQLDataHolder--><g id="elem_SQLDataHolder"><rect codeLine="36" fill="#F1F1F1" height="113.1875" id="SQLDataHolder" rx="2.5" ry="2.5" style="stroke:#181818;stroke-width:0.5;" width="239" x="855.5" y="165.49"/><ellipse cx="918.75" cy="181.49" fill="#ADD1B2" rx="11" ry="11" style="stroke:#181818;stroke-width:1.0;"/><path d="M921.7188,187.1306 Q921.1406,187.4275 920.5,187.5681 Q919.8594,187.7244 919.1563,187.7244 Q916.6563,187.7244 915.3281,186.0838 Q914.0156,184.4275 914.0156,181.3025 Q914.0156,178.1775 915.3281,176.5213 Q916.6563,174.865 919.1563,174.865 Q919.8594,174.865 920.5,175.0213 Q921.1563,175.1775 921.7188,175.4744 L921.7188,178.1931 Q921.0938,177.615 920.5,177.3494 Q919.9063,177.0681 919.2813,177.0681 Q917.9375,177.0681 917.25,178.1463 Q916.5625,179.2088 916.5625,181.3025 Q916.5625,183.3963 917.25,184.4744 Q917.9375,185.5369 919.2813,185.5369 Q919.9063,185.5369 920.5,185.2713 Q921.0938,184.99 921.7188,184.4119 L921.7188,187.1306 Z " fill="#000000"/><text fill="#000000" font-family="sans-serif" font-size="14" lengthAdjust="spacing" textLength="104" x="939.25" y="186.3367">SQLDataHolder</text><line style="stroke:#181818;stroke-width:0.5;" x1="856.5" x2="1093.5" y1="197.49" y2="197.49"/><polygon fill="none" points="866.5,206.1384,870.5,210.1384,866.5,214.1384,862.5,210.1384" style="stroke:#B38D22;stroke-width:1.0;"/><text fill="#000000" font-family="sans-serif" font-size="14" lengthAdjust="spacing" textLength="213" x="875.5" y="214.4851">data_to_save: list&lt;OTelEvent&gt;</text><polygon fill="none" points="866.5,222.4353,870.5,226.4353,866.5,230.4353,862.5,226.4353" style="stroke:#B38D22;stroke-width:1.0;"/><text fill="#000000" font-family="sans-serif" font-size="14" lengthAdjust="spacing" textLength="100" x="875.5" y="230.782">batch_size: int</text><polygon fill="none" points="866.5,238.7322,870.5,242.7322,866.5,246.7322,862.5,242.7322" style="stroke:#B38D22;stroke-width:1.0;"/><text fill="#000000" font-family="sans-serif" font-size="14" lengthAdjust="spacing" textLength="75" x="875.5" y="247.0789">engine: str</text><line style="stroke:#181818;stroke-width:0.5;" x1="856.5" x2="1093.5" y1="254.3806" y2="254.3806"/><ellipse cx="866.5" cy="268.0291" fill="#84BE84" rx="3" ry="3" style="stroke:#038048;stroke-width:1.0;"/><text fill="#000000" font-family="sans-serif" font-size="14" lengthAdjust="spacing" textLength="174" x="875.5" y="271.3757">create_db_tables(): None</text></g><!--class DataHolder--><g id="elem_DataHolder"><rect codeLine="60" fill="#F1F1F1" height="64.2969" id="DataHolder" rx="2.5" ry="2.5" style="stroke:#181818;stroke-width:0.5;" width="222" x="856" y="428.31"/><ellipse cx="924.25" cy="444.31" fill="#A9DCDF" rx="11" ry="11" style="stroke:#181818;stroke-width:1.0;"/><path d="M924.3594,439.6537 L923.2031,444.7319 L925.5313,444.7319 L924.3594,439.6537 Z M922.875,437.4194 L925.8594,437.4194 L929.2188,449.81 L926.7656,449.81 L926,446.7475 L922.7188,446.7475 L921.9688,449.81 L919.5313,449.81 L922.875,437.4194 Z " fill="#000000"/><text fill="#000000" font-family="sans-serif" font-size="14" font-style="italic" lengthAdjust="spacing" textLength="77" x="944.75" y="449.1567">DataHolder</text><line style="stroke:#181818;stroke-width:0.5;" x1="857" x2="1077" y1="460.31" y2="460.31"/><line style="stroke:#181818;stroke-width:0.5;" x1="857" x2="1077" y1="468.31" y2="468.31"/><ellipse cx="867" cy="481.9584" fill="#84BE84" rx="3" ry="3" style="stroke:#038048;stroke-width:1.0;"/><text fill="#000000" font-family="sans-serif" font-size="14" lengthAdjust="spacing" textLength="196" x="876" y="485.3051">save_data(OTelEvent): None</text></g><!--class IngestData--><g id="elem_IngestData"><rect codeLine="64" fill="#F1F1F1" height="96.8906" id="IngestData" rx="2.5" ry="2.5" style="stroke:#181818;stroke-width:0.5;" width="274" x="526" y="173.64"/><ellipse cx="621.25" cy="189.64" fill="#ADD1B2" rx="11" ry="11" style="stroke:#181818;stroke-width:1.0;"/><path d="M624.2188,195.2806 Q623.6406,195.5775 623,195.7181 Q622.3594,195.8744 621.6563,195.8744 Q619.1563,195.8744 617.8281,194.2338 Q616.5156,192.5775 616.5156,189.4525 Q616.5156,186.3275 617.8281,184.6713 Q619.1563,183.015 621.6563,183.015 Q622.3594,183.015 623,183.1713 Q623.6563,183.3275 624.2188,183.6244 L624.2188,186.3431 Q623.5938,185.765 623,185.4994 Q622.4063,185.2181 621.7813,185.2181 Q620.4375,185.2181 619.75,186.2963 Q619.0625,187.3588 619.0625,189.4525 Q619.0625,191.5463 619.75,192.6244 Q620.4375,193.6869 621.7813,193.6869 Q622.4063,193.6869 623,193.4213 Q623.5938,193.14 624.2188,192.5619 L624.2188,195.2806 Z " fill="#000000"/><text fill="#000000" font-family="sans-serif" font-size="14" lengthAdjust="spacing" textLength="75" x="641.75" y="194.4867">IngestData</text><line style="stroke:#181818;stroke-width:0.5;" x1="527" x2="799" y1="205.64" y2="205.64"/><polygon fill="none" points="537,214.2884,541,218.2884,537,222.2884,533,218.2884" style="stroke:#B38D22;stroke-width:1.0;"/><text fill="#000000" font-family="sans-serif" font-size="14" lengthAdjust="spacing" textLength="248" x="546" y="222.6351">otel_data_source : OTELDataSource</text><polygon fill="none" points="537,230.5853,541,234.5853,537,238.5853,533,234.5853" style="stroke:#B38D22;stroke-width:1.0;"/><text fill="#000000" font-family="sans-serif" font-size="14" lengthAdjust="spacing" textLength="171" x="546" y="238.932">data_holder : DataHolder</text><line style="stroke:#181818;stroke-width:0.5;" x1="527" x2="799" y1="246.2338" y2="246.2338"/><ellipse cx="537" cy="259.8822" fill="#84BE84" rx="3" ry="3" style="stroke:#038048;stroke-width:1.0;"/><text fill="#000000" font-family="sans-serif" font-size="14" lengthAdjust="spacing" textLength="194" x="546" y="263.2289">load_to_data_holder(): None</text></g><!--link IngestData to OTELDataSource--><g id="link_IngestData_OTELDataSource"><path codeLine="94" d="M606.34,270.92 C554.4,314.76 482.9948,375.0396 434.4148,416.0496 " fill="none" id="IngestData-to-OTELDataSource" style="stroke:#181818;stroke-width:1.0;stroke-dasharray:7.0,7.0;"/><polygon fill="#181818" points="429.83,419.92,439.2874,417.171,433.6507,416.6947,434.1269,411.0579,429.83,419.92" style="stroke:#181818;stroke-width:1.0;"/></g><!--link IngestData to DataHolder--><g id="link_IngestData_DataHolder"><path codeLine="96" d="M724.52,270.92 C784.72,317.73 869.9633,384.0071 921.7033,424.2371 " fill="none" id="IngestData-to-DataHolder" style="stroke:#181818;stroke-width:1.0;stroke-dasharray:7.0,7.0;"/><polygon fill="#181818" points="926.44,427.92,921.7903,419.2378,922.4928,424.8509,916.8797,425.5534,926.44,427.92" style="stroke:#181818;stroke-width:1.0;"/></g><!--link OTELDataSource to OTelEvent--><g id="link_OTELDataSource_OTelEvent"><path codeLine="98" d="M422.48,501.08 C445.55,524.23 471.5054,550.2793 500.4854,579.3693 " fill="none" id="OTELDataSource-to-OTelEvent" style="stroke:#181818;stroke-width:1.0;stroke-dasharray:7.0,7.0;"/><polygon fill="#181818" points="504.72,583.62,501.2019,574.4209,501.1912,580.0778,495.5343,580.0671,504.72,583.62" style="stroke:#181818;stroke-width:1.0;"/></g><!--link JSONDataSource to OTELDataSource--><g id="link_JSONDataSource_OTELDataSource"><path codeLine="100" d="M330.71,360.58 C342.21,382.32 350.4256,397.8557 359.3556,414.7457 " fill="none" id="JSONDataSource-to-OTELDataSource" style="stroke:#181818;stroke-width:1.0;"/><polygon fill="#181818" points="362.16,420.05,361.4895,410.224,359.823,415.6298,354.4172,413.9632,362.16,420.05" style="stroke:#181818;stroke-width:1.0;"/></g><!--link SQLDataHolder to DataHolder--><g id="link_SQLDataHolder_DataHolder"><path codeLine="102" d="M973.1,279.1 C971.53,325.65 969.5424,384.2034 968.2624,422.1234 " fill="none" id="SQLDataHolder-to-DataHolder" style="stroke:#181818;stroke-width:1.0;"/><polygon fill="#181818" points="968.06,428.12,972.3613,419.2601,968.2287,423.1228,964.3659,418.9902,968.06,428.12" style="stroke:#181818;stroke-width:1.0;"/></g><!--link SQLDataHolder to NodeModel--><g id="link_SQLDataHolder_NodeModel"><path codeLine="104" d="M1024.7,279.14 C1072.36,340.07 1132.02,440.05 1095,524.75 C1087.04,542.96 1079.6127,555.3737 1066.6527,570.9837 " fill="none" id="SQLDataHolder-to-NodeModel" style="stroke:#181818;stroke-width:1.0;stroke-dasharray:7.0,7.0;"/><polygon fill="#181818" points="1062.82,575.6,1071.6466,571.2306,1066.0139,571.753,1065.4914,566.1204,1062.82,575.6" style="stroke:#181818;stroke-width:1.0;"/></g><!--link NodeModel to Base--><g id="link_NodeModel_Base"><path codeLine="106" d="M928.91,787.12 C929.46,817.68 929.9218,842.761 930.3218,864.931 " fill="none" id="NodeModel-to-Base" style="stroke:#181818;stroke-width:1.0;"/><polygon fill="#181818" points="930.43,870.93,934.267,861.8593,930.3398,865.9308,926.2683,862.0036,930.43,870.93" style="stroke:#181818;stroke-width:1.0;"/></g><!--link DataHolder to OTelEvent--><g id="link_DataHolder_OTelEvent"><path codeLine="108" d="M855.64,492.66 C825.8,503.26 794.28,516.61 767,532.75 C742.95,546.99 723.7643,561.0955 702.0943,579.5855 " fill="none" id="DataHolder-to-OTelEvent" style="stroke:#181818;stroke-width:1.0;stroke-dasharray:7.0,7.0;"/><polygon fill="#181818" points="697.53,583.48,706.9728,580.6811,701.3336,580.2346,701.7801,574.5954,697.53,583.48" style="stroke:#181818;stroke-width:1.0;"/></g><!--link JSONDataSource to JSONDataSourceConfig--><g id="link_JSONDataSource_JSONDataSourceConfig"><path codeLine="110" d="M265.82,360.55 C270.45,441.94 275.779,535.7597 279.549,601.9797 " fill="none" id="JSONDataSource-to-JSONDataSourceConfig" style="stroke:#181818;stroke-width:1.0;stroke-dasharray:7.0,7.0;"/><polygon fill="#181818" points="279.89,607.97,283.372,598.7572,279.6058,602.9781,275.3849,599.2119,279.89,607.97" style="stroke:#181818;stroke-width:1.0;"/></g><!--link JSONDataSourceConfig to HeaderSpec--><g id="link_JSONDataSourceConfig_HeaderSpec"><path codeLine="112" d="M383.8,754.41 C402.31,766.12 421.86,777.43 441,786.72 C518,824.11 547.85,807.64 624,846.72 C636.94,853.37 645.2418,858.548 656.8718,867.128 " fill="none" id="JSONDataSourceConfig-to-HeaderSpec" style="stroke:#181818;stroke-width:1.0;stroke-dasharray:7.0,7.0;"/><polygon fill="#181818" points="661.7,870.69,656.8323,862.1281,657.6765,867.7216,652.0829,868.5658,661.7,870.69" style="stroke:#181818;stroke-width:1.0;"/></g><!--link JSONDataSourceConfig to SpanSpec--><g id="link_JSONDataSourceConfig_SpanSpec"><path codeLine="114" d="M262.63,754.6 C251.01,793.94 238.9301,834.8359 230.0101,865.0259 " fill="none" id="JSONDataSourceConfig-to-SpanSpec" style="stroke:#181818;stroke-width:1.0;stroke-dasharray:7.0,7.0;"/><polygon fill="#181818" points="228.31,870.78,234.6962,863.2823,229.7268,865.9849,227.0241,861.0154,228.31,870.78" style="stroke:#181818;stroke-width:1.0;"/></g><!--link JSONDataSourceConfig to FieldSpec--><g id="link_JSONDataSourceConfig_FieldSpec"><path codeLine="116" d="M343.52,754.6 C368.04,784.42 392.1981,813.8065 415.1181,841.6665 " fill="none" id="JSONDataSourceConfig-to-FieldSpec" style="stroke:#181818;stroke-width:1.0;stroke-dasharray:7.0,7.0;"/><polygon fill="#181818" points="418.93,846.3,416.3011,836.8085,415.7534,842.4387,410.1231,841.891,418.93,846.3" style="stroke:#181818;stroke-width:1.0;"/></g><!--SRC=[jLPTJzim57tlhx3AIn7G7r1DI8mnmRI1fcvFgB8SvxOrS-B8TYkwZ_- -QpjVJKEJiC43gkyzEVVu-FecnkeDjqHPa5IaAp1Mg7Jgbp6pZ2Og1Zbz-0RoPWkf9Rz61F-UL4HJbi2C6AlBY8YhDJWqjRiCch4wobYc4IKIhCkIh0PDuxOmop8fE7CQ6_KpfXrvLU8XSoWc7n6ny12-5Z8k4QO6aS9OZpidzog5nUZFQCGY332qXajcpCi66RNH7D2XcyyVS3ttozocCqg51Ktfv7H6vY2NHJI5PnkYfREkPhzId-OFzmUbJhXAbs8r8_lPQn_D4HljFLeA2SWVm_EC22oybqGV3UWPkKFTp2hzM0fSaD_UdO2FXSwONPFg14uShuirGjIvEoEbnwKpgSWzA5bVSCQdl33wPF3aaGLOCjchTzegEJpA4Mw1UYDLz0JSJZHmfR5BOi6zgdDobUuMXrKDM9flrMb2PDq5dovajELNUTvxu00D5pAjE1X3WvoNLRLjhRjVrah6eAVphxupR_sgQ1SFi8eQjeKWwrt9VHaW4RDyJOtu2RK-WNGbqjgzAyoD8sfP9C6K1zgjByoMU_p_nVtAfRdBMvHxipc3zS4jsuRDNcx0n2aIm-PCBu_UCrDSzF4Op_DAyZKaEn83FewT8RP08eVnREFna06MTyb1Yvovrl2GITaPNMSRVlc7fdV-jwCjUguvoOYxRlMnMMlDe0eHbQwWIYeMkyQjeGQtNDkCp4KU3h7y-jS2ZaYgq1HLU0qiTfEpkhotFZBFW8VhRZAMqWGx2fNLSNECLwYb06oV5jX7bmYulXkj5EJRSpinzJ7KbwdGcFFyW1rzDLUvaMDaHMBBv0QQTsZlvRu8O0yiUFh2m-3udc8wc2poqTgliQVJou5V1l-5-U3A7h1sVPySfMzyytMJDxv8BYx-sPMEbzZH2aFSQMNlOKxvqZh2tNoz7HLTpVbkjSEalluSUv2tVcsENZD-UnIhfjcRbIZ6t9iLA6VVNm00]--></g></svg>