<?xml version="1.0" encoding="us-ascii" standalone="no"?><svg xmlns="http://www.w3.org/2000/svg" xmlns:xlink="http://www.w3.org/1999/xlink" contentStyleType="text/css" height="901px" preserveAspectRatio="none" style="width:766px;height:901px;background:#FFFFFF;" version="1.1" viewBox="0 0 766 901" width="766px" zoomAndPan="magnify"><defs/><g><!--class OTelEvent--><g id="elem_OTelEvent"><rect codeLine="2" fill="#F1F1F1" height="194.6719" id="OTelEvent" rx="2.5" ry="2.5" style="stroke:#181818;stroke-width:0.5;" width="285" x="181.5" y="699.75"/><ellipse cx="284.25" cy="715.75" fill="#F1F1F1" rx="11" ry="11" style="stroke:#181818;stroke-width:1.0;"/><path d="M283.7344,716.3125 Q281.875,715.6094 281.2188,714.8438 Q280.5781,714.0625 280.5781,712.75 Q280.5781,711.0625 281.6563,710.0938 Q282.7344,709.125 284.6094,709.125 Q285.4688,709.125 286.3125,709.3281 Q287.1719,709.5156 288.0156,709.9063 L288.0156,712.2969 Q287.2344,711.7344 286.4063,711.4531 Q285.5938,711.1563 284.7969,711.1563 Q283.9219,711.1563 283.4375,711.5156 Q282.9688,711.875 282.9688,712.5313 Q282.9688,713.0469 283.3125,713.3906 Q283.6563,713.7188 284.75,714.125 L285.8125,714.5313 Q287.2969,715.0781 288,715.9844 Q288.7188,716.8906 288.7188,718.2656 Q288.7188,720.1406 287.6094,721.0625 Q286.5,721.9844 284.25,721.9844 Q283.3281,721.9844 282.4063,721.7656 Q281.4844,721.5469 280.625,721.125 L280.625,718.5938 Q281.5938,719.2813 282.5156,719.625 Q283.4375,719.9688 284.3281,719.9688 Q285.2344,719.9688 285.7344,719.5625 Q286.2344,719.1406 286.2344,718.4063 Q286.2344,717.8438 285.8906,717.4375 Q285.5625,717.0156 284.9375,716.7656 L283.7344,716.3125 Z " fill="#000000"/><text fill="#000000" font-family="sans-serif" font-size="14" lengthAdjust="spacing" textLength="71" x="304.75" y="720.5967">OTelEvent</text><line style="stroke:#181818;stroke-width:0.5;" x1="182.5" x2="465.5" y1="731.75" y2="731.75"/><text fill="#000000" font-family="sans-serif" font-size="14" lengthAdjust="spacing" textLength="94" x="187.5" y="748.7451">job_name: str</text><text fill="#000000" font-family="sans-serif" font-size="14" lengthAdjust="spacing" textLength="67" x="187.5" y="765.042">job_id: str</text><text fill="#000000" font-family="sans-serif" font-size="14" lengthAdjust="spacing" textLength="103" x="187.5" y="781.3389">event_type: str</text><text fill="#000000" font-family="sans-serif" font-size="14" lengthAdjust="spacing" textLength="85" x="187.5" y="797.6357">event_id: str</text><text fill="#000000" font-family="sans-serif" font-size="14" lengthAdjust="spacing" textLength="138" x="187.5" y="813.9326">start_timestamp: str</text><text fill="#000000" font-family="sans-serif" font-size="14" lengthAdjust="spacing" textLength="134" x="187.5" y="830.2295">end_timestamp: str</text><text fill="#000000" font-family="sans-serif" font-size="14" lengthAdjust="spacing" textLength="147" x="187.5" y="846.5264">application_name: str</text><text fill="#000000" font-family="sans-serif" font-size="14" lengthAdjust="spacing" textLength="137" x="187.5" y="862.8232">parent_event_id: str</text><text fill="#000000" font-family="sans-serif" font-size="14" lengthAdjust="spacing" textLength="273" x="187.5" y="879.1201">child_event_ids: Optional[list[str], None]</text><line style="stroke:#181818;stroke-width:0.5;" x1="182.5" x2="465.5" y1="886.4219" y2="886.4219"/></g><!--class OTELDataSource--><g id="elem_OTELDataSource"><rect codeLine="14" fill="#F1F1F1" height="80.5938" id="OTELDataSource" rx="2.5" ry="2.5" style="stroke:#181818;stroke-width:0.5;" width="174" x="121" y="559.15"/><ellipse cx="147.25" cy="575.15" fill="#A9DCDF" rx="11" ry="11" style="stroke:#181818;stroke-width:1.0;"/><path d="M147.3594,570.4938 L146.2031,575.5719 L148.5313,575.5719 L147.3594,570.4938 Z M145.875,568.2594 L148.8594,568.2594 L152.2188,580.65 L149.7656,580.65 L149,577.5875 L145.7188,577.5875 L144.9688,580.65 L142.5313,580.65 L145.875,568.2594 Z " fill="#000000"/><text fill="#000000" font-family="sans-serif" font-size="14" font-style="italic" lengthAdjust="spacing" textLength="117" x="163.75" y="579.9967">OTELDataSource</text><line style="stroke:#181818;stroke-width:0.5;" x1="122" x2="294" y1="591.15" y2="591.15"/><line style="stroke:#181818;stroke-width:0.5;" x1="122" x2="294" y1="599.15" y2="599.15"/><ellipse cx="132" cy="612.7984" fill="#84BE84" rx="3" ry="3" style="stroke:#038048;stroke-width:1.0;"/><text fill="#000000" font-family="sans-serif" font-size="14" lengthAdjust="spacing" textLength="93" x="141" y="616.1451">__iter__(): self</text><ellipse cx="132" cy="629.0953" fill="#84BE84" rx="3" ry="3" style="stroke:#038048;stroke-width:1.0;"/><text fill="#000000" font-family="sans-serif" font-size="14" lengthAdjust="spacing" textLength="148" x="141" y="632.442">__next__(): OTelEvent</text></g><!--class JSONDataSource--><g id="elem_JSONDataSource"><rect codeLine="19" fill="#F1F1F1" height="48" id="JSONDataSource" rx="2.5" ry="2.5" style="stroke:#181818;stroke-width:0.5;" width="146" x="7" y="418.56"/><ellipse cx="22" cy="434.56" fill="#ADD1B2" rx="11" ry="11" style="stroke:#181818;stroke-width:1.0;"/><path d="M24.9688,440.2006 Q24.3906,440.4975 23.75,440.6381 Q23.1094,440.7944 22.4063,440.7944 Q19.9063,440.7944 18.5781,439.1537 Q17.2656,437.4975 17.2656,434.3725 Q17.2656,431.2475 18.5781,429.5912 Q19.9063,427.935 22.4063,427.935 Q23.1094,427.935 23.75,428.0912 Q24.4063,428.2475 24.9688,428.5444 L24.9688,431.2631 Q24.3438,430.685 23.75,430.4194 Q23.1563,430.1381 22.5313,430.1381 Q21.1875,430.1381 20.5,431.2162 Q19.8125,432.2787 19.8125,434.3725 Q19.8125,436.4662 20.5,437.5444 Q21.1875,438.6069 22.5313,438.6069 Q23.1563,438.6069 23.75,438.3412 Q24.3438,438.06 24.9688,437.4819 L24.9688,440.2006 Z " fill="#000000"/><text fill="#000000" font-family="sans-serif" font-size="14" lengthAdjust="spacing" textLength="114" x="36" y="439.4067">JSONDataSource</text><line style="stroke:#181818;stroke-width:0.5;" x1="8" x2="152" y1="450.56" y2="450.56"/><line style="stroke:#181818;stroke-width:0.5;" x1="8" x2="152" y1="458.56" y2="458.56"/></g><!--class SQLDataHolder--><g id="elem_SQLDataHolder"><rect codeLine="21" fill="#F1F1F1" height="113.1875" id="SQLDataHolder" rx="2.5" ry="2.5" style="stroke:#181818;stroke-width:0.5;" width="239" x="497.5" y="385.97"/><ellipse cx="560.75" cy="401.97" fill="#ADD1B2" rx="11" ry="11" style="stroke:#181818;stroke-width:1.0;"/><path d="M563.7188,407.6106 Q563.1406,407.9075 562.5,408.0481 Q561.8594,408.2044 561.1563,408.2044 Q558.6563,408.2044 557.3281,406.5637 Q556.0156,404.9075 556.0156,401.7825 Q556.0156,398.6575 557.3281,397.0012 Q558.6563,395.345 561.1563,395.345 Q561.8594,395.345 562.5,395.5012 Q563.1563,395.6575 563.7188,395.9544 L563.7188,398.6731 Q563.0938,398.095 562.5,397.8294 Q561.9063,397.5481 561.2813,397.5481 Q559.9375,397.5481 559.25,398.6262 Q558.5625,399.6887 558.5625,401.7825 Q558.5625,403.8762 559.25,404.9544 Q559.9375,406.0169 561.2813,406.0169 Q561.9063,406.0169 562.5,405.7512 Q563.0938,405.47 563.7188,404.8919 L563.7188,407.6106 Z " fill="#000000"/><text fill="#000000" font-family="sans-serif" font-size="14" lengthAdjust="spacing" textLength="104" x="581.25" y="406.8167">SQLDataHolder</text><line style="stroke:#181818;stroke-width:0.5;" x1="498.5" x2="735.5" y1="417.97" y2="417.97"/><polygon fill="none" points="508.5,426.6184,512.5,430.6184,508.5,434.6184,504.5,430.6184" style="stroke:#B38D22;stroke-width:1.0;"/><text fill="#000000" font-family="sans-serif" font-size="14" lengthAdjust="spacing" textLength="213" x="517.5" y="434.9651">data_to_save: list&lt;OTelEvent&gt;</text><polygon fill="none" points="508.5,442.9153,512.5,446.9153,508.5,450.9153,504.5,446.9153" style="stroke:#B38D22;stroke-width:1.0;"/><text fill="#000000" font-family="sans-serif" font-size="14" lengthAdjust="spacing" textLength="100" x="517.5" y="451.262">batch_size: int</text><polygon fill="none" points="508.5,459.2122,512.5,463.2122,508.5,467.2122,504.5,463.2122" style="stroke:#B38D22;stroke-width:1.0;"/><text fill="#000000" font-family="sans-serif" font-size="14" lengthAdjust="spacing" textLength="75" x="517.5" y="467.5589">engine: str</text><line style="stroke:#181818;stroke-width:0.5;" x1="498.5" x2="735.5" y1="474.8606" y2="474.8606"/><ellipse cx="508.5" cy="488.5091" fill="#84BE84" rx="3" ry="3" style="stroke:#038048;stroke-width:1.0;"/><text fill="#000000" font-family="sans-serif" font-size="14" lengthAdjust="spacing" textLength="174" x="517.5" y="491.8557">create_db_tables(): None</text></g><!--class NodeModel--><g id="elem_NodeModel"><rect codeLine="28" fill="#F1F1F1" height="194.6719" id="NodeModel" rx="2.5" ry="2.5" style="stroke:#181818;stroke-width:0.5;" width="285" x="474.5" y="131.29"/><ellipse cx="573.25" cy="147.29" fill="#ADD1B2" rx="11" ry="11" style="stroke:#181818;stroke-width:1.0;"/><path d="M576.2188,152.9306 Q575.6406,153.2275 575,153.3681 Q574.3594,153.5244 573.6563,153.5244 Q571.1563,153.5244 569.8281,151.8837 Q568.5156,150.2275 568.5156,147.1025 Q568.5156,143.9775 569.8281,142.3212 Q571.1563,140.665 573.6563,140.665 Q574.3594,140.665 575,140.8212 Q575.6563,140.9775 576.2188,141.2744 L576.2188,143.9931 Q575.5938,143.415 575,143.1494 Q574.4063,142.8681 573.7813,142.8681 Q572.4375,142.8681 571.75,143.9462 Q571.0625,145.0087 571.0625,147.1025 Q571.0625,149.1962 571.75,150.2744 Q572.4375,151.3369 573.7813,151.3369 Q574.4063,151.3369 575,151.0712 Q575.5938,150.79 576.2188,150.2119 L576.2188,152.9306 Z " fill="#000000"/><text fill="#000000" font-family="sans-serif" font-size="14" lengthAdjust="spacing" textLength="79" x="593.75" y="152.1367">NodeModel</text><line style="stroke:#181818;stroke-width:0.5;" x1="475.5" x2="758.5" y1="163.29" y2="163.29"/><text fill="#000000" font-family="sans-serif" font-size="14" lengthAdjust="spacing" textLength="94" x="480.5" y="180.2851">job_name: str</text><text fill="#000000" font-family="sans-serif" font-size="14" lengthAdjust="spacing" textLength="67" x="480.5" y="196.582">job_id: str</text><text fill="#000000" font-family="sans-serif" font-size="14" lengthAdjust="spacing" textLength="103" x="480.5" y="212.8789">event_type: str</text><text fill="#000000" font-family="sans-serif" font-size="14" lengthAdjust="spacing" textLength="85" x="480.5" y="229.1757">event_id: str</text><text fill="#000000" font-family="sans-serif" font-size="14" lengthAdjust="spacing" textLength="138" x="480.5" y="245.4726">start_timestamp: str</text><text fill="#000000" font-family="sans-serif" font-size="14" lengthAdjust="spacing" textLength="134" x="480.5" y="261.7695">end_timestamp: str</text><text fill="#000000" font-family="sans-serif" font-size="14" lengthAdjust="spacing" textLength="147" x="480.5" y="278.0664">application_name: str</text><text fill="#000000" font-family="sans-serif" font-size="14" lengthAdjust="spacing" textLength="137" x="480.5" y="294.3632">parent_event_id: str</text><text fill="#000000" font-family="sans-serif" font-size="14" lengthAdjust="spacing" textLength="273" x="480.5" y="310.6601">child_event_ids: Optional[list[str], None]</text><line style="stroke:#181818;stroke-width:0.5;" x1="475.5" x2="758.5" y1="317.9619" y2="317.9619"/></g><!--class Base--><g id="elem_Base"><rect codeLine="40" fill="#F1F1F1" height="64.2969" id="Base" rx="2.5" ry="2.5" style="stroke:#181818;stroke-width:0.5;" width="276" x="479" y="7"/><ellipse cx="595.25" cy="23" fill="#ADD1B2" rx="11" ry="11" style="stroke:#181818;stroke-width:1.0;"/><path d="M598.2188,28.6406 Q597.6406,28.9375 597,29.0781 Q596.3594,29.2344 595.6563,29.2344 Q593.1563,29.2344 591.8281,27.5938 Q590.5156,25.9375 590.5156,22.8125 Q590.5156,19.6875 591.8281,18.0313 Q593.1563,16.375 595.6563,16.375 Q596.3594,16.375 597,16.5313 Q597.6563,16.6875 598.2188,16.9844 L598.2188,19.7031 Q597.5938,19.125 597,18.8594 Q596.4063,18.5781 595.7813,18.5781 Q594.4375,18.5781 593.75,19.6563 Q593.0625,20.7188 593.0625,22.8125 Q593.0625,24.9063 593.75,25.9844 Q594.4375,27.0469 595.7813,27.0469 Q596.4063,27.0469 597,26.7813 Q597.5938,26.5 598.2188,25.9219 L598.2188,28.6406 Z " fill="#000000"/><text fill="#000000" font-family="sans-serif" font-size="14" lengthAdjust="spacing" textLength="35" x="615.75" y="27.8467">Base</text><line style="stroke:#181818;stroke-width:0.5;" x1="480" x2="754" y1="39" y2="39"/><text fill="#000000" font-family="monospace" font-size="14" lengthAdjust="spacing" textLength="264" x="485" y="55.9951">SQLAlchemy&#160;declarative&#160;base&#160;class</text><line style="stroke:#181818;stroke-width:0.5;" x1="480" x2="754" y1="63.2969" y2="63.2969"/></g><!--class DataHolder--><g id="elem_DataHolder"><rect codeLine="44" fill="#F1F1F1" height="64.2969" id="DataHolder" rx="2.5" ry="2.5" style="stroke:#181818;stroke-width:0.5;" width="222" x="330" y="567.3"/><ellipse cx="398.25" cy="583.3" fill="#A9DCDF" rx="11" ry="11" style="stroke:#181818;stroke-width:1.0;"/><path d="M398.3594,578.6438 L397.2031,583.7219 L399.5313,583.7219 L398.3594,578.6438 Z M396.875,576.4094 L399.8594,576.4094 L403.2188,588.8 L400.7656,588.8 L400,585.7375 L396.7188,585.7375 L395.9688,588.8 L393.5313,588.8 L396.875,576.4094 Z " fill="#000000"/><text fill="#000000" font-family="sans-serif" font-size="14" font-style="italic" lengthAdjust="spacing" textLength="77" x="418.75" y="588.1467">DataHolder</text><line style="stroke:#181818;stroke-width:0.5;" x1="331" x2="551" y1="599.3" y2="599.3"/><line style="stroke:#181818;stroke-width:0.5;" x1="331" x2="551" y1="607.3" y2="607.3"/><ellipse cx="341" cy="620.9484" fill="#84BE84" rx="3" ry="3" style="stroke:#038048;stroke-width:1.0;"/><text fill="#000000" font-family="sans-serif" font-size="14" lengthAdjust="spacing" textLength="196" x="350" y="624.2951">save_data(OTelEvent): None</text></g><!--class IngestData--><g id="elem_IngestData"><rect codeLine="48" fill="#F1F1F1" height="96.8906" id="IngestData" rx="2.5" ry="2.5" style="stroke:#181818;stroke-width:0.5;" width="274" x="188" y="394.12"/><ellipse cx="283.25" cy="410.12" fill="#ADD1B2" rx="11" ry="11" style="stroke:#181818;stroke-width:1.0;"/><path d="M286.2188,415.7606 Q285.6406,416.0575 285,416.1981 Q284.3594,416.3544 283.6563,416.3544 Q281.1563,416.3544 279.8281,414.7137 Q278.5156,413.0575 278.5156,409.9325 Q278.5156,406.8075 279.8281,405.1512 Q281.1563,403.495 283.6563,403.495 Q284.3594,403.495 285,403.6512 Q285.6563,403.8075 286.2188,404.1044 L286.2188,406.8231 Q285.5938,406.245 285,405.9794 Q284.4063,405.6981 283.7813,405.6981 Q282.4375,405.6981 281.75,406.7762 Q281.0625,407.8387 281.0625,409.9325 Q281.0625,412.0262 281.75,413.1044 Q282.4375,414.1669 283.7813,414.1669 Q284.4063,414.1669 285,413.9012 Q285.5938,413.62 286.2188,413.0419 L286.2188,415.7606 Z " fill="#000000"/><text fill="#000000" font-family="sans-serif" font-size="14" lengthAdjust="spacing" textLength="75" x="303.75" y="414.9667">IngestData</text><line style="stroke:#181818;stroke-width:0.5;" x1="189" x2="461" y1="426.12" y2="426.12"/><polygon fill="none" points="199,434.7684,203,438.7684,199,442.7684,195,438.7684" style="stroke:#B38D22;stroke-width:1.0;"/><text fill="#000000" font-family="sans-serif" font-size="14" lengthAdjust="spacing" textLength="248" x="208" y="443.1151">otel_data_source : OTELDataSource</text><polygon fill="none" points="199,451.0653,203,455.0653,199,459.0653,195,455.0653" style="stroke:#B38D22;stroke-width:1.0;"/><text fill="#000000" font-family="sans-serif" font-size="14" lengthAdjust="spacing" textLength="171" x="208" y="459.412">data_holder : DataHolder</text><line style="stroke:#181818;stroke-width:0.5;" x1="189" x2="461" y1="466.7137" y2="466.7137"/><ellipse cx="199" cy="480.3622" fill="#84BE84" rx="3" ry="3" style="stroke:#038048;stroke-width:1.0;"/><text fill="#000000" font-family="sans-serif" font-size="14" lengthAdjust="spacing" textLength="194" x="208" y="483.7089">load_to_data_holder(): None</text></g><!--link IngestData to OTELDataSource--><g id="link_IngestData_OTELDataSource"><path codeLine="54" d="M288.94,491.3 C272.63,512.9 257.176,533.342 241.656,553.892 " fill="none" id="IngestData-to-OTELDataSource" style="stroke:#181818;stroke-width:1.0;stroke-dasharray:7.0,7.0;"/><polygon fill="#181818" points="238.04,558.68,246.656,553.9087,241.0533,554.69,240.272,549.0874,238.04,558.68" style="stroke:#181818;stroke-width:1.0;"/></g><!--link IngestData to DataHolder--><g id="link_IngestData_DataHolder"><path codeLine="55" d="M360.75,491.3 C379.26,516.01 397.7349,540.6663 414.0349,562.4463 " fill="none" id="IngestData-to-DataHolder" style="stroke:#181818;stroke-width:1.0;stroke-dasharray:7.0,7.0;"/><polygon fill="#181818" points="417.63,567.25,415.4399,557.6477,414.6341,563.2469,409.0349,562.4412,417.63,567.25" style="stroke:#181818;stroke-width:1.0;"/></g><!--link OTELDataSource to OTelEvent--><g id="link_OTELDataSource_OTelEvent"><path codeLine="56" d="M231.47,640.04 C241.74,657.35 251.1994,673.3093 263.6894,694.3693 " fill="none" id="OTELDataSource-to-OTelEvent" style="stroke:#181818;stroke-width:1.0;stroke-dasharray:7.0,7.0;"/><polygon fill="#181818" points="266.75,699.53,265.5995,689.7486,264.1995,695.2294,258.7186,693.8294,266.75,699.53" style="stroke:#181818;stroke-width:1.0;"/></g><!--reverse link JSONDataSource to OTELDataSource--><g id="link_JSONDataSource_OTELDataSource"><path codeLine="57" d="M102.9831,471.3743 C123.0731,495.6743 151.17,529.69 175.27,558.84 " fill="none" id="JSONDataSource-backto-OTELDataSource" style="stroke:#181818;stroke-width:1.0;"/><polygon fill="#181818" points="99.16,466.75,101.8118,476.2351,102.3459,470.6036,107.9775,471.1377,99.16,466.75" style="stroke:#181818;stroke-width:1.0;"/></g><!--reverse link SQLDataHolder to DataHolder--><g id="link_SQLDataHolder_DataHolder"><path codeLine="58" d="M548.9554,503.4434 C523.1554,526.1434 498.82,547.57 476.8,566.94 " fill="none" id="SQLDataHolder-backto-DataHolder" style="stroke:#181818;stroke-width:1.0;"/><polygon fill="#181818" points="553.46,499.48,544.0608,502.422,549.7061,502.7828,549.3453,508.4281,553.46,499.48" style="stroke:#181818;stroke-width:1.0;"/></g><!--reverse link NodeModel to SQLDataHolder--><g id="link_NodeModel_SQLDataHolder"><path codeLine="59" d="M617,332.29 C617,352.6 617,367.36 617,385.57 " fill="none" id="NodeModel-backto-SQLDataHolder" style="stroke:#181818;stroke-width:1.0;stroke-dasharray:7.0,7.0;"/><polygon fill="#181818" points="617,326.29,613,335.29,617,331.29,621,335.29,617,326.29" style="stroke:#181818;stroke-width:1.0;"/></g><!--link Base to NodeModel--><g id="link_Base_NodeModel"><path codeLine="60" d="M617,71.53 C617,88.1 617,103.44 617,124.98 " fill="none" id="Base-to-NodeModel" style="stroke:#181818;stroke-width:1.0;"/><polygon fill="#181818" points="617,130.98,621,121.98,617,125.98,613,121.98,617,130.98" style="stroke:#181818;stroke-width:1.0;"/></g><!--link DataHolder to OTelEvent--><g id="link_DataHolder_OTelEvent"><path codeLine="61" d="M422.2,631.88 C411.09,650.46 399.4399,669.9408 384.7799,694.4508 " fill="none" id="DataHolder-to-OTelEvent" style="stroke:#181818;stroke-width:1.0;stroke-dasharray:7.0,7.0;"/><polygon fill="#181818" points="381.7,699.6,389.7526,693.9294,384.2666,695.309,382.887,689.8229,381.7,699.6" style="stroke:#181818;stroke-width:1.0;"/></g><!--SRC=[tLBHIiCm57tlLuJvCfdT1umnK1oew8RCjp72RNFT8cbIacmunN_tfhLjrkqBB1JQavDpSdEEytQVUxPyGpK_eFRiEs7qV9YCQoXmmfotBI95zu-1pVsnn3uMivm7IonP87qLPKJLuX8CPQba3buQtVClmGRnSujy9vLeSJTXop9i1xLMqlarqJOtR64qRfAV986C0A29SmNEqTppvtlmi39xc-FVy2FEfKVB-V2QR52zDwZ6Jr-ZxNq5pLhgQRLST58Dkdgjz1-C4cZ_zAy48TmRxk104uPZJbl1MKt9mESxxkGN4IJPL23ghTJHdOnoY-2HYunxo1IwSBGmQdUgXH7uGg_wxy7Muzw1Qr8S3EZkRrM-m-B81DAw9Vi3iYnmAlfWSA4IPt6DGamyP3PiKpgxvqUzfP73tYPaur5LkxYhopNfjItgmgxscqJcjRKo849J8bQSSUGw7i_w-htLIBjN-tflq-ZJ8hDfclQ5JqiT295srxZfU7pQ_wIA9qrdNIsJIEZq6Cal]--></g></svg>