<?xml version="1.0" encoding="us-ascii" standalone="no"?><svg xmlns="http://www.w3.org/2000/svg" xmlns:xlink="http://www.w3.org/1999/xlink" contentStyleType="text/css" height="636px" preserveAspectRatio="none" style="width:766px;height:636px;background:#FFFFFF;" version="1.1" viewBox="0 0 766 636" width="766px" zoomAndPan="magnify"><defs/><g><!--class OTelEvent--><g id="elem_OTelEvent"><rect codeLine="2" fill="#F1F1F1" height="194.6719" id="OTelEvent" rx="2.5" ry="2.5" style="stroke:#181818;stroke-width:0.5;" width="285" x="54.5" y="434.86"/><ellipse cx="157.25" cy="450.86" fill="#F1F1F1" rx="11" ry="11" style="stroke:#181818;stroke-width:1.0;"/><path d="M156.7344,451.4225 Q154.875,450.7194 154.2188,449.9538 Q153.5781,449.1725 153.5781,447.86 Q153.5781,446.1725 154.6563,445.2038 Q155.7344,444.235 157.6094,444.235 Q158.4688,444.235 159.3125,444.4381 Q160.1719,444.6256 161.0156,445.0163 L161.0156,447.4069 Q160.2344,446.8444 159.4063,446.5631 Q158.5938,446.2663 157.7969,446.2663 Q156.9219,446.2663 156.4375,446.6256 Q155.9688,446.985 155.9688,447.6413 Q155.9688,448.1569 156.3125,448.5006 Q156.6563,448.8288 157.75,449.235 L158.8125,449.6413 Q160.2969,450.1881 161,451.0944 Q161.7188,452.0006 161.7188,453.3756 Q161.7188,455.2506 160.6094,456.1725 Q159.5,457.0944 157.25,457.0944 Q156.3281,457.0944 155.4063,456.8756 Q154.4844,456.6569 153.625,456.235 L153.625,453.7038 Q154.5938,454.3913 155.5156,454.735 Q156.4375,455.0788 157.3281,455.0788 Q158.2344,455.0788 158.7344,454.6725 Q159.2344,454.2506 159.2344,453.5163 Q159.2344,452.9538 158.8906,452.5475 Q158.5625,452.1256 157.9375,451.8756 L156.7344,451.4225 Z " fill="#000000"/><text fill="#000000" font-family="sans-serif" font-size="14" lengthAdjust="spacing" textLength="71" x="177.75" y="455.7067">OTelEvent</text><line style="stroke:#181818;stroke-width:0.5;" x1="55.5" x2="338.5" y1="466.86" y2="466.86"/><text fill="#000000" font-family="sans-serif" font-size="14" lengthAdjust="spacing" textLength="94" x="60.5" y="483.8551">job_name: str</text><text fill="#000000" font-family="sans-serif" font-size="14" lengthAdjust="spacing" textLength="67" x="60.5" y="500.152">job_id: str</text><text fill="#000000" font-family="sans-serif" font-size="14" lengthAdjust="spacing" textLength="103" x="60.5" y="516.4489">event_type: str</text><text fill="#000000" font-family="sans-serif" font-size="14" lengthAdjust="spacing" textLength="85" x="60.5" y="532.7457">event_id: str</text><text fill="#000000" font-family="sans-serif" font-size="14" lengthAdjust="spacing" textLength="138" x="60.5" y="549.0426">start_timestamp: str</text><text fill="#000000" font-family="sans-serif" font-size="14" lengthAdjust="spacing" textLength="134" x="60.5" y="565.3395">end_timestamp: str</text><text fill="#000000" font-family="sans-serif" font-size="14" lengthAdjust="spacing" textLength="147" x="60.5" y="581.6364">application_name: str</text><text fill="#000000" font-family="sans-serif" font-size="14" lengthAdjust="spacing" textLength="137" x="60.5" y="597.9332">parent_event_id: str</text><text fill="#000000" font-family="sans-serif" font-size="14" lengthAdjust="spacing" textLength="273" x="60.5" y="614.2301">child_event_ids: Optional[list[str], None]</text><line style="stroke:#181818;stroke-width:0.5;" x1="55.5" x2="338.5" y1="621.5319" y2="621.5319"/></g><!--class OTELDataSource--><g id="elem_OTELDataSource"><rect codeLine="14" fill="#F1F1F1" height="80.5938" id="OTELDataSource" rx="2.5" ry="2.5" style="stroke:#181818;stroke-width:0.5;" width="174" x="7" y="237.23"/><ellipse cx="33.25" cy="253.23" fill="#A9DCDF" rx="11" ry="11" style="stroke:#181818;stroke-width:1.0;"/><path d="M33.3594,248.5737 L32.2031,253.6519 L34.5313,253.6519 L33.3594,248.5737 Z M31.875,246.3394 L34.8594,246.3394 L38.2188,258.73 L35.7656,258.73 L35,255.6675 L31.7188,255.6675 L30.9688,258.73 L28.5313,258.73 L31.875,246.3394 Z " fill="#000000"/><text fill="#000000" font-family="sans-serif" font-size="14" font-style="italic" lengthAdjust="spacing" textLength="117" x="49.75" y="258.0767">OTELDataSource</text><line style="stroke:#181818;stroke-width:0.5;" x1="8" x2="180" y1="269.23" y2="269.23"/><line style="stroke:#181818;stroke-width:0.5;" x1="8" x2="180" y1="277.23" y2="277.23"/><ellipse cx="18" cy="290.8784" fill="#84BE84" rx="3" ry="3" style="stroke:#038048;stroke-width:1.0;"/><text fill="#000000" font-family="sans-serif" font-size="14" lengthAdjust="spacing" textLength="93" x="27" y="294.2251">__iter__(): self</text><ellipse cx="18" cy="307.1753" fill="#84BE84" rx="3" ry="3" style="stroke:#038048;stroke-width:1.0;"/><text fill="#000000" font-family="sans-serif" font-size="14" lengthAdjust="spacing" textLength="148" x="27" y="310.522">__next__(): OTelEvent</text></g><!--class JSONDataSource--><g id="elem_JSONDataSource"><rect codeLine="19" fill="#F1F1F1" height="48" id="JSONDataSource" rx="2.5" ry="2.5" style="stroke:#181818;stroke-width:0.5;" width="146" x="7" y="39.59"/><ellipse cx="22" cy="55.59" fill="#ADD1B2" rx="11" ry="11" style="stroke:#181818;stroke-width:1.0;"/><path d="M24.9688,61.2306 Q24.3906,61.5275 23.75,61.6681 Q23.1094,61.8244 22.4063,61.8244 Q19.9063,61.8244 18.5781,60.1837 Q17.2656,58.5275 17.2656,55.4025 Q17.2656,52.2775 18.5781,50.6212 Q19.9063,48.965 22.4063,48.965 Q23.1094,48.965 23.75,49.1212 Q24.4063,49.2775 24.9688,49.5744 L24.9688,52.2931 Q24.3438,51.715 23.75,51.4494 Q23.1563,51.1681 22.5313,51.1681 Q21.1875,51.1681 20.5,52.2462 Q19.8125,53.3087 19.8125,55.4025 Q19.8125,57.4962 20.5,58.5744 Q21.1875,59.6369 22.5313,59.6369 Q23.1563,59.6369 23.75,59.3712 Q24.3438,59.09 24.9688,58.5119 L24.9688,61.2306 Z " fill="#000000"/><text fill="#000000" font-family="sans-serif" font-size="14" lengthAdjust="spacing" textLength="114" x="36" y="60.4367">JSONDataSource</text><line style="stroke:#181818;stroke-width:0.5;" x1="8" x2="152" y1="71.59" y2="71.59"/><line style="stroke:#181818;stroke-width:0.5;" x1="8" x2="152" y1="79.59" y2="79.59"/></g><!--class SQLDataHolder--><g id="elem_SQLDataHolder"><rect codeLine="21" fill="#F1F1F1" height="113.1875" id="SQLDataHolder" rx="2.5" ry="2.5" style="stroke:#181818;stroke-width:0.5;" width="239" x="497.5" y="7"/><ellipse cx="560.75" cy="23" fill="#ADD1B2" rx="11" ry="11" style="stroke:#181818;stroke-width:1.0;"/><path d="M563.7188,28.6406 Q563.1406,28.9375 562.5,29.0781 Q561.8594,29.2344 561.1563,29.2344 Q558.6563,29.2344 557.3281,27.5938 Q556.0156,25.9375 556.0156,22.8125 Q556.0156,19.6875 557.3281,18.0313 Q558.6563,16.375 561.1563,16.375 Q561.8594,16.375 562.5,16.5313 Q563.1563,16.6875 563.7188,16.9844 L563.7188,19.7031 Q563.0938,19.125 562.5,18.8594 Q561.9063,18.5781 561.2813,18.5781 Q559.9375,18.5781 559.25,19.6563 Q558.5625,20.7188 558.5625,22.8125 Q558.5625,24.9063 559.25,25.9844 Q559.9375,27.0469 561.2813,27.0469 Q561.9063,27.0469 562.5,26.7813 Q563.0938,26.5 563.7188,25.9219 L563.7188,28.6406 Z " fill="#000000"/><text fill="#000000" font-family="sans-serif" font-size="14" lengthAdjust="spacing" textLength="104" x="581.25" y="27.8467">SQLDataHolder</text><line style="stroke:#181818;stroke-width:0.5;" x1="498.5" x2="735.5" y1="39" y2="39"/><polygon fill="none" points="508.5,47.6484,512.5,51.6484,508.5,55.6484,504.5,51.6484" style="stroke:#B38D22;stroke-width:1.0;"/><text fill="#000000" font-family="sans-serif" font-size="14" lengthAdjust="spacing" textLength="213" x="517.5" y="55.9951">data_to_save: list&lt;OTelEvent&gt;</text><polygon fill="none" points="508.5,63.9453,512.5,67.9453,508.5,71.9453,504.5,67.9453" style="stroke:#B38D22;stroke-width:1.0;"/><text fill="#000000" font-family="sans-serif" font-size="14" lengthAdjust="spacing" textLength="100" x="517.5" y="72.292">batch_size: int</text><polygon fill="none" points="508.5,80.2422,512.5,84.2422,508.5,88.2422,504.5,84.2422" style="stroke:#B38D22;stroke-width:1.0;"/><text fill="#000000" font-family="sans-serif" font-size="14" lengthAdjust="spacing" textLength="75" x="517.5" y="88.5889">engine: str</text><line style="stroke:#181818;stroke-width:0.5;" x1="498.5" x2="735.5" y1="95.8906" y2="95.8906"/><ellipse cx="508.5" cy="109.5391" fill="#84BE84" rx="3" ry="3" style="stroke:#038048;stroke-width:1.0;"/><text fill="#000000" font-family="sans-serif" font-size="14" lengthAdjust="spacing" textLength="174" x="517.5" y="112.8857">create_db_tables(): None</text></g><!--class NodeModel--><g id="elem_NodeModel"><rect codeLine="28" fill="#F1F1F1" height="194.6719" id="NodeModel" rx="2.5" ry="2.5" style="stroke:#181818;stroke-width:0.5;" width="285" x="474.5" y="180.19"/><ellipse cx="573.25" cy="196.19" fill="#ADD1B2" rx="11" ry="11" style="stroke:#181818;stroke-width:1.0;"/><path d="M576.2188,201.8306 Q575.6406,202.1275 575,202.2681 Q574.3594,202.4244 573.6563,202.4244 Q571.1563,202.4244 569.8281,200.7838 Q568.5156,199.1275 568.5156,196.0025 Q568.5156,192.8775 569.8281,191.2213 Q571.1563,189.565 573.6563,189.565 Q574.3594,189.565 575,189.7213 Q575.6563,189.8775 576.2188,190.1744 L576.2188,192.8931 Q575.5938,192.315 575,192.0494 Q574.4063,191.7681 573.7813,191.7681 Q572.4375,191.7681 571.75,192.8463 Q571.0625,193.9088 571.0625,196.0025 Q571.0625,198.0963 571.75,199.1744 Q572.4375,200.2369 573.7813,200.2369 Q574.4063,200.2369 575,199.9713 Q575.5938,199.69 576.2188,199.1119 L576.2188,201.8306 Z " fill="#000000"/><text fill="#000000" font-family="sans-serif" font-size="14" lengthAdjust="spacing" textLength="79" x="593.75" y="201.0367">NodeModel</text><line style="stroke:#181818;stroke-width:0.5;" x1="475.5" x2="758.5" y1="212.19" y2="212.19"/><text fill="#000000" font-family="sans-serif" font-size="14" lengthAdjust="spacing" textLength="94" x="480.5" y="229.1851">job_name: str</text><text fill="#000000" font-family="sans-serif" font-size="14" lengthAdjust="spacing" textLength="67" x="480.5" y="245.482">job_id: str</text><text fill="#000000" font-family="sans-serif" font-size="14" lengthAdjust="spacing" textLength="103" x="480.5" y="261.7789">event_type: str</text><text fill="#000000" font-family="sans-serif" font-size="14" lengthAdjust="spacing" textLength="85" x="480.5" y="278.0757">event_id: str</text><text fill="#000000" font-family="sans-serif" font-size="14" lengthAdjust="spacing" textLength="138" x="480.5" y="294.3726">start_timestamp: str</text><text fill="#000000" font-family="sans-serif" font-size="14" lengthAdjust="spacing" textLength="134" x="480.5" y="310.6695">end_timestamp: str</text><text fill="#000000" font-family="sans-serif" font-size="14" lengthAdjust="spacing" textLength="147" x="480.5" y="326.9664">application_name: str</text><text fill="#000000" font-family="sans-serif" font-size="14" lengthAdjust="spacing" textLength="137" x="480.5" y="343.2632">parent_event_id: str</text><text fill="#000000" font-family="sans-serif" font-size="14" lengthAdjust="spacing" textLength="273" x="480.5" y="359.5601">child_event_ids: Optional[list[str], None]</text><line style="stroke:#181818;stroke-width:0.5;" x1="475.5" x2="758.5" y1="366.8619" y2="366.8619"/></g><!--class Base--><g id="elem_Base"><rect codeLine="40" fill="#F1F1F1" height="64.2969" id="Base" rx="2.5" ry="2.5" style="stroke:#181818;stroke-width:0.5;" width="276" x="479" y="500.05"/><ellipse cx="595.25" cy="516.05" fill="#ADD1B2" rx="11" ry="11" style="stroke:#181818;stroke-width:1.0;"/><path d="M598.2188,521.6906 Q597.6406,521.9875 597,522.1281 Q596.3594,522.2844 595.6563,522.2844 Q593.1563,522.2844 591.8281,520.6438 Q590.5156,518.9875 590.5156,515.8625 Q590.5156,512.7375 591.8281,511.0812 Q593.1563,509.425 595.6563,509.425 Q596.3594,509.425 597,509.5812 Q597.6563,509.7375 598.2188,510.0344 L598.2188,512.7531 Q597.5938,512.175 597,511.9094 Q596.4063,511.6281 595.7813,511.6281 Q594.4375,511.6281 593.75,512.7063 Q593.0625,513.7688 593.0625,515.8625 Q593.0625,517.9563 593.75,519.0344 Q594.4375,520.0969 595.7813,520.0969 Q596.4063,520.0969 597,519.8313 Q597.5938,519.55 598.2188,518.9719 L598.2188,521.6906 Z " fill="#000000"/><text fill="#000000" font-family="sans-serif" font-size="14" lengthAdjust="spacing" textLength="35" x="615.75" y="520.8967">Base</text><line style="stroke:#181818;stroke-width:0.5;" x1="480" x2="754" y1="532.05" y2="532.05"/><text fill="#000000" font-family="monospace" font-size="14" lengthAdjust="spacing" textLength="264" x="485" y="549.0451">SQLAlchemy&#160;declarative&#160;base&#160;class</text><line style="stroke:#181818;stroke-width:0.5;" x1="480" x2="754" y1="556.3469" y2="556.3469"/></g><!--class DataHolder--><g id="elem_DataHolder"><rect codeLine="44" fill="#F1F1F1" height="64.2969" id="DataHolder" rx="2.5" ry="2.5" style="stroke:#181818;stroke-width:0.5;" width="222" x="216" y="245.37"/><ellipse cx="284.25" cy="261.37" fill="#A9DCDF" rx="11" ry="11" style="stroke:#181818;stroke-width:1.0;"/><path d="M284.3594,256.7137 L283.2031,261.7919 L285.5313,261.7919 L284.3594,256.7137 Z M282.875,254.4794 L285.8594,254.4794 L289.2188,266.87 L286.7656,266.87 L286,263.8075 L282.7188,263.8075 L281.9688,266.87 L279.5313,266.87 L282.875,254.4794 Z " fill="#000000"/><text fill="#000000" font-family="sans-serif" font-size="14" font-style="italic" lengthAdjust="spacing" textLength="77" x="304.75" y="266.2167">DataHolder</text><line style="stroke:#181818;stroke-width:0.5;" x1="217" x2="437" y1="277.37" y2="277.37"/><line style="stroke:#181818;stroke-width:0.5;" x1="217" x2="437" y1="285.37" y2="285.37"/><ellipse cx="227" cy="299.0184" fill="#84BE84" rx="3" ry="3" style="stroke:#038048;stroke-width:1.0;"/><text fill="#000000" font-family="sans-serif" font-size="14" lengthAdjust="spacing" textLength="196" x="236" y="302.3651">save_data(OTelEvent): None</text></g><!--class IngestData--><g id="elem_IngestData"><rect codeLine="48" fill="#F1F1F1" height="96.8906" id="IngestData" rx="2.5" ry="2.5" style="stroke:#181818;stroke-width:0.5;" width="274" x="188" y="15.15"/><ellipse cx="283.25" cy="31.15" fill="#ADD1B2" rx="11" ry="11" style="stroke:#181818;stroke-width:1.0;"/><path d="M286.2188,36.7906 Q285.6406,37.0875 285,37.2281 Q284.3594,37.3844 283.6563,37.3844 Q281.1563,37.3844 279.8281,35.7437 Q278.5156,34.0875 278.5156,30.9625 Q278.5156,27.8375 279.8281,26.1812 Q281.1563,24.525 283.6563,24.525 Q284.3594,24.525 285,24.6812 Q285.6563,24.8375 286.2188,25.1344 L286.2188,27.8531 Q285.5938,27.275 285,27.0094 Q284.4063,26.7281 283.7813,26.7281 Q282.4375,26.7281 281.75,27.8062 Q281.0625,28.8687 281.0625,30.9625 Q281.0625,33.0562 281.75,34.1344 Q282.4375,35.1969 283.7813,35.1969 Q284.4063,35.1969 285,34.9312 Q285.5938,34.65 286.2188,34.0719 L286.2188,36.7906 Z " fill="#000000"/><text fill="#000000" font-family="sans-serif" font-size="14" lengthAdjust="spacing" textLength="75" x="303.75" y="35.9967">IngestData</text><line style="stroke:#181818;stroke-width:0.5;" x1="189" x2="461" y1="47.15" y2="47.15"/><polygon fill="none" points="199,55.7984,203,59.7984,199,63.7984,195,59.7984" style="stroke:#B38D22;stroke-width:1.0;"/><text fill="#000000" font-family="sans-serif" font-size="14" lengthAdjust="spacing" textLength="248" x="208" y="64.1451">otel_data_source : OTELDataSource</text><polygon fill="none" points="199,72.0953,203,76.0953,199,80.0953,195,76.0953" style="stroke:#B38D22;stroke-width:1.0;"/><text fill="#000000" font-family="sans-serif" font-size="14" lengthAdjust="spacing" textLength="171" x="208" y="80.442">data_holder : DataHolder</text><line style="stroke:#181818;stroke-width:0.5;" x1="189" x2="461" y1="87.7437" y2="87.7437"/><ellipse cx="199" cy="101.3922" fill="#84BE84" rx="3" ry="3" style="stroke:#038048;stroke-width:1.0;"/><text fill="#000000" font-family="sans-serif" font-size="14" lengthAdjust="spacing" textLength="194" x="208" y="104.7389">load_to_data_holder(): None</text></g><!--link IngestData to OTELDataSource--><g id="link_IngestData_OTELDataSource"><path codeLine="54" d="M272.87,112.42 C231.89,150.02 179.9016,197.7142 141.4616,232.9742 " fill="none" id="IngestData-to-OTELDataSource" style="stroke:#181818;stroke-width:1.0;stroke-dasharray:7.0,7.0;"/><polygon fill="#181818" points="137.04,237.03,146.3763,233.894,140.7247,233.6502,140.9685,227.9986,137.04,237.03" style="stroke:#181818;stroke-width:1.0;"/></g><!--link IngestData to DataHolder--><g id="link_IngestData_DataHolder"><path codeLine="55" d="M325.45,112.42 C325.83,152.95 326.3135,203.9203 326.6435,238.9603 " fill="none" id="IngestData-to-DataHolder" style="stroke:#181818;stroke-width:1.0;stroke-dasharray:7.0,7.0;"/><polygon fill="#181818" points="326.7,244.96,330.6151,235.9227,326.6529,239.9602,322.6154,235.9981,326.7,244.96" style="stroke:#181818;stroke-width:1.0;"/></g><!--link OTELDataSource to OTelEvent--><g id="link_OTELDataSource_OTelEvent"><path codeLine="56" d="M110.21,318.28 C122.9,349.41 138.8359,388.5036 155.2859,428.8736 " fill="none" id="OTELDataSource-to-OTelEvent" style="stroke:#181818;stroke-width:1.0;stroke-dasharray:7.0,7.0;"/><polygon fill="#181818" points="157.55,434.43,157.8581,424.586,155.6632,429.7997,150.4495,427.6048,157.55,434.43" style="stroke:#181818;stroke-width:1.0;"/></g><!--link JSONDataSource to OTELDataSource--><g id="link_JSONDataSource_OTELDataSource"><path codeLine="57" d="M81.55,88.08 C83.93,124.08 88.1048,187.313 90.9948,231.093 " fill="none" id="JSONDataSource-to-OTELDataSource" style="stroke:#181818;stroke-width:1.0;"/><polygon fill="#181818" points="91.39,237.08,94.7885,227.8361,91.0607,232.0909,86.8059,228.363,91.39,237.08" style="stroke:#181818;stroke-width:1.0;"/></g><!--link SQLDataHolder to DataHolder--><g id="link_SQLDataHolder_DataHolder"><path codeLine="58" d="M539.14,120.55 C512.99,139.43 483.69,160.66 457,180.19 C427.64,201.67 399.5343,222.4892 374.1643,241.3592 " fill="none" id="SQLDataHolder-to-DataHolder" style="stroke:#181818;stroke-width:1.0;"/><polygon fill="#181818" points="369.35,244.94,378.9587,242.7783,373.3619,241.956,374.1842,236.3592,369.35,244.94" style="stroke:#181818;stroke-width:1.0;"/></g><!--link SQLDataHolder to NodeModel--><g id="link_SQLDataHolder_NodeModel"><path codeLine="59" d="M617,120.55 C617,138.82 617,153.67 617,174.05 " fill="none" id="SQLDataHolder-to-NodeModel" style="stroke:#181818;stroke-width:1.0;stroke-dasharray:7.0,7.0;"/><polygon fill="#181818" points="617,180.05,621,171.05,617,175.05,613,171.05,617,180.05" style="stroke:#181818;stroke-width:1.0;"/></g><!--link NodeModel to Base--><g id="link_NodeModel_Base"><path codeLine="60" d="M617,375.13 C617,419.29 617,462.59 617,493.74 " fill="none" id="NodeModel-to-Base" style="stroke:#181818;stroke-width:1.0;"/><polygon fill="#181818" points="617,499.74,621,490.74,617,494.74,613,490.74,617,499.74" style="stroke:#181818;stroke-width:1.0;"/></g><!--link DataHolder to OTelEvent--><g id="link_DataHolder_OTelEvent"><path codeLine="61" d="M310.8,310.01 C294.77,341.17 272.1555,385.125 249.4355,429.275 " fill="none" id="DataHolder-to-OTelEvent" style="stroke:#181818;stroke-width:1.0;stroke-dasharray:7.0,7.0;"/><polygon fill="#181818" points="246.69,434.61,254.3649,428.4378,248.9779,430.1641,247.2515,424.7772,246.69,434.61" style="stroke:#181818;stroke-width:1.0;"/></g><!--SRC=[tLBHQi8m57tlLmJtud3w0MK86nEsiId3lOc4s-REPgH9IQBCZVtxRgnjO_KB9WXwSkuvkJd7URlDFLkyevhjK7lsap3wV9gCQoWnPSxR5f6Y-u-1pVs-mZuMivm7IonP8lqgguYgnIKOgah97BmqkkTVWGtYvnPv8PLeSPUoHHN6GQsKT7v5jFKDcnkDw-GtII0Z06ZZN85pjFVivG4yBCtMvdXSViIvz6Wv7rwJ3QgF1jNuvMkqVQ-WMKizBnVpJgf1bsy7_KUZ1DgZ_fKWX7l37Unemt3DsrPmMbCoy7d1dVmcWYIR0uXw8tNq9gFS8dZa8kCUCeKkN2sisjrgRWI-qbVzzs3hTU_1DIaE1lJsToeliDmpWNHkoNw7B0kS0tqmk529ixX68IOUCXksAPszyvFUqCfXjWdPU5I7AUxgSgMzjaLTA6g_D3AlhPK14PeIiUAC8zV9PDhNxvr6shtQrxDDeq-BpCRZC-7JKWT2f7rw6AJR3YPT6yDG22lfSRjh97y0]--></g></svg>