<?xml version="1.0" encoding="us-ascii" standalone="no"?><svg xmlns="http://www.w3.org/2000/svg" xmlns:xlink="http://www.w3.org/1999/xlink" contentStyleType="text/css" height="901px" preserveAspectRatio="none" style="width:766px;height:901px;background:#FFFFFF;" version="1.1" viewBox="0 0 766 901" width="766px" zoomAndPan="magnify"><defs/><g><!--class OTelEvent--><g id="elem_OTelEvent"><rect codeLine="2" fill="#F1F1F1" height="194.6719" id="OTelEvent" rx="2.5" ry="2.5" style="stroke:#181818;stroke-width:0.5;" width="285" x="62.5" y="699.75"/><ellipse cx="165.25" cy="715.75" fill="#F1F1F1" rx="11" ry="11" style="stroke:#181818;stroke-width:1.0;"/><path d="M164.7344,716.3125 Q162.875,715.6094 162.2188,714.8438 Q161.5781,714.0625 161.5781,712.75 Q161.5781,711.0625 162.6563,710.0938 Q163.7344,709.125 165.6094,709.125 Q166.4688,709.125 167.3125,709.3281 Q168.1719,709.5156 169.0156,709.9063 L169.0156,712.2969 Q168.2344,711.7344 167.4063,711.4531 Q166.5938,711.1563 165.7969,711.1563 Q164.9219,711.1563 164.4375,711.5156 Q163.9688,711.875 163.9688,712.5313 Q163.9688,713.0469 164.3125,713.3906 Q164.6563,713.7188 165.75,714.125 L166.8125,714.5313 Q168.2969,715.0781 169,715.9844 Q169.7188,716.8906 169.7188,718.2656 Q169.7188,720.1406 168.6094,721.0625 Q167.5,721.9844 165.25,721.9844 Q164.3281,721.9844 163.4063,721.7656 Q162.4844,721.5469 161.625,721.125 L161.625,718.5938 Q162.5938,719.2813 163.5156,719.625 Q164.4375,719.9688 165.3281,719.9688 Q166.2344,719.9688 166.7344,719.5625 Q167.2344,719.1406 167.2344,718.4063 Q167.2344,717.8438 166.8906,717.4375 Q166.5625,717.0156 165.9375,716.7656 L164.7344,716.3125 Z " fill="#000000"/><text fill="#000000" font-family="sans-serif" font-size="14" lengthAdjust="spacing" textLength="71" x="185.75" y="720.5967">OTelEvent</text><line style="stroke:#181818;stroke-width:0.5;" x1="63.5" x2="346.5" y1="731.75" y2="731.75"/><text fill="#000000" font-family="sans-serif" font-size="14" lengthAdjust="spacing" textLength="94" x="68.5" y="748.7451">job_name: str</text><text fill="#000000" font-family="sans-serif" font-size="14" lengthAdjust="spacing" textLength="67" x="68.5" y="765.042">job_id: str</text><text fill="#000000" font-family="sans-serif" font-size="14" lengthAdjust="spacing" textLength="103" x="68.5" y="781.3389">event_type: str</text><text fill="#000000" font-family="sans-serif" font-size="14" lengthAdjust="spacing" textLength="85" x="68.5" y="797.6357">event_id: str</text><text fill="#000000" font-family="sans-serif" font-size="14" lengthAdjust="spacing" textLength="138" x="68.5" y="813.9326">start_timestamp: str</text><text fill="#000000" font-family="sans-serif" font-size="14" lengthAdjust="spacing" textLength="134" x="68.5" y="830.2295">end_timestamp: str</text><text fill="#000000" font-family="sans-serif" font-size="14" lengthAdjust="spacing" textLength="147" x="68.5" y="846.5264">application_name: str</text><text fill="#000000" font-family="sans-serif" font-size="14" lengthAdjust="spacing" textLength="137" x="68.5" y="862.8232">parent_event_id: str</text><text fill="#000000" font-family="sans-serif" font-size="14" lengthAdjust="spacing" textLength="273" x="68.5" y="879.1201">child_event_ids: Optional[list[str], None]</text><line style="stroke:#181818;stroke-width:0.5;" x1="63.5" x2="346.5" y1="886.4219" y2="886.4219"/></g><!--class OTELDataSource--><g id="elem_OTELDataSource"><rect codeLine="14" fill="#F1F1F1" height="80.5938" id="OTELDataSource" rx="2.5" ry="2.5" style="stroke:#181818;stroke-width:0.5;" width="174" x="118" y="559.15"/><ellipse cx="144.25" cy="575.15" fill="#A9DCDF" rx="11" ry="11" style="stroke:#181818;stroke-width:1.0;"/><path d="M144.3594,570.4938 L143.2031,575.5719 L145.5313,575.5719 L144.3594,570.4938 Z M142.875,568.2594 L145.8594,568.2594 L149.2188,580.65 L146.7656,580.65 L146,577.5875 L142.7188,577.5875 L141.9688,580.65 L139.5313,580.65 L142.875,568.2594 Z " fill="#000000"/><text fill="#000000" font-family="sans-serif" font-size="14" font-style="italic" lengthAdjust="spacing" textLength="117" x="160.75" y="579.9967">OTELDataSource</text><line style="stroke:#181818;stroke-width:0.5;" x1="119" x2="291" y1="591.15" y2="591.15"/><line style="stroke:#181818;stroke-width:0.5;" x1="119" x2="291" y1="599.15" y2="599.15"/><ellipse cx="129" cy="612.7984" fill="#84BE84" rx="3" ry="3" style="stroke:#038048;stroke-width:1.0;"/><text fill="#000000" font-family="sans-serif" font-size="14" lengthAdjust="spacing" textLength="93" x="138" y="616.1451">__iter__(): self</text><ellipse cx="129" cy="629.0953" fill="#84BE84" rx="3" ry="3" style="stroke:#038048;stroke-width:1.0;"/><text fill="#000000" font-family="sans-serif" font-size="14" lengthAdjust="spacing" textLength="148" x="138" y="632.442">__next__(): OTelEvent</text></g><!--class JSONDataSource--><g id="elem_JSONDataSource"><rect codeLine="19" fill="#F1F1F1" height="48" id="JSONDataSource" rx="2.5" ry="2.5" style="stroke:#181818;stroke-width:0.5;" width="146" x="7" y="418.56"/><ellipse cx="22" cy="434.56" fill="#ADD1B2" rx="11" ry="11" style="stroke:#181818;stroke-width:1.0;"/><path d="M24.9688,440.2006 Q24.3906,440.4975 23.75,440.6381 Q23.1094,440.7944 22.4063,440.7944 Q19.9063,440.7944 18.5781,439.1537 Q17.2656,437.4975 17.2656,434.3725 Q17.2656,431.2475 18.5781,429.5912 Q19.9063,427.935 22.4063,427.935 Q23.1094,427.935 23.75,428.0912 Q24.4063,428.2475 24.9688,428.5444 L24.9688,431.2631 Q24.3438,430.685 23.75,430.4194 Q23.1563,430.1381 22.5313,430.1381 Q21.1875,430.1381 20.5,431.2162 Q19.8125,432.2787 19.8125,434.3725 Q19.8125,436.4662 20.5,437.5444 Q21.1875,438.6069 22.5313,438.6069 Q23.1563,438.6069 23.75,438.3412 Q24.3438,438.06 24.9688,437.4819 L24.9688,440.2006 Z " fill="#000000"/><text fill="#000000" font-family="sans-serif" font-size="14" lengthAdjust="spacing" textLength="114" x="36" y="439.4067">JSONDataSource</text><line style="stroke:#181818;stroke-width:0.5;" x1="8" x2="152" y1="450.56" y2="450.56"/><line style="stroke:#181818;stroke-width:0.5;" x1="8" x2="152" y1="458.56" y2="458.56"/></g><!--class SQLDataHolder--><g id="elem_SQLDataHolder"><rect codeLine="21" fill="#F1F1F1" height="113.1875" id="SQLDataHolder" rx="2.5" ry="2.5" style="stroke:#181818;stroke-width:0.5;" width="239" x="497.5" y="385.97"/><ellipse cx="560.75" cy="401.97" fill="#ADD1B2" rx="11" ry="11" style="stroke:#181818;stroke-width:1.0;"/><path d="M563.7188,407.6106 Q563.1406,407.9075 562.5,408.0481 Q561.8594,408.2044 561.1563,408.2044 Q558.6563,408.2044 557.3281,406.5637 Q556.0156,404.9075 556.0156,401.7825 Q556.0156,398.6575 557.3281,397.0012 Q558.6563,395.345 561.1563,395.345 Q561.8594,395.345 562.5,395.5012 Q563.1563,395.6575 563.7188,395.9544 L563.7188,398.6731 Q563.0938,398.095 562.5,397.8294 Q561.9063,397.5481 561.2813,397.5481 Q559.9375,397.5481 559.25,398.6262 Q558.5625,399.6887 558.5625,401.7825 Q558.5625,403.8762 559.25,404.9544 Q559.9375,406.0169 561.2813,406.0169 Q561.9063,406.0169 562.5,405.7512 Q563.0938,405.47 563.7188,404.8919 L563.7188,407.6106 Z " fill="#000000"/><text fill="#000000" font-family="sans-serif" font-size="14" lengthAdjust="spacing" textLength="104" x="581.25" y="406.8167">SQLDataHolder</text><line style="stroke:#181818;stroke-width:0.5;" x1="498.5" x2="735.5" y1="417.97" y2="417.97"/><polygon fill="none" points="508.5,426.6184,512.5,430.6184,508.5,434.6184,504.5,430.6184" style="stroke:#B38D22;stroke-width:1.0;"/><text fill="#000000" font-family="sans-serif" font-size="14" lengthAdjust="spacing" textLength="213" x="517.5" y="434.9651">data_to_save: list&lt;OTelEvent&gt;</text><polygon fill="none" points="508.5,442.9153,512.5,446.9153,508.5,450.9153,504.5,446.9153" style="stroke:#B38D22;stroke-width:1.0;"/><text fill="#000000" font-family="sans-serif" font-size="14" lengthAdjust="spacing" textLength="100" x="517.5" y="451.262">batch_size: int</text><polygon fill="none" points="508.5,459.2122,512.5,463.2122,508.5,467.2122,504.5,463.2122" style="stroke:#B38D22;stroke-width:1.0;"/><text fill="#000000" font-family="sans-serif" font-size="14" lengthAdjust="spacing" textLength="75" x="517.5" y="467.5589">engine: str</text><line style="stroke:#181818;stroke-width:0.5;" x1="498.5" x2="735.5" y1="474.8606" y2="474.8606"/><ellipse cx="508.5" cy="488.5091" fill="#84BE84" rx="3" ry="3" style="stroke:#038048;stroke-width:1.0;"/><text fill="#000000" font-family="sans-serif" font-size="14" lengthAdjust="spacing" textLength="174" x="517.5" y="491.8557">create_db_tables(): None</text></g><!--class NodeModel--><g id="elem_NodeModel"><rect codeLine="28" fill="#F1F1F1" height="194.6719" id="NodeModel" rx="2.5" ry="2.5" style="stroke:#181818;stroke-width:0.5;" width="285" x="474.5" y="131.29"/><ellipse cx="573.25" cy="147.29" fill="#ADD1B2" rx="11" ry="11" style="stroke:#181818;stroke-width:1.0;"/><path d="M576.2188,152.9306 Q575.6406,153.2275 575,153.3681 Q574.3594,153.5244 573.6563,153.5244 Q571.1563,153.5244 569.8281,151.8837 Q568.5156,150.2275 568.5156,147.1025 Q568.5156,143.9775 569.8281,142.3212 Q571.1563,140.665 573.6563,140.665 Q574.3594,140.665 575,140.8212 Q575.6563,140.9775 576.2188,141.2744 L576.2188,143.9931 Q575.5938,143.415 575,143.1494 Q574.4063,142.8681 573.7813,142.8681 Q572.4375,142.8681 571.75,143.9462 Q571.0625,145.0087 571.0625,147.1025 Q571.0625,149.1962 571.75,150.2744 Q572.4375,151.3369 573.7813,151.3369 Q574.4063,151.3369 575,151.0712 Q575.5938,150.79 576.2188,150.2119 L576.2188,152.9306 Z " fill="#000000"/><text fill="#000000" font-family="sans-serif" font-size="14" lengthAdjust="spacing" textLength="79" x="593.75" y="152.1367">NodeModel</text><line style="stroke:#181818;stroke-width:0.5;" x1="475.5" x2="758.5" y1="163.29" y2="163.29"/><text fill="#000000" font-family="sans-serif" font-size="14" lengthAdjust="spacing" textLength="94" x="480.5" y="180.2851">job_name: str</text><text fill="#000000" font-family="sans-serif" font-size="14" lengthAdjust="spacing" textLength="67" x="480.5" y="196.582">job_id: str</text><text fill="#000000" font-family="sans-serif" font-size="14" lengthAdjust="spacing" textLength="103" x="480.5" y="212.8789">event_type: str</text><text fill="#000000" font-family="sans-serif" font-size="14" lengthAdjust="spacing" textLength="85" x="480.5" y="229.1757">event_id: str</text><text fill="#000000" font-family="sans-serif" font-size="14" lengthAdjust="spacing" textLength="138" x="480.5" y="245.4726">start_timestamp: str</text><text fill="#000000" font-family="sans-serif" font-size="14" lengthAdjust="spacing" textLength="134" x="480.5" y="261.7695">end_timestamp: str</text><text fill="#000000" font-family="sans-serif" font-size="14" lengthAdjust="spacing" textLength="147" x="480.5" y="278.0664">application_name: str</text><text fill="#000000" font-family="sans-serif" font-size="14" lengthAdjust="spacing" textLength="137" x="480.5" y="294.3632">parent_event_id: str</text><text fill="#000000" font-family="sans-serif" font-size="14" lengthAdjust="spacing" textLength="273" x="480.5" y="310.6601">child_event_ids: Optional[list[str], None]</text><line style="stroke:#181818;stroke-width:0.5;" x1="475.5" x2="758.5" y1="317.9619" y2="317.9619"/></g><!--class Base--><g id="elem_Base"><rect codeLine="40" fill="#F1F1F1" height="64.2969" id="Base" rx="2.5" ry="2.5" style="stroke:#181818;stroke-width:0.5;" width="276" x="479" y="7"/><ellipse cx="595.25" cy="23" fill="#ADD1B2" rx="11" ry="11" style="stroke:#181818;stroke-width:1.0;"/><path d="M598.2188,28.6406 Q597.6406,28.9375 597,29.0781 Q596.3594,29.2344 595.6563,29.2344 Q593.1563,29.2344 591.8281,27.5938 Q590.5156,25.9375 590.5156,22.8125 Q590.5156,19.6875 591.8281,18.0313 Q593.1563,16.375 595.6563,16.375 Q596.3594,16.375 597,16.5313 Q597.6563,16.6875 598.2188,16.9844 L598.2188,19.7031 Q597.5938,19.125 597,18.8594 Q596.4063,18.5781 595.7813,18.5781 Q594.4375,18.5781 593.75,19.6563 Q593.0625,20.7188 593.0625,22.8125 Q593.0625,24.9063 593.75,25.9844 Q594.4375,27.0469 595.7813,27.0469 Q596.4063,27.0469 597,26.7813 Q597.5938,26.5 598.2188,25.9219 L598.2188,28.6406 Z " fill="#000000"/><text fill="#000000" font-family="sans-serif" font-size="14" lengthAdjust="spacing" textLength="35" x="615.75" y="27.8467">Base</text><line style="stroke:#181818;stroke-width:0.5;" x1="480" x2="754" y1="39" y2="39"/><text fill="#000000" font-family="monospace" font-size="14" lengthAdjust="spacing" textLength="264" x="485" y="55.9951">SQLAlchemy&#160;declarative&#160;base&#160;class</text><line style="stroke:#181818;stroke-width:0.5;" x1="480" x2="754" y1="63.2969" y2="63.2969"/></g><!--class DataHolder--><g id="elem_DataHolder"><rect codeLine="44" fill="#F1F1F1" height="64.2969" id="DataHolder" rx="2.5" ry="2.5" style="stroke:#181818;stroke-width:0.5;" width="222" x="333" y="567.3"/><ellipse cx="401.25" cy="583.3" fill="#A9DCDF" rx="11" ry="11" style="stroke:#181818;stroke-width:1.0;"/><path d="M401.3594,578.6438 L400.2031,583.7219 L402.5313,583.7219 L401.3594,578.6438 Z M399.875,576.4094 L402.8594,576.4094 L406.2188,588.8 L403.7656,588.8 L403,585.7375 L399.7188,585.7375 L398.9688,588.8 L396.5313,588.8 L399.875,576.4094 Z " fill="#000000"/><text fill="#000000" font-family="sans-serif" font-size="14" font-style="italic" lengthAdjust="spacing" textLength="77" x="421.75" y="588.1467">DataHolder</text><line style="stroke:#181818;stroke-width:0.5;" x1="334" x2="554" y1="599.3" y2="599.3"/><line style="stroke:#181818;stroke-width:0.5;" x1="334" x2="554" y1="607.3" y2="607.3"/><ellipse cx="344" cy="620.9484" fill="#84BE84" rx="3" ry="3" style="stroke:#038048;stroke-width:1.0;"/><text fill="#000000" font-family="sans-serif" font-size="14" lengthAdjust="spacing" textLength="196" x="353" y="624.2951">save_data(OTelEvent): None</text></g><!--class IngestData--><g id="elem_IngestData"><rect codeLine="48" fill="#F1F1F1" height="96.8906" id="IngestData" rx="2.5" ry="2.5" style="stroke:#181818;stroke-width:0.5;" width="274" x="188" y="394.12"/><ellipse cx="283.25" cy="410.12" fill="#ADD1B2" rx="11" ry="11" style="stroke:#181818;stroke-width:1.0;"/><path d="M286.2188,415.7606 Q285.6406,416.0575 285,416.1981 Q284.3594,416.3544 283.6563,416.3544 Q281.1563,416.3544 279.8281,414.7137 Q278.5156,413.0575 278.5156,409.9325 Q278.5156,406.8075 279.8281,405.1512 Q281.1563,403.495 283.6563,403.495 Q284.3594,403.495 285,403.6512 Q285.6563,403.8075 286.2188,404.1044 L286.2188,406.8231 Q285.5938,406.245 285,405.9794 Q284.4063,405.6981 283.7813,405.6981 Q282.4375,405.6981 281.75,406.7762 Q281.0625,407.8387 281.0625,409.9325 Q281.0625,412.0262 281.75,413.1044 Q282.4375,414.1669 283.7813,414.1669 Q284.4063,414.1669 285,413.9012 Q285.5938,413.62 286.2188,413.0419 L286.2188,415.7606 Z " fill="#000000"/><text fill="#000000" font-family="sans-serif" font-size="14" lengthAdjust="spacing" textLength="75" x="303.75" y="414.9667">IngestData</text><line style="stroke:#181818;stroke-width:0.5;" x1="189" x2="461" y1="426.12" y2="426.12"/><polygon fill="none" points="199,434.7684,203,438.7684,199,442.7684,195,438.7684" style="stroke:#B38D22;stroke-width:1.0;"/><text fill="#000000" font-family="sans-serif" font-size="14" lengthAdjust="spacing" textLength="248" x="208" y="443.1151">otel_data_source : OTELDataSource</text><polygon fill="none" points="199,451.0653,203,455.0653,199,459.0653,195,455.0653" style="stroke:#B38D22;stroke-width:1.0;"/><text fill="#000000" font-family="sans-serif" font-size="14" lengthAdjust="spacing" textLength="171" x="208" y="459.412">data_holder : DataHolder</text><line style="stroke:#181818;stroke-width:0.5;" x1="189" x2="461" y1="466.7137" y2="466.7137"/><ellipse cx="199" cy="480.3622" fill="#84BE84" rx="3" ry="3" style="stroke:#038048;stroke-width:1.0;"/><text fill="#000000" font-family="sans-serif" font-size="14" lengthAdjust="spacing" textLength="194" x="208" y="483.7089">load_to_data_holder(): None</text></g><!--link IngestData to OTELDataSource--><g id="link_IngestData_OTELDataSource"><path codeLine="54" d="M288.02,491.3 C271.28,512.9 255.4045,533.3868 239.4845,553.9368 " fill="none" id="IngestData-to-OTELDataSource" style="stroke:#181818;stroke-width:1.0;stroke-dasharray:7.0,7.0;"/><polygon fill="#181818" points="235.81,558.68,244.4839,554.0149,238.8721,554.7273,238.1597,549.1155,235.81,558.68" style="stroke:#181818;stroke-width:1.0;"/></g><!--link IngestData to DataHolder--><g id="link_IngestData_DataHolder"><path codeLine="55" d="M361.67,491.3 C380.66,516.01 399.645,540.7117 416.375,562.4917 " fill="none" id="IngestData-to-DataHolder" style="stroke:#181818;stroke-width:1.0;stroke-dasharray:7.0,7.0;"/><polygon fill="#181818" points="420.03,567.25,417.7197,557.6759,416.9842,563.2848,411.3753,562.5493,420.03,567.25" style="stroke:#181818;stroke-width:1.0;"/></g><!--link OTELDataSource to OTelEvent--><g id="link_OTELDataSource_OTelEvent"><path codeLine="56" d="M205,640.04 C205,657.35 205,672.47 205,693.53 " fill="none" id="OTELDataSource-to-OTelEvent" style="stroke:#181818;stroke-width:1.0;stroke-dasharray:7.0,7.0;"/><polygon fill="#181818" points="205,699.53,209,690.53,205,694.53,201,690.53,205,699.53" style="stroke:#181818;stroke-width:1.0;"/></g><!--link JSONDataSource to OTELDataSource--><g id="link_JSONDataSource_OTELDataSource"><path codeLine="57" d="M98.71,466.75 C118.33,491.05 145.7423,525.0205 169.2623,554.1705 " fill="none" id="JSONDataSource-to-OTELDataSource" style="stroke:#181818;stroke-width:1.0;"/><polygon fill="#181818" points="173.03,558.84,170.4915,549.3239,169.8903,554.9487,164.2655,554.3475,173.03,558.84" style="stroke:#181818;stroke-width:1.0;"/></g><!--link SQLDataHolder to DataHolder--><g id="link_SQLDataHolder_DataHolder"><path codeLine="58" d="M554.54,499.48 C529.19,522.18 505.3006,543.5683 483.6606,562.9383 " fill="none" id="SQLDataHolder-to-DataHolder" style="stroke:#181818;stroke-width:1.0;"/><polygon fill="#181818" points="479.19,566.94,488.5637,563.9179,482.9155,563.6053,483.2282,557.9571,479.19,566.94" style="stroke:#181818;stroke-width:1.0;"/></g><!--link NodeModel to SQLDataHolder--><g id="link_NodeModel_SQLDataHolder"><path codeLine="59" d="M617,326.29 C617,346.6 617,361.36 617,379.57 " fill="none" id="NodeModel-to-SQLDataHolder" style="stroke:#181818;stroke-width:1.0;"/><polygon fill="#181818" points="617,385.57,621,376.57,617,380.57,613,376.57,617,385.57" style="stroke:#181818;stroke-width:1.0;"/></g><!--link Base to NodeModel--><g id="link_Base_NodeModel"><path codeLine="60" d="M617,71.53 C617,88.1 617,103.44 617,124.98 " fill="none" id="Base-to-NodeModel" style="stroke:#181818;stroke-width:1.0;"/><polygon fill="#181818" points="617,130.98,621,121.98,617,125.98,613,121.98,617,130.98" style="stroke:#181818;stroke-width:1.0;"/></g><!--SRC=[tLBHIiCm57tlLuJvCfdR1nGPA0vKT4FcsnZXjhbkaImfIJQSuhzxqwvjrkuBB1JQavDpSdEEytQVUxPuHpKxeFRi9s7qV9gCQzXXofot3I95-u-1pVsnm2uMivm7IoovG_hQ5H5LYqim58MIENXfTCU_01l4-nRvLYhHu2vbYo9i1xLIqlaLqTOtR6uqhfFV986C0A29SmNEqTopbmVmi3Hxc-Df-17dqgFbV7XDDgW-QbJZbw_Gvhw2PYNrl5pCMwaQNRwL-ez62RGd_Ij12FU6EpZGXE6OjutWjA9auFCjT_AR299iIX3rHkheJaQvHV38HSOzP0fTE5eOjJtLt0XyfLVzzs2hSU_1rIaE1dJtTohVukx81DAw9Vi3iYnmIlfWSA4IlRX68IOUCXisAVNk-KblQEImjmxPU5JbBkwgSgMTjaLTs5P-QMHUMIi38ZGbOiKPHwwJoRIhtrcDj3krh_RMZJulCXkFUyBdfGw4IBjjN5WueoPbF05kICaV]--></g></svg>