<?xml version="1.0" encoding="us-ascii" standalone="no"?><svg xmlns="http://www.w3.org/2000/svg" xmlns:xlink="http://www.w3.org/1999/xlink" contentStyleType="text/css" height="1088px" preserveAspectRatio="none" style="width:1659px;height:1088px;background:#FFFFFF;" version="1.1" viewBox="0 0 1659 1088" width="1659px" zoomAndPan="magnify"><defs/><g><!--cluster otel_ingestion--><g id="cluster_otel_ingestion"><path d="M8.5,6 L119.5,6 A3.75,3.75 0 0 1 122,8.5 L129,28.2969 L1649.5,28.2969 A2.5,2.5 0 0 1 1652,30.7969 L1652,1078.89 A2.5,2.5 0 0 1 1649.5,1081.39 L8.5,1081.39 A2.5,2.5 0 0 1 6,1078.89 L6,8.5 A2.5,2.5 0 0 1 8.5,6 " fill="none" style="stroke:#000000;stroke-width:1.5;"/><line style="stroke:#000000;stroke-width:1.5;" x1="6" x2="129" y1="28.2969" y2="28.2969"/><text fill="#000000" font-family="sans-serif" font-size="14" font-weight="bold" lengthAdjust="spacing" textLength="110" x="10" y="20.9951">otel_ingestion</text></g><!--cluster otel_data_model--><g id="cluster_otel_data_model"><path d="M395.5,622.23 L522.5,622.23 A3.75,3.75 0 0 1 525,624.73 L532,644.5269 L1341.5,644.5269 A2.5,2.5 0 0 1 1344,647.0269 L1344,1054.89 A2.5,2.5 0 0 1 1341.5,1057.39 L395.5,1057.39 A2.5,2.5 0 0 1 393,1054.89 L393,624.73 A2.5,2.5 0 0 1 395.5,622.23 " fill="none" style="stroke:#000000;stroke-width:1.5;"/><line style="stroke:#000000;stroke-width:1.5;" x1="393" x2="532" y1="644.5269" y2="644.5269"/><text fill="#000000" font-family="sans-serif" font-size="14" font-weight="bold" lengthAdjust="spacing" textLength="126" x="397" y="637.2251">otel_data_model</text></g><!--cluster otel_data_source--><g id="cluster_otel_data_source"><path d="M32.5,73.44 L166.5,73.44 A3.75,3.75 0 0 1 169,75.94 L176,95.7369 L483.5,95.7369 A2.5,2.5 0 0 1 486,98.2369 L486,579.44 A2.5,2.5 0 0 1 483.5,581.94 L32.5,581.94 A2.5,2.5 0 0 1 30,579.44 L30,75.94 A2.5,2.5 0 0 1 32.5,73.44 " fill="none" style="stroke:#000000;stroke-width:1.5;"/><line style="stroke:#000000;stroke-width:1.5;" x1="30" x2="176" y1="95.7369" y2="95.7369"/><text fill="#000000" font-family="sans-serif" font-size="14" font-weight="bold" lengthAdjust="spacing" textLength="133" x="34" y="88.4351">otel_data_source</text></g><!--cluster otel_data_holder--><g id="cluster_otel_data_holder"><path d="M842.5,49 L972.5,49 A3.75,3.75 0 0 1 975,51.5 L982,71.2969 L1625.5,71.2969 A2.5,2.5 0 0 1 1628,73.7969 L1628,595.73 A2.5,2.5 0 0 1 1625.5,598.23 L842.5,598.23 A2.5,2.5 0 0 1 840,595.73 L840,51.5 A2.5,2.5 0 0 1 842.5,49 " fill="none" style="stroke:#000000;stroke-width:1.5;"/><line style="stroke:#000000;stroke-width:1.5;" x1="840" x2="982" y1="71.2969" y2="71.2969"/><text fill="#000000" font-family="sans-serif" font-size="14" font-weight="bold" lengthAdjust="spacing" textLength="129" x="844" y="63.9951">otel_data_holder</text></g><!--cluster ingest_data--><g id="cluster_ingest_data"><path d="M512.5,163.08 L603.5,163.08 A3.75,3.75 0 0 1 606,165.58 L613,185.3769 L813.5,185.3769 A2.5,2.5 0 0 1 816,187.8769 L816,308.47 A2.5,2.5 0 0 1 813.5,310.97 L512.5,310.97 A2.5,2.5 0 0 1 510,308.47 L510,165.58 A2.5,2.5 0 0 1 512.5,163.08 " fill="none" style="stroke:#000000;stroke-width:1.5;"/><line style="stroke:#000000;stroke-width:1.5;" x1="510" x2="613" y1="185.3769" y2="185.3769"/><text fill="#000000" font-family="sans-serif" font-size="14" font-weight="bold" lengthAdjust="spacing" textLength="90" x="514" y="178.0751">ingest_data</text></g><!--class OTelEvent--><g id="elem_OTelEvent"><rect codeLine="2" fill="#F1F1F1" height="194.6719" id="OTelEvent" rx="2.5" ry="2.5" style="stroke:#181818;stroke-width:0.5;" width="285" x="717.5" y="665.38"/><ellipse cx="820.25" cy="681.38" fill="#F1F1F1" rx="11" ry="11" style="stroke:#181818;stroke-width:1.0;"/><path d="M819.7344,681.9425 Q817.875,681.2394 817.2188,680.4738 Q816.5781,679.6925 816.5781,678.38 Q816.5781,676.6925 817.6563,675.7238 Q818.7344,674.755 820.6094,674.755 Q821.4688,674.755 822.3125,674.9581 Q823.1719,675.1456 824.0156,675.5363 L824.0156,677.9269 Q823.2344,677.3644 822.4063,677.0831 Q821.5938,676.7863 820.7969,676.7863 Q819.9219,676.7863 819.4375,677.1456 Q818.9688,677.505 818.9688,678.1613 Q818.9688,678.6769 819.3125,679.0206 Q819.6563,679.3488 820.75,679.755 L821.8125,680.1613 Q823.2969,680.7081 824,681.6144 Q824.7188,682.5206 824.7188,683.8956 Q824.7188,685.7706 823.6094,686.6925 Q822.5,687.6144 820.25,687.6144 Q819.3281,687.6144 818.4063,687.3956 Q817.4844,687.1769 816.625,686.755 L816.625,684.2238 Q817.5938,684.9113 818.5156,685.255 Q819.4375,685.5988 820.3281,685.5988 Q821.2344,685.5988 821.7344,685.1925 Q822.2344,684.7706 822.2344,684.0363 Q822.2344,683.4738 821.8906,683.0675 Q821.5625,682.6456 820.9375,682.3956 L819.7344,681.9425 Z " fill="#000000"/><text fill="#000000" font-family="sans-serif" font-size="14" lengthAdjust="spacing" textLength="71" x="840.75" y="686.2267">OTelEvent</text><line style="stroke:#181818;stroke-width:0.5;" x1="718.5" x2="1001.5" y1="697.38" y2="697.38"/><text fill="#000000" font-family="sans-serif" font-size="14" lengthAdjust="spacing" textLength="94" x="723.5" y="714.3751">job_name: str</text><text fill="#000000" font-family="sans-serif" font-size="14" lengthAdjust="spacing" textLength="67" x="723.5" y="730.672">job_id: str</text><text fill="#000000" font-family="sans-serif" font-size="14" lengthAdjust="spacing" textLength="103" x="723.5" y="746.9689">event_type: str</text><text fill="#000000" font-family="sans-serif" font-size="14" lengthAdjust="spacing" textLength="85" x="723.5" y="763.2657">event_id: str</text><text fill="#000000" font-family="sans-serif" font-size="14" lengthAdjust="spacing" textLength="137" x="723.5" y="779.5626">start_timestamp: int</text><text fill="#000000" font-family="sans-serif" font-size="14" lengthAdjust="spacing" textLength="133" x="723.5" y="795.8595">end_timestamp: int</text><text fill="#000000" font-family="sans-serif" font-size="14" lengthAdjust="spacing" textLength="147" x="723.5" y="812.1564">application_name: str</text><text fill="#000000" font-family="sans-serif" font-size="14" lengthAdjust="spacing" textLength="204" x="723.5" y="828.4532">parent_event_id: Optional[str]</text><text fill="#000000" font-family="sans-serif" font-size="14" lengthAdjust="spacing" textLength="273" x="723.5" y="844.7501">child_event_ids: Optional[list[str], None]</text><line style="stroke:#181818;stroke-width:0.5;" x1="718.5" x2="1001.5" y1="852.0519" y2="852.0519"/></g><!--class NodeModel--><g id="elem_NodeModel"><rect codeLine="56" fill="#F1F1F1" height="210.9688" id="NodeModel" rx="2.5" ry="2.5" style="stroke:#181818;stroke-width:0.5;" width="285" x="1043.5" y="657.23"/><ellipse cx="1142.25" cy="673.23" fill="#ADD1B2" rx="11" ry="11" style="stroke:#181818;stroke-width:1.0;"/><path d="M1145.2188,678.8706 Q1144.6406,679.1675 1144,679.3081 Q1143.3594,679.4644 1142.6563,679.4644 Q1140.1563,679.4644 1138.8281,677.8238 Q1137.5156,676.1675 1137.5156,673.0425 Q1137.5156,669.9175 1138.8281,668.2613 Q1140.1563,666.605 1142.6563,666.605 Q1143.3594,666.605 1144,666.7613 Q1144.6563,666.9175 1145.2188,667.2144 L1145.2188,669.9331 Q1144.5938,669.355 1144,669.0894 Q1143.4063,668.8081 1142.7813,668.8081 Q1141.4375,668.8081 1140.75,669.8863 Q1140.0625,670.9488 1140.0625,673.0425 Q1140.0625,675.1363 1140.75,676.2144 Q1141.4375,677.2769 1142.7813,677.2769 Q1143.4063,677.2769 1144,677.0113 Q1144.5938,676.73 1145.2188,676.1519 L1145.2188,678.8706 Z " fill="#000000"/><text fill="#000000" font-family="sans-serif" font-size="14" lengthAdjust="spacing" textLength="79" x="1162.75" y="678.0767">NodeModel</text><line style="stroke:#181818;stroke-width:0.5;" x1="1044.5" x2="1327.5" y1="689.23" y2="689.23"/><text fill="#000000" font-family="sans-serif" font-size="14" lengthAdjust="spacing" textLength="38" x="1049.5" y="706.2251">id: int</text><text fill="#000000" font-family="sans-serif" font-size="14" lengthAdjust="spacing" textLength="94" x="1049.5" y="722.522">job_name: str</text><text fill="#000000" font-family="sans-serif" font-size="14" lengthAdjust="spacing" textLength="67" x="1049.5" y="738.8189">job_id: str</text><text fill="#000000" font-family="sans-serif" font-size="14" lengthAdjust="spacing" textLength="103" x="1049.5" y="755.1157">event_type: str</text><text fill="#000000" font-family="sans-serif" font-size="14" lengthAdjust="spacing" textLength="85" x="1049.5" y="771.4126">event_id: str</text><text fill="#000000" font-family="sans-serif" font-size="14" lengthAdjust="spacing" textLength="181" x="1049.5" y="787.7095">start_timestamp: datetime</text><text fill="#000000" font-family="sans-serif" font-size="14" lengthAdjust="spacing" textLength="177" x="1049.5" y="804.0064">end_timestamp: datetime</text><text fill="#000000" font-family="sans-serif" font-size="14" lengthAdjust="spacing" textLength="147" x="1049.5" y="820.3032">application_name: str</text><text fill="#000000" font-family="sans-serif" font-size="14" lengthAdjust="spacing" textLength="204" x="1049.5" y="836.6001">parent_event_id: Optional[str]</text><text fill="#000000" font-family="sans-serif" font-size="14" lengthAdjust="spacing" textLength="273" x="1049.5" y="852.897">child_event_ids: Optional[list[str], None]</text><line style="stroke:#181818;stroke-width:0.5;" x1="1044.5" x2="1327.5" y1="860.1988" y2="860.1988"/></g><!--class Base--><g id="elem_Base"><rect codeLine="69" fill="#F1F1F1" height="64.2969" id="Base" rx="2.5" ry="2.5" style="stroke:#181818;stroke-width:0.5;" width="276" x="1052" y="952.65"/><ellipse cx="1168.25" cy="968.65" fill="#ADD1B2" rx="11" ry="11" style="stroke:#181818;stroke-width:1.0;"/><path d="M1171.2188,974.2906 Q1170.6406,974.5875 1170,974.7281 Q1169.3594,974.8844 1168.6563,974.8844 Q1166.1563,974.8844 1164.8281,973.2438 Q1163.5156,971.5875 1163.5156,968.4625 Q1163.5156,965.3375 1164.8281,963.6813 Q1166.1563,962.025 1168.6563,962.025 Q1169.3594,962.025 1170,962.1813 Q1170.6563,962.3375 1171.2188,962.6344 L1171.2188,965.3531 Q1170.5938,964.775 1170,964.5094 Q1169.4063,964.2281 1168.7813,964.2281 Q1167.4375,964.2281 1166.75,965.3063 Q1166.0625,966.3688 1166.0625,968.4625 Q1166.0625,970.5563 1166.75,971.6344 Q1167.4375,972.6969 1168.7813,972.6969 Q1169.4063,972.6969 1170,972.4313 Q1170.5938,972.15 1171.2188,971.5719 L1171.2188,974.2906 Z " fill="#000000"/><text fill="#000000" font-family="sans-serif" font-size="14" lengthAdjust="spacing" textLength="35" x="1188.75" y="973.4967">Base</text><line style="stroke:#181818;stroke-width:0.5;" x1="1053" x2="1327" y1="984.65" y2="984.65"/><text fill="#000000" font-family="monospace" font-size="14" lengthAdjust="spacing" textLength="264" x="1058" y="1001.6451">SQLAlchemy&#160;declarative&#160;base&#160;class</text><line style="stroke:#181818;stroke-width:0.5;" x1="1053" x2="1327" y1="1008.9469" y2="1008.9469"/></g><!--class JSONDataSourceConfig--><g id="elem_JSONDataSourceConfig"><rect codeLine="86" fill="#F1F1F1" height="145.7813" id="JSONDataSourceConfig" rx="2.5" ry="2.5" style="stroke:#181818;stroke-width:0.5;" width="253" x="416.5" y="689.83"/><ellipse cx="459.85" cy="705.83" fill="#ADD1B2" rx="11" ry="11" style="stroke:#181818;stroke-width:1.0;"/><path d="M462.8188,711.4706 Q462.2406,711.7675 461.6,711.9081 Q460.9594,712.0644 460.2563,712.0644 Q457.7563,712.0644 456.4281,710.4238 Q455.1156,708.7675 455.1156,705.6425 Q455.1156,702.5175 456.4281,700.8613 Q457.7563,699.205 460.2563,699.205 Q460.9594,699.205 461.6,699.3613 Q462.2563,699.5175 462.8188,699.8144 L462.8188,702.5331 Q462.1938,701.955 461.6,701.6894 Q461.0063,701.4081 460.3813,701.4081 Q459.0375,701.4081 458.35,702.4863 Q457.6625,703.5488 457.6625,705.6425 Q457.6625,707.7363 458.35,708.8144 Q459.0375,709.8769 460.3813,709.8769 Q461.0063,709.8769 461.6,709.6113 Q462.1938,709.33 462.8188,708.7519 L462.8188,711.4706 Z " fill="#000000"/><text fill="#000000" font-family="sans-serif" font-size="14" lengthAdjust="spacing" textLength="158" x="480.15" y="710.6767">JSONDataSourceConfig</text><line style="stroke:#181818;stroke-width:0.5;" x1="417.5" x2="668.5" y1="721.83" y2="721.83"/><text fill="#000000" font-family="sans-serif" font-size="14" lengthAdjust="spacing" textLength="77" x="422.5" y="738.8251">filepath: str</text><text fill="#000000" font-family="sans-serif" font-size="14" lengthAdjust="spacing" textLength="75" x="422.5" y="755.122">dirpath: str</text><text fill="#000000" font-family="sans-serif" font-size="14" lengthAdjust="spacing" textLength="118" x="422.5" y="771.4189">data_location: str</text><text fill="#000000" font-family="sans-serif" font-size="14" lengthAdjust="spacing" textLength="204" x="422.5" y="787.7157">header: dict[str, HeaderSpec]</text><text fill="#000000" font-family="sans-serif" font-size="14" lengthAdjust="spacing" textLength="241" x="422.5" y="804.0126">span_mapping: dict[str, SpanSpec]</text><text fill="#000000" font-family="sans-serif" font-size="14" lengthAdjust="spacing" textLength="232" x="422.5" y="820.3095">field_mapping: dict[str, FieldSpec]</text><line style="stroke:#181818;stroke-width:0.5;" x1="417.5" x2="668.5" y1="827.6113" y2="827.6113"/></g><!--class HeaderSpec--><g id="elem_HeaderSpec"><rect codeLine="95" fill="#F1F1F1" height="64.2969" id="HeaderSpec" rx="2.5" ry="2.5" style="stroke:#181818;stroke-width:0.5;" width="117" x="900.5" y="952.65"/><ellipse cx="915.5" cy="968.65" fill="#ADD1B2" rx="11" ry="11" style="stroke:#181818;stroke-width:1.0;"/><path d="M918.4688,974.2906 Q917.8906,974.5875 917.25,974.7281 Q916.6094,974.8844 915.9063,974.8844 Q913.4063,974.8844 912.0781,973.2438 Q910.7656,971.5875 910.7656,968.4625 Q910.7656,965.3375 912.0781,963.6813 Q913.4063,962.025 915.9063,962.025 Q916.6094,962.025 917.25,962.1813 Q917.9063,962.3375 918.4688,962.6344 L918.4688,965.3531 Q917.8438,964.775 917.25,964.5094 Q916.6563,964.2281 916.0313,964.2281 Q914.6875,964.2281 914,965.3063 Q913.3125,966.3688 913.3125,968.4625 Q913.3125,970.5563 914,971.6344 Q914.6875,972.6969 916.0313,972.6969 Q916.6563,972.6969 917.25,972.4313 Q917.8438,972.15 918.4688,971.5719 L918.4688,974.2906 Z " fill="#000000"/><text fill="#000000" font-family="sans-serif" font-size="14" lengthAdjust="spacing" textLength="85" x="929.5" y="973.4967">HeaderSpec</text><line style="stroke:#181818;stroke-width:0.5;" x1="901.5" x2="1016.5" y1="984.65" y2="984.65"/><text fill="#000000" font-family="sans-serif" font-size="14" lengthAdjust="spacing" textLength="95" x="906.5" y="1001.6451">paths: list[str]</text><line style="stroke:#181818;stroke-width:0.5;" x1="901.5" x2="1016.5" y1="1008.9469" y2="1008.9469"/></g><!--class SpanSpec--><g id="elem_SpanSpec"><rect codeLine="99" fill="#F1F1F1" height="64.2969" id="SpanSpec" rx="2.5" ry="2.5" style="stroke:#181818;stroke-width:0.5;" width="138" x="409" y="952.65"/><ellipse cx="440.2" cy="968.65" fill="#ADD1B2" rx="11" ry="11" style="stroke:#181818;stroke-width:1.0;"/><path d="M443.1688,974.2906 Q442.5906,974.5875 441.95,974.7281 Q441.3094,974.8844 440.6063,974.8844 Q438.1063,974.8844 436.7781,973.2438 Q435.4656,971.5875 435.4656,968.4625 Q435.4656,965.3375 436.7781,963.6813 Q438.1063,962.025 440.6063,962.025 Q441.3094,962.025 441.95,962.1813 Q442.6063,962.3375 443.1688,962.6344 L443.1688,965.3531 Q442.5438,964.775 441.95,964.5094 Q441.3563,964.2281 440.7313,964.2281 Q439.3875,964.2281 438.7,965.3063 Q438.0125,966.3688 438.0125,968.4625 Q438.0125,970.5563 438.7,971.6344 Q439.3875,972.6969 440.7313,972.6969 Q441.3563,972.6969 441.95,972.4313 Q442.5438,972.15 443.1688,971.5719 L443.1688,974.2906 Z " fill="#000000"/><text fill="#000000" font-family="sans-serif" font-size="14" lengthAdjust="spacing" textLength="70" x="457.8" y="973.4967">SpanSpec</text><line style="stroke:#181818;stroke-width:0.5;" x1="410" x2="546" y1="984.65" y2="984.65"/><text fill="#000000" font-family="sans-serif" font-size="14" lengthAdjust="spacing" textLength="126" x="415" y="1001.6451">key_paths: list[str]</text><line style="stroke:#181818;stroke-width:0.5;" x1="410" x2="546" y1="1008.9469" y2="1008.9469"/></g><!--class FieldSpec--><g id="elem_FieldSpec"><rect codeLine="103" fill="#F1F1F1" height="113.1875" id="FieldSpec" rx="2.5" ry="2.5" style="stroke:#181818;stroke-width:0.5;" width="284" x="582" y="928.2"/><ellipse cx="686.25" cy="944.2" fill="#ADD1B2" rx="11" ry="11" style="stroke:#181818;stroke-width:1.0;"/><path d="M689.2188,949.8406 Q688.6406,950.1375 688,950.2781 Q687.3594,950.4344 686.6563,950.4344 Q684.1563,950.4344 682.8281,948.7938 Q681.5156,947.1375 681.5156,944.0125 Q681.5156,940.8875 682.8281,939.2313 Q684.1563,937.575 686.6563,937.575 Q687.3594,937.575 688,937.7313 Q688.6563,937.8875 689.2188,938.1844 L689.2188,940.9031 Q688.5938,940.325 688,940.0594 Q687.4063,939.7781 686.7813,939.7781 Q685.4375,939.7781 684.75,940.8563 Q684.0625,941.9188 684.0625,944.0125 Q684.0625,946.1063 684.75,947.1844 Q685.4375,948.2469 686.7813,948.2469 Q687.4063,948.2469 688,947.9813 Q688.5938,947.7 689.2188,947.1219 L689.2188,949.8406 Z " fill="#000000"/><text fill="#000000" font-family="sans-serif" font-size="14" lengthAdjust="spacing" textLength="67" x="706.75" y="949.0467">FieldSpec</text><line style="stroke:#181818;stroke-width:0.5;" x1="583" x2="865" y1="960.2" y2="960.2"/><text fill="#000000" font-family="sans-serif" font-size="14" lengthAdjust="spacing" textLength="126" x="588" y="977.1951">key_paths: list[str]</text><text fill="#000000" font-family="sans-serif" font-size="14" lengthAdjust="spacing" textLength="257" x="588" y="993.492">key_value: Optional[list[Optional[str]]]</text><text fill="#000000" font-family="sans-serif" font-size="14" lengthAdjust="spacing" textLength="272" x="588" y="1009.7889">value_paths: Optional[list[Optional[str]]]</text><text fill="#000000" font-family="sans-serif" font-size="14" lengthAdjust="spacing" textLength="175" x="588" y="1026.0857">value_type: Union[str, int]</text><line style="stroke:#181818;stroke-width:0.5;" x1="583" x2="865" y1="1033.3875" y2="1033.3875"/></g><!--class OTELDataSource--><g id="elem_OTELDataSource"><rect codeLine="14" fill="#F1F1F1" height="80.5938" id="OTELDataSource" rx="2.5" ry="2.5" style="stroke:#181818;stroke-width:0.5;" width="174" x="296" y="485.34"/><ellipse cx="322.25" cy="501.34" fill="#A9DCDF" rx="11" ry="11" style="stroke:#181818;stroke-width:1.0;"/><path d="M322.3594,496.6838 L321.2031,501.7619 L323.5313,501.7619 L322.3594,496.6838 Z M320.875,494.4494 L323.8594,494.4494 L327.2188,506.84 L324.7656,506.84 L324,503.7775 L320.7188,503.7775 L319.9688,506.84 L317.5313,506.84 L320.875,494.4494 Z " fill="#000000"/><text fill="#000000" font-family="sans-serif" font-size="14" font-style="italic" lengthAdjust="spacing" textLength="117" x="338.75" y="506.1867">OTELDataSource</text><line style="stroke:#181818;stroke-width:0.5;" x1="297" x2="469" y1="517.34" y2="517.34"/><line style="stroke:#181818;stroke-width:0.5;" x1="297" x2="469" y1="525.34" y2="525.34"/><ellipse cx="307" cy="538.9884" fill="#84BE84" rx="3" ry="3" style="stroke:#038048;stroke-width:1.0;"/><text fill="#000000" font-family="sans-serif" font-size="14" lengthAdjust="spacing" textLength="94" x="316" y="542.3351">__iter__(): Self</text><ellipse cx="307" cy="555.2853" fill="#84BE84" rx="3" ry="3" style="stroke:#038048;stroke-width:1.0;"/><text fill="#000000" font-family="sans-serif" font-size="14" lengthAdjust="spacing" textLength="148" x="316" y="558.632">__next__(): OTelEvent</text></g><!--class JSONDataSource--><g id="elem_JSONDataSource"><rect codeLine="19" fill="#F1F1F1" height="276.1563" id="JSONDataSource" rx="2.5" ry="2.5" style="stroke:#181818;stroke-width:0.5;" width="423" x="46.5" y="108.44"/><ellipse cx="196.75" cy="124.44" fill="#ADD1B2" rx="11" ry="11" style="stroke:#181818;stroke-width:1.0;"/><path d="M199.7188,130.0806 Q199.1406,130.3775 198.5,130.5181 Q197.8594,130.6744 197.1563,130.6744 Q194.6563,130.6744 193.3281,129.0338 Q192.0156,127.3775 192.0156,124.2525 Q192.0156,121.1275 193.3281,119.4713 Q194.6563,117.815 197.1563,117.815 Q197.8594,117.815 198.5,117.9713 Q199.1563,118.1275 199.7188,118.4244 L199.7188,121.1431 Q199.0938,120.565 198.5,120.2994 Q197.9063,120.0181 197.2813,120.0181 Q195.9375,120.0181 195.25,121.0963 Q194.5625,122.1588 194.5625,124.2525 Q194.5625,126.3463 195.25,127.4244 Q195.9375,128.4869 197.2813,128.4869 Q197.9063,128.4869 198.5,128.2213 Q199.0938,127.94 199.7188,127.3619 L199.7188,130.0806 Z " fill="#000000"/><text fill="#000000" font-family="sans-serif" font-size="14" lengthAdjust="spacing" textLength="114" x="217.25" y="129.2867">JSONDataSource</text><line style="stroke:#181818;stroke-width:0.5;" x1="47.5" x2="468.5" y1="140.44" y2="140.44"/><polygon fill="none" points="57.5,149.0884,61.5,153.0884,57.5,157.0884,53.5,153.0884" style="stroke:#B38D22;stroke-width:1.0;"/><text fill="#000000" font-family="sans-serif" font-size="14" lengthAdjust="spacing" textLength="209" x="66.5" y="157.4351">config: JSONDataSourceConfig</text><polygon fill="none" points="57.5,165.3853,61.5,169.3853,57.5,173.3853,53.5,169.3853" style="stroke:#B38D22;stroke-width:1.0;"/><text fill="#000000" font-family="sans-serif" font-size="14" lengthAdjust="spacing" textLength="146" x="66.5" y="173.732">current_file_index: int</text><polygon fill="none" points="57.5,181.6822,61.5,185.6822,57.5,189.6822,53.5,185.6822" style="stroke:#B38D22;stroke-width:1.0;"/><text fill="#000000" font-family="sans-serif" font-size="14" lengthAdjust="spacing" textLength="290" x="66.5" y="190.0289">current_parser: Iterator[OTelEvent] | None</text><polygon fill="none" points="57.5,197.9791,61.5,201.9791,57.5,205.9791,53.5,201.9791" style="stroke:#B38D22;stroke-width:1.0;"/><text fill="#000000" font-family="sans-serif" font-size="14" lengthAdjust="spacing" textLength="79" x="66.5" y="206.3257">dirpath : str</text><polygon fill="none" points="57.5,214.2759,61.5,218.2759,57.5,222.2759,53.5,218.2759" style="stroke:#B38D22;stroke-width:1.0;"/><text fill="#000000" font-family="sans-serif" font-size="14" lengthAdjust="spacing" textLength="77" x="66.5" y="222.6226">filepath: str</text><polygon fill="none" points="57.5,230.5728,61.5,234.5728,57.5,238.5728,53.5,234.5728" style="stroke:#B38D22;stroke-width:1.0;"/><text fill="#000000" font-family="sans-serif" font-size="14" lengthAdjust="spacing" textLength="101" x="66.5" y="238.9195">file_list: list[str]</text><line style="stroke:#181818;stroke-width:0.5;" x1="47.5" x2="468.5" y1="246.2213" y2="246.2213"/><ellipse cx="57.5" cy="259.8697" fill="#84BE84" rx="3" ry="3" style="stroke:#038048;stroke-width:1.0;"/><text fill="#000000" font-family="sans-serif" font-size="14" lengthAdjust="spacing" textLength="104" x="66.5" y="263.2164">__init__(): None</text><ellipse cx="57.5" cy="276.1666" fill="#84BE84" rx="3" ry="3" style="stroke:#038048;stroke-width:1.0;"/><text fill="#000000" font-family="sans-serif" font-size="14" lengthAdjust="spacing" textLength="148" x="66.5" y="279.5132">__next__(): OTelEvent</text><ellipse cx="57.5" cy="292.4634" fill="#84BE84" rx="3" ry="3" style="stroke:#038048;stroke-width:1.0;"/><text fill="#000000" font-family="sans-serif" font-size="14" lengthAdjust="spacing" textLength="356" x="66.5" y="295.8101">parse_json_stream(filepath: str): Iterator[OTelEvent]</text><ellipse cx="57.5" cy="308.7603" fill="#84BE84" rx="3" ry="3" style="stroke:#038048;stroke-width:1.0;"/><text fill="#000000" font-family="sans-serif" font-size="14" lengthAdjust="spacing" textLength="357" x="66.5" y="312.107">create_otel_object(record: dict[str, Any]): OTelEvent</text><ellipse cx="57.5" cy="325.0572" fill="#84BE84" rx="3" ry="3" style="stroke:#038048;stroke-width:1.0;"/><text fill="#000000" font-family="sans-serif" font-size="14" lengthAdjust="spacing" textLength="164" x="66.5" y="328.4039">set_dirpath(): str | None</text><ellipse cx="57.5" cy="341.3541" fill="#84BE84" rx="3" ry="3" style="stroke:#038048;stroke-width:1.0;"/><text fill="#000000" font-family="sans-serif" font-size="14" lengthAdjust="spacing" textLength="166" x="66.5" y="344.7007">set_filepath(): str | None</text><ellipse cx="57.5" cy="357.6509" fill="#84BE84" rx="3" ry="3" style="stroke:#038048;stroke-width:1.0;"/><text fill="#000000" font-family="sans-serif" font-size="14" lengthAdjust="spacing" textLength="141" x="66.5" y="360.9976">get_file_list(): list[str]</text><ellipse cx="57.5" cy="373.9478" fill="#84BE84" rx="3" ry="3" style="stroke:#038048;stroke-width:1.0;"/><text fill="#000000" font-family="sans-serif" font-size="14" lengthAdjust="spacing" textLength="397" x="66.5" y="377.2945">process_record(record: dict[str, Any]): Iterator[OTelEvent]</text></g><!--class SQLDataHolder--><g id="elem_SQLDataHolder"><rect codeLine="36" fill="#F1F1F1" height="325.0469" id="SQLDataHolder" rx="2.5" ry="2.5" style="stroke:#181818;stroke-width:0.5;" width="756" x="856" y="84"/><ellipse cx="1177.75" cy="100" fill="#ADD1B2" rx="11" ry="11" style="stroke:#181818;stroke-width:1.0;"/><path d="M1180.7188,105.6406 Q1180.1406,105.9375 1179.5,106.0781 Q1178.8594,106.2344 1178.1563,106.2344 Q1175.6563,106.2344 1174.3281,104.5938 Q1173.0156,102.9375 1173.0156,99.8125 Q1173.0156,96.6875 1174.3281,95.0313 Q1175.6563,93.375 1178.1563,93.375 Q1178.8594,93.375 1179.5,93.5313 Q1180.1563,93.6875 1180.7188,93.9844 L1180.7188,96.7031 Q1180.0938,96.125 1179.5,95.8594 Q1178.9063,95.5781 1178.2813,95.5781 Q1176.9375,95.5781 1176.25,96.6563 Q1175.5625,97.7188 1175.5625,99.8125 Q1175.5625,101.9063 1176.25,102.9844 Q1176.9375,104.0469 1178.2813,104.0469 Q1178.9063,104.0469 1179.5,103.7813 Q1180.0938,103.5 1180.7188,102.9219 L1180.7188,105.6406 Z " fill="#000000"/><text fill="#000000" font-family="sans-serif" font-size="14" lengthAdjust="spacing" textLength="104" x="1198.25" y="104.8467">SQLDataHolder</text><line style="stroke:#181818;stroke-width:0.5;" x1="857" x2="1611" y1="116" y2="116"/><polygon fill="none" points="867,124.6484,871,128.6484,867,132.6484,863,128.6484" style="stroke:#B38D22;stroke-width:1.0;"/><text fill="#000000" font-family="sans-serif" font-size="14" lengthAdjust="spacing" textLength="285" x="876" y="132.9951">node_models_to_save: list&lt;NodeModel&gt;</text><polygon fill="none" points="867,140.9453,871,144.9453,867,148.9453,863,144.9453" style="stroke:#B38D22;stroke-width:1.0;"/><text fill="#000000" font-family="sans-serif" font-size="14" lengthAdjust="spacing" textLength="308" x="876" y="149.292">node_relationships_to_save: list[dict[str, str]]</text><polygon fill="none" points="867,157.2422,871,161.2422,867,165.2422,863,161.2422" style="stroke:#B38D22;stroke-width:1.0;"/><text fill="#000000" font-family="sans-serif" font-size="14" lengthAdjust="spacing" textLength="100" x="876" y="165.5889">batch_size: int</text><polygon fill="none" points="867,173.5391,871,177.5391,867,181.5391,863,177.5391" style="stroke:#B38D22;stroke-width:1.0;"/><text fill="#000000" font-family="sans-serif" font-size="14" lengthAdjust="spacing" textLength="75" x="876" y="181.8857">engine: str</text><polygon fill="none" points="867,189.8359,871,193.8359,867,197.8359,863,193.8359" style="stroke:#B38D22;stroke-width:1.0;"/><text fill="#000000" font-family="sans-serif" font-size="14" lengthAdjust="spacing" textLength="118" x="876" y="198.1826">session: Session</text><polygon fill="none" points="867,206.1328,871,210.1328,867,214.1328,863,210.1328" style="stroke:#B38D22;stroke-width:1.0;"/><text fill="#000000" font-family="sans-serif" font-size="14" lengthAdjust="spacing" textLength="78" x="876" y="214.4795">base: Base</text><line style="stroke:#181818;stroke-width:0.5;" x1="857" x2="1611" y1="221.7813" y2="221.7813"/><ellipse cx="867" cy="235.4297" fill="#84BE84" rx="3" ry="3" style="stroke:#038048;stroke-width:1.0;"/><text fill="#000000" font-family="sans-serif" font-size="14" lengthAdjust="spacing" textLength="104" x="876" y="238.7764">__init__(): None</text><ellipse cx="867" cy="251.7266" fill="#84BE84" rx="3" ry="3" style="stroke:#038048;stroke-width:1.0;"/><text fill="#000000" font-family="sans-serif" font-size="14" lengthAdjust="spacing" textLength="109" x="876" y="255.0732">__enter__(): Self</text><ellipse cx="867" cy="268.0234" fill="#84BE84" rx="3" ry="3" style="stroke:#038048;stroke-width:1.0;"/><text fill="#000000" font-family="sans-serif" font-size="14" lengthAdjust="spacing" textLength="669" x="876" y="271.3701">__exit__(Optional[type[BaseException]], Optional[BaseException]Optional[TracebackType]): None</text><ellipse cx="867" cy="284.3203" fill="#84BE84" rx="3" ry="3" style="stroke:#038048;stroke-width:1.0;"/><text fill="#000000" font-family="sans-serif" font-size="14" lengthAdjust="spacing" textLength="555" x="876" y="287.667">save_data(OTelEvent, min_datetime_unix_nano, max_datetime_unix_nano): None</text><ellipse cx="867" cy="300.6172" fill="#84BE84" rx="3" ry="3" style="stroke:#038048;stroke-width:1.0;"/><text fill="#000000" font-family="sans-serif" font-size="14" lengthAdjust="spacing" textLength="174" x="876" y="303.9639">create_db_tables(): None</text><ellipse cx="867" cy="316.9141" fill="#84BE84" rx="3" ry="3" style="stroke:#038048;stroke-width:1.0;"/><text fill="#000000" font-family="sans-serif" font-size="14" lengthAdjust="spacing" textLength="730" x="876" y="320.2607">check_otel_event_within_timeframe(OTelEvent, min_datetime_unix_nano, max_datetime_unix_nano): None</text><ellipse cx="867" cy="333.2109" fill="#84BE84" rx="3" ry="3" style="stroke:#038048;stroke-width:1.0;"/><text fill="#000000" font-family="sans-serif" font-size="14" lengthAdjust="spacing" textLength="300" x="876" y="336.5576">commit_batched_data_to_database(): None</text><ellipse cx="867" cy="349.5078" fill="#84BE84" rx="3" ry="3" style="stroke:#038048;stroke-width:1.0;"/><text fill="#000000" font-family="sans-serif" font-size="14" lengthAdjust="spacing" textLength="242" x="876" y="352.8545">batch_insert_node_models(): None</text><ellipse cx="867" cy="365.8047" fill="#84BE84" rx="3" ry="3" style="stroke:#038048;stroke-width:1.0;"/><text fill="#000000" font-family="sans-serif" font-size="14" lengthAdjust="spacing" textLength="277" x="876" y="369.1514">batch_insert_node_associations(): None</text><ellipse cx="867" cy="382.1016" fill="#84BE84" rx="3" ry="3" style="stroke:#038048;stroke-width:1.0;"/><text fill="#000000" font-family="sans-serif" font-size="14" lengthAdjust="spacing" textLength="262" x="876" y="385.4482">add_node_relations(OTelEvent): None</text><ellipse cx="867" cy="398.3984" fill="#84BE84" rx="3" ry="3" style="stroke:#038048;stroke-width:1.0;"/><text fill="#000000" font-family="sans-serif" font-size="14" lengthAdjust="spacing" textLength="414" x="876" y="401.7451">convert_otel_event_to_node_model(OTelEvent): NodeModel</text></g><!--class DataHolder--><g id="elem_DataHolder"><rect codeLine="73" fill="#F1F1F1" height="113.1875" id="DataHolder" rx="2.5" ry="2.5" style="stroke:#181818;stroke-width:0.5;" width="695" x="856.5" y="469.05"/><ellipse cx="1161.25" cy="485.05" fill="#A9DCDF" rx="11" ry="11" style="stroke:#181818;stroke-width:1.0;"/><path d="M1161.3594,480.3938 L1160.2031,485.4719 L1162.5313,485.4719 L1161.3594,480.3938 Z M1159.875,478.1594 L1162.8594,478.1594 L1166.2188,490.55 L1163.7656,490.55 L1163,487.4875 L1159.7188,487.4875 L1158.9688,490.55 L1156.5313,490.55 L1159.875,478.1594 Z " fill="#000000"/><text fill="#000000" font-family="sans-serif" font-size="14" font-style="italic" lengthAdjust="spacing" textLength="77" x="1181.75" y="489.8967">DataHolder</text><line style="stroke:#181818;stroke-width:0.5;" x1="857.5" x2="1550.5" y1="501.05" y2="501.05"/><line style="stroke:#181818;stroke-width:0.5;" x1="857.5" x2="1550.5" y1="509.05" y2="509.05"/><ellipse cx="867.5" cy="522.6984" fill="#84BE84" rx="3" ry="3" style="stroke:#038048;stroke-width:1.0;"/><text fill="#000000" font-family="sans-serif" font-size="14" lengthAdjust="spacing" textLength="104" x="876.5" y="526.0451">__init__(): None</text><ellipse cx="867.5" cy="538.9953" fill="#84BE84" rx="3" ry="3" style="stroke:#038048;stroke-width:1.0;"/><text fill="#000000" font-family="sans-serif" font-size="14" lengthAdjust="spacing" textLength="109" x="876.5" y="542.342">__enter__(): Self</text><ellipse cx="867.5" cy="555.2922" fill="#84BE84" rx="3" ry="3" style="stroke:#038048;stroke-width:1.0;"/><text fill="#000000" font-family="sans-serif" font-size="14" lengthAdjust="spacing" textLength="669" x="876.5" y="558.6389">__exit__(Optional[type[BaseException]], Optional[BaseException]Optional[TracebackType]): None</text><ellipse cx="867.5" cy="571.5891" fill="#84BE84" rx="3" ry="3" style="stroke:#038048;stroke-width:1.0;"/><text fill="#000000" font-family="sans-serif" font-size="14" lengthAdjust="spacing" textLength="555" x="876.5" y="574.9357">save_data(OTelEvent, min_datetime_unix_nano, max_datetime_unix_nano): None</text></g><!--class IngestData--><g id="elem_IngestData"><rect codeLine="80" fill="#F1F1F1" height="96.8906" id="IngestData" rx="2.5" ry="2.5" style="stroke:#181818;stroke-width:0.5;" width="274" x="526" y="198.08"/><ellipse cx="621.25" cy="214.08" fill="#ADD1B2" rx="11" ry="11" style="stroke:#181818;stroke-width:1.0;"/><path d="M624.2188,219.7206 Q623.6406,220.0175 623,220.1581 Q622.3594,220.3144 621.6563,220.3144 Q619.1563,220.3144 617.8281,218.6738 Q616.5156,217.0175 616.5156,213.8925 Q616.5156,210.7675 617.8281,209.1113 Q619.1563,207.455 621.6563,207.455 Q622.3594,207.455 623,207.6113 Q623.6563,207.7675 624.2188,208.0644 L624.2188,210.7831 Q623.5938,210.205 623,209.9394 Q622.4063,209.6581 621.7813,209.6581 Q620.4375,209.6581 619.75,210.7363 Q619.0625,211.7988 619.0625,213.8925 Q619.0625,215.9863 619.75,217.0644 Q620.4375,218.1269 621.7813,218.1269 Q622.4063,218.1269 623,217.8613 Q623.5938,217.58 624.2188,217.0019 L624.2188,219.7206 Z " fill="#000000"/><text fill="#000000" font-family="sans-serif" font-size="14" lengthAdjust="spacing" textLength="75" x="641.75" y="218.9267">IngestData</text><line style="stroke:#181818;stroke-width:0.5;" x1="527" x2="799" y1="230.08" y2="230.08"/><polygon fill="none" points="537,238.7284,541,242.7284,537,246.7284,533,242.7284" style="stroke:#B38D22;stroke-width:1.0;"/><text fill="#000000" font-family="sans-serif" font-size="14" lengthAdjust="spacing" textLength="248" x="546" y="247.0751">otel_data_source : OTELDataSource</text><polygon fill="none" points="537,255.0253,541,259.0253,537,263.0253,533,259.0253" style="stroke:#B38D22;stroke-width:1.0;"/><text fill="#000000" font-family="sans-serif" font-size="14" lengthAdjust="spacing" textLength="171" x="546" y="263.372">data_holder : DataHolder</text><line style="stroke:#181818;stroke-width:0.5;" x1="527" x2="799" y1="270.6738" y2="270.6738"/><ellipse cx="537" cy="284.3222" fill="#84BE84" rx="3" ry="3" style="stroke:#038048;stroke-width:1.0;"/><text fill="#000000" font-family="sans-serif" font-size="14" lengthAdjust="spacing" textLength="194" x="546" y="287.6689">load_to_data_holder(): None</text></g><!--link IngestData to OTELDataSource--><g id="link_IngestData_OTELDataSource"><path codeLine="110" d="M614.87,295.16 C560.61,348.86 477.6545,430.9593 427.0845,481.0093 " fill="none" id="IngestData-to-OTELDataSource" style="stroke:#181818;stroke-width:1.0;stroke-dasharray:7.0,7.0;"/><polygon fill="#181818" points="422.82,485.23,432.0305,481.742,426.3738,481.7128,426.403,476.056,422.82,485.23" style="stroke:#181818;stroke-width:1.0;"/></g><!--link IngestData to DataHolder--><g id="link_IngestData_DataHolder"><path codeLine="112" d="M704.51,295.28 C737.91,331.07 787.76,378.89 840,409.05 C881.63,433.08 923.2044,450.8238 969.5444,466.7138 " fill="none" id="IngestData-to-DataHolder" style="stroke:#181818;stroke-width:1.0;stroke-dasharray:7.0,7.0;"/><polygon fill="#181818" points="975.22,468.66,968.004,461.957,970.4903,467.0382,965.4092,469.5245,975.22,468.66" style="stroke:#181818;stroke-width:1.0;"/></g><!--link OTELDataSource to OTelEvent--><g id="link_OTELDataSource_OTelEvent"><path codeLine="114" d="M470.29,541.52 C533.19,554.64 618.67,577.5 687,614.23 C712.72,628.06 733.3882,642.4182 756.3782,661.2482 " fill="none" id="OTELDataSource-to-OTelEvent" style="stroke:#181818;stroke-width:1.0;stroke-dasharray:7.0,7.0;"/><polygon fill="#181818" points="761.02,665.05,756.5919,656.2527,757.1519,661.8818,751.5228,662.4417,761.02,665.05" style="stroke:#181818;stroke-width:1.0;"/></g><!--link JSONDataSource to OTELDataSource--><g id="link_JSONDataSource_OTELDataSource"><path codeLine="116" d="M319.95,384.86 C336.53,421.61 350.6824,453.0009 362.7024,479.6409 " fill="none" id="JSONDataSource-to-OTELDataSource" style="stroke:#181818;stroke-width:1.0;"/><polygon fill="#181818" points="365.17,485.11,365.1146,475.2613,363.1136,480.5524,357.8225,478.5515,365.17,485.11" style="stroke:#181818;stroke-width:1.0;"/></g><!--link SQLDataHolder to DataHolder--><g id="link_SQLDataHolder_DataHolder"><path codeLine="118" d="M1216.46,409.52 C1214.17,430.73 1212.5962,445.2049 1210.6862,462.8349 " fill="none" id="SQLDataHolder-to-DataHolder" style="stroke:#181818;stroke-width:1.0;"/><polygon fill="#181818" points="1210.04,468.8,1214.9861,460.2832,1210.5785,463.8291,1207.0326,459.4215,1210.04,468.8" style="stroke:#181818;stroke-width:1.0;"/></g><!--link SQLDataHolder to NodeModel--><g id="link_SQLDataHolder_NodeModel"><path codeLine="120" d="M1525.73,409.31 C1542.58,427.51 1557.36,447.4 1569,469.05 C1597.87,522.75 1603.05,555.66 1569,606.23 C1515.59,685.55 1419.8753,723.1204 1334.7453,742.1604 " fill="none" id="SQLDataHolder-to-NodeModel" style="stroke:#181818;stroke-width:1.0;stroke-dasharray:7.0,7.0;"/><polygon fill="#181818" points="1328.89,743.47,1338.5461,745.4092,1333.7694,742.3787,1336.7999,737.6021,1328.89,743.47" style="stroke:#181818;stroke-width:1.0;"/></g><!--link NodeModel to Base--><g id="link_NodeModel_Base"><path codeLine="122" d="M1187.91,868.6 C1188.46,899.16 1188.9218,924.241 1189.3218,946.411 " fill="none" id="NodeModel-to-Base" style="stroke:#181818;stroke-width:1.0;"/><polygon fill="#181818" points="1189.43,952.41,1193.267,943.3393,1189.3398,947.4108,1185.2683,943.4836,1189.43,952.41" style="stroke:#181818;stroke-width:1.0;"/></g><!--link DataHolder to OTelEvent--><g id="link_DataHolder_OTelEvent"><path codeLine="124" d="M1079.49,582.53 C1061.1,592.32 1042.72,602.99 1026,614.23 C1003.6,629.29 985.592,643.2311 964.642,661.2211 " fill="none" id="DataHolder-to-OTelEvent" style="stroke:#181818;stroke-width:1.0;stroke-dasharray:7.0,7.0;"/><polygon fill="#181818" points="960.09,665.13,969.5239,662.3014,963.8833,661.8726,964.3121,656.232,960.09,665.13" style="stroke:#181818;stroke-width:1.0;"/></g><!--link JSONDataSource to JSONDataSourceConfig--><g id="link_JSONDataSource_JSONDataSourceConfig"><path codeLine="126" d="M236.2,384.79 C231.88,455.73 238.12,540.88 278,606.23 C309.26,657.46 358.7969,691.1229 410.5969,715.6429 " fill="none" id="JSONDataSource-to-JSONDataSourceConfig" style="stroke:#181818;stroke-width:1.0;stroke-dasharray:7.0,7.0;"/><polygon fill="#181818" points="416.02,718.21,409.5967,710.744,411.5007,716.0708,406.174,717.9748,416.02,718.21" style="stroke:#181818;stroke-width:1.0;"/></g><!--link JSONDataSourceConfig to HeaderSpec--><g id="link_JSONDataSourceConfig_HeaderSpec"><path codeLine="128" d="M642.8,835.89 C661.31,847.6 680.86,858.91 700,868.2 C777,905.59 806.85,889.12 883,928.2 C895.94,934.85 904.2418,940.028 915.8718,948.608 " fill="none" id="JSONDataSourceConfig-to-HeaderSpec" style="stroke:#181818;stroke-width:1.0;stroke-dasharray:7.0,7.0;"/><polygon fill="#181818" points="920.7,952.17,915.8323,943.6081,916.6765,949.2016,911.0829,950.0458,920.7,952.17" style="stroke:#181818;stroke-width:1.0;"/></g><!--link JSONDataSourceConfig to SpanSpec--><g id="link_JSONDataSourceConfig_SpanSpec"><path codeLine="130" d="M521.63,836.08 C510.01,875.42 497.9301,916.3159 489.0101,946.5059 " fill="none" id="JSONDataSourceConfig-to-SpanSpec" style="stroke:#181818;stroke-width:1.0;stroke-dasharray:7.0,7.0;"/><polygon fill="#181818" points="487.31,952.26,493.6962,944.7623,488.7268,947.4649,486.0241,942.4954,487.31,952.26" style="stroke:#181818;stroke-width:1.0;"/></g><!--link JSONDataSourceConfig to FieldSpec--><g id="link_JSONDataSourceConfig_FieldSpec"><path codeLine="132" d="M602.52,836.08 C627.04,865.9 651.1981,895.2865 674.1181,923.1465 " fill="none" id="JSONDataSourceConfig-to-FieldSpec" style="stroke:#181818;stroke-width:1.0;stroke-dasharray:7.0,7.0;"/><polygon fill="#181818" points="677.93,927.78,675.3011,918.2885,674.7534,923.9187,669.1231,923.371,677.93,927.78" style="stroke:#181818;stroke-width:1.0;"/></g><!--SRC=[tLVRJXin47tFLrZm4bJ81qGL4csfe6f1LUWJYYp7Eo46hxrQEsdevTyxlkmrcsIXq8Vo4B8pP-ToF1V7s7p9BT4M91Ng3emLMetyOy8iewbEG8wkRq2Uhq1PydD0yEzUpwXYAOo9iNaf4Kdr30vDxMC6RLaTPIpB4ILIzClIR4o4iW6gaYunop8fE7CnjlndB7V6AnVNcKCnUOk8gOVmXP19YJ0rY1J6UjmnkT8AfeFVWm6ReO0XDLmoOxOJPFGovu0CdN_-WCyJ_nXfUaEfi91JEZmQamd8UI5LiBP1MZBhVFPpzMboVRNXwf1hDHTtOzBKllVIY5ZcdgEva83s4rXNn9PAvD50FYQN63UpEhyj0voINvwTW4z4dZ6x8DK973gxJjOIKSVkc9GSbyme4JaehMvXngjyOFJUuCcZ5M3fiE7lg3Fay2f7k0NgYTIpU-1sc0FNELP98hYFwfYSgSVffbS3biPKNKo8hBFWrKKONVgxgFSSE42BXIpN78oX8PpjKNMbjhzU5beca8ycNtrbNlYdebmKzdLeRaEjfeQj84JtzWg5NvpYj8RCGVgkCmkHjLwuhQ9rYONC3cVCyWKruWVKYWpKdL2rfZqqc3nQTStXlnJl6WIzmy_TjO8qT3KNh3sux6utX6wTjVCr1o-SOgENwgQc5DzWyyECyOSRV7tQyEnozmmFo-Cu9gbGJWPkQj6b4ciSK4gZdAqxv0rxiJwJ6RLi9i4qy-GBu0-XUCFi-Yxi0fqvW_CSX-1BHQ7J58dp1mT9g20yQFVV7KWpg72yGk6iiBHMI_jGMA-QYr1AJInB4jeijIglLfngvUpL6C4mgnXQhyLYxj4kOTMLRyHESRkaAE1NMtl5qNJjleRk7ox0Ncovveb47HpWe3cJM3pf8qa0NyUH9LP0NFM4BNfmy9JD6iVNnkpwd-V1Djx3D-zaTEc_ErgAOTw-8X2tn-htaRYpArOHKV4Qif2Q9KN3HzHmNrZjSkYwVCGWDsy7SQ_M1CwGrA6yA_42MEAk9DMUkV2IIGOy5BR9cA8fzWP6LiTDK5wXvWAm_3jW7vqYuFecMaKGqtEPcFf-xskfY37QUO17-cnRPIAxZ1MA5PDBQC-0nj28kzm32pjzuM44VbEe3YIBU6VfLzYZqUaJhzmlOdbZv6nOtNVntsc-zMDgl_7MLV_avAzPsNCxtEdXAUnqMkz1JhMm1xqNzSwWgpsrFzgdXVhyS-nXlFDdtE0vuxU7isgQlPgBOiozceDozlq1]--></g></svg>