<?xml version="1.0" encoding="us-ascii" standalone="no"?><svg xmlns="http://www.w3.org/2000/svg" xmlns:xlink="http://www.w3.org/1999/xlink" contentStyleType="text/css" height="783px" preserveAspectRatio="none" style="width:1006px;height:783px;background:#FFFFFF;" version="1.1" viewBox="0 0 1006 783" width="1006px" zoomAndPan="magnify"><defs/><g><!--class OTelEvent--><g id="elem_OTelEvent"><rect codeLine="2" fill="#F1F1F1" height="194.6719" id="OTelEvent" rx="2.5" ry="2.5" style="stroke:#181818;stroke-width:0.5;" width="285" x="285" y="581.53"/><ellipse cx="387.75" cy="597.53" fill="#F1F1F1" rx="11" ry="11" style="stroke:#181818;stroke-width:1.0;"/><path d="M387.2344,598.0925 Q385.375,597.3894 384.7188,596.6238 Q384.0781,595.8425 384.0781,594.53 Q384.0781,592.8425 385.1563,591.8738 Q386.2344,590.905 388.1094,590.905 Q388.9688,590.905 389.8125,591.1081 Q390.6719,591.2956 391.5156,591.6863 L391.5156,594.0769 Q390.7344,593.5144 389.9063,593.2331 Q389.0938,592.9363 388.2969,592.9363 Q387.4219,592.9363 386.9375,593.2956 Q386.4688,593.655 386.4688,594.3113 Q386.4688,594.8269 386.8125,595.1706 Q387.1563,595.4988 388.25,595.905 L389.3125,596.3113 Q390.7969,596.8581 391.5,597.7644 Q392.2188,598.6706 392.2188,600.0456 Q392.2188,601.9206 391.1094,602.8425 Q390,603.7644 387.75,603.7644 Q386.8281,603.7644 385.9063,603.5456 Q384.9844,603.3269 384.125,602.905 L384.125,600.3738 Q385.0938,601.0613 386.0156,601.405 Q386.9375,601.7488 387.8281,601.7488 Q388.7344,601.7488 389.2344,601.3425 Q389.7344,600.9206 389.7344,600.1863 Q389.7344,599.6238 389.3906,599.2175 Q389.0625,598.7956 388.4375,598.5456 L387.2344,598.0925 Z " fill="#000000"/><text fill="#000000" font-family="sans-serif" font-size="14" lengthAdjust="spacing" textLength="71" x="408.25" y="602.3767">OTelEvent</text><line style="stroke:#181818;stroke-width:0.5;" x1="286" x2="569" y1="613.53" y2="613.53"/><text fill="#000000" font-family="sans-serif" font-size="14" lengthAdjust="spacing" textLength="94" x="291" y="630.5251">job_name: str</text><text fill="#000000" font-family="sans-serif" font-size="14" lengthAdjust="spacing" textLength="67" x="291" y="646.822">job_id: str</text><text fill="#000000" font-family="sans-serif" font-size="14" lengthAdjust="spacing" textLength="103" x="291" y="663.1189">event_type: str</text><text fill="#000000" font-family="sans-serif" font-size="14" lengthAdjust="spacing" textLength="85" x="291" y="679.4157">event_id: str</text><text fill="#000000" font-family="sans-serif" font-size="14" lengthAdjust="spacing" textLength="138" x="291" y="695.7126">start_timestamp: str</text><text fill="#000000" font-family="sans-serif" font-size="14" lengthAdjust="spacing" textLength="134" x="291" y="712.0095">end_timestamp: str</text><text fill="#000000" font-family="sans-serif" font-size="14" lengthAdjust="spacing" textLength="147" x="291" y="728.3064">application_name: str</text><text fill="#000000" font-family="sans-serif" font-size="14" lengthAdjust="spacing" textLength="137" x="291" y="744.6032">parent_event_id: str</text><text fill="#000000" font-family="sans-serif" font-size="14" lengthAdjust="spacing" textLength="273" x="291" y="760.9001">child_event_ids: Optional[list[str], None]</text><line style="stroke:#181818;stroke-width:0.5;" x1="286" x2="569" y1="768.2019" y2="768.2019"/></g><!--class OTELDataSource--><g id="elem_OTELDataSource"><rect codeLine="14" fill="#F1F1F1" height="178.375" id="OTELDataSource" rx="2.5" ry="2.5" style="stroke:#181818;stroke-width:0.5;" width="212" x="208.5" y="335"/><ellipse cx="251.85" cy="351" fill="#A9DCDF" rx="11" ry="11" style="stroke:#181818;stroke-width:1.0;"/><path d="M251.9594,346.3438 L250.8031,351.4219 L253.1313,351.4219 L251.9594,346.3438 Z M250.475,344.1094 L253.4594,344.1094 L256.8188,356.5 L254.3656,356.5 L253.6,353.4375 L250.3188,353.4375 L249.5688,356.5 L247.1313,356.5 L250.475,344.1094 Z " fill="#000000"/><text fill="#000000" font-family="sans-serif" font-size="14" font-style="italic" lengthAdjust="spacing" textLength="117" x="272.15" y="355.8467">OTELDataSource</text><line style="stroke:#181818;stroke-width:0.5;" x1="209.5" x2="419.5" y1="367" y2="367"/><polygon fill="none" points="219.5,375.6484,223.5,379.6484,219.5,383.6484,215.5,379.6484" style="stroke:#B38D22;stroke-width:1.0;"/><text fill="#000000" font-family="sans-serif" font-size="14" lengthAdjust="spacing" textLength="175" x="228.5" y="383.9951">yaml_config: dict[str, Any]</text><polygon fill="none" points="219.5,391.9453,223.5,395.9453,219.5,399.9453,215.5,395.9453" style="stroke:#B38D22;stroke-width:1.0;"/><text fill="#000000" font-family="sans-serif" font-size="14" lengthAdjust="spacing" textLength="186" x="228.5" y="400.292">valid_data_sources: list[str]</text><polygon fill="none" points="219.5,408.2422,223.5,412.2422,219.5,416.2422,215.5,412.2422" style="stroke:#B38D22;stroke-width:1.0;"/><text fill="#000000" font-family="sans-serif" font-size="14" lengthAdjust="spacing" textLength="112" x="228.5" y="416.5889">data_source: str</text><line style="stroke:#181818;stroke-width:0.5;" x1="209.5" x2="419.5" y1="423.8906" y2="423.8906"/><ellipse cx="219.5" cy="437.5391" fill="#84BE84" rx="3" ry="3" style="stroke:#038048;stroke-width:1.0;"/><text fill="#000000" font-family="sans-serif" font-size="14" lengthAdjust="spacing" textLength="104" x="228.5" y="440.8857">__init__(): None</text><ellipse cx="219.5" cy="453.8359" fill="#84BE84" rx="3" ry="3" style="stroke:#038048;stroke-width:1.0;"/><text fill="#000000" font-family="sans-serif" font-size="14" lengthAdjust="spacing" textLength="94" x="228.5" y="457.1826">__iter__(): Self</text><ellipse cx="219.5" cy="470.1328" fill="#84BE84" rx="3" ry="3" style="stroke:#038048;stroke-width:1.0;"/><text fill="#000000" font-family="sans-serif" font-size="14" lengthAdjust="spacing" textLength="148" x="228.5" y="473.4795">__next__(): OTelEvent</text><ellipse cx="219.5" cy="486.4297" fill="#84BE84" rx="3" ry="3" style="stroke:#038048;stroke-width:1.0;"/><text fill="#000000" font-family="sans-serif" font-size="14" lengthAdjust="spacing" textLength="154" x="228.5" y="489.7764">get_yaml_config(): Any</text><ellipse cx="219.5" cy="502.7266" fill="#84BE84" rx="3" ry="3" style="stroke:#038048;stroke-width:1.0;"/><text fill="#000000" font-family="sans-serif" font-size="14" lengthAdjust="spacing" textLength="113" x="228.5" y="506.0732">set_file_ext(): str</text></g><!--class JSONDataSource--><g id="elem_JSONDataSource"><rect codeLine="25" fill="#F1F1F1" height="259.8594" id="JSONDataSource" rx="2.5" ry="2.5" style="stroke:#181818;stroke-width:0.5;" width="383" x="9" y="7"/><ellipse cx="139.25" cy="23" fill="#ADD1B2" rx="11" ry="11" style="stroke:#181818;stroke-width:1.0;"/><path d="M142.2188,28.6406 Q141.6406,28.9375 141,29.0781 Q140.3594,29.2344 139.6563,29.2344 Q137.1563,29.2344 135.8281,27.5938 Q134.5156,25.9375 134.5156,22.8125 Q134.5156,19.6875 135.8281,18.0313 Q137.1563,16.375 139.6563,16.375 Q140.3594,16.375 141,16.5313 Q141.6563,16.6875 142.2188,16.9844 L142.2188,19.7031 Q141.5938,19.125 141,18.8594 Q140.4063,18.5781 139.7813,18.5781 Q138.4375,18.5781 137.75,19.6563 Q137.0625,20.7188 137.0625,22.8125 Q137.0625,24.9063 137.75,25.9844 Q138.4375,27.0469 139.7813,27.0469 Q140.4063,27.0469 141,26.7813 Q141.5938,26.5 142.2188,25.9219 L142.2188,28.6406 Z " fill="#000000"/><text fill="#000000" font-family="sans-serif" font-size="14" lengthAdjust="spacing" textLength="114" x="159.75" y="27.8467">JSONDataSource</text><line style="stroke:#181818;stroke-width:0.5;" x1="10" x2="391" y1="39" y2="39"/><polygon fill="none" points="20,47.6484,24,51.6484,20,55.6484,16,51.6484" style="stroke:#B38D22;stroke-width:1.0;"/><text fill="#000000" font-family="sans-serif" font-size="14" lengthAdjust="spacing" textLength="146" x="29" y="55.9951">current_file_index: int</text><polygon fill="none" points="20,63.9453,24,67.9453,20,71.9453,16,67.9453" style="stroke:#B38D22;stroke-width:1.0;"/><text fill="#000000" font-family="sans-serif" font-size="14" lengthAdjust="spacing" textLength="290" x="29" y="72.292">current_parser: Iterator[OTelEvent] | None</text><polygon fill="none" points="20,80.2422,24,84.2422,20,88.2422,16,84.2422" style="stroke:#B38D22;stroke-width:1.0;"/><text fill="#000000" font-family="sans-serif" font-size="14" lengthAdjust="spacing" textLength="79" x="29" y="88.5889">dirpath : str</text><polygon fill="none" points="20,96.5391,24,100.5391,20,104.5391,16,100.5391" style="stroke:#B38D22;stroke-width:1.0;"/><text fill="#000000" font-family="sans-serif" font-size="14" lengthAdjust="spacing" textLength="77" x="29" y="104.8857">filepath: str</text><polygon fill="none" points="20,112.8359,24,116.8359,20,120.8359,16,116.8359" style="stroke:#B38D22;stroke-width:1.0;"/><text fill="#000000" font-family="sans-serif" font-size="14" lengthAdjust="spacing" textLength="101" x="29" y="121.1826">file_list: list[str]</text><line style="stroke:#181818;stroke-width:0.5;" x1="10" x2="391" y1="128.4844" y2="128.4844"/><ellipse cx="20" cy="142.1328" fill="#84BE84" rx="3" ry="3" style="stroke:#038048;stroke-width:1.0;"/><text fill="#000000" font-family="sans-serif" font-size="14" lengthAdjust="spacing" textLength="104" x="29" y="145.4795">__init__(): None</text><ellipse cx="20" cy="158.4297" fill="#84BE84" rx="3" ry="3" style="stroke:#038048;stroke-width:1.0;"/><text fill="#000000" font-family="sans-serif" font-size="14" lengthAdjust="spacing" textLength="94" x="29" y="161.7764">__iter__(): Self</text><ellipse cx="20" cy="174.7266" fill="#84BE84" rx="3" ry="3" style="stroke:#038048;stroke-width:1.0;"/><text fill="#000000" font-family="sans-serif" font-size="14" lengthAdjust="spacing" textLength="148" x="29" y="178.0732">__next__(): OTelEvent</text><ellipse cx="20" cy="191.0234" fill="#84BE84" rx="3" ry="3" style="stroke:#038048;stroke-width:1.0;"/><text fill="#000000" font-family="sans-serif" font-size="14" lengthAdjust="spacing" textLength="356" x="29" y="194.3701">parse_json_stream(filepath: str): Iterator[OTelEvent]</text><ellipse cx="20" cy="207.3203" fill="#84BE84" rx="3" ry="3" style="stroke:#038048;stroke-width:1.0;"/><text fill="#000000" font-family="sans-serif" font-size="14" lengthAdjust="spacing" textLength="357" x="29" y="210.667">create_otel_object(record: dict[str, Any]): OTelEvent</text><ellipse cx="20" cy="223.6172" fill="#84BE84" rx="3" ry="3" style="stroke:#038048;stroke-width:1.0;"/><text fill="#000000" font-family="sans-serif" font-size="14" lengthAdjust="spacing" textLength="164" x="29" y="226.9639">set_dirpath(): str | None</text><ellipse cx="20" cy="239.9141" fill="#84BE84" rx="3" ry="3" style="stroke:#038048;stroke-width:1.0;"/><text fill="#000000" font-family="sans-serif" font-size="14" lengthAdjust="spacing" textLength="166" x="29" y="243.2607">set_filepath(): str | None</text><ellipse cx="20" cy="256.2109" fill="#84BE84" rx="3" ry="3" style="stroke:#038048;stroke-width:1.0;"/><text fill="#000000" font-family="sans-serif" font-size="14" lengthAdjust="spacing" textLength="141" x="29" y="259.5576">get_file_list(): list[str]</text></g><!--class SQLDataHolder--><g id="elem_SQLDataHolder"><rect codeLine="41" fill="#F1F1F1" height="113.1875" id="SQLDataHolder" rx="2.5" ry="2.5" style="stroke:#181818;stroke-width:0.5;" width="239" x="737" y="80.33"/><ellipse cx="800.25" cy="96.33" fill="#ADD1B2" rx="11" ry="11" style="stroke:#181818;stroke-width:1.0;"/><path d="M803.2188,101.9706 Q802.6406,102.2675 802,102.4081 Q801.3594,102.5644 800.6563,102.5644 Q798.1563,102.5644 796.8281,100.9238 Q795.5156,99.2675 795.5156,96.1425 Q795.5156,93.0175 796.8281,91.3613 Q798.1563,89.705 800.6563,89.705 Q801.3594,89.705 802,89.8613 Q802.6563,90.0175 803.2188,90.3144 L803.2188,93.0331 Q802.5938,92.455 802,92.1894 Q801.4063,91.9081 800.7813,91.9081 Q799.4375,91.9081 798.75,92.9863 Q798.0625,94.0488 798.0625,96.1425 Q798.0625,98.2363 798.75,99.3144 Q799.4375,100.3769 800.7813,100.3769 Q801.4063,100.3769 802,100.1113 Q802.5938,99.83 803.2188,99.2519 L803.2188,101.9706 Z " fill="#000000"/><text fill="#000000" font-family="sans-serif" font-size="14" lengthAdjust="spacing" textLength="104" x="820.75" y="101.1767">SQLDataHolder</text><line style="stroke:#181818;stroke-width:0.5;" x1="738" x2="975" y1="112.33" y2="112.33"/><polygon fill="none" points="748,120.9784,752,124.9784,748,128.9784,744,124.9784" style="stroke:#B38D22;stroke-width:1.0;"/><text fill="#000000" font-family="sans-serif" font-size="14" lengthAdjust="spacing" textLength="213" x="757" y="129.3251">data_to_save: list&lt;OTelEvent&gt;</text><polygon fill="none" points="748,137.2753,752,141.2753,748,145.2753,744,141.2753" style="stroke:#B38D22;stroke-width:1.0;"/><text fill="#000000" font-family="sans-serif" font-size="14" lengthAdjust="spacing" textLength="100" x="757" y="145.622">batch_size: int</text><polygon fill="none" points="748,153.5722,752,157.5722,748,161.5722,744,157.5722" style="stroke:#B38D22;stroke-width:1.0;"/><text fill="#000000" font-family="sans-serif" font-size="14" lengthAdjust="spacing" textLength="75" x="757" y="161.9189">engine: str</text><line style="stroke:#181818;stroke-width:0.5;" x1="738" x2="975" y1="169.2206" y2="169.2206"/><ellipse cx="748" cy="182.8691" fill="#84BE84" rx="3" ry="3" style="stroke:#038048;stroke-width:1.0;"/><text fill="#000000" font-family="sans-serif" font-size="14" lengthAdjust="spacing" textLength="174" x="757" y="186.2157">create_db_tables(): None</text></g><!--class NodeModel--><g id="elem_NodeModel"><rect codeLine="48" fill="#F1F1F1" height="194.6719" id="NodeModel" rx="2.5" ry="2.5" style="stroke:#181818;stroke-width:0.5;" width="285" x="714" y="326.86"/><ellipse cx="812.75" cy="342.86" fill="#ADD1B2" rx="11" ry="11" style="stroke:#181818;stroke-width:1.0;"/><path d="M815.7188,348.5006 Q815.1406,348.7975 814.5,348.9381 Q813.8594,349.0944 813.1563,349.0944 Q810.6563,349.0944 809.3281,347.4538 Q808.0156,345.7975 808.0156,342.6725 Q808.0156,339.5475 809.3281,337.8913 Q810.6563,336.235 813.1563,336.235 Q813.8594,336.235 814.5,336.3913 Q815.1563,336.5475 815.7188,336.8444 L815.7188,339.5631 Q815.0938,338.985 814.5,338.7194 Q813.9063,338.4381 813.2813,338.4381 Q811.9375,338.4381 811.25,339.5163 Q810.5625,340.5788 810.5625,342.6725 Q810.5625,344.7663 811.25,345.8444 Q811.9375,346.9069 813.2813,346.9069 Q813.9063,346.9069 814.5,346.6413 Q815.0938,346.36 815.7188,345.7819 L815.7188,348.5006 Z " fill="#000000"/><text fill="#000000" font-family="sans-serif" font-size="14" lengthAdjust="spacing" textLength="79" x="833.25" y="347.7067">NodeModel</text><line style="stroke:#181818;stroke-width:0.5;" x1="715" x2="998" y1="358.86" y2="358.86"/><text fill="#000000" font-family="sans-serif" font-size="14" lengthAdjust="spacing" textLength="94" x="720" y="375.8551">job_name: str</text><text fill="#000000" font-family="sans-serif" font-size="14" lengthAdjust="spacing" textLength="67" x="720" y="392.152">job_id: str</text><text fill="#000000" font-family="sans-serif" font-size="14" lengthAdjust="spacing" textLength="103" x="720" y="408.4489">event_type: str</text><text fill="#000000" font-family="sans-serif" font-size="14" lengthAdjust="spacing" textLength="85" x="720" y="424.7457">event_id: str</text><text fill="#000000" font-family="sans-serif" font-size="14" lengthAdjust="spacing" textLength="138" x="720" y="441.0426">start_timestamp: str</text><text fill="#000000" font-family="sans-serif" font-size="14" lengthAdjust="spacing" textLength="134" x="720" y="457.3395">end_timestamp: str</text><text fill="#000000" font-family="sans-serif" font-size="14" lengthAdjust="spacing" textLength="147" x="720" y="473.6364">application_name: str</text><text fill="#000000" font-family="sans-serif" font-size="14" lengthAdjust="spacing" textLength="137" x="720" y="489.9332">parent_event_id: str</text><text fill="#000000" font-family="sans-serif" font-size="14" lengthAdjust="spacing" textLength="273" x="720" y="506.2301">child_event_ids: Optional[list[str], None]</text><line style="stroke:#181818;stroke-width:0.5;" x1="715" x2="998" y1="513.5319" y2="513.5319"/></g><!--class Base--><g id="elem_Base"><rect codeLine="60" fill="#F1F1F1" height="64.2969" id="Base" rx="2.5" ry="2.5" style="stroke:#181818;stroke-width:0.5;" width="276" x="718.5" y="646.72"/><ellipse cx="834.75" cy="662.72" fill="#ADD1B2" rx="11" ry="11" style="stroke:#181818;stroke-width:1.0;"/><path d="M837.7188,668.3606 Q837.1406,668.6575 836.5,668.7981 Q835.8594,668.9544 835.1563,668.9544 Q832.6563,668.9544 831.3281,667.3138 Q830.0156,665.6575 830.0156,662.5325 Q830.0156,659.4075 831.3281,657.7513 Q832.6563,656.095 835.1563,656.095 Q835.8594,656.095 836.5,656.2513 Q837.1563,656.4075 837.7188,656.7044 L837.7188,659.4231 Q837.0938,658.845 836.5,658.5794 Q835.9063,658.2981 835.2813,658.2981 Q833.9375,658.2981 833.25,659.3763 Q832.5625,660.4388 832.5625,662.5325 Q832.5625,664.6263 833.25,665.7044 Q833.9375,666.7669 835.2813,666.7669 Q835.9063,666.7669 836.5,666.5013 Q837.0938,666.22 837.7188,665.6419 L837.7188,668.3606 Z " fill="#000000"/><text fill="#000000" font-family="sans-serif" font-size="14" lengthAdjust="spacing" textLength="35" x="855.25" y="667.5667">Base</text><line style="stroke:#181818;stroke-width:0.5;" x1="719.5" x2="993.5" y1="678.72" y2="678.72"/><text fill="#000000" font-family="monospace" font-size="14" lengthAdjust="spacing" textLength="264" x="724.5" y="695.7151">SQLAlchemy&#160;declarative&#160;base&#160;class</text><line style="stroke:#181818;stroke-width:0.5;" x1="719.5" x2="993.5" y1="703.0169" y2="703.0169"/></g><!--class DataHolder--><g id="elem_DataHolder"><rect codeLine="64" fill="#F1F1F1" height="64.2969" id="DataHolder" rx="2.5" ry="2.5" style="stroke:#181818;stroke-width:0.5;" width="222" x="455.5" y="392.04"/><ellipse cx="523.75" cy="408.04" fill="#A9DCDF" rx="11" ry="11" style="stroke:#181818;stroke-width:1.0;"/><path d="M523.8594,403.3838 L522.7031,408.4619 L525.0313,408.4619 L523.8594,403.3838 Z M522.375,401.1494 L525.3594,401.1494 L528.7188,413.54 L526.2656,413.54 L525.5,410.4775 L522.2188,410.4775 L521.4688,413.54 L519.0313,413.54 L522.375,401.1494 Z " fill="#000000"/><text fill="#000000" font-family="sans-serif" font-size="14" font-style="italic" lengthAdjust="spacing" textLength="77" x="544.25" y="412.8867">DataHolder</text><line style="stroke:#181818;stroke-width:0.5;" x1="456.5" x2="676.5" y1="424.04" y2="424.04"/><line style="stroke:#181818;stroke-width:0.5;" x1="456.5" x2="676.5" y1="432.04" y2="432.04"/><ellipse cx="466.5" cy="445.6884" fill="#84BE84" rx="3" ry="3" style="stroke:#038048;stroke-width:1.0;"/><text fill="#000000" font-family="sans-serif" font-size="14" lengthAdjust="spacing" textLength="196" x="475.5" y="449.0351">save_data(OTelEvent): None</text></g><!--class IngestData--><g id="elem_IngestData"><rect codeLine="68" fill="#F1F1F1" height="96.8906" id="IngestData" rx="2.5" ry="2.5" style="stroke:#181818;stroke-width:0.5;" width="274" x="427.5" y="88.48"/><ellipse cx="522.75" cy="104.48" fill="#ADD1B2" rx="11" ry="11" style="stroke:#181818;stroke-width:1.0;"/><path d="M525.7188,110.1206 Q525.1406,110.4175 524.5,110.5581 Q523.8594,110.7144 523.1563,110.7144 Q520.6563,110.7144 519.3281,109.0738 Q518.0156,107.4175 518.0156,104.2925 Q518.0156,101.1675 519.3281,99.5113 Q520.6563,97.855 523.1563,97.855 Q523.8594,97.855 524.5,98.0113 Q525.1563,98.1675 525.7188,98.4644 L525.7188,101.1831 Q525.0938,100.605 524.5,100.3394 Q523.9063,100.0581 523.2813,100.0581 Q521.9375,100.0581 521.25,101.1363 Q520.5625,102.1988 520.5625,104.2925 Q520.5625,106.3863 521.25,107.4644 Q521.9375,108.5269 523.2813,108.5269 Q523.9063,108.5269 524.5,108.2613 Q525.0938,107.98 525.7188,107.4019 L525.7188,110.1206 Z " fill="#000000"/><text fill="#000000" font-family="sans-serif" font-size="14" lengthAdjust="spacing" textLength="75" x="543.25" y="109.3267">IngestData</text><line style="stroke:#181818;stroke-width:0.5;" x1="428.5" x2="700.5" y1="120.48" y2="120.48"/><polygon fill="none" points="438.5,129.1284,442.5,133.1284,438.5,137.1284,434.5,133.1284" style="stroke:#B38D22;stroke-width:1.0;"/><text fill="#000000" font-family="sans-serif" font-size="14" lengthAdjust="spacing" textLength="248" x="447.5" y="137.4751">otel_data_source : OTELDataSource</text><polygon fill="none" points="438.5,145.4253,442.5,149.4253,438.5,153.4253,434.5,149.4253" style="stroke:#B38D22;stroke-width:1.0;"/><text fill="#000000" font-family="sans-serif" font-size="14" lengthAdjust="spacing" textLength="171" x="447.5" y="153.772">data_holder : DataHolder</text><line style="stroke:#181818;stroke-width:0.5;" x1="428.5" x2="700.5" y1="161.0738" y2="161.0738"/><ellipse cx="438.5" cy="174.7222" fill="#84BE84" rx="3" ry="3" style="stroke:#038048;stroke-width:1.0;"/><text fill="#000000" font-family="sans-serif" font-size="14" lengthAdjust="spacing" textLength="194" x="447.5" y="178.0689">load_to_data_holder(): None</text></g><!--link IngestData to OTELDataSource--><g id="link_IngestData_OTELDataSource"><path codeLine="74" d="M522.66,185.67 C487.14,226.2 439.195,280.918 396.095,330.088 " fill="none" id="IngestData-to-OTELDataSource" style="stroke:#181818;stroke-width:1.0;stroke-dasharray:7.0,7.0;"/><polygon fill="#181818" points="392.14,334.6,401.0805,330.4687,395.4358,330.84,395.0645,325.1954,392.14,334.6" style="stroke:#181818;stroke-width:1.0;"/></g><!--link IngestData to DataHolder--><g id="link_IngestData_DataHolder"><path codeLine="75" d="M564.83,185.67 C565.25,244.2 565.8879,335.7401 566.2379,385.6501 " fill="none" id="IngestData-to-DataHolder" style="stroke:#181818;stroke-width:1.0;stroke-dasharray:7.0,7.0;"/><polygon fill="#181818" points="566.28,391.65,570.2168,382.6222,566.2449,386.6501,562.217,382.6783,566.28,391.65" style="stroke:#181818;stroke-width:1.0;"/></g><!--link OTELDataSource to OTelEvent--><g id="link_OTELDataSource_OTelEvent"><path codeLine="76" d="M354.02,513.56 C363.82,535.48 371.9313,553.6024 381.8913,575.8824 " fill="none" id="OTELDataSource-to-OTelEvent" style="stroke:#181818;stroke-width:1.0;stroke-dasharray:7.0,7.0;"/><polygon fill="#181818" points="384.34,581.36,384.3187,571.5112,382.2994,576.7953,377.0152,574.7761,384.34,581.36" style="stroke:#181818;stroke-width:1.0;"/></g><!--link JSONDataSource to OTELDataSource--><g id="link_JSONDataSource_OTELDataSource"><path codeLine="77" d="M252.16,267.2 C261.29,290.05 268.383,307.7986 276.933,329.1886 " fill="none" id="JSONDataSource-to-OTELDataSource" style="stroke:#181818;stroke-width:1.0;"/><polygon fill="#181818" points="279.16,334.76,279.5338,324.9182,277.3042,330.1172,272.1052,327.8876,279.16,334.76" style="stroke:#181818;stroke-width:1.0;"/></g><!--link SQLDataHolder to DataHolder--><g id="link_SQLDataHolder_DataHolder"><path codeLine="78" d="M799.55,193.95 C739.51,253.01 651.3274,339.7524 602.8874,387.4024 " fill="none" id="SQLDataHolder-to-DataHolder" style="stroke:#181818;stroke-width:1.0;"/><polygon fill="#181818" points="598.61,391.61,607.8311,388.1502,602.1745,388.1037,602.221,382.447,598.61,391.61" style="stroke:#181818;stroke-width:1.0;"/></g><!--link SQLDataHolder to NodeModel--><g id="link_SQLDataHolder_NodeModel"><path codeLine="79" d="M856.5,193.95 C856.5,231.67 856.5,276.41 856.5,320.56 " fill="none" id="SQLDataHolder-to-NodeModel" style="stroke:#181818;stroke-width:1.0;stroke-dasharray:7.0,7.0;"/><polygon fill="#181818" points="856.5,326.56,860.5,317.56,856.5,321.56,852.5,317.56,856.5,326.56" style="stroke:#181818;stroke-width:1.0;"/></g><!--link NodeModel to Base--><g id="link_NodeModel_Base"><path codeLine="80" d="M856.5,521.8 C856.5,565.96 856.5,609.26 856.5,640.41 " fill="none" id="NodeModel-to-Base" style="stroke:#181818;stroke-width:1.0;"/><polygon fill="#181818" points="856.5,646.41,860.5,637.41,856.5,641.41,852.5,637.41,856.5,646.41" style="stroke:#181818;stroke-width:1.0;"/></g><!--link DataHolder to OTelEvent--><g id="link_DataHolder_OTelEvent"><path codeLine="81" d="M549.18,456.68 C532.04,487.84 507.8113,531.8726 483.5313,576.0226 " fill="none" id="DataHolder-to-OTelEvent" style="stroke:#181818;stroke-width:1.0;stroke-dasharray:7.0,7.0;"/><polygon fill="#181818" points="480.64,581.28,488.4819,575.3214,483.0494,576.8988,481.472,571.4663,480.64,581.28" style="stroke:#181818;stroke-width:1.0;"/></g><!--SRC=[tLJRYjim47ttLuZa9SjUFi2KXIsxq2rjGadVGX2oD9ieo9AHbB3fvTyxicnPiTEtFjKGS6REp9cPCnxdxP5xileEwkK4sfEV1S7dO2ggMGqbSTucYnJ3VmXewiyDZ6qvodbc4ILhmBUwoQ1QN3Epfb6ICo-D7l4tp8RaKmg-bqeakol9gWdXJ6sKT7w3iEqTMHeDs-9tKR0A3GmxveevXts_V7bcdgtDqNBecf-VMQqeD_fDxaeY96-pt94dVTv6m8afAQZ0GEhQIAHDR16IEOTQRocLMdfA5pTbMrEoUh3HkWRrrbirl7VOf4zqxS3JhCY0mEAYpw7lJIgW61mSWHiRZ_r-Ng-MqtxvqRR3RSEa5l1U4jbn9ISAuC2Mv1LBPTxOJQffItuDpSo5j0tpUp9qFGzvWsraec5auy7zgn6rvTA3mqN2tC3gnKKLDrSRYQ4SuHweyQ2egGx0_S82DrQCbs7A6eRV3Q2RVJwRfCtV_BjUkp2J01XcaoHSVsitzfDH0colOBjjtb37JX2ZFgJA7YEaOfxlgPC_81CNz4xgV46xtaL5FQiKkAH2ubyQ0L_nf_xtKn7R_SXS_vtCPZZx9yNtK9-90FJZ_iWJa2fWMlXiTkN8JEIw3JArvsEHL9hC-LNliEKGsulSBcHsLqWvkb_PBkmZNvcHHsfbc0YRag5oZJFMXuV7SVwHDyizEgGnjlyqHbVd_dwI-7Af0o3BVUaCgTCE5iCsXg0WLZ723cKKVm00]--></g></svg>