<?xml version="1.0" encoding="us-ascii" standalone="no"?><svg xmlns="http://www.w3.org/2000/svg" xmlns:xlink="http://www.w3.org/1999/xlink" contentStyleType="text/css" height="815px" preserveAspectRatio="none" style="width:1046px;height:815px;background:#FFFFFF;" version="1.1" viewBox="0 0 1046 815" width="1046px" zoomAndPan="magnify"><defs/><g><!--class OTelEvent--><g id="elem_OTelEvent"><rect codeLine="2" fill="#F1F1F1" height="194.6719" id="OTelEvent" rx="2.5" ry="2.5" style="stroke:#181818;stroke-width:0.5;" width="285" x="334" y="614.13"/><ellipse cx="436.75" cy="630.13" fill="#F1F1F1" rx="11" ry="11" style="stroke:#181818;stroke-width:1.0;"/><path d="M436.2344,630.6925 Q434.375,629.9894 433.7188,629.2238 Q433.0781,628.4425 433.0781,627.13 Q433.0781,625.4425 434.1563,624.4738 Q435.2344,623.505 437.1094,623.505 Q437.9688,623.505 438.8125,623.7081 Q439.6719,623.8956 440.5156,624.2863 L440.5156,626.6769 Q439.7344,626.1144 438.9063,625.8331 Q438.0938,625.5363 437.2969,625.5363 Q436.4219,625.5363 435.9375,625.8956 Q435.4688,626.255 435.4688,626.9113 Q435.4688,627.4269 435.8125,627.7706 Q436.1563,628.0988 437.25,628.505 L438.3125,628.9113 Q439.7969,629.4581 440.5,630.3644 Q441.2188,631.2706 441.2188,632.6456 Q441.2188,634.5206 440.1094,635.4425 Q439,636.3644 436.75,636.3644 Q435.8281,636.3644 434.9063,636.1456 Q433.9844,635.9269 433.125,635.505 L433.125,632.9738 Q434.0938,633.6613 435.0156,634.005 Q435.9375,634.3488 436.8281,634.3488 Q437.7344,634.3488 438.2344,633.9425 Q438.7344,633.5206 438.7344,632.7863 Q438.7344,632.2238 438.3906,631.8175 Q438.0625,631.3956 437.4375,631.1456 L436.2344,630.6925 Z " fill="#000000"/><text fill="#000000" font-family="sans-serif" font-size="14" lengthAdjust="spacing" textLength="71" x="457.25" y="634.9767">OTelEvent</text><line style="stroke:#181818;stroke-width:0.5;" x1="335" x2="618" y1="646.13" y2="646.13"/><text fill="#000000" font-family="sans-serif" font-size="14" lengthAdjust="spacing" textLength="94" x="340" y="663.1251">job_name: str</text><text fill="#000000" font-family="sans-serif" font-size="14" lengthAdjust="spacing" textLength="67" x="340" y="679.422">job_id: str</text><text fill="#000000" font-family="sans-serif" font-size="14" lengthAdjust="spacing" textLength="103" x="340" y="695.7189">event_type: str</text><text fill="#000000" font-family="sans-serif" font-size="14" lengthAdjust="spacing" textLength="85" x="340" y="712.0157">event_id: str</text><text fill="#000000" font-family="sans-serif" font-size="14" lengthAdjust="spacing" textLength="138" x="340" y="728.3126">start_timestamp: str</text><text fill="#000000" font-family="sans-serif" font-size="14" lengthAdjust="spacing" textLength="134" x="340" y="744.6095">end_timestamp: str</text><text fill="#000000" font-family="sans-serif" font-size="14" lengthAdjust="spacing" textLength="147" x="340" y="760.9064">application_name: str</text><text fill="#000000" font-family="sans-serif" font-size="14" lengthAdjust="spacing" textLength="204" x="340" y="777.2032">parent_event_id: Optional[str]</text><text fill="#000000" font-family="sans-serif" font-size="14" lengthAdjust="spacing" textLength="273" x="340" y="793.5001">child_event_ids: Optional[list[str], None]</text><line style="stroke:#181818;stroke-width:0.5;" x1="335" x2="618" y1="800.8019" y2="800.8019"/></g><!--class OTELDataSource--><g id="elem_OTELDataSource"><rect codeLine="14" fill="#F1F1F1" height="80.5938" id="OTELDataSource" rx="2.5" ry="2.5" style="stroke:#181818;stroke-width:0.5;" width="174" x="286.5" y="408.35"/><ellipse cx="312.75" cy="424.35" fill="#A9DCDF" rx="11" ry="11" style="stroke:#181818;stroke-width:1.0;"/><path d="M312.8594,419.6937 L311.7031,424.7719 L314.0313,424.7719 L312.8594,419.6937 Z M311.375,417.4594 L314.3594,417.4594 L317.7188,429.85 L315.2656,429.85 L314.5,426.7875 L311.2188,426.7875 L310.4688,429.85 L308.0313,429.85 L311.375,417.4594 Z " fill="#000000"/><text fill="#000000" font-family="sans-serif" font-size="14" font-style="italic" lengthAdjust="spacing" textLength="117" x="329.25" y="429.1967">OTELDataSource</text><line style="stroke:#181818;stroke-width:0.5;" x1="287.5" x2="459.5" y1="440.35" y2="440.35"/><line style="stroke:#181818;stroke-width:0.5;" x1="287.5" x2="459.5" y1="448.35" y2="448.35"/><ellipse cx="297.5" cy="461.9984" fill="#84BE84" rx="3" ry="3" style="stroke:#038048;stroke-width:1.0;"/><text fill="#000000" font-family="sans-serif" font-size="14" lengthAdjust="spacing" textLength="94" x="306.5" y="465.3451">__iter__(): Self</text><ellipse cx="297.5" cy="478.2953" fill="#84BE84" rx="3" ry="3" style="stroke:#038048;stroke-width:1.0;"/><text fill="#000000" font-family="sans-serif" font-size="14" lengthAdjust="spacing" textLength="148" x="306.5" y="481.642">__next__(): OTelEvent</text></g><!--class JSONDataSource--><g id="elem_JSONDataSource"><rect codeLine="19" fill="#F1F1F1" height="276.1563" id="JSONDataSource" rx="2.5" ry="2.5" style="stroke:#181818;stroke-width:0.5;" width="423" x="9" y="7"/><ellipse cx="159.25" cy="23" fill="#ADD1B2" rx="11" ry="11" style="stroke:#181818;stroke-width:1.0;"/><path d="M162.2188,28.6406 Q161.6406,28.9375 161,29.0781 Q160.3594,29.2344 159.6563,29.2344 Q157.1563,29.2344 155.8281,27.5938 Q154.5156,25.9375 154.5156,22.8125 Q154.5156,19.6875 155.8281,18.0313 Q157.1563,16.375 159.6563,16.375 Q160.3594,16.375 161,16.5313 Q161.6563,16.6875 162.2188,16.9844 L162.2188,19.7031 Q161.5938,19.125 161,18.8594 Q160.4063,18.5781 159.7813,18.5781 Q158.4375,18.5781 157.75,19.6563 Q157.0625,20.7188 157.0625,22.8125 Q157.0625,24.9063 157.75,25.9844 Q158.4375,27.0469 159.7813,27.0469 Q160.4063,27.0469 161,26.7813 Q161.5938,26.5 162.2188,25.9219 L162.2188,28.6406 Z " fill="#000000"/><text fill="#000000" font-family="sans-serif" font-size="14" lengthAdjust="spacing" textLength="114" x="179.75" y="27.8467">JSONDataSource</text><line style="stroke:#181818;stroke-width:0.5;" x1="10" x2="431" y1="39" y2="39"/><polygon fill="none" points="20,47.6484,24,51.6484,20,55.6484,16,51.6484" style="stroke:#B38D22;stroke-width:1.0;"/><text fill="#000000" font-family="sans-serif" font-size="14" lengthAdjust="spacing" textLength="209" x="29" y="55.9951">config: JSONDataSourceConfig</text><polygon fill="none" points="20,63.9453,24,67.9453,20,71.9453,16,67.9453" style="stroke:#B38D22;stroke-width:1.0;"/><text fill="#000000" font-family="sans-serif" font-size="14" lengthAdjust="spacing" textLength="146" x="29" y="72.292">current_file_index: int</text><polygon fill="none" points="20,80.2422,24,84.2422,20,88.2422,16,84.2422" style="stroke:#B38D22;stroke-width:1.0;"/><text fill="#000000" font-family="sans-serif" font-size="14" lengthAdjust="spacing" textLength="290" x="29" y="88.5889">current_parser: Iterator[OTelEvent] | None</text><polygon fill="none" points="20,96.5391,24,100.5391,20,104.5391,16,100.5391" style="stroke:#B38D22;stroke-width:1.0;"/><text fill="#000000" font-family="sans-serif" font-size="14" lengthAdjust="spacing" textLength="79" x="29" y="104.8857">dirpath : str</text><polygon fill="none" points="20,112.8359,24,116.8359,20,120.8359,16,116.8359" style="stroke:#B38D22;stroke-width:1.0;"/><text fill="#000000" font-family="sans-serif" font-size="14" lengthAdjust="spacing" textLength="77" x="29" y="121.1826">filepath: str</text><polygon fill="none" points="20,129.1328,24,133.1328,20,137.1328,16,133.1328" style="stroke:#B38D22;stroke-width:1.0;"/><text fill="#000000" font-family="sans-serif" font-size="14" lengthAdjust="spacing" textLength="101" x="29" y="137.4795">file_list: list[str]</text><line style="stroke:#181818;stroke-width:0.5;" x1="10" x2="431" y1="144.7813" y2="144.7813"/><ellipse cx="20" cy="158.4297" fill="#84BE84" rx="3" ry="3" style="stroke:#038048;stroke-width:1.0;"/><text fill="#000000" font-family="sans-serif" font-size="14" lengthAdjust="spacing" textLength="104" x="29" y="161.7764">__init__(): None</text><ellipse cx="20" cy="174.7266" fill="#84BE84" rx="3" ry="3" style="stroke:#038048;stroke-width:1.0;"/><text fill="#000000" font-family="sans-serif" font-size="14" lengthAdjust="spacing" textLength="148" x="29" y="178.0732">__next__(): OTelEvent</text><ellipse cx="20" cy="191.0234" fill="#84BE84" rx="3" ry="3" style="stroke:#038048;stroke-width:1.0;"/><text fill="#000000" font-family="sans-serif" font-size="14" lengthAdjust="spacing" textLength="356" x="29" y="194.3701">parse_json_stream(filepath: str): Iterator[OTelEvent]</text><ellipse cx="20" cy="207.3203" fill="#84BE84" rx="3" ry="3" style="stroke:#038048;stroke-width:1.0;"/><text fill="#000000" font-family="sans-serif" font-size="14" lengthAdjust="spacing" textLength="357" x="29" y="210.667">create_otel_object(record: dict[str, Any]): OTelEvent</text><ellipse cx="20" cy="223.6172" fill="#84BE84" rx="3" ry="3" style="stroke:#038048;stroke-width:1.0;"/><text fill="#000000" font-family="sans-serif" font-size="14" lengthAdjust="spacing" textLength="164" x="29" y="226.9639">set_dirpath(): str | None</text><ellipse cx="20" cy="239.9141" fill="#84BE84" rx="3" ry="3" style="stroke:#038048;stroke-width:1.0;"/><text fill="#000000" font-family="sans-serif" font-size="14" lengthAdjust="spacing" textLength="166" x="29" y="243.2607">set_filepath(): str | None</text><ellipse cx="20" cy="256.2109" fill="#84BE84" rx="3" ry="3" style="stroke:#038048;stroke-width:1.0;"/><text fill="#000000" font-family="sans-serif" font-size="14" lengthAdjust="spacing" textLength="141" x="29" y="259.5576">get_file_list(): list[str]</text><ellipse cx="20" cy="272.5078" fill="#84BE84" rx="3" ry="3" style="stroke:#038048;stroke-width:1.0;"/><text fill="#000000" font-family="sans-serif" font-size="14" lengthAdjust="spacing" textLength="397" x="29" y="275.8545">process_record(record: dict[str, Any]): Iterator[OTelEvent]</text></g><!--class SQLDataHolder--><g id="elem_SQLDataHolder"><rect codeLine="36" fill="#F1F1F1" height="113.1875" id="SQLDataHolder" rx="2.5" ry="2.5" style="stroke:#181818;stroke-width:0.5;" width="239" x="777" y="88.49"/><ellipse cx="840.25" cy="104.49" fill="#ADD1B2" rx="11" ry="11" style="stroke:#181818;stroke-width:1.0;"/><path d="M843.2188,110.1306 Q842.6406,110.4275 842,110.5681 Q841.3594,110.7244 840.6563,110.7244 Q838.1563,110.7244 836.8281,109.0838 Q835.5156,107.4275 835.5156,104.3025 Q835.5156,101.1775 836.8281,99.5213 Q838.1563,97.865 840.6563,97.865 Q841.3594,97.865 842,98.0213 Q842.6563,98.1775 843.2188,98.4744 L843.2188,101.1931 Q842.5938,100.615 842,100.3494 Q841.4063,100.0681 840.7813,100.0681 Q839.4375,100.0681 838.75,101.1463 Q838.0625,102.2088 838.0625,104.3025 Q838.0625,106.3963 838.75,107.4744 Q839.4375,108.5369 840.7813,108.5369 Q841.4063,108.5369 842,108.2713 Q842.5938,107.99 843.2188,107.4119 L843.2188,110.1306 Z " fill="#000000"/><text fill="#000000" font-family="sans-serif" font-size="14" lengthAdjust="spacing" textLength="104" x="860.75" y="109.3367">SQLDataHolder</text><line style="stroke:#181818;stroke-width:0.5;" x1="778" x2="1015" y1="120.49" y2="120.49"/><polygon fill="none" points="788,129.1384,792,133.1384,788,137.1384,784,133.1384" style="stroke:#B38D22;stroke-width:1.0;"/><text fill="#000000" font-family="sans-serif" font-size="14" lengthAdjust="spacing" textLength="213" x="797" y="137.4851">data_to_save: list&lt;OTelEvent&gt;</text><polygon fill="none" points="788,145.4353,792,149.4353,788,153.4353,784,149.4353" style="stroke:#B38D22;stroke-width:1.0;"/><text fill="#000000" font-family="sans-serif" font-size="14" lengthAdjust="spacing" textLength="100" x="797" y="153.782">batch_size: int</text><polygon fill="none" points="788,161.7322,792,165.7322,788,169.7322,784,165.7322" style="stroke:#B38D22;stroke-width:1.0;"/><text fill="#000000" font-family="sans-serif" font-size="14" lengthAdjust="spacing" textLength="75" x="797" y="170.0789">engine: str</text><line style="stroke:#181818;stroke-width:0.5;" x1="778" x2="1015" y1="177.3806" y2="177.3806"/><ellipse cx="788" cy="191.0291" fill="#84BE84" rx="3" ry="3" style="stroke:#038048;stroke-width:1.0;"/><text fill="#000000" font-family="sans-serif" font-size="14" lengthAdjust="spacing" textLength="174" x="797" y="194.3757">create_db_tables(): None</text></g><!--class NodeModel--><g id="elem_NodeModel"><rect codeLine="43" fill="#F1F1F1" height="210.9688" id="NodeModel" rx="2.5" ry="2.5" style="stroke:#181818;stroke-width:0.5;" width="285" x="754" y="343.16"/><ellipse cx="852.75" cy="359.16" fill="#ADD1B2" rx="11" ry="11" style="stroke:#181818;stroke-width:1.0;"/><path d="M855.7188,364.8006 Q855.1406,365.0975 854.5,365.2381 Q853.8594,365.3944 853.1563,365.3944 Q850.6563,365.3944 849.3281,363.7537 Q848.0156,362.0975 848.0156,358.9725 Q848.0156,355.8475 849.3281,354.1912 Q850.6563,352.535 853.1563,352.535 Q853.8594,352.535 854.5,352.6912 Q855.1563,352.8475 855.7188,353.1444 L855.7188,355.8631 Q855.0938,355.285 854.5,355.0194 Q853.9063,354.7381 853.2813,354.7381 Q851.9375,354.7381 851.25,355.8162 Q850.5625,356.8787 850.5625,358.9725 Q850.5625,361.0662 851.25,362.1444 Q851.9375,363.2069 853.2813,363.2069 Q853.9063,363.2069 854.5,362.9412 Q855.0938,362.66 855.7188,362.0819 L855.7188,364.8006 Z " fill="#000000"/><text fill="#000000" font-family="sans-serif" font-size="14" lengthAdjust="spacing" textLength="79" x="873.25" y="364.0067">NodeModel</text><line style="stroke:#181818;stroke-width:0.5;" x1="755" x2="1038" y1="375.16" y2="375.16"/><text fill="#000000" font-family="sans-serif" font-size="14" lengthAdjust="spacing" textLength="38" x="760" y="392.1551">id: int</text><text fill="#000000" font-family="sans-serif" font-size="14" lengthAdjust="spacing" textLength="94" x="760" y="408.452">job_name: str</text><text fill="#000000" font-family="sans-serif" font-size="14" lengthAdjust="spacing" textLength="67" x="760" y="424.7489">job_id: str</text><text fill="#000000" font-family="sans-serif" font-size="14" lengthAdjust="spacing" textLength="103" x="760" y="441.0457">event_type: str</text><text fill="#000000" font-family="sans-serif" font-size="14" lengthAdjust="spacing" textLength="85" x="760" y="457.3426">event_id: str</text><text fill="#000000" font-family="sans-serif" font-size="14" lengthAdjust="spacing" textLength="181" x="760" y="473.6395">start_timestamp: datetime</text><text fill="#000000" font-family="sans-serif" font-size="14" lengthAdjust="spacing" textLength="177" x="760" y="489.9364">end_timestamp: datetime</text><text fill="#000000" font-family="sans-serif" font-size="14" lengthAdjust="spacing" textLength="147" x="760" y="506.2332">application_name: str</text><text fill="#000000" font-family="sans-serif" font-size="14" lengthAdjust="spacing" textLength="137" x="760" y="522.5301">parent_event_id: str</text><text fill="#000000" font-family="sans-serif" font-size="14" lengthAdjust="spacing" textLength="273" x="760" y="538.827">child_event_ids: Optional[list[str], None]</text><line style="stroke:#181818;stroke-width:0.5;" x1="755" x2="1038" y1="546.1288" y2="546.1288"/></g><!--class Base--><g id="elem_Base"><rect codeLine="56" fill="#F1F1F1" height="64.2969" id="Base" rx="2.5" ry="2.5" style="stroke:#181818;stroke-width:0.5;" width="276" x="758.5" y="679.32"/><ellipse cx="874.75" cy="695.32" fill="#ADD1B2" rx="11" ry="11" style="stroke:#181818;stroke-width:1.0;"/><path d="M877.7188,700.9606 Q877.1406,701.2575 876.5,701.3981 Q875.8594,701.5544 875.1563,701.5544 Q872.6563,701.5544 871.3281,699.9137 Q870.0156,698.2575 870.0156,695.1325 Q870.0156,692.0075 871.3281,690.3512 Q872.6563,688.695 875.1563,688.695 Q875.8594,688.695 876.5,688.8512 Q877.1563,689.0075 877.7188,689.3044 L877.7188,692.0231 Q877.0938,691.445 876.5,691.1794 Q875.9063,690.8981 875.2813,690.8981 Q873.9375,690.8981 873.25,691.9762 Q872.5625,693.0387 872.5625,695.1325 Q872.5625,697.2262 873.25,698.3044 Q873.9375,699.3669 875.2813,699.3669 Q875.9063,699.3669 876.5,699.1012 Q877.0938,698.82 877.7188,698.2419 L877.7188,700.9606 Z " fill="#000000"/><text fill="#000000" font-family="sans-serif" font-size="14" lengthAdjust="spacing" textLength="35" x="895.25" y="700.1667">Base</text><line style="stroke:#181818;stroke-width:0.5;" x1="759.5" x2="1033.5" y1="711.32" y2="711.32"/><text fill="#000000" font-family="monospace" font-size="14" lengthAdjust="spacing" textLength="264" x="764.5" y="728.3151">SQLAlchemy&#160;declarative&#160;base&#160;class</text><line style="stroke:#181818;stroke-width:0.5;" x1="759.5" x2="1033.5" y1="735.6169" y2="735.6169"/></g><!--class DataHolder--><g id="elem_DataHolder"><rect codeLine="60" fill="#F1F1F1" height="64.2969" id="DataHolder" rx="2.5" ry="2.5" style="stroke:#181818;stroke-width:0.5;" width="222" x="495.5" y="416.5"/><ellipse cx="563.75" cy="432.5" fill="#A9DCDF" rx="11" ry="11" style="stroke:#181818;stroke-width:1.0;"/><path d="M563.8594,427.8437 L562.7031,432.9219 L565.0313,432.9219 L563.8594,427.8437 Z M562.375,425.6094 L565.3594,425.6094 L568.7188,438 L566.2656,438 L565.5,434.9375 L562.2188,434.9375 L561.4688,438 L559.0313,438 L562.375,425.6094 Z " fill="#000000"/><text fill="#000000" font-family="sans-serif" font-size="14" font-style="italic" lengthAdjust="spacing" textLength="77" x="584.25" y="437.3467">DataHolder</text><line style="stroke:#181818;stroke-width:0.5;" x1="496.5" x2="716.5" y1="448.5" y2="448.5"/><line style="stroke:#181818;stroke-width:0.5;" x1="496.5" x2="716.5" y1="456.5" y2="456.5"/><ellipse cx="506.5" cy="470.1484" fill="#84BE84" rx="3" ry="3" style="stroke:#038048;stroke-width:1.0;"/><text fill="#000000" font-family="sans-serif" font-size="14" lengthAdjust="spacing" textLength="196" x="515.5" y="473.4951">save_data(OTelEvent): None</text></g><!--class IngestData--><g id="elem_IngestData"><rect codeLine="64" fill="#F1F1F1" height="96.8906" id="IngestData" rx="2.5" ry="2.5" style="stroke:#181818;stroke-width:0.5;" width="274" x="467.5" y="96.64"/><ellipse cx="562.75" cy="112.64" fill="#ADD1B2" rx="11" ry="11" style="stroke:#181818;stroke-width:1.0;"/><path d="M565.7188,118.2806 Q565.1406,118.5775 564.5,118.7181 Q563.8594,118.8744 563.1563,118.8744 Q560.6563,118.8744 559.3281,117.2337 Q558.0156,115.5775 558.0156,112.4525 Q558.0156,109.3275 559.3281,107.6712 Q560.6563,106.015 563.1563,106.015 Q563.8594,106.015 564.5,106.1712 Q565.1563,106.3275 565.7188,106.6244 L565.7188,109.3431 Q565.0938,108.765 564.5,108.4994 Q563.9063,108.2181 563.2813,108.2181 Q561.9375,108.2181 561.25,109.2962 Q560.5625,110.3587 560.5625,112.4525 Q560.5625,114.5462 561.25,115.6244 Q561.9375,116.6869 563.2813,116.6869 Q563.9063,116.6869 564.5,116.4212 Q565.0938,116.14 565.7188,115.5619 L565.7188,118.2806 Z " fill="#000000"/><text fill="#000000" font-family="sans-serif" font-size="14" lengthAdjust="spacing" textLength="75" x="583.25" y="117.4867">IngestData</text><line style="stroke:#181818;stroke-width:0.5;" x1="468.5" x2="740.5" y1="128.64" y2="128.64"/><polygon fill="none" points="478.5,137.2884,482.5,141.2884,478.5,145.2884,474.5,141.2884" style="stroke:#B38D22;stroke-width:1.0;"/><text fill="#000000" font-family="sans-serif" font-size="14" lengthAdjust="spacing" textLength="248" x="487.5" y="145.6351">otel_data_source : OTELDataSource</text><polygon fill="none" points="478.5,153.5853,482.5,157.5853,478.5,161.5853,474.5,157.5853" style="stroke:#B38D22;stroke-width:1.0;"/><text fill="#000000" font-family="sans-serif" font-size="14" lengthAdjust="spacing" textLength="171" x="487.5" y="161.932">data_holder : DataHolder</text><line style="stroke:#181818;stroke-width:0.5;" x1="468.5" x2="740.5" y1="169.2338" y2="169.2338"/><ellipse cx="478.5" cy="182.8822" fill="#84BE84" rx="3" ry="3" style="stroke:#038048;stroke-width:1.0;"/><text fill="#000000" font-family="sans-serif" font-size="14" lengthAdjust="spacing" textLength="194" x="487.5" y="186.2289">load_to_data_holder(): None</text></g><!--link IngestData to OTELDataSource--><g id="link_IngestData_OTELDataSource"><path codeLine="70" d="M567.9,193.86 C522.48,253.15 449.5393,348.3874 407.3193,403.4874 " fill="none" id="IngestData-to-OTELDataSource" style="stroke:#181818;stroke-width:1.0;stroke-dasharray:7.0,7.0;"/><polygon fill="#181818" points="403.67,408.25,412.3191,403.539,406.7111,404.2812,405.9689,398.6732,403.67,408.25" style="stroke:#181818;stroke-width:1.0;"/></g><!--link IngestData to DataHolder--><g id="link_IngestData_DataHolder"><path codeLine="71" d="M604.82,193.86 C605.23,256.14 605.9003,357.3301 606.2503,410.2301 " fill="none" id="IngestData-to-DataHolder" style="stroke:#181818;stroke-width:1.0;stroke-dasharray:7.0,7.0;"/><polygon fill="#181818" points="606.29,416.23,610.2304,407.2037,606.2569,411.2301,602.2305,407.2567,606.29,416.23" style="stroke:#181818;stroke-width:1.0;"/></g><!--link OTELDataSource to OTelEvent--><g id="link_OTELDataSource_OTelEvent"><path codeLine="72" d="M389.14,489.26 C402.17,522.25 419.0767,565.0492 436.0967,608.1592 " fill="none" id="OTELDataSource-to-OTelEvent" style="stroke:#181818;stroke-width:1.0;stroke-dasharray:7.0,7.0;"/><polygon fill="#181818" points="438.3,613.74,438.7156,603.8999,436.4639,609.0893,431.2745,606.8377,438.3,613.74" style="stroke:#181818;stroke-width:1.0;"/></g><!--link JSONDataSource to OTELDataSource--><g id="link_JSONDataSource_OTELDataSource"><path codeLine="73" d="M290.28,283.63 C313.3,328.98 334.4153,370.5993 350.6453,402.5893 " fill="none" id="JSONDataSource-to-OTELDataSource" style="stroke:#181818;stroke-width:1.0;"/><polygon fill="#181818" points="353.36,407.94,352.8551,398.1041,351.0978,403.481,345.7208,401.7237,353.36,407.94" style="stroke:#181818;stroke-width:1.0;"/></g><!--link SQLDataHolder to DataHolder--><g id="link_SQLDataHolder_DataHolder"><path codeLine="74" d="M842.63,202.1 C782.03,265.12 689.8591,360.9654 641.0891,411.6754 " fill="none" id="SQLDataHolder-to-DataHolder" style="stroke:#181818;stroke-width:1.0;"/><polygon fill="#181818" points="636.93,416,646.0517,412.2859,640.3959,412.3962,640.2856,406.7404,636.93,416" style="stroke:#181818;stroke-width:1.0;"/></g><!--link SQLDataHolder to NodeModel--><g id="link_SQLDataHolder_NodeModel"><path codeLine="75" d="M896.5,202.1 C896.5,241.53 896.5,289.5 896.5,336.8 " fill="none" id="SQLDataHolder-to-NodeModel" style="stroke:#181818;stroke-width:1.0;stroke-dasharray:7.0,7.0;"/><polygon fill="#181818" points="896.5,342.8,900.5,333.8,896.5,337.8,892.5,333.8,896.5,342.8" style="stroke:#181818;stroke-width:1.0;"/></g><!--link NodeModel to Base--><g id="link_NodeModel_Base"><path codeLine="76" d="M896.5,554.6 C896.5,599.33 896.5,642.22 896.5,673.09 " fill="none" id="NodeModel-to-Base" style="stroke:#181818;stroke-width:1.0;"/><polygon fill="#181818" points="896.5,679.09,900.5,670.09,896.5,674.09,892.5,670.09,896.5,679.09" style="stroke:#181818;stroke-width:1.0;"/></g><!--link DataHolder to OTelEvent--><g id="link_DataHolder_OTelEvent"><path codeLine="77" d="M590.82,481.1 C574.48,513.89 550.7164,561.56 527.3864,608.37 " fill="none" id="DataHolder-to-OTelEvent" style="stroke:#181818;stroke-width:1.0;stroke-dasharray:7.0,7.0;"/><polygon fill="#181818" points="524.71,613.74,532.3046,607.4693,526.9403,609.265,525.1446,603.9007,524.71,613.74" style="stroke:#181818;stroke-width:1.0;"/></g><!--SRC=[jLJRYjim47ttLuZiIvQzV80f2zjseLlQX9A-BK78qYHHK2GZAM7Joxzt9DcAudWVzg46WprpTEPoPkIytNDFvZz1FHr0U_Ax8lXiJKCrsq5DdBVP8iNf7mAQ-cCBGrk9SfvPHCaTuDUkBQ1QZ9bPsoh9cPT63-Atp0RoKuXv6r1ClI1Y6I5y8vN825T0b7G-ucx9p6XOLd-hYZLeO5WxLymvxC3Jjy_CiuNPMmvT6suebHuifTFhcYn0hNghXbUVhBbpWJDHVLtCPnTKLzpebLpN0- -dQEqGUnjhN4a5L6e1hpMHI7pcn3uui3LvnhoOD_Ob9x0aVs9r2I-aRPdVa5C7hm9li0rCD7Id9hb7kN8jknepwnkLHrTCZ6uTAeSim7RJitZNeocdenpX7gZneAXfji3zr08t5bKMaiUiRicZFYulephmj2irv8J8iWlHtQSnvbzt_jY301XqeRM6WtCqfVDsLcEbvNbO_8YJzSKe0ROV1u4MwWrrx00fx8TyzY516kRvXZhv2uev0BsMkjYBldcYePur2bmMBCUV6G7VyLLTxB0zFTz_MtIi3yBlsBQV-TwnyhtZVOkUcl2HkNuL9nDKv57n3UoEH03wKJjv0D84J8HF9YDNn8M8Dq4y6fISPkqkkl-irrXtEDjB7-Sywk_I3L4FRfzYGZOfNbq4Jw6LOIBCJu4gbI-Ytjy_3Fa7te9xS0sci_t63IwskxiBulDH3u22-zmPgFDaLgSP3OU2MDK0UqgZ-WS0]--></g></svg>