<?xml version="1.0" encoding="us-ascii" standalone="no"?><svg xmlns="http://www.w3.org/2000/svg" xmlns:xlink="http://www.w3.org/1999/xlink" contentStyleType="text/css" height="1006px" preserveAspectRatio="none" style="width:1343px;height:1006px;background:#FFFFFF;" version="1.1" viewBox="0 0 1343 1006" width="1343px" zoomAndPan="magnify"><defs/><g><!--cluster otel_ingestion--><g id="cluster_otel_ingestion"><path d="M8.5,6 L119.5,6 A3.75,3.75 0 0 1 122,8.5 L129,28.2969 L1333.5,28.2969 A2.5,2.5 0 0 1 1336,30.7969 L1336,997.41 A2.5,2.5 0 0 1 1333.5,999.91 L8.5,999.91 A2.5,2.5 0 0 1 6,997.41 L6,8.5 A2.5,2.5 0 0 1 8.5,6 " fill="none" style="stroke:#000000;stroke-width:1.5;"/><line style="stroke:#000000;stroke-width:1.5;" x1="6" x2="129" y1="28.2969" y2="28.2969"/><text fill="#000000" font-family="sans-serif" font-size="14" font-weight="bold" lengthAdjust="spacing" textLength="110" x="10" y="20.9951">otel_ingestion</text></g><!--cluster otel_data_model--><g id="cluster_otel_data_model"><path d="M217.5,540.75 L344.5,540.75 A3.75,3.75 0 0 1 347,543.25 L354,563.0469 L1163.5,563.0469 A2.5,2.5 0 0 1 1166,565.5469 L1166,973.41 A2.5,2.5 0 0 1 1163.5,975.91 L217.5,975.91 A2.5,2.5 0 0 1 215,973.41 L215,543.25 A2.5,2.5 0 0 1 217.5,540.75 " fill="none" style="stroke:#000000;stroke-width:1.5;"/><line style="stroke:#000000;stroke-width:1.5;" x1="215" x2="354" y1="563.0469" y2="563.0469"/><text fill="#000000" font-family="sans-serif" font-size="14" font-weight="bold" lengthAdjust="spacing" textLength="126" x="219" y="555.7451">otel_data_model</text></g><!--cluster otel_data_source--><g id="cluster_otel_data_source"><path d="M32.5,49 L166.5,49 A3.75,3.75 0 0 1 169,51.5 L176,71.2969 L483.5,71.2969 A2.5,2.5 0 0 1 486,73.7969 L486,514.25 A2.5,2.5 0 0 1 483.5,516.75 L32.5,516.75 A2.5,2.5 0 0 1 30,514.25 L30,51.5 A2.5,2.5 0 0 1 32.5,49 " fill="none" style="stroke:#000000;stroke-width:1.5;"/><line style="stroke:#000000;stroke-width:1.5;" x1="30" x2="176" y1="71.2969" y2="71.2969"/><text fill="#000000" font-family="sans-serif" font-size="14" font-weight="bold" lengthAdjust="spacing" textLength="133" x="34" y="63.9951">otel_data_source</text></g><!--cluster otel_data_holder--><g id="cluster_otel_data_holder"><path d="M842.5,49 L972.5,49 A3.75,3.75 0 0 1 975,51.5 L982,71.2969 L1309.5,71.2969 A2.5,2.5 0 0 1 1312,73.7969 L1312,514.25 A2.5,2.5 0 0 1 1309.5,516.75 L842.5,516.75 A2.5,2.5 0 0 1 840,514.25 L840,51.5 A2.5,2.5 0 0 1 842.5,49 " fill="none" style="stroke:#000000;stroke-width:1.5;"/><line style="stroke:#000000;stroke-width:1.5;" x1="840" x2="982" y1="71.2969" y2="71.2969"/><text fill="#000000" font-family="sans-serif" font-size="14" font-weight="bold" lengthAdjust="spacing" textLength="129" x="844" y="63.9951">otel_data_holder</text></g><!--cluster ingest_data--><g id="cluster_ingest_data"><path d="M512.5,138.64 L603.5,138.64 A3.75,3.75 0 0 1 606,141.14 L613,160.9369 L813.5,160.9369 A2.5,2.5 0 0 1 816,163.4369 L816,284.03 A2.5,2.5 0 0 1 813.5,286.53 L512.5,286.53 A2.5,2.5 0 0 1 510,284.03 L510,141.14 A2.5,2.5 0 0 1 512.5,138.64 " fill="none" style="stroke:#000000;stroke-width:1.5;"/><line style="stroke:#000000;stroke-width:1.5;" x1="510" x2="613" y1="160.9369" y2="160.9369"/><text fill="#000000" font-family="sans-serif" font-size="14" font-weight="bold" lengthAdjust="spacing" textLength="90" x="514" y="153.6351">ingest_data</text></g><!--class OTelEvent--><g id="elem_OTelEvent"><rect codeLine="2" fill="#F1F1F1" height="194.6719" id="OTelEvent" rx="2.5" ry="2.5" style="stroke:#181818;stroke-width:0.5;" width="285" x="539.5" y="583.9"/><ellipse cx="642.25" cy="599.9" fill="#F1F1F1" rx="11" ry="11" style="stroke:#181818;stroke-width:1.0;"/><path d="M641.7344,600.4625 Q639.875,599.7594 639.2188,598.9938 Q638.5781,598.2125 638.5781,596.9 Q638.5781,595.2125 639.6563,594.2438 Q640.7344,593.275 642.6094,593.275 Q643.4688,593.275 644.3125,593.4781 Q645.1719,593.6656 646.0156,594.0563 L646.0156,596.4469 Q645.2344,595.8844 644.4063,595.6031 Q643.5938,595.3063 642.7969,595.3063 Q641.9219,595.3063 641.4375,595.6656 Q640.9688,596.025 640.9688,596.6813 Q640.9688,597.1969 641.3125,597.5406 Q641.6563,597.8688 642.75,598.275 L643.8125,598.6813 Q645.2969,599.2281 646,600.1344 Q646.7188,601.0406 646.7188,602.4156 Q646.7188,604.2906 645.6094,605.2125 Q644.5,606.1344 642.25,606.1344 Q641.3281,606.1344 640.4063,605.9156 Q639.4844,605.6969 638.625,605.275 L638.625,602.7438 Q639.5938,603.4313 640.5156,603.775 Q641.4375,604.1188 642.3281,604.1188 Q643.2344,604.1188 643.7344,603.7125 Q644.2344,603.2906 644.2344,602.5563 Q644.2344,601.9938 643.8906,601.5875 Q643.5625,601.1656 642.9375,600.9156 L641.7344,600.4625 Z " fill="#000000"/><text fill="#000000" font-family="sans-serif" font-size="14" lengthAdjust="spacing" textLength="71" x="662.75" y="604.7467">OTelEvent</text><line style="stroke:#181818;stroke-width:0.5;" x1="540.5" x2="823.5" y1="615.9" y2="615.9"/><text fill="#000000" font-family="sans-serif" font-size="14" lengthAdjust="spacing" textLength="94" x="545.5" y="632.8951">job_name: str</text><text fill="#000000" font-family="sans-serif" font-size="14" lengthAdjust="spacing" textLength="67" x="545.5" y="649.192">job_id: str</text><text fill="#000000" font-family="sans-serif" font-size="14" lengthAdjust="spacing" textLength="103" x="545.5" y="665.4889">event_type: str</text><text fill="#000000" font-family="sans-serif" font-size="14" lengthAdjust="spacing" textLength="85" x="545.5" y="681.7857">event_id: str</text><text fill="#000000" font-family="sans-serif" font-size="14" lengthAdjust="spacing" textLength="138" x="545.5" y="698.0826">start_timestamp: str</text><text fill="#000000" font-family="sans-serif" font-size="14" lengthAdjust="spacing" textLength="134" x="545.5" y="714.3795">end_timestamp: str</text><text fill="#000000" font-family="sans-serif" font-size="14" lengthAdjust="spacing" textLength="147" x="545.5" y="730.6764">application_name: str</text><text fill="#000000" font-family="sans-serif" font-size="14" lengthAdjust="spacing" textLength="204" x="545.5" y="746.9732">parent_event_id: Optional[str]</text><text fill="#000000" font-family="sans-serif" font-size="14" lengthAdjust="spacing" textLength="273" x="545.5" y="763.2701">child_event_ids: Optional[list[str], None]</text><line style="stroke:#181818;stroke-width:0.5;" x1="540.5" x2="823.5" y1="770.5719" y2="770.5719"/></g><!--class NodeModel--><g id="elem_NodeModel"><rect codeLine="53" fill="#F1F1F1" height="210.9688" id="NodeModel" rx="2.5" ry="2.5" style="stroke:#181818;stroke-width:0.5;" width="285" x="865.5" y="575.75"/><ellipse cx="964.25" cy="591.75" fill="#ADD1B2" rx="11" ry="11" style="stroke:#181818;stroke-width:1.0;"/><path d="M967.2188,597.3906 Q966.6406,597.6875 966,597.8281 Q965.3594,597.9844 964.6563,597.9844 Q962.1563,597.9844 960.8281,596.3437 Q959.5156,594.6875 959.5156,591.5625 Q959.5156,588.4375 960.8281,586.7812 Q962.1563,585.125 964.6563,585.125 Q965.3594,585.125 966,585.2812 Q966.6563,585.4375 967.2188,585.7344 L967.2188,588.4531 Q966.5938,587.875 966,587.6094 Q965.4063,587.3281 964.7813,587.3281 Q963.4375,587.3281 962.75,588.4062 Q962.0625,589.4687 962.0625,591.5625 Q962.0625,593.6562 962.75,594.7344 Q963.4375,595.7969 964.7813,595.7969 Q965.4063,595.7969 966,595.5312 Q966.5938,595.25 967.2188,594.6719 L967.2188,597.3906 Z " fill="#000000"/><text fill="#000000" font-family="sans-serif" font-size="14" lengthAdjust="spacing" textLength="79" x="984.75" y="596.5967">NodeModel</text><line style="stroke:#181818;stroke-width:0.5;" x1="866.5" x2="1149.5" y1="607.75" y2="607.75"/><text fill="#000000" font-family="sans-serif" font-size="14" lengthAdjust="spacing" textLength="38" x="871.5" y="624.7451">id: int</text><text fill="#000000" font-family="sans-serif" font-size="14" lengthAdjust="spacing" textLength="94" x="871.5" y="641.042">job_name: str</text><text fill="#000000" font-family="sans-serif" font-size="14" lengthAdjust="spacing" textLength="67" x="871.5" y="657.3389">job_id: str</text><text fill="#000000" font-family="sans-serif" font-size="14" lengthAdjust="spacing" textLength="103" x="871.5" y="673.6357">event_type: str</text><text fill="#000000" font-family="sans-serif" font-size="14" lengthAdjust="spacing" textLength="85" x="871.5" y="689.9326">event_id: str</text><text fill="#000000" font-family="sans-serif" font-size="14" lengthAdjust="spacing" textLength="181" x="871.5" y="706.2295">start_timestamp: datetime</text><text fill="#000000" font-family="sans-serif" font-size="14" lengthAdjust="spacing" textLength="177" x="871.5" y="722.5264">end_timestamp: datetime</text><text fill="#000000" font-family="sans-serif" font-size="14" lengthAdjust="spacing" textLength="147" x="871.5" y="738.8232">application_name: str</text><text fill="#000000" font-family="sans-serif" font-size="14" lengthAdjust="spacing" textLength="204" x="871.5" y="755.1201">parent_event_id: Optional[str]</text><text fill="#000000" font-family="sans-serif" font-size="14" lengthAdjust="spacing" textLength="273" x="871.5" y="771.417">child_event_ids: Optional[list[str], None]</text><line style="stroke:#181818;stroke-width:0.5;" x1="866.5" x2="1149.5" y1="778.7187" y2="778.7187"/></g><!--class Base--><g id="elem_Base"><rect codeLine="66" fill="#F1F1F1" height="64.2969" id="Base" rx="2.5" ry="2.5" style="stroke:#181818;stroke-width:0.5;" width="276" x="874" y="871.17"/><ellipse cx="990.25" cy="887.17" fill="#ADD1B2" rx="11" ry="11" style="stroke:#181818;stroke-width:1.0;"/><path d="M993.2188,892.8106 Q992.6406,893.1075 992,893.2481 Q991.3594,893.4044 990.6563,893.4044 Q988.1563,893.4044 986.8281,891.7638 Q985.5156,890.1075 985.5156,886.9825 Q985.5156,883.8575 986.8281,882.2013 Q988.1563,880.545 990.6563,880.545 Q991.3594,880.545 992,880.7013 Q992.6563,880.8575 993.2188,881.1544 L993.2188,883.8731 Q992.5938,883.295 992,883.0294 Q991.4063,882.7481 990.7813,882.7481 Q989.4375,882.7481 988.75,883.8263 Q988.0625,884.8888 988.0625,886.9825 Q988.0625,889.0763 988.75,890.1544 Q989.4375,891.2169 990.7813,891.2169 Q991.4063,891.2169 992,890.9513 Q992.5938,890.67 993.2188,890.0919 L993.2188,892.8106 Z " fill="#000000"/><text fill="#000000" font-family="sans-serif" font-size="14" lengthAdjust="spacing" textLength="35" x="1010.75" y="892.0167">Base</text><line style="stroke:#181818;stroke-width:0.5;" x1="875" x2="1149" y1="903.17" y2="903.17"/><text fill="#000000" font-family="monospace" font-size="14" lengthAdjust="spacing" textLength="264" x="880" y="920.1651">SQLAlchemy&#160;declarative&#160;base&#160;class</text><line style="stroke:#181818;stroke-width:0.5;" x1="875" x2="1149" y1="927.4669" y2="927.4669"/></g><!--class JSONDataSourceConfig--><g id="elem_JSONDataSourceConfig"><rect codeLine="81" fill="#F1F1F1" height="145.7813" id="JSONDataSourceConfig" rx="2.5" ry="2.5" style="stroke:#181818;stroke-width:0.5;" width="253" x="238.5" y="608.35"/><ellipse cx="281.85" cy="624.35" fill="#ADD1B2" rx="11" ry="11" style="stroke:#181818;stroke-width:1.0;"/><path d="M284.8188,629.9906 Q284.2406,630.2875 283.6,630.4281 Q282.9594,630.5844 282.2563,630.5844 Q279.7563,630.5844 278.4281,628.9438 Q277.1156,627.2875 277.1156,624.1625 Q277.1156,621.0375 278.4281,619.3813 Q279.7563,617.725 282.2563,617.725 Q282.9594,617.725 283.6,617.8813 Q284.2563,618.0375 284.8188,618.3344 L284.8188,621.0531 Q284.1938,620.475 283.6,620.2094 Q283.0063,619.9281 282.3813,619.9281 Q281.0375,619.9281 280.35,621.0063 Q279.6625,622.0688 279.6625,624.1625 Q279.6625,626.2563 280.35,627.3344 Q281.0375,628.3969 282.3813,628.3969 Q283.0063,628.3969 283.6,628.1313 Q284.1938,627.85 284.8188,627.2719 L284.8188,629.9906 Z " fill="#000000"/><text fill="#000000" font-family="sans-serif" font-size="14" lengthAdjust="spacing" textLength="158" x="302.15" y="629.1967">JSONDataSourceConfig</text><line style="stroke:#181818;stroke-width:0.5;" x1="239.5" x2="490.5" y1="640.35" y2="640.35"/><text fill="#000000" font-family="sans-serif" font-size="14" lengthAdjust="spacing" textLength="77" x="244.5" y="657.3451">filepath: str</text><text fill="#000000" font-family="sans-serif" font-size="14" lengthAdjust="spacing" textLength="75" x="244.5" y="673.642">dirpath: str</text><text fill="#000000" font-family="sans-serif" font-size="14" lengthAdjust="spacing" textLength="118" x="244.5" y="689.9389">data_location: str</text><text fill="#000000" font-family="sans-serif" font-size="14" lengthAdjust="spacing" textLength="204" x="244.5" y="706.2357">header: dict[str, HeaderSpec]</text><text fill="#000000" font-family="sans-serif" font-size="14" lengthAdjust="spacing" textLength="241" x="244.5" y="722.5326">span_mapping: dict[str, SpanSpec]</text><text fill="#000000" font-family="sans-serif" font-size="14" lengthAdjust="spacing" textLength="232" x="244.5" y="738.8295">field_mapping: dict[str, FieldSpec]</text><line style="stroke:#181818;stroke-width:0.5;" x1="239.5" x2="490.5" y1="746.1313" y2="746.1313"/></g><!--class HeaderSpec--><g id="elem_HeaderSpec"><rect codeLine="90" fill="#F1F1F1" height="64.2969" id="HeaderSpec" rx="2.5" ry="2.5" style="stroke:#181818;stroke-width:0.5;" width="117" x="722.5" y="871.17"/><ellipse cx="737.5" cy="887.17" fill="#ADD1B2" rx="11" ry="11" style="stroke:#181818;stroke-width:1.0;"/><path d="M740.4688,892.8106 Q739.8906,893.1075 739.25,893.2481 Q738.6094,893.4044 737.9063,893.4044 Q735.4063,893.4044 734.0781,891.7638 Q732.7656,890.1075 732.7656,886.9825 Q732.7656,883.8575 734.0781,882.2013 Q735.4063,880.545 737.9063,880.545 Q738.6094,880.545 739.25,880.7013 Q739.9063,880.8575 740.4688,881.1544 L740.4688,883.8731 Q739.8438,883.295 739.25,883.0294 Q738.6563,882.7481 738.0313,882.7481 Q736.6875,882.7481 736,883.8263 Q735.3125,884.8888 735.3125,886.9825 Q735.3125,889.0763 736,890.1544 Q736.6875,891.2169 738.0313,891.2169 Q738.6563,891.2169 739.25,890.9513 Q739.8438,890.67 740.4688,890.0919 L740.4688,892.8106 Z " fill="#000000"/><text fill="#000000" font-family="sans-serif" font-size="14" lengthAdjust="spacing" textLength="85" x="751.5" y="892.0167">HeaderSpec</text><line style="stroke:#181818;stroke-width:0.5;" x1="723.5" x2="838.5" y1="903.17" y2="903.17"/><text fill="#000000" font-family="sans-serif" font-size="14" lengthAdjust="spacing" textLength="95" x="728.5" y="920.1651">paths: list[str]</text><line style="stroke:#181818;stroke-width:0.5;" x1="723.5" x2="838.5" y1="927.4669" y2="927.4669"/></g><!--class SpanSpec--><g id="elem_SpanSpec"><rect codeLine="94" fill="#F1F1F1" height="64.2969" id="SpanSpec" rx="2.5" ry="2.5" style="stroke:#181818;stroke-width:0.5;" width="138" x="231" y="871.17"/><ellipse cx="262.2" cy="887.17" fill="#ADD1B2" rx="11" ry="11" style="stroke:#181818;stroke-width:1.0;"/><path d="M265.1688,892.8106 Q264.5906,893.1075 263.95,893.2481 Q263.3094,893.4044 262.6063,893.4044 Q260.1063,893.4044 258.7781,891.7638 Q257.4656,890.1075 257.4656,886.9825 Q257.4656,883.8575 258.7781,882.2013 Q260.1063,880.545 262.6063,880.545 Q263.3094,880.545 263.95,880.7013 Q264.6063,880.8575 265.1688,881.1544 L265.1688,883.8731 Q264.5438,883.295 263.95,883.0294 Q263.3563,882.7481 262.7313,882.7481 Q261.3875,882.7481 260.7,883.8263 Q260.0125,884.8888 260.0125,886.9825 Q260.0125,889.0763 260.7,890.1544 Q261.3875,891.2169 262.7313,891.2169 Q263.3563,891.2169 263.95,890.9513 Q264.5438,890.67 265.1688,890.0919 L265.1688,892.8106 Z " fill="#000000"/><text fill="#000000" font-family="sans-serif" font-size="14" lengthAdjust="spacing" textLength="70" x="279.8" y="892.0167">SpanSpec</text><line style="stroke:#181818;stroke-width:0.5;" x1="232" x2="368" y1="903.17" y2="903.17"/><text fill="#000000" font-family="sans-serif" font-size="14" lengthAdjust="spacing" textLength="126" x="237" y="920.1651">key_paths: list[str]</text><line style="stroke:#181818;stroke-width:0.5;" x1="232" x2="368" y1="927.4669" y2="927.4669"/></g><!--class FieldSpec--><g id="elem_FieldSpec"><rect codeLine="98" fill="#F1F1F1" height="113.1875" id="FieldSpec" rx="2.5" ry="2.5" style="stroke:#181818;stroke-width:0.5;" width="284" x="404" y="846.72"/><ellipse cx="508.25" cy="862.72" fill="#ADD1B2" rx="11" ry="11" style="stroke:#181818;stroke-width:1.0;"/><path d="M511.2188,868.3606 Q510.6406,868.6575 510,868.7981 Q509.3594,868.9544 508.6563,868.9544 Q506.1563,868.9544 504.8281,867.3137 Q503.5156,865.6575 503.5156,862.5325 Q503.5156,859.4075 504.8281,857.7512 Q506.1563,856.095 508.6563,856.095 Q509.3594,856.095 510,856.2512 Q510.6563,856.4075 511.2188,856.7044 L511.2188,859.4231 Q510.5938,858.845 510,858.5794 Q509.4063,858.2981 508.7813,858.2981 Q507.4375,858.2981 506.75,859.3762 Q506.0625,860.4387 506.0625,862.5325 Q506.0625,864.6262 506.75,865.7044 Q507.4375,866.7669 508.7813,866.7669 Q509.4063,866.7669 510,866.5012 Q510.5938,866.22 511.2188,865.6419 L511.2188,868.3606 Z " fill="#000000"/><text fill="#000000" font-family="sans-serif" font-size="14" lengthAdjust="spacing" textLength="67" x="528.75" y="867.5667">FieldSpec</text><line style="stroke:#181818;stroke-width:0.5;" x1="405" x2="687" y1="878.72" y2="878.72"/><text fill="#000000" font-family="sans-serif" font-size="14" lengthAdjust="spacing" textLength="126" x="410" y="895.7151">key_paths: list[str]</text><text fill="#000000" font-family="sans-serif" font-size="14" lengthAdjust="spacing" textLength="257" x="410" y="912.012">key_value: Optional[list[Optional[str]]]</text><text fill="#000000" font-family="sans-serif" font-size="14" lengthAdjust="spacing" textLength="272" x="410" y="928.3089">value_paths: Optional[list[Optional[str]]]</text><text fill="#000000" font-family="sans-serif" font-size="14" lengthAdjust="spacing" textLength="175" x="410" y="944.6057">value_type: Union[str, int]</text><line style="stroke:#181818;stroke-width:0.5;" x1="405" x2="687" y1="951.9075" y2="951.9075"/></g><!--class OTELDataSource--><g id="elem_OTELDataSource"><rect codeLine="14" fill="#F1F1F1" height="80.5938" id="OTELDataSource" rx="2.5" ry="2.5" style="stroke:#181818;stroke-width:0.5;" width="174" x="296" y="420.16"/><ellipse cx="322.25" cy="436.16" fill="#A9DCDF" rx="11" ry="11" style="stroke:#181818;stroke-width:1.0;"/><path d="M322.3594,431.5037 L321.2031,436.5819 L323.5313,436.5819 L322.3594,431.5037 Z M320.875,429.2694 L323.8594,429.2694 L327.2188,441.66 L324.7656,441.66 L324,438.5975 L320.7188,438.5975 L319.9688,441.66 L317.5313,441.66 L320.875,429.2694 Z " fill="#000000"/><text fill="#000000" font-family="sans-serif" font-size="14" font-style="italic" lengthAdjust="spacing" textLength="117" x="338.75" y="441.0067">OTELDataSource</text><line style="stroke:#181818;stroke-width:0.5;" x1="297" x2="469" y1="452.16" y2="452.16"/><line style="stroke:#181818;stroke-width:0.5;" x1="297" x2="469" y1="460.16" y2="460.16"/><ellipse cx="307" cy="473.8084" fill="#84BE84" rx="3" ry="3" style="stroke:#038048;stroke-width:1.0;"/><text fill="#000000" font-family="sans-serif" font-size="14" lengthAdjust="spacing" textLength="94" x="316" y="477.1551">__iter__(): Self</text><ellipse cx="307" cy="490.1053" fill="#84BE84" rx="3" ry="3" style="stroke:#038048;stroke-width:1.0;"/><text fill="#000000" font-family="sans-serif" font-size="14" lengthAdjust="spacing" textLength="148" x="316" y="493.452">__next__(): OTelEvent</text></g><!--class JSONDataSource--><g id="elem_JSONDataSource"><rect codeLine="19" fill="#F1F1F1" height="276.1563" id="JSONDataSource" rx="2.5" ry="2.5" style="stroke:#181818;stroke-width:0.5;" width="423" x="46.5" y="84"/><ellipse cx="196.75" cy="100" fill="#ADD1B2" rx="11" ry="11" style="stroke:#181818;stroke-width:1.0;"/><path d="M199.7188,105.6406 Q199.1406,105.9375 198.5,106.0781 Q197.8594,106.2344 197.1563,106.2344 Q194.6563,106.2344 193.3281,104.5938 Q192.0156,102.9375 192.0156,99.8125 Q192.0156,96.6875 193.3281,95.0313 Q194.6563,93.375 197.1563,93.375 Q197.8594,93.375 198.5,93.5313 Q199.1563,93.6875 199.7188,93.9844 L199.7188,96.7031 Q199.0938,96.125 198.5,95.8594 Q197.9063,95.5781 197.2813,95.5781 Q195.9375,95.5781 195.25,96.6563 Q194.5625,97.7188 194.5625,99.8125 Q194.5625,101.9063 195.25,102.9844 Q195.9375,104.0469 197.2813,104.0469 Q197.9063,104.0469 198.5,103.7813 Q199.0938,103.5 199.7188,102.9219 L199.7188,105.6406 Z " fill="#000000"/><text fill="#000000" font-family="sans-serif" font-size="14" lengthAdjust="spacing" textLength="114" x="217.25" y="104.8467">JSONDataSource</text><line style="stroke:#181818;stroke-width:0.5;" x1="47.5" x2="468.5" y1="116" y2="116"/><polygon fill="none" points="57.5,124.6484,61.5,128.6484,57.5,132.6484,53.5,128.6484" style="stroke:#B38D22;stroke-width:1.0;"/><text fill="#000000" font-family="sans-serif" font-size="14" lengthAdjust="spacing" textLength="209" x="66.5" y="132.9951">config: JSONDataSourceConfig</text><polygon fill="none" points="57.5,140.9453,61.5,144.9453,57.5,148.9453,53.5,144.9453" style="stroke:#B38D22;stroke-width:1.0;"/><text fill="#000000" font-family="sans-serif" font-size="14" lengthAdjust="spacing" textLength="146" x="66.5" y="149.292">current_file_index: int</text><polygon fill="none" points="57.5,157.2422,61.5,161.2422,57.5,165.2422,53.5,161.2422" style="stroke:#B38D22;stroke-width:1.0;"/><text fill="#000000" font-family="sans-serif" font-size="14" lengthAdjust="spacing" textLength="290" x="66.5" y="165.5889">current_parser: Iterator[OTelEvent] | None</text><polygon fill="none" points="57.5,173.5391,61.5,177.5391,57.5,181.5391,53.5,177.5391" style="stroke:#B38D22;stroke-width:1.0;"/><text fill="#000000" font-family="sans-serif" font-size="14" lengthAdjust="spacing" textLength="79" x="66.5" y="181.8857">dirpath : str</text><polygon fill="none" points="57.5,189.8359,61.5,193.8359,57.5,197.8359,53.5,193.8359" style="stroke:#B38D22;stroke-width:1.0;"/><text fill="#000000" font-family="sans-serif" font-size="14" lengthAdjust="spacing" textLength="77" x="66.5" y="198.1826">filepath: str</text><polygon fill="none" points="57.5,206.1328,61.5,210.1328,57.5,214.1328,53.5,210.1328" style="stroke:#B38D22;stroke-width:1.0;"/><text fill="#000000" font-family="sans-serif" font-size="14" lengthAdjust="spacing" textLength="101" x="66.5" y="214.4795">file_list: list[str]</text><line style="stroke:#181818;stroke-width:0.5;" x1="47.5" x2="468.5" y1="221.7813" y2="221.7813"/><ellipse cx="57.5" cy="235.4297" fill="#84BE84" rx="3" ry="3" style="stroke:#038048;stroke-width:1.0;"/><text fill="#000000" font-family="sans-serif" font-size="14" lengthAdjust="spacing" textLength="104" x="66.5" y="238.7764">__init__(): None</text><ellipse cx="57.5" cy="251.7266" fill="#84BE84" rx="3" ry="3" style="stroke:#038048;stroke-width:1.0;"/><text fill="#000000" font-family="sans-serif" font-size="14" lengthAdjust="spacing" textLength="148" x="66.5" y="255.0732">__next__(): OTelEvent</text><ellipse cx="57.5" cy="268.0234" fill="#84BE84" rx="3" ry="3" style="stroke:#038048;stroke-width:1.0;"/><text fill="#000000" font-family="sans-serif" font-size="14" lengthAdjust="spacing" textLength="356" x="66.5" y="271.3701">parse_json_stream(filepath: str): Iterator[OTelEvent]</text><ellipse cx="57.5" cy="284.3203" fill="#84BE84" rx="3" ry="3" style="stroke:#038048;stroke-width:1.0;"/><text fill="#000000" font-family="sans-serif" font-size="14" lengthAdjust="spacing" textLength="357" x="66.5" y="287.667">create_otel_object(record: dict[str, Any]): OTelEvent</text><ellipse cx="57.5" cy="300.6172" fill="#84BE84" rx="3" ry="3" style="stroke:#038048;stroke-width:1.0;"/><text fill="#000000" font-family="sans-serif" font-size="14" lengthAdjust="spacing" textLength="164" x="66.5" y="303.9639">set_dirpath(): str | None</text><ellipse cx="57.5" cy="316.9141" fill="#84BE84" rx="3" ry="3" style="stroke:#038048;stroke-width:1.0;"/><text fill="#000000" font-family="sans-serif" font-size="14" lengthAdjust="spacing" textLength="166" x="66.5" y="320.2607">set_filepath(): str | None</text><ellipse cx="57.5" cy="333.2109" fill="#84BE84" rx="3" ry="3" style="stroke:#038048;stroke-width:1.0;"/><text fill="#000000" font-family="sans-serif" font-size="14" lengthAdjust="spacing" textLength="141" x="66.5" y="336.5576">get_file_list(): list[str]</text><ellipse cx="57.5" cy="349.5078" fill="#84BE84" rx="3" ry="3" style="stroke:#038048;stroke-width:1.0;"/><text fill="#000000" font-family="sans-serif" font-size="14" lengthAdjust="spacing" textLength="397" x="66.5" y="352.8545">process_record(record: dict[str, Any]): Iterator[OTelEvent]</text></g><!--class SQLDataHolder--><g id="elem_SQLDataHolder"><rect codeLine="36" fill="#F1F1F1" height="276.1563" id="SQLDataHolder" rx="2.5" ry="2.5" style="stroke:#181818;stroke-width:0.5;" width="440" x="856" y="84"/><ellipse cx="1019.75" cy="100" fill="#ADD1B2" rx="11" ry="11" style="stroke:#181818;stroke-width:1.0;"/><path d="M1022.7188,105.6406 Q1022.1406,105.9375 1021.5,106.0781 Q1020.8594,106.2344 1020.1563,106.2344 Q1017.6563,106.2344 1016.3281,104.5938 Q1015.0156,102.9375 1015.0156,99.8125 Q1015.0156,96.6875 1016.3281,95.0313 Q1017.6563,93.375 1020.1563,93.375 Q1020.8594,93.375 1021.5,93.5313 Q1022.1563,93.6875 1022.7188,93.9844 L1022.7188,96.7031 Q1022.0938,96.125 1021.5,95.8594 Q1020.9063,95.5781 1020.2813,95.5781 Q1018.9375,95.5781 1018.25,96.6563 Q1017.5625,97.7188 1017.5625,99.8125 Q1017.5625,101.9063 1018.25,102.9844 Q1018.9375,104.0469 1020.2813,104.0469 Q1020.9063,104.0469 1021.5,103.7813 Q1022.0938,103.5 1022.7188,102.9219 L1022.7188,105.6406 Z " fill="#000000"/><text fill="#000000" font-family="sans-serif" font-size="14" lengthAdjust="spacing" textLength="104" x="1040.25" y="104.8467">SQLDataHolder</text><line style="stroke:#181818;stroke-width:0.5;" x1="857" x2="1295" y1="116" y2="116"/><polygon fill="none" points="867,124.6484,871,128.6484,867,132.6484,863,128.6484" style="stroke:#B38D22;stroke-width:1.0;"/><text fill="#000000" font-family="sans-serif" font-size="14" lengthAdjust="spacing" textLength="285" x="876" y="132.9951">node_models_to_save: list&lt;NodeModel&gt;</text><polygon fill="none" points="867,140.9453,871,144.9453,867,148.9453,863,144.9453" style="stroke:#B38D22;stroke-width:1.0;"/><text fill="#000000" font-family="sans-serif" font-size="14" lengthAdjust="spacing" textLength="308" x="876" y="149.292">node_relationships_to_save: list[dict[str, str]]</text><polygon fill="none" points="867,157.2422,871,161.2422,867,165.2422,863,161.2422" style="stroke:#B38D22;stroke-width:1.0;"/><text fill="#000000" font-family="sans-serif" font-size="14" lengthAdjust="spacing" textLength="100" x="876" y="165.5889">batch_size: int</text><polygon fill="none" points="867,173.5391,871,177.5391,867,181.5391,863,177.5391" style="stroke:#B38D22;stroke-width:1.0;"/><text fill="#000000" font-family="sans-serif" font-size="14" lengthAdjust="spacing" textLength="75" x="876" y="181.8857">engine: str</text><polygon fill="none" points="867,189.8359,871,193.8359,867,197.8359,863,193.8359" style="stroke:#B38D22;stroke-width:1.0;"/><text fill="#000000" font-family="sans-serif" font-size="14" lengthAdjust="spacing" textLength="118" x="876" y="198.1826">session: Session</text><polygon fill="none" points="867,206.1328,871,210.1328,867,214.1328,863,210.1328" style="stroke:#B38D22;stroke-width:1.0;"/><text fill="#000000" font-family="sans-serif" font-size="14" lengthAdjust="spacing" textLength="78" x="876" y="214.4795">base: Base</text><line style="stroke:#181818;stroke-width:0.5;" x1="857" x2="1295" y1="221.7813" y2="221.7813"/><ellipse cx="867" cy="235.4297" fill="#84BE84" rx="3" ry="3" style="stroke:#038048;stroke-width:1.0;"/><text fill="#000000" font-family="sans-serif" font-size="14" lengthAdjust="spacing" textLength="174" x="876" y="238.7764">create_db_tables(): None</text><ellipse cx="867" cy="251.7266" fill="#84BE84" rx="3" ry="3" style="stroke:#038048;stroke-width:1.0;"/><text fill="#000000" font-family="sans-serif" font-size="14" lengthAdjust="spacing" textLength="196" x="876" y="255.0732">save_data(OTelEvent): None</text><ellipse cx="867" cy="268.0234" fill="#84BE84" rx="3" ry="3" style="stroke:#038048;stroke-width:1.0;"/><text fill="#000000" font-family="sans-serif" font-size="14" lengthAdjust="spacing" textLength="300" x="876" y="271.3701">commit_batched_data_to_database(): None</text><ellipse cx="867" cy="284.3203" fill="#84BE84" rx="3" ry="3" style="stroke:#038048;stroke-width:1.0;"/><text fill="#000000" font-family="sans-serif" font-size="14" lengthAdjust="spacing" textLength="242" x="876" y="287.667">batch_insert_node_models(): None</text><ellipse cx="867" cy="300.6172" fill="#84BE84" rx="3" ry="3" style="stroke:#038048;stroke-width:1.0;"/><text fill="#000000" font-family="sans-serif" font-size="14" lengthAdjust="spacing" textLength="277" x="876" y="303.9639">batch_insert_node_associations(): None</text><ellipse cx="867" cy="316.9141" fill="#84BE84" rx="3" ry="3" style="stroke:#038048;stroke-width:1.0;"/><text fill="#000000" font-family="sans-serif" font-size="14" lengthAdjust="spacing" textLength="262" x="876" y="320.2607">add_node_relations(OTelEvent): None</text><ellipse cx="867" cy="333.2109" fill="#84BE84" rx="3" ry="3" style="stroke:#038048;stroke-width:1.0;"/><text fill="#000000" font-family="sans-serif" font-size="14" lengthAdjust="spacing" textLength="414" x="876" y="336.5576">convert_otel_event_to_node_model(OTelEvent): NodeModel</text><ellipse cx="867" cy="349.5078" fill="#84BE84" rx="3" ry="3" style="stroke:#038048;stroke-width:1.0;"/><text fill="#000000" font-family="sans-serif" font-size="14" lengthAdjust="spacing" textLength="118" x="876" y="352.8545">clean_up(): None</text></g><!--class DataHolder--><g id="elem_DataHolder"><rect codeLine="70" fill="#F1F1F1" height="80.5938" id="DataHolder" rx="2.5" ry="2.5" style="stroke:#181818;stroke-width:0.5;" width="222" x="856" y="420.16"/><ellipse cx="924.25" cy="436.16" fill="#A9DCDF" rx="11" ry="11" style="stroke:#181818;stroke-width:1.0;"/><path d="M924.3594,431.5037 L923.2031,436.5819 L925.5313,436.5819 L924.3594,431.5037 Z M922.875,429.2694 L925.8594,429.2694 L929.2188,441.66 L926.7656,441.66 L926,438.5975 L922.7188,438.5975 L921.9688,441.66 L919.5313,441.66 L922.875,429.2694 Z " fill="#000000"/><text fill="#000000" font-family="sans-serif" font-size="14" font-style="italic" lengthAdjust="spacing" textLength="77" x="944.75" y="441.0067">DataHolder</text><line style="stroke:#181818;stroke-width:0.5;" x1="857" x2="1077" y1="452.16" y2="452.16"/><line style="stroke:#181818;stroke-width:0.5;" x1="857" x2="1077" y1="460.16" y2="460.16"/><ellipse cx="867" cy="473.8084" fill="#84BE84" rx="3" ry="3" style="stroke:#038048;stroke-width:1.0;"/><text fill="#000000" font-family="sans-serif" font-size="14" lengthAdjust="spacing" textLength="196" x="876" y="477.1551">save_data(OTelEvent): None</text><ellipse cx="867" cy="490.1053" fill="#84BE84" rx="3" ry="3" style="stroke:#038048;stroke-width:1.0;"/><text fill="#000000" font-family="sans-serif" font-size="14" lengthAdjust="spacing" textLength="118" x="876" y="493.452">clean_up(): None</text></g><!--class IngestData--><g id="elem_IngestData"><rect codeLine="75" fill="#F1F1F1" height="96.8906" id="IngestData" rx="2.5" ry="2.5" style="stroke:#181818;stroke-width:0.5;" width="274" x="526" y="173.64"/><ellipse cx="621.25" cy="189.64" fill="#ADD1B2" rx="11" ry="11" style="stroke:#181818;stroke-width:1.0;"/><path d="M624.2188,195.2806 Q623.6406,195.5775 623,195.7181 Q622.3594,195.8744 621.6563,195.8744 Q619.1563,195.8744 617.8281,194.2338 Q616.5156,192.5775 616.5156,189.4525 Q616.5156,186.3275 617.8281,184.6713 Q619.1563,183.015 621.6563,183.015 Q622.3594,183.015 623,183.1713 Q623.6563,183.3275 624.2188,183.6244 L624.2188,186.3431 Q623.5938,185.765 623,185.4994 Q622.4063,185.2181 621.7813,185.2181 Q620.4375,185.2181 619.75,186.2963 Q619.0625,187.3588 619.0625,189.4525 Q619.0625,191.5463 619.75,192.6244 Q620.4375,193.6869 621.7813,193.6869 Q622.4063,193.6869 623,193.4213 Q623.5938,193.14 624.2188,192.5619 L624.2188,195.2806 Z " fill="#000000"/><text fill="#000000" font-family="sans-serif" font-size="14" lengthAdjust="spacing" textLength="75" x="641.75" y="194.4867">IngestData</text><line style="stroke:#181818;stroke-width:0.5;" x1="527" x2="799" y1="205.64" y2="205.64"/><polygon fill="none" points="537,214.2884,541,218.2884,537,222.2884,533,218.2884" style="stroke:#B38D22;stroke-width:1.0;"/><text fill="#000000" font-family="sans-serif" font-size="14" lengthAdjust="spacing" textLength="248" x="546" y="222.6351">otel_data_source : OTELDataSource</text><polygon fill="none" points="537,230.5853,541,234.5853,537,238.5853,533,234.5853" style="stroke:#B38D22;stroke-width:1.0;"/><text fill="#000000" font-family="sans-serif" font-size="14" lengthAdjust="spacing" textLength="171" x="546" y="238.932">data_holder : DataHolder</text><line style="stroke:#181818;stroke-width:0.5;" x1="527" x2="799" y1="246.2338" y2="246.2338"/><ellipse cx="537" cy="259.8822" fill="#84BE84" rx="3" ry="3" style="stroke:#038048;stroke-width:1.0;"/><text fill="#000000" font-family="sans-serif" font-size="14" lengthAdjust="spacing" textLength="194" x="546" y="263.2289">load_to_data_holder(): None</text></g><!--link IngestData to OTELDataSource--><g id="link_IngestData_OTELDataSource"><path codeLine="105" d="M606.34,270.92 C554.4,314.76 482.9948,375.0396 434.4148,416.0496 " fill="none" id="IngestData-to-OTELDataSource" style="stroke:#181818;stroke-width:1.0;stroke-dasharray:7.0,7.0;"/><polygon fill="#181818" points="429.83,419.92,439.2874,417.171,433.6507,416.6947,434.1269,411.0579,429.83,419.92" style="stroke:#181818;stroke-width:1.0;"/></g><!--link IngestData to DataHolder--><g id="link_IngestData_DataHolder"><path codeLine="107" d="M724.52,270.92 C780.9,314.76 858.6735,375.2269 911.4135,416.2369 " fill="none" id="IngestData-to-DataHolder" style="stroke:#181818;stroke-width:1.0;stroke-dasharray:7.0,7.0;"/><polygon fill="#181818" points="916.15,419.92,911.5006,411.2377,912.2029,416.8508,906.5898,417.5531,916.15,419.92" style="stroke:#181818;stroke-width:1.0;"/></g><!--link OTELDataSource to OTelEvent--><g id="link_OTELDataSource_OTelEvent"><path codeLine="109" d="M458.73,501.2 C475.65,510.93 493.24,521.73 509,532.75 C531.15,548.25 549.2229,562.1783 570.5629,579.8883 " fill="none" id="OTELDataSource-to-OTelEvent" style="stroke:#181818;stroke-width:1.0;stroke-dasharray:7.0,7.0;"/><polygon fill="#181818" points="575.18,583.72,570.8088,574.8943,571.3324,580.5269,565.6998,581.0505,575.18,583.72" style="stroke:#181818;stroke-width:1.0;"/></g><!--link JSONDataSource to OTELDataSource--><g id="link_JSONDataSource_OTELDataSource"><path codeLine="111" d="M330.71,360.58 C342.21,382.32 350.4256,397.8557 359.3556,414.7457 " fill="none" id="JSONDataSource-to-OTELDataSource" style="stroke:#181818;stroke-width:1.0;"/><polygon fill="#181818" points="362.16,420.05,361.4895,410.224,359.823,415.6298,354.4172,413.9632,362.16,420.05" style="stroke:#181818;stroke-width:1.0;"/></g><!--link SQLDataHolder to DataHolder--><g id="link_SQLDataHolder_DataHolder"><path codeLine="113" d="M1012.59,360.58 C1002.57,382.32 995.4729,397.7116 987.6829,414.6016 " fill="none" id="SQLDataHolder-to-DataHolder" style="stroke:#181818;stroke-width:1.0;"/><polygon fill="#181818" points="985.17,420.05,992.5717,413.5527,987.2641,415.5097,985.3071,410.2021,985.17,420.05" style="stroke:#181818;stroke-width:1.0;"/></g><!--link SQLDataHolder to NodeModel--><g id="link_SQLDataHolder_NodeModel"><path codeLine="115" d="M1102.74,360.37 C1108.22,412.54 1108.74,472.07 1095,524.75 C1090.55,541.81 1086.3631,553.5793 1078.5131,569.9593 " fill="none" id="SQLDataHolder-to-NodeModel" style="stroke:#181818;stroke-width:1.0;stroke-dasharray:7.0,7.0;"/><polygon fill="#181818" points="1075.92,575.37,1083.4167,568.9826,1078.0809,570.8611,1076.2024,565.5252,1075.92,575.37" style="stroke:#181818;stroke-width:1.0;"/></g><!--link NodeModel to Base--><g id="link_NodeModel_Base"><path codeLine="117" d="M1009.91,787.12 C1010.46,817.68 1010.9218,842.761 1011.3218,864.931 " fill="none" id="NodeModel-to-Base" style="stroke:#181818;stroke-width:1.0;"/><polygon fill="#181818" points="1011.43,870.93,1015.267,861.8593,1011.3398,865.9308,1007.2683,862.0036,1011.43,870.93" style="stroke:#181818;stroke-width:1.0;"/></g><!--link DataHolder to OTelEvent--><g id="link_DataHolder_OTelEvent"><path codeLine="119" d="M895.75,501.19 C879.67,510.96 862.95,521.78 848,532.75 C826.87,548.26 809.7891,562.0162 789.4291,579.6162 " fill="none" id="DataHolder-to-OTelEvent" style="stroke:#181818;stroke-width:1.0;stroke-dasharray:7.0,7.0;"/><polygon fill="#181818" points="784.89,583.54,794.3146,580.6804,788.6726,580.2702,789.0828,574.6282,784.89,583.54" style="stroke:#181818;stroke-width:1.0;"/></g><!--link JSONDataSource to JSONDataSourceConfig--><g id="link_JSONDataSource_JSONDataSourceConfig"><path codeLine="121" d="M254.37,360.49 C256.28,412.82 262.49,472.42 278,524.75 C286.53,553.52 298.051,577.6307 312.841,602.9207 " fill="none" id="JSONDataSource-to-JSONDataSourceConfig" style="stroke:#181818;stroke-width:1.0;stroke-dasharray:7.0,7.0;"/><polygon fill="#181818" points="315.87,608.1,314.7795,598.3117,313.3459,603.7839,307.8737,602.3503,315.87,608.1" style="stroke:#181818;stroke-width:1.0;"/></g><!--link JSONDataSourceConfig to HeaderSpec--><g id="link_JSONDataSourceConfig_HeaderSpec"><path codeLine="123" d="M464.8,754.41 C483.31,766.12 502.86,777.43 522,786.72 C599,824.11 628.85,807.64 705,846.72 C717.94,853.37 726.2418,858.548 737.8718,867.128 " fill="none" id="JSONDataSourceConfig-to-HeaderSpec" style="stroke:#181818;stroke-width:1.0;stroke-dasharray:7.0,7.0;"/><polygon fill="#181818" points="742.7,870.69,737.8323,862.1281,738.6765,867.7216,733.0829,868.5658,742.7,870.69" style="stroke:#181818;stroke-width:1.0;"/></g><!--link JSONDataSourceConfig to SpanSpec--><g id="link_JSONDataSourceConfig_SpanSpec"><path codeLine="125" d="M343.63,754.6 C332.01,793.94 319.9301,834.8359 311.0101,865.0259 " fill="none" id="JSONDataSourceConfig-to-SpanSpec" style="stroke:#181818;stroke-width:1.0;stroke-dasharray:7.0,7.0;"/><polygon fill="#181818" points="309.31,870.78,315.6962,863.2823,310.7268,865.9849,308.0241,861.0154,309.31,870.78" style="stroke:#181818;stroke-width:1.0;"/></g><!--link JSONDataSourceConfig to FieldSpec--><g id="link_JSONDataSourceConfig_FieldSpec"><path codeLine="127" d="M424.52,754.6 C449.04,784.42 473.1981,813.8065 496.1181,841.6665 " fill="none" id="JSONDataSourceConfig-to-FieldSpec" style="stroke:#181818;stroke-width:1.0;stroke-dasharray:7.0,7.0;"/><polygon fill="#181818" points="499.93,846.3,497.3011,836.8085,496.7534,842.4387,491.1231,841.891,499.93,846.3" style="stroke:#181818;stroke-width:1.0;"/></g><!--SRC=[lLV9Rjim4BtxAuZuug29Fy0e0dH9aHHjWiBjAJ08MXpRJ2bI46aZxlBl7IvQBTjosZI7H1e-pZm-pg8OcwyJIxG5IOLQWh52gx5_vSmocceESdp_5UJr1fGbFmS4Vnxrd2gMmeGOcvSMmQjtS6XgjncqRNMKiIn7b4WnBakp6bJnBZFBCYaIvZYsucSiTywh4FUPGp7vW8YPXoGh8Nc9C3M85CPwt0MvqmfcWz-30PkZWQ4qYMJ6x1V8w7MU02fq_Uazla_zQvJf5QN2Gaxfw7n2fY0NXLN1amtMKbaNir-eZzFxkvrGmqIhXLXEI7FrdRT6n3ht6Ys41FJFuMb210PkBAAE1l89kKNUpEhyeIGu8x-yEW7FHPunkoBL3GoTNsThcQXJTq9AZKjbb8WQb5xtAEENF37wQF3cqGkmTDI8Tzv9EMnD46w1UY7r_14IEyeXqJbc2HU9PtL1tgZjR3Ug0KlZKHqdHDPLyCi5ZQxrPLpt6ZX0IuKirmaOGmET_QowZdOyNrPQSiZ7qoy-Cs_yMv4k2kiw5BUXLbF3DX3OlRv3usUtS5L3vY1zrPcLo5eR7Ygsxc3XPCCviycA6l43Qaa6QYbKhMY71W-FNbrn-8TYhq7GM_pTk3y-fvRD9PXcpZWc_hoZKfp6UgBJ53FD4m8UbC43kBykKDDPe2qKre2bDOsEeV0UT2A2H4qiuvms9TpBKssSFtz_iNtg6eVMjdX9SQy4fkWwAqCVJuxGs4i_CIzSvookwyMQFCO7zzhLwHjh_x7TzrBBfMGKwkmCo-gDn9HAjuG3RiS25HiWBgV2p3WxEsMEn6BTgTJZ-TttxiEJTpM-zSykMD4GscE6k5vOdscnxrTS4L6n3LoaPhmeheWwEIMx1bWakJjXOc-k6PmZgKFILEOLCEx6MjMhRhnbca4IqiLag6AA6OVCwhWfsYlKGW0cLGViWri8kBu7hHZ4uxcJcFgCwEkfu1ZzV8SjVRQlyY27d1KB6oRNqAwiHYd6UU21XP- -yD1OlYbS3YABEFVw9VPuV7NYPzi_yRnJo3jUZtqy7dJV-Y0_xhprkNXv-TUg7Fd2E1ZX57KwlVSGfngEWzxZxo3fgliVPtiQrUVVOm_ddVyA39xJVdi4gxhPYuKesjoB1IXxtny0]--></g></svg>