<?xml version="1.0" encoding="us-ascii" standalone="no"?><svg xmlns="http://www.w3.org/2000/svg" xmlns:xlink="http://www.w3.org/1999/xlink" contentStyleType="text/css" height="766px" preserveAspectRatio="none" style="width:276px;height:766px;background:#FFFFFF;" version="1.1" viewBox="0 0 276 766" width="276px" zoomAndPan="magnify"><defs/><g><!--class OTELDataSource--><g id="elem_OTELDataSource"><rect codeLine="3" fill="#F1F1F1" height="48" id="OTELDataSource" rx="2.5" ry="2.5" style="stroke:#181818;stroke-width:0.5;" width="149" x="16.5" y="119.3"/><ellipse cx="31.5" cy="135.3" fill="#A9DCDF" rx="11" ry="11" style="stroke:#181818;stroke-width:1.0;"/><path d="M31.6094,130.6438 L30.4531,135.7219 L32.7813,135.7219 L31.6094,130.6438 Z M30.125,128.4094 L33.1094,128.4094 L36.4688,140.8 L34.0156,140.8 L33.25,137.7375 L29.9688,137.7375 L29.2188,140.8 L26.7813,140.8 L30.125,128.4094 Z " fill="#000000"/><text fill="#000000" font-family="sans-serif" font-size="14" font-style="italic" lengthAdjust="spacing" textLength="117" x="45.5" y="140.1467">OTELDataSource</text><line style="stroke:#181818;stroke-width:0.5;" x1="17.5" x2="164.5" y1="151.3" y2="151.3"/><line style="stroke:#181818;stroke-width:0.5;" x1="17.5" x2="164.5" y1="159.3" y2="159.3"/></g><!--class DataHolder--><g id="elem_DataHolder"><rect codeLine="4" fill="#F1F1F1" height="48" id="DataHolder" rx="2.5" ry="2.5" style="stroke:#181818;stroke-width:0.5;" width="109" x="36.5" y="369.3"/><ellipse cx="51.5" cy="385.3" fill="#A9DCDF" rx="11" ry="11" style="stroke:#181818;stroke-width:1.0;"/><path d="M51.6094,380.6438 L50.4531,385.7219 L52.7813,385.7219 L51.6094,380.6438 Z M50.125,378.4094 L53.1094,378.4094 L56.4688,390.8 L54.0156,390.8 L53.25,387.7375 L49.9688,387.7375 L49.2188,390.8 L46.7813,390.8 L50.125,378.4094 Z " fill="#000000"/><text fill="#000000" font-family="sans-serif" font-size="14" font-style="italic" lengthAdjust="spacing" textLength="77" x="65.5" y="390.1467">DataHolder</text><line style="stroke:#181818;stroke-width:0.5;" x1="37.5" x2="144.5" y1="401.3" y2="401.3"/><line style="stroke:#181818;stroke-width:0.5;" x1="37.5" x2="144.5" y1="409.3" y2="409.3"/></g><!--entity otelData--><g id="elem_otelData"><path d="M47,8.5 L47,39.7969 A2.5,2.5 0 0 0 49.5,42.2969 L132.5,42.2969 A2.5,2.5 0 0 0 135,39.7969 L135,16 L125,6 L49.5,6 A2.5,2.5 0 0 0 47,8.5 " fill="#F1F1F1" style="stroke:#181818;stroke-width:0.5;"/><path d="M125,6 L125,13.5 A2.5,2.5 0 0 0 127.5,16 L135,16 " fill="#F1F1F1" style="stroke:#181818;stroke-width:0.5;"/><text fill="#000000" font-family="sans-serif" font-size="14" lengthAdjust="spacing" textLength="68" x="57" y="28.9951">OTel Data</text></g><!--entity db--><g id="elem_db"><path d="M45,504.3 C45,494.3 91,494.3 91,494.3 C91,494.3 137,494.3 137,504.3 L137,529.5969 C137,539.5969 91,539.5969 91,539.5969 C91,539.5969 45,539.5969 45,529.5969 L45,504.3 " fill="#F1F1F1" style="stroke:#181818;stroke-width:0.5;"/><path d="M45,504.3 C45,514.3 91,514.3 91,514.3 C91,514.3 137,514.3 137,504.3 " fill="none" style="stroke:#181818;stroke-width:0.5;"/><text fill="#000000" font-family="sans-serif" font-size="14" lengthAdjust="spacing" textLength="72" x="55" y="531.2951">Data store</text></g><!--entity unique_graphs--><g id="elem_unique_graphs"><rect fill="#F1F1F1" height="32.2969" rx="2.5" ry="2.5" style="stroke:#181818;stroke-width:0.5;" width="117" x="34.5" y="727.89"/><rect fill="#F1F1F1" height="32.2969" rx="2.5" ry="2.5" style="stroke:#181818;stroke-width:0.5;" width="117" x="30.5" y="723.89"/><text fill="#000000" font-family="sans-serif" font-size="14" lengthAdjust="spacing" textLength="101" x="38.5" y="744.8851">Unique graphs</text></g><!--class IngestData--><g id="elem_IngestData"><rect codeLine="12" fill="#F1F1F1" height="48" id="IngestData" rx="2.5" ry="2.5" style="stroke:#181818;stroke-width:0.5;" width="107" x="37.5" y="244.3"/><ellipse cx="52.5" cy="260.3" fill="#ADD1B2" rx="11" ry="11" style="stroke:#181818;stroke-width:1.0;"/><path d="M55.4688,265.9406 Q54.8906,266.2375 54.25,266.3781 Q53.6094,266.5344 52.9063,266.5344 Q50.4063,266.5344 49.0781,264.8938 Q47.7656,263.2375 47.7656,260.1125 Q47.7656,256.9875 49.0781,255.3313 Q50.4063,253.675 52.9063,253.675 Q53.6094,253.675 54.25,253.8313 Q54.9063,253.9875 55.4688,254.2844 L55.4688,257.0031 Q54.8438,256.425 54.25,256.1594 Q53.6563,255.8781 53.0313,255.8781 Q51.6875,255.8781 51,256.9563 Q50.3125,258.0188 50.3125,260.1125 Q50.3125,262.2063 51,263.2844 Q51.6875,264.3469 53.0313,264.3469 Q53.6563,264.3469 54.25,264.0813 Q54.8438,263.8 55.4688,263.2219 L55.4688,265.9406 Z " fill="#000000"/><text fill="#000000" font-family="sans-serif" font-size="14" lengthAdjust="spacing" textLength="75" x="66.5" y="265.1467">IngestData</text><line style="stroke:#181818;stroke-width:0.5;" x1="38.5" x2="143.5" y1="276.3" y2="276.3"/><line style="stroke:#181818;stroke-width:0.5;" x1="38.5" x2="143.5" y1="284.3" y2="284.3"/></g><!--entity FindUniqueGraphs--><g id="elem_FindUniqueGraphs"><rect fill="#F1F1F1" height="46.2969" rx="2.5" ry="2.5" style="stroke:#181818;stroke-width:0.5;" width="168" x="7" y="616.6"/><rect fill="#F1F1F1" height="10" style="stroke:#181818;stroke-width:0.5;" width="15" x="155" y="621.6"/><rect fill="#F1F1F1" height="2" style="stroke:#181818;stroke-width:0.5;" width="4" x="153" y="623.6"/><rect fill="#F1F1F1" height="2" style="stroke:#181818;stroke-width:0.5;" width="4" x="153" y="627.6"/><text fill="#000000" font-family="sans-serif" font-size="14" lengthAdjust="spacing" textLength="128" x="22" y="649.5951">FindUniqueGraphs</text></g><!--reverse link OTELDataSource to IngestData--><g id="link_OTELDataSource_IngestData"><path codeLine="15" d="M91,173.72 C91,195.61 91,222.1 91,243.96 " fill="none" id="OTELDataSource-backto-IngestData" style="stroke:#181818;stroke-width:1.0;stroke-dasharray:7.0,7.0;"/><polygon fill="#181818" points="91,167.72,87,176.72,91,172.72,95,176.72,91,167.72" style="stroke:#181818;stroke-width:1.0;"/><text fill="#000000" font-family="sans-serif" font-size="13" lengthAdjust="spacing" textLength="176" x="92" y="210.3669">Pulls data from data source</text></g><!--link otelData to OTELDataSource--><g id="link_otelData_OTELDataSource"><path codeLine="17" d="M91,42.69 C91,62.99 91,90.5 91,112.98 " fill="none" id="otelData-to-OTELDataSource" style="stroke:#181818;stroke-width:1.0;"/><polygon fill="#181818" points="91,118.98,95,109.98,91,113.98,87,109.98,91,118.98" style="stroke:#181818;stroke-width:1.0;"/><text fill="#000000" font-family="sans-serif" font-size="13" lengthAdjust="spacing" textLength="58" x="92" y="85.3669">Raw data</text></g><!--link IngestData to DataHolder--><g id="link_IngestData_DataHolder"><path codeLine="18" d="M91,292.72 C91,314.61 91,341.1 91,362.96 " fill="none" id="IngestData-to-DataHolder" style="stroke:#181818;stroke-width:1.0;"/><polygon fill="#181818" points="91,368.96,95,359.96,91,363.96,87,359.96,91,368.96" style="stroke:#181818;stroke-width:1.0;"/><text fill="#000000" font-family="sans-serif" font-size="13" lengthAdjust="spacing" textLength="64" x="92" y="335.3669">Load data</text></g><!--link DataHolder to db--><g id="link_DataHolder_db"><path codeLine="19" d="M91,417.75 C91,439.85 91,466.68 91,488.2 " fill="none" id="DataHolder-to-db" style="stroke:#181818;stroke-width:1.0;"/><polygon fill="#181818" points="91,494.2,95,485.2,91,489.2,87,485.2,91,494.2" style="stroke:#181818;stroke-width:1.0;"/><text fill="#000000" font-family="sans-serif" font-size="13" lengthAdjust="spacing" textLength="72" x="92" y="460.3669">Saves data</text></g><!--link FindUniqueGraphs to db--><g id="link_FindUniqueGraphs_db"><path codeLine="20" d="M104.87,616.36 C111.53,602.99 117.39,585.56 114,569.6 C111.84,559.42 110.128,554.2136 105.818,545.2836 " fill="none" id="FindUniqueGraphs-to-db" style="stroke:#181818;stroke-width:1.0;"/><polygon fill="#181818" points="103.21,539.88,103.5196,549.724,105.3833,544.383,110.7244,546.2467,103.21,539.88" style="stroke:#181818;stroke-width:1.0;"/><text fill="#000000" font-family="sans-serif" font-size="13" lengthAdjust="spacing" textLength="101" x="115" y="582.6669">Read/Write data</text></g><!--link db to FindUniqueGraphs--><g id="link_db_FindUniqueGraphs"><path codeLine="21" d="M48.83,540.01 C38.12,547.82 27.96,557.69 22,569.6 C12.89,587.79 22.5077,600.772 40.5877,612.982 " fill="none" id="db-to-FindUniqueGraphs" style="stroke:#181818;stroke-width:1.0;"/><polygon fill="#181818" points="45.56,616.34,40.3402,607.9882,41.4164,613.5417,35.8629,614.6179,45.56,616.34" style="stroke:#181818;stroke-width:1.0;"/><text fill="#000000" font-family="sans-serif" font-size="13" lengthAdjust="spacing" textLength="82" x="23" y="582.6669">Returns data</text></g><!--link FindUniqueGraphs to unique_graphs--><g id="link_FindUniqueGraphs_unique_graphs"><path codeLine="22" d="M91,663 C91,681.24 91,700.69 91,717.51 " fill="none" id="FindUniqueGraphs-to-unique_graphs" style="stroke:#181818;stroke-width:1.0;"/><polygon fill="#181818" points="91,723.51,95,714.51,91,718.51,87,714.51,91,723.51" style="stroke:#181818;stroke-width:1.0;"/></g><!--SRC=[VP3BJWCn34Nt_WfhzYrxX5Znb2eLjKKiaITnfv4oSSc3ylda0UfqaDX4yRt7pet9MZcDviku0O3w43sfYCfI2BZUtQ_kAD9MabSyTulp95Qp1zWRozYjTsoht245bCYs500wdps5J9GQGnJF5T4zW19hMKKZBc3twin7OXmy7G-X8gagxqt9T7twsGqSOXskP3oAOnVnmJZT-Xz_uClyUBDSJZhn6b-IjJb4AVPUndOBxRFm6nyNYzlP9dBhXauLXyd00fwNag6La6xKH2wKxhExfKzkhyCy-XdQCEchDsyYDpABnVlJKCYOlFjluCKglm40]--></g></svg>