<?xml version="1.0" encoding="us-ascii" standalone="no"?><svg xmlns="http://www.w3.org/2000/svg" xmlns:xlink="http://www.w3.org/1999/xlink" contentStyleType="text/css" height="585px" preserveAspectRatio="none" style="width:189px;height:585px;background:#FFFFFF;" version="1.1" viewBox="0 0 189 585" width="189px" zoomAndPan="magnify"><defs/><g><rect fill="none" height="563.6406" style="stroke:#000000;stroke-width:1.5;" width="166" x="11" y="11"/><path d="M167,11 L167,20.4883 L157,30.4883 L11,30.4883 " fill="none" style="stroke:#000000;stroke-width:1.5;"/><text fill="#000000" font-family="sans-serif" font-size="14" lengthAdjust="spacing" textLength="146" x="14" y="25.5352">loop_break_split_exit</text><rect fill="none" height="522.1523" style="stroke:#000000;stroke-width:1.5;" width="146" x="21" y="40.4883"/><path d="M177,40.4883 L177,49.9766 L167,59.9766 L21,59.9766 " fill="none" style="stroke:#000000;stroke-width:1.5;"/><text fill="#000000" font-family="sans-serif" font-size="14" lengthAdjust="spacing" textLength="146" x="24" y="55.0234">loop_break_split_exit</text><rect fill="#008000" height="34.1328" rx="12.5" ry="12.5" style="stroke:#181818;stroke-width:0.5;" width="28" x="67" y="69.9766"/><text fill="#000000" font-family="sans-serif" font-size="12" lengthAdjust="spacing" textLength="8" x="77" y="91.5781">A</text><rect fill="#F1F1F1" height="34.1328" rx="12.5" ry="12.5" style="stroke:#181818;stroke-width:0.5;" width="27" x="67.5" y="168.1094"/><text fill="#000000" font-family="sans-serif" font-size="12" lengthAdjust="spacing" textLength="7" x="77.5" y="189.7109">B</text><polygon fill="#F1F1F1" points="69,222.2422,93,222.2422,105,234.2422,93,246.2422,69,246.2422,57,234.2422,69,222.2422" style="stroke:#181818;stroke-width:0.5;"/><text fill="#000000" font-family="sans-serif" font-size="11" lengthAdjust="spacing" textLength="23" x="69.5" y="238.3994">XOR</text><text fill="#000000" font-family="sans-serif" font-size="11" lengthAdjust="spacing" textLength="22" x="35" y="231.9219">true</text><text fill="#000000" font-family="sans-serif" font-size="11" lengthAdjust="spacing" textLength="25" x="105" y="231.9219">false</text><rect fill="#F1F1F1" height="34.1328" rx="12.5" ry="12.5" style="stroke:#181818;stroke-width:0.5;" width="28" x="33" y="256.2422"/><text fill="#000000" font-family="sans-serif" font-size="12" lengthAdjust="spacing" textLength="8" x="43" y="277.8438">C</text><rect fill="#F1F1F1" height="34.1328" rx="12.5" ry="12.5" style="stroke:#181818;stroke-width:0.5;" width="29" x="100.5" y="256.2422"/><text fill="#000000" font-family="sans-serif" font-size="12" lengthAdjust="spacing" textLength="9" x="110.5" y="277.8438">D</text><polygon fill="#F1F1F1" points="81,124.1094,93,136.1094,81,148.1094,69,136.1094,81,124.1094" style="stroke:#181818;stroke-width:0.5;"/><polygon fill="#F1F1F1" points="81,310.375,81,310.375,93,322.375,81,334.375,81,334.375,69,322.375,81,310.375" style="stroke:#181818;stroke-width:0.5;"/><polygon fill="#F1F1F1" points="81,354.375,93,366.375,81,378.375,69,366.375,81,354.375" style="stroke:#181818;stroke-width:0.5;"/><polygon fill="#F1F1F1" points="69,398.375,93,398.375,105,410.375,93,422.375,69,422.375,57,410.375,69,398.375" style="stroke:#181818;stroke-width:0.5;"/><text fill="#000000" font-family="sans-serif" font-size="11" lengthAdjust="spacing" textLength="23" x="69.5" y="414.5322">XOR</text><text fill="#000000" font-family="sans-serif" font-size="11" lengthAdjust="spacing" textLength="22" x="35" y="408.0547">true</text><text fill="#000000" font-family="sans-serif" font-size="11" lengthAdjust="spacing" textLength="25" x="105" y="408.0547">false</text><rect fill="#F1F1F1" height="34.1328" rx="12.5" ry="12.5" style="stroke:#181818;stroke-width:0.5;" width="27" x="33.5" y="432.375"/><text fill="#000000" font-family="sans-serif" font-size="12" lengthAdjust="spacing" textLength="7" x="43.5" y="453.9766">E</text><rect fill="#F1F1F1" height="34.1328" rx="12.5" ry="12.5" style="stroke:#181818;stroke-width:0.5;" width="26" x="102" y="432.375"/><text fill="#000000" font-family="sans-serif" font-size="12" lengthAdjust="spacing" textLength="6" x="112" y="453.9766">F</text><polygon fill="#F1F1F1" points="81,472.5078,93,484.5078,81,496.5078,69,484.5078,81,472.5078" style="stroke:#181818;stroke-width:0.5;"/><rect fill="#FF0000" height="34.1328" rx="12.5" ry="12.5" style="stroke:#181818;stroke-width:0.5;" width="29" x="66.5" y="516.5078"/><text fill="#000000" font-family="sans-serif" font-size="12" lengthAdjust="spacing" textLength="9" x="76.5" y="538.1094">G</text><line style="stroke:#181818;stroke-width:1.0;" x1="47" x2="47" y1="290.375" y2="366.375"/><line style="stroke:#181818;stroke-width:1.0;" x1="47" x2="69" y1="366.375" y2="366.375"/><polygon fill="#181818" points="59,362.375,69,366.375,59,370.375,63,366.375" style="stroke:#181818;stroke-width:1.0;"/><line style="stroke:#181818;stroke-width:1.0;" x1="57" x2="47" y1="234.2422" y2="234.2422"/><line style="stroke:#181818;stroke-width:1.0;" x1="47" x2="47" y1="234.2422" y2="256.2422"/><polygon fill="#181818" points="43,246.2422,47,256.2422,51,246.2422,47,250.2422" style="stroke:#181818;stroke-width:1.0;"/><line style="stroke:#181818;stroke-width:1.0;" x1="105" x2="115" y1="234.2422" y2="234.2422"/><line style="stroke:#181818;stroke-width:1.0;" x1="115" x2="115" y1="234.2422" y2="256.2422"/><polygon fill="#181818" points="111,246.2422,115,256.2422,119,246.2422,115,250.2422" style="stroke:#181818;stroke-width:1.0;"/><line style="stroke:#181818;stroke-width:1.0;" x1="115" x2="115" y1="290.375" y2="295.375"/><line style="stroke:#181818;stroke-width:1.0;" x1="115" x2="81" y1="295.375" y2="295.375"/><line style="stroke:#181818;stroke-width:1.0;" x1="81" x2="81" y1="295.375" y2="310.375"/><polygon fill="#181818" points="77,300.375,81,310.375,85,300.375,81,304.375" style="stroke:#181818;stroke-width:1.0;"/><line style="stroke:#181818;stroke-width:1.0;" x1="81" x2="81" y1="202.2422" y2="222.2422"/><polygon fill="#181818" points="77,212.2422,81,222.2422,85,212.2422,81,216.2422" style="stroke:#181818;stroke-width:1.0;"/><line style="stroke:#181818;stroke-width:1.0;" x1="81" x2="81" y1="148.1094" y2="168.1094"/><polygon fill="#181818" points="77,158.1094,81,168.1094,85,158.1094,81,162.1094" style="stroke:#181818;stroke-width:1.0;"/><line style="stroke:#181818;stroke-width:1.0;" x1="93" x2="151" y1="322.375" y2="322.375"/><polygon fill="#181818" points="147,252.2422,151,242.2422,155,252.2422,151,248.2422" style="stroke:#181818;stroke-width:1.0;"/><line style="stroke:#181818;stroke-width:1.0;" x1="151" x2="151" y1="136.1094" y2="322.375"/><line style="stroke:#181818;stroke-width:1.0;" x1="151" x2="93" y1="136.1094" y2="136.1094"/><polygon fill="#181818" points="103,132.1094,93,136.1094,103,140.1094,99,136.1094" style="stroke:#181818;stroke-width:1.0;"/><line style="stroke:#181818;stroke-width:1.0;" x1="81" x2="81" y1="334.375" y2="354.375"/><polygon fill="#181818" points="77,344.375,81,354.375,85,344.375,81,348.375" style="stroke:#181818;stroke-width:1.0;"/><line style="stroke:#181818;stroke-width:1.0;" x1="81" x2="81" y1="104.1094" y2="124.1094"/><polygon fill="#181818" points="77,114.1094,81,124.1094,85,114.1094,81,118.1094" style="stroke:#181818;stroke-width:1.0;"/><line style="stroke:#181818;stroke-width:1.0;" x1="57" x2="47" y1="410.375" y2="410.375"/><line style="stroke:#181818;stroke-width:1.0;" x1="47" x2="47" y1="410.375" y2="432.375"/><polygon fill="#181818" points="43,422.375,47,432.375,51,422.375,47,426.375" style="stroke:#181818;stroke-width:1.0;"/><line style="stroke:#181818;stroke-width:1.0;" x1="105" x2="115" y1="410.375" y2="410.375"/><line style="stroke:#181818;stroke-width:1.0;" x1="115" x2="115" y1="410.375" y2="432.375"/><polygon fill="#181818" points="111,422.375,115,432.375,119,422.375,115,426.375" style="stroke:#181818;stroke-width:1.0;"/><line style="stroke:#181818;stroke-width:1.0;" x1="47" x2="47" y1="466.5078" y2="484.5078"/><line style="stroke:#181818;stroke-width:1.0;" x1="47" x2="69" y1="484.5078" y2="484.5078"/><polygon fill="#181818" points="59,480.5078,69,484.5078,59,488.5078,63,484.5078" style="stroke:#181818;stroke-width:1.0;"/><line style="stroke:#181818;stroke-width:1.0;" x1="115" x2="115" y1="466.5078" y2="484.5078"/><line style="stroke:#181818;stroke-width:1.0;" x1="115" x2="93" y1="484.5078" y2="484.5078"/><polygon fill="#181818" points="103,480.5078,93,484.5078,103,488.5078,99,484.5078" style="stroke:#181818;stroke-width:1.0;"/><line style="stroke:#181818;stroke-width:1.0;" x1="81" x2="81" y1="378.375" y2="398.375"/><polygon fill="#181818" points="77,388.375,81,398.375,85,388.375,81,392.375" style="stroke:#181818;stroke-width:1.0;"/><line style="stroke:#181818;stroke-width:1.0;" x1="81" x2="81" y1="496.5078" y2="516.5078"/><polygon fill="#181818" points="77,506.5078,81,516.5078,85,506.5078,81,510.5078" style="stroke:#181818;stroke-width:1.0;"/><!--SRC=[ZL1D2y8m3BttLmHtsVv2U_BxA7ZoDYhBjc9fIvQX8FvtjodJgWFV9UJbvUMHe8aD6-zWPhqF-P5Gd_8cMCCvNWpFu2gWGqM-3LEQGT4ZgGZHoRaQ6SA0ciUsXroeg3Sbf8VTFWEkqK7Ar68M2OQbfVhYXXmHYxP1I4lTbHyMgzW2NM7AZw1mher5yNSqkNvvJXwNcpTHT3GXBEHMWNYE7cyMjpi0]--></g></svg>