<?xml version="1.0" encoding="us-ascii" standalone="no"?><svg xmlns="http://www.w3.org/2000/svg" xmlns:xlink="http://www.w3.org/1999/xlink" contentStyleType="text/css" height="848px" preserveAspectRatio="none" style="width:276px;height:848px;background:#FFFFFF;" version="1.1" viewBox="0 0 276 848" width="276px" zoomAndPan="magnify"><defs/><g><rect fill="none" height="826.25" style="stroke:#000000;stroke-width:1.5;" width="254" x="11" y="11"/><path d="M194,11 L194,20.2969 L184,30.2969 L11,30.2969 " fill="none" style="stroke:#000000;stroke-width:1.5;"/><text fill="#000000" font-family="sans-serif" font-size="14" lengthAdjust="spacing" textLength="173" x="14" y="24.9951">paths_should_kill_in_loop</text><rect fill="none" height="784.9531" style="stroke:#000000;stroke-width:1.5;" width="234" x="21" y="40.2969"/><path d="M204,40.2969 L204,49.5938 L194,59.5938 L21,59.5938 " fill="none" style="stroke:#000000;stroke-width:1.5;"/><text fill="#000000" font-family="sans-serif" font-size="14" lengthAdjust="spacing" textLength="173" x="24" y="54.292">paths_should_kill_in_loop</text><rect fill="#008000" height="33.9688" rx="12.5" ry="12.5" style="stroke:#181818;stroke-width:0.5;" width="28" x="109" y="69.5938"/><text fill="#000000" font-family="sans-serif" font-size="12" lengthAdjust="spacing" textLength="8" x="119" y="90.7324">A</text><rect fill="#F1F1F1" height="33.9688" rx="12.5" ry="12.5" style="stroke:#181818;stroke-width:0.5;" width="23" x="111.5" y="167.5625"/><text fill="#000000" font-family="sans-serif" font-size="12" lengthAdjust="spacing" textLength="3" x="121.5" y="188.7012">J</text><rect fill="#555555" height="6" rx="2.5" ry="2.5" style="stroke:#555555;stroke-width:1.0;" width="196" x="31" y="221.5313"/><rect fill="#F1F1F1" height="33.9688" rx="12.5" ry="12.5" style="stroke:#181818;stroke-width:0.5;" width="28" x="43" y="316.5"/><text fill="#000000" font-family="sans-serif" font-size="12" lengthAdjust="spacing" textLength="8" x="53" y="337.6387">B</text><rect fill="#F1F1F1" height="33.9688" rx="12.5" ry="12.5" style="stroke:#181818;stroke-width:0.5;" width="28" x="81" y="316.5"/><text fill="#000000" font-family="sans-serif" font-size="12" lengthAdjust="spacing" textLength="8" x="91" y="337.6387">C</text><rect fill="#F1F1F1" height="33.9688" rx="12.5" ry="12.5" style="stroke:#181818;stroke-width:0.5;" width="29" x="137" y="247.5313"/><text fill="#000000" font-family="sans-serif" font-size="12" lengthAdjust="spacing" textLength="9" x="147" y="268.6699">H</text><rect fill="#F1F1F1" height="33.9688" rx="12.5" ry="12.5" style="stroke:#181818;stroke-width:0.5;" width="23" x="140" y="316.5"/><text fill="#000000" font-family="sans-serif" font-size="12" lengthAdjust="spacing" textLength="3" x="150" y="337.6387">I</text><rect fill="#F1F1F1" height="33.9688" rx="12.5" ry="12.5" style="stroke:#181818;stroke-width:0.5;" width="27" x="138" y="385.4688"/><text fill="#000000" font-family="sans-serif" font-size="12" lengthAdjust="spacing" textLength="7" x="148" y="406.6074">K</text><rect fill="#F1F1F1" height="33.9688" rx="12.5" ry="12.5" style="stroke:#181818;stroke-width:0.5;" width="23" x="190" y="282.0156"/><text fill="#000000" font-family="sans-serif" font-size="12" lengthAdjust="spacing" textLength="3" x="200" y="303.1543">I</text><rect fill="#F1F1F1" height="33.9688" rx="12.5" ry="12.5" style="stroke:#181818;stroke-width:0.5;" width="27" x="188" y="350.9844"/><text fill="#000000" font-family="sans-serif" font-size="12" lengthAdjust="spacing" textLength="7" x="198" y="372.123">K</text><rect fill="#555555" height="6" rx="2.5" ry="2.5" style="stroke:#555555;stroke-width:1.0;" width="196" x="31" y="439.4375"/><rect fill="#F1F1F1" height="33.9688" rx="12.5" ry="12.5" style="stroke:#181818;stroke-width:0.5;" width="28" x="109" y="465.4375"/><text fill="#000000" font-family="sans-serif" font-size="12" lengthAdjust="spacing" textLength="8" x="119" y="486.5762">E</text><rect fill="#F1F1F1" height="33.9688" rx="12.5" ry="12.5" style="stroke:#181818;stroke-width:0.5;" width="29" x="108.5" y="519.4063"/><text fill="#000000" font-family="sans-serif" font-size="12" lengthAdjust="spacing" textLength="9" x="118.5" y="540.5449">D</text><polygon fill="#F1F1F1" points="123,123.5625,135,135.5625,123,147.5625,111,135.5625,123,123.5625" style="stroke:#181818;stroke-width:0.5;"/><polygon fill="#F1F1F1" points="123,573.375,123,573.375,135,585.375,123,597.375,123,597.375,111,585.375,123,573.375" style="stroke:#181818;stroke-width:0.5;"/><rect fill="#F1F1F1" height="33.9688" rx="12.5" ry="12.5" style="stroke:#181818;stroke-width:0.5;" width="29" x="108.5" y="617.375"/><text fill="#000000" font-family="sans-serif" font-size="12" lengthAdjust="spacing" textLength="9" x="118.5" y="638.5137">G</text><rect fill="#F1F1F1" height="33.9688" rx="12.5" ry="12.5" style="stroke:#181818;stroke-width:0.5;" width="29" x="108.5" y="671.3438"/><text fill="#000000" font-family="sans-serif" font-size="12" lengthAdjust="spacing" textLength="9" x="118.5" y="692.4824">H</text><rect fill="#F1F1F1" height="33.9688" rx="12.5" ry="12.5" style="stroke:#181818;stroke-width:0.5;" width="23" x="111.5" y="725.3125"/><text fill="#000000" font-family="sans-serif" font-size="12" lengthAdjust="spacing" textLength="3" x="121.5" y="746.4512">I</text><rect fill="#F1F1F1" height="33.9688" rx="12.5" ry="12.5" style="stroke:#181818;stroke-width:0.5;" width="27" x="109.5" y="779.2813"/><text fill="#000000" font-family="sans-serif" font-size="12" lengthAdjust="spacing" textLength="7" x="119.5" y="800.4199">K</text><line style="stroke:#181818;stroke-width:1.0;" x1="151.5" x2="151.5" y1="281.5" y2="316.5"/><polygon fill="#181818" points="147.5,306.5,151.5,316.5,155.5,306.5,151.5,310.5" style="stroke:#181818;stroke-width:1.0;"/><line style="stroke:#181818;stroke-width:1.0;" x1="151.5" x2="151.5" y1="350.4688" y2="385.4688"/><polygon fill="#181818" points="147.5,375.4688,151.5,385.4688,155.5,375.4688,151.5,379.4688" style="stroke:#181818;stroke-width:1.0;"/><line style="stroke:#181818;stroke-width:1.0;" x1="201.5" x2="201.5" y1="315.9844" y2="350.9844"/><polygon fill="#181818" points="197.5,340.9844,201.5,350.9844,205.5,340.9844,201.5,344.9844" style="stroke:#181818;stroke-width:1.0;"/><line style="stroke:#181818;stroke-width:1.0;" x1="57" x2="57" y1="227.5313" y2="316.5"/><polygon fill="#181818" points="53,306.5,57,316.5,61,306.5,57,310.5" style="stroke:#181818;stroke-width:1.0;"/><line style="stroke:#181818;stroke-width:1.0;" x1="95" x2="95" y1="227.5313" y2="316.5"/><polygon fill="#181818" points="91,306.5,95,316.5,99,306.5,95,310.5" style="stroke:#181818;stroke-width:1.0;"/><line style="stroke:#181818;stroke-width:1.0;" x1="151.5" x2="151.5" y1="227.5313" y2="247.5313"/><polygon fill="#181818" points="147.5,237.5313,151.5,247.5313,155.5,237.5313,151.5,241.5313" style="stroke:#181818;stroke-width:1.0;"/><line style="stroke:#181818;stroke-width:1.0;" x1="201.5" x2="201.5" y1="227.5313" y2="282.0156"/><polygon fill="#181818" points="197.5,272.0156,201.5,282.0156,205.5,272.0156,201.5,276.0156" style="stroke:#181818;stroke-width:1.0;"/><line style="stroke:#181818;stroke-width:1.0;" x1="57" x2="57" y1="350.4688" y2="439.4375"/><polygon fill="#181818" points="53,429.4375,57,439.4375,61,429.4375,57,433.4375" style="stroke:#181818;stroke-width:1.0;"/><line style="stroke:#181818;stroke-width:1.0;" x1="95" x2="95" y1="350.4688" y2="439.4375"/><polygon fill="#181818" points="91,429.4375,95,439.4375,99,429.4375,95,433.4375" style="stroke:#181818;stroke-width:1.0;"/><line style="stroke:#181818;stroke-width:1.0;" x1="123" x2="123" y1="201.5313" y2="221.5313"/><polygon fill="#181818" points="119,211.5313,123,221.5313,127,211.5313,123,215.5313" style="stroke:#181818;stroke-width:1.0;"/><line style="stroke:#181818;stroke-width:1.0;" x1="123" x2="123" y1="445.4375" y2="465.4375"/><polygon fill="#181818" points="119,455.4375,123,465.4375,127,455.4375,123,459.4375" style="stroke:#181818;stroke-width:1.0;"/><line style="stroke:#181818;stroke-width:1.0;" x1="123" x2="123" y1="499.4063" y2="519.4063"/><polygon fill="#181818" points="119,509.4063,123,519.4063,127,509.4063,123,513.4063" style="stroke:#181818;stroke-width:1.0;"/><line style="stroke:#181818;stroke-width:1.0;" x1="123" x2="123" y1="147.5625" y2="167.5625"/><polygon fill="#181818" points="119,157.5625,123,167.5625,127,157.5625,123,161.5625" style="stroke:#181818;stroke-width:1.0;"/><line style="stroke:#181818;stroke-width:1.0;" x1="135" x2="239" y1="585.375" y2="585.375"/><polygon fill="#181818" points="235,377.9688,239,367.9688,243,377.9688,239,373.9688" style="stroke:#181818;stroke-width:1.0;"/><line style="stroke:#181818;stroke-width:1.0;" x1="239" x2="239" y1="135.5625" y2="585.375"/><line style="stroke:#181818;stroke-width:1.0;" x1="239" x2="135" y1="135.5625" y2="135.5625"/><polygon fill="#181818" points="145,131.5625,135,135.5625,145,139.5625,141,135.5625" style="stroke:#181818;stroke-width:1.0;"/><line style="stroke:#181818;stroke-width:1.0;" x1="123" x2="123" y1="553.375" y2="573.375"/><polygon fill="#181818" points="119,563.375,123,573.375,127,563.375,123,567.375" style="stroke:#181818;stroke-width:1.0;"/><line style="stroke:#181818;stroke-width:1.0;" x1="123" x2="123" y1="103.5625" y2="123.5625"/><polygon fill="#181818" points="119,113.5625,123,123.5625,127,113.5625,123,117.5625" style="stroke:#181818;stroke-width:1.0;"/><line style="stroke:#181818;stroke-width:1.0;" x1="123" x2="123" y1="597.375" y2="617.375"/><polygon fill="#181818" points="119,607.375,123,617.375,127,607.375,123,611.375" style="stroke:#181818;stroke-width:1.0;"/><line style="stroke:#181818;stroke-width:1.0;" x1="123" x2="123" y1="651.3438" y2="671.3438"/><polygon fill="#181818" points="119,661.3438,123,671.3438,127,661.3438,123,665.3438" style="stroke:#181818;stroke-width:1.0;"/><line style="stroke:#181818;stroke-width:1.0;" x1="123" x2="123" y1="705.3125" y2="725.3125"/><polygon fill="#181818" points="119,715.3125,123,725.3125,127,715.3125,123,719.3125" style="stroke:#181818;stroke-width:1.0;"/><line style="stroke:#181818;stroke-width:1.0;" x1="123" x2="123" y1="759.2813" y2="779.2813"/><polygon fill="#181818" points="119,769.2813,123,779.2813,127,769.2813,123,773.2813" style="stroke:#181818;stroke-width:1.0;"/><!--SRC=[dP5B2iCW443tESMGta9N_T5F3Y52h4h44MFeelJkhK9jhAM4pcuUJ-Vdk0ywQBJGEXxKo4Q5a-dPe8rXsZA3w5guDV0CwN5olxnanLX9BuGbQvg95qxmaDCOv4oB_89-A42IDhK4N79jQtMxN3tIcfs-iAvcSUB5TVxzKzY-tWVPbo_9xdE_S5NQ2CYK7Dx6VEPvNwz-OibquUR-0000]--></g></svg>