<?xml version="1.0" encoding="us-ascii" standalone="no"?><svg xmlns="http://www.w3.org/2000/svg" xmlns:xlink="http://www.w3.org/1999/xlink" contentStyleType="text/css" height="674px" preserveAspectRatio="none" style="width:230px;height:674px;background:#FFFFFF;" version="1.1" viewBox="0 0 230 674" width="230px" zoomAndPan="magnify"><defs/><g><rect fill="none" height="652.7861" style="stroke:#000000;stroke-width:1.5;" width="208" x="11" y="11"/><path d="M194,11 L194,20.2969 L184,30.2969 L11,30.2969 " fill="none" style="stroke:#000000;stroke-width:1.5;"/><text fill="#000000" font-family="sans-serif" font-size="14" lengthAdjust="spacing" textLength="173" x="14" y="24.9951">paths_should_kill_in_loop</text><rect fill="none" height="610.6875" style="stroke:#000000;stroke-width:1.5;" width="188" x="21" y="41.0986"/><path d="M204,41.0986 L204,50.3955 L194,60.3955 L21,60.3955 " fill="none" style="stroke:#000000;stroke-width:1.5;"/><text fill="#000000" font-family="sans-serif" font-size="14" lengthAdjust="spacing" textLength="173" x="24" y="55.0938">paths_should_kill_in_loop</text><rect fill="#008000" height="33.9688" rx="12.5" ry="12.5" style="stroke:#181818;stroke-width:0.5;" width="28" x="91.5" y="70.3955"/><text fill="#000000" font-family="sans-serif" font-size="12" lengthAdjust="spacing" textLength="8" x="101.5" y="91.5342">A</text><polygon fill="#F1F1F1" points="93.5,168.3643,117.5,168.3643,129.5,180.3643,117.5,192.3643,93.5,192.3643,81.5,180.3643,93.5,168.3643" style="stroke:#181818;stroke-width:0.5;"/><text fill="#000000" font-family="sans-serif" font-size="11" lengthAdjust="spacing" textLength="23" x="94" y="184.1724">XOR</text><rect fill="#F1F1F1" height="33.9688" rx="12.5" ry="12.5" style="stroke:#181818;stroke-width:0.5;" width="28" x="38.75" y="227.9736"/><text fill="#000000" font-family="sans-serif" font-size="12" lengthAdjust="spacing" textLength="8" x="48.75" y="249.1123">B</text><rect fill="#F1F1F1" height="33.9688" rx="12.5" ry="12.5" style="stroke:#181818;stroke-width:0.5;" width="28" x="89.75" y="227.9736"/><text fill="#000000" font-family="sans-serif" font-size="12" lengthAdjust="spacing" textLength="8" x="99.75" y="249.1123">C</text><rect fill="#F1F1F1" height="33.9688" rx="12.5" ry="12.5" style="stroke:#181818;stroke-width:0.5;" width="27" x="141.75" y="227.9736"/><text fill="#000000" font-family="sans-serif" font-size="12" lengthAdjust="spacing" textLength="7" x="151.75" y="249.1123">F</text><rect fill="#F1F1F1" height="33.9688" rx="12.5" ry="12.5" style="stroke:#181818;stroke-width:0.5;" width="29" x="140.75" y="281.9424"/><text fill="#000000" font-family="sans-serif" font-size="12" lengthAdjust="spacing" textLength="9" x="150.75" y="303.0811">H</text><polygon fill="#F1F1F1" points="105.5,355.9111,105.5,355.9111,117.5,367.9111,105.5,379.9111,105.5,379.9111,93.5,367.9111,105.5,355.9111" style="stroke:#181818;stroke-width:0.5;"/><rect fill="#F1F1F1" height="33.9688" rx="12.5" ry="12.5" style="stroke:#181818;stroke-width:0.5;" width="28" x="91.5" y="399.9111"/><text fill="#000000" font-family="sans-serif" font-size="12" lengthAdjust="spacing" textLength="8" x="101.5" y="421.0498">E</text><rect fill="#F1F1F1" height="33.9688" rx="12.5" ry="12.5" style="stroke:#181818;stroke-width:0.5;" width="29" x="91" y="453.8799"/><text fill="#000000" font-family="sans-serif" font-size="12" lengthAdjust="spacing" textLength="9" x="101" y="475.0186">D</text><polygon fill="#F1F1F1" points="105.5,124.3643,117.5,136.3643,105.5,148.3643,93.5,136.3643,105.5,124.3643" style="stroke:#181818;stroke-width:0.5;"/><polygon fill="#F1F1F1" points="105.5,507.8486,105.5,507.8486,117.5,519.8486,105.5,531.8486,105.5,531.8486,93.5,519.8486,105.5,507.8486" style="stroke:#181818;stroke-width:0.5;"/><rect fill="#F1F1F1" height="33.9688" rx="12.5" ry="12.5" style="stroke:#181818;stroke-width:0.5;" width="29" x="91" y="551.8486"/><text fill="#000000" font-family="sans-serif" font-size="12" lengthAdjust="spacing" textLength="9" x="101" y="572.9873">G</text><rect fill="#F1F1F1" height="33.9688" rx="12.5" ry="12.5" style="stroke:#181818;stroke-width:0.5;" width="29" x="91" y="605.8174"/><text fill="#000000" font-family="sans-serif" font-size="12" lengthAdjust="spacing" textLength="9" x="101" y="626.9561">H</text><line style="stroke:#181818;stroke-width:1.0;" x1="155.25" x2="155.25" y1="261.9424" y2="281.9424"/><polygon fill="#181818" points="151.25,271.9424,155.25,281.9424,159.25,271.9424,155.25,275.9424" style="stroke:#181818;stroke-width:1.0;"/><line style="stroke:#181818;stroke-width:1.0;" x1="81.5" x2="52.75" y1="180.3643" y2="180.3643"/><line style="stroke:#181818;stroke-width:1.0;" x1="52.75" x2="52.75" y1="180.3643" y2="227.9736"/><polygon fill="#181818" points="48.75,217.9736,52.75,227.9736,56.75,217.9736,52.75,221.9736" style="stroke:#181818;stroke-width:1.0;"/><text fill="#000000" font-family="sans-serif" font-size="11" lengthAdjust="spacing" textLength="17" x="52.75" y="207.9771">"1"</text><line style="stroke:#181818;stroke-width:1.0;" x1="129.5" x2="155.25" y1="180.3643" y2="180.3643"/><line style="stroke:#181818;stroke-width:1.0;" x1="155.25" x2="155.25" y1="180.3643" y2="227.9736"/><polygon fill="#181818" points="151.25,217.9736,155.25,227.9736,159.25,217.9736,155.25,221.9736" style="stroke:#181818;stroke-width:1.0;"/><text fill="#000000" font-family="sans-serif" font-size="11" lengthAdjust="spacing" textLength="17" x="155.25" y="207.9771">"3"</text><line style="stroke:#181818;stroke-width:1.0;" x1="105.5" x2="105.5" y1="192.3643" y2="204.234"/><line style="stroke:#181818;stroke-width:1.0;" x1="105.5" x2="103.75" y1="204.234" y2="204.234"/><line style="stroke:#181818;stroke-width:1.0;" x1="103.75" x2="103.75" y1="204.234" y2="227.9736"/><polygon fill="#181818" points="99.75,217.9736,103.75,227.9736,107.75,217.9736,103.75,221.9736" style="stroke:#181818;stroke-width:1.0;"/><text fill="#000000" font-family="sans-serif" font-size="11" lengthAdjust="spacing" textLength="17" x="103.75" y="208.9771">"2"</text><line style="stroke:#181818;stroke-width:1.0;" x1="52.75" x2="52.75" y1="261.9424" y2="367.9111"/><line style="stroke:#181818;stroke-width:1.0;" x1="52.75" x2="93.5" y1="367.9111" y2="367.9111"/><polygon fill="#181818" points="83.5,363.9111,93.5,367.9111,83.5,371.9111,87.5,367.9111" style="stroke:#181818;stroke-width:1.0;"/><line style="stroke:#181818;stroke-width:1.0;" x1="103.75" x2="103.75" y1="261.9424" y2="355.9111"/><line style="stroke:#181818;stroke-width:1.0;" x1="103.75" x2="105.5" y1="355.9111" y2="355.9111"/><polygon fill="#181818" points="101.5,345.9111,105.5,355.9111,109.5,345.9111,105.5,349.9111" style="stroke:#181818;stroke-width:1.0;"/><line style="stroke:#181818;stroke-width:1.0;" x1="105.5" x2="105.5" y1="379.9111" y2="399.9111"/><polygon fill="#181818" points="101.5,389.9111,105.5,399.9111,109.5,389.9111,105.5,393.9111" style="stroke:#181818;stroke-width:1.0;"/><line style="stroke:#181818;stroke-width:1.0;" x1="105.5" x2="105.5" y1="433.8799" y2="453.8799"/><polygon fill="#181818" points="101.5,443.8799,105.5,453.8799,109.5,443.8799,105.5,447.8799" style="stroke:#181818;stroke-width:1.0;"/><line style="stroke:#181818;stroke-width:1.0;" x1="105.5" x2="105.5" y1="148.3643" y2="168.3643"/><polygon fill="#181818" points="101.5,158.3643,105.5,168.3643,109.5,158.3643,105.5,162.3643" style="stroke:#181818;stroke-width:1.0;"/><line style="stroke:#181818;stroke-width:1.0;" x1="117.5" x2="184.25" y1="519.8486" y2="519.8486"/><polygon fill="#181818" points="180.25,335.9111,184.25,325.9111,188.25,335.9111,184.25,331.9111" style="stroke:#181818;stroke-width:1.0;"/><line style="stroke:#181818;stroke-width:1.0;" x1="184.25" x2="184.25" y1="136.3643" y2="519.8486"/><line style="stroke:#181818;stroke-width:1.0;" x1="184.25" x2="117.5" y1="136.3643" y2="136.3643"/><polygon fill="#181818" points="127.5,132.3643,117.5,136.3643,127.5,140.3643,123.5,136.3643" style="stroke:#181818;stroke-width:1.0;"/><line style="stroke:#181818;stroke-width:1.0;" x1="105.5" x2="105.5" y1="487.8486" y2="507.8486"/><polygon fill="#181818" points="101.5,497.8486,105.5,507.8486,109.5,497.8486,105.5,501.8486" style="stroke:#181818;stroke-width:1.0;"/><line style="stroke:#181818;stroke-width:1.0;" x1="105.5" x2="105.5" y1="104.3643" y2="124.3643"/><polygon fill="#181818" points="101.5,114.3643,105.5,124.3643,109.5,114.3643,105.5,118.3643" style="stroke:#181818;stroke-width:1.0;"/><line style="stroke:#181818;stroke-width:1.0;" x1="105.5" x2="105.5" y1="531.8486" y2="551.8486"/><polygon fill="#181818" points="101.5,541.8486,105.5,551.8486,109.5,541.8486,105.5,545.8486" style="stroke:#181818;stroke-width:1.0;"/><line style="stroke:#181818;stroke-width:1.0;" x1="105.5" x2="105.5" y1="585.8174" y2="605.8174"/><polygon fill="#181818" points="101.5,595.8174,105.5,605.8174,109.5,595.8174,105.5,599.8174" style="stroke:#181818;stroke-width:1.0;"/><!--SRC=[VP6z3i8W58NtFWN1fOxg1fF_RYPEReIqDuL8W01D1-ExMsoiGOjduvppSSF5SXTaa4OZR7aGddbXMbMpcrIAISsKCHQZUu5wDSwqzb_lrOgQDGv0apKT7GSMU1YFKRwJeHAel9ulyoI8ghY74Y_mRn95DZH3B7F4DaUiSiI1JlkdQJzk8Wb0ryCJ4vViKvpilfU4EY4LZ2OvVWhlsVtLmsyKZoS0]--></g></svg>