<?xml version="1.0" encoding="us-ascii" standalone="no"?><svg xmlns="http://www.w3.org/2000/svg" xmlns:xlink="http://www.w3.org/1999/xlink" contentStyleType="text/css" height="399px" preserveAspectRatio="none" style="width:328px;height:399px;background:#FFFFFF;" version="1.1" viewBox="0 0 328 399" width="328px" zoomAndPan="magnify"><defs/><g><rect fill="none" height="377.3018" style="stroke:#000000;stroke-width:1.5;" width="306" x="11" y="11"/><path d="M292,11 L292,20.2969 L282,30.2969 L11,30.2969 " fill="none" style="stroke:#000000;stroke-width:1.5;"/><text fill="#000000" font-family="sans-serif" font-size="14" lengthAdjust="spacing" textLength="271" x="14" y="24.9951">two_different_loops_follow_same_event</text><rect fill="none" height="335.2031" style="stroke:#000000;stroke-width:1.5;" width="286" x="21" y="41.0986"/><path d="M302,41.0986 L302,50.3955 L292,60.3955 L21,60.3955 " fill="none" style="stroke:#000000;stroke-width:1.5;"/><text fill="#000000" font-family="sans-serif" font-size="14" lengthAdjust="spacing" textLength="271" x="24" y="55.0938">two_different_loops_follow_same_event</text><rect fill="#008000" height="33.9688" rx="12.5" ry="12.5" style="stroke:#181818;stroke-width:0.5;" width="28" x="140.5" y="70.3955"/><text fill="#000000" font-family="sans-serif" font-size="12" lengthAdjust="spacing" textLength="8" x="150.5" y="91.5342">A</text><polygon fill="#F1F1F1" points="142.5,124.3643,166.5,124.3643,178.5,136.3643,166.5,148.3643,142.5,148.3643,130.5,136.3643,142.5,124.3643" style="stroke:#181818;stroke-width:0.5;"/><text fill="#000000" font-family="sans-serif" font-size="11" lengthAdjust="spacing" textLength="10" x="149.5" y="140.1724">""</text><text fill="#000000" font-family="sans-serif" font-size="11" lengthAdjust="spacing" textLength="20" x="110.5" y="133.77">yes</text><text fill="#000000" font-family="sans-serif" font-size="11" lengthAdjust="spacing" textLength="14" x="178.5" y="133.77">no</text><rect fill="#F1F1F1" height="33.9688" rx="12.5" ry="12.5" style="stroke:#181818;stroke-width:0.5;" width="28" x="92.5" y="202.3643"/><text fill="#000000" font-family="sans-serif" font-size="12" lengthAdjust="spacing" textLength="8" x="102.5" y="223.5029">B</text><polygon fill="#F1F1F1" points="106.5,158.3643,118.5,170.3643,106.5,182.3643,94.5,170.3643,106.5,158.3643" style="stroke:#181818;stroke-width:0.5;"/><polygon fill="#F1F1F1" points="92.5,256.333,120.5,256.333,132.5,268.333,120.5,280.333,92.5,280.333,80.5,268.333,92.5,256.333" style="stroke:#181818;stroke-width:0.5;"/><text fill="#000000" font-family="sans-serif" font-size="11" lengthAdjust="spacing" textLength="28" x="92.5" y="272.1411">false</text><rect fill="#F1F1F1" height="33.9688" rx="12.5" ry="12.5" style="stroke:#181818;stroke-width:0.5;" width="28" x="188.5" y="202.3643"/><text fill="#000000" font-family="sans-serif" font-size="12" lengthAdjust="spacing" textLength="8" x="198.5" y="223.5029">C</text><polygon fill="#F1F1F1" points="202.5,158.3643,214.5,170.3643,202.5,182.3643,190.5,170.3643,202.5,158.3643" style="stroke:#181818;stroke-width:0.5;"/><polygon fill="#F1F1F1" points="188.5,256.333,216.5,256.333,228.5,268.333,216.5,280.333,188.5,280.333,176.5,268.333,188.5,256.333" style="stroke:#181818;stroke-width:0.5;"/><text fill="#000000" font-family="sans-serif" font-size="11" lengthAdjust="spacing" textLength="28" x="188.5" y="272.1411">false</text><polygon fill="#F1F1F1" points="154.5,286.333,166.5,298.333,154.5,310.333,142.5,298.333,154.5,286.333" style="stroke:#181818;stroke-width:0.5;"/><rect fill="#F1F1F1" height="33.9688" rx="12.5" ry="12.5" style="stroke:#181818;stroke-width:0.5;" width="29" x="140" y="330.333"/><text fill="#000000" font-family="sans-serif" font-size="12" lengthAdjust="spacing" textLength="9" x="150" y="351.4717">D</text><line style="stroke:#181818;stroke-width:1.0;" x1="106.5" x2="106.5" y1="182.3643" y2="202.3643"/><polygon fill="#181818" points="102.5,192.3643,106.5,202.3643,110.5,192.3643,106.5,196.3643" style="stroke:#181818;stroke-width:1.0;"/><line style="stroke:#181818;stroke-width:1.0;" x1="132.5" x2="144.5" y1="268.333" y2="268.333"/><polygon fill="#181818" points="140.5,229.3486,144.5,219.3486,148.5,229.3486,144.5,225.3486" style="stroke:#181818;stroke-width:1.0;"/><line style="stroke:#181818;stroke-width:1.0;" x1="144.5" x2="144.5" y1="170.3643" y2="268.333"/><line style="stroke:#181818;stroke-width:1.0;" x1="144.5" x2="118.5" y1="170.3643" y2="170.3643"/><polygon fill="#181818" points="128.5,166.3643,118.5,170.3643,128.5,174.3643,124.5,170.3643" style="stroke:#181818;stroke-width:1.0;"/><line style="stroke:#181818;stroke-width:1.0;" x1="106.5" x2="106.5" y1="236.333" y2="256.333"/><polygon fill="#181818" points="102.5,246.333,106.5,256.333,110.5,246.333,106.5,250.333" style="stroke:#181818;stroke-width:1.0;"/><line style="stroke:#181818;stroke-width:1.0;" x1="202.5" x2="202.5" y1="182.3643" y2="202.3643"/><polygon fill="#181818" points="198.5,192.3643,202.5,202.3643,206.5,192.3643,202.5,196.3643" style="stroke:#181818;stroke-width:1.0;"/><line style="stroke:#181818;stroke-width:1.0;" x1="228.5" x2="240.5" y1="268.333" y2="268.333"/><polygon fill="#181818" points="236.5,229.3486,240.5,219.3486,244.5,229.3486,240.5,225.3486" style="stroke:#181818;stroke-width:1.0;"/><line style="stroke:#181818;stroke-width:1.0;" x1="240.5" x2="240.5" y1="170.3643" y2="268.333"/><line style="stroke:#181818;stroke-width:1.0;" x1="240.5" x2="214.5" y1="170.3643" y2="170.3643"/><polygon fill="#181818" points="224.5,166.3643,214.5,170.3643,224.5,174.3643,220.5,170.3643" style="stroke:#181818;stroke-width:1.0;"/><line style="stroke:#181818;stroke-width:1.0;" x1="202.5" x2="202.5" y1="236.333" y2="256.333"/><polygon fill="#181818" points="198.5,246.333,202.5,256.333,206.5,246.333,202.5,250.333" style="stroke:#181818;stroke-width:1.0;"/><line style="stroke:#181818;stroke-width:1.0;" x1="130.5" x2="106.5" y1="136.3643" y2="136.3643"/><line style="stroke:#181818;stroke-width:1.0;" x1="106.5" x2="106.5" y1="136.3643" y2="158.3643"/><polygon fill="#181818" points="102.5,148.3643,106.5,158.3643,110.5,148.3643,106.5,152.3643" style="stroke:#181818;stroke-width:1.0;"/><line style="stroke:#181818;stroke-width:1.0;" x1="178.5" x2="202.5" y1="136.3643" y2="136.3643"/><line style="stroke:#181818;stroke-width:1.0;" x1="202.5" x2="202.5" y1="136.3643" y2="158.3643"/><polygon fill="#181818" points="198.5,148.3643,202.5,158.3643,206.5,148.3643,202.5,152.3643" style="stroke:#181818;stroke-width:1.0;"/><line style="stroke:#181818;stroke-width:1.0;" x1="106.5" x2="106.5" y1="280.333" y2="298.333"/><line style="stroke:#181818;stroke-width:1.0;" x1="106.5" x2="142.5" y1="298.333" y2="298.333"/><polygon fill="#181818" points="132.5,294.333,142.5,298.333,132.5,302.333,136.5,298.333" style="stroke:#181818;stroke-width:1.0;"/><line style="stroke:#181818;stroke-width:1.0;" x1="202.5" x2="202.5" y1="280.333" y2="298.333"/><line style="stroke:#181818;stroke-width:1.0;" x1="202.5" x2="166.5" y1="298.333" y2="298.333"/><polygon fill="#181818" points="176.5,294.333,166.5,298.333,176.5,302.333,172.5,298.333" style="stroke:#181818;stroke-width:1.0;"/><line style="stroke:#181818;stroke-width:1.0;" x1="154.5" x2="154.5" y1="104.3643" y2="124.3643"/><polygon fill="#181818" points="150.5,114.3643,154.5,124.3643,158.5,114.3643,154.5,118.3643" style="stroke:#181818;stroke-width:1.0;"/><line style="stroke:#181818;stroke-width:1.0;" x1="154.5" x2="154.5" y1="310.333" y2="330.333"/><polygon fill="#181818" points="150.5,320.333,154.5,330.333,158.5,320.333,154.5,324.333" style="stroke:#181818;stroke-width:1.0;"/><!--SRC=[bP3D2i8m48JlVOebNj9NI4_-l4S8E6a3CHkIQ13ntKqjL0GFTMxpxSx0RZIfkE8ua2YLzTbPYuHGj6UEMLlsdglEvWADM-E27XqrZOclSMlcdPYr6nCGr7vOYRCaXUYfJ0WaxyZzEfgL467A5vgb3iEFDQgJyo1fZS_uzA0vae6tDH__QGxjzjMfqn9jT7bFztm1]--></g></svg>