<?xml version="1.0" encoding="us-ascii" standalone="no"?><svg xmlns="http://www.w3.org/2000/svg" xmlns:xlink="http://www.w3.org/1999/xlink" contentStyleType="text/css" height="593px" preserveAspectRatio="none" style="width:198px;height:593px;background:#FFFFFF;" version="1.1" viewBox="0 0 198 593" width="198px" zoomAndPan="magnify"><defs/><g><rect fill="none" height="571.7266" style="stroke:#000000;stroke-width:1.5;" width="176" x="11" y="11"/><path d="M162,11 L162,20.4883 L152,30.4883 L11,30.4883 " fill="none" style="stroke:#000000;stroke-width:1.5;"/><text fill="#000000" font-family="sans-serif" font-size="14" lengthAdjust="spacing" textLength="141" x="14" y="25.5352">nested normal loops</text><rect fill="none" height="529.7852" style="stroke:#000000;stroke-width:1.5;" width="156" x="21" y="40.9414"/><path d="M172,40.9414 L172,50.4297 L162,60.4297 L21,60.4297 " fill="none" style="stroke:#000000;stroke-width:1.5;"/><text fill="#000000" font-family="sans-serif" font-size="14" lengthAdjust="spacing" textLength="141" x="24" y="55.4766">nested normal loops</text><rect fill="#008000" height="34.1328" rx="12.5" ry="12.5" style="stroke:#181818;stroke-width:0.5;" width="28" x="63.5" y="70.4297"/><text fill="#000000" font-family="sans-serif" font-size="12" lengthAdjust="spacing" textLength="8" x="73.5" y="92.0313">A</text><rect fill="#F1F1F1" height="34.1328" rx="12.5" ry="12.5" style="stroke:#181818;stroke-width:0.5;" width="27" x="64" y="168.5625"/><text fill="#000000" font-family="sans-serif" font-size="12" lengthAdjust="spacing" textLength="7" x="74" y="190.1641">B</text><rect fill="#F1F1F1" height="34.1328" rx="12.5" ry="12.5" style="stroke:#181818;stroke-width:0.5;" width="28" x="63.5" y="266.6953"/><text fill="#000000" font-family="sans-serif" font-size="12" lengthAdjust="spacing" textLength="8" x="73.5" y="288.2969">C</text><rect fill="#F1F1F1" height="34.1328" rx="12.5" ry="12.5" style="stroke:#181818;stroke-width:0.5;" width="29" x="63" y="328.3281"/><text fill="#000000" font-family="sans-serif" font-size="12" lengthAdjust="spacing" textLength="9" x="73" y="349.9297">D</text><polygon fill="#F1F1F1" points="77.5,222.6953,89.5,234.6953,77.5,246.6953,65.5,234.6953,77.5,222.6953" style="stroke:#181818;stroke-width:0.5;"/><polygon fill="#F1F1F1" points="77.5,382.4609,77.5,382.4609,89.5,394.4609,77.5,406.4609,77.5,406.4609,65.5,394.4609,77.5,382.4609" style="stroke:#181818;stroke-width:0.5;"/><rect fill="#F1F1F1" height="34.1328" rx="12.5" ry="12.5" style="stroke:#181818;stroke-width:0.5;" width="27" x="64" y="426.4609"/><text fill="#000000" font-family="sans-serif" font-size="12" lengthAdjust="spacing" textLength="7" x="74" y="448.0625">E</text><polygon fill="#F1F1F1" points="77.5,124.5625,89.5,136.5625,77.5,148.5625,65.5,136.5625,77.5,124.5625" style="stroke:#181818;stroke-width:0.5;"/><polygon fill="#F1F1F1" points="77.5,480.5938,77.5,480.5938,89.5,492.5938,77.5,504.5938,77.5,504.5938,65.5,492.5938,77.5,480.5938" style="stroke:#181818;stroke-width:0.5;"/><rect fill="#FF0000" height="34.1328" rx="12.5" ry="12.5" style="stroke:#181818;stroke-width:0.5;" width="26" x="64.5" y="524.5938"/><text fill="#000000" font-family="sans-serif" font-size="12" lengthAdjust="spacing" textLength="6" x="74.5" y="546.1953">F</text><line style="stroke:#181818;stroke-width:1.0;" x1="77.5" x2="77.5" y1="300.8281" y2="328.3281"/><polygon fill="#181818" points="73.5,318.3281,77.5,328.3281,81.5,318.3281,77.5,322.3281" style="stroke:#181818;stroke-width:1.0;"/><line style="stroke:#181818;stroke-width:1.0;" x1="77.5" x2="77.5" y1="246.6953" y2="266.6953"/><polygon fill="#181818" points="73.5,256.6953,77.5,266.6953,81.5,256.6953,77.5,260.6953" style="stroke:#181818;stroke-width:1.0;"/><line style="stroke:#181818;stroke-width:1.0;" x1="89.5" x2="104" y1="394.4609" y2="394.4609"/><polygon fill="#181818" points="100,320.8281,104,310.8281,108,320.8281,104,316.8281" style="stroke:#181818;stroke-width:1.0;"/><line style="stroke:#181818;stroke-width:1.0;" x1="104" x2="104" y1="234.6953" y2="394.4609"/><line style="stroke:#181818;stroke-width:1.0;" x1="104" x2="89.5" y1="234.6953" y2="234.6953"/><polygon fill="#181818" points="99.5,230.6953,89.5,234.6953,99.5,238.6953,95.5,234.6953" style="stroke:#181818;stroke-width:1.0;"/><line style="stroke:#181818;stroke-width:1.0;" x1="77.5" x2="77.5" y1="362.4609" y2="382.4609"/><polygon fill="#181818" points="73.5,372.4609,77.5,382.4609,81.5,372.4609,77.5,376.4609" style="stroke:#181818;stroke-width:1.0;"/><line style="stroke:#181818;stroke-width:1.0;" x1="77.5" x2="77.5" y1="202.6953" y2="222.6953"/><polygon fill="#181818" points="73.5,212.6953,77.5,222.6953,81.5,212.6953,77.5,216.6953" style="stroke:#181818;stroke-width:1.0;"/><line style="stroke:#181818;stroke-width:1.0;" x1="77.5" x2="77.5" y1="406.4609" y2="426.4609"/><polygon fill="#181818" points="73.5,416.4609,77.5,426.4609,81.5,416.4609,77.5,420.4609" style="stroke:#181818;stroke-width:1.0;"/><line style="stroke:#181818;stroke-width:1.0;" x1="77.5" x2="77.5" y1="148.5625" y2="168.5625"/><polygon fill="#181818" points="73.5,158.5625,77.5,168.5625,81.5,158.5625,77.5,162.5625" style="stroke:#181818;stroke-width:1.0;"/><line style="stroke:#181818;stroke-width:1.0;" x1="89.5" x2="128" y1="492.5938" y2="492.5938"/><polygon fill="#181818" points="124,320.8281,128,310.8281,132,320.8281,128,316.8281" style="stroke:#181818;stroke-width:1.0;"/><line style="stroke:#181818;stroke-width:1.0;" x1="128" x2="128" y1="136.5625" y2="492.5938"/><line style="stroke:#181818;stroke-width:1.0;" x1="128" x2="89.5" y1="136.5625" y2="136.5625"/><polygon fill="#181818" points="99.5,132.5625,89.5,136.5625,99.5,140.5625,95.5,136.5625" style="stroke:#181818;stroke-width:1.0;"/><line style="stroke:#181818;stroke-width:1.0;" x1="77.5" x2="77.5" y1="460.5938" y2="480.5938"/><polygon fill="#181818" points="73.5,470.5938,77.5,480.5938,81.5,470.5938,77.5,474.5938" style="stroke:#181818;stroke-width:1.0;"/><line style="stroke:#181818;stroke-width:1.0;" x1="77.5" x2="77.5" y1="104.5625" y2="124.5625"/><polygon fill="#181818" points="73.5,114.5625,77.5,124.5625,81.5,114.5625,77.5,118.5625" style="stroke:#181818;stroke-width:1.0;"/><line style="stroke:#181818;stroke-width:1.0;" x1="77.5" x2="77.5" y1="504.5938" y2="524.5938"/><polygon fill="#181818" points="73.5,514.5938,77.5,524.5938,81.5,514.5938,77.5,518.5938" style="stroke:#181818;stroke-width:1.0;"/><!--SRC=[AqWiAiaioSpFKr3AIoqkIKrHoCiloatCKSZ9poyeLbAevb80WlIY_D82x2h0yY2Wd5wKcffdvMWD5obABKXDB85pGS3AoHg5ZqK9M9cpDQQO2pQj2kKPcJcfg7QueZi1JP5oKMgAbHj4KMfU2iHtNBK0]--></g></svg>