<?xml version="1.0" encoding="us-ascii" standalone="no"?><svg xmlns="http://www.w3.org/2000/svg" xmlns:xlink="http://www.w3.org/1999/xlink" contentStyleType="text/css" height="532px" preserveAspectRatio="none" style="width:166px;height:532px;background:#FFFFFF;" version="1.1" viewBox="0 0 166 532" width="166px" zoomAndPan="magnify"><defs/><g><rect fill="none" height="510.0938" style="stroke:#000000;stroke-width:1.5;" width="144" x="11" y="11"/><path d="M130,11 L130,20.4883 L120,30.4883 L11,30.4883 " fill="none" style="stroke:#000000;stroke-width:1.5;"/><text fill="#000000" font-family="sans-serif" font-size="14" lengthAdjust="spacing" textLength="109" x="14" y="25.5352">nested self loop</text><rect fill="none" height="468.1523" style="stroke:#000000;stroke-width:1.5;" width="124" x="21" y="40.9414"/><path d="M140,40.9414 L140,50.4297 L130,60.4297 L21,60.4297 " fill="none" style="stroke:#000000;stroke-width:1.5;"/><text fill="#000000" font-family="sans-serif" font-size="14" lengthAdjust="spacing" textLength="109" x="24" y="55.4766">nested self loop</text><rect fill="#F1F1F1" height="34.1328" rx="12.5" ry="12.5" style="stroke:#181818;stroke-width:0.5;" width="28" x="47.75" y="70.4297"/><text fill="#000000" font-family="sans-serif" font-size="12" lengthAdjust="spacing" textLength="8" x="57.75" y="92.0313">A</text><rect fill="#F1F1F1" height="34.1328" rx="12.5" ry="12.5" style="stroke:#181818;stroke-width:0.5;" width="27" x="48.25" y="168.5625"/><text fill="#000000" font-family="sans-serif" font-size="12" lengthAdjust="spacing" textLength="7" x="58.25" y="190.1641">B</text><rect fill="#F1F1F1" height="34.1328" rx="12.5" ry="12.5" style="stroke:#181818;stroke-width:0.5;" width="28" x="47.75" y="266.6953"/><text fill="#000000" font-family="sans-serif" font-size="12" lengthAdjust="spacing" textLength="8" x="57.75" y="288.2969">C</text><polygon fill="#F1F1F1" points="61.75,222.6953,73.75,234.6953,61.75,246.6953,49.75,234.6953,61.75,222.6953" style="stroke:#181818;stroke-width:0.5;"/><polygon fill="#F1F1F1" points="61.75,320.8281,61.75,320.8281,73.75,332.8281,61.75,344.8281,61.75,344.8281,49.75,332.8281,61.75,320.8281" style="stroke:#181818;stroke-width:0.5;"/><rect fill="#F1F1F1" height="34.1328" rx="12.5" ry="12.5" style="stroke:#181818;stroke-width:0.5;" width="29" x="47.25" y="364.8281"/><text fill="#000000" font-family="sans-serif" font-size="12" lengthAdjust="spacing" textLength="9" x="57.25" y="386.4297">D</text><polygon fill="#F1F1F1" points="61.75,124.5625,73.75,136.5625,61.75,148.5625,49.75,136.5625,61.75,124.5625" style="stroke:#181818;stroke-width:0.5;"/><polygon fill="#F1F1F1" points="61.75,418.9609,61.75,418.9609,73.75,430.9609,61.75,442.9609,61.75,442.9609,49.75,430.9609,61.75,418.9609" style="stroke:#181818;stroke-width:0.5;"/><rect fill="#F1F1F1" height="34.1328" rx="12.5" ry="12.5" style="stroke:#181818;stroke-width:0.5;" width="27" x="48.25" y="462.9609"/><text fill="#000000" font-family="sans-serif" font-size="12" lengthAdjust="spacing" textLength="7" x="58.25" y="484.5625">E</text><line style="stroke:#181818;stroke-width:1.0;" x1="61.75" x2="61.75" y1="246.6953" y2="266.6953"/><polygon fill="#181818" points="57.75,256.6953,61.75,266.6953,65.75,256.6953,61.75,260.6953" style="stroke:#181818;stroke-width:1.0;"/><line style="stroke:#181818;stroke-width:1.0;" x1="73.75" x2="87.75" y1="332.8281" y2="332.8281"/><polygon fill="#181818" points="83.75,293.7617,87.75,283.7617,91.75,293.7617,87.75,289.7617" style="stroke:#181818;stroke-width:1.0;"/><line style="stroke:#181818;stroke-width:1.0;" x1="87.75" x2="87.75" y1="234.6953" y2="332.8281"/><line style="stroke:#181818;stroke-width:1.0;" x1="87.75" x2="73.75" y1="234.6953" y2="234.6953"/><polygon fill="#181818" points="83.75,230.6953,73.75,234.6953,83.75,238.6953,79.75,234.6953" style="stroke:#181818;stroke-width:1.0;"/><line style="stroke:#181818;stroke-width:1.0;" x1="61.75" x2="61.75" y1="300.8281" y2="320.8281"/><polygon fill="#181818" points="57.75,310.8281,61.75,320.8281,65.75,310.8281,61.75,314.8281" style="stroke:#181818;stroke-width:1.0;"/><line style="stroke:#181818;stroke-width:1.0;" x1="61.75" x2="61.75" y1="202.6953" y2="222.6953"/><polygon fill="#181818" points="57.75,212.6953,61.75,222.6953,65.75,212.6953,61.75,216.6953" style="stroke:#181818;stroke-width:1.0;"/><line style="stroke:#181818;stroke-width:1.0;" x1="61.75" x2="61.75" y1="344.8281" y2="364.8281"/><polygon fill="#181818" points="57.75,354.8281,61.75,364.8281,65.75,354.8281,61.75,358.8281" style="stroke:#181818;stroke-width:1.0;"/><line style="stroke:#181818;stroke-width:1.0;" x1="61.75" x2="61.75" y1="148.5625" y2="168.5625"/><polygon fill="#181818" points="57.75,158.5625,61.75,168.5625,65.75,158.5625,61.75,162.5625" style="stroke:#181818;stroke-width:1.0;"/><line style="stroke:#181818;stroke-width:1.0;" x1="73.75" x2="111.75" y1="430.9609" y2="430.9609"/><polygon fill="#181818" points="107.75,293.7617,111.75,283.7617,115.75,293.7617,111.75,289.7617" style="stroke:#181818;stroke-width:1.0;"/><line style="stroke:#181818;stroke-width:1.0;" x1="111.75" x2="111.75" y1="136.5625" y2="430.9609"/><line style="stroke:#181818;stroke-width:1.0;" x1="111.75" x2="73.75" y1="136.5625" y2="136.5625"/><polygon fill="#181818" points="83.75,132.5625,73.75,136.5625,83.75,140.5625,79.75,136.5625" style="stroke:#181818;stroke-width:1.0;"/><line style="stroke:#181818;stroke-width:1.0;" x1="61.75" x2="61.75" y1="398.9609" y2="418.9609"/><polygon fill="#181818" points="57.75,408.9609,61.75,418.9609,65.75,408.9609,61.75,412.9609" style="stroke:#181818;stroke-width:1.0;"/><line style="stroke:#181818;stroke-width:1.0;" x1="61.75" x2="61.75" y1="104.5625" y2="124.5625"/><polygon fill="#181818" points="57.75,114.5625,61.75,124.5625,65.75,114.5625,61.75,118.5625" style="stroke:#181818;stroke-width:1.0;"/><line style="stroke:#181818;stroke-width:1.0;" x1="61.75" x2="61.75" y1="442.9609" y2="462.9609"/><polygon fill="#181818" points="57.75,452.9609,61.75,462.9609,65.75,452.9609,61.75,456.9609" style="stroke:#181818;stroke-width:1.0;"/><!--SRC=[Kr1GK2X8B2h9BCdCprDGoaijBabDKIXEpKbJoCdFBr1IgEPIW8BqelpI0YnAu0f0mChH6eLVb5gGcbY28WHMvcID8OP3ALYvCoxb2kKPcJcfcEQxO7C65iLMhWY5gNaf44-2HMe1]--></g></svg>