<?xml version="1.0" encoding="us-ascii" standalone="no"?><svg xmlns="http://www.w3.org/2000/svg" xmlns:xlink="http://www.w3.org/1999/xlink" contentStyleType="text/css" height="2447px" preserveAspectRatio="none" style="width:568px;height:2447px;background:#FFFFFF;" version="1.1" viewBox="0 0 568 2447" width="568px" zoomAndPan="magnify"><defs/><g><ellipse cx="282" cy="20" fill="#222222" rx="10" ry="10" style="stroke:#222222;stroke-width:1.0;"/><rect fill="#F1F1F1" height="33.9688" rx="12.5" ry="12.5" style="stroke:#181818;stroke-width:0.5;" width="308" x="128" y="50"/><text fill="#000000" font-family="sans-serif" font-size="12" lengthAdjust="spacing" textLength="288" x="138" y="71.1387">Input directed graph of Events and LoopEvent</text><rect fill="none" height="1437.1523" style="stroke:#000000;stroke-width:1.5;" width="546" x="11" y="93.9688"/><path d="M286,93.9688 L286,103.2656 L276,113.2656 L11,113.2656 " fill="none" style="stroke:#000000;stroke-width:1.5;"/><text fill="#000000" font-family="sans-serif" font-size="14" lengthAdjust="spacing" textLength="265" x="14" y="107.9639">create_node_graph_from_event_graph</text><rect fill="#F1F1F1" height="33.9688" rx="12.5" ry="12.5" style="stroke:#181818;stroke-width:0.5;" width="352" x="106" y="130.2656"/><text fill="#000000" font-family="sans-serif" font-size="12" lengthAdjust="spacing" textLength="332" x="116" y="151.4043">create directed graph of Nodes and SubGraphNodes</text><rect fill="#F1F1F1" height="33.9688" rx="12.5" ry="12.5" style="stroke:#181818;stroke-width:0.5;" width="267" x="148.5" y="184.2344"/><text fill="#000000" font-family="sans-serif" font-size="12" lengthAdjust="spacing" textLength="247" x="158.5" y="205.373">create dictionary to map Event to Node</text><rect fill="#F1F1F1" height="33.9688" rx="12.5" ry="12.5" style="stroke:#181818;stroke-width:0.5;" width="161" x="201.5" y="238.2031"/><text fill="#000000" font-family="sans-serif" font-size="12" lengthAdjust="spacing" textLength="141" x="211.5" y="259.3418">get all Events in graph</text><rect fill="none" height="146.2656" style="stroke:#000000;stroke-width:1.5;" width="484" x="21" y="326.1719"/><path d="M202,326.1719 L202,335.4688 L192,345.4688 L21,345.4688 " fill="none" style="stroke:#000000;stroke-width:1.5;"/><text fill="#000000" font-family="sans-serif" font-size="14" lengthAdjust="spacing" textLength="171" x="24" y="340.167">create_node_from_event</text><polygon fill="#F1F1F1" points="228.5,362.4688,335.5,362.4688,347.5,374.4688,335.5,386.4688,228.5,386.4688,216.5,374.4688,228.5,362.4688" style="stroke:#181818;stroke-width:0.5;"/><text fill="#000000" font-family="sans-serif" font-size="11" lengthAdjust="spacing" textLength="107" x="228.5" y="378.2769">Event is LoopEvent</text><text fill="#000000" font-family="sans-serif" font-size="11" lengthAdjust="spacing" textLength="23" x="193.5" y="371.8745">true</text><text fill="#000000" font-family="sans-serif" font-size="11" lengthAdjust="spacing" textLength="28" x="347.5" y="371.8745">false</text><rect fill="#F1F1F1" height="33.9688" rx="12.5" ry="12.5" style="stroke:#181818;stroke-width:0.5;" width="262" x="33" y="396.4688"/><text fill="#000000" font-family="sans-serif" font-size="12" lengthAdjust="spacing" textLength="242" x="43" y="417.6074">Create SubGraphNode from LoopEvent</text><rect fill="#F1F1F1" height="33.9688" rx="12.5" ry="12.5" style="stroke:#181818;stroke-width:0.5;" width="170" x="315" y="396.4688"/><text fill="#000000" font-family="sans-serif" font-size="12" lengthAdjust="spacing" textLength="150" x="325" y="417.6074">Create Node from Event</text><polygon fill="#F1F1F1" points="282,436.4375,294,448.4375,282,460.4375,270,448.4375,282,436.4375" style="stroke:#181818;stroke-width:0.5;"/><rect fill="#F1F1F1" height="33.9688" rx="12.5" ry="12.5" style="stroke:#181818;stroke-width:0.5;" width="262" x="151" y="492.4375"/><text fill="#000000" font-family="sans-serif" font-size="12" lengthAdjust="spacing" textLength="242" x="161" y="513.5762">Add Node/SubGraphNode to dictionary</text><polygon fill="#F1F1F1" points="282,292.1719,294,304.1719,282,316.1719,270,304.1719,282,292.1719" style="stroke:#181818;stroke-width:0.5;"/><polygon fill="#F1F1F1" points="215.5,546.4063,348.5,546.4063,360.5,558.4063,348.5,570.4063,215.5,570.4063,203.5,558.4063,215.5,546.4063" style="stroke:#181818;stroke-width:0.5;"/><text fill="#000000" font-family="sans-serif" font-size="11" lengthAdjust="spacing" textLength="133" x="215.5" y="562.2144">for each Event in graph</text><rect fill="#F1F1F1" height="33.9688" rx="12.5" ry="12.5" style="stroke:#181818;stroke-width:0.5;" width="197" x="183.5" y="590.4063"/><text fill="#000000" font-family="sans-serif" font-size="12" lengthAdjust="spacing" textLength="177" x="193.5" y="611.5449">get all edges in Event graph</text><rect fill="#F1F1F1" height="33.9688" rx="12.5" ry="12.5" style="stroke:#181818;stroke-width:0.5;" width="304" x="130" y="688.375"/><text fill="#000000" font-family="sans-serif" font-size="12" lengthAdjust="spacing" textLength="284" x="140" y="709.5137">Create NodeTuple from edge using dictionary</text><rect fill="none" height="205.2031" style="stroke:#000000;stroke-width:1.5;" width="349" x="107.5" y="732.3438"/><path d="M333.5,732.3438 L333.5,741.6406 L323.5,751.6406 L107.5,751.6406 " fill="none" style="stroke:#000000;stroke-width:1.5;"/><text fill="#000000" font-family="sans-serif" font-size="14" lengthAdjust="spacing" textLength="216" x="110.5" y="746.3389">update_graph_with_node_tuple</text><rect fill="#F1F1F1" height="33.9688" rx="12.5" ry="12.5" style="stroke:#181818;stroke-width:0.5;" width="289" x="137.5" y="768.6406"/><text fill="#000000" font-family="sans-serif" font-size="12" lengthAdjust="spacing" textLength="269" x="147.5" y="789.7793">Add NodeTuple to directed graph of Nodes</text><rect fill="#F1F1F1" height="33.9688" rx="12.5" ry="12.5" style="stroke:#181818;stroke-width:0.5;" width="329" x="117.5" y="837.6094"/><text fill="#000000" font-family="sans-serif" font-size="12" lengthAdjust="spacing" textLength="309" x="127.5" y="858.748">update outgoing Nodes of outnode of NodeTuple</text><rect fill="#F1F1F1" height="33.9688" rx="12.5" ry="12.5" style="stroke:#181818;stroke-width:0.5;" width="319" x="122.5" y="891.5781"/><text fill="#000000" font-family="sans-serif" font-size="12" lengthAdjust="spacing" textLength="299" x="132.5" y="912.7168">update incoming Nodes of innode of NodeTuple</text><polygon fill="#F1F1F1" points="282,644.375,294,656.375,282,668.375,270,656.375,282,644.375" style="stroke:#181818;stroke-width:0.5;"/><polygon fill="#F1F1F1" points="217,957.5469,347,957.5469,359,969.5469,347,981.5469,217,981.5469,205,969.5469,217,957.5469" style="stroke:#181818;stroke-width:0.5;"/><text fill="#000000" font-family="sans-serif" font-size="11" lengthAdjust="spacing" textLength="130" x="217" y="973.355">for each edge in graph</text><rect fill="none" height="82.2656" style="stroke:#000000;stroke-width:1.5;" width="398" x="83" y="1035.5469"/><path d="M404,1035.5469 L404,1044.8438 L394,1054.8438 L83,1054.8438 " fill="none" style="stroke:#000000;stroke-width:1.5;"/><text fill="#000000" font-family="sans-serif" font-size="14" lengthAdjust="spacing" textLength="311" x="86" y="1049.542">update_incoming_and_outgoing_logic_nodes</text><rect fill="#F1F1F1" height="33.9688" rx="12.5" ry="12.5" style="stroke:#181818;stroke-width:0.5;" width="378" x="93" y="1071.8438"/><text fill="#000000" font-family="sans-serif" font-size="12" lengthAdjust="spacing" textLength="358" x="103" y="1092.9824">update incoming and outgoing logic Nodes of each Node</text><polygon fill="#F1F1F1" points="282,1001.5469,294,1013.5469,282,1025.5469,270,1013.5469,282,1001.5469" style="stroke:#181818;stroke-width:0.5;"/><polygon fill="#F1F1F1" points="205.5,1137.8125,358.5,1137.8125,370.5,1149.8125,358.5,1161.8125,205.5,1161.8125,193.5,1149.8125,205.5,1137.8125" style="stroke:#181818;stroke-width:0.5;"/><text fill="#000000" font-family="sans-serif" font-size="11" lengthAdjust="spacing" textLength="153" x="205.5" y="1153.6206">for each entry in dictionary</text><rect fill="#F1F1F1" height="33.9688" style="stroke:#181818;stroke-width:0.5;" width="438" x="63" y="1274.2148"/><line style="stroke:#181818;stroke-width:0.5;" x1="68" x2="68" y1="1274.2148" y2="1308.1836"/><line style="stroke:#181818;stroke-width:0.5;" x1="496" x2="496" y1="1274.2148" y2="1308.1836"/><text fill="#000000" font-family="sans-serif" font-size="12" lengthAdjust="spacing" textLength="418" x="73" y="1295.3535">call create_node_graph_from_event_graph on LoopEvent subgraph</text><rect fill="#F1F1F1" height="33.9688" rx="12.5" ry="12.5" style="stroke:#181818;stroke-width:0.5;" width="224" x="170" y="1343.1836"/><text fill="#000000" font-family="sans-serif" font-size="12" lengthAdjust="spacing" textLength="204" x="180" y="1364.3223">Add subgraph to SubGraphNode</text><polygon fill="#F1F1F1" points="228.5,1225.8125,335.5,1225.8125,347.5,1237.8125,335.5,1249.8125,228.5,1249.8125,216.5,1237.8125,228.5,1225.8125" style="stroke:#181818;stroke-width:0.5;"/><text fill="#000000" font-family="sans-serif" font-size="11" lengthAdjust="spacing" textLength="23" x="286" y="1260.0229">true</text><text fill="#000000" font-family="sans-serif" font-size="11" lengthAdjust="spacing" textLength="107" x="228.5" y="1241.6206">Event is LoopEvent</text><polygon fill="#F1F1F1" points="282,1397.1523,294,1409.1523,282,1421.1523,270,1409.1523,282,1397.1523" style="stroke:#181818;stroke-width:0.5;"/><polygon fill="#F1F1F1" points="282,1181.8125,294,1193.8125,282,1205.8125,270,1193.8125,282,1181.8125" style="stroke:#181818;stroke-width:0.5;"/><polygon fill="#F1F1F1" points="205.5,1441.1523,358.5,1441.1523,370.5,1453.1523,358.5,1465.1523,205.5,1465.1523,193.5,1453.1523,205.5,1441.1523" style="stroke:#181818;stroke-width:0.5;"/><text fill="#000000" font-family="sans-serif" font-size="11" lengthAdjust="spacing" textLength="153" x="205.5" y="1456.9604">for each entry in dictionary</text><rect fill="#F1F1F1" height="33.9688" rx="12.5" ry="12.5" style="stroke:#181818;stroke-width:0.5;" width="354" x="105" y="1485.1523"/><text fill="#000000" font-family="sans-serif" font-size="12" lengthAdjust="spacing" textLength="334" x="115" y="1506.291">Output directed graph of Nodes and SubGraphNodes</text><ellipse cx="282" cy="1561.1211" fill="none" rx="10" ry="10" style="stroke:#222222;stroke-width:1.5;"/><line style="stroke:#222222;stroke-width:2.5;" x1="275.8128" x2="288.1872" y1="1554.9339" y2="1567.3083"/><line style="stroke:#222222;stroke-width:2.5;" x1="288.1872" x2="275.8128" y1="1554.9339" y2="1567.3083"/><ellipse cx="282" cy="1591.1211" fill="#222222" rx="10" ry="10" style="stroke:#222222;stroke-width:1.0;"/><rect fill="#F1F1F1" height="33.9688" rx="12.5" ry="12.5" style="stroke:#181818;stroke-width:0.5;" width="343" x="110.5" y="1621.1211"/><text fill="#000000" font-family="sans-serif" font-size="12" lengthAdjust="spacing" textLength="323" x="120.5" y="1642.2598">Input directed graph of Nodes and SubGraphNodes</text><rect fill="none" height="731.5234" style="stroke:#000000;stroke-width:1.5;" width="504" x="41.5" y="1665.0898"/><path d="M184.5,1665.0898 L184.5,1674.3867 L174.5,1684.3867 L41.5,1684.3867 " fill="none" style="stroke:#000000;stroke-width:1.5;"/><text fill="#000000" font-family="sans-serif" font-size="14" lengthAdjust="spacing" textLength="133" x="44.5" y="1679.085">walk_nested_graph</text><rect fill="#F1F1F1" height="33.9688" rx="12.5" ry="12.5" style="stroke:#181818;stroke-width:0.5;" width="306" x="129" y="1701.3867"/><text fill="#000000" font-family="sans-serif" font-size="12" lengthAdjust="spacing" textLength="286" x="139" y="1722.5254">create map of SubGraphNodes to PUMLGraph</text><rect fill="#F1F1F1" height="33.9688" rx="12.5" ry="12.5" style="stroke:#181818;stroke-width:0.5;" width="221" x="171.5" y="1755.3555"/><text fill="#000000" font-family="sans-serif" font-size="12" lengthAdjust="spacing" textLength="201" x="181.5" y="1776.4941">get all SubGraphNodes in graph</text><rect fill="#F1F1F1" height="33.9688" rx="12.5" ry="12.5" style="stroke:#181818;stroke-width:0.5;" width="401" x="81.5" y="1853.3242"/><text fill="#000000" font-family="sans-serif" font-size="12" lengthAdjust="spacing" textLength="381" x="91.5" y="1874.4629">call walk_nested_graph on SubGraphNode to get PUMLGraph</text><rect fill="#F1F1F1" height="33.9688" rx="12.5" ry="12.5" style="stroke:#181818;stroke-width:0.5;" width="294" x="135" y="1914.793"/><text fill="#000000" font-family="sans-serif" font-size="12" lengthAdjust="spacing" textLength="274" x="145" y="1935.9316">add SubGraphNode and PUMLGraph to map</text><polygon fill="#F1F1F1" points="282,1809.3242,294,1821.3242,282,1833.3242,270,1821.3242,282,1809.3242" style="stroke:#181818;stroke-width:0.5;"/><polygon fill="#F1F1F1" points="188,1968.7617,376,1968.7617,388,1980.7617,376,1992.7617,188,1992.7617,176,1980.7617,188,1968.7617" style="stroke:#181818;stroke-width:0.5;"/><text fill="#000000" font-family="sans-serif" font-size="11" lengthAdjust="spacing" textLength="188" x="188" y="1984.5698">for each SubGraphNode in graph</text><rect fill="#F1F1F1" height="33.9688" rx="12.5" ry="12.5" style="stroke:#181818;stroke-width:0.5;" width="461" x="51.5" y="2012.7617"/><text fill="#000000" font-family="sans-serif" font-size="12" lengthAdjust="spacing" textLength="441" x="61.5" y="2033.9004">call create_puml_graph_from_node_class_graph with input Node graph</text><rect fill="none" height="239.8828" style="stroke:#000000;stroke-width:1.5;" width="459" x="52.5" y="2100.7305"/><path d="M273.5,2100.7305 L273.5,2110.0273 L263.5,2120.0273 L52.5,2120.0273 " fill="none" style="stroke:#000000;stroke-width:1.5;"/><text fill="#000000" font-family="sans-serif" font-size="14" lengthAdjust="spacing" textLength="211" x="55.5" y="2114.7256">add_sub_graph_to_puml_node</text><rect fill="#F1F1F1" height="33.9688" rx="12.5" ry="12.5" style="stroke:#181818;stroke-width:0.5;" width="439" x="62.5" y="2137.0273"/><text fill="#000000" font-family="sans-serif" font-size="12" lengthAdjust="spacing" textLength="419" x="72.5" y="2158.166">find all PUMLNodes in PUMLGraph corresponding to SubGraphNode</text><rect fill="#F1F1F1" height="33.9688" rx="12.5" ry="12.5" style="stroke:#181818;stroke-width:0.5;" width="206" x="179" y="2250.6445"/><text fill="#000000" font-family="sans-serif" font-size="12" lengthAdjust="spacing" textLength="186" x="189" y="2271.7832">add PUMLGraph to PUMLNode</text><polygon fill="#F1F1F1" points="282,2190.9961,294,2202.9961,282,2214.9961,270,2202.9961,282,2190.9961" style="stroke:#181818;stroke-width:0.5;"/><polygon fill="#F1F1F1" points="201.5,2304.6133,362.5,2304.6133,374.5,2316.6133,362.5,2328.6133,201.5,2328.6133,189.5,2316.6133,201.5,2304.6133" style="stroke:#181818;stroke-width:0.5;"/><text fill="#000000" font-family="sans-serif" font-size="11" lengthAdjust="spacing" textLength="161" x="201.5" y="2320.4214">for each PUMLNode in graph</text><polygon fill="#F1F1F1" points="282,2066.7305,294,2078.7305,282,2090.7305,270,2078.7305,282,2066.7305" style="stroke:#181818;stroke-width:0.5;"/><polygon fill="#F1F1F1" points="220.5,2360.6133,343.5,2360.6133,355.5,2372.6133,343.5,2384.6133,220.5,2384.6133,208.5,2372.6133,220.5,2360.6133" style="stroke:#181818;stroke-width:0.5;"/><text fill="#000000" font-family="sans-serif" font-size="11" lengthAdjust="spacing" textLength="123" x="220.5" y="2376.4214">for each entry in map</text><ellipse cx="282" cy="2426.6133" fill="none" rx="10" ry="10" style="stroke:#222222;stroke-width:1.5;"/><line style="stroke:#222222;stroke-width:2.5;" x1="275.8128" x2="288.1872" y1="2420.4261" y2="2432.8005"/><line style="stroke:#222222;stroke-width:2.5;" x1="288.1872" x2="275.8128" y1="2420.4261" y2="2432.8005"/><line style="stroke:#181818;stroke-width:1.0;" x1="282" x2="282" y1="30" y2="50"/><polygon fill="#181818" points="278,40,282,50,286,40,282,44" style="stroke:#181818;stroke-width:1.0;"/><line style="stroke:#181818;stroke-width:1.0;" x1="282" x2="282" y1="164.2344" y2="184.2344"/><polygon fill="#181818" points="278,174.2344,282,184.2344,286,174.2344,282,178.2344" style="stroke:#181818;stroke-width:1.0;"/><line style="stroke:#181818;stroke-width:1.0;" x1="282" x2="282" y1="218.2031" y2="238.2031"/><polygon fill="#181818" points="278,228.2031,282,238.2031,286,228.2031,282,232.2031" style="stroke:#181818;stroke-width:1.0;"/><line style="stroke:#181818;stroke-width:1.0;" x1="216.5" x2="164" y1="374.4688" y2="374.4688"/><line style="stroke:#181818;stroke-width:1.0;" x1="164" x2="164" y1="374.4688" y2="396.4688"/><polygon fill="#181818" points="160,386.4688,164,396.4688,168,386.4688,164,390.4688" style="stroke:#181818;stroke-width:1.0;"/><line style="stroke:#181818;stroke-width:1.0;" x1="347.5" x2="400" y1="374.4688" y2="374.4688"/><line style="stroke:#181818;stroke-width:1.0;" x1="400" x2="400" y1="374.4688" y2="396.4688"/><polygon fill="#181818" points="396,386.4688,400,396.4688,404,386.4688,400,390.4688" style="stroke:#181818;stroke-width:1.0;"/><line style="stroke:#181818;stroke-width:1.0;" x1="164" x2="164" y1="430.4375" y2="448.4375"/><line style="stroke:#181818;stroke-width:1.0;" x1="164" x2="270" y1="448.4375" y2="448.4375"/><polygon fill="#181818" points="260,444.4375,270,448.4375,260,452.4375,264,448.4375" style="stroke:#181818;stroke-width:1.0;"/><line style="stroke:#181818;stroke-width:1.0;" x1="400" x2="400" y1="430.4375" y2="448.4375"/><line style="stroke:#181818;stroke-width:1.0;" x1="400" x2="294" y1="448.4375" y2="448.4375"/><polygon fill="#181818" points="304,444.4375,294,448.4375,304,452.4375,300,448.4375" style="stroke:#181818;stroke-width:1.0;"/><line style="stroke:#181818;stroke-width:1.0;" x1="282" x2="282" y1="460.4375" y2="492.4375"/><polygon fill="#181818" points="278,482.4375,282,492.4375,286,482.4375,282,486.4375" style="stroke:#181818;stroke-width:1.0;"/><line style="stroke:#181818;stroke-width:1.0;" x1="282" x2="282" y1="316.1719" y2="362.4688"/><polygon fill="#181818" points="278,352.4688,282,362.4688,286,352.4688,282,356.4688" style="stroke:#181818;stroke-width:1.0;"/><line style="stroke:#181818;stroke-width:1.0;" x1="360.5" x2="517" y1="558.4063" y2="558.4063"/><polygon fill="#181818" points="513,447.7891,517,437.7891,521,447.7891,517,443.7891" style="stroke:#181818;stroke-width:1.0;"/><line style="stroke:#181818;stroke-width:1.0;" x1="517" x2="517" y1="304.1719" y2="558.4063"/><line style="stroke:#181818;stroke-width:1.0;" x1="517" x2="294" y1="304.1719" y2="304.1719"/><polygon fill="#181818" points="304,300.1719,294,304.1719,304,308.1719,300,304.1719" style="stroke:#181818;stroke-width:1.0;"/><line style="stroke:#181818;stroke-width:1.0;" x1="282" x2="282" y1="526.4063" y2="546.4063"/><polygon fill="#181818" points="278,536.4063,282,546.4063,286,536.4063,282,540.4063" style="stroke:#181818;stroke-width:1.0;"/><line style="stroke:#181818;stroke-width:1.0;" x1="282" x2="282" y1="272.1719" y2="292.1719"/><polygon fill="#181818" points="278,282.1719,282,292.1719,286,282.1719,282,286.1719" style="stroke:#181818;stroke-width:1.0;"/><line style="stroke:#181818;stroke-width:1.0;" x1="282" x2="282" y1="570.4063" y2="590.4063"/><polygon fill="#181818" points="278,580.4063,282,590.4063,286,580.4063,282,584.4063" style="stroke:#181818;stroke-width:1.0;"/><line style="stroke:#181818;stroke-width:1.0;" x1="282" x2="282" y1="802.6094" y2="837.6094"/><polygon fill="#181818" points="278,827.6094,282,837.6094,286,827.6094,282,831.6094" style="stroke:#181818;stroke-width:1.0;"/><line style="stroke:#181818;stroke-width:1.0;" x1="282" x2="282" y1="871.5781" y2="891.5781"/><polygon fill="#181818" points="278,881.5781,282,891.5781,286,881.5781,282,885.5781" style="stroke:#181818;stroke-width:1.0;"/><line style="stroke:#181818;stroke-width:1.0;" x1="282" x2="282" y1="722.3438" y2="768.6406"/><polygon fill="#181818" points="278,758.6406,282,768.6406,286,758.6406,282,762.6406" style="stroke:#181818;stroke-width:1.0;"/><line style="stroke:#181818;stroke-width:1.0;" x1="282" x2="282" y1="668.375" y2="688.375"/><polygon fill="#181818" points="278,678.375,282,688.375,286,678.375,282,682.375" style="stroke:#181818;stroke-width:1.0;"/><line style="stroke:#181818;stroke-width:1.0;" x1="359" x2="468.5" y1="969.5469" y2="969.5469"/><polygon fill="#181818" points="464.5,821.9609,468.5,811.9609,472.5,821.9609,468.5,817.9609" style="stroke:#181818;stroke-width:1.0;"/><line style="stroke:#181818;stroke-width:1.0;" x1="468.5" x2="468.5" y1="656.375" y2="969.5469"/><line style="stroke:#181818;stroke-width:1.0;" x1="468.5" x2="294" y1="656.375" y2="656.375"/><polygon fill="#181818" points="304,652.375,294,656.375,304,660.375,300,656.375" style="stroke:#181818;stroke-width:1.0;"/><line style="stroke:#181818;stroke-width:1.0;" x1="282" x2="282" y1="925.5469" y2="957.5469"/><polygon fill="#181818" points="278,947.5469,282,957.5469,286,947.5469,282,951.5469" style="stroke:#181818;stroke-width:1.0;"/><line style="stroke:#181818;stroke-width:1.0;" x1="282" x2="282" y1="624.375" y2="644.375"/><polygon fill="#181818" points="278,634.375,282,644.375,286,634.375,282,638.375" style="stroke:#181818;stroke-width:1.0;"/><line style="stroke:#181818;stroke-width:1.0;" x1="282" x2="282" y1="1025.5469" y2="1071.8438"/><polygon fill="#181818" points="278,1061.8438,282,1071.8438,286,1061.8438,282,1065.8438" style="stroke:#181818;stroke-width:1.0;"/><line style="stroke:#181818;stroke-width:1.0;" x1="370.5" x2="493" y1="1149.8125" y2="1149.8125"/><polygon fill="#181818" points="489,1090.6797,493,1080.6797,497,1090.6797,493,1086.6797" style="stroke:#181818;stroke-width:1.0;"/><line style="stroke:#181818;stroke-width:1.0;" x1="493" x2="493" y1="1013.5469" y2="1149.8125"/><line style="stroke:#181818;stroke-width:1.0;" x1="493" x2="294" y1="1013.5469" y2="1013.5469"/><polygon fill="#181818" points="304,1009.5469,294,1013.5469,304,1017.5469,300,1013.5469" style="stroke:#181818;stroke-width:1.0;"/><line style="stroke:#181818;stroke-width:1.0;" x1="282" x2="282" y1="1105.8125" y2="1137.8125"/><polygon fill="#181818" points="278,1127.8125,282,1137.8125,286,1127.8125,282,1131.8125" style="stroke:#181818;stroke-width:1.0;"/><line style="stroke:#181818;stroke-width:1.0;" x1="282" x2="282" y1="981.5469" y2="1001.5469"/><polygon fill="#181818" points="278,991.5469,282,1001.5469,286,991.5469,282,995.5469" style="stroke:#181818;stroke-width:1.0;"/><line style="stroke:#181818;stroke-width:1.0;" x1="282" x2="282" y1="1308.1836" y2="1343.1836"/><polygon fill="#181818" points="278,1333.1836,282,1343.1836,286,1333.1836,282,1337.1836" style="stroke:#181818;stroke-width:1.0;"/><line style="stroke:#181818;stroke-width:1.0;" x1="282" x2="282" y1="1249.8125" y2="1274.2148"/><polygon fill="#181818" points="278,1264.2148,282,1274.2148,286,1264.2148,282,1268.2148" style="stroke:#181818;stroke-width:1.0;"/><line style="stroke:#181818;stroke-width:1.0;" x1="347.5" x2="511" y1="1237.8125" y2="1237.8125"/><polygon fill="#181818" points="507,1315.6836,511,1325.6836,515,1315.6836,511,1319.6836" style="stroke:#181818;stroke-width:1.0;"/><line style="stroke:#181818;stroke-width:1.0;" x1="511" x2="511" y1="1237.8125" y2="1409.1523"/><line style="stroke:#181818;stroke-width:1.0;" x1="511" x2="294" y1="1409.1523" y2="1409.1523"/><polygon fill="#181818" points="304,1405.1523,294,1409.1523,304,1413.1523,300,1409.1523" style="stroke:#181818;stroke-width:1.0;"/><line style="stroke:#181818;stroke-width:1.0;" x1="282" x2="282" y1="1377.1523" y2="1397.1523"/><polygon fill="#181818" points="278,1387.1523,282,1397.1523,286,1387.1523,282,1391.1523" style="stroke:#181818;stroke-width:1.0;"/><line style="stroke:#181818;stroke-width:1.0;" x1="282" x2="282" y1="1205.8125" y2="1225.8125"/><polygon fill="#181818" points="278,1215.8125,282,1225.8125,286,1215.8125,282,1219.8125" style="stroke:#181818;stroke-width:1.0;"/><line style="stroke:#181818;stroke-width:1.0;" x1="370.5" x2="535" y1="1453.1523" y2="1453.1523"/><polygon fill="#181818" points="531,1335.6836,535,1325.6836,539,1335.6836,535,1331.6836" style="stroke:#181818;stroke-width:1.0;"/><line style="stroke:#181818;stroke-width:1.0;" x1="535" x2="535" y1="1193.8125" y2="1453.1523"/><line style="stroke:#181818;stroke-width:1.0;" x1="535" x2="294" y1="1193.8125" y2="1193.8125"/><polygon fill="#181818" points="304,1189.8125,294,1193.8125,304,1197.8125,300,1193.8125" style="stroke:#181818;stroke-width:1.0;"/><line style="stroke:#181818;stroke-width:1.0;" x1="282" x2="282" y1="1421.1523" y2="1441.1523"/><polygon fill="#181818" points="278,1431.1523,282,1441.1523,286,1431.1523,282,1435.1523" style="stroke:#181818;stroke-width:1.0;"/><line style="stroke:#181818;stroke-width:1.0;" x1="282" x2="282" y1="1161.8125" y2="1181.8125"/><polygon fill="#181818" points="278,1171.8125,282,1181.8125,286,1171.8125,282,1175.8125" style="stroke:#181818;stroke-width:1.0;"/><line style="stroke:#181818;stroke-width:1.0;" x1="282" x2="282" y1="1465.1523" y2="1485.1523"/><polygon fill="#181818" points="278,1475.1523,282,1485.1523,286,1475.1523,282,1479.1523" style="stroke:#181818;stroke-width:1.0;"/><line style="stroke:#181818;stroke-width:1.0;" x1="282" x2="282" y1="83.9688" y2="130.2656"/><polygon fill="#181818" points="278,120.2656,282,130.2656,286,120.2656,282,124.2656" style="stroke:#181818;stroke-width:1.0;"/><line style="stroke:#181818;stroke-width:1.0;" x1="282" x2="282" y1="1519.1211" y2="1551.1211"/><polygon fill="#181818" points="278,1541.1211,282,1551.1211,286,1541.1211,282,1545.1211" style="stroke:#181818;stroke-width:1.0;"/><line style="stroke:#181818;stroke-width:1.0;" x1="282" x2="282" y1="1601.1211" y2="1621.1211"/><polygon fill="#181818" points="278,1611.1211,282,1621.1211,286,1611.1211,282,1615.1211" style="stroke:#181818;stroke-width:1.0;"/><line style="stroke:#181818;stroke-width:1.0;" x1="282" x2="282" y1="1735.3555" y2="1755.3555"/><polygon fill="#181818" points="278,1745.3555,282,1755.3555,286,1745.3555,282,1749.3555" style="stroke:#181818;stroke-width:1.0;"/><line style="stroke:#181818;stroke-width:1.0;" x1="282" x2="282" y1="1887.293" y2="1914.793"/><polygon fill="#181818" points="278,1904.793,282,1914.793,286,1904.793,282,1908.793" style="stroke:#181818;stroke-width:1.0;"/><line style="stroke:#181818;stroke-width:1.0;" x1="282" x2="282" y1="1833.3242" y2="1853.3242"/><polygon fill="#181818" points="278,1843.3242,282,1853.3242,286,1843.3242,282,1847.3242" style="stroke:#181818;stroke-width:1.0;"/><line style="stroke:#181818;stroke-width:1.0;" x1="388" x2="494.5" y1="1980.7617" y2="1980.7617"/><polygon fill="#181818" points="490.5,1907.293,494.5,1897.293,498.5,1907.293,494.5,1903.293" style="stroke:#181818;stroke-width:1.0;"/><line style="stroke:#181818;stroke-width:1.0;" x1="494.5" x2="494.5" y1="1821.3242" y2="1980.7617"/><line style="stroke:#181818;stroke-width:1.0;" x1="494.5" x2="294" y1="1821.3242" y2="1821.3242"/><polygon fill="#181818" points="304,1817.3242,294,1821.3242,304,1825.3242,300,1821.3242" style="stroke:#181818;stroke-width:1.0;"/><line style="stroke:#181818;stroke-width:1.0;" x1="282" x2="282" y1="1948.7617" y2="1968.7617"/><polygon fill="#181818" points="278,1958.7617,282,1968.7617,286,1958.7617,282,1962.7617" style="stroke:#181818;stroke-width:1.0;"/><line style="stroke:#181818;stroke-width:1.0;" x1="282" x2="282" y1="1789.3242" y2="1809.3242"/><polygon fill="#181818" points="278,1799.3242,282,1809.3242,286,1799.3242,282,1803.3242" style="stroke:#181818;stroke-width:1.0;"/><line style="stroke:#181818;stroke-width:1.0;" x1="282" x2="282" y1="1992.7617" y2="2012.7617"/><polygon fill="#181818" points="278,2002.7617,282,2012.7617,286,2002.7617,282,2006.7617" style="stroke:#181818;stroke-width:1.0;"/><line style="stroke:#181818;stroke-width:1.0;" x1="282" x2="282" y1="2214.9961" y2="2250.6445"/><polygon fill="#181818" points="278,2240.6445,282,2250.6445,286,2240.6445,282,2244.6445" style="stroke:#181818;stroke-width:1.0;"/><line style="stroke:#181818;stroke-width:1.0;" x1="374.5" x2="397" y1="2316.6133" y2="2316.6133"/><polygon fill="#181818" points="393,2277.6289,397,2267.6289,401,2277.6289,397,2273.6289" style="stroke:#181818;stroke-width:1.0;"/><line style="stroke:#181818;stroke-width:1.0;" x1="397" x2="397" y1="2202.9961" y2="2316.6133"/><line style="stroke:#181818;stroke-width:1.0;" x1="397" x2="294" y1="2202.9961" y2="2202.9961"/><polygon fill="#181818" points="304,2198.9961,294,2202.9961,304,2206.9961,300,2202.9961" style="stroke:#181818;stroke-width:1.0;"/><line style="stroke:#181818;stroke-width:1.0;" x1="282" x2="282" y1="2284.6133" y2="2304.6133"/><polygon fill="#181818" points="278,2294.6133,282,2304.6133,286,2294.6133,282,2298.6133" style="stroke:#181818;stroke-width:1.0;"/><line style="stroke:#181818;stroke-width:1.0;" x1="282" x2="282" y1="2170.9961" y2="2190.9961"/><polygon fill="#181818" points="278,2180.9961,282,2190.9961,286,2180.9961,282,2184.9961" style="stroke:#181818;stroke-width:1.0;"/><line style="stroke:#181818;stroke-width:1.0;" x1="282" x2="282" y1="2090.7305" y2="2137.0273"/><polygon fill="#181818" points="278,2127.0273,282,2137.0273,286,2127.0273,282,2131.0273" style="stroke:#181818;stroke-width:1.0;"/><line style="stroke:#181818;stroke-width:1.0;" x1="355.5" x2="523.5" y1="2372.6133" y2="2372.6133"/><polygon fill="#181818" points="519.5,2234.9961,523.5,2224.9961,527.5,2234.9961,523.5,2230.9961" style="stroke:#181818;stroke-width:1.0;"/><line style="stroke:#181818;stroke-width:1.0;" x1="523.5" x2="523.5" y1="2078.7305" y2="2372.6133"/><line style="stroke:#181818;stroke-width:1.0;" x1="523.5" x2="294" y1="2078.7305" y2="2078.7305"/><polygon fill="#181818" points="304,2074.7305,294,2078.7305,304,2082.7305,300,2078.7305" style="stroke:#181818;stroke-width:1.0;"/><line style="stroke:#181818;stroke-width:1.0;" x1="282" x2="282" y1="2328.6133" y2="2360.6133"/><polygon fill="#181818" points="278,2350.6133,282,2360.6133,286,2350.6133,282,2354.6133" style="stroke:#181818;stroke-width:1.0;"/><line style="stroke:#181818;stroke-width:1.0;" x1="282" x2="282" y1="2046.7305" y2="2066.7305"/><polygon fill="#181818" points="278,2056.7305,282,2066.7305,286,2056.7305,282,2060.7305" style="stroke:#181818;stroke-width:1.0;"/><line style="stroke:#181818;stroke-width:1.0;" x1="282" x2="282" y1="1655.0898" y2="1701.3867"/><polygon fill="#181818" points="278,1691.3867,282,1701.3867,286,1691.3867,282,1695.3867" style="stroke:#181818;stroke-width:1.0;"/><line style="stroke:#181818;stroke-width:1.0;" x1="282" x2="282" y1="2384.6133" y2="2416.6133"/><polygon fill="#181818" points="278,2406.6133,282,2416.6133,286,2406.6133,282,2410.6133" style="stroke:#181818;stroke-width:1.0;"/><!--SRC=[dLNBRjim4BptAnOvsQVUdLDH5461z06qFGkCH4b4P58WgHf5ct_lxb8lIhJan1TRD6TsP_OX003dXVNly0USFkksyr0eAtCl2wYiQ6im9NpwBRLt87G1ZyQq_7ZFa1QnoYkZuIwtKdYPQLF8Z95PQSqvatGv7Dp1NmPnh70z4Umh4eHOFxgd1phba_i4DAV8mlu1R-0isf0dFH1Y1gYa1z4qWmwbGxJfXfKjKewF6yecJNCrmqULS0X9A3TPTGHVImq7RpjvN64umuz1qbmnKAYbt_EFR9o4GodmQvjrOhl6f0jLHgSlqTFfGr4mo_ieGJHwgi7IJBZKgg7yZ0Kfyhelpk3zSLqTMLIIYnDkxfTehkzdrpQzIEA1pYbT9TDR5BTh2ofkwDYBydMeioU-L8b7Bq94zY3PmckRJo4McCvNXj8BhOu0FA6e0vQfh-ELpiqvmYkz0t_PgmwRjYxEzc3qtWtvP3YqsI0kQqobSZRJ9NrSYg697vrXyAIFKuo7-ZPLskDsG5bJ8sngUylydd9gtltj1-ZOI0ckU-BJV-a66_wc_fhFNAm_djktU73wrldqpjzSmy5u3C_VDxn1Djbc7NKHpNEcfKFmzNS6hNhaZ9Z8gE-_lZm-n5jZN2xnvPlU0A6mguoeZiirI54IqPb55B5eTc6ytB-wThTdn91OelCcRBjpCsz2Rigy4Sxr2cZD8GcLYlbUzJP4FHcsPn_0cn2EOYJ7l5Gebv8ZoQFxa_xSM2jTQx2LSUuts_rARf7JaR53o6iqAvS7GCBXr-qRBEandfJ_]--></g></svg>