<?xml version="1.0" encoding="UTF-8" standalone="no"?>
<!DOCTYPE svg PUBLIC "-//W3C//DTD SVG 1.1//EN"
 "http://www.w3.org/Graphics/SVG/1.1/DTD/svg11.dtd">
<!-- Generated by graphviz version 8.0.5 (20230506.1012)
 -->
<!-- Title: G Pages: 1 -->
<svg width="903pt" height="268pt"
 viewBox="0.00 0.00 903.26 268.25" xmlns="http://www.w3.org/2000/svg" xmlns:xlink="http://www.w3.org/1999/xlink">
<g id="graph0" class="graph" transform="scale(1 1) rotate(0) translate(4 264.25)">
<title>G</title>
<polygon fill="white" stroke="none" points="-4,4 -4,-264.25 899.26,-264.25 899.26,4 -4,4"/>
<!-- create_node_graph_from_event_graph -->
<g id="node1" class="node">
<title>create_node_graph_from_event_graph</title>
<ellipse fill="none" stroke="black" cx="201.15" cy="-72" rx="201.15" ry="18"/>
<text text-anchor="middle" x="201.15" y="-67.33" font-family="Times,serif" font-size="14.00">create_node_graph_from_event_graph</text>
</g>
<!-- create_node_graph_from_event_graph&#45;&gt;create_node_graph_from_event_graph -->
<g id="edge4" class="edge">
<title>create_node_graph_from_event_graph&#45;&gt;create_node_graph_from_event_graph</title>
<path fill="none" stroke="black" d="M161.66,-89.78C154.95,-99.31 168.12,-108 201.15,-108 220.76,-108 233.37,-104.94 238.97,-100.45"/>
<polygon fill="black" stroke="black" points="242.55,-101.2 240.63,-90.78 235.64,-100.12 242.55,-101.2"/>
<text text-anchor="middle" x="201.15" y="-111.95" font-family="Times,serif" font-size="14.00">recursion</text>
</g>
<!-- create_node_from_event -->
<g id="node2" class="node">
<title>create_node_from_event</title>
<ellipse fill="none" stroke="black" cx="667.28" cy="-126" rx="132.76" ry="18"/>
<text text-anchor="middle" x="667.28" y="-121.33" font-family="Times,serif" font-size="14.00">create_node_from_event</text>
</g>
<!-- create_node_graph_from_event_graph&#45;&gt;create_node_from_event -->
<g id="edge1" class="edge">
<title>create_node_graph_from_event_graph&#45;&gt;create_node_from_event</title>
<path fill="none" stroke="black" d="M326.53,-86.47C397.38,-94.72 485.45,-104.96 554.17,-112.96"/>
<polygon fill="black" stroke="black" points="553.69,-116.54 564.02,-114.22 554.5,-109.59 553.69,-116.54"/>
</g>
<!-- update_graph_with_node_tuple -->
<g id="node3" class="node">
<title>update_graph_with_node_tuple</title>
<ellipse fill="none" stroke="black" cx="667.28" cy="-72" rx="166.43" ry="18"/>
<text text-anchor="middle" x="667.28" y="-67.33" font-family="Times,serif" font-size="14.00">update_graph_with_node_tuple</text>
</g>
<!-- create_node_graph_from_event_graph&#45;&gt;update_graph_with_node_tuple -->
<g id="edge2" class="edge">
<title>create_node_graph_from_event_graph&#45;&gt;update_graph_with_node_tuple</title>
<path fill="none" stroke="black" d="M402.69,-72C431.6,-72 461.18,-72 489.58,-72"/>
<polygon fill="black" stroke="black" points="489.41,-75.5 499.41,-72 489.41,-68.5 489.41,-75.5"/>
</g>
<!-- update_outgoing_logic_nodes -->
<g id="node4" class="node">
<title>update_outgoing_logic_nodes</title>
<ellipse fill="none" stroke="black" cx="667.28" cy="-18" rx="157.48" ry="18"/>
<text text-anchor="middle" x="667.28" y="-13.32" font-family="Times,serif" font-size="14.00">update_outgoing_logic_nodes</text>
</g>
<!-- create_node_graph_from_event_graph&#45;&gt;update_outgoing_logic_nodes -->
<g id="edge3" class="edge">
<title>create_node_graph_from_event_graph&#45;&gt;update_outgoing_logic_nodes</title>
<path fill="none" stroke="black" d="M326.53,-57.53C394.07,-49.67 477.25,-39.99 544.4,-32.18"/>
<polygon fill="black" stroke="black" points="544.51,-35.57 554.04,-30.94 543.7,-28.62 544.51,-35.57"/>
</g>
<!-- walk_nested_graph -->
<g id="node5" class="node">
<title>walk_nested_graph</title>
<ellipse fill="none" stroke="black" cx="201.15" cy="-207" rx="106.98" ry="18"/>
<text text-anchor="middle" x="201.15" y="-202.32" font-family="Times,serif" font-size="14.00">walk_nested_graph</text>
</g>
<!-- walk_nested_graph&#45;&gt;walk_nested_graph -->
<g id="edge7" class="edge">
<title>walk_nested_graph&#45;&gt;walk_nested_graph</title>
<path fill="none" stroke="black" d="M162.23,-224.04C154.28,-233.86 167.26,-243 201.15,-243 221.8,-243 234.69,-239.61 239.8,-234.73"/>
<polygon fill="black" stroke="black" points="243.32,-235.12 240.07,-225.04 236.32,-234.95 243.32,-235.12"/>
<text text-anchor="middle" x="201.15" y="-246.95" font-family="Times,serif" font-size="14.00">recursion</text>
</g>
<!-- create_puml_graph_from_node_class_graph -->
<g id="node6" class="node">
<title>create_puml_graph_from_node_class_graph</title>
<ellipse fill="none" stroke="black" cx="667.28" cy="-234" rx="227.98" ry="18"/>
<text text-anchor="middle" x="667.28" y="-229.32" font-family="Times,serif" font-size="14.00">create_puml_graph_from_node_class_graph</text>
</g>
<!-- walk_nested_graph&#45;&gt;create_puml_graph_from_node_class_graph -->
<g id="edge5" class="edge">
<title>walk_nested_graph&#45;&gt;create_puml_graph_from_node_class_graph</title>
<path fill="none" stroke="black" d="M302.86,-212.86C352.05,-215.72 412.99,-219.27 470.81,-222.63"/>
<polygon fill="black" stroke="black" points="470.39,-226.17 480.57,-223.25 470.79,-219.18 470.39,-226.17"/>
</g>
<!-- add_sub_graph_to_puml_node -->
<g id="node7" class="node">
<title>add_sub_graph_to_puml_node</title>
<ellipse fill="none" stroke="black" cx="667.28" cy="-180" rx="160.11" ry="18"/>
<text text-anchor="middle" x="667.28" y="-175.32" font-family="Times,serif" font-size="14.00">add_sub_graph_to_puml_node</text>
</g>
<!-- walk_nested_graph&#45;&gt;add_sub_graph_to_puml_node -->
<g id="edge6" class="edge">
<title>walk_nested_graph&#45;&gt;add_sub_graph_to_puml_node</title>
<path fill="none" stroke="black" d="M302.86,-201.14C364.35,-197.56 444.2,-192.92 513.38,-188.89"/>
<polygon fill="black" stroke="black" points="513.17,-192.35 522.95,-188.28 512.76,-185.37 513.17,-192.35"/>
</g>
</g>
</svg>
