<?xml version="1.0" encoding="UTF-8" standalone="no"?>
<!DOCTYPE svg PUBLIC "-//W3C//DTD SVG 1.1//EN"
 "http://www.w3.org/Graphics/SVG/1.1/DTD/svg11.dtd">
<!-- Generated by graphviz version 8.0.5 (20230506.1012)
 -->
<!-- Title: G Pages: 1 -->
<svg width="910pt" height="268pt"
 viewBox="0.00 0.00 909.57 268.25" xmlns="http://www.w3.org/2000/svg" xmlns:xlink="http://www.w3.org/1999/xlink">
<g id="graph0" class="graph" transform="scale(1 1) rotate(0) translate(4 264.25)">
<title>G</title>
<polygon fill="white" stroke="none" points="-4,4 -4,-264.25 905.57,-264.25 905.57,4 -4,4"/>
<!-- create_node_graph_from_event_graph -->
<g id="node1" class="node">
<title>create_node_graph_from_event_graph</title>
<ellipse fill="none" stroke="black" cx="201.15" cy="-72" rx="201.15" ry="18"/>
<text text-anchor="middle" x="201.15" y="-67.33" font-family="Times,serif" font-size="14.00">create_node_graph_from_event_graph</text>
</g>
<!-- create_node_graph_from_event_graph&#45;&gt;create_node_graph_from_event_graph -->
<g id="edge4" class="edge">
<title>create_node_graph_from_event_graph&#45;&gt;create_node_graph_from_event_graph</title>
<path fill="none" stroke="black" d="M161.66,-89.78C154.95,-99.31 168.12,-108 201.15,-108 220.76,-108 233.37,-104.94 238.97,-100.45"/>
<polygon fill="black" stroke="black" points="242.55,-101.2 240.63,-90.78 235.64,-100.12 242.55,-101.2"/>
<text text-anchor="middle" x="201.15" y="-111.95" font-family="Times,serif" font-size="14.00">recursion</text>
</g>
<!-- create_node_from_event -->
<g id="node2" class="node">
<title>create_node_from_event</title>
<ellipse fill="none" stroke="black" cx="670.44" cy="-126" rx="132.76" ry="18"/>
<text text-anchor="middle" x="670.44" y="-121.33" font-family="Times,serif" font-size="14.00">create_node_from_event</text>
</g>
<!-- create_node_graph_from_event_graph&#45;&gt;create_node_from_event -->
<g id="edge1" class="edge">
<title>create_node_graph_from_event_graph&#45;&gt;create_node_from_event</title>
<path fill="none" stroke="black" d="M327.07,-86.44C398.68,-94.71 487.84,-105.01 557.22,-113.03"/>
<polygon fill="black" stroke="black" points="556.41,-116.58 566.74,-114.25 557.21,-109.62 556.41,-116.58"/>
</g>
<!-- update_graph_with_node_tuple -->
<g id="node3" class="node">
<title>update_graph_with_node_tuple</title>
<ellipse fill="none" stroke="black" cx="670.44" cy="-72" rx="166.43" ry="18"/>
<text text-anchor="middle" x="670.44" y="-67.33" font-family="Times,serif" font-size="14.00">update_graph_with_node_tuple</text>
</g>
<!-- create_node_graph_from_event_graph&#45;&gt;update_graph_with_node_tuple -->
<g id="edge2" class="edge">
<title>create_node_graph_from_event_graph&#45;&gt;update_graph_with_node_tuple</title>
<path fill="none" stroke="black" d="M402.69,-72C432.68,-72 463.4,-72 492.84,-72"/>
<polygon fill="black" stroke="black" points="492.62,-75.5 502.62,-72 492.62,-68.5 492.62,-75.5"/>
</g>
<!-- update_incoming_and_outgoing_logic_nodes -->
<g id="node4" class="node">
<title>update_incoming_and_outgoing_logic_nodes</title>
<ellipse fill="none" stroke="black" cx="670.44" cy="-18" rx="231.14" ry="18"/>
<text text-anchor="middle" x="670.44" y="-13.32" font-family="Times,serif" font-size="14.00">update_incoming_and_outgoing_logic_nodes</text>
</g>
<!-- create_node_graph_from_event_graph&#45;&gt;update_incoming_and_outgoing_logic_nodes -->
<g id="edge3" class="edge">
<title>create_node_graph_from_event_graph&#45;&gt;update_incoming_and_outgoing_logic_nodes</title>
<path fill="none" stroke="black" d="M327.07,-57.56C388.91,-50.42 463.84,-41.76 527.82,-34.37"/>
<polygon fill="black" stroke="black" points="527.86,-37.77 537.4,-33.14 527.06,-30.81 527.86,-37.77"/>
</g>
<!-- walk_nested_graph -->
<g id="node5" class="node">
<title>walk_nested_graph</title>
<ellipse fill="none" stroke="black" cx="201.15" cy="-207" rx="106.98" ry="18"/>
<text text-anchor="middle" x="201.15" y="-202.32" font-family="Times,serif" font-size="14.00">walk_nested_graph</text>
</g>
<!-- walk_nested_graph&#45;&gt;walk_nested_graph -->
<g id="edge7" class="edge">
<title>walk_nested_graph&#45;&gt;walk_nested_graph</title>
<path fill="none" stroke="black" d="M162.23,-224.04C154.28,-233.86 167.26,-243 201.15,-243 221.8,-243 234.69,-239.61 239.8,-234.73"/>
<polygon fill="black" stroke="black" points="243.32,-235.12 240.07,-225.04 236.32,-234.95 243.32,-235.12"/>
<text text-anchor="middle" x="201.15" y="-246.95" font-family="Times,serif" font-size="14.00">recursion</text>
</g>
<!-- create_puml_graph_from_node_class_graph -->
<g id="node6" class="node">
<title>create_puml_graph_from_node_class_graph</title>
<ellipse fill="none" stroke="black" cx="670.44" cy="-234" rx="227.98" ry="18"/>
<text text-anchor="middle" x="670.44" y="-229.32" font-family="Times,serif" font-size="14.00">create_puml_graph_from_node_class_graph</text>
</g>
<!-- walk_nested_graph&#45;&gt;create_puml_graph_from_node_class_graph -->
<g id="edge5" class="edge">
<title>walk_nested_graph&#45;&gt;create_puml_graph_from_node_class_graph</title>
<path fill="none" stroke="black" d="M302.97,-212.83C352.85,-215.71 414.83,-219.29 473.55,-222.68"/>
<polygon fill="black" stroke="black" points="473.28,-226.23 483.47,-223.31 473.69,-219.24 473.28,-226.23"/>
</g>
<!-- add_sub_graph_to_puml_node -->
<g id="node7" class="node">
<title>add_sub_graph_to_puml_node</title>
<ellipse fill="none" stroke="black" cx="670.44" cy="-180" rx="160.11" ry="18"/>
<text text-anchor="middle" x="670.44" y="-175.32" font-family="Times,serif" font-size="14.00">add_sub_graph_to_puml_node</text>
</g>
<!-- walk_nested_graph&#45;&gt;add_sub_graph_to_puml_node -->
<g id="edge6" class="edge">
<title>walk_nested_graph&#45;&gt;add_sub_graph_to_puml_node</title>
<path fill="none" stroke="black" d="M302.97,-201.17C365.11,-197.58 446.02,-192.91 516.01,-188.87"/>
<polygon fill="black" stroke="black" points="515.91,-192.32 525.69,-188.25 515.51,-185.33 515.91,-192.32"/>
</g>
</g>
</svg>
