<?xml version="1.0" encoding="us-ascii" standalone="no"?><svg xmlns="http://www.w3.org/2000/svg" xmlns:xlink="http://www.w3.org/1999/xlink" contentStyleType="text/css" height="1378px" preserveAspectRatio="none" style="width:1117px;height:1378px;background:#FFFFFF;" version="1.1" viewBox="0 0 1117 1378" width="1117px" zoomAndPan="magnify"><defs/><g><!--class PUMLEvent--><g id="elem_PUMLEvent"><rect codeLine="3" fill="#F1F1F1" height="129.4844" id="PUMLEvent" rx="2.5" ry="2.5" style="stroke:#181818;stroke-width:0.5;" width="109" x="66.5" y="764.94"/><ellipse cx="81.5" cy="780.94" fill="#EB937F" rx="11" ry="11" style="stroke:#181818;stroke-width:1.0;"/><path d="M85.6094,786.94 L77.8906,786.94 L77.8906,774.5494 L85.6094,774.5494 L85.6094,776.7056 L80.3438,776.7056 L80.3438,779.3775 L85.1094,779.3775 L85.1094,781.5338 L80.3438,781.5338 L80.3438,784.7838 L85.6094,784.7838 L85.6094,786.94 Z " fill="#000000"/><text fill="#000000" font-family="sans-serif" font-size="14" lengthAdjust="spacing" textLength="77" x="95.5" y="785.7867">PUMLEvent</text><line style="stroke:#181818;stroke-width:0.5;" x1="67.5" x2="174.5" y1="796.94" y2="796.94"/><text fill="#000000" font-family="sans-serif" font-size="14" lengthAdjust="spacing" textLength="59" x="72.5" y="813.9351">NORMAL</text><text fill="#000000" font-family="sans-serif" font-size="14" lengthAdjust="spacing" textLength="59" x="72.5" y="830.232">BRANCH</text><text fill="#000000" font-family="sans-serif" font-size="14" lengthAdjust="spacing" textLength="51" x="72.5" y="846.5289">MERGE</text><text fill="#000000" font-family="sans-serif" font-size="14" lengthAdjust="spacing" textLength="47" x="72.5" y="862.8257">BREAK</text><text fill="#000000" font-family="sans-serif" font-size="14" lengthAdjust="spacing" textLength="38" x="72.5" y="879.1226">LOOP</text><line style="stroke:#181818;stroke-width:0.5;" x1="67.5" x2="174.5" y1="886.4244" y2="886.4244"/></g><!--class PUMLOperatorNodes--><g id="elem_PUMLOperatorNodes"><rect codeLine="11" fill="#F1F1F1" height="227.2656" id="PUMLOperatorNodes" rx="2.5" ry="2.5" style="stroke:#181818;stroke-width:0.5;" width="176" x="889" y="1143.9"/><ellipse cx="904" cy="1159.9" fill="#EB937F" rx="11" ry="11" style="stroke:#181818;stroke-width:1.0;"/><path d="M908.1094,1165.9 L900.3906,1165.9 L900.3906,1153.5094 L908.1094,1153.5094 L908.1094,1155.6656 L902.8438,1155.6656 L902.8438,1158.3375 L907.6094,1158.3375 L907.6094,1160.4938 L902.8438,1160.4938 L902.8438,1163.7438 L908.1094,1163.7438 L908.1094,1165.9 Z " fill="#000000"/><text fill="#000000" font-family="sans-serif" font-size="14" lengthAdjust="spacing" textLength="144" x="918" y="1164.7467">PUMLOperatorNodes</text><line style="stroke:#181818;stroke-width:0.5;" x1="890" x2="1064" y1="1175.9" y2="1175.9"/><text fill="#000000" font-family="sans-serif" font-size="14" lengthAdjust="spacing" textLength="83" x="895" y="1192.8951">START_XOR</text><text fill="#000000" font-family="sans-serif" font-size="14" lengthAdjust="spacing" textLength="74" x="895" y="1209.192">PATH_XOR</text><text fill="#000000" font-family="sans-serif" font-size="14" lengthAdjust="spacing" textLength="67" x="895" y="1225.4889">END_XOR</text><text fill="#000000" font-family="sans-serif" font-size="14" lengthAdjust="spacing" textLength="83" x="895" y="1241.7857">START_AND</text><text fill="#000000" font-family="sans-serif" font-size="14" lengthAdjust="spacing" textLength="74" x="895" y="1258.0826">PATH_AND</text><text fill="#000000" font-family="sans-serif" font-size="14" lengthAdjust="spacing" textLength="67" x="895" y="1274.3795">END_AND</text><text fill="#000000" font-family="sans-serif" font-size="14" lengthAdjust="spacing" textLength="74" x="895" y="1290.6764">START_OR</text><text fill="#000000" font-family="sans-serif" font-size="14" lengthAdjust="spacing" textLength="65" x="895" y="1306.9732">PATH_OR</text><text fill="#000000" font-family="sans-serif" font-size="14" lengthAdjust="spacing" textLength="58" x="895" y="1323.2701">END_OR</text><text fill="#000000" font-family="sans-serif" font-size="14" lengthAdjust="spacing" textLength="91" x="895" y="1339.567">START_LOOP</text><text fill="#000000" font-family="sans-serif" font-size="14" lengthAdjust="spacing" textLength="75" x="895" y="1355.8639">END_LOOP</text><line style="stroke:#181818;stroke-width:0.5;" x1="890" x2="1064" y1="1363.1656" y2="1363.1656"/></g><!--class PUMLNode--><g id="elem_PUMLNode"><rect codeLine="27" fill="#F1F1F1" height="113.1875" id="PUMLNode" rx="2.5" ry="2.5" style="stroke:#181818;stroke-width:0.5;" width="276" x="393" y="1200.94"/><ellipse cx="489.25" cy="1216.94" fill="#ADD1B2" rx="11" ry="11" style="stroke:#181818;stroke-width:1.0;"/><path d="M492.2188,1222.5806 Q491.6406,1222.8775 491,1223.0181 Q490.3594,1223.1744 489.6563,1223.1744 Q487.1563,1223.1744 485.8281,1221.5338 Q484.5156,1219.8775 484.5156,1216.7525 Q484.5156,1213.6275 485.8281,1211.9713 Q487.1563,1210.315 489.6563,1210.315 Q490.3594,1210.315 491,1210.4713 Q491.6563,1210.6275 492.2188,1210.9244 L492.2188,1213.6431 Q491.5938,1213.065 491,1212.7994 Q490.4063,1212.5181 489.7813,1212.5181 Q488.4375,1212.5181 487.75,1213.5963 Q487.0625,1214.6588 487.0625,1216.7525 Q487.0625,1218.8463 487.75,1219.9244 Q488.4375,1220.9869 489.7813,1220.9869 Q490.4063,1220.9869 491,1220.7213 Q491.5938,1220.44 492.2188,1219.8619 L492.2188,1222.5806 Z " fill="#000000"/><text fill="#000000" font-family="sans-serif" font-size="14" lengthAdjust="spacing" textLength="75" x="509.75" y="1221.7867">PUMLNode</text><line style="stroke:#181818;stroke-width:0.5;" x1="394" x2="668" y1="1232.94" y2="1232.94"/><text fill="#000000" font-family="sans-serif" font-size="14" lengthAdjust="spacing" textLength="128" x="399" y="1249.9351">node_id: Hashable</text><text fill="#000000" font-family="sans-serif" font-size="14" lengthAdjust="spacing" textLength="100" x="399" y="1266.232">node_type: str</text><text fill="#000000" font-family="sans-serif" font-size="14" lengthAdjust="spacing" textLength="180" x="399" y="1282.5289">extra_info: dict&lt;str, bool&gt;</text><line style="stroke:#181818;stroke-width:0.5;" x1="394" x2="668" y1="1289.8306" y2="1289.8306"/><ellipse cx="404" cy="1303.4791" fill="#84BE84" rx="3" ry="3" style="stroke:#038048;stroke-width:1.0;"/><text fill="#000000" font-family="sans-serif" font-size="14" lengthAdjust="spacing" textLength="250" x="413" y="1306.8257">write_uml_blocks(int, int): list[str], int</text></g><!--class PUMLEventNode--><g id="elem_PUMLEventNode"><rect codeLine="34" fill="#F1F1F1" height="129.4844" id="PUMLEventNode" rx="2.5" ry="2.5" style="stroke:#181818;stroke-width:0.5;" width="443" x="289.5" y="526.56"/><ellipse cx="449.75" cy="542.56" fill="#ADD1B2" rx="11" ry="11" style="stroke:#181818;stroke-width:1.0;"/><path d="M452.7188,548.2006 Q452.1406,548.4975 451.5,548.6381 Q450.8594,548.7944 450.1563,548.7944 Q447.6563,548.7944 446.3281,547.1538 Q445.0156,545.4975 445.0156,542.3725 Q445.0156,539.2475 446.3281,537.5913 Q447.6563,535.935 450.1563,535.935 Q450.8594,535.935 451.5,536.0913 Q452.1563,536.2475 452.7188,536.5444 L452.7188,539.2631 Q452.0938,538.685 451.5,538.4194 Q450.9063,538.1381 450.2813,538.1381 Q448.9375,538.1381 448.25,539.2163 Q447.5625,540.2788 447.5625,542.3725 Q447.5625,544.4663 448.25,545.5444 Q448.9375,546.6069 450.2813,546.6069 Q450.9063,546.6069 451.5,546.3413 Q452.0938,546.06 452.7188,545.4819 L452.7188,548.2006 Z " fill="#000000"/><text fill="#000000" font-family="sans-serif" font-size="14" lengthAdjust="spacing" textLength="114" x="470.25" y="547.4067">PUMLEventNode</text><line style="stroke:#181818;stroke-width:0.5;" x1="290.5" x2="731.5" y1="558.56" y2="558.56"/><text fill="#000000" font-family="sans-serif" font-size="14" lengthAdjust="spacing" textLength="135" x="295.5" y="575.5551">branch_number: int</text><text fill="#000000" font-family="sans-serif" font-size="14" lengthAdjust="spacing" textLength="162" x="295.5" y="591.852">sub_graph: PUMLGraph</text><text fill="#000000" font-family="sans-serif" font-size="14" lengthAdjust="spacing" textLength="216" x="295.5" y="608.1489">event_types: set&lt;PUMLEvent&gt;</text><line style="stroke:#181818;stroke-width:0.5;" x1="290.5" x2="731.5" y1="615.4506" y2="615.4506"/><ellipse cx="300.5" cy="629.0991" fill="#84BE84" rx="3" ry="3" style="stroke:#038048;stroke-width:1.0;"/><text fill="#000000" font-family="sans-serif" font-size="14" lengthAdjust="spacing" textLength="417" x="309.5" y="632.4457">__init__(str, int, set&lt;PUMLEvent&gt;, PUMLGraph, int, Hashable)</text><rect fill="#F24D5C" height="6" style="stroke:#C82930;stroke-width:1.0;" width="6" x="297.5" y="642.3959"/><text fill="#000000" font-family="sans-serif" font-size="14" lengthAdjust="spacing" textLength="221" x="309.5" y="648.7426">_write_event_blocks(int): list[str]</text></g><!--class PUMLOperatorNode--><g id="elem_PUMLOperatorNode"><rect codeLine="42" fill="#F1F1F1" height="96.8906" id="PUMLOperatorNode" rx="2.5" ry="2.5" style="stroke:#181818;stroke-width:0.5;" width="267" x="843.5" y="978.87"/><ellipse cx="904.75" cy="994.87" fill="#ADD1B2" rx="11" ry="11" style="stroke:#181818;stroke-width:1.0;"/><path d="M907.7188,1000.5106 Q907.1406,1000.8075 906.5,1000.9481 Q905.8594,1001.1044 905.1563,1001.1044 Q902.6563,1001.1044 901.3281,999.4638 Q900.0156,997.8075 900.0156,994.6825 Q900.0156,991.5575 901.3281,989.9013 Q902.6563,988.245 905.1563,988.245 Q905.8594,988.245 906.5,988.4013 Q907.1563,988.5575 907.7188,988.8544 L907.7188,991.5731 Q907.0938,990.995 906.5,990.7294 Q905.9063,990.4481 905.2813,990.4481 Q903.9375,990.4481 903.25,991.5263 Q902.5625,992.5888 902.5625,994.6825 Q902.5625,996.7763 903.25,997.8544 Q903.9375,998.9169 905.2813,998.9169 Q905.9063,998.9169 906.5,998.6513 Q907.0938,998.37 907.7188,997.7919 L907.7188,1000.5106 Z " fill="#000000"/><text fill="#000000" font-family="sans-serif" font-size="14" lengthAdjust="spacing" textLength="136" x="925.25" y="999.7167">PUMLOperatorNode</text><line style="stroke:#181818;stroke-width:0.5;" x1="844.5" x2="1109.5" y1="1010.87" y2="1010.87"/><text fill="#000000" font-family="sans-serif" font-size="14" lengthAdjust="spacing" textLength="249" x="849.5" y="1027.8651">operator_type: PUMLOperatorNodes</text><line style="stroke:#181818;stroke-width:0.5;" x1="844.5" x2="1109.5" y1="1035.1669" y2="1035.1669"/><ellipse cx="854.5" cy="1048.8153" fill="#84BE84" rx="3" ry="3" style="stroke:#038048;stroke-width:1.0;"/><text fill="#000000" font-family="sans-serif" font-size="14" lengthAdjust="spacing" textLength="227" x="863.5" y="1052.162">__init__(PUMLOperatorNodes, int)</text><rect fill="#F24D5C" height="6" style="stroke:#C82930;stroke-width:1.0;" width="6" x="851.5" y="1062.1122"/><text fill="#000000" font-family="sans-serif" font-size="14" lengthAdjust="spacing" textLength="241" x="863.5" y="1068.4589">_write_operator_blocks(int): list[str]</text></g><!--class PUMLKillNode--><g id="elem_PUMLKillNode"><rect codeLine="48" fill="#F1F1F1" height="64.2969" id="PUMLKillNode" rx="2.5" ry="2.5" style="stroke:#181818;stroke-width:0.5;" width="125" x="683.5" y="995.16"/><ellipse cx="698.5" cy="1011.16" fill="#ADD1B2" rx="11" ry="11" style="stroke:#181818;stroke-width:1.0;"/><path d="M701.4688,1016.8006 Q700.8906,1017.0975 700.25,1017.2381 Q699.6094,1017.3944 698.9063,1017.3944 Q696.4063,1017.3944 695.0781,1015.7538 Q693.7656,1014.0975 693.7656,1010.9725 Q693.7656,1007.8475 695.0781,1006.1913 Q696.4063,1004.535 698.9063,1004.535 Q699.6094,1004.535 700.25,1004.6913 Q700.9063,1004.8475 701.4688,1005.1444 L701.4688,1007.8631 Q700.8438,1007.285 700.25,1007.0194 Q699.6563,1006.7381 699.0313,1006.7381 Q697.6875,1006.7381 697,1007.8163 Q696.3125,1008.8788 696.3125,1010.9725 Q696.3125,1013.0663 697,1014.1444 Q697.6875,1015.2069 699.0313,1015.2069 Q699.6563,1015.2069 700.25,1014.9413 Q700.8438,1014.66 701.4688,1014.0819 L701.4688,1016.8006 Z " fill="#000000"/><text fill="#000000" font-family="sans-serif" font-size="14" lengthAdjust="spacing" textLength="93" x="712.5" y="1016.0067">PUMLKillNode</text><line style="stroke:#181818;stroke-width:0.5;" x1="684.5" x2="807.5" y1="1027.16" y2="1027.16"/><line style="stroke:#181818;stroke-width:0.5;" x1="684.5" x2="807.5" y1="1035.16" y2="1035.16"/><ellipse cx="694.5" cy="1048.8084" fill="#84BE84" rx="3" ry="3" style="stroke:#038048;stroke-width:1.0;"/><text fill="#000000" font-family="sans-serif" font-size="14" lengthAdjust="spacing" textLength="75" x="703.5" y="1052.1551">__init__(int)</text></g><!--class PUMLGraph--><g id="elem_PUMLGraph"><rect codeLine="52" fill="#F1F1F1" height="162.0781" id="PUMLGraph" rx="2.5" ry="2.5" style="stroke:#181818;stroke-width:0.5;" width="498" x="282" y="748.64"/><ellipse cx="486.75" cy="764.64" fill="#ADD1B2" rx="11" ry="11" style="stroke:#181818;stroke-width:1.0;"/><path d="M489.7188,770.2806 Q489.1406,770.5775 488.5,770.7181 Q487.8594,770.8744 487.1563,770.8744 Q484.6563,770.8744 483.3281,769.2338 Q482.0156,767.5775 482.0156,764.4525 Q482.0156,761.3275 483.3281,759.6713 Q484.6563,758.015 487.1563,758.015 Q487.8594,758.015 488.5,758.1713 Q489.1563,758.3275 489.7188,758.6244 L489.7188,761.3431 Q489.0938,760.765 488.5,760.4994 Q487.9063,760.2181 487.2813,760.2181 Q485.9375,760.2181 485.25,761.2963 Q484.5625,762.3588 484.5625,764.4525 Q484.5625,766.5463 485.25,767.6244 Q485.9375,768.6869 487.2813,768.6869 Q487.9063,768.6869 488.5,768.4213 Q489.0938,768.14 489.7188,767.5619 L489.7188,770.2806 Z " fill="#000000"/><text fill="#000000" font-family="sans-serif" font-size="14" lengthAdjust="spacing" textLength="80" x="507.25" y="769.4867">PUMLGraph</text><line style="stroke:#181818;stroke-width:0.5;" x1="283" x2="779" y1="780.64" y2="780.64"/><text fill="#000000" font-family="sans-serif" font-size="14" lengthAdjust="spacing" textLength="238" x="288" y="797.6351">node_counts: dict&lt;Hashable, int&gt;</text><text fill="#000000" font-family="sans-serif" font-size="14" lengthAdjust="spacing" textLength="129" x="288" y="813.932">branch_counts: int</text><text fill="#000000" font-family="sans-serif" font-size="14" lengthAdjust="spacing" textLength="98" x="288" y="830.2289">kill_counts: int</text><text fill="#000000" font-family="sans-serif" font-size="14" lengthAdjust="spacing" textLength="486" x="288" y="846.5257">parent_graph_nodes_to_node_ref: dict&lt;Hashable, []PUMLEventNode&gt;</text><text fill="#000000" font-family="sans-serif" font-size="14" lengthAdjust="spacing" textLength="293" x="288" y="862.8226">sub_graph_nodes: set&lt;PUMLEventNode&gt;</text><text fill="#000000" font-family="sans-serif" font-size="14" lengthAdjust="spacing" textLength="213" x="288" y="879.1195">edges: set&lt;PUMLNodeTuple&gt;</text><text fill="#000000" font-family="sans-serif" font-size="14" lengthAdjust="spacing" textLength="174" x="288" y="895.4164">nodes: set&lt;PUMLNode&gt;</text><line style="stroke:#181818;stroke-width:0.5;" x1="283" x2="779" y1="902.7181" y2="902.7181"/></g><!--class PUMLNodeTuple--><g id="elem_PUMLNodeTuple"><rect codeLine="62" fill="#F1F1F1" height="113.1875" id="PUMLNodeTuple" rx="2.5" ry="2.5" style="stroke:#181818;stroke-width:0.5;" width="235" x="413.5" y="970.72"/><ellipse cx="469.75" cy="986.72" fill="#ADD1B2" rx="11" ry="11" style="stroke:#181818;stroke-width:1.0;"/><path d="M472.7188,992.3606 Q472.1406,992.6575 471.5,992.7981 Q470.8594,992.9544 470.1563,992.9544 Q467.6563,992.9544 466.3281,991.3138 Q465.0156,989.6575 465.0156,986.5325 Q465.0156,983.4075 466.3281,981.7513 Q467.6563,980.095 470.1563,980.095 Q470.8594,980.095 471.5,980.2513 Q472.1563,980.4075 472.7188,980.7044 L472.7188,983.4231 Q472.0938,982.845 471.5,982.5794 Q470.9063,982.2981 470.2813,982.2981 Q468.9375,982.2981 468.25,983.3763 Q467.5625,984.4388 467.5625,986.5325 Q467.5625,988.6263 468.25,989.7044 Q468.9375,990.7669 470.2813,990.7669 Q470.9063,990.7669 471.5,990.5013 Q472.0938,990.22 472.7188,989.6419 L472.7188,992.3606 Z " fill="#000000"/><text fill="#000000" font-family="sans-serif" font-size="14" lengthAdjust="spacing" textLength="114" x="490.25" y="991.5667">PUMLNodeTuple</text><line style="stroke:#181818;stroke-width:0.5;" x1="414.5" x2="647.5" y1="1002.72" y2="1002.72"/><polygon fill="none" points="424.5,1011.3684,428.5,1015.3684,424.5,1019.3684,420.5,1015.3684" style="stroke:#B38D22;stroke-width:1.0;"/><text fill="#000000" font-family="sans-serif" font-size="14" lengthAdjust="spacing" textLength="154" x="433.5" y="1019.7151">out_node : PUMLNode</text><polygon fill="none" points="424.5,1027.6653,428.5,1031.6653,424.5,1035.6653,420.5,1031.6653" style="stroke:#B38D22;stroke-width:1.0;"/><text fill="#000000" font-family="sans-serif" font-size="14" lengthAdjust="spacing" textLength="143" x="433.5" y="1036.012">in_node : PUMLNode</text><line style="stroke:#181818;stroke-width:0.5;" x1="414.5" x2="647.5" y1="1043.3138" y2="1043.3138"/><ellipse cx="424.5" cy="1056.9622" fill="#84BE84" rx="3" ry="3" style="stroke:#038048;stroke-width:1.0;"/><text fill="#000000" font-family="sans-serif" font-size="14" lengthAdjust="spacing" textLength="102" x="433.5" y="1060.3089">__hash__() : int</text><ellipse cx="424.5" cy="1073.2591" fill="#84BE84" rx="3" ry="3" style="stroke:#038048;stroke-width:1.0;"/><text fill="#000000" font-family="sans-serif" font-size="14" lengthAdjust="spacing" textLength="209" x="433.5" y="1076.6057">__eq__(PUMLNodeTuple): bool</text></g><!--class Node--><g id="elem_Node"><rect codeLine="80" fill="#F1F1F1" height="194.6719" id="Node" rx="2.5" ry="2.5" style="stroke:#181818;stroke-width:0.5;" width="228" x="7" y="493.97"/><ellipse cx="98.25" cy="509.97" fill="#ADD1B2" rx="11" ry="11" style="stroke:#181818;stroke-width:1.0;"/><path d="M101.2188,515.6106 Q100.6406,515.9075 100,516.0481 Q99.3594,516.2044 98.6563,516.2044 Q96.1563,516.2044 94.8281,514.5638 Q93.5156,512.9075 93.5156,509.7825 Q93.5156,506.6575 94.8281,505.0013 Q96.1563,503.345 98.6563,503.345 Q99.3594,503.345 100,503.5013 Q100.6563,503.6575 101.2188,503.9544 L101.2188,506.6731 Q100.5938,506.095 100,505.8294 Q99.4063,505.5481 98.7813,505.5481 Q97.4375,505.5481 96.75,506.6263 Q96.0625,507.6888 96.0625,509.7825 Q96.0625,511.8763 96.75,512.9544 Q97.4375,514.0169 98.7813,514.0169 Q99.4063,514.0169 100,513.7513 Q100.5938,513.47 101.2188,512.8919 L101.2188,515.6106 Z " fill="#000000"/><text fill="#000000" font-family="sans-serif" font-size="14" lengthAdjust="spacing" textLength="37" x="118.75" y="514.8167">Node</text><line style="stroke:#181818;stroke-width:0.5;" x1="8" x2="234" y1="525.97" y2="525.97"/><text fill="#000000" font-family="sans-serif" font-size="14" lengthAdjust="spacing" textLength="48" x="13" y="542.9651">uid: str</text><text fill="#000000" font-family="sans-serif" font-size="14" lengthAdjust="spacing" textLength="153" x="13" y="559.262">event_type: str | None</text><text fill="#000000" font-family="sans-serif" font-size="14" lengthAdjust="spacing" textLength="136" x="13" y="575.5589">operator: str | None</text><text fill="#000000" font-family="sans-serif" font-size="14" lengthAdjust="spacing" textLength="216" x="13" y="591.8557">event_types: set&lt;PUMLEvent&gt;</text><text fill="#000000" font-family="sans-serif" font-size="14" lengthAdjust="spacing" textLength="119" x="13" y="608.1526">incoming: []Node</text><text fill="#000000" font-family="sans-serif" font-size="14" lengthAdjust="spacing" textLength="118" x="13" y="624.4495">outgoing: []Node</text><text fill="#000000" font-family="sans-serif" font-size="14" lengthAdjust="spacing" textLength="158" x="13" y="640.7464">incoming_logic: []Node</text><text fill="#000000" font-family="sans-serif" font-size="14" lengthAdjust="spacing" textLength="157" x="13" y="657.0432">outgoing_logic: []Node</text><text fill="#000000" font-family="sans-serif" font-size="14" lengthAdjust="spacing" textLength="88" x="13" y="673.3401">is_stub: bool</text><line style="stroke:#181818;stroke-width:0.5;" x1="8" x2="234" y1="680.6419" y2="680.6419"/></g><!--class SubGraphNode--><g id="elem_SubGraphNode"><rect codeLine="92" fill="#F1F1F1" height="113.1875" id="SubGraphNode" rx="2.5" ry="2.5" style="stroke:#181818;stroke-width:0.5;" width="187" x="29.5" y="7"/><ellipse cx="66.55" cy="23" fill="#ADD1B2" rx="11" ry="11" style="stroke:#181818;stroke-width:1.0;"/><path d="M69.5188,28.6406 Q68.9406,28.9375 68.3,29.0781 Q67.6594,29.2344 66.9563,29.2344 Q64.4563,29.2344 63.1281,27.5938 Q61.8156,25.9375 61.8156,22.8125 Q61.8156,19.6875 63.1281,18.0313 Q64.4563,16.375 66.9563,16.375 Q67.6594,16.375 68.3,16.5313 Q68.9563,16.6875 69.5188,16.9844 L69.5188,19.7031 Q68.8938,19.125 68.3,18.8594 Q67.7063,18.5781 67.0813,18.5781 Q65.7375,18.5781 65.05,19.6563 Q64.3625,20.7188 64.3625,22.8125 Q64.3625,24.9063 65.05,25.9844 Q65.7375,27.0469 67.0813,27.0469 Q67.7063,27.0469 68.3,26.7813 Q68.8938,26.5 69.5188,25.9219 L69.5188,28.6406 Z " fill="#000000"/><text fill="#000000" font-family="sans-serif" font-size="14" lengthAdjust="spacing" textLength="106" x="85.45" y="27.8467">SubGraphNode</text><line style="stroke:#181818;stroke-width:0.5;" x1="30.5" x2="215.5" y1="39" y2="39"/><polygon fill="none" points="40.5,47.6484,44.5,51.6484,40.5,55.6484,36.5,51.6484" style="stroke:#B38D22;stroke-width:1.0;"/><text fill="#000000" font-family="sans-serif" font-size="14" lengthAdjust="spacing" textLength="161" x="49.5" y="55.9951">sub_graph: NodeGraph</text><polygon fill="none" points="40.5,63.9453,44.5,67.9453,40.5,71.9453,36.5,67.9453" style="stroke:#B38D22;stroke-width:1.0;"/><text fill="#000000" font-family="sans-serif" font-size="14" lengthAdjust="spacing" textLength="86" x="49.5" y="72.292">start_uid: str</text><polygon fill="none" points="40.5,80.2422,44.5,84.2422,40.5,88.2422,36.5,84.2422" style="stroke:#B38D22;stroke-width:1.0;"/><text fill="#000000" font-family="sans-serif" font-size="14" lengthAdjust="spacing" textLength="82" x="49.5" y="88.5889">end_uid: str</text><polygon fill="none" points="40.5,96.5391,44.5,100.5391,40.5,104.5391,36.5,100.5391" style="stroke:#B38D22;stroke-width:1.0;"/><text fill="#000000" font-family="sans-serif" font-size="14" lengthAdjust="spacing" textLength="148" x="49.5" y="104.8857">break_uids: set&lt;str&gt;</text><line style="stroke:#181818;stroke-width:0.5;" x1="30.5" x2="215.5" y1="112.1875" y2="112.1875"/></g><!--class NodeGraph--><g id="elem_NodeGraph"><rect codeLine="99" fill="#F1F1F1" height="80.5938" id="NodeGraph" rx="2.5" ry="2.5" style="stroke:#181818;stroke-width:0.5;" width="187" x="102.5" y="180.19"/><ellipse cx="152.25" cy="196.19" fill="#ADD1B2" rx="11" ry="11" style="stroke:#181818;stroke-width:1.0;"/><path d="M155.2188,201.8306 Q154.6406,202.1275 154,202.2681 Q153.3594,202.4244 152.6563,202.4244 Q150.1563,202.4244 148.8281,200.7838 Q147.5156,199.1275 147.5156,196.0025 Q147.5156,192.8775 148.8281,191.2213 Q150.1563,189.565 152.6563,189.565 Q153.3594,189.565 154,189.7213 Q154.6563,189.8775 155.2188,190.1744 L155.2188,192.8931 Q154.5938,192.315 154,192.0494 Q153.4063,191.7681 152.7813,191.7681 Q151.4375,191.7681 150.75,192.8463 Q150.0625,193.9088 150.0625,196.0025 Q150.0625,198.0963 150.75,199.1744 Q151.4375,200.2369 152.7813,200.2369 Q153.4063,200.2369 154,199.9713 Q154.5938,199.69 155.2188,199.1119 L155.2188,201.8306 Z " fill="#000000"/><text fill="#000000" font-family="sans-serif" font-size="14" lengthAdjust="spacing" textLength="79" x="172.75" y="201.0367">NodeGraph</text><line style="stroke:#181818;stroke-width:0.5;" x1="103.5" x2="288.5" y1="212.19" y2="212.19"/><text fill="#000000" font-family="sans-serif" font-size="14" lengthAdjust="spacing" textLength="136" x="108.5" y="229.1851">nodes: set&lt;Node&gt;</text><text fill="#000000" font-family="sans-serif" font-size="14" lengthAdjust="spacing" textLength="175" x="108.5" y="245.482">edges: set&lt;NodeTuple&gt;</text><line style="stroke:#181818;stroke-width:0.5;" x1="103.5" x2="288.5" y1="252.7838" y2="252.7838"/></g><!--class NodeTuple--><g id="elem_NodeTuple"><rect codeLine="104" fill="#F1F1F1" height="113.1875" id="NodeTuple" rx="2.5" ry="2.5" style="stroke:#181818;stroke-width:0.5;" width="197" x="173.5" y="320.78"/><ellipse cx="229.75" cy="336.78" fill="#ADD1B2" rx="11" ry="11" style="stroke:#181818;stroke-width:1.0;"/><path d="M232.7188,342.4206 Q232.1406,342.7175 231.5,342.8581 Q230.8594,343.0144 230.1563,343.0144 Q227.6563,343.0144 226.3281,341.3738 Q225.0156,339.7175 225.0156,336.5925 Q225.0156,333.4675 226.3281,331.8113 Q227.6563,330.155 230.1563,330.155 Q230.8594,330.155 231.5,330.3113 Q232.1563,330.4675 232.7188,330.7644 L232.7188,333.4831 Q232.0938,332.905 231.5,332.6394 Q230.9063,332.3581 230.2813,332.3581 Q228.9375,332.3581 228.25,333.4363 Q227.5625,334.4988 227.5625,336.5925 Q227.5625,338.6863 228.25,339.7644 Q228.9375,340.8269 230.2813,340.8269 Q230.9063,340.8269 231.5,340.5613 Q232.0938,340.28 232.7188,339.7019 L232.7188,342.4206 Z " fill="#000000"/><text fill="#000000" font-family="sans-serif" font-size="14" lengthAdjust="spacing" textLength="76" x="250.25" y="341.6267">NodeTuple</text><line style="stroke:#181818;stroke-width:0.5;" x1="174.5" x2="369.5" y1="352.78" y2="352.78"/><polygon fill="none" points="184.5,361.4284,188.5,365.4284,184.5,369.4284,180.5,365.4284" style="stroke:#B38D22;stroke-width:1.0;"/><text fill="#000000" font-family="sans-serif" font-size="14" lengthAdjust="spacing" textLength="116" x="193.5" y="369.7751">out_node : Node</text><polygon fill="none" points="184.5,377.7253,188.5,381.7253,184.5,385.7253,180.5,381.7253" style="stroke:#B38D22;stroke-width:1.0;"/><text fill="#000000" font-family="sans-serif" font-size="14" lengthAdjust="spacing" textLength="105" x="193.5" y="386.072">in_node : Node</text><line style="stroke:#181818;stroke-width:0.5;" x1="174.5" x2="369.5" y1="393.3738" y2="393.3738"/><ellipse cx="184.5" cy="407.0222" fill="#84BE84" rx="3" ry="3" style="stroke:#038048;stroke-width:1.0;"/><text fill="#000000" font-family="sans-serif" font-size="14" lengthAdjust="spacing" textLength="102" x="193.5" y="410.3689">__hash__() : int</text><ellipse cx="184.5" cy="423.3191" fill="#84BE84" rx="3" ry="3" style="stroke:#038048;stroke-width:1.0;"/><text fill="#000000" font-family="sans-serif" font-size="14" lengthAdjust="spacing" textLength="171" x="193.5" y="426.6657">__eq__(NodeTuple): bool</text></g><!--link PUMLGraph to PUMLNode--><g id="link_PUMLGraph_PUMLNode"><path codeLine="69" d="M434.09,911.09 C418.55,928.98 404.72,949.11 396,970.72 C377.18,1017.37 379.61,1036.34 396,1083.9 C411.18,1127.97 438.6825,1164.9792 467.4725,1196.1992 " fill="none" id="PUMLGraph-to-PUMLNode" style="stroke:#181818;stroke-width:1.0;stroke-dasharray:7.0,7.0;"/><polygon fill="#181818" points="471.54,1200.61,468.3793,1191.2821,468.1504,1196.9343,462.4982,1196.7054,471.54,1200.61" style="stroke:#181818;stroke-width:1.0;"/></g><!--link PUMLGraph to PUMLEventNode--><g id="link_PUMLGraph_PUMLEventNode"><path codeLine="70" d="M537.06,748.16 C535.55,718.17 533.2912,690.5135 529.3812,662.2135 " fill="none" id="PUMLGraph-to-PUMLEventNode" style="stroke:#181818;stroke-width:1.0;stroke-dasharray:7.0,7.0;"/><polygon fill="#181818" points="528.56,656.27,525.8294,665.7328,529.2443,661.223,533.7541,664.6379,528.56,656.27" style="stroke:#181818;stroke-width:1.0;"/></g><!--link PUMLEventNode to PUMLGraph--><g id="link_PUMLEventNode_PUMLGraph"><path codeLine="76" d="M504.94,656.27 C505.9,684.57 507.8225,712.2107 511.3325,742.2007 " fill="none" id="PUMLEventNode-to-PUMLGraph" style="stroke:#181818;stroke-width:1.0;stroke-dasharray:7.0,7.0;"/><polygon fill="#181818" points="512.03,748.16,514.9567,738.756,511.4488,743.1939,507.0109,739.686,512.03,748.16" style="stroke:#181818;stroke-width:1.0;"/></g><!--link PUMLGraph to PUMLNodeTuple--><g id="link_PUMLGraph_PUMLNodeTuple"><path codeLine="71" d="M531,911.1 C531,931.01 531,945.93 531,964.39 " fill="none" id="PUMLGraph-to-PUMLNodeTuple" style="stroke:#181818;stroke-width:1.0;stroke-dasharray:7.0,7.0;"/><polygon fill="#181818" points="531,970.39,535,961.39,531,965.39,527,961.39,531,970.39" style="stroke:#181818;stroke-width:1.0;"/></g><!--link PUMLNodeTuple to PUMLNode--><g id="link_PUMLNodeTuple_PUMLNode"><path codeLine="72" d="M531,1084.14 C531,1119.51 531,1159.08 531,1194.49 " fill="none" id="PUMLNodeTuple-to-PUMLNode" style="stroke:#181818;stroke-width:1.0;stroke-dasharray:7.0,7.0;"/><polygon fill="#181818" points="531,1200.49,535,1191.49,531,1195.49,527,1191.49,531,1200.49" style="stroke:#181818;stroke-width:1.0;"/></g><!--link PUMLEventNode to PUMLNode--><g id="link_PUMLEventNode_PUMLNode"><path codeLine="73" d="M357.71,656.38 C320.44,679.69 285.23,710.07 264,748.64 C229.26,811.74 243.89,841.55 264,910.72 C298.67,1029.98 385.042,1125.9194 452.292,1188.3894 " fill="none" id="PUMLEventNode-to-PUMLNode" style="stroke:#181818;stroke-width:1.0;"/><polygon fill="none" points="465.48,1200.64,456.3756,1183.9934,448.2085,1192.7854,465.48,1200.64" style="stroke:#181818;stroke-width:1.0;"/></g><!--link PUMLOperatorNode to PUMLNode--><g id="link_PUMLOperatorNode_PUMLNode"><path codeLine="74" d="M883.5,1076.15 C812.62,1112.43 731.0437,1154.17 656.5137,1192.31 " fill="none" id="PUMLOperatorNode-to-PUMLNode" style="stroke:#181818;stroke-width:1.0;"/><polygon fill="none" points="640.49,1200.51,659.2471,1197.6513,653.7804,1186.9688,640.49,1200.51" style="stroke:#181818;stroke-width:1.0;"/></g><!--link PUMLKillNode to PUMLNode--><g id="link_PUMLKillNode_PUMLNode"><path codeLine="75" d="M716.56,1059.57 C682.4,1095.82 637.773,1143.1985 595.953,1187.5885 " fill="none" id="PUMLKillNode-to-PUMLNode" style="stroke:#181818;stroke-width:1.0;"/><polygon fill="none" points="583.61,1200.69,600.3202,1191.7028,591.5858,1183.4741,583.61,1200.69" style="stroke:#181818;stroke-width:1.0;"/></g><!--link PUMLEventNode to PUMLEvent--><g id="link_PUMLEventNode_PUMLEvent"><path codeLine="77" d="M362.37,656.43 C309.99,681.92 252,713.55 203,748.64 C193.78,755.24 189.0496,758.8449 180.3496,766.7149 " fill="none" id="PUMLEventNode-to-PUMLEvent" style="stroke:#181818;stroke-width:1.0;stroke-dasharray:7.0,7.0;"/><polygon fill="#181818" points="175.9,770.74,185.2578,767.6688,179.608,767.3858,179.891,761.736,175.9,770.74" style="stroke:#181818;stroke-width:1.0;"/></g><!--link PUMLOperatorNode to PUMLOperatorNodes--><g id="link_PUMLOperatorNode_PUMLOperatorNodes"><path codeLine="78" d="M977,1076.15 C977,1095.89 977,1113.68 977,1137.4 " fill="none" id="PUMLOperatorNode-to-PUMLOperatorNodes" style="stroke:#181818;stroke-width:1.0;stroke-dasharray:7.0,7.0;"/><polygon fill="#181818" points="977,1143.4,981,1134.4,977,1138.4,973,1134.4,977,1143.4" style="stroke:#181818;stroke-width:1.0;"/></g><!--link NodeGraph to Node--><g id="link_NodeGraph_Node"><path codeLine="113" d="M177.27,261.28 C169.59,279.12 161.27,300.64 156,320.78 C141.24,377.15 133.1579,435.8879 128.1379,487.7679 " fill="none" id="NodeGraph-to-Node" style="stroke:#181818;stroke-width:1.0;stroke-dasharray:7.0,7.0;"/><polygon fill="#181818" points="127.56,493.74,132.4082,485.1671,128.0416,488.7632,124.4454,484.3966,127.56,493.74" style="stroke:#181818;stroke-width:1.0;"/></g><!--link NodeGraph to NodeTuple--><g id="link_NodeGraph_NodeTuple"><path codeLine="114" d="M215.37,260.97 C224.21,278.98 232.1962,295.2539 241.8462,314.9139 " fill="none" id="NodeGraph-to-NodeTuple" style="stroke:#181818;stroke-width:1.0;stroke-dasharray:7.0,7.0;"/><polygon fill="#181818" points="244.49,320.3,244.1151,310.4583,242.2869,315.8115,236.9336,313.9833,244.49,320.3" style="stroke:#181818;stroke-width:1.0;"/></g><!--link NodeTuple to Node--><g id="link_NodeTuple_Node"><path codeLine="115" d="M232.13,434.33 C219.11,452.6 207.7415,468.5634 193.2215,488.9434 " fill="none" id="NodeTuple-to-Node" style="stroke:#181818;stroke-width:1.0;stroke-dasharray:7.0,7.0;"/><polygon fill="#181818" points="189.74,493.83,198.22,488.8211,192.6413,489.7578,191.7046,484.1791,189.74,493.83" style="stroke:#181818;stroke-width:1.0;"/></g><!--link SubGraphNode to Node--><g id="link_SubGraphNode_Node"><path codeLine="116" d="M100.68,120.44 C94.29,139.12 88.19,160.27 85,180.19 C67.93,286.75 80.1965,392.5995 95.8665,476.0095 " fill="none" id="SubGraphNode-to-Node" style="stroke:#181818;stroke-width:1.0;"/><polygon fill="none" points="99.19,493.7,101.7634,474.9017,89.9697,477.1173,99.19,493.7" style="stroke:#181818;stroke-width:1.0;"/></g><!--link SubGraphNode to NodeGraph--><g id="link_SubGraphNode_NodeGraph"><path codeLine="117" d="M149.35,120.51 C158.67,140.27 166.371,156.6331 174.901,174.7231 " fill="none" id="SubGraphNode-to-NodeGraph" style="stroke:#181818;stroke-width:1.0;stroke-dasharray:7.0,7.0;"/><polygon fill="#181818" points="177.46,180.15,177.2395,170.3036,175.3275,175.6276,170.0036,173.7156,177.46,180.15" style="stroke:#181818;stroke-width:1.0;"/></g><!--link Node to PUMLEvent--><g id="link_Node_PUMLEvent"><path codeLine="118" d="M121,689.13 C121,714.63 121,735.5 121,758.78 " fill="none" id="Node-to-PUMLEvent" style="stroke:#181818;stroke-width:1.0;stroke-dasharray:7.0,7.0;"/><polygon fill="#181818" points="121,764.78,125,755.78,121,759.78,117,755.78,121,764.78" style="stroke:#181818;stroke-width:1.0;"/></g><!--SRC=[ZLJRQkCm47ttLnZoqh1DFy2KW7SR6cXkf5bOA4NOZfg8E5RMalV2jl- -qkXkkRHv2FAPqPapD-6cEwURxyl5x1TkUFelISLljTukymKSlsxprRSv79UpxVrCWxFy0KwBzNgJl2K9DZJh2suBJjiLtMCcwC3hSPTlT-Z7UWjVctmtjn-prPqzAxTyTUVSp8TqCsVbvfDvN04Lg3CM8pMfwe8n42j5wfGRSKHadwNpWXsBiiOEvNylE4iPRm72VtXR8DAyq2pTauhV2iDrMb9QJy7-vNTBE4RTkKPbJQiJko8Dlqx5tpXBQyBuaxZm381KuyH00pn5PLiqrH69mfQupS1VmgmhqQ4jBiSCRjtBen8cxuDO9jHYVcj9jJ0aL1EEq1Ke1bMXsxLZr7PJZ34mJ93AJKLosVc9XJdvqw3JeXhIPOrcfgSrigjI1deivMSaFP2wzkIuI40Rk48b_FceQDTmfljkQWE2fdxBZ9jfsKc4ZC1BqSegGYkHP6U8KpYW5hz4CPwUWncPXhEW27fjTtvuV_2jqh3hBhMszkwgQs_zFO4BkXWZsd48cMRMhWoa6SH5bOyY5L7bSUfA853yK_VOXX2Tayia1RWUtDnC7M4CstJVkGB4IPX9HEdsRp9vxTc2EOxDTgPYasCr0TN63ji0YICQSxWeka7UC7Vo0RCFbNqF04jVXMU3WnsC31-z8QIfw9aqXqpCessk68O3xOF64zNqGAf1_m4JOOZnhdGZe59yx4gecfVgo7i79UpUmH7ZHSjHK8iHRlOzf6nnSPAOpbGOlActbDxwQyV1jV9MAk1uRsk6DkQJspAqAKdY1CjX0QeOKdiGxW2u1WM68OvXuwmg7O_jVm00]--></g></svg>