<?xml version="1.0" encoding="us-ascii" standalone="no"?><svg xmlns="http://www.w3.org/2000/svg" xmlns:xlink="http://www.w3.org/1999/xlink" contentStyleType="text/css" height="1329px" preserveAspectRatio="none" style="width:1117px;height:1329px;background:#FFFFFF;" version="1.1" viewBox="0 0 1117 1329" width="1117px" zoomAndPan="magnify"><defs/><g><!--class PUMLEvent--><g id="elem_PUMLEvent"><rect codeLine="3" fill="#F1F1F1" height="129.4844" id="PUMLEvent" rx="2.5" ry="2.5" style="stroke:#181818;stroke-width:0.5;" width="109" x="66.5" y="716.05"/><ellipse cx="81.5" cy="732.05" fill="#EB937F" rx="11" ry="11" style="stroke:#181818;stroke-width:1.0;"/><path d="M85.6094,738.05 L77.8906,738.05 L77.8906,725.6594 L85.6094,725.6594 L85.6094,727.8156 L80.3438,727.8156 L80.3438,730.4875 L85.1094,730.4875 L85.1094,732.6438 L80.3438,732.6438 L80.3438,735.8938 L85.6094,735.8938 L85.6094,738.05 Z " fill="#000000"/><text fill="#000000" font-family="sans-serif" font-size="14" lengthAdjust="spacing" textLength="77" x="95.5" y="736.8967">PUMLEvent</text><line style="stroke:#181818;stroke-width:0.5;" x1="67.5" x2="174.5" y1="748.05" y2="748.05"/><text fill="#000000" font-family="sans-serif" font-size="14" lengthAdjust="spacing" textLength="59" x="72.5" y="765.0451">NORMAL</text><text fill="#000000" font-family="sans-serif" font-size="14" lengthAdjust="spacing" textLength="59" x="72.5" y="781.342">BRANCH</text><text fill="#000000" font-family="sans-serif" font-size="14" lengthAdjust="spacing" textLength="51" x="72.5" y="797.6389">MERGE</text><text fill="#000000" font-family="sans-serif" font-size="14" lengthAdjust="spacing" textLength="47" x="72.5" y="813.9357">BREAK</text><text fill="#000000" font-family="sans-serif" font-size="14" lengthAdjust="spacing" textLength="38" x="72.5" y="830.2326">LOOP</text><line style="stroke:#181818;stroke-width:0.5;" x1="67.5" x2="174.5" y1="837.5344" y2="837.5344"/></g><!--class PUMLOperatorNodes--><g id="elem_PUMLOperatorNodes"><rect codeLine="11" fill="#F1F1F1" height="227.2656" id="PUMLOperatorNodes" rx="2.5" ry="2.5" style="stroke:#181818;stroke-width:0.5;" width="176" x="889" y="1095.01"/><ellipse cx="904" cy="1111.01" fill="#EB937F" rx="11" ry="11" style="stroke:#181818;stroke-width:1.0;"/><path d="M908.1094,1117.01 L900.3906,1117.01 L900.3906,1104.6194 L908.1094,1104.6194 L908.1094,1106.7756 L902.8438,1106.7756 L902.8438,1109.4475 L907.6094,1109.4475 L907.6094,1111.6038 L902.8438,1111.6038 L902.8438,1114.8538 L908.1094,1114.8538 L908.1094,1117.01 Z " fill="#000000"/><text fill="#000000" font-family="sans-serif" font-size="14" lengthAdjust="spacing" textLength="144" x="918" y="1115.8567">PUMLOperatorNodes</text><line style="stroke:#181818;stroke-width:0.5;" x1="890" x2="1064" y1="1127.01" y2="1127.01"/><text fill="#000000" font-family="sans-serif" font-size="14" lengthAdjust="spacing" textLength="83" x="895" y="1144.0051">START_XOR</text><text fill="#000000" font-family="sans-serif" font-size="14" lengthAdjust="spacing" textLength="74" x="895" y="1160.302">PATH_XOR</text><text fill="#000000" font-family="sans-serif" font-size="14" lengthAdjust="spacing" textLength="67" x="895" y="1176.5989">END_XOR</text><text fill="#000000" font-family="sans-serif" font-size="14" lengthAdjust="spacing" textLength="83" x="895" y="1192.8957">START_AND</text><text fill="#000000" font-family="sans-serif" font-size="14" lengthAdjust="spacing" textLength="74" x="895" y="1209.1926">PATH_AND</text><text fill="#000000" font-family="sans-serif" font-size="14" lengthAdjust="spacing" textLength="67" x="895" y="1225.4895">END_AND</text><text fill="#000000" font-family="sans-serif" font-size="14" lengthAdjust="spacing" textLength="74" x="895" y="1241.7864">START_OR</text><text fill="#000000" font-family="sans-serif" font-size="14" lengthAdjust="spacing" textLength="65" x="895" y="1258.0832">PATH_OR</text><text fill="#000000" font-family="sans-serif" font-size="14" lengthAdjust="spacing" textLength="58" x="895" y="1274.3801">END_OR</text><text fill="#000000" font-family="sans-serif" font-size="14" lengthAdjust="spacing" textLength="91" x="895" y="1290.677">START_LOOP</text><text fill="#000000" font-family="sans-serif" font-size="14" lengthAdjust="spacing" textLength="75" x="895" y="1306.9739">END_LOOP</text><line style="stroke:#181818;stroke-width:0.5;" x1="890" x2="1064" y1="1314.2756" y2="1314.2756"/></g><!--class PUMLNode--><g id="elem_PUMLNode"><rect codeLine="27" fill="#F1F1F1" height="113.1875" id="PUMLNode" rx="2.5" ry="2.5" style="stroke:#181818;stroke-width:0.5;" width="276" x="393" y="1152.05"/><ellipse cx="489.25" cy="1168.05" fill="#ADD1B2" rx="11" ry="11" style="stroke:#181818;stroke-width:1.0;"/><path d="M492.2188,1173.6906 Q491.6406,1173.9875 491,1174.1281 Q490.3594,1174.2844 489.6563,1174.2844 Q487.1563,1174.2844 485.8281,1172.6438 Q484.5156,1170.9875 484.5156,1167.8625 Q484.5156,1164.7375 485.8281,1163.0813 Q487.1563,1161.425 489.6563,1161.425 Q490.3594,1161.425 491,1161.5813 Q491.6563,1161.7375 492.2188,1162.0344 L492.2188,1164.7531 Q491.5938,1164.175 491,1163.9094 Q490.4063,1163.6281 489.7813,1163.6281 Q488.4375,1163.6281 487.75,1164.7063 Q487.0625,1165.7688 487.0625,1167.8625 Q487.0625,1169.9563 487.75,1171.0344 Q488.4375,1172.0969 489.7813,1172.0969 Q490.4063,1172.0969 491,1171.8313 Q491.5938,1171.55 492.2188,1170.9719 L492.2188,1173.6906 Z " fill="#000000"/><text fill="#000000" font-family="sans-serif" font-size="14" lengthAdjust="spacing" textLength="75" x="509.75" y="1172.8967">PUMLNode</text><line style="stroke:#181818;stroke-width:0.5;" x1="394" x2="668" y1="1184.05" y2="1184.05"/><text fill="#000000" font-family="sans-serif" font-size="14" lengthAdjust="spacing" textLength="128" x="399" y="1201.0451">node_id: Hashable</text><text fill="#000000" font-family="sans-serif" font-size="14" lengthAdjust="spacing" textLength="100" x="399" y="1217.342">node_type: str</text><text fill="#000000" font-family="sans-serif" font-size="14" lengthAdjust="spacing" textLength="180" x="399" y="1233.6389">extra_info: dict&lt;str, bool&gt;</text><line style="stroke:#181818;stroke-width:0.5;" x1="394" x2="668" y1="1240.9406" y2="1240.9406"/><ellipse cx="404" cy="1254.5891" fill="#84BE84" rx="3" ry="3" style="stroke:#038048;stroke-width:1.0;"/><text fill="#000000" font-family="sans-serif" font-size="14" lengthAdjust="spacing" textLength="250" x="413" y="1257.9357">write_uml_blocks(int, int): list[str], int</text></g><!--class PUMLEventNode--><g id="elem_PUMLEventNode"><rect codeLine="34" fill="#F1F1F1" height="129.4844" id="PUMLEventNode" rx="2.5" ry="2.5" style="stroke:#181818;stroke-width:0.5;" width="443" x="289.5" y="477.67"/><ellipse cx="449.75" cy="493.67" fill="#ADD1B2" rx="11" ry="11" style="stroke:#181818;stroke-width:1.0;"/><path d="M452.7188,499.3106 Q452.1406,499.6075 451.5,499.7481 Q450.8594,499.9044 450.1563,499.9044 Q447.6563,499.9044 446.3281,498.2637 Q445.0156,496.6075 445.0156,493.4825 Q445.0156,490.3575 446.3281,488.7012 Q447.6563,487.045 450.1563,487.045 Q450.8594,487.045 451.5,487.2012 Q452.1563,487.3575 452.7188,487.6544 L452.7188,490.3731 Q452.0938,489.795 451.5,489.5294 Q450.9063,489.2481 450.2813,489.2481 Q448.9375,489.2481 448.25,490.3262 Q447.5625,491.3887 447.5625,493.4825 Q447.5625,495.5762 448.25,496.6544 Q448.9375,497.7169 450.2813,497.7169 Q450.9063,497.7169 451.5,497.4512 Q452.0938,497.17 452.7188,496.5919 L452.7188,499.3106 Z " fill="#000000"/><text fill="#000000" font-family="sans-serif" font-size="14" lengthAdjust="spacing" textLength="114" x="470.25" y="498.5167">PUMLEventNode</text><line style="stroke:#181818;stroke-width:0.5;" x1="290.5" x2="731.5" y1="509.67" y2="509.67"/><text fill="#000000" font-family="sans-serif" font-size="14" lengthAdjust="spacing" textLength="135" x="295.5" y="526.6651">branch_number: int</text><text fill="#000000" font-family="sans-serif" font-size="14" lengthAdjust="spacing" textLength="162" x="295.5" y="542.962">sub_graph: PUMLGraph</text><text fill="#000000" font-family="sans-serif" font-size="14" lengthAdjust="spacing" textLength="216" x="295.5" y="559.2589">event_types: set&lt;PUMLEvent&gt;</text><line style="stroke:#181818;stroke-width:0.5;" x1="290.5" x2="731.5" y1="566.5606" y2="566.5606"/><ellipse cx="300.5" cy="580.2091" fill="#84BE84" rx="3" ry="3" style="stroke:#038048;stroke-width:1.0;"/><text fill="#000000" font-family="sans-serif" font-size="14" lengthAdjust="spacing" textLength="417" x="309.5" y="583.5557">__init__(str, int, set&lt;PUMLEvent&gt;, PUMLGraph, int, Hashable)</text><rect fill="#F24D5C" height="6" style="stroke:#C82930;stroke-width:1.0;" width="6" x="297.5" y="593.5059"/><text fill="#000000" font-family="sans-serif" font-size="14" lengthAdjust="spacing" textLength="221" x="309.5" y="599.8526">_write_event_blocks(int): list[str]</text></g><!--class PUMLOperatorNode--><g id="elem_PUMLOperatorNode"><rect codeLine="42" fill="#F1F1F1" height="96.8906" id="PUMLOperatorNode" rx="2.5" ry="2.5" style="stroke:#181818;stroke-width:0.5;" width="267" x="843.5" y="929.98"/><ellipse cx="904.75" cy="945.98" fill="#ADD1B2" rx="11" ry="11" style="stroke:#181818;stroke-width:1.0;"/><path d="M907.7188,951.6206 Q907.1406,951.9175 906.5,952.0581 Q905.8594,952.2144 905.1563,952.2144 Q902.6563,952.2144 901.3281,950.5738 Q900.0156,948.9175 900.0156,945.7925 Q900.0156,942.6675 901.3281,941.0113 Q902.6563,939.355 905.1563,939.355 Q905.8594,939.355 906.5,939.5113 Q907.1563,939.6675 907.7188,939.9644 L907.7188,942.6831 Q907.0938,942.105 906.5,941.8394 Q905.9063,941.5581 905.2813,941.5581 Q903.9375,941.5581 903.25,942.6363 Q902.5625,943.6988 902.5625,945.7925 Q902.5625,947.8863 903.25,948.9644 Q903.9375,950.0269 905.2813,950.0269 Q905.9063,950.0269 906.5,949.7613 Q907.0938,949.48 907.7188,948.9019 L907.7188,951.6206 Z " fill="#000000"/><text fill="#000000" font-family="sans-serif" font-size="14" lengthAdjust="spacing" textLength="136" x="925.25" y="950.8267">PUMLOperatorNode</text><line style="stroke:#181818;stroke-width:0.5;" x1="844.5" x2="1109.5" y1="961.98" y2="961.98"/><text fill="#000000" font-family="sans-serif" font-size="14" lengthAdjust="spacing" textLength="249" x="849.5" y="978.9751">operator_type: PUMLOperatorNodes</text><line style="stroke:#181818;stroke-width:0.5;" x1="844.5" x2="1109.5" y1="986.2769" y2="986.2769"/><ellipse cx="854.5" cy="999.9253" fill="#84BE84" rx="3" ry="3" style="stroke:#038048;stroke-width:1.0;"/><text fill="#000000" font-family="sans-serif" font-size="14" lengthAdjust="spacing" textLength="227" x="863.5" y="1003.272">__init__(PUMLOperatorNodes, int)</text><rect fill="#F24D5C" height="6" style="stroke:#C82930;stroke-width:1.0;" width="6" x="851.5" y="1013.2222"/><text fill="#000000" font-family="sans-serif" font-size="14" lengthAdjust="spacing" textLength="241" x="863.5" y="1019.5689">_write_operator_blocks(int): list[str]</text></g><!--class PUMLKillNode--><g id="elem_PUMLKillNode"><rect codeLine="48" fill="#F1F1F1" height="64.2969" id="PUMLKillNode" rx="2.5" ry="2.5" style="stroke:#181818;stroke-width:0.5;" width="125" x="683.5" y="946.27"/><ellipse cx="698.5" cy="962.27" fill="#ADD1B2" rx="11" ry="11" style="stroke:#181818;stroke-width:1.0;"/><path d="M701.4688,967.9106 Q700.8906,968.2075 700.25,968.3481 Q699.6094,968.5044 698.9063,968.5044 Q696.4063,968.5044 695.0781,966.8638 Q693.7656,965.2075 693.7656,962.0825 Q693.7656,958.9575 695.0781,957.3013 Q696.4063,955.645 698.9063,955.645 Q699.6094,955.645 700.25,955.8013 Q700.9063,955.9575 701.4688,956.2544 L701.4688,958.9731 Q700.8438,958.395 700.25,958.1294 Q699.6563,957.8481 699.0313,957.8481 Q697.6875,957.8481 697,958.9263 Q696.3125,959.9888 696.3125,962.0825 Q696.3125,964.1763 697,965.2544 Q697.6875,966.3169 699.0313,966.3169 Q699.6563,966.3169 700.25,966.0513 Q700.8438,965.77 701.4688,965.1919 L701.4688,967.9106 Z " fill="#000000"/><text fill="#000000" font-family="sans-serif" font-size="14" lengthAdjust="spacing" textLength="93" x="712.5" y="967.1167">PUMLKillNode</text><line style="stroke:#181818;stroke-width:0.5;" x1="684.5" x2="807.5" y1="978.27" y2="978.27"/><line style="stroke:#181818;stroke-width:0.5;" x1="684.5" x2="807.5" y1="986.27" y2="986.27"/><ellipse cx="694.5" cy="999.9184" fill="#84BE84" rx="3" ry="3" style="stroke:#038048;stroke-width:1.0;"/><text fill="#000000" font-family="sans-serif" font-size="14" lengthAdjust="spacing" textLength="75" x="703.5" y="1003.2651">__init__(int)</text></g><!--class PUMLGraph--><g id="elem_PUMLGraph"><rect codeLine="52" fill="#F1F1F1" height="162.0781" id="PUMLGraph" rx="2.5" ry="2.5" style="stroke:#181818;stroke-width:0.5;" width="498" x="282" y="699.75"/><ellipse cx="486.75" cy="715.75" fill="#ADD1B2" rx="11" ry="11" style="stroke:#181818;stroke-width:1.0;"/><path d="M489.7188,721.3906 Q489.1406,721.6875 488.5,721.8281 Q487.8594,721.9844 487.1563,721.9844 Q484.6563,721.9844 483.3281,720.3438 Q482.0156,718.6875 482.0156,715.5625 Q482.0156,712.4375 483.3281,710.7813 Q484.6563,709.125 487.1563,709.125 Q487.8594,709.125 488.5,709.2813 Q489.1563,709.4375 489.7188,709.7344 L489.7188,712.4531 Q489.0938,711.875 488.5,711.6094 Q487.9063,711.3281 487.2813,711.3281 Q485.9375,711.3281 485.25,712.4063 Q484.5625,713.4688 484.5625,715.5625 Q484.5625,717.6563 485.25,718.7344 Q485.9375,719.7969 487.2813,719.7969 Q487.9063,719.7969 488.5,719.5313 Q489.0938,719.25 489.7188,718.6719 L489.7188,721.3906 Z " fill="#000000"/><text fill="#000000" font-family="sans-serif" font-size="14" lengthAdjust="spacing" textLength="80" x="507.25" y="720.5967">PUMLGraph</text><line style="stroke:#181818;stroke-width:0.5;" x1="283" x2="779" y1="731.75" y2="731.75"/><text fill="#000000" font-family="sans-serif" font-size="14" lengthAdjust="spacing" textLength="238" x="288" y="748.7451">node_counts: dict&lt;Hashable, int&gt;</text><text fill="#000000" font-family="sans-serif" font-size="14" lengthAdjust="spacing" textLength="129" x="288" y="765.042">branch_counts: int</text><text fill="#000000" font-family="sans-serif" font-size="14" lengthAdjust="spacing" textLength="98" x="288" y="781.3389">kill_counts: int</text><text fill="#000000" font-family="sans-serif" font-size="14" lengthAdjust="spacing" textLength="486" x="288" y="797.6357">parent_graph_nodes_to_node_ref: dict&lt;Hashable, []PUMLEventNode&gt;</text><text fill="#000000" font-family="sans-serif" font-size="14" lengthAdjust="spacing" textLength="293" x="288" y="813.9326">sub_graph_nodes: set&lt;PUMLEventNode&gt;</text><text fill="#000000" font-family="sans-serif" font-size="14" lengthAdjust="spacing" textLength="213" x="288" y="830.2295">edges: set&lt;PUMLNodeTuple&gt;</text><text fill="#000000" font-family="sans-serif" font-size="14" lengthAdjust="spacing" textLength="174" x="288" y="846.5264">nodes: set&lt;PUMLNode&gt;</text><line style="stroke:#181818;stroke-width:0.5;" x1="283" x2="779" y1="853.8281" y2="853.8281"/></g><!--class PUMLNodeTuple--><g id="elem_PUMLNodeTuple"><rect codeLine="62" fill="#F1F1F1" height="113.1875" id="PUMLNodeTuple" rx="2.5" ry="2.5" style="stroke:#181818;stroke-width:0.5;" width="235" x="413.5" y="921.83"/><ellipse cx="469.75" cy="937.83" fill="#ADD1B2" rx="11" ry="11" style="stroke:#181818;stroke-width:1.0;"/><path d="M472.7188,943.4706 Q472.1406,943.7675 471.5,943.9081 Q470.8594,944.0644 470.1563,944.0644 Q467.6563,944.0644 466.3281,942.4237 Q465.0156,940.7675 465.0156,937.6425 Q465.0156,934.5175 466.3281,932.8612 Q467.6563,931.205 470.1563,931.205 Q470.8594,931.205 471.5,931.3612 Q472.1563,931.5175 472.7188,931.8144 L472.7188,934.5331 Q472.0938,933.955 471.5,933.6894 Q470.9063,933.4081 470.2813,933.4081 Q468.9375,933.4081 468.25,934.4862 Q467.5625,935.5487 467.5625,937.6425 Q467.5625,939.7362 468.25,940.8144 Q468.9375,941.8769 470.2813,941.8769 Q470.9063,941.8769 471.5,941.6112 Q472.0938,941.33 472.7188,940.7519 L472.7188,943.4706 Z " fill="#000000"/><text fill="#000000" font-family="sans-serif" font-size="14" lengthAdjust="spacing" textLength="114" x="490.25" y="942.6767">PUMLNodeTuple</text><line style="stroke:#181818;stroke-width:0.5;" x1="414.5" x2="647.5" y1="953.83" y2="953.83"/><polygon fill="none" points="424.5,962.4784,428.5,966.4784,424.5,970.4784,420.5,966.4784" style="stroke:#B38D22;stroke-width:1.0;"/><text fill="#000000" font-family="sans-serif" font-size="14" lengthAdjust="spacing" textLength="154" x="433.5" y="970.8251">out_node : PUMLNode</text><polygon fill="none" points="424.5,978.7753,428.5,982.7753,424.5,986.7753,420.5,982.7753" style="stroke:#B38D22;stroke-width:1.0;"/><text fill="#000000" font-family="sans-serif" font-size="14" lengthAdjust="spacing" textLength="143" x="433.5" y="987.122">in_node : PUMLNode</text><line style="stroke:#181818;stroke-width:0.5;" x1="414.5" x2="647.5" y1="994.4237" y2="994.4237"/><ellipse cx="424.5" cy="1008.0722" fill="#84BE84" rx="3" ry="3" style="stroke:#038048;stroke-width:1.0;"/><text fill="#000000" font-family="sans-serif" font-size="14" lengthAdjust="spacing" textLength="102" x="433.5" y="1011.4189">__hash__() : int</text><ellipse cx="424.5" cy="1024.3691" fill="#84BE84" rx="3" ry="3" style="stroke:#038048;stroke-width:1.0;"/><text fill="#000000" font-family="sans-serif" font-size="14" lengthAdjust="spacing" textLength="209" x="433.5" y="1027.7157">__eq__(PUMLNodeTuple): bool</text></g><!--class Node--><g id="elem_Node"><rect codeLine="80" fill="#F1F1F1" height="194.6719" id="Node" rx="2.5" ry="2.5" style="stroke:#181818;stroke-width:0.5;" width="228" x="7" y="445.08"/><ellipse cx="98.25" cy="461.08" fill="#ADD1B2" rx="11" ry="11" style="stroke:#181818;stroke-width:1.0;"/><path d="M101.2188,466.7206 Q100.6406,467.0175 100,467.1581 Q99.3594,467.3144 98.6563,467.3144 Q96.1563,467.3144 94.8281,465.6737 Q93.5156,464.0175 93.5156,460.8925 Q93.5156,457.7675 94.8281,456.1112 Q96.1563,454.455 98.6563,454.455 Q99.3594,454.455 100,454.6112 Q100.6563,454.7675 101.2188,455.0644 L101.2188,457.7831 Q100.5938,457.205 100,456.9394 Q99.4063,456.6581 98.7813,456.6581 Q97.4375,456.6581 96.75,457.7362 Q96.0625,458.7987 96.0625,460.8925 Q96.0625,462.9862 96.75,464.0644 Q97.4375,465.1269 98.7813,465.1269 Q99.4063,465.1269 100,464.8612 Q100.5938,464.58 101.2188,464.0019 L101.2188,466.7206 Z " fill="#000000"/><text fill="#000000" font-family="sans-serif" font-size="14" lengthAdjust="spacing" textLength="37" x="118.75" y="465.9267">Node</text><line style="stroke:#181818;stroke-width:0.5;" x1="8" x2="234" y1="477.08" y2="477.08"/><text fill="#000000" font-family="sans-serif" font-size="14" lengthAdjust="spacing" textLength="48" x="13" y="494.0751">uid: str</text><text fill="#000000" font-family="sans-serif" font-size="14" lengthAdjust="spacing" textLength="153" x="13" y="510.372">event_type: str | None</text><text fill="#000000" font-family="sans-serif" font-size="14" lengthAdjust="spacing" textLength="136" x="13" y="526.6689">operator: str | None</text><text fill="#000000" font-family="sans-serif" font-size="14" lengthAdjust="spacing" textLength="216" x="13" y="542.9657">event_types: set&lt;PUMLEvent&gt;</text><text fill="#000000" font-family="sans-serif" font-size="14" lengthAdjust="spacing" textLength="119" x="13" y="559.2626">incoming: []Node</text><text fill="#000000" font-family="sans-serif" font-size="14" lengthAdjust="spacing" textLength="118" x="13" y="575.5595">outgoing: []Node</text><text fill="#000000" font-family="sans-serif" font-size="14" lengthAdjust="spacing" textLength="158" x="13" y="591.8564">incoming_logic: []Node</text><text fill="#000000" font-family="sans-serif" font-size="14" lengthAdjust="spacing" textLength="157" x="13" y="608.1532">outgoing_logic: []Node</text><text fill="#000000" font-family="sans-serif" font-size="14" lengthAdjust="spacing" textLength="88" x="13" y="624.4501">is_stub: bool</text><line style="stroke:#181818;stroke-width:0.5;" x1="8" x2="234" y1="631.7519" y2="631.7519"/></g><!--class SubGraphNode--><g id="elem_SubGraphNode"><rect codeLine="92" fill="#F1F1F1" height="64.2969" id="SubGraphNode" rx="2.5" ry="2.5" style="stroke:#181818;stroke-width:0.5;" width="173" x="36.5" y="7"/><ellipse cx="67.25" cy="23" fill="#ADD1B2" rx="11" ry="11" style="stroke:#181818;stroke-width:1.0;"/><path d="M70.2188,28.6406 Q69.6406,28.9375 69,29.0781 Q68.3594,29.2344 67.6563,29.2344 Q65.1563,29.2344 63.8281,27.5938 Q62.5156,25.9375 62.5156,22.8125 Q62.5156,19.6875 63.8281,18.0313 Q65.1563,16.375 67.6563,16.375 Q68.3594,16.375 69,16.5313 Q69.6563,16.6875 70.2188,16.9844 L70.2188,19.7031 Q69.5938,19.125 69,18.8594 Q68.4063,18.5781 67.7813,18.5781 Q66.4375,18.5781 65.75,19.6563 Q65.0625,20.7188 65.0625,22.8125 Q65.0625,24.9063 65.75,25.9844 Q66.4375,27.0469 67.7813,27.0469 Q68.4063,27.0469 69,26.7813 Q69.5938,26.5 70.2188,25.9219 L70.2188,28.6406 Z " fill="#000000"/><text fill="#000000" font-family="sans-serif" font-size="14" lengthAdjust="spacing" textLength="106" x="84.75" y="27.8467">SubGraphNode</text><line style="stroke:#181818;stroke-width:0.5;" x1="37.5" x2="208.5" y1="39" y2="39"/><text fill="#000000" font-family="sans-serif" font-size="14" lengthAdjust="spacing" textLength="161" x="42.5" y="55.9951">sub_graph: NodeGraph</text><line style="stroke:#181818;stroke-width:0.5;" x1="37.5" x2="208.5" y1="63.2969" y2="63.2969"/></g><!--class NodeGraph--><g id="elem_NodeGraph"><rect codeLine="96" fill="#F1F1F1" height="80.5938" id="NodeGraph" rx="2.5" ry="2.5" style="stroke:#181818;stroke-width:0.5;" width="187" x="102.5" y="131.3"/><ellipse cx="152.25" cy="147.3" fill="#ADD1B2" rx="11" ry="11" style="stroke:#181818;stroke-width:1.0;"/><path d="M155.2188,152.9406 Q154.6406,153.2375 154,153.3781 Q153.3594,153.5344 152.6563,153.5344 Q150.1563,153.5344 148.8281,151.8937 Q147.5156,150.2375 147.5156,147.1125 Q147.5156,143.9875 148.8281,142.3312 Q150.1563,140.675 152.6563,140.675 Q153.3594,140.675 154,140.8312 Q154.6563,140.9875 155.2188,141.2844 L155.2188,144.0031 Q154.5938,143.425 154,143.1594 Q153.4063,142.8781 152.7813,142.8781 Q151.4375,142.8781 150.75,143.9562 Q150.0625,145.0187 150.0625,147.1125 Q150.0625,149.2062 150.75,150.2844 Q151.4375,151.3469 152.7813,151.3469 Q153.4063,151.3469 154,151.0812 Q154.5938,150.8 155.2188,150.2219 L155.2188,152.9406 Z " fill="#000000"/><text fill="#000000" font-family="sans-serif" font-size="14" lengthAdjust="spacing" textLength="79" x="172.75" y="152.1467">NodeGraph</text><line style="stroke:#181818;stroke-width:0.5;" x1="103.5" x2="288.5" y1="163.3" y2="163.3"/><text fill="#000000" font-family="sans-serif" font-size="14" lengthAdjust="spacing" textLength="136" x="108.5" y="180.2951">nodes: set&lt;Node&gt;</text><text fill="#000000" font-family="sans-serif" font-size="14" lengthAdjust="spacing" textLength="175" x="108.5" y="196.592">edges: set&lt;NodeTuple&gt;</text><line style="stroke:#181818;stroke-width:0.5;" x1="103.5" x2="288.5" y1="203.8937" y2="203.8937"/></g><!--class NodeTuple--><g id="elem_NodeTuple"><rect codeLine="101" fill="#F1F1F1" height="113.1875" id="NodeTuple" rx="2.5" ry="2.5" style="stroke:#181818;stroke-width:0.5;" width="197" x="173.5" y="271.89"/><ellipse cx="229.75" cy="287.89" fill="#ADD1B2" rx="11" ry="11" style="stroke:#181818;stroke-width:1.0;"/><path d="M232.7188,293.5306 Q232.1406,293.8275 231.5,293.9681 Q230.8594,294.1244 230.1563,294.1244 Q227.6563,294.1244 226.3281,292.4837 Q225.0156,290.8275 225.0156,287.7025 Q225.0156,284.5775 226.3281,282.9212 Q227.6563,281.265 230.1563,281.265 Q230.8594,281.265 231.5,281.4212 Q232.1563,281.5775 232.7188,281.8744 L232.7188,284.5931 Q232.0938,284.015 231.5,283.7494 Q230.9063,283.4681 230.2813,283.4681 Q228.9375,283.4681 228.25,284.5462 Q227.5625,285.6087 227.5625,287.7025 Q227.5625,289.7962 228.25,290.8744 Q228.9375,291.9369 230.2813,291.9369 Q230.9063,291.9369 231.5,291.6712 Q232.0938,291.39 232.7188,290.8119 L232.7188,293.5306 Z " fill="#000000"/><text fill="#000000" font-family="sans-serif" font-size="14" lengthAdjust="spacing" textLength="76" x="250.25" y="292.7367">NodeTuple</text><line style="stroke:#181818;stroke-width:0.5;" x1="174.5" x2="369.5" y1="303.89" y2="303.89"/><polygon fill="none" points="184.5,312.5384,188.5,316.5384,184.5,320.5384,180.5,316.5384" style="stroke:#B38D22;stroke-width:1.0;"/><text fill="#000000" font-family="sans-serif" font-size="14" lengthAdjust="spacing" textLength="116" x="193.5" y="320.8851">out_node : Node</text><polygon fill="none" points="184.5,328.8353,188.5,332.8353,184.5,336.8353,180.5,332.8353" style="stroke:#B38D22;stroke-width:1.0;"/><text fill="#000000" font-family="sans-serif" font-size="14" lengthAdjust="spacing" textLength="105" x="193.5" y="337.182">in_node : Node</text><line style="stroke:#181818;stroke-width:0.5;" x1="174.5" x2="369.5" y1="344.4837" y2="344.4837"/><ellipse cx="184.5" cy="358.1322" fill="#84BE84" rx="3" ry="3" style="stroke:#038048;stroke-width:1.0;"/><text fill="#000000" font-family="sans-serif" font-size="14" lengthAdjust="spacing" textLength="102" x="193.5" y="361.4789">__hash__() : int</text><ellipse cx="184.5" cy="374.4291" fill="#84BE84" rx="3" ry="3" style="stroke:#038048;stroke-width:1.0;"/><text fill="#000000" font-family="sans-serif" font-size="14" lengthAdjust="spacing" textLength="171" x="193.5" y="377.7757">__eq__(NodeTuple): bool</text></g><!--link PUMLGraph to PUMLNode--><g id="link_PUMLGraph_PUMLNode"><path codeLine="69" d="M434.09,862.2 C418.55,880.09 404.72,900.22 396,921.83 C377.18,968.48 379.61,987.45 396,1035.01 C411.18,1079.08 438.6825,1116.0892 467.4725,1147.3092 " fill="none" id="PUMLGraph-to-PUMLNode" style="stroke:#181818;stroke-width:1.0;stroke-dasharray:7.0,7.0;"/><polygon fill="#181818" points="471.54,1151.72,468.3793,1142.3921,468.1504,1148.0443,462.4982,1147.8154,471.54,1151.72" style="stroke:#181818;stroke-width:1.0;"/></g><!--link PUMLGraph to PUMLEventNode--><g id="link_PUMLGraph_PUMLEventNode"><path codeLine="70" d="M537.06,699.27 C535.55,669.28 533.2912,641.6235 529.3812,613.3235 " fill="none" id="PUMLGraph-to-PUMLEventNode" style="stroke:#181818;stroke-width:1.0;stroke-dasharray:7.0,7.0;"/><polygon fill="#181818" points="528.56,607.38,525.8294,616.8428,529.2443,612.333,533.7541,615.7479,528.56,607.38" style="stroke:#181818;stroke-width:1.0;"/></g><!--link PUMLEventNode to PUMLGraph--><g id="link_PUMLEventNode_PUMLGraph"><path codeLine="76" d="M504.94,607.38 C505.9,635.68 507.8225,663.3207 511.3325,693.3107 " fill="none" id="PUMLEventNode-to-PUMLGraph" style="stroke:#181818;stroke-width:1.0;stroke-dasharray:7.0,7.0;"/><polygon fill="#181818" points="512.03,699.27,514.9567,689.866,511.4488,694.3039,507.0109,690.796,512.03,699.27" style="stroke:#181818;stroke-width:1.0;"/></g><!--link PUMLGraph to PUMLNodeTuple--><g id="link_PUMLGraph_PUMLNodeTuple"><path codeLine="71" d="M531,862.21 C531,882.12 531,897.04 531,915.5 " fill="none" id="PUMLGraph-to-PUMLNodeTuple" style="stroke:#181818;stroke-width:1.0;stroke-dasharray:7.0,7.0;"/><polygon fill="#181818" points="531,921.5,535,912.5,531,916.5,527,912.5,531,921.5" style="stroke:#181818;stroke-width:1.0;"/></g><!--link PUMLNodeTuple to PUMLNode--><g id="link_PUMLNodeTuple_PUMLNode"><path codeLine="72" d="M531,1035.25 C531,1070.62 531,1110.19 531,1145.6 " fill="none" id="PUMLNodeTuple-to-PUMLNode" style="stroke:#181818;stroke-width:1.0;stroke-dasharray:7.0,7.0;"/><polygon fill="#181818" points="531,1151.6,535,1142.6,531,1146.6,527,1142.6,531,1151.6" style="stroke:#181818;stroke-width:1.0;"/></g><!--link PUMLEventNode to PUMLNode--><g id="link_PUMLEventNode_PUMLNode"><path codeLine="73" d="M357.71,607.49 C320.44,630.8 285.23,661.18 264,699.75 C229.26,762.85 243.89,792.66 264,861.83 C298.67,981.09 385.042,1077.0294 452.292,1139.4994 " fill="none" id="PUMLEventNode-to-PUMLNode" style="stroke:#181818;stroke-width:1.0;"/><polygon fill="none" points="465.48,1151.75,456.3756,1135.1034,448.2085,1143.8954,465.48,1151.75" style="stroke:#181818;stroke-width:1.0;"/></g><!--link PUMLOperatorNode to PUMLNode--><g id="link_PUMLOperatorNode_PUMLNode"><path codeLine="74" d="M883.5,1027.26 C812.62,1063.54 731.0437,1105.28 656.5137,1143.42 " fill="none" id="PUMLOperatorNode-to-PUMLNode" style="stroke:#181818;stroke-width:1.0;"/><polygon fill="none" points="640.49,1151.62,659.2471,1148.7613,653.7804,1138.0788,640.49,1151.62" style="stroke:#181818;stroke-width:1.0;"/></g><!--link PUMLKillNode to PUMLNode--><g id="link_PUMLKillNode_PUMLNode"><path codeLine="75" d="M716.56,1010.68 C682.4,1046.93 637.773,1094.3085 595.953,1138.6985 " fill="none" id="PUMLKillNode-to-PUMLNode" style="stroke:#181818;stroke-width:1.0;"/><polygon fill="none" points="583.61,1151.8,600.3202,1142.8128,591.5858,1134.5841,583.61,1151.8" style="stroke:#181818;stroke-width:1.0;"/></g><!--link PUMLEventNode to PUMLEvent--><g id="link_PUMLEventNode_PUMLEvent"><path codeLine="77" d="M362.37,607.54 C309.99,633.03 252,664.66 203,699.75 C193.78,706.35 189.0496,709.9549 180.3496,717.8249 " fill="none" id="PUMLEventNode-to-PUMLEvent" style="stroke:#181818;stroke-width:1.0;stroke-dasharray:7.0,7.0;"/><polygon fill="#181818" points="175.9,721.85,185.2578,718.7788,179.608,718.4958,179.891,712.846,175.9,721.85" style="stroke:#181818;stroke-width:1.0;"/></g><!--link PUMLOperatorNode to PUMLOperatorNodes--><g id="link_PUMLOperatorNode_PUMLOperatorNodes"><path codeLine="78" d="M977,1027.26 C977,1047 977,1064.79 977,1088.51 " fill="none" id="PUMLOperatorNode-to-PUMLOperatorNodes" style="stroke:#181818;stroke-width:1.0;stroke-dasharray:7.0,7.0;"/><polygon fill="#181818" points="977,1094.51,981,1085.51,977,1089.51,973,1085.51,977,1094.51" style="stroke:#181818;stroke-width:1.0;"/></g><!--link NodeGraph to Node--><g id="link_NodeGraph_Node"><path codeLine="110" d="M177.27,212.39 C169.59,230.23 161.27,251.75 156,271.89 C141.24,328.26 133.1579,386.9979 128.1379,438.8779 " fill="none" id="NodeGraph-to-Node" style="stroke:#181818;stroke-width:1.0;stroke-dasharray:7.0,7.0;"/><polygon fill="#181818" points="127.56,444.85,132.4082,436.2771,128.0416,439.8732,124.4454,435.5066,127.56,444.85" style="stroke:#181818;stroke-width:1.0;"/></g><!--link NodeGraph to NodeTuple--><g id="link_NodeGraph_NodeTuple"><path codeLine="111" d="M215.37,212.08 C224.21,230.09 232.1962,246.3639 241.8462,266.0239 " fill="none" id="NodeGraph-to-NodeTuple" style="stroke:#181818;stroke-width:1.0;stroke-dasharray:7.0,7.0;"/><polygon fill="#181818" points="244.49,271.41,244.1151,261.5683,242.2869,266.9215,236.9336,265.0933,244.49,271.41" style="stroke:#181818;stroke-width:1.0;"/></g><!--link NodeTuple to Node--><g id="link_NodeTuple_Node"><path codeLine="112" d="M232.13,385.44 C219.11,403.71 207.7415,419.6734 193.2215,440.0534 " fill="none" id="NodeTuple-to-Node" style="stroke:#181818;stroke-width:1.0;stroke-dasharray:7.0,7.0;"/><polygon fill="#181818" points="189.74,444.94,198.22,439.9311,192.6413,440.8678,191.7046,435.2891,189.74,444.94" style="stroke:#181818;stroke-width:1.0;"/></g><!--link SubGraphNode to Node--><g id="link_SubGraphNode_Node"><path codeLine="113" d="M106.24,71.65 C98.07,88.77 89.14,110.62 85,131.3 C63.79,237.3 76.6272,343.5602 93.6172,427.2102 " fill="none" id="SubGraphNode-to-Node" style="stroke:#181818;stroke-width:1.0;"/><polygon fill="none" points="97.2,444.85,99.4971,426.0159,87.7373,428.4044,97.2,444.85" style="stroke:#181818;stroke-width:1.0;"/></g><!--link SubGraphNode to NodeGraph--><g id="link_SubGraphNode_NodeGraph"><path codeLine="114" d="M140.67,71.72 C150.63,89.52 160.2291,106.6846 170.8491,125.6546 " fill="none" id="SubGraphNode-to-NodeGraph" style="stroke:#181818;stroke-width:1.0;stroke-dasharray:7.0,7.0;"/><polygon fill="#181818" points="173.78,130.89,172.8739,121.0829,171.3375,126.5272,165.8933,124.9908,173.78,130.89" style="stroke:#181818;stroke-width:1.0;"/></g><!--link Node to PUMLEvent--><g id="link_Node_PUMLEvent"><path codeLine="115" d="M121,640.24 C121,665.74 121,686.61 121,709.89 " fill="none" id="Node-to-PUMLEvent" style="stroke:#181818;stroke-width:1.0;stroke-dasharray:7.0,7.0;"/><polygon fill="#181818" points="121,715.89,125,706.89,121,710.89,117,706.89,121,715.89" style="stroke:#181818;stroke-width:1.0;"/></g><!--SRC=[ZLHjQzim4FxkNo7ObuOc_G6c1BmrDD2yaMOmA4NOZfg8EbPcoLl7cly-wIHPakMovaEGxqxFFNVtd4ZTdj3c-t8n-qLgWVucIFvMw-qoMy3nwpPRVPl3SJdRti-CSPOzm6cnNc-IIv8G2xC-aoONh5cnFU4I3g8UTzbsXt-ij_2roNRpxcEskklEEYnRtRam-w72x5c7-M0ULW05xAp7KatAAkSSo2gIfkHQ7Z7TfsYUysDULCHPnPypIH4N3PZ8csXoJEiNbg8zBSMjT8nHmLWr1V_rxuOAWjjJXOkAbQ_yYjPYZEJVA4KLvU99NdW6WsBZoC00F4P5azVb4Sl65gH98LwPULlWGvEVZodSkbT7JKpT1x9SiYNYjWCrnB1aJGN6Ly0OM8LXOuTe_BOP8q2OO5sRpkIgymiBQ_BLOCfYncJQ6cccnpNowrO6V3h8pr1we5NbqN6P03O8XKxu-YXPMmjkvcvx0uIc_iXic1tPgqmP6Szvexe8eyGAdMF1u80RyXBbU7eED38DjQ01UcDtSMH_yBtAiMlFbV7sxkfhb_wUm0NJZ2-i5P0IfPrVEsWzQ9TTFifIP9T7oBL0MibFC-CkXPoSMYP5mCtWvcRg06DpL-u7Lm0u2Ik98Dt-JIRlFL-WuzZTQIfsELIRK6_ii0yiSKRh3XV53CWJSwiUiEwXwju3iA5t6LcJO0SZn__U45gNx4JhGohrs0rNYk70-aORYIjseELW_82BSin5MpW9w18VsmAwvfNgFOFAgfjwyNlItrvJqU1MU1iHO7ma-Y71VrBiGq9F4aTOpHgWOfEMSIXX20tw0ngCpJPOTofMtJy0]--></g></svg>