<?xml version="1.0" encoding="us-ascii" standalone="no"?><svg xmlns="http://www.w3.org/2000/svg" xmlns:xlink="http://www.w3.org/1999/xlink" contentStyleType="text/css" height="458px" preserveAspectRatio="none" style="width:335px;height:458px;background:#FFFFFF;" version="1.1" viewBox="0 0 335 458" width="335px" zoomAndPan="magnify"><defs/><g><rect fill="none" height="436.0781" style="stroke:#000000;stroke-width:1.5;" width="313.25" x="11" y="11"/><path d="M217,11 L217,20.2969 L207,30.2969 L11,30.2969 " fill="none" style="stroke:#000000;stroke-width:1.5;"/><text fill="#000000" font-family="sans-serif" font-size="14" lengthAdjust="spacing" textLength="196" x="14" y="24.9951">bunched_XORFork_XORFork</text><rect fill="none" height="394.7813" style="stroke:#000000;stroke-width:1.5;" width="293.25" x="21" y="40.2969"/><path d="M227,40.2969 L227,49.5938 L217,59.5938 L21,59.5938 " fill="none" style="stroke:#000000;stroke-width:1.5;"/><text fill="#000000" font-family="sans-serif" font-size="14" lengthAdjust="spacing" textLength="196" x="24" y="54.292">bunched_XORFork_XORFork</text><rect fill="#008000" height="33.9688" rx="12.5" ry="12.5" style="stroke:#181818;stroke-width:0.5;" width="28" x="153.5" y="69.5938"/><text fill="#000000" font-family="sans-serif" font-size="12" lengthAdjust="spacing" textLength="8" x="163.5" y="90.7324">A</text><polygon fill="#F1F1F1" points="155.5,123.5625,179.5,123.5625,191.5,135.5625,179.5,147.5625,155.5,147.5625,143.5,135.5625,155.5,123.5625" style="stroke:#181818;stroke-width:0.5;"/><text fill="#000000" font-family="sans-serif" font-size="11" lengthAdjust="spacing" textLength="23" x="156" y="139.3706">XOR</text><polygon fill="#F1F1F1" points="69.5,183.1719,93.5,183.1719,105.5,195.1719,93.5,207.1719,69.5,207.1719,57.5,195.1719,69.5,183.1719" style="stroke:#181818;stroke-width:0.5;"/><text fill="#000000" font-family="sans-serif" font-size="11" lengthAdjust="spacing" textLength="23" x="70" y="198.98">XOR</text><text fill="#000000" font-family="sans-serif" font-size="11" lengthAdjust="spacing" textLength="23" x="34.5" y="192.5776">true</text><text fill="#000000" font-family="sans-serif" font-size="11" lengthAdjust="spacing" textLength="28" x="105.5" y="192.5776">false</text><rect fill="#F1F1F1" height="33.9688" rx="12.5" ry="12.5" style="stroke:#181818;stroke-width:0.5;" width="29" x="33" y="217.1719"/><text fill="#000000" font-family="sans-serif" font-size="12" lengthAdjust="spacing" textLength="9" x="43" y="238.3105">D</text><rect fill="#F1F1F1" height="33.9688" rx="12.5" ry="12.5" style="stroke:#181818;stroke-width:0.5;" width="28" x="101.5" y="217.1719"/><text fill="#000000" font-family="sans-serif" font-size="12" lengthAdjust="spacing" textLength="8" x="111.5" y="238.3105">E</text><polygon fill="#F1F1F1" points="81.5,257.1406,93.5,269.1406,81.5,281.1406,69.5,269.1406,81.5,257.1406" style="stroke:#181818;stroke-width:0.5;"/><rect fill="#F1F1F1" height="33.9688" rx="12.5" ry="12.5" style="stroke:#181818;stroke-width:0.5;" width="28" x="67.5" y="301.1406"/><text fill="#000000" font-family="sans-serif" font-size="12" lengthAdjust="spacing" textLength="8" x="77.5" y="322.2793">B</text><polygon fill="#F1F1F1" points="198.75,183.1719,222.75,183.1719,234.75,195.1719,222.75,207.1719,198.75,207.1719,186.75,195.1719,198.75,183.1719" style="stroke:#181818;stroke-width:0.5;"/><text fill="#000000" font-family="sans-serif" font-size="11" lengthAdjust="spacing" textLength="23" x="199.25" y="198.98">XOR</text><text fill="#000000" font-family="sans-serif" font-size="11" lengthAdjust="spacing" textLength="23" x="163.75" y="192.5776">true</text><text fill="#000000" font-family="sans-serif" font-size="11" lengthAdjust="spacing" textLength="28" x="234.75" y="192.5776">false</text><rect fill="#F1F1F1" height="33.9688" rx="12.5" ry="12.5" style="stroke:#181818;stroke-width:0.5;" width="27" x="163.25" y="217.1719"/><text fill="#000000" font-family="sans-serif" font-size="12" lengthAdjust="spacing" textLength="7" x="173.25" y="238.3105">F</text><rect fill="#F1F1F1" height="33.9688" rx="12.5" ry="12.5" style="stroke:#181818;stroke-width:0.5;" width="29" x="230.25" y="217.1719"/><text fill="#000000" font-family="sans-serif" font-size="12" lengthAdjust="spacing" textLength="9" x="240.25" y="238.3105">G</text><polygon fill="#F1F1F1" points="210.75,257.1406,222.75,269.1406,210.75,281.1406,198.75,269.1406,210.75,257.1406" style="stroke:#181818;stroke-width:0.5;"/><rect fill="#F1F1F1" height="33.9688" rx="12.5" ry="12.5" style="stroke:#181818;stroke-width:0.5;" width="28" x="196.75" y="301.1406"/><text fill="#000000" font-family="sans-serif" font-size="12" lengthAdjust="spacing" textLength="8" x="206.75" y="322.2793">C</text><rect fill="#F1F1F1" height="33.9688" rx="12.5" ry="12.5" style="stroke:#181818;stroke-width:0.5;" width="29" x="272.75" y="183.1719"/><text fill="#000000" font-family="sans-serif" font-size="12" lengthAdjust="spacing" textLength="9" x="282.75" y="204.3105">H</text><polygon fill="#F1F1F1" points="167.5,345.1094,167.5,345.1094,179.5,357.1094,167.5,369.1094,167.5,369.1094,155.5,357.1094,167.5,345.1094" style="stroke:#181818;stroke-width:0.5;"/><rect fill="#FF0000" height="33.9688" rx="12.5" ry="12.5" style="stroke:#181818;stroke-width:0.5;" width="23" x="156" y="389.1094"/><text fill="#000000" font-family="sans-serif" font-size="12" lengthAdjust="spacing" textLength="3" x="166" y="410.248">I</text><line style="stroke:#181818;stroke-width:1.0;" x1="57.5" x2="47.5" y1="195.1719" y2="195.1719"/><line style="stroke:#181818;stroke-width:1.0;" x1="47.5" x2="47.5" y1="195.1719" y2="217.1719"/><polygon fill="#181818" points="43.5,207.1719,47.5,217.1719,51.5,207.1719,47.5,211.1719" style="stroke:#181818;stroke-width:1.0;"/><line style="stroke:#181818;stroke-width:1.0;" x1="105.5" x2="115.5" y1="195.1719" y2="195.1719"/><line style="stroke:#181818;stroke-width:1.0;" x1="115.5" x2="115.5" y1="195.1719" y2="217.1719"/><polygon fill="#181818" points="111.5,207.1719,115.5,217.1719,119.5,207.1719,115.5,211.1719" style="stroke:#181818;stroke-width:1.0;"/><line style="stroke:#181818;stroke-width:1.0;" x1="47.5" x2="47.5" y1="251.1406" y2="269.1406"/><line style="stroke:#181818;stroke-width:1.0;" x1="47.5" x2="69.5" y1="269.1406" y2="269.1406"/><polygon fill="#181818" points="59.5,265.1406,69.5,269.1406,59.5,273.1406,63.5,269.1406" style="stroke:#181818;stroke-width:1.0;"/><line style="stroke:#181818;stroke-width:1.0;" x1="115.5" x2="115.5" y1="251.1406" y2="269.1406"/><line style="stroke:#181818;stroke-width:1.0;" x1="115.5" x2="93.5" y1="269.1406" y2="269.1406"/><polygon fill="#181818" points="103.5,265.1406,93.5,269.1406,103.5,273.1406,99.5,269.1406" style="stroke:#181818;stroke-width:1.0;"/><line style="stroke:#181818;stroke-width:1.0;" x1="81.5" x2="81.5" y1="281.1406" y2="301.1406"/><polygon fill="#181818" points="77.5,291.1406,81.5,301.1406,85.5,291.1406,81.5,295.1406" style="stroke:#181818;stroke-width:1.0;"/><line style="stroke:#181818;stroke-width:1.0;" x1="186.75" x2="176.75" y1="195.1719" y2="195.1719"/><line style="stroke:#181818;stroke-width:1.0;" x1="176.75" x2="176.75" y1="195.1719" y2="217.1719"/><polygon fill="#181818" points="172.75,207.1719,176.75,217.1719,180.75,207.1719,176.75,211.1719" style="stroke:#181818;stroke-width:1.0;"/><line style="stroke:#181818;stroke-width:1.0;" x1="234.75" x2="244.75" y1="195.1719" y2="195.1719"/><line style="stroke:#181818;stroke-width:1.0;" x1="244.75" x2="244.75" y1="195.1719" y2="217.1719"/><polygon fill="#181818" points="240.75,207.1719,244.75,217.1719,248.75,207.1719,244.75,211.1719" style="stroke:#181818;stroke-width:1.0;"/><line style="stroke:#181818;stroke-width:1.0;" x1="176.75" x2="176.75" y1="251.1406" y2="269.1406"/><line style="stroke:#181818;stroke-width:1.0;" x1="176.75" x2="198.75" y1="269.1406" y2="269.1406"/><polygon fill="#181818" points="188.75,265.1406,198.75,269.1406,188.75,273.1406,192.75,269.1406" style="stroke:#181818;stroke-width:1.0;"/><line style="stroke:#181818;stroke-width:1.0;" x1="244.75" x2="244.75" y1="251.1406" y2="269.1406"/><line style="stroke:#181818;stroke-width:1.0;" x1="244.75" x2="222.75" y1="269.1406" y2="269.1406"/><polygon fill="#181818" points="232.75,265.1406,222.75,269.1406,232.75,273.1406,228.75,269.1406" style="stroke:#181818;stroke-width:1.0;"/><line style="stroke:#181818;stroke-width:1.0;" x1="210.75" x2="210.75" y1="281.1406" y2="301.1406"/><polygon fill="#181818" points="206.75,291.1406,210.75,301.1406,214.75,291.1406,210.75,295.1406" style="stroke:#181818;stroke-width:1.0;"/><line style="stroke:#181818;stroke-width:1.0;" x1="143.5" x2="81.5" y1="135.5625" y2="135.5625"/><line style="stroke:#181818;stroke-width:1.0;" x1="81.5" x2="81.5" y1="135.5625" y2="183.1719"/><polygon fill="#181818" points="77.5,173.1719,81.5,183.1719,85.5,173.1719,81.5,177.1719" style="stroke:#181818;stroke-width:1.0;"/><text fill="#000000" font-family="sans-serif" font-size="11" lengthAdjust="spacing" textLength="17" x="81.5" y="163.1753">"1"</text><line style="stroke:#181818;stroke-width:1.0;" x1="191.5" x2="287.25" y1="135.5625" y2="135.5625"/><line style="stroke:#181818;stroke-width:1.0;" x1="287.25" x2="287.25" y1="135.5625" y2="183.1719"/><polygon fill="#181818" points="283.25,173.1719,287.25,183.1719,291.25,173.1719,287.25,177.1719" style="stroke:#181818;stroke-width:1.0;"/><text fill="#000000" font-family="sans-serif" font-size="11" lengthAdjust="spacing" textLength="17" x="287.25" y="163.1753">"3"</text><line style="stroke:#181818;stroke-width:1.0;" x1="210.75" x2="210.75" y1="135.5625" y2="183.1719"/><polygon fill="#181818" points="206.75,173.1719,210.75,183.1719,214.75,173.1719,210.75,177.1719" style="stroke:#181818;stroke-width:1.0;"/><text fill="#000000" font-family="sans-serif" font-size="11" lengthAdjust="spacing" textLength="17" x="210.75" y="158.1753">"2"</text><line style="stroke:#181818;stroke-width:1.0;" x1="81.5" x2="81.5" y1="335.1094" y2="357.1094"/><line style="stroke:#181818;stroke-width:1.0;" x1="81.5" x2="155.5" y1="357.1094" y2="357.1094"/><polygon fill="#181818" points="145.5,353.1094,155.5,357.1094,145.5,361.1094,149.5,357.1094" style="stroke:#181818;stroke-width:1.0;"/><line style="stroke:#181818;stroke-width:1.0;" x1="210.75" x2="210.75" y1="335.1094" y2="357.1094"/><line style="stroke:#181818;stroke-width:1.0;" x1="210.75" x2="179.5" y1="357.1094" y2="357.1094"/><polygon fill="#181818" points="189.5,353.1094,179.5,357.1094,189.5,361.1094,185.5,357.1094" style="stroke:#181818;stroke-width:1.0;"/><line style="stroke:#181818;stroke-width:1.0;" x1="167.5" x2="167.5" y1="103.5625" y2="123.5625"/><polygon fill="#181818" points="163.5,113.5625,167.5,123.5625,171.5,113.5625,167.5,117.5625" style="stroke:#181818;stroke-width:1.0;"/><line style="stroke:#181818;stroke-width:1.0;" x1="167.5" x2="167.5" y1="369.1094" y2="389.1094"/><polygon fill="#181818" points="163.5,379.1094,167.5,389.1094,171.5,379.1094,167.5,383.1094" style="stroke:#181818;stroke-width:1.0;"/><!--SRC=[AqWiAiaioSpFKr1AAirBpaXDYO_m3tBBByg6qKeArLmAG91Ub5zQW5iLM0q8AASNfQRcMJbQmqMAopDBaZCKD81ADU62892SM9ogeA5ag8Gg30APQH3r2YKPgNaA6YL5fQcOYa30oiKQGpmr1sHkMYAGmg795Okcl9JCD0nHAoThR4useiZ9RkGusPre9pjZTR8n5YTRUM0QcfsPayE5P0CazX3HMvIQOkK9qGQKXIGBhbe0]--></g></svg>