<?xml version="1.0" encoding="us-ascii" standalone="no"?><svg xmlns="http://www.w3.org/2000/svg" xmlns:xlink="http://www.w3.org/1999/xlink" contentStyleType="text/css" height="562px" preserveAspectRatio="none" style="width:360px;height:562px;background:#FFFFFF;" version="1.1" viewBox="0 0 360 562" width="360px" zoomAndPan="magnify"><defs/><g><rect fill="none" height="540.6406" style="stroke:#000000;stroke-width:1.5;" width="338.5" x="11" y="11"/><path d="M178,11 L178,20.4883 L168,30.4883 L11,30.4883 " fill="none" style="stroke:#000000;stroke-width:1.5;"/><text fill="#000000" font-family="sans-serif" font-size="14" lengthAdjust="spacing" textLength="157" x="14" y="25.5352">bunched_XOR_3_levels</text><rect fill="none" height="499.1523" style="stroke:#000000;stroke-width:1.5;" width="318.5" x="21" y="40.4883"/><path d="M188,40.4883 L188,49.9766 L178,59.9766 L21,59.9766 " fill="none" style="stroke:#000000;stroke-width:1.5;"/><text fill="#000000" font-family="sans-serif" font-size="14" lengthAdjust="spacing" textLength="157" x="24" y="55.0234">bunched_XOR_3_levels</text><rect fill="#008000" height="34.1328" rx="12.5" ry="12.5" style="stroke:#181818;stroke-width:0.5;" width="28" x="189" y="69.9766"/><text fill="#000000" font-family="sans-serif" font-size="12" lengthAdjust="spacing" textLength="8" x="199" y="91.5781">A</text><polygon fill="#F1F1F1" points="191,124.1094,215,124.1094,227,136.1094,215,148.1094,191,148.1094,179,136.1094,191,124.1094" style="stroke:#181818;stroke-width:0.5;"/><text fill="#000000" font-family="sans-serif" font-size="11" lengthAdjust="spacing" textLength="23" x="191.5" y="140.2666">XOR</text><text fill="#000000" font-family="sans-serif" font-size="11" lengthAdjust="spacing" textLength="22" x="157" y="133.7891">true</text><polygon fill="#F1F1F1" points="115.5,158.1094,139.5,158.1094,151.5,170.1094,139.5,182.1094,115.5,182.1094,103.5,170.1094,115.5,158.1094" style="stroke:#181818;stroke-width:0.5;"/><text fill="#000000" font-family="sans-serif" font-size="11" lengthAdjust="spacing" textLength="23" x="116" y="174.2666">XOR</text><text fill="#000000" font-family="sans-serif" font-size="11" lengthAdjust="spacing" textLength="22" x="81.5" y="167.7891">true</text><text fill="#000000" font-family="sans-serif" font-size="11" lengthAdjust="spacing" textLength="25" x="151.5" y="167.7891">false</text><polygon fill="#F1F1F1" points="68.5,192.1094,92.5,192.1094,104.5,204.1094,92.5,216.1094,68.5,216.1094,56.5,204.1094,68.5,192.1094" style="stroke:#181818;stroke-width:0.5;"/><text fill="#000000" font-family="sans-serif" font-size="11" lengthAdjust="spacing" textLength="23" x="69" y="208.2666">XOR</text><text fill="#000000" font-family="sans-serif" font-size="11" lengthAdjust="spacing" textLength="22" x="34.5" y="201.7891">true</text><text fill="#000000" font-family="sans-serif" font-size="11" lengthAdjust="spacing" textLength="25" x="104.5" y="201.7891">false</text><rect fill="#F1F1F1" height="34.1328" rx="12.5" ry="12.5" style="stroke:#181818;stroke-width:0.5;" width="27" x="33" y="226.1094"/><text fill="#000000" font-family="sans-serif" font-size="12" lengthAdjust="spacing" textLength="7" x="43" y="247.7109">B</text><rect fill="#F1F1F1" height="34.1328" rx="12.5" ry="12.5" style="stroke:#181818;stroke-width:0.5;" width="28" x="100.5" y="226.1094"/><text fill="#000000" font-family="sans-serif" font-size="12" lengthAdjust="spacing" textLength="8" x="110.5" y="247.7109">C</text><polygon fill="#F1F1F1" points="80.5,266.2422,92.5,278.2422,80.5,290.2422,68.5,278.2422,80.5,266.2422" style="stroke:#181818;stroke-width:0.5;"/><rect fill="#F1F1F1" height="34.1328" rx="12.5" ry="12.5" style="stroke:#181818;stroke-width:0.5;" width="29" x="66" y="325.2422"/><text fill="#000000" font-family="sans-serif" font-size="12" lengthAdjust="spacing" textLength="9" x="76" y="346.8438">D</text><rect fill="#F1F1F1" height="34.1328" rx="12.5" ry="12.5" style="stroke:#181818;stroke-width:0.5;" width="27" x="161" y="192.1094"/><text fill="#000000" font-family="sans-serif" font-size="12" lengthAdjust="spacing" textLength="7" x="171" y="213.7109">E</text><polygon fill="#F1F1F1" points="127.5,365.375,139.5,377.375,127.5,389.375,115.5,377.375,127.5,365.375" style="stroke:#181818;stroke-width:0.5;"/><rect fill="#F1F1F1" height="34.1328" rx="12.5" ry="12.5" style="stroke:#181818;stroke-width:0.5;" width="26" x="114.5" y="409.375"/><text fill="#000000" font-family="sans-serif" font-size="12" lengthAdjust="spacing" textLength="6" x="124.5" y="430.9766">F</text><polygon fill="#F1F1F1" points="266.5,158.1094,290.5,158.1094,302.5,170.1094,290.5,182.1094,266.5,182.1094,254.5,170.1094,266.5,158.1094" style="stroke:#181818;stroke-width:0.5;"/><text fill="#000000" font-family="sans-serif" font-size="11" lengthAdjust="spacing" textLength="23" x="267" y="174.2666">XOR</text><text fill="#000000" font-family="sans-serif" font-size="11" lengthAdjust="spacing" textLength="22" x="232.5" y="167.7891">true</text><text fill="#000000" font-family="sans-serif" font-size="11" lengthAdjust="spacing" textLength="25" x="302.5" y="167.7891">false</text><rect fill="#F1F1F1" height="34.1328" rx="12.5" ry="12.5" style="stroke:#181818;stroke-width:0.5;" width="29" x="230" y="192.1094"/><text fill="#000000" font-family="sans-serif" font-size="12" lengthAdjust="spacing" textLength="9" x="240" y="213.7109">G</text><rect fill="#F1F1F1" height="34.1328" rx="12.5" ry="12.5" style="stroke:#181818;stroke-width:0.5;" width="29" x="298" y="192.1094"/><text fill="#000000" font-family="sans-serif" font-size="12" lengthAdjust="spacing" textLength="9" x="308" y="213.7109">H</text><polygon fill="#F1F1F1" points="278.5,232.2422,290.5,244.2422,278.5,256.2422,266.5,244.2422,278.5,232.2422" style="stroke:#181818;stroke-width:0.5;"/><rect fill="#F1F1F1" height="34.1328" rx="12.5" ry="12.5" style="stroke:#181818;stroke-width:0.5;" width="23" x="267" y="291.2422"/><text fill="#000000" font-family="sans-serif" font-size="12" lengthAdjust="spacing" textLength="3" x="277" y="312.8438">I</text><polygon fill="#F1F1F1" points="203,449.5078,215,461.5078,203,473.5078,191,461.5078,203,449.5078" style="stroke:#181818;stroke-width:0.5;"/><rect fill="#FF0000" height="34.1328" rx="12.5" ry="12.5" style="stroke:#181818;stroke-width:0.5;" width="24" x="191" y="493.5078"/><text fill="#000000" font-family="sans-serif" font-size="12" lengthAdjust="spacing" textLength="4" x="201" y="515.1094">J</text><line style="stroke:#181818;stroke-width:1.0;" x1="56.5" x2="46.5" y1="204.1094" y2="204.1094"/><line style="stroke:#181818;stroke-width:1.0;" x1="46.5" x2="46.5" y1="204.1094" y2="226.1094"/><polygon fill="#181818" points="42.5,216.1094,46.5,226.1094,50.5,216.1094,46.5,220.1094" style="stroke:#181818;stroke-width:1.0;"/><line style="stroke:#181818;stroke-width:1.0;" x1="104.5" x2="114.5" y1="204.1094" y2="204.1094"/><line style="stroke:#181818;stroke-width:1.0;" x1="114.5" x2="114.5" y1="204.1094" y2="226.1094"/><polygon fill="#181818" points="110.5,216.1094,114.5,226.1094,118.5,216.1094,114.5,220.1094" style="stroke:#181818;stroke-width:1.0;"/><line style="stroke:#181818;stroke-width:1.0;" x1="46.5" x2="46.5" y1="260.2422" y2="278.2422"/><line style="stroke:#181818;stroke-width:1.0;" x1="46.5" x2="68.5" y1="278.2422" y2="278.2422"/><polygon fill="#181818" points="58.5,274.2422,68.5,278.2422,58.5,282.2422,62.5,278.2422" style="stroke:#181818;stroke-width:1.0;"/><line style="stroke:#181818;stroke-width:1.0;" x1="114.5" x2="114.5" y1="260.2422" y2="278.2422"/><line style="stroke:#181818;stroke-width:1.0;" x1="114.5" x2="92.5" y1="278.2422" y2="278.2422"/><polygon fill="#181818" points="102.5,274.2422,92.5,278.2422,102.5,282.2422,98.5,278.2422" style="stroke:#181818;stroke-width:1.0;"/><line style="stroke:#181818;stroke-width:1.0;" x1="80.5" x2="80.5" y1="290.2422" y2="325.2422"/><polygon fill="#181818" points="76.5,315.2422,80.5,325.2422,84.5,315.2422,80.5,319.2422" style="stroke:#181818;stroke-width:1.0;"/><line style="stroke:#181818;stroke-width:1.0;" x1="103.5" x2="80.5" y1="170.1094" y2="170.1094"/><line style="stroke:#181818;stroke-width:1.0;" x1="80.5" x2="80.5" y1="170.1094" y2="192.1094"/><polygon fill="#181818" points="76.5,182.1094,80.5,192.1094,84.5,182.1094,80.5,186.1094" style="stroke:#181818;stroke-width:1.0;"/><line style="stroke:#181818;stroke-width:1.0;" x1="151.5" x2="174.5" y1="170.1094" y2="170.1094"/><line style="stroke:#181818;stroke-width:1.0;" x1="174.5" x2="174.5" y1="170.1094" y2="192.1094"/><polygon fill="#181818" points="170.5,182.1094,174.5,192.1094,178.5,182.1094,174.5,186.1094" style="stroke:#181818;stroke-width:1.0;"/><line style="stroke:#181818;stroke-width:1.0;" x1="80.5" x2="80.5" y1="359.375" y2="377.375"/><line style="stroke:#181818;stroke-width:1.0;" x1="80.5" x2="115.5" y1="377.375" y2="377.375"/><polygon fill="#181818" points="105.5,373.375,115.5,377.375,105.5,381.375,109.5,377.375" style="stroke:#181818;stroke-width:1.0;"/><line style="stroke:#181818;stroke-width:1.0;" x1="174.5" x2="174.5" y1="226.2422" y2="377.375"/><line style="stroke:#181818;stroke-width:1.0;" x1="174.5" x2="139.5" y1="377.375" y2="377.375"/><polygon fill="#181818" points="149.5,373.375,139.5,377.375,149.5,381.375,145.5,377.375" style="stroke:#181818;stroke-width:1.0;"/><line style="stroke:#181818;stroke-width:1.0;" x1="127.5" x2="127.5" y1="389.375" y2="409.375"/><polygon fill="#181818" points="123.5,399.375,127.5,409.375,131.5,399.375,127.5,403.375" style="stroke:#181818;stroke-width:1.0;"/><line style="stroke:#181818;stroke-width:1.0;" x1="254.5" x2="244.5" y1="170.1094" y2="170.1094"/><line style="stroke:#181818;stroke-width:1.0;" x1="244.5" x2="244.5" y1="170.1094" y2="192.1094"/><polygon fill="#181818" points="240.5,182.1094,244.5,192.1094,248.5,182.1094,244.5,186.1094" style="stroke:#181818;stroke-width:1.0;"/><line style="stroke:#181818;stroke-width:1.0;" x1="302.5" x2="312.5" y1="170.1094" y2="170.1094"/><line style="stroke:#181818;stroke-width:1.0;" x1="312.5" x2="312.5" y1="170.1094" y2="192.1094"/><polygon fill="#181818" points="308.5,182.1094,312.5,192.1094,316.5,182.1094,312.5,186.1094" style="stroke:#181818;stroke-width:1.0;"/><line style="stroke:#181818;stroke-width:1.0;" x1="244.5" x2="244.5" y1="226.2422" y2="244.2422"/><line style="stroke:#181818;stroke-width:1.0;" x1="244.5" x2="266.5" y1="244.2422" y2="244.2422"/><polygon fill="#181818" points="256.5,240.2422,266.5,244.2422,256.5,248.2422,260.5,244.2422" style="stroke:#181818;stroke-width:1.0;"/><line style="stroke:#181818;stroke-width:1.0;" x1="312.5" x2="312.5" y1="226.2422" y2="244.2422"/><line style="stroke:#181818;stroke-width:1.0;" x1="312.5" x2="290.5" y1="244.2422" y2="244.2422"/><polygon fill="#181818" points="300.5,240.2422,290.5,244.2422,300.5,248.2422,296.5,244.2422" style="stroke:#181818;stroke-width:1.0;"/><line style="stroke:#181818;stroke-width:1.0;" x1="278.5" x2="278.5" y1="256.2422" y2="291.2422"/><polygon fill="#181818" points="274.5,281.2422,278.5,291.2422,282.5,281.2422,278.5,285.2422" style="stroke:#181818;stroke-width:1.0;"/><line style="stroke:#181818;stroke-width:1.0;" x1="179" x2="127.5" y1="136.1094" y2="136.1094"/><line style="stroke:#181818;stroke-width:1.0;" x1="127.5" x2="127.5" y1="136.1094" y2="158.1094"/><polygon fill="#181818" points="123.5,148.1094,127.5,158.1094,131.5,148.1094,127.5,152.1094" style="stroke:#181818;stroke-width:1.0;"/><line style="stroke:#181818;stroke-width:1.0;" x1="227" x2="278.5" y1="136.1094" y2="136.1094"/><line style="stroke:#181818;stroke-width:1.0;" x1="278.5" x2="278.5" y1="136.1094" y2="158.1094"/><polygon fill="#181818" points="274.5,148.1094,278.5,158.1094,282.5,148.1094,278.5,152.1094" style="stroke:#181818;stroke-width:1.0;"/><line style="stroke:#181818;stroke-width:1.0;" x1="127.5" x2="127.5" y1="443.5078" y2="461.5078"/><line style="stroke:#181818;stroke-width:1.0;" x1="127.5" x2="191" y1="461.5078" y2="461.5078"/><polygon fill="#181818" points="181,457.5078,191,461.5078,181,465.5078,185,461.5078" style="stroke:#181818;stroke-width:1.0;"/><line style="stroke:#181818;stroke-width:1.0;" x1="278.5" x2="278.5" y1="325.375" y2="461.5078"/><line style="stroke:#181818;stroke-width:1.0;" x1="278.5" x2="215" y1="461.5078" y2="461.5078"/><polygon fill="#181818" points="225,457.5078,215,461.5078,225,465.5078,221,461.5078" style="stroke:#181818;stroke-width:1.0;"/><line style="stroke:#181818;stroke-width:1.0;" x1="203" x2="203" y1="104.1094" y2="124.1094"/><polygon fill="#181818" points="199,114.1094,203,124.1094,207,114.1094,203,118.1094" style="stroke:#181818;stroke-width:1.0;"/><line style="stroke:#181818;stroke-width:1.0;" x1="203" x2="203" y1="473.5078" y2="493.5078"/><polygon fill="#181818" points="199,483.5078,203,493.5078,207,483.5078,203,487.5078" style="stroke:#181818;stroke-width:1.0;"/><!--SRC=[AqWiAiaioSpFKr1AAirBpaXDYO_m3uetZiz9BKlDALPIgEPI08BqelpI0XnAm0f0G3czA3KrpyhH6YwIcQQW0LIhgL2IaPgde55IL9gg2PSaIW7HYa30oiaQGnpembG5ZRH488L3apCMJNafcMaOebOkg2hn6ctbYgOOmqWhDuGAa56a1uoLEoaEyY3e84ya1w78AXUbfbXvGMI1Cf3am5KB0000]--></g></svg>