<?xml version="1.0" encoding="us-ascii" standalone="no"?><svg xmlns="http://www.w3.org/2000/svg" xmlns:xlink="http://www.w3.org/1999/xlink" contentStyleType="text/css" height="535px" preserveAspectRatio="none" style="width:389px;height:535px;background:#FFFFFF;" version="1.1" viewBox="0 0 389 535" width="389px" zoomAndPan="magnify"><defs/><g><rect fill="none" height="513.207" style="stroke:#000000;stroke-width:1.5;" width="367" x="11" y="11"/><path d="M179,11 L179,20.4883 L169,30.4883 L11,30.4883 " fill="none" style="stroke:#000000;stroke-width:1.5;"/><text fill="#000000" font-family="sans-serif" font-size="14" lengthAdjust="spacing" textLength="158" x="14" y="25.5352">bunched_AND_3_levels</text><rect fill="none" height="471.7188" style="stroke:#000000;stroke-width:1.5;" width="347" x="21" y="40.4883"/><path d="M189,40.4883 L189,49.9766 L179,59.9766 L21,59.9766 " fill="none" style="stroke:#000000;stroke-width:1.5;"/><text fill="#000000" font-family="sans-serif" font-size="14" lengthAdjust="spacing" textLength="158" x="24" y="55.0234">bunched_AND_3_levels</text><rect fill="#008000" height="34.1328" rx="12.5" ry="12.5" style="stroke:#181818;stroke-width:0.5;" width="28" x="186" y="69.9766"/><text fill="#000000" font-family="sans-serif" font-size="12" lengthAdjust="spacing" textLength="8" x="196" y="91.5781">A</text><rect fill="#555555" height="6" rx="2.5" ry="2.5" style="stroke:#555555;stroke-width:1.0;" width="327" x="31" y="124.1094"/><rect fill="#555555" height="6" rx="2.5" ry="2.5" style="stroke:#555555;stroke-width:1.0;" width="183" x="43" y="150.1094"/><rect fill="#555555" height="6" rx="2.5" ry="2.5" style="stroke:#555555;stroke-width:1.0;" width="107" x="55" y="176.1094"/><rect fill="#F1F1F1" height="34.1328" rx="12.5" ry="12.5" style="stroke:#181818;stroke-width:0.5;" width="27" x="67" y="202.1094"/><text fill="#000000" font-family="sans-serif" font-size="12" lengthAdjust="spacing" textLength="7" x="77" y="223.7109">B</text><rect fill="#F1F1F1" height="34.1328" rx="12.5" ry="12.5" style="stroke:#181818;stroke-width:0.5;" width="28" x="122" y="202.1094"/><text fill="#000000" font-family="sans-serif" font-size="12" lengthAdjust="spacing" textLength="8" x="132" y="223.7109">C</text><rect fill="#555555" height="6" rx="2.5" ry="2.5" style="stroke:#555555;stroke-width:1.0;" width="107" x="55" y="256.2422"/><rect fill="#F1F1F1" height="34.1328" rx="12.5" ry="12.5" style="stroke:#181818;stroke-width:0.5;" width="29" x="94" y="297.2422"/><text fill="#000000" font-family="sans-serif" font-size="12" lengthAdjust="spacing" textLength="9" x="104" y="318.8438">D</text><rect fill="#F1F1F1" height="34.1328" rx="12.5" ry="12.5" style="stroke:#181818;stroke-width:0.5;" width="27" x="185" y="236.6758"/><text fill="#000000" font-family="sans-serif" font-size="12" lengthAdjust="spacing" textLength="7" x="195" y="258.2773">E</text><rect fill="#555555" height="6" rx="2.5" ry="2.5" style="stroke:#555555;stroke-width:1.0;" width="183" x="43" y="351.375"/><rect fill="#F1F1F1" height="34.1328" rx="12.5" ry="12.5" style="stroke:#181818;stroke-width:0.5;" width="26" x="123" y="385.9414"/><text fill="#000000" font-family="sans-serif" font-size="12" lengthAdjust="spacing" textLength="6" x="133" y="407.543">F</text><rect fill="#555555" height="6" rx="2.5" ry="2.5" style="stroke:#555555;stroke-width:1.0;" width="110" x="236" y="210.6758"/><rect fill="#F1F1F1" height="34.1328" rx="12.5" ry="12.5" style="stroke:#181818;stroke-width:0.5;" width="29" x="248" y="236.6758"/><text fill="#000000" font-family="sans-serif" font-size="12" lengthAdjust="spacing" textLength="9" x="258" y="258.2773">G</text><rect fill="#F1F1F1" height="34.1328" rx="12.5" ry="12.5" style="stroke:#181818;stroke-width:0.5;" width="29" x="305" y="236.6758"/><text fill="#000000" font-family="sans-serif" font-size="12" lengthAdjust="spacing" textLength="9" x="315" y="258.2773">H</text><rect fill="#555555" height="6" rx="2.5" ry="2.5" style="stroke:#555555;stroke-width:1.0;" width="110" x="236" y="290.8086"/><rect fill="#F1F1F1" height="34.1328" rx="12.5" ry="12.5" style="stroke:#181818;stroke-width:0.5;" width="23" x="279.5" y="331.8086"/><text fill="#000000" font-family="sans-serif" font-size="12" lengthAdjust="spacing" textLength="3" x="289.5" y="353.4102">I</text><rect fill="#555555" height="6" rx="2.5" ry="2.5" style="stroke:#555555;stroke-width:1.0;" width="327" x="31" y="440.0742"/><rect fill="#FF0000" height="34.1328" rx="12.5" ry="12.5" style="stroke:#181818;stroke-width:0.5;" width="24" x="188" y="466.0742"/><text fill="#000000" font-family="sans-serif" font-size="12" lengthAdjust="spacing" textLength="4" x="198" y="487.6758">J</text><line style="stroke:#181818;stroke-width:1.0;" x1="80.5" x2="80.5" y1="182.1094" y2="202.1094"/><polygon fill="#181818" points="76.5,192.1094,80.5,202.1094,84.5,192.1094,80.5,196.1094" style="stroke:#181818;stroke-width:1.0;"/><line style="stroke:#181818;stroke-width:1.0;" x1="136" x2="136" y1="182.1094" y2="202.1094"/><polygon fill="#181818" points="132,192.1094,136,202.1094,140,192.1094,136,196.1094" style="stroke:#181818;stroke-width:1.0;"/><line style="stroke:#181818;stroke-width:1.0;" x1="80.5" x2="80.5" y1="236.2422" y2="256.2422"/><polygon fill="#181818" points="76.5,246.2422,80.5,256.2422,84.5,246.2422,80.5,250.2422" style="stroke:#181818;stroke-width:1.0;"/><line style="stroke:#181818;stroke-width:1.0;" x1="136" x2="136" y1="236.2422" y2="256.2422"/><polygon fill="#181818" points="132,246.2422,136,256.2422,140,246.2422,136,250.2422" style="stroke:#181818;stroke-width:1.0;"/><line style="stroke:#181818;stroke-width:1.0;" x1="108.5" x2="108.5" y1="262.2422" y2="297.2422"/><polygon fill="#181818" points="104.5,287.2422,108.5,297.2422,112.5,287.2422,108.5,291.2422" style="stroke:#181818;stroke-width:1.0;"/><line style="stroke:#181818;stroke-width:1.0;" x1="108.5" x2="108.5" y1="156.1094" y2="176.1094"/><polygon fill="#181818" points="104.5,166.1094,108.5,176.1094,112.5,166.1094,108.5,170.1094" style="stroke:#181818;stroke-width:1.0;"/><line style="stroke:#181818;stroke-width:1.0;" x1="198.5" x2="198.5" y1="156.1094" y2="236.6758"/><polygon fill="#181818" points="194.5,226.6758,198.5,236.6758,202.5,226.6758,198.5,230.6758" style="stroke:#181818;stroke-width:1.0;"/><line style="stroke:#181818;stroke-width:1.0;" x1="108.5" x2="108.5" y1="331.375" y2="351.375"/><polygon fill="#181818" points="104.5,341.375,108.5,351.375,112.5,341.375,108.5,345.375" style="stroke:#181818;stroke-width:1.0;"/><line style="stroke:#181818;stroke-width:1.0;" x1="198.5" x2="198.5" y1="270.8086" y2="351.375"/><polygon fill="#181818" points="194.5,341.375,198.5,351.375,202.5,341.375,198.5,345.375" style="stroke:#181818;stroke-width:1.0;"/><line style="stroke:#181818;stroke-width:1.0;" x1="136" x2="136" y1="357.375" y2="385.9414"/><polygon fill="#181818" points="132,375.9414,136,385.9414,140,375.9414,136,379.9414" style="stroke:#181818;stroke-width:1.0;"/><line style="stroke:#181818;stroke-width:1.0;" x1="262.5" x2="262.5" y1="216.6758" y2="236.6758"/><polygon fill="#181818" points="258.5,226.6758,262.5,236.6758,266.5,226.6758,262.5,230.6758" style="stroke:#181818;stroke-width:1.0;"/><line style="stroke:#181818;stroke-width:1.0;" x1="319.5" x2="319.5" y1="216.6758" y2="236.6758"/><polygon fill="#181818" points="315.5,226.6758,319.5,236.6758,323.5,226.6758,319.5,230.6758" style="stroke:#181818;stroke-width:1.0;"/><line style="stroke:#181818;stroke-width:1.0;" x1="262.5" x2="262.5" y1="270.8086" y2="290.8086"/><polygon fill="#181818" points="258.5,280.8086,262.5,290.8086,266.5,280.8086,262.5,284.8086" style="stroke:#181818;stroke-width:1.0;"/><line style="stroke:#181818;stroke-width:1.0;" x1="319.5" x2="319.5" y1="270.8086" y2="290.8086"/><polygon fill="#181818" points="315.5,280.8086,319.5,290.8086,323.5,280.8086,319.5,284.8086" style="stroke:#181818;stroke-width:1.0;"/><line style="stroke:#181818;stroke-width:1.0;" x1="291" x2="291" y1="296.8086" y2="331.8086"/><polygon fill="#181818" points="287,321.8086,291,331.8086,295,321.8086,291,325.8086" style="stroke:#181818;stroke-width:1.0;"/><line style="stroke:#181818;stroke-width:1.0;" x1="136" x2="136" y1="130.1094" y2="150.1094"/><polygon fill="#181818" points="132,140.1094,136,150.1094,140,140.1094,136,144.1094" style="stroke:#181818;stroke-width:1.0;"/><line style="stroke:#181818;stroke-width:1.0;" x1="291" x2="291" y1="130.1094" y2="210.6758"/><polygon fill="#181818" points="287,200.6758,291,210.6758,295,200.6758,291,204.6758" style="stroke:#181818;stroke-width:1.0;"/><line style="stroke:#181818;stroke-width:1.0;" x1="136" x2="136" y1="420.0742" y2="440.0742"/><polygon fill="#181818" points="132,430.0742,136,440.0742,140,430.0742,136,434.0742" style="stroke:#181818;stroke-width:1.0;"/><line style="stroke:#181818;stroke-width:1.0;" x1="291" x2="291" y1="365.9414" y2="440.0742"/><polygon fill="#181818" points="287,430.0742,291,440.0742,295,430.0742,291,434.0742" style="stroke:#181818;stroke-width:1.0;"/><line style="stroke:#181818;stroke-width:1.0;" x1="200" x2="200" y1="104.1094" y2="124.1094"/><polygon fill="#181818" points="196,114.1094,200,124.1094,204,114.1094,200,118.1094" style="stroke:#181818;stroke-width:1.0;"/><line style="stroke:#181818;stroke-width:1.0;" x1="200" x2="200" y1="446.0742" y2="466.0742"/><polygon fill="#181818" points="196,456.0742,200,466.0742,204,456.0742,200,460.0742" style="stroke:#181818;stroke-width:1.0;"/><!--SRC=[AqWiAiaioSpFKr1AAirBpaXDYNVqSuatZiz9BKlDALPIgEPI08BqelpI0XnAm0f0G3czA3KrpyhH6YwIbb-K3UTW5S0f209MJjPO5IiafYTcvc7Nueof9JKl1RiTLYxMN4IQRUMAgXIhcLPkg5x7OXPsTxWJxmuFOjpXYL24eK2vA3N5oWkY02G9ZbgkMW00]--></g></svg>