<?xml version="1.0" encoding="us-ascii" standalone="no"?><svg xmlns="http://www.w3.org/2000/svg" xmlns:xlink="http://www.w3.org/1999/xlink" contentStyleType="text/css" height="327px" preserveAspectRatio="none" style="width:284px;height:327px;background:#FFFFFF;" version="1.1" viewBox="0 0 284 327" width="284px" zoomAndPan="magnify"><defs/><g><rect fill="none" height="305.8281" style="stroke:#000000;stroke-width:1.5;" width="262" x="11" y="11"/><path d="M248,11 L248,20.4883 L238,30.4883 L11,30.4883 " fill="none" style="stroke:#000000;stroke-width:1.5;"/><text fill="#000000" font-family="sans-serif" font-size="14" lengthAdjust="spacing" textLength="227" x="14" y="25.5352">bunched_merge_ORFork_ORFork</text><rect fill="none" height="263.8867" style="stroke:#000000;stroke-width:1.5;" width="242" x="21" y="40.9414"/><path d="M258,40.9414 L258,50.4297 L248,60.4297 L21,60.4297 " fill="none" style="stroke:#000000;stroke-width:1.5;"/><text fill="#000000" font-family="sans-serif" font-size="14" lengthAdjust="spacing" textLength="227" x="24" y="55.4766">bunched_merge_ORFork_ORFork</text><rect fill="#008000" height="34.1328" rx="12.5" ry="12.5" style="stroke:#181818;stroke-width:0.5;" width="28" x="130.5" y="70.4297"/><text fill="#000000" font-family="sans-serif" font-size="12" lengthAdjust="spacing" textLength="8" x="140.5" y="92.0313">A</text><line style="stroke:#181818;stroke-width:1.5;" x1="116.5" x2="214.5" y1="124.5625" y2="124.5625"/><line style="stroke:#181818;stroke-width:1.5;" x1="89" x2="145" y1="144.5625" y2="144.5625"/><rect fill="#F1F1F1" height="34.1328" rx="12.5" ry="12.5" style="stroke:#181818;stroke-width:0.5;" width="29" x="74.5" y="164.5625"/><text fill="#000000" font-family="sans-serif" font-size="12" lengthAdjust="spacing" textLength="9" x="84.5" y="186.1641">D</text><rect fill="#F1F1F1" height="34.1328" rx="12.5" ry="12.5" style="stroke:#181818;stroke-width:0.5;" width="27" x="131.5" y="164.5625"/><text fill="#000000" font-family="sans-serif" font-size="12" lengthAdjust="spacing" textLength="7" x="141.5" y="186.1641">E</text><line style="stroke:#181818;stroke-width:1.5;" x1="89" x2="145" y1="218.6953" y2="218.6953"/><rect fill="#F1F1F1" height="34.1328" rx="12.5" ry="12.5" style="stroke:#181818;stroke-width:0.5;" width="28" x="200.5" y="164.5625"/><text fill="#000000" font-family="sans-serif" font-size="12" lengthAdjust="spacing" textLength="8" x="210.5" y="186.1641">C</text><line style="stroke:#181818;stroke-width:1.5;" x1="116.5" x2="214.5" y1="238.6953" y2="238.6953"/><rect fill="#FF0000" height="34.1328" rx="12.5" ry="12.5" style="stroke:#181818;stroke-width:0.5;" width="26" x="131.5" y="258.6953"/><text fill="#000000" font-family="sans-serif" font-size="12" lengthAdjust="spacing" textLength="6" x="141.5" y="280.2969">F</text><line style="stroke:#181818;stroke-width:1.0;" x1="89" x2="89" y1="146.0625" y2="164.5625"/><polygon fill="#181818" points="85,154.5625,89,164.5625,93,154.5625,89,158.5625" style="stroke:#181818;stroke-width:1.0;"/><line style="stroke:#181818;stroke-width:1.0;" x1="145" x2="145" y1="146.0625" y2="164.5625"/><polygon fill="#181818" points="141,154.5625,145,164.5625,149,154.5625,145,158.5625" style="stroke:#181818;stroke-width:1.0;"/><line style="stroke:#181818;stroke-width:1.0;" x1="89" x2="89" y1="198.6953" y2="218.6953"/><polygon fill="#181818" points="85,208.6953,89,218.6953,93,208.6953,89,212.6953" style="stroke:#181818;stroke-width:1.0;"/><line style="stroke:#181818;stroke-width:1.0;" x1="145" x2="145" y1="198.6953" y2="218.6953"/><polygon fill="#181818" points="141,208.6953,145,218.6953,149,208.6953,145,212.6953" style="stroke:#181818;stroke-width:1.0;"/><line style="stroke:#181818;stroke-width:1.0;" x1="116.5" x2="116.5" y1="126.0625" y2="144.5625"/><polygon fill="#181818" points="112.5,134.5625,116.5,144.5625,120.5,134.5625,116.5,138.5625" style="stroke:#181818;stroke-width:1.0;"/><line style="stroke:#181818;stroke-width:1.0;" x1="214.5" x2="214.5" y1="126.0625" y2="164.5625"/><polygon fill="#181818" points="210.5,154.5625,214.5,164.5625,218.5,154.5625,214.5,158.5625" style="stroke:#181818;stroke-width:1.0;"/><line style="stroke:#181818;stroke-width:1.0;" x1="116.5" x2="116.5" y1="220.1953" y2="238.6953"/><polygon fill="#181818" points="112.5,228.6953,116.5,238.6953,120.5,228.6953,116.5,232.6953" style="stroke:#181818;stroke-width:1.0;"/><line style="stroke:#181818;stroke-width:1.0;" x1="214.5" x2="214.5" y1="198.6953" y2="238.6953"/><polygon fill="#181818" points="210.5,228.6953,214.5,238.6953,218.5,228.6953,214.5,232.6953" style="stroke:#181818;stroke-width:1.0;"/><line style="stroke:#181818;stroke-width:1.0;" x1="144.5" x2="144.5" y1="104.5625" y2="124.5625"/><polygon fill="#181818" points="140.5,114.5625,144.5,124.5625,148.5,114.5625,144.5,118.5625" style="stroke:#181818;stroke-width:1.0;"/><line style="stroke:#181818;stroke-width:1.0;" x1="144.5" x2="144.5" y1="240.1953" y2="258.6953"/><polygon fill="#181818" points="140.5,248.6953,144.5,258.6953,148.5,248.6953,144.5,252.6953" style="stroke:#181818;stroke-width:1.0;"/><!--SRC=[AqWiAiaioSpFKr1AAirBpaXDYSzDBKfFZVSFSiiloePIIWhLN0f0a5wKNrg0NoLO7GWefnUbfkPPELh3HOeBSZ9Bu3pi8Y1WvMADgKeXCJqnCmzJhIkgsjIy53HJSUcsSaRenDIbN9IQOkK6KG6I1VkSgnO0]--></g></svg>