<?xml version="1.0" encoding="us-ascii" standalone="no"?><svg xmlns="http://www.w3.org/2000/svg" xmlns:xlink="http://www.w3.org/1999/xlink" contentStyleType="text/css" height="402px" preserveAspectRatio="none" style="width:229px;height:402px;background:#FFFFFF;" version="1.1" viewBox="0 0 229 402" width="229px" zoomAndPan="magnify"><defs/><g><rect fill="none" height="380.0742" style="stroke:#000000;stroke-width:1.5;" width="190" x="11" y="11"/><path d="M207,11 L207,20.4883 L197,30.4883 L11,30.4883 " fill="none" style="stroke:#000000;stroke-width:1.5;"/><text fill="#000000" font-family="sans-serif" font-size="14" lengthAdjust="spacing" textLength="186" x="14" y="25.5352">bunched_ORFork_ANDFork</text><rect fill="none" height="338.5859" style="stroke:#000000;stroke-width:1.5;" width="170" x="21" y="40.4883"/><path d="M217,40.4883 L217,49.9766 L207,59.9766 L21,59.9766 " fill="none" style="stroke:#000000;stroke-width:1.5;"/><text fill="#000000" font-family="sans-serif" font-size="14" lengthAdjust="spacing" textLength="186" x="24" y="55.0234">bunched_ORFork_ANDFork</text><rect fill="#008000" height="34.1328" rx="12.5" ry="12.5" style="stroke:#181818;stroke-width:0.5;" width="28" x="101" y="69.9766"/><text fill="#000000" font-family="sans-serif" font-size="12" lengthAdjust="spacing" textLength="8" x="111" y="91.5781">A</text><line style="stroke:#181818;stroke-width:1.5;" x1="87" x2="165" y1="124.1094" y2="124.1094"/><rect fill="#555555" height="6" rx="2.5" ry="2.5" style="stroke:#555555;stroke-width:1.0;" width="108" x="33" y="144.1094"/><rect fill="#F1F1F1" height="34.1328" rx="12.5" ry="12.5" style="stroke:#181818;stroke-width:0.5;" width="29" x="45" y="170.1094"/><text fill="#000000" font-family="sans-serif" font-size="12" lengthAdjust="spacing" textLength="9" x="55" y="191.7109">D</text><rect fill="#F1F1F1" height="34.1328" rx="12.5" ry="12.5" style="stroke:#181818;stroke-width:0.5;" width="27" x="102" y="170.1094"/><text fill="#000000" font-family="sans-serif" font-size="12" lengthAdjust="spacing" textLength="7" x="112" y="191.7109">E</text><rect fill="#555555" height="6" rx="2.5" ry="2.5" style="stroke:#555555;stroke-width:1.0;" width="108" x="33" y="224.2422"/><rect fill="#F1F1F1" height="34.1328" rx="12.5" ry="12.5" style="stroke:#181818;stroke-width:0.5;" width="27" x="73.5" y="258.8086"/><text fill="#000000" font-family="sans-serif" font-size="12" lengthAdjust="spacing" textLength="7" x="83.5" y="280.4102">B</text><rect fill="#F1F1F1" height="34.1328" rx="12.5" ry="12.5" style="stroke:#181818;stroke-width:0.5;" width="28" x="151" y="204.6758"/><text fill="#000000" font-family="sans-serif" font-size="12" lengthAdjust="spacing" textLength="8" x="161" y="226.2773">C</text><line style="stroke:#181818;stroke-width:1.5;" x1="87" x2="165" y1="312.9414" y2="312.9414"/><rect fill="#FF0000" height="34.1328" rx="12.5" ry="12.5" style="stroke:#181818;stroke-width:0.5;" width="26" x="102" y="332.9414"/><text fill="#000000" font-family="sans-serif" font-size="12" lengthAdjust="spacing" textLength="6" x="112" y="354.543">F</text><line style="stroke:#181818;stroke-width:1.0;" x1="59.5" x2="59.5" y1="150.1094" y2="170.1094"/><polygon fill="#181818" points="55.5,160.1094,59.5,170.1094,63.5,160.1094,59.5,164.1094" style="stroke:#181818;stroke-width:1.0;"/><line style="stroke:#181818;stroke-width:1.0;" x1="115.5" x2="115.5" y1="150.1094" y2="170.1094"/><polygon fill="#181818" points="111.5,160.1094,115.5,170.1094,119.5,160.1094,115.5,164.1094" style="stroke:#181818;stroke-width:1.0;"/><line style="stroke:#181818;stroke-width:1.0;" x1="59.5" x2="59.5" y1="204.2422" y2="224.2422"/><polygon fill="#181818" points="55.5,214.2422,59.5,224.2422,63.5,214.2422,59.5,218.2422" style="stroke:#181818;stroke-width:1.0;"/><line style="stroke:#181818;stroke-width:1.0;" x1="115.5" x2="115.5" y1="204.2422" y2="224.2422"/><polygon fill="#181818" points="111.5,214.2422,115.5,224.2422,119.5,214.2422,115.5,218.2422" style="stroke:#181818;stroke-width:1.0;"/><line style="stroke:#181818;stroke-width:1.0;" x1="87" x2="87" y1="230.2422" y2="258.8086"/><polygon fill="#181818" points="83,248.8086,87,258.8086,91,248.8086,87,252.8086" style="stroke:#181818;stroke-width:1.0;"/><line style="stroke:#181818;stroke-width:1.0;" x1="87" x2="87" y1="125.6094" y2="144.1094"/><polygon fill="#181818" points="83,134.1094,87,144.1094,91,134.1094,87,138.1094" style="stroke:#181818;stroke-width:1.0;"/><line style="stroke:#181818;stroke-width:1.0;" x1="165" x2="165" y1="125.6094" y2="204.6758"/><polygon fill="#181818" points="161,194.6758,165,204.6758,169,194.6758,165,198.6758" style="stroke:#181818;stroke-width:1.0;"/><line style="stroke:#181818;stroke-width:1.0;" x1="87" x2="87" y1="292.9414" y2="312.9414"/><polygon fill="#181818" points="83,302.9414,87,312.9414,91,302.9414,87,306.9414" style="stroke:#181818;stroke-width:1.0;"/><line style="stroke:#181818;stroke-width:1.0;" x1="165" x2="165" y1="238.8086" y2="312.9414"/><polygon fill="#181818" points="161,302.9414,165,312.9414,169,302.9414,165,306.9414" style="stroke:#181818;stroke-width:1.0;"/><line style="stroke:#181818;stroke-width:1.0;" x1="115" x2="115" y1="104.1094" y2="124.1094"/><polygon fill="#181818" points="111,114.1094,115,124.1094,119,114.1094,115,118.1094" style="stroke:#181818;stroke-width:1.0;"/><line style="stroke:#181818;stroke-width:1.0;" x1="115" x2="115" y1="314.4414" y2="332.9414"/><polygon fill="#181818" points="111,322.9414,115,332.9414,119,322.9414,115,326.9414" style="stroke:#181818;stroke-width:1.0;"/><!--SRC=[AqWiAiaioSpFKr1AAirBpaXDYVSFSiiloevtz7C1qKeArLmAG91Ub5zQW5CHM0a8AASNfQRcMJbQmqMA2t8oI-0y44W3wa0H004h5siCHGg9wOcPUPXANL6LfkQbO9ffvOJc12o6MJaZr80CGNMgSb5gYfKRH0L85Xm2NBK0]--></g></svg>