<?xml version="1.0" encoding="us-ascii" standalone="no"?><svg xmlns="http://www.w3.org/2000/svg" xmlns:xlink="http://www.w3.org/1999/xlink" contentStyleType="text/css" height="396px" preserveAspectRatio="none" style="width:219px;height:396px;background:#FFFFFF;" version="1.1" viewBox="0 0 219 396" width="219px" zoomAndPan="magnify"><defs/><g><rect fill="none" height="374.0742" style="stroke:#000000;stroke-width:1.5;" width="166" x="11" y="11"/><path d="M197,11 L197,20.4883 L187,30.4883 L11,30.4883 " fill="none" style="stroke:#000000;stroke-width:1.5;"/><text fill="#000000" font-family="sans-serif" font-size="14" lengthAdjust="spacing" textLength="176" x="14" y="25.5352">bunched_ORFork_ORFork</text><rect fill="none" height="332.5859" style="stroke:#000000;stroke-width:1.5;" width="146" x="21" y="40.4883"/><path d="M207,40.4883 L207,49.9766 L197,59.9766 L21,59.9766 " fill="none" style="stroke:#000000;stroke-width:1.5;"/><text fill="#000000" font-family="sans-serif" font-size="14" lengthAdjust="spacing" textLength="176" x="24" y="55.0234">bunched_ORFork_ORFork</text><rect fill="#008000" height="34.1328" rx="12.5" ry="12.5" style="stroke:#181818;stroke-width:0.5;" width="28" x="89" y="69.9766"/><text fill="#000000" font-family="sans-serif" font-size="12" lengthAdjust="spacing" textLength="8" x="99" y="91.5781">A</text><line style="stroke:#181818;stroke-width:1.5;" x1="75" x2="141" y1="124.1094" y2="124.1094"/><line style="stroke:#181818;stroke-width:1.5;" x1="47.5" x2="103.5" y1="144.1094" y2="144.1094"/><rect fill="#F1F1F1" height="34.1328" rx="12.5" ry="12.5" style="stroke:#181818;stroke-width:0.5;" width="29" x="33" y="164.1094"/><text fill="#000000" font-family="sans-serif" font-size="12" lengthAdjust="spacing" textLength="9" x="43" y="185.7109">D</text><rect fill="#F1F1F1" height="34.1328" rx="12.5" ry="12.5" style="stroke:#181818;stroke-width:0.5;" width="27" x="90" y="164.1094"/><text fill="#000000" font-family="sans-serif" font-size="12" lengthAdjust="spacing" textLength="7" x="100" y="185.7109">E</text><line style="stroke:#181818;stroke-width:1.5;" x1="47.5" x2="103.5" y1="218.2422" y2="218.2422"/><rect fill="#F1F1F1" height="34.1328" rx="12.5" ry="12.5" style="stroke:#181818;stroke-width:0.5;" width="27" x="61.5" y="252.8086"/><text fill="#000000" font-family="sans-serif" font-size="12" lengthAdjust="spacing" textLength="7" x="71.5" y="274.4102">B</text><rect fill="#F1F1F1" height="34.1328" rx="12.5" ry="12.5" style="stroke:#181818;stroke-width:0.5;" width="28" x="127" y="198.6758"/><text fill="#000000" font-family="sans-serif" font-size="12" lengthAdjust="spacing" textLength="8" x="137" y="220.2773">C</text><line style="stroke:#181818;stroke-width:1.5;" x1="75" x2="141" y1="306.9414" y2="306.9414"/><rect fill="#FF0000" height="34.1328" rx="12.5" ry="12.5" style="stroke:#181818;stroke-width:0.5;" width="26" x="90" y="326.9414"/><text fill="#000000" font-family="sans-serif" font-size="12" lengthAdjust="spacing" textLength="6" x="100" y="348.543">F</text><line style="stroke:#181818;stroke-width:1.0;" x1="47.5" x2="47.5" y1="145.6094" y2="164.1094"/><polygon fill="#181818" points="43.5,154.1094,47.5,164.1094,51.5,154.1094,47.5,158.1094" style="stroke:#181818;stroke-width:1.0;"/><line style="stroke:#181818;stroke-width:1.0;" x1="103.5" x2="103.5" y1="145.6094" y2="164.1094"/><polygon fill="#181818" points="99.5,154.1094,103.5,164.1094,107.5,154.1094,103.5,158.1094" style="stroke:#181818;stroke-width:1.0;"/><line style="stroke:#181818;stroke-width:1.0;" x1="47.5" x2="47.5" y1="198.2422" y2="218.2422"/><polygon fill="#181818" points="43.5,208.2422,47.5,218.2422,51.5,208.2422,47.5,212.2422" style="stroke:#181818;stroke-width:1.0;"/><line style="stroke:#181818;stroke-width:1.0;" x1="103.5" x2="103.5" y1="198.2422" y2="218.2422"/><polygon fill="#181818" points="99.5,208.2422,103.5,218.2422,107.5,208.2422,103.5,212.2422" style="stroke:#181818;stroke-width:1.0;"/><line style="stroke:#181818;stroke-width:1.0;" x1="75" x2="75" y1="219.7422" y2="252.8086"/><polygon fill="#181818" points="71,242.8086,75,252.8086,79,242.8086,75,246.8086" style="stroke:#181818;stroke-width:1.0;"/><line style="stroke:#181818;stroke-width:1.0;" x1="75" x2="75" y1="125.6094" y2="144.1094"/><polygon fill="#181818" points="71,134.1094,75,144.1094,79,134.1094,75,138.1094" style="stroke:#181818;stroke-width:1.0;"/><line style="stroke:#181818;stroke-width:1.0;" x1="141" x2="141" y1="125.6094" y2="198.6758"/><polygon fill="#181818" points="137,188.6758,141,198.6758,145,188.6758,141,192.6758" style="stroke:#181818;stroke-width:1.0;"/><line style="stroke:#181818;stroke-width:1.0;" x1="75" x2="75" y1="286.9414" y2="306.9414"/><polygon fill="#181818" points="71,296.9414,75,306.9414,79,296.9414,75,300.9414" style="stroke:#181818;stroke-width:1.0;"/><line style="stroke:#181818;stroke-width:1.0;" x1="141" x2="141" y1="232.8086" y2="306.9414"/><polygon fill="#181818" points="137,296.9414,141,306.9414,145,296.9414,141,300.9414" style="stroke:#181818;stroke-width:1.0;"/><line style="stroke:#181818;stroke-width:1.0;" x1="103" x2="103" y1="104.1094" y2="124.1094"/><polygon fill="#181818" points="99,114.1094,103,124.1094,107,114.1094,103,118.1094" style="stroke:#181818;stroke-width:1.0;"/><line style="stroke:#181818;stroke-width:1.0;" x1="103" x2="103" y1="308.4414" y2="326.9414"/><polygon fill="#181818" points="99,316.9414,103,326.9414,107,316.9414,103,320.9414" style="stroke:#181818;stroke-width:1.0;"/><!--SRC=[AqWiAiaioSpFKr1AAirBpaXDYVSFSiiloePIIWhLN0f0a5wKNrg0ImrO1GWefnUbfkPPELh3HOeBSZ9Bu3pi8Y1WvMADgKeXCJqnCmzJhIkgsjIy52ocMZcXkGABQLRE23MOfYWNfQPOkK5KW6J1OS1L2m00]--></g></svg>