<?xml version="1.0" encoding="us-ascii" standalone="no"?><svg xmlns="http://www.w3.org/2000/svg" xmlns:xlink="http://www.w3.org/1999/xlink" contentStyleType="text/css" height="351px" preserveAspectRatio="none" style="width:293px;height:351px;background:#FFFFFF;" version="1.1" viewBox="0 0 293 351" width="293px" zoomAndPan="magnify"><defs/><g><rect fill="none" height="329.8281" style="stroke:#000000;stroke-width:1.5;" width="271" x="11" y="11"/><path d="M257,11 L257,20.4883 L247,30.4883 L11,30.4883 " fill="none" style="stroke:#000000;stroke-width:1.5;"/><text fill="#000000" font-family="sans-serif" font-size="14" lengthAdjust="spacing" textLength="236" x="14" y="25.5352">bunched_merge_ORFork_XORFork</text><rect fill="none" height="287.8867" style="stroke:#000000;stroke-width:1.5;" width="251" x="21" y="40.9414"/><path d="M267,40.9414 L267,50.4297 L257,60.4297 L21,60.4297 " fill="none" style="stroke:#000000;stroke-width:1.5;"/><text fill="#000000" font-family="sans-serif" font-size="14" lengthAdjust="spacing" textLength="236" x="24" y="55.4766">bunched_merge_ORFork_XORFork</text><rect fill="#008000" height="34.1328" rx="12.5" ry="12.5" style="stroke:#181818;stroke-width:0.5;" width="28" x="135" y="70.4297"/><text fill="#000000" font-family="sans-serif" font-size="12" lengthAdjust="spacing" textLength="8" x="145" y="92.0313">A</text><line style="stroke:#181818;stroke-width:1.5;" x1="121" x2="222" y1="124.5625" y2="124.5625"/><polygon fill="#F1F1F1" points="109,144.5625,133,144.5625,145,156.5625,133,168.5625,109,168.5625,97,156.5625,109,144.5625" style="stroke:#181818;stroke-width:0.5;"/><text fill="#000000" font-family="sans-serif" font-size="11" lengthAdjust="spacing" textLength="23" x="109.5" y="160.7197">XOR</text><text fill="#000000" font-family="sans-serif" font-size="11" lengthAdjust="spacing" textLength="22" x="75" y="154.2422">true</text><text fill="#000000" font-family="sans-serif" font-size="11" lengthAdjust="spacing" textLength="25" x="145" y="154.2422">false</text><rect fill="#F1F1F1" height="34.1328" rx="12.5" ry="12.5" style="stroke:#181818;stroke-width:0.5;" width="29" x="72.5" y="178.5625"/><text fill="#000000" font-family="sans-serif" font-size="12" lengthAdjust="spacing" textLength="9" x="82.5" y="200.1641">D</text><rect fill="#F1F1F1" height="34.1328" rx="12.5" ry="12.5" style="stroke:#181818;stroke-width:0.5;" width="27" x="141.5" y="178.5625"/><text fill="#000000" font-family="sans-serif" font-size="12" lengthAdjust="spacing" textLength="7" x="151.5" y="200.1641">E</text><polygon fill="#F1F1F1" points="121,218.6953,133,230.6953,121,242.6953,109,230.6953,121,218.6953" style="stroke:#181818;stroke-width:0.5;"/><rect fill="#F1F1F1" height="34.1328" rx="12.5" ry="12.5" style="stroke:#181818;stroke-width:0.5;" width="28" x="208" y="176.5625"/><text fill="#000000" font-family="sans-serif" font-size="12" lengthAdjust="spacing" textLength="8" x="218" y="198.1641">C</text><line style="stroke:#181818;stroke-width:1.5;" x1="121" x2="222" y1="262.6953" y2="262.6953"/><rect fill="#FF0000" height="34.1328" rx="12.5" ry="12.5" style="stroke:#181818;stroke-width:0.5;" width="26" x="136" y="282.6953"/><text fill="#000000" font-family="sans-serif" font-size="12" lengthAdjust="spacing" textLength="6" x="146" y="304.2969">F</text><line style="stroke:#181818;stroke-width:1.0;" x1="97" x2="87" y1="156.5625" y2="156.5625"/><line style="stroke:#181818;stroke-width:1.0;" x1="87" x2="87" y1="156.5625" y2="178.5625"/><polygon fill="#181818" points="83,168.5625,87,178.5625,91,168.5625,87,172.5625" style="stroke:#181818;stroke-width:1.0;"/><line style="stroke:#181818;stroke-width:1.0;" x1="145" x2="155" y1="156.5625" y2="156.5625"/><line style="stroke:#181818;stroke-width:1.0;" x1="155" x2="155" y1="156.5625" y2="178.5625"/><polygon fill="#181818" points="151,168.5625,155,178.5625,159,168.5625,155,172.5625" style="stroke:#181818;stroke-width:1.0;"/><line style="stroke:#181818;stroke-width:1.0;" x1="87" x2="87" y1="212.6953" y2="230.6953"/><line style="stroke:#181818;stroke-width:1.0;" x1="87" x2="109" y1="230.6953" y2="230.6953"/><polygon fill="#181818" points="99,226.6953,109,230.6953,99,234.6953,103,230.6953" style="stroke:#181818;stroke-width:1.0;"/><line style="stroke:#181818;stroke-width:1.0;" x1="155" x2="155" y1="212.6953" y2="230.6953"/><line style="stroke:#181818;stroke-width:1.0;" x1="155" x2="133" y1="230.6953" y2="230.6953"/><polygon fill="#181818" points="143,226.6953,133,230.6953,143,234.6953,139,230.6953" style="stroke:#181818;stroke-width:1.0;"/><line style="stroke:#181818;stroke-width:1.0;" x1="121" x2="121" y1="126.0625" y2="144.5625"/><polygon fill="#181818" points="117,134.5625,121,144.5625,125,134.5625,121,138.5625" style="stroke:#181818;stroke-width:1.0;"/><line style="stroke:#181818;stroke-width:1.0;" x1="222" x2="222" y1="126.0625" y2="176.5625"/><polygon fill="#181818" points="218,166.5625,222,176.5625,226,166.5625,222,170.5625" style="stroke:#181818;stroke-width:1.0;"/><line style="stroke:#181818;stroke-width:1.0;" x1="121" x2="121" y1="242.6953" y2="262.6953"/><polygon fill="#181818" points="117,252.6953,121,262.6953,125,252.6953,121,256.6953" style="stroke:#181818;stroke-width:1.0;"/><line style="stroke:#181818;stroke-width:1.0;" x1="222" x2="222" y1="210.6953" y2="262.6953"/><polygon fill="#181818" points="218,252.6953,222,262.6953,226,252.6953,222,256.6953" style="stroke:#181818;stroke-width:1.0;"/><line style="stroke:#181818;stroke-width:1.0;" x1="149" x2="149" y1="104.5625" y2="124.5625"/><polygon fill="#181818" points="145,114.5625,149,124.5625,153,114.5625,149,118.5625" style="stroke:#181818;stroke-width:1.0;"/><line style="stroke:#181818;stroke-width:1.0;" x1="149" x2="149" y1="264.1953" y2="282.6953"/><polygon fill="#181818" points="145,272.6953,149,282.6953,153,272.6953,149,276.6953" style="stroke:#181818;stroke-width:1.0;"/><!--SRC=[XP312eCm44JlViMY5_s5U2fjlHPwyYPfiyQbDeOrEPN-UnC5IwJGkGmx-mQMjP8TEPeCv3TlxWEgxeciiRjScuaVNRjw3gyCWZHFtlv15p2gq8nenA7UajcEvBOfYdeeGx42Dw21qh77AW6YnAbECXndXBANmNx0vnri5FNf1I2r99DGulXjXSRkqe9HYMObudPvG_R-0000]--></g></svg>