<?xml version="1.0" encoding="us-ascii" standalone="no"?><svg xmlns="http://www.w3.org/2000/svg" xmlns:xlink="http://www.w3.org/1999/xlink" contentStyleType="text/css" height="408px" preserveAspectRatio="none" style="width:228px;height:408px;background:#FFFFFF;" version="1.1" viewBox="0 0 228 408" width="228px" zoomAndPan="magnify"><defs/><g><rect fill="none" height="386.0742" style="stroke:#000000;stroke-width:1.5;" width="179.5" x="11" y="11"/><path d="M206,11 L206,20.4883 L196,30.4883 L11,30.4883 " fill="none" style="stroke:#000000;stroke-width:1.5;"/><text fill="#000000" font-family="sans-serif" font-size="14" lengthAdjust="spacing" textLength="185" x="14" y="25.5352">bunched_ORFork_XORFork</text><rect fill="none" height="344.5859" style="stroke:#000000;stroke-width:1.5;" width="159.5" x="21" y="40.4883"/><path d="M216,40.4883 L216,49.9766 L206,59.9766 L21,59.9766 " fill="none" style="stroke:#000000;stroke-width:1.5;"/><text fill="#000000" font-family="sans-serif" font-size="14" lengthAdjust="spacing" textLength="185" x="24" y="55.0234">bunched_ORFork_XORFork</text><rect fill="#008000" height="34.1328" rx="12.5" ry="12.5" style="stroke:#181818;stroke-width:0.5;" width="28" x="95.5" y="69.9766"/><text fill="#000000" font-family="sans-serif" font-size="12" lengthAdjust="spacing" textLength="8" x="105.5" y="91.5781">A</text><line style="stroke:#181818;stroke-width:1.5;" x1="81.5" x2="154.5" y1="124.1094" y2="124.1094"/><polygon fill="#F1F1F1" points="69.5,144.1094,93.5,144.1094,105.5,156.1094,93.5,168.1094,69.5,168.1094,57.5,156.1094,69.5,144.1094" style="stroke:#181818;stroke-width:0.5;"/><text fill="#000000" font-family="sans-serif" font-size="11" lengthAdjust="spacing" textLength="23" x="70" y="160.2666">XOR</text><text fill="#000000" font-family="sans-serif" font-size="11" lengthAdjust="spacing" textLength="22" x="35.5" y="153.7891">true</text><text fill="#000000" font-family="sans-serif" font-size="11" lengthAdjust="spacing" textLength="25" x="105.5" y="153.7891">false</text><rect fill="#F1F1F1" height="34.1328" rx="12.5" ry="12.5" style="stroke:#181818;stroke-width:0.5;" width="29" x="33" y="178.1094"/><text fill="#000000" font-family="sans-serif" font-size="12" lengthAdjust="spacing" textLength="9" x="43" y="199.7109">D</text><rect fill="#F1F1F1" height="34.1328" rx="12.5" ry="12.5" style="stroke:#181818;stroke-width:0.5;" width="27" x="102" y="178.1094"/><text fill="#000000" font-family="sans-serif" font-size="12" lengthAdjust="spacing" textLength="7" x="112" y="199.7109">E</text><polygon fill="#F1F1F1" points="81.5,218.2422,93.5,230.2422,81.5,242.2422,69.5,230.2422,81.5,218.2422" style="stroke:#181818;stroke-width:0.5;"/><rect fill="#F1F1F1" height="34.1328" rx="12.5" ry="12.5" style="stroke:#181818;stroke-width:0.5;" width="27" x="68" y="264.8086"/><text fill="#000000" font-family="sans-serif" font-size="12" lengthAdjust="spacing" textLength="7" x="78" y="286.4102">B</text><rect fill="#F1F1F1" height="34.1328" rx="12.5" ry="12.5" style="stroke:#181818;stroke-width:0.5;" width="28" x="140.5" y="210.6758"/><text fill="#000000" font-family="sans-serif" font-size="12" lengthAdjust="spacing" textLength="8" x="150.5" y="232.2773">C</text><line style="stroke:#181818;stroke-width:1.5;" x1="81.5" x2="154.5" y1="318.9414" y2="318.9414"/><rect fill="#FF0000" height="34.1328" rx="12.5" ry="12.5" style="stroke:#181818;stroke-width:0.5;" width="26" x="96.5" y="338.9414"/><text fill="#000000" font-family="sans-serif" font-size="12" lengthAdjust="spacing" textLength="6" x="106.5" y="360.543">F</text><line style="stroke:#181818;stroke-width:1.0;" x1="57.5" x2="47.5" y1="156.1094" y2="156.1094"/><line style="stroke:#181818;stroke-width:1.0;" x1="47.5" x2="47.5" y1="156.1094" y2="178.1094"/><polygon fill="#181818" points="43.5,168.1094,47.5,178.1094,51.5,168.1094,47.5,172.1094" style="stroke:#181818;stroke-width:1.0;"/><line style="stroke:#181818;stroke-width:1.0;" x1="105.5" x2="115.5" y1="156.1094" y2="156.1094"/><line style="stroke:#181818;stroke-width:1.0;" x1="115.5" x2="115.5" y1="156.1094" y2="178.1094"/><polygon fill="#181818" points="111.5,168.1094,115.5,178.1094,119.5,168.1094,115.5,172.1094" style="stroke:#181818;stroke-width:1.0;"/><line style="stroke:#181818;stroke-width:1.0;" x1="47.5" x2="47.5" y1="212.2422" y2="230.2422"/><line style="stroke:#181818;stroke-width:1.0;" x1="47.5" x2="69.5" y1="230.2422" y2="230.2422"/><polygon fill="#181818" points="59.5,226.2422,69.5,230.2422,59.5,234.2422,63.5,230.2422" style="stroke:#181818;stroke-width:1.0;"/><line style="stroke:#181818;stroke-width:1.0;" x1="115.5" x2="115.5" y1="212.2422" y2="230.2422"/><line style="stroke:#181818;stroke-width:1.0;" x1="115.5" x2="93.5" y1="230.2422" y2="230.2422"/><polygon fill="#181818" points="103.5,226.2422,93.5,230.2422,103.5,234.2422,99.5,230.2422" style="stroke:#181818;stroke-width:1.0;"/><line style="stroke:#181818;stroke-width:1.0;" x1="81.5" x2="81.5" y1="242.2422" y2="264.8086"/><polygon fill="#181818" points="77.5,254.8086,81.5,264.8086,85.5,254.8086,81.5,258.8086" style="stroke:#181818;stroke-width:1.0;"/><line style="stroke:#181818;stroke-width:1.0;" x1="81.5" x2="81.5" y1="125.6094" y2="144.1094"/><polygon fill="#181818" points="77.5,134.1094,81.5,144.1094,85.5,134.1094,81.5,138.1094" style="stroke:#181818;stroke-width:1.0;"/><line style="stroke:#181818;stroke-width:1.0;" x1="154.5" x2="154.5" y1="125.6094" y2="210.6758"/><polygon fill="#181818" points="150.5,200.6758,154.5,210.6758,158.5,200.6758,154.5,204.6758" style="stroke:#181818;stroke-width:1.0;"/><line style="stroke:#181818;stroke-width:1.0;" x1="81.5" x2="81.5" y1="298.9414" y2="318.9414"/><polygon fill="#181818" points="77.5,308.9414,81.5,318.9414,85.5,308.9414,81.5,312.9414" style="stroke:#181818;stroke-width:1.0;"/><line style="stroke:#181818;stroke-width:1.0;" x1="154.5" x2="154.5" y1="244.8086" y2="318.9414"/><polygon fill="#181818" points="150.5,308.9414,154.5,318.9414,158.5,308.9414,154.5,312.9414" style="stroke:#181818;stroke-width:1.0;"/><line style="stroke:#181818;stroke-width:1.0;" x1="109.5" x2="109.5" y1="104.1094" y2="124.1094"/><polygon fill="#181818" points="105.5,114.1094,109.5,124.1094,113.5,114.1094,109.5,118.1094" style="stroke:#181818;stroke-width:1.0;"/><line style="stroke:#181818;stroke-width:1.0;" x1="109.5" x2="109.5" y1="320.4414" y2="338.9414"/><polygon fill="#181818" points="105.5,328.9414,109.5,338.9414,113.5,328.9414,109.5,332.9414" style="stroke:#181818;stroke-width:1.0;"/><!--SRC=[TP0z3iCW38NtdC9A5d85ClKlQwLCtI9Q346D016Ogjwza4YfGErRB3z_jfvicVFAAwEXlWVzc92Frw4txZdUjbh3gu8ewKomVw4LIMgaGzJqqEtEOcVbzov92I1niGK_eGRYNS0s0vBekSiyd1S48bWiF-1B0MkkHERGOv48c6HAvypfoyGBHVB68QVzHgJf-f3g_G40]--></g></svg>