<?xml version="1.0" encoding="us-ascii" standalone="no"?><svg xmlns="http://www.w3.org/2000/svg" xmlns:xlink="http://www.w3.org/1999/xlink" contentStyleType="text/css" height="339px" preserveAspectRatio="none" style="width:294px;height:339px;background:#FFFFFF;" version="1.1" viewBox="0 0 294 339" width="294px" zoomAndPan="magnify"><defs/><g><rect fill="none" height="317.8281" style="stroke:#000000;stroke-width:1.5;" width="272" x="11" y="11"/><path d="M258,11 L258,20.4883 L248,30.4883 L11,30.4883 " fill="none" style="stroke:#000000;stroke-width:1.5;"/><text fill="#000000" font-family="sans-serif" font-size="14" lengthAdjust="spacing" textLength="237" x="14" y="25.5352">bunched_merge_ORFork_ANDFork</text><rect fill="none" height="275.8867" style="stroke:#000000;stroke-width:1.5;" width="252" x="21" y="40.9414"/><path d="M268,40.9414 L268,50.4297 L258,60.4297 L21,60.4297 " fill="none" style="stroke:#000000;stroke-width:1.5;"/><text fill="#000000" font-family="sans-serif" font-size="14" lengthAdjust="spacing" textLength="237" x="24" y="55.4766">bunched_merge_ORFork_ANDFork</text><rect fill="#008000" height="34.1328" rx="12.5" ry="12.5" style="stroke:#181818;stroke-width:0.5;" width="28" x="135.5" y="70.4297"/><text fill="#000000" font-family="sans-serif" font-size="12" lengthAdjust="spacing" textLength="8" x="145.5" y="92.0313">A</text><line style="stroke:#181818;stroke-width:1.5;" x1="121.5" x2="219.5" y1="124.5625" y2="124.5625"/><rect fill="#555555" height="6" rx="2.5" ry="2.5" style="stroke:#555555;stroke-width:1.0;" width="112" x="65.5" y="144.5625"/><rect fill="#F1F1F1" height="34.1328" rx="12.5" ry="12.5" style="stroke:#181818;stroke-width:0.5;" width="29" x="79.5" y="170.5625"/><text fill="#000000" font-family="sans-serif" font-size="12" lengthAdjust="spacing" textLength="9" x="89.5" y="192.1641">D</text><rect fill="#F1F1F1" height="34.1328" rx="12.5" ry="12.5" style="stroke:#181818;stroke-width:0.5;" width="27" x="136.5" y="170.5625"/><text fill="#000000" font-family="sans-serif" font-size="12" lengthAdjust="spacing" textLength="7" x="146.5" y="192.1641">E</text><rect fill="#555555" height="6" rx="2.5" ry="2.5" style="stroke:#555555;stroke-width:1.0;" width="112" x="65.5" y="224.6953"/><rect fill="#F1F1F1" height="34.1328" rx="12.5" ry="12.5" style="stroke:#181818;stroke-width:0.5;" width="28" x="205.5" y="170.5625"/><text fill="#000000" font-family="sans-serif" font-size="12" lengthAdjust="spacing" textLength="8" x="215.5" y="192.1641">C</text><line style="stroke:#181818;stroke-width:1.5;" x1="121.5" x2="219.5" y1="250.6953" y2="250.6953"/><rect fill="#FF0000" height="34.1328" rx="12.5" ry="12.5" style="stroke:#181818;stroke-width:0.5;" width="26" x="136.5" y="270.6953"/><text fill="#000000" font-family="sans-serif" font-size="12" lengthAdjust="spacing" textLength="6" x="146.5" y="292.2969">F</text><line style="stroke:#181818;stroke-width:1.0;" x1="94" x2="94" y1="150.5625" y2="170.5625"/><polygon fill="#181818" points="90,160.5625,94,170.5625,98,160.5625,94,164.5625" style="stroke:#181818;stroke-width:1.0;"/><line style="stroke:#181818;stroke-width:1.0;" x1="150" x2="150" y1="150.5625" y2="170.5625"/><polygon fill="#181818" points="146,160.5625,150,170.5625,154,160.5625,150,164.5625" style="stroke:#181818;stroke-width:1.0;"/><line style="stroke:#181818;stroke-width:1.0;" x1="94" x2="94" y1="204.6953" y2="224.6953"/><polygon fill="#181818" points="90,214.6953,94,224.6953,98,214.6953,94,218.6953" style="stroke:#181818;stroke-width:1.0;"/><line style="stroke:#181818;stroke-width:1.0;" x1="150" x2="150" y1="204.6953" y2="224.6953"/><polygon fill="#181818" points="146,214.6953,150,224.6953,154,214.6953,150,218.6953" style="stroke:#181818;stroke-width:1.0;"/><line style="stroke:#181818;stroke-width:1.0;" x1="121.5" x2="121.5" y1="126.0625" y2="144.5625"/><polygon fill="#181818" points="117.5,134.5625,121.5,144.5625,125.5,134.5625,121.5,138.5625" style="stroke:#181818;stroke-width:1.0;"/><line style="stroke:#181818;stroke-width:1.0;" x1="219.5" x2="219.5" y1="126.0625" y2="170.5625"/><polygon fill="#181818" points="215.5,160.5625,219.5,170.5625,223.5,160.5625,219.5,164.5625" style="stroke:#181818;stroke-width:1.0;"/><line style="stroke:#181818;stroke-width:1.0;" x1="121.5" x2="121.5" y1="230.6953" y2="250.6953"/><polygon fill="#181818" points="117.5,240.6953,121.5,250.6953,125.5,240.6953,121.5,244.6953" style="stroke:#181818;stroke-width:1.0;"/><line style="stroke:#181818;stroke-width:1.0;" x1="219.5" x2="219.5" y1="204.6953" y2="250.6953"/><polygon fill="#181818" points="215.5,240.6953,219.5,250.6953,223.5,240.6953,219.5,244.6953" style="stroke:#181818;stroke-width:1.0;"/><line style="stroke:#181818;stroke-width:1.0;" x1="149.5" x2="149.5" y1="104.5625" y2="124.5625"/><polygon fill="#181818" points="145.5,114.5625,149.5,124.5625,153.5,114.5625,149.5,118.5625" style="stroke:#181818;stroke-width:1.0;"/><line style="stroke:#181818;stroke-width:1.0;" x1="149.5" x2="149.5" y1="252.1953" y2="270.6953"/><polygon fill="#181818" points="145.5,260.6953,149.5,270.6953,153.5,260.6953,149.5,264.6953" style="stroke:#181818;stroke-width:1.0;"/><!--SRC=[AqWiAiaioSpFKr1AAirBpaXDYSzDBKfFZVSFSiiloevtz7C1qKeArLmAG91Ub5zQG40fM248AASNfQRcMJbQmqMA2t8oI-0y44W3wa0H004h5siCHGg9wOcPUPXANL6LfkQbe9e9jXABPYjdX4QG9bIdAHUbfbYvGLI0PC7-vge50000]--></g></svg>