<?xml version="1.0" encoding="us-ascii" standalone="no"?><svg xmlns="http://www.w3.org/2000/svg" xmlns:xlink="http://www.w3.org/1999/xlink" contentStyleType="text/css" height="3792px" preserveAspectRatio="none" style="width:759px;height:3792px;background:#FFFFFF;" version="1.1" viewBox="0 0 759 3792" width="759px" zoomAndPan="magnify"><defs/><g><ellipse cx="364.25" cy="20" fill="#222222" rx="10" ry="10" style="stroke:#222222;stroke-width:1.0;"/><rect fill="#F1F1F1" height="75.875" rx="12.5" ry="12.5" style="stroke:#181818;stroke-width:0.5;" width="410" x="159.25" y="50"/><text fill="#000000" font-family="sans-serif" font-size="12" lengthAdjust="spacing" textLength="50" x="169.25" y="71.1387">Input -&gt;</text><text fill="#000000" font-family="sans-serif" font-size="12" lengthAdjust="spacing" textLength="180" x="169.25" y="85.1074">map of event id to OTelEvent</text><text fill="#000000" font-family="sans-serif" font-size="12" lengthAdjust="spacing" textLength="67" x="169.25" y="99.0762">async flag,</text><text fill="#000000" font-family="sans-serif" font-size="12" lengthAdjust="spacing" textLength="390" x="169.25" y="113.0449">map of event type to list of sets of async following event types</text><rect fill="none" height="497.5938" style="stroke:#000000;stroke-width:1.5;" width="434" x="149.25" y="135.875"/><path d="M336.25,135.875 L336.25,145.1719 L326.25,155.1719 L149.25,155.1719 " fill="none" style="stroke:#000000;stroke-width:1.5;"/><text fill="#000000" font-family="sans-serif" font-size="14" lengthAdjust="spacing" textLength="177" x="152.25" y="149.8701">sequence_otel_event_job</text><rect fill="#F1F1F1" height="33.9688" rx="12.5" ry="12.5" style="stroke:#181818;stroke-width:0.5;" width="139" x="294.75" y="172.1719"/><text fill="#000000" font-family="sans-serif" font-size="12" lengthAdjust="spacing" textLength="119" x="304.75" y="193.3105">find root OTelEvent</text><rect fill="#F1F1F1" height="89.8438" rx="12.5" ry="12.5" style="stroke:#181818;stroke-width:0.5;" width="410" x="159.25" y="226.1406"/><text fill="#000000" font-family="sans-serif" font-size="12" lengthAdjust="spacing" textLength="50" x="169.25" y="247.2793">Input -&gt;</text><text fill="#000000" font-family="sans-serif" font-size="12" lengthAdjust="spacing" textLength="96" x="169.25" y="261.248">root OTelEvent,</text><text fill="#000000" font-family="sans-serif" font-size="12" lengthAdjust="spacing" textLength="186" x="169.25" y="275.2168">map of event_id to OTelEvent,</text><text fill="#000000" font-family="sans-serif" font-size="12" lengthAdjust="spacing" textLength="67" x="169.25" y="289.1855">async flag,</text><text fill="#000000" font-family="sans-serif" font-size="12" lengthAdjust="spacing" textLength="390" x="169.25" y="303.1543">map of event type to list of sets of async following event types</text><rect fill="#F1F1F1" height="33.9688" rx="12.5" ry="12.5" style="stroke:#181818;stroke-width:0.5;" width="288" x="220.25" y="335.9844"/><text fill="#000000" font-family="sans-serif" font-size="12" lengthAdjust="spacing" textLength="268" x="230.25" y="357.123">Call "sequence_otel_event_and_ancestors"</text><rect fill="#F1F1F1" height="33.9688" rx="12.5" ry="12.5" style="stroke:#181818;stroke-width:0.5;" width="323" x="202.75" y="433.9531"/><text fill="#000000" font-family="sans-serif" font-size="12" lengthAdjust="spacing" textLength="303" x="212.75" y="455.0918">get OTelEvent from map of event id to OTelEvent</text><rect fill="#F1F1F1" height="33.9688" rx="12.5" ry="12.5" style="stroke:#181818;stroke-width:0.5;" width="370" x="179.25" y="487.9219"/><text fill="#000000" font-family="sans-serif" font-size="12" lengthAdjust="spacing" textLength="350" x="189.25" y="509.0605">create PVEvent from OTelEvent using previous event ids</text><rect fill="#F1F1F1" height="33.9688" rx="12.5" ry="12.5" style="stroke:#181818;stroke-width:0.5;" width="103" x="312.75" y="541.8906"/><text fill="#000000" font-family="sans-serif" font-size="12" lengthAdjust="spacing" textLength="83" x="322.75" y="563.0293">yield PVEvent</text><polygon fill="#F1F1F1" points="364.25,389.9531,376.25,401.9531,364.25,413.9531,352.25,401.9531,364.25,389.9531" style="stroke:#181818;stroke-width:0.5;"/><polygon fill="#F1F1F1" points="249.25,595.8594,479.25,595.8594,491.25,608.6641,479.25,621.4688,249.25,621.4688,237.25,608.6641,249.25,595.8594" style="stroke:#181818;stroke-width:0.5;"/><text fill="#000000" font-family="sans-serif" font-size="11" lengthAdjust="spacing" textLength="230" x="249.25" y="606.0698">for each event id and previous event ids</text><text fill="#000000" font-family="sans-serif" font-size="11" lengthAdjust="spacing" textLength="227" x="249.25" y="618.8745">in map of event id to previous event ids</text><ellipse cx="364.25" cy="663.4688" fill="none" rx="10" ry="10" style="stroke:#222222;stroke-width:1.5;"/><line style="stroke:#222222;stroke-width:2.5;" x1="358.0628" x2="370.4372" y1="657.2816" y2="669.6559"/><line style="stroke:#222222;stroke-width:2.5;" x1="370.4372" x2="358.0628" y1="657.2816" y2="669.6559"/><rect fill="none" height="3097.6758" style="stroke:#000000;stroke-width:1.5;" width="737" x="11" y="683.4688"/><path d="M123,683.4688 L123,692.7656 L113,702.7656 L11,702.7656 " fill="none" style="stroke:#000000;stroke-width:1.5;"/><text fill="#000000" font-family="sans-serif" font-size="14" lengthAdjust="spacing" textLength="102" x="14" y="697.4639">sub algorithms</text><ellipse cx="364.25" cy="722.7656" fill="#222222" rx="10" ry="10" style="stroke:#222222;stroke-width:1.0;"/><rect fill="#F1F1F1" height="89.8438" rx="12.5" ry="12.5" style="stroke:#181818;stroke-width:0.5;" width="410" x="159.25" y="752.7656"/><text fill="#000000" font-family="sans-serif" font-size="12" lengthAdjust="spacing" textLength="50" x="169.25" y="773.9043">Input -&gt;</text><text fill="#000000" font-family="sans-serif" font-size="12" lengthAdjust="spacing" textLength="250" x="169.25" y="787.873">OTelEvent,map of event id to OTelEvent,</text><text fill="#000000" font-family="sans-serif" font-size="12" lengthAdjust="spacing" textLength="140" x="169.25" y="801.8418">previous event ids list,</text><text fill="#000000" font-family="sans-serif" font-size="12" lengthAdjust="spacing" textLength="67" x="169.25" y="815.8105">async flag,</text><text fill="#000000" font-family="sans-serif" font-size="12" lengthAdjust="spacing" textLength="390" x="169.25" y="829.7793">map of event type to list of sets of async following event types</text><rect fill="none" height="1295.3633" style="stroke:#000000;stroke-width:1.5;" width="717" x="21" y="852.6094"/><path d="M289,852.6094 L289,861.9063 L279,871.9063 L21,871.9063 " fill="none" style="stroke:#000000;stroke-width:1.5;"/><text fill="#000000" font-family="sans-serif" font-size="14" lengthAdjust="spacing" textLength="258" x="24" y="866.6045">sequence_otel_event_and_ancestors</text><rect fill="#F1F1F1" height="33.9688" rx="12.5" ry="12.5" style="stroke:#181818;stroke-width:0.5;" width="339" x="194.75" y="888.9063"/><text fill="#000000" font-family="sans-serif" font-size="12" lengthAdjust="spacing" textLength="319" x="204.75" y="910.0449">create empty map of event id to previous event ids</text><rect fill="#F1F1F1" height="33.9688" rx="12.5" ry="12.5" style="stroke:#181818;stroke-width:0.5;" width="387" x="170.75" y="942.875"/><text fill="#000000" font-family="sans-serif" font-size="12" lengthAdjust="spacing" textLength="367" x="180.75" y="964.0137">get list of child OTelEvents from event_id to OTelEvent map</text><polygon fill="#F1F1F1" points="236.75,996.8438,491.75,996.8438,503.75,1016.0508,491.75,1035.2578,236.75,1035.2578,224.75,1016.0508,236.75,996.8438" style="stroke:#181818;stroke-width:0.5;"/><text fill="#000000" font-family="sans-serif" font-size="11" lengthAdjust="spacing" textLength="255" x="236.75" y="1007.0542">OTelEvent event type is in map of event type</text><text fill="#000000" font-family="sans-serif" font-size="11" lengthAdjust="spacing" textLength="252" x="236.75" y="1019.8589">to list of sets of async following event types</text><text fill="#000000" font-family="sans-serif" font-size="11" lengthAdjust="spacing" textLength="105" x="236.75" y="1032.6636">and async flag set</text><text fill="#000000" font-family="sans-serif" font-size="11" lengthAdjust="spacing" textLength="23" x="201.75" y="1013.4565">true</text><text fill="#000000" font-family="sans-serif" font-size="11" lengthAdjust="spacing" textLength="28" x="503.75" y="1013.4565">false</text><rect fill="#F1F1F1" height="61.9063" rx="12.5" ry="12.5" style="stroke:#181818;stroke-width:0.5;" width="307" x="33.5" y="1045.2578"/><text fill="#000000" font-family="sans-serif" font-size="12" lengthAdjust="spacing" textLength="281" x="43.5" y="1066.3965">get list of sets of async following event types</text><text fill="#000000" font-family="sans-serif" font-size="12" lengthAdjust="spacing" textLength="287" x="43.5" y="1080.3652">from map of event type to list of sets of async</text><text fill="#000000" font-family="sans-serif" font-size="12" lengthAdjust="spacing" textLength="131" x="43.5" y="1094.334">following event types</text><rect fill="#F1F1F1" height="61.9063" rx="12.5" ry="12.5" style="stroke:#181818;stroke-width:0.5;" width="276" x="49" y="1142.1641"/><text fill="#000000" font-family="sans-serif" font-size="12" lengthAdjust="spacing" textLength="50" x="59" y="1163.3027">Input -&gt;</text><text fill="#000000" font-family="sans-serif" font-size="12" lengthAdjust="spacing" textLength="144" x="59" y="1177.2715">list of child OTelEvents,</text><text fill="#000000" font-family="sans-serif" font-size="12" lengthAdjust="spacing" textLength="256" x="59" y="1191.2402">list of sets of async following event types</text><rect fill="#F1F1F1" height="33.9688" style="stroke:#181818;stroke-width:0.5;" width="308" x="33" y="1239.0703"/><line style="stroke:#181818;stroke-width:0.5;" x1="38" x2="38" y1="1239.0703" y2="1273.0391"/><line style="stroke:#181818;stroke-width:0.5;" x1="336" x2="336" y1="1239.0703" y2="1273.0391"/><text fill="#000000" font-family="sans-serif" font-size="12" lengthAdjust="spacing" textLength="288" x="43" y="1260.209">call "sequence_events_by_async_event_types"</text><rect fill="#F1F1F1" height="33.9688" rx="12.5" ry="12.5" style="stroke:#181818;stroke-width:0.5;" width="247" x="418" y="1045.2578"/><text fill="#000000" font-family="sans-serif" font-size="12" lengthAdjust="spacing" textLength="227" x="428" y="1066.3965">put each event in a group of its own</text><rect fill="#F1F1F1" height="47.9375" rx="12.5" ry="12.5" style="stroke:#181818;stroke-width:0.5;" width="102" x="490.5" y="1114.2266"/><text fill="#000000" font-family="sans-serif" font-size="12" lengthAdjust="spacing" textLength="50" x="500.5" y="1135.3652">Input -&gt;</text><text fill="#000000" font-family="sans-serif" font-size="12" lengthAdjust="spacing" textLength="82" x="500.5" y="1149.334">list of groups</text><rect fill="#F1F1F1" height="33.9688" style="stroke:#181818;stroke-width:0.5;" width="267" x="408" y="1197.1641"/><line style="stroke:#181818;stroke-width:0.5;" x1="413" x2="413" y1="1197.1641" y2="1231.1328"/><line style="stroke:#181818;stroke-width:0.5;" x1="670" x2="670" y1="1197.1641" y2="1231.1328"/><text fill="#000000" font-family="sans-serif" font-size="12" lengthAdjust="spacing" textLength="247" x="418" y="1218.3027">call "order_groups_by_start_timestamp"</text><rect fill="#F1F1F1" height="47.9375" rx="12.5" ry="12.5" style="stroke:#181818;stroke-width:0.5;" width="245" x="419" y="1314.5352"/><text fill="#000000" font-family="sans-serif" font-size="12" lengthAdjust="spacing" textLength="50" x="429" y="1335.6738">Input -&gt;</text><text fill="#000000" font-family="sans-serif" font-size="12" lengthAdjust="spacing" textLength="225" x="429" y="1349.6426">ordered list of groups of OTelEvents</text><rect fill="#F1F1F1" height="33.9688" style="stroke:#181818;stroke-width:0.5;" width="341" x="371" y="1382.4727"/><line style="stroke:#181818;stroke-width:0.5;" x1="376" x2="376" y1="1382.4727" y2="1416.4414"/><line style="stroke:#181818;stroke-width:0.5;" x1="707" x2="707" y1="1382.4727" y2="1416.4414"/><text fill="#000000" font-family="sans-serif" font-size="12" lengthAdjust="spacing" textLength="321" x="381" y="1403.6113">Call "sequence_list_of_otel_events_asynchronously"</text><rect fill="#F1F1F1" height="33.9688" rx="12.5" ry="12.5" style="stroke:#181818;stroke-width:0.5;" width="228" x="427.5" y="1436.4414"/><text fill="#000000" font-family="sans-serif" font-size="12" lengthAdjust="spacing" textLength="208" x="437.5" y="1457.5801">replace list of groups with output</text><polygon fill="#F1F1F1" points="471,1266.1328,612,1266.1328,624,1278.1328,612,1290.1328,471,1290.1328,459,1278.1328,471,1266.1328" style="stroke:#181818;stroke-width:0.5;"/><text fill="#000000" font-family="sans-serif" font-size="11" lengthAdjust="spacing" textLength="23" x="545.5" y="1300.3433">true</text><text fill="#000000" font-family="sans-serif" font-size="11" lengthAdjust="spacing" textLength="141" x="471" y="1281.9409">check if async flag is set</text><polygon fill="#F1F1F1" points="541.5,1490.4102,553.5,1502.4102,541.5,1514.4102,529.5,1502.4102,541.5,1490.4102" style="stroke:#181818;stroke-width:0.5;"/><polygon fill="#F1F1F1" points="364.25,1520.4102,376.25,1532.4102,364.25,1544.4102,352.25,1532.4102,364.25,1520.4102" style="stroke:#181818;stroke-width:0.5;"/><rect fill="#F1F1F1" height="103.8125" rx="12.5" ry="12.5" style="stroke:#181818;stroke-width:0.5;" width="410" x="159.25" y="1652.4102"/><text fill="#000000" font-family="sans-serif" font-size="12" lengthAdjust="spacing" textLength="50" x="169.25" y="1673.5488">Input -&gt;</text><text fill="#000000" font-family="sans-serif" font-size="12" lengthAdjust="spacing" textLength="116" x="169.25" y="1687.5176">current OTelEvent,</text><text fill="#000000" font-family="sans-serif" font-size="12" lengthAdjust="spacing" textLength="186" x="169.25" y="1701.4863">map of event_id to OTelEvent,</text><text fill="#000000" font-family="sans-serif" font-size="12" lengthAdjust="spacing" textLength="140" x="169.25" y="1715.4551">previous event ids list,</text><text fill="#000000" font-family="sans-serif" font-size="12" lengthAdjust="spacing" textLength="67" x="169.25" y="1729.4238">async flag,</text><text fill="#000000" font-family="sans-serif" font-size="12" lengthAdjust="spacing" textLength="390" x="169.25" y="1743.3926">map of event type to list of sets of async following event types</text><rect fill="#F1F1F1" height="33.9688" style="stroke:#181818;stroke-width:0.5;" width="351" x="188.75" y="1784.1602"/><line style="stroke:#181818;stroke-width:0.5;" x1="193.75" x2="193.75" y1="1784.1602" y2="1818.1289"/><line style="stroke:#181818;stroke-width:0.5;" x1="534.75" x2="534.75" y1="1784.1602" y2="1818.1289"/><text fill="#000000" font-family="sans-serif" font-size="12" lengthAdjust="spacing" textLength="331" x="198.75" y="1805.2988">Recursive call "sequence_otel_event_and_ancestors"</text><rect fill="#F1F1F1" height="33.9688" rx="12.5" ry="12.5" style="stroke:#181818;stroke-width:0.5;" width="301" x="213.75" y="1838.1289"/><text fill="#000000" font-family="sans-serif" font-size="12" lengthAdjust="spacing" textLength="281" x="223.75" y="1859.2676">update map of event id to previous event ids</text><polygon fill="#F1F1F1" points="364.25,1608.4102,376.25,1620.4102,364.25,1632.4102,352.25,1620.4102,364.25,1608.4102" style="stroke:#181818;stroke-width:0.5;"/><polygon fill="#F1F1F1" points="284.25,1892.0977,444.25,1892.0977,456.25,1904.0977,444.25,1916.0977,284.25,1916.0977,272.25,1904.0977,284.25,1892.0977" style="stroke:#181818;stroke-width:0.5;"/><text fill="#000000" font-family="sans-serif" font-size="11" lengthAdjust="spacing" textLength="160" x="284.25" y="1907.9058">for each OTelEvent of group</text><rect fill="#F1F1F1" height="33.9688" rx="12.5" ry="12.5" style="stroke:#181818;stroke-width:0.5;" width="473" x="127.75" y="1936.0977"/><text fill="#000000" font-family="sans-serif" font-size="12" lengthAdjust="spacing" textLength="453" x="137.75" y="1957.2363">set previous event ids list to previous event ids list of all events in group</text><polygon fill="#F1F1F1" points="364.25,1564.4102,376.25,1576.4102,364.25,1588.4102,352.25,1576.4102,364.25,1564.4102" style="stroke:#181818;stroke-width:0.5;"/><polygon fill="#F1F1F1" points="322.25,1990.0664,406.25,1990.0664,418.25,2002.0664,406.25,2014.0664,322.25,2014.0664,310.25,2002.0664,322.25,1990.0664" style="stroke:#181818;stroke-width:0.5;"/><text fill="#000000" font-family="sans-serif" font-size="11" lengthAdjust="spacing" textLength="84" x="322.25" y="2005.8745">for each group</text><rect fill="#F1F1F1" height="47.9375" rx="12.5" ry="12.5" style="stroke:#181818;stroke-width:0.5;" width="387" x="170.75" y="2034.0664"/><text fill="#000000" font-family="sans-serif" font-size="12" lengthAdjust="spacing" textLength="367" x="180.75" y="2055.2051">update map of event id to previous event ids with previous</text><text fill="#000000" font-family="sans-serif" font-size="12" lengthAdjust="spacing" textLength="323" x="180.75" y="2069.1738">event ids list mapped to event id of input OTelEvent</text><rect fill="#F1F1F1" height="33.9688" rx="12.5" ry="12.5" style="stroke:#181818;stroke-width:0.5;" width="298" x="215.25" y="2102.0039"/><text fill="#000000" font-family="sans-serif" font-size="12" lengthAdjust="spacing" textLength="278" x="225.25" y="2123.1426">output map of event id to previous event ids</text><ellipse cx="364.25" cy="2177.9727" fill="none" rx="10" ry="10" style="stroke:#222222;stroke-width:1.5;"/><line style="stroke:#222222;stroke-width:2.5;" x1="358.0628" x2="370.4372" y1="2171.7855" y2="2184.1598"/><line style="stroke:#222222;stroke-width:2.5;" x1="370.4372" x2="358.0628" y1="2171.7855" y2="2184.1598"/><ellipse cx="364.25" cy="2207.9727" fill="#222222" rx="10" ry="10" style="stroke:#222222;stroke-width:1.0;"/><rect fill="#F1F1F1" height="47.9375" rx="12.5" ry="12.5" style="stroke:#181818;stroke-width:0.5;" width="219" x="254.75" y="2237.9727"/><text fill="#000000" font-family="sans-serif" font-size="12" lengthAdjust="spacing" textLength="50" x="264.75" y="2259.1113">Input -&gt;</text><text fill="#000000" font-family="sans-serif" font-size="12" lengthAdjust="spacing" textLength="199" x="264.75" y="2273.0801">ordered list of list of OTelEvents</text><rect fill="none" height="479.1094" style="stroke:#000000;stroke-width:1.5;" width="471" x="152.5" y="2295.9102"/><path d="M480.5,2295.9102 L480.5,2305.207 L470.5,2315.207 L152.5,2315.207 " fill="none" style="stroke:#000000;stroke-width:1.5;"/><text fill="#000000" font-family="sans-serif" font-size="14" lengthAdjust="spacing" textLength="318" x="155.5" y="2309.9053">sequence_list_of_otel_events_asynchronously</text><rect fill="#F1F1F1" height="33.9688" rx="12.5" ry="12.5" style="stroke:#181818;stroke-width:0.5;" width="314" x="207.25" y="2332.207"/><text fill="#000000" font-family="sans-serif" font-size="12" lengthAdjust="spacing" textLength="294" x="217.25" y="2353.3457">create empty list of groups and add first group</text><rect fill="#F1F1F1" height="33.9688" rx="12.5" ry="12.5" style="stroke:#181818;stroke-width:0.5;" width="235" x="246.75" y="2430.1758"/><text fill="#000000" font-family="sans-serif" font-size="12" lengthAdjust="spacing" textLength="215" x="256.75" y="2451.3145">get last entry of new list of groups</text><rect fill="#F1F1F1" height="47.9375" rx="12.5" ry="12.5" style="stroke:#181818;stroke-width:0.5;" width="260" x="234.25" y="2484.1445"/><text fill="#000000" font-family="sans-serif" font-size="12" lengthAdjust="spacing" textLength="223" x="244.25" y="2505.2832">check if start timestamp of group is</text><text fill="#000000" font-family="sans-serif" font-size="12" lengthAdjust="spacing" textLength="240" x="244.25" y="2519.252">less than end timestamp of last group</text><polygon fill="#F1F1F1" points="352.25,2567.082,376.25,2567.082,388.25,2579.082,376.25,2591.082,352.25,2591.082,340.25,2579.082,352.25,2567.082" style="stroke:#181818;stroke-width:0.5;"/><text fill="#000000" font-family="sans-serif" font-size="11" lengthAdjust="spacing" textLength="23" x="352.75" y="2582.8901">true</text><text fill="#000000" font-family="sans-serif" font-size="11" lengthAdjust="spacing" textLength="23" x="317.25" y="2576.4878">true</text><text fill="#000000" font-family="sans-serif" font-size="11" lengthAdjust="spacing" textLength="28" x="388.25" y="2576.4878">false</text><rect fill="#F1F1F1" height="33.9688" rx="12.5" ry="12.5" style="stroke:#181818;stroke-width:0.5;" width="170" x="172.5" y="2601.082"/><text fill="#000000" font-family="sans-serif" font-size="12" lengthAdjust="spacing" textLength="150" x="182.5" y="2622.2207">add group to last group</text><rect fill="#F1F1F1" height="33.9688" rx="12.5" ry="12.5" style="stroke:#181818;stroke-width:0.5;" width="217" x="362.5" y="2601.082"/><text fill="#000000" font-family="sans-serif" font-size="12" lengthAdjust="spacing" textLength="197" x="372.5" y="2622.2207">add group to new list of groups</text><polygon fill="#F1F1F1" points="364.25,2641.0508,376.25,2653.0508,364.25,2665.0508,352.25,2653.0508,364.25,2641.0508" style="stroke:#181818;stroke-width:0.5;"/><polygon fill="#F1F1F1" points="364.25,2386.1758,376.25,2398.1758,364.25,2410.1758,352.25,2398.1758,364.25,2386.1758" style="stroke:#181818;stroke-width:0.5;"/><polygon fill="#F1F1F1" points="274.75,2685.0508,453.75,2685.0508,465.75,2697.0508,453.75,2709.0508,274.75,2709.0508,262.75,2697.0508,274.75,2685.0508" style="stroke:#181818;stroke-width:0.5;"/><text fill="#000000" font-family="sans-serif" font-size="11" lengthAdjust="spacing" textLength="179" x="274.75" y="2700.8589">for each group after first group</text><rect fill="#F1F1F1" height="33.9688" rx="12.5" ry="12.5" style="stroke:#181818;stroke-width:0.5;" width="177" x="275.75" y="2729.0508"/><text fill="#000000" font-family="sans-serif" font-size="12" lengthAdjust="spacing" textLength="157" x="285.75" y="2750.1895">output new list of groups</text><ellipse cx="364.25" cy="2805.0195" fill="none" rx="10" ry="10" style="stroke:#222222;stroke-width:1.5;"/><line style="stroke:#222222;stroke-width:2.5;" x1="358.0628" x2="370.4372" y1="2798.8323" y2="2811.2067"/><line style="stroke:#222222;stroke-width:2.5;" x1="370.4372" x2="358.0628" y1="2798.8323" y2="2811.2067"/><ellipse cx="364.25" cy="2835.0195" fill="#222222" rx="10" ry="10" style="stroke:#222222;stroke-width:1.0;"/><rect fill="#F1F1F1" height="47.9375" rx="12.5" ry="12.5" style="stroke:#181818;stroke-width:0.5;" width="191" x="268.75" y="2865.0195"/><text fill="#000000" font-family="sans-serif" font-size="12" lengthAdjust="spacing" textLength="50" x="278.75" y="2886.1582">Input -&gt;</text><text fill="#000000" font-family="sans-serif" font-size="12" lengthAdjust="spacing" textLength="171" x="278.75" y="2900.127">list of groups of OTelEvents</text><rect fill="none" height="136.2344" style="stroke:#000000;stroke-width:1.5;" width="374" x="177.25" y="2922.957"/><path d="M421.25,2922.957 L421.25,2932.2539 L411.25,2942.2539 L177.25,2942.2539 " fill="none" style="stroke:#000000;stroke-width:1.5;"/><text fill="#000000" font-family="sans-serif" font-size="14" lengthAdjust="spacing" textLength="234" x="180.25" y="2936.9521">order_groups_by_start_timestamp</text><rect fill="#F1F1F1" height="33.9688" rx="12.5" ry="12.5" style="stroke:#181818;stroke-width:0.5;" width="354" x="187.25" y="2959.2539"/><text fill="#000000" font-family="sans-serif" font-size="12" lengthAdjust="spacing" textLength="334" x="197.25" y="2980.3926">sort groups by start timestamp of first event in group</text><rect fill="#F1F1F1" height="33.9688" rx="12.5" ry="12.5" style="stroke:#181818;stroke-width:0.5;" width="155" x="286.75" y="3013.2227"/><text fill="#000000" font-family="sans-serif" font-size="12" lengthAdjust="spacing" textLength="135" x="296.75" y="3034.3613">output sorted groups</text><ellipse cx="364.25" cy="3089.1914" fill="none" rx="10" ry="10" style="stroke:#222222;stroke-width:1.5;"/><line style="stroke:#222222;stroke-width:2.5;" x1="358.0628" x2="370.4372" y1="3083.0042" y2="3095.3786"/><line style="stroke:#222222;stroke-width:2.5;" x1="370.4372" x2="358.0628" y1="3083.0042" y2="3095.3786"/><ellipse cx="364.25" cy="3119.1914" fill="#222222" rx="10" ry="10" style="stroke:#222222;stroke-width:1.0;"/><rect fill="#F1F1F1" height="61.9063" rx="12.5" ry="12.5" style="stroke:#181818;stroke-width:0.5;" width="218" x="255.25" y="3149.1914"/><text fill="#000000" font-family="sans-serif" font-size="12" lengthAdjust="spacing" textLength="50" x="265.25" y="3170.3301">Input -&gt;</text><text fill="#000000" font-family="sans-serif" font-size="12" lengthAdjust="spacing" textLength="111" x="265.25" y="3184.2988">list of OTelEvents,</text><text fill="#000000" font-family="sans-serif" font-size="12" lengthAdjust="spacing" textLength="198" x="265.25" y="3198.2676">list of sets of async event types</text><rect fill="none" height="508.0469" style="stroke:#000000;stroke-width:1.5;" width="468" x="142.25" y="3221.0977"/><path d="M437.25,3221.0977 L437.25,3230.3945 L427.25,3240.3945 L142.25,3240.3945 " fill="none" style="stroke:#000000;stroke-width:1.5;"/><text fill="#000000" font-family="sans-serif" font-size="14" lengthAdjust="spacing" textLength="285" x="145.25" y="3235.0928">sequence_events_by_async_event_types</text><rect fill="#F1F1F1" height="33.9688" rx="12.5" ry="12.5" style="stroke:#181818;stroke-width:0.5;" width="189" x="269.75" y="3257.3945"/><text fill="#000000" font-family="sans-serif" font-size="12" lengthAdjust="spacing" textLength="169" x="279.75" y="3278.5332">create empty list of groups</text><rect fill="#F1F1F1" height="33.9688" rx="12.5" ry="12.5" style="stroke:#181818;stroke-width:0.5;" width="424" x="152.25" y="3355.3633"/><text fill="#000000" font-family="sans-serif" font-size="12" lengthAdjust="spacing" textLength="404" x="162.25" y="3376.502">find and group child events by set of async following event types</text><rect fill="#F1F1F1" height="33.9688" rx="12.5" ry="12.5" style="stroke:#181818;stroke-width:0.5;" width="305" x="211.75" y="3409.332"/><text fill="#000000" font-family="sans-serif" font-size="12" lengthAdjust="spacing" textLength="285" x="221.75" y="3430.4707">order OTelEvents in group by start timestamp</text><rect fill="#F1F1F1" height="33.9688" rx="12.5" ry="12.5" style="stroke:#181818;stroke-width:0.5;" width="188" x="270.25" y="3463.3008"/><text fill="#000000" font-family="sans-serif" font-size="12" lengthAdjust="spacing" textLength="168" x="280.25" y="3484.4395">add group to list of groups</text><polygon fill="#F1F1F1" points="364.25,3311.3633,376.25,3323.3633,364.25,3335.3633,352.25,3323.3633,364.25,3311.3633" style="stroke:#181818;stroke-width:0.5;"/><polygon fill="#F1F1F1" points="241.75,3517.2695,486.75,3517.2695,498.75,3529.2695,486.75,3541.2695,241.75,3541.2695,229.75,3529.2695,241.75,3517.2695" style="stroke:#181818;stroke-width:0.5;"/><text fill="#000000" font-family="sans-serif" font-size="11" lengthAdjust="spacing" textLength="245" x="241.75" y="3533.0776">for each set of async following event types</text><rect fill="#F1F1F1" height="47.9375" rx="12.5" ry="12.5" style="stroke:#181818;stroke-width:0.5;" width="102" x="313.25" y="3561.2695"/><text fill="#000000" font-family="sans-serif" font-size="12" lengthAdjust="spacing" textLength="50" x="323.25" y="3582.4082">Input -&gt;</text><text fill="#000000" font-family="sans-serif" font-size="12" lengthAdjust="spacing" textLength="82" x="323.25" y="3596.377">list of groups</text><rect fill="#F1F1F1" height="33.9688" style="stroke:#181818;stroke-width:0.5;" width="267" x="230.75" y="3629.207"/><line style="stroke:#181818;stroke-width:0.5;" x1="235.75" x2="235.75" y1="3629.207" y2="3663.1758"/><line style="stroke:#181818;stroke-width:0.5;" x1="492.75" x2="492.75" y1="3629.207" y2="3663.1758"/><text fill="#000000" font-family="sans-serif" font-size="12" lengthAdjust="spacing" textLength="247" x="240.75" y="3650.3457">call "order_groups_by_start_timestamp"</text><rect fill="#F1F1F1" height="33.9688" rx="12.5" ry="12.5" style="stroke:#181818;stroke-width:0.5;" width="193" x="267.75" y="3683.1758"/><text fill="#000000" font-family="sans-serif" font-size="12" lengthAdjust="spacing" textLength="173" x="277.75" y="3704.3145">output sorted list of groups</text><ellipse cx="364.25" cy="3759.1445" fill="none" rx="10" ry="10" style="stroke:#222222;stroke-width:1.5;"/><line style="stroke:#222222;stroke-width:2.5;" x1="358.0628" x2="370.4372" y1="3752.9573" y2="3765.3317"/><line style="stroke:#222222;stroke-width:2.5;" x1="370.4372" x2="358.0628" y1="3752.9573" y2="3765.3317"/><line style="stroke:#181818;stroke-width:1.0;" x1="364.25" x2="364.25" y1="30" y2="50"/><polygon fill="#181818" points="360.25,40,364.25,50,368.25,40,364.25,44" style="stroke:#181818;stroke-width:1.0;"/><line style="stroke:#181818;stroke-width:1.0;" x1="364.25" x2="364.25" y1="206.1406" y2="226.1406"/><polygon fill="#181818" points="360.25,216.1406,364.25,226.1406,368.25,216.1406,364.25,220.1406" style="stroke:#181818;stroke-width:1.0;"/><line style="stroke:#181818;stroke-width:1.0;" x1="364.25" x2="364.25" y1="315.9844" y2="335.9844"/><polygon fill="#181818" points="360.25,325.9844,364.25,335.9844,368.25,325.9844,364.25,329.9844" style="stroke:#181818;stroke-width:1.0;"/><line style="stroke:#181818;stroke-width:1.0;" x1="364.25" x2="364.25" y1="467.9219" y2="487.9219"/><polygon fill="#181818" points="360.25,477.9219,364.25,487.9219,368.25,477.9219,364.25,481.9219" style="stroke:#181818;stroke-width:1.0;"/><line style="stroke:#181818;stroke-width:1.0;" x1="364.25" x2="364.25" y1="521.8906" y2="541.8906"/><polygon fill="#181818" points="360.25,531.8906,364.25,541.8906,368.25,531.8906,364.25,535.8906" style="stroke:#181818;stroke-width:1.0;"/><line style="stroke:#181818;stroke-width:1.0;" x1="364.25" x2="364.25" y1="413.9531" y2="433.9531"/><polygon fill="#181818" points="360.25,423.9531,364.25,433.9531,368.25,423.9531,364.25,427.9531" style="stroke:#181818;stroke-width:1.0;"/><line style="stroke:#181818;stroke-width:1.0;" x1="491.25" x2="561.25" y1="608.6641" y2="608.6641"/><polygon fill="#181818" points="557.25,515.3086,561.25,505.3086,565.25,515.3086,561.25,511.3086" style="stroke:#181818;stroke-width:1.0;"/><line style="stroke:#181818;stroke-width:1.0;" x1="561.25" x2="561.25" y1="401.9531" y2="608.6641"/><line style="stroke:#181818;stroke-width:1.0;" x1="561.25" x2="376.25" y1="401.9531" y2="401.9531"/><polygon fill="#181818" points="386.25,397.9531,376.25,401.9531,386.25,405.9531,382.25,401.9531" style="stroke:#181818;stroke-width:1.0;"/><line style="stroke:#181818;stroke-width:1.0;" x1="364.25" x2="364.25" y1="575.8594" y2="595.8594"/><polygon fill="#181818" points="360.25,585.8594,364.25,595.8594,368.25,585.8594,364.25,589.8594" style="stroke:#181818;stroke-width:1.0;"/><line style="stroke:#181818;stroke-width:1.0;" x1="364.25" x2="364.25" y1="369.9531" y2="389.9531"/><polygon fill="#181818" points="360.25,379.9531,364.25,389.9531,368.25,379.9531,364.25,383.9531" style="stroke:#181818;stroke-width:1.0;"/><line style="stroke:#181818;stroke-width:1.0;" x1="364.25" x2="364.25" y1="125.875" y2="172.1719"/><polygon fill="#181818" points="360.25,162.1719,364.25,172.1719,368.25,162.1719,364.25,166.1719" style="stroke:#181818;stroke-width:1.0;"/><line style="stroke:#181818;stroke-width:1.0;" x1="364.25" x2="364.25" y1="621.4688" y2="653.4688"/><polygon fill="#181818" points="360.25,643.4688,364.25,653.4688,368.25,643.4688,364.25,647.4688" style="stroke:#181818;stroke-width:1.0;"/><line style="stroke:#181818;stroke-width:1.0;" x1="364.25" x2="364.25" y1="732.7656" y2="752.7656"/><polygon fill="#181818" points="360.25,742.7656,364.25,752.7656,368.25,742.7656,364.25,746.7656" style="stroke:#181818;stroke-width:1.0;"/><line style="stroke:#181818;stroke-width:1.0;" x1="364.25" x2="364.25" y1="922.875" y2="942.875"/><polygon fill="#181818" points="360.25,932.875,364.25,942.875,368.25,932.875,364.25,936.875" style="stroke:#181818;stroke-width:1.0;"/><line style="stroke:#181818;stroke-width:1.0;" x1="187" x2="187" y1="1107.1641" y2="1142.1641"/><polygon fill="#181818" points="183,1132.1641,187,1142.1641,191,1132.1641,187,1136.1641" style="stroke:#181818;stroke-width:1.0;"/><line style="stroke:#181818;stroke-width:1.0;" x1="187" x2="187" y1="1204.0703" y2="1239.0703"/><polygon fill="#181818" points="183,1229.0703,187,1239.0703,191,1229.0703,187,1233.0703" style="stroke:#181818;stroke-width:1.0;"/><line style="stroke:#181818;stroke-width:1.0;" x1="541.5" x2="541.5" y1="1079.2266" y2="1114.2266"/><polygon fill="#181818" points="537.5,1104.2266,541.5,1114.2266,545.5,1104.2266,541.5,1108.2266" style="stroke:#181818;stroke-width:1.0;"/><line style="stroke:#181818;stroke-width:1.0;" x1="541.5" x2="541.5" y1="1162.1641" y2="1197.1641"/><polygon fill="#181818" points="537.5,1187.1641,541.5,1197.1641,545.5,1187.1641,541.5,1191.1641" style="stroke:#181818;stroke-width:1.0;"/><line style="stroke:#181818;stroke-width:1.0;" x1="541.5" x2="541.5" y1="1362.4727" y2="1382.4727"/><polygon fill="#181818" points="537.5,1372.4727,541.5,1382.4727,545.5,1372.4727,541.5,1376.4727" style="stroke:#181818;stroke-width:1.0;"/><line style="stroke:#181818;stroke-width:1.0;" x1="541.5" x2="541.5" y1="1416.4414" y2="1436.4414"/><polygon fill="#181818" points="537.5,1426.4414,541.5,1436.4414,545.5,1426.4414,541.5,1430.4414" style="stroke:#181818;stroke-width:1.0;"/><line style="stroke:#181818;stroke-width:1.0;" x1="541.5" x2="541.5" y1="1290.1328" y2="1314.5352"/><polygon fill="#181818" points="537.5,1304.5352,541.5,1314.5352,545.5,1304.5352,541.5,1308.5352" style="stroke:#181818;stroke-width:1.0;"/><line style="stroke:#181818;stroke-width:1.0;" x1="624" x2="722" y1="1278.1328" y2="1278.1328"/><polygon fill="#181818" points="718,1382.4727,722,1392.4727,726,1382.4727,722,1386.4727" style="stroke:#181818;stroke-width:1.0;"/><line style="stroke:#181818;stroke-width:1.0;" x1="722" x2="722" y1="1278.1328" y2="1502.4102"/><line style="stroke:#181818;stroke-width:1.0;" x1="722" x2="553.5" y1="1502.4102" y2="1502.4102"/><polygon fill="#181818" points="563.5,1498.4102,553.5,1502.4102,563.5,1506.4102,559.5,1502.4102" style="stroke:#181818;stroke-width:1.0;"/><line style="stroke:#181818;stroke-width:1.0;" x1="541.5" x2="541.5" y1="1470.4102" y2="1490.4102"/><polygon fill="#181818" points="537.5,1480.4102,541.5,1490.4102,545.5,1480.4102,541.5,1484.4102" style="stroke:#181818;stroke-width:1.0;"/><line style="stroke:#181818;stroke-width:1.0;" x1="541.5" x2="541.5" y1="1231.1328" y2="1266.1328"/><polygon fill="#181818" points="537.5,1256.1328,541.5,1266.1328,545.5,1256.1328,541.5,1260.1328" style="stroke:#181818;stroke-width:1.0;"/><line style="stroke:#181818;stroke-width:1.0;" x1="224.75" x2="187" y1="1016.0508" y2="1016.0508"/><line style="stroke:#181818;stroke-width:1.0;" x1="187" x2="187" y1="1016.0508" y2="1045.2578"/><polygon fill="#181818" points="183,1035.2578,187,1045.2578,191,1035.2578,187,1039.2578" style="stroke:#181818;stroke-width:1.0;"/><line style="stroke:#181818;stroke-width:1.0;" x1="503.75" x2="541.5" y1="1016.0508" y2="1016.0508"/><line style="stroke:#181818;stroke-width:1.0;" x1="541.5" x2="541.5" y1="1016.0508" y2="1045.2578"/><polygon fill="#181818" points="537.5,1035.2578,541.5,1045.2578,545.5,1035.2578,541.5,1039.2578" style="stroke:#181818;stroke-width:1.0;"/><line style="stroke:#181818;stroke-width:1.0;" x1="187" x2="187" y1="1273.0391" y2="1532.4102"/><line style="stroke:#181818;stroke-width:1.0;" x1="187" x2="352.25" y1="1532.4102" y2="1532.4102"/><polygon fill="#181818" points="342.25,1528.4102,352.25,1532.4102,342.25,1536.4102,346.25,1532.4102" style="stroke:#181818;stroke-width:1.0;"/><line style="stroke:#181818;stroke-width:1.0;" x1="541.5" x2="541.5" y1="1514.4102" y2="1532.4102"/><line style="stroke:#181818;stroke-width:1.0;" x1="541.5" x2="376.25" y1="1532.4102" y2="1532.4102"/><polygon fill="#181818" points="386.25,1528.4102,376.25,1532.4102,386.25,1536.4102,382.25,1532.4102" style="stroke:#181818;stroke-width:1.0;"/><line style="stroke:#181818;stroke-width:1.0;" x1="364.25" x2="364.25" y1="976.8438" y2="996.8438"/><polygon fill="#181818" points="360.25,986.8438,364.25,996.8438,368.25,986.8438,364.25,990.8438" style="stroke:#181818;stroke-width:1.0;"/><line style="stroke:#181818;stroke-width:1.0;" x1="364.25" x2="364.25" y1="1756.2227" y2="1784.1602"/><polygon fill="#181818" points="360.25,1774.1602,364.25,1784.1602,368.25,1774.1602,364.25,1778.1602" style="stroke:#181818;stroke-width:1.0;"/><line style="stroke:#181818;stroke-width:1.0;" x1="364.25" x2="364.25" y1="1818.1289" y2="1838.1289"/><polygon fill="#181818" points="360.25,1828.1289,364.25,1838.1289,368.25,1828.1289,364.25,1832.1289" style="stroke:#181818;stroke-width:1.0;"/><line style="stroke:#181818;stroke-width:1.0;" x1="364.25" x2="364.25" y1="1632.4102" y2="1652.4102"/><polygon fill="#181818" points="360.25,1642.4102,364.25,1652.4102,368.25,1642.4102,364.25,1646.4102" style="stroke:#181818;stroke-width:1.0;"/><line style="stroke:#181818;stroke-width:1.0;" x1="456.25" x2="581.25" y1="1904.0977" y2="1904.0977"/><polygon fill="#181818" points="577.25,1776.2227,581.25,1766.2227,585.25,1776.2227,581.25,1772.2227" style="stroke:#181818;stroke-width:1.0;"/><line style="stroke:#181818;stroke-width:1.0;" x1="581.25" x2="581.25" y1="1620.4102" y2="1904.0977"/><line style="stroke:#181818;stroke-width:1.0;" x1="581.25" x2="376.25" y1="1620.4102" y2="1620.4102"/><polygon fill="#181818" points="386.25,1616.4102,376.25,1620.4102,386.25,1624.4102,382.25,1620.4102" style="stroke:#181818;stroke-width:1.0;"/><line style="stroke:#181818;stroke-width:1.0;" x1="364.25" x2="364.25" y1="1872.0977" y2="1892.0977"/><polygon fill="#181818" points="360.25,1882.0977,364.25,1892.0977,368.25,1882.0977,364.25,1886.0977" style="stroke:#181818;stroke-width:1.0;"/><line style="stroke:#181818;stroke-width:1.0;" x1="364.25" x2="364.25" y1="1916.0977" y2="1936.0977"/><polygon fill="#181818" points="360.25,1926.0977,364.25,1936.0977,368.25,1926.0977,364.25,1930.0977" style="stroke:#181818;stroke-width:1.0;"/><line style="stroke:#181818;stroke-width:1.0;" x1="364.25" x2="364.25" y1="1588.4102" y2="1608.4102"/><polygon fill="#181818" points="360.25,1598.4102,364.25,1608.4102,368.25,1598.4102,364.25,1602.4102" style="stroke:#181818;stroke-width:1.0;"/><line style="stroke:#181818;stroke-width:1.0;" x1="418.25" x2="612.75" y1="2002.0664" y2="2002.0664"/><polygon fill="#181818" points="608.75,1810.707,612.75,1800.707,616.75,1810.707,612.75,1806.707" style="stroke:#181818;stroke-width:1.0;"/><line style="stroke:#181818;stroke-width:1.0;" x1="612.75" x2="612.75" y1="1576.4102" y2="2002.0664"/><line style="stroke:#181818;stroke-width:1.0;" x1="612.75" x2="376.25" y1="1576.4102" y2="1576.4102"/><polygon fill="#181818" points="386.25,1572.4102,376.25,1576.4102,386.25,1580.4102,382.25,1576.4102" style="stroke:#181818;stroke-width:1.0;"/><line style="stroke:#181818;stroke-width:1.0;" x1="364.25" x2="364.25" y1="1970.0664" y2="1990.0664"/><polygon fill="#181818" points="360.25,1980.0664,364.25,1990.0664,368.25,1980.0664,364.25,1984.0664" style="stroke:#181818;stroke-width:1.0;"/><line style="stroke:#181818;stroke-width:1.0;" x1="364.25" x2="364.25" y1="1544.4102" y2="1564.4102"/><polygon fill="#181818" points="360.25,1554.4102,364.25,1564.4102,368.25,1554.4102,364.25,1558.4102" style="stroke:#181818;stroke-width:1.0;"/><line style="stroke:#181818;stroke-width:1.0;" x1="364.25" x2="364.25" y1="2014.0664" y2="2034.0664"/><polygon fill="#181818" points="360.25,2024.0664,364.25,2034.0664,368.25,2024.0664,364.25,2028.0664" style="stroke:#181818;stroke-width:1.0;"/><line style="stroke:#181818;stroke-width:1.0;" x1="364.25" x2="364.25" y1="2082.0039" y2="2102.0039"/><polygon fill="#181818" points="360.25,2092.0039,364.25,2102.0039,368.25,2092.0039,364.25,2096.0039" style="stroke:#181818;stroke-width:1.0;"/><line style="stroke:#181818;stroke-width:1.0;" x1="364.25" x2="364.25" y1="842.6094" y2="888.9063"/><polygon fill="#181818" points="360.25,878.9063,364.25,888.9063,368.25,878.9063,364.25,882.9063" style="stroke:#181818;stroke-width:1.0;"/><line style="stroke:#181818;stroke-width:1.0;" x1="364.25" x2="364.25" y1="2135.9727" y2="2167.9727"/><polygon fill="#181818" points="360.25,2157.9727,364.25,2167.9727,368.25,2157.9727,364.25,2161.9727" style="stroke:#181818;stroke-width:1.0;"/><line style="stroke:#181818;stroke-width:1.0;" x1="364.25" x2="364.25" y1="2217.9727" y2="2237.9727"/><polygon fill="#181818" points="360.25,2227.9727,364.25,2237.9727,368.25,2227.9727,364.25,2231.9727" style="stroke:#181818;stroke-width:1.0;"/><line style="stroke:#181818;stroke-width:1.0;" x1="364.25" x2="364.25" y1="2464.1445" y2="2484.1445"/><polygon fill="#181818" points="360.25,2474.1445,364.25,2484.1445,368.25,2474.1445,364.25,2478.1445" style="stroke:#181818;stroke-width:1.0;"/><line style="stroke:#181818;stroke-width:1.0;" x1="340.25" x2="257.5" y1="2579.082" y2="2579.082"/><line style="stroke:#181818;stroke-width:1.0;" x1="257.5" x2="257.5" y1="2579.082" y2="2601.082"/><polygon fill="#181818" points="253.5,2591.082,257.5,2601.082,261.5,2591.082,257.5,2595.082" style="stroke:#181818;stroke-width:1.0;"/><line style="stroke:#181818;stroke-width:1.0;" x1="388.25" x2="471" y1="2579.082" y2="2579.082"/><line style="stroke:#181818;stroke-width:1.0;" x1="471" x2="471" y1="2579.082" y2="2601.082"/><polygon fill="#181818" points="467,2591.082,471,2601.082,475,2591.082,471,2595.082" style="stroke:#181818;stroke-width:1.0;"/><line style="stroke:#181818;stroke-width:1.0;" x1="257.5" x2="257.5" y1="2635.0508" y2="2653.0508"/><line style="stroke:#181818;stroke-width:1.0;" x1="257.5" x2="352.25" y1="2653.0508" y2="2653.0508"/><polygon fill="#181818" points="342.25,2649.0508,352.25,2653.0508,342.25,2657.0508,346.25,2653.0508" style="stroke:#181818;stroke-width:1.0;"/><line style="stroke:#181818;stroke-width:1.0;" x1="471" x2="471" y1="2635.0508" y2="2653.0508"/><line style="stroke:#181818;stroke-width:1.0;" x1="471" x2="376.25" y1="2653.0508" y2="2653.0508"/><polygon fill="#181818" points="386.25,2649.0508,376.25,2653.0508,386.25,2657.0508,382.25,2653.0508" style="stroke:#181818;stroke-width:1.0;"/><line style="stroke:#181818;stroke-width:1.0;" x1="364.25" x2="364.25" y1="2532.082" y2="2567.082"/><polygon fill="#181818" points="360.25,2557.082,364.25,2567.082,368.25,2557.082,364.25,2561.082" style="stroke:#181818;stroke-width:1.0;"/><line style="stroke:#181818;stroke-width:1.0;" x1="364.25" x2="364.25" y1="2410.1758" y2="2430.1758"/><polygon fill="#181818" points="360.25,2420.1758,364.25,2430.1758,368.25,2420.1758,364.25,2424.1758" style="stroke:#181818;stroke-width:1.0;"/><line style="stroke:#181818;stroke-width:1.0;" x1="465.75" x2="601.5" y1="2697.0508" y2="2697.0508"/><polygon fill="#181818" points="597.5,2550.1133,601.5,2540.1133,605.5,2550.1133,601.5,2546.1133" style="stroke:#181818;stroke-width:1.0;"/><line style="stroke:#181818;stroke-width:1.0;" x1="601.5" x2="601.5" y1="2398.1758" y2="2697.0508"/><line style="stroke:#181818;stroke-width:1.0;" x1="601.5" x2="376.25" y1="2398.1758" y2="2398.1758"/><polygon fill="#181818" points="386.25,2394.1758,376.25,2398.1758,386.25,2402.1758,382.25,2398.1758" style="stroke:#181818;stroke-width:1.0;"/><line style="stroke:#181818;stroke-width:1.0;" x1="364.25" x2="364.25" y1="2665.0508" y2="2685.0508"/><polygon fill="#181818" points="360.25,2675.0508,364.25,2685.0508,368.25,2675.0508,364.25,2679.0508" style="stroke:#181818;stroke-width:1.0;"/><line style="stroke:#181818;stroke-width:1.0;" x1="364.25" x2="364.25" y1="2366.1758" y2="2386.1758"/><polygon fill="#181818" points="360.25,2376.1758,364.25,2386.1758,368.25,2376.1758,364.25,2380.1758" style="stroke:#181818;stroke-width:1.0;"/><line style="stroke:#181818;stroke-width:1.0;" x1="364.25" x2="364.25" y1="2709.0508" y2="2729.0508"/><polygon fill="#181818" points="360.25,2719.0508,364.25,2729.0508,368.25,2719.0508,364.25,2723.0508" style="stroke:#181818;stroke-width:1.0;"/><line style="stroke:#181818;stroke-width:1.0;" x1="364.25" x2="364.25" y1="2285.9102" y2="2332.207"/><polygon fill="#181818" points="360.25,2322.207,364.25,2332.207,368.25,2322.207,364.25,2326.207" style="stroke:#181818;stroke-width:1.0;"/><line style="stroke:#181818;stroke-width:1.0;" x1="364.25" x2="364.25" y1="2763.0195" y2="2795.0195"/><polygon fill="#181818" points="360.25,2785.0195,364.25,2795.0195,368.25,2785.0195,364.25,2789.0195" style="stroke:#181818;stroke-width:1.0;"/><line style="stroke:#181818;stroke-width:1.0;" x1="364.25" x2="364.25" y1="2845.0195" y2="2865.0195"/><polygon fill="#181818" points="360.25,2855.0195,364.25,2865.0195,368.25,2855.0195,364.25,2859.0195" style="stroke:#181818;stroke-width:1.0;"/><line style="stroke:#181818;stroke-width:1.0;" x1="364.25" x2="364.25" y1="2993.2227" y2="3013.2227"/><polygon fill="#181818" points="360.25,3003.2227,364.25,3013.2227,368.25,3003.2227,364.25,3007.2227" style="stroke:#181818;stroke-width:1.0;"/><line style="stroke:#181818;stroke-width:1.0;" x1="364.25" x2="364.25" y1="2912.957" y2="2959.2539"/><polygon fill="#181818" points="360.25,2949.2539,364.25,2959.2539,368.25,2949.2539,364.25,2953.2539" style="stroke:#181818;stroke-width:1.0;"/><line style="stroke:#181818;stroke-width:1.0;" x1="364.25" x2="364.25" y1="3047.1914" y2="3079.1914"/><polygon fill="#181818" points="360.25,3069.1914,364.25,3079.1914,368.25,3069.1914,364.25,3073.1914" style="stroke:#181818;stroke-width:1.0;"/><line style="stroke:#181818;stroke-width:1.0;" x1="364.25" x2="364.25" y1="3129.1914" y2="3149.1914"/><polygon fill="#181818" points="360.25,3139.1914,364.25,3149.1914,368.25,3139.1914,364.25,3143.1914" style="stroke:#181818;stroke-width:1.0;"/><line style="stroke:#181818;stroke-width:1.0;" x1="364.25" x2="364.25" y1="3389.332" y2="3409.332"/><polygon fill="#181818" points="360.25,3399.332,364.25,3409.332,368.25,3399.332,364.25,3403.332" style="stroke:#181818;stroke-width:1.0;"/><line style="stroke:#181818;stroke-width:1.0;" x1="364.25" x2="364.25" y1="3443.3008" y2="3463.3008"/><polygon fill="#181818" points="360.25,3453.3008,364.25,3463.3008,368.25,3453.3008,364.25,3457.3008" style="stroke:#181818;stroke-width:1.0;"/><line style="stroke:#181818;stroke-width:1.0;" x1="364.25" x2="364.25" y1="3335.3633" y2="3355.3633"/><polygon fill="#181818" points="360.25,3345.3633,364.25,3355.3633,368.25,3345.3633,364.25,3349.3633" style="stroke:#181818;stroke-width:1.0;"/><line style="stroke:#181818;stroke-width:1.0;" x1="498.75" x2="588.25" y1="3529.2695" y2="3529.2695"/><polygon fill="#181818" points="584.25,3436.3164,588.25,3426.3164,592.25,3436.3164,588.25,3432.3164" style="stroke:#181818;stroke-width:1.0;"/><line style="stroke:#181818;stroke-width:1.0;" x1="588.25" x2="588.25" y1="3323.3633" y2="3529.2695"/><line style="stroke:#181818;stroke-width:1.0;" x1="588.25" x2="376.25" y1="3323.3633" y2="3323.3633"/><polygon fill="#181818" points="386.25,3319.3633,376.25,3323.3633,386.25,3327.3633,382.25,3323.3633" style="stroke:#181818;stroke-width:1.0;"/><line style="stroke:#181818;stroke-width:1.0;" x1="364.25" x2="364.25" y1="3497.2695" y2="3517.2695"/><polygon fill="#181818" points="360.25,3507.2695,364.25,3517.2695,368.25,3507.2695,364.25,3511.2695" style="stroke:#181818;stroke-width:1.0;"/><line style="stroke:#181818;stroke-width:1.0;" x1="364.25" x2="364.25" y1="3291.3633" y2="3311.3633"/><polygon fill="#181818" points="360.25,3301.3633,364.25,3311.3633,368.25,3301.3633,364.25,3305.3633" style="stroke:#181818;stroke-width:1.0;"/><line style="stroke:#181818;stroke-width:1.0;" x1="364.25" x2="364.25" y1="3541.2695" y2="3561.2695"/><polygon fill="#181818" points="360.25,3551.2695,364.25,3561.2695,368.25,3551.2695,364.25,3555.2695" style="stroke:#181818;stroke-width:1.0;"/><line style="stroke:#181818;stroke-width:1.0;" x1="364.25" x2="364.25" y1="3609.207" y2="3629.207"/><polygon fill="#181818" points="360.25,3619.207,364.25,3629.207,368.25,3619.207,364.25,3623.207" style="stroke:#181818;stroke-width:1.0;"/><line style="stroke:#181818;stroke-width:1.0;" x1="364.25" x2="364.25" y1="3663.1758" y2="3683.1758"/><polygon fill="#181818" points="360.25,3673.1758,364.25,3683.1758,368.25,3673.1758,364.25,3677.1758" style="stroke:#181818;stroke-width:1.0;"/><line style="stroke:#181818;stroke-width:1.0;" x1="364.25" x2="364.25" y1="3211.0977" y2="3257.3945"/><polygon fill="#181818" points="360.25,3247.3945,364.25,3257.3945,368.25,3247.3945,364.25,3251.3945" style="stroke:#181818;stroke-width:1.0;"/><line style="stroke:#181818;stroke-width:1.0;" x1="364.25" x2="364.25" y1="3717.1445" y2="3749.1445"/><polygon fill="#181818" points="360.25,3739.1445,364.25,3749.1445,368.25,3739.1445,364.25,3743.1445" style="stroke:#181818;stroke-width:1.0;"/><!--SRC=[lLTDZzCm4BtlhnZrj9MMFq0bBeW39n12d2f5RZ9f3QaTR6Uh2FQ_CtQQE76ShnLms6tgUCPlPjwySG40j67AFD03lFqeoih0ctT7SMKbo1pm6OK1de6HyEah5X_izwDWkXOfv0KxFmLRJLsYtLnmRUogHgFjvzr25eMySN7kxTO7TtP98BZXKi1EuyyAHOg9D5WaRcVoNPvsyCljT4XpBZ9GKXeFw-3V-ZY6MmAqIH3Oqp-9p25wpueY7XaJ6Vsbg8rKUkTD59R8JFVLUJbZBnZ8bRp2NA4EG-jKaKE4pzzwvjvRfItwKk4pbvNk7Eh0ISsno5eV8LguNNY1y9XB1SZIYuT5KKPy7mKNiGZ6E_Vkf1Vt7qKseanr0bQSfUBcSjLzfdXs1ypmLPzB8R5W3CPnuD-HvQnaLQuXIxIyU2rDlIwfXp6xMi0f5JBpQT0DMw9TOyyQUk8vFFhNlOnm3M71xVfHR4iLPPxevBDlRVPWBYZWqQWAzmCqezXMdJ1khjcQai5yKICCdChrat-rYJUU2KEnSPjrSgeJv-PE9MUy-psmnaBRxcNq4ScXnTtlQW7ipbL2o2tGcrWLi3EQ1YvLXYffDbdKheKJmwz4UtOj0ymjuT8BfZ_iKuyNnBT5QWGOtU6OmH2hVV85EiIT11flFIGoxxMlRWfmKL9G7nPr91BdYCIqO2c666uaRY0hGr3724WKUVumln8PAJFBGMBIIYbRzWt3zByhvm3w5oJ8cZyZf2k7xqGvgZApmleAIPsPZ5uVsm97Eew2Xuaane_lqcOZRZXd-zJvFpoiW1L1iYd-XgJj-b44oCX7YSwqSsErmv5iwjhIC7vh-edzJJ3zbULRGTZ-xMUi-SCvlQBXPoPsqEnkmcKPv5pH-cG19oOT8niwNzNMey0RB4jlAvykDT2fRMT4OaeAZbgJcZBXyZlOvCwCu6prsQdliXBRc9lph0ZC-9oTLMDNQv8mfPZnBW6M6rJz0ksZn9qx-PKiNJUSxlnS6gT3q5egq_ezrJ4sD05tTu18UTh8hI_C_dRGAovAgwxLSzUYrNswhYVThrNMXds_yDtbsIOPpVPBdYjh_uRUrY9IjeZviCyMOngrm3Bce1lMNGDVTGKC-BQzsLx-0000]--></g></svg>