<?xml version="1.0" encoding="UTF-8" standalone="no"?>
<!DOCTYPE svg PUBLIC "-//W3C//DTD SVG 1.1//EN"
 "http://www.w3.org/Graphics/SVG/1.1/DTD/svg11.dtd">
<!-- Generated by graphviz version 8.0.5 (20230506.1012)
 -->
<!-- Title: G Pages: 1 -->
<svg width="941pt" height="336pt"
 viewBox="0.00 0.00 940.96 336.00" xmlns="http://www.w3.org/2000/svg" xmlns:xlink="http://www.w3.org/1999/xlink">
<g id="graph0" class="graph" transform="scale(1 1) rotate(0) translate(4 332)">
<title>G</title>
<polygon fill="white" stroke="none" points="-4,4 -4,-332 936.96,-332 936.96,4 -4,4"/>
<!-- sequence_otel_jobs -->
<g id="node1" class="node">
<title>sequence_otel_jobs</title>
<ellipse fill="none" stroke="black" cx="230.04" cy="-310" rx="106.98" ry="18"/>
<text text-anchor="middle" x="230.04" y="-305.32" font-family="Times,serif" font-size="14.00">sequence_otel_jobs</text>
</g>
<!-- sequence_otel_event_job -->
<g id="node2" class="node">
<title>sequence_otel_event_job</title>
<ellipse fill="none" stroke="black" cx="230.04" cy="-237" rx="134.33" ry="18"/>
<text text-anchor="middle" x="230.04" y="-232.32" font-family="Times,serif" font-size="14.00">sequence_otel_event_job</text>
</g>
<!-- sequence_otel_jobs&#45;&gt;sequence_otel_event_job -->
<g id="edge1" class="edge">
<title>sequence_otel_jobs&#45;&gt;sequence_otel_event_job</title>
<path fill="none" stroke="black" d="M230.04,-291.81C230.04,-284.05 230.04,-274.68 230.04,-265.95"/>
<polygon fill="black" stroke="black" points="233.54,-266.03 230.04,-256.03 226.54,-266.03 233.54,-266.03"/>
</g>
<!-- sequence_otel_event_and_ancestors -->
<g id="node3" class="node">
<title>sequence_otel_event_and_ancestors</title>
<ellipse fill="none" stroke="black" cx="230.04" cy="-164" rx="190.63" ry="18"/>
<text text-anchor="middle" x="230.04" y="-159.32" font-family="Times,serif" font-size="14.00">sequence_otel_event_and_ancestors</text>
</g>
<!-- sequence_otel_event_job&#45;&gt;sequence_otel_event_and_ancestors -->
<g id="edge2" class="edge">
<title>sequence_otel_event_job&#45;&gt;sequence_otel_event_and_ancestors</title>
<path fill="none" stroke="black" d="M230.04,-218.81C230.04,-211.05 230.04,-201.68 230.04,-192.95"/>
<polygon fill="black" stroke="black" points="233.54,-193.03 230.04,-183.03 226.54,-193.03 233.54,-193.03"/>
</g>
<!-- sequence_otel_event_and_ancestors&#45;&gt;sequence_otel_event_and_ancestors -->
<g id="edge4" class="edge">
<title>sequence_otel_event_and_ancestors&#45;&gt;sequence_otel_event_and_ancestors</title>
<path fill="none" stroke="black" d="M412.79,-169.36C428.71,-168.23 438.67,-166.44 438.67,-164 438.67,-162.17 433.06,-160.71 423.55,-159.61"/>
<polygon fill="black" stroke="black" points="424.06,-156.05 413.79,-158.64 423.43,-163.02 424.06,-156.05"/>
<text text-anchor="middle" x="472.42" y="-159.32" font-family="Times,serif" font-size="14.00">recursion</text>
</g>
<!-- order_groups_by_start_timestamp -->
<g id="node4" class="node">
<title>order_groups_by_start_timestamp</title>
<ellipse fill="none" stroke="black" cx="230.04" cy="-18" rx="182.21" ry="18"/>
<text text-anchor="middle" x="230.04" y="-13.32" font-family="Times,serif" font-size="14.00">order_groups_by_start_timestamp</text>
</g>
<!-- sequence_otel_event_and_ancestors&#45;&gt;order_groups_by_start_timestamp -->
<g id="edge3" class="edge">
<title>sequence_otel_event_and_ancestors&#45;&gt;order_groups_by_start_timestamp</title>
<path fill="none" stroke="black" d="M120.26,-148.87C72.62,-140.27 24.42,-127.34 10.04,-109 -22.17,-67.94 31.13,-45.48 93.32,-33.27"/>
<polygon fill="black" stroke="black" points="93.58,-36.59 102.77,-31.32 92.3,-29.71 93.58,-36.59"/>
</g>
<!-- sequence_events_by_async_event_types -->
<g id="node5" class="node">
<title>sequence_events_by_async_event_types</title>
<ellipse fill="none" stroke="black" cx="230.04" cy="-91" rx="210.62" ry="18"/>
<text text-anchor="middle" x="230.04" y="-86.33" font-family="Times,serif" font-size="14.00">sequence_events_by_async_event_types</text>
</g>
<!-- sequence_otel_event_and_ancestors&#45;&gt;sequence_events_by_async_event_types -->
<g id="edge5" class="edge">
<title>sequence_otel_event_and_ancestors&#45;&gt;sequence_events_by_async_event_types</title>
<path fill="none" stroke="black" d="M230.04,-145.81C230.04,-138.05 230.04,-128.68 230.04,-119.95"/>
<polygon fill="black" stroke="black" points="233.54,-120.03 230.04,-110.03 226.54,-120.03 233.54,-120.03"/>
</g>
<!-- sequence_list_of_otel_events_asynchronously -->
<g id="node6" class="node">
<title>sequence_list_of_otel_events_asynchronously</title>
<ellipse fill="none" stroke="black" cx="696.04" cy="-91" rx="236.92" ry="18"/>
<text text-anchor="middle" x="696.04" y="-86.33" font-family="Times,serif" font-size="14.00">sequence_list_of_otel_events_asynchronously</text>
</g>
<!-- sequence_otel_event_and_ancestors&#45;&gt;sequence_list_of_otel_events_asynchronously -->
<g id="edge7" class="edge">
<title>sequence_otel_event_and_ancestors&#45;&gt;sequence_list_of_otel_events_asynchronously</title>
<path fill="none" stroke="black" d="M327.73,-148.12C402.03,-136.8 504.43,-121.19 582.4,-109.31"/>
<polygon fill="black" stroke="black" points="582.87,-112.63 592.23,-107.66 581.82,-105.71 582.87,-112.63"/>
</g>
<!-- sequence_events_by_async_event_types&#45;&gt;order_groups_by_start_timestamp -->
<g id="edge6" class="edge">
<title>sequence_events_by_async_event_types&#45;&gt;order_groups_by_start_timestamp</title>
<path fill="none" stroke="black" d="M230.04,-72.81C230.04,-65.05 230.04,-55.68 230.04,-46.95"/>
<polygon fill="black" stroke="black" points="233.54,-47.03 230.04,-37.03 226.54,-47.03 233.54,-47.03"/>
</g>
<!-- sequence_list_of_otel_events_asynchronously&#45;&gt;order_groups_by_start_timestamp -->
<g id="edge8" class="edge">
<title>sequence_list_of_otel_events_asynchronously&#45;&gt;order_groups_by_start_timestamp</title>
<path fill="none" stroke="black" d="M593.2,-74.33C517.17,-62.75 413.91,-47.02 336.94,-35.29"/>
<polygon fill="black" stroke="black" points="337.67,-31.71 327.26,-33.66 336.62,-38.63 337.67,-31.71"/>
</g>
</g>
</svg>
