<?xml version="1.0" encoding="UTF-8" standalone="no"?>
<!DOCTYPE svg PUBLIC "-//W3C//DTD SVG 1.1//EN"
 "http://www.w3.org/Graphics/SVG/1.1/DTD/svg11.dtd">
<!-- Generated by graphviz version 8.0.5 (20230506.1012)
 -->
<!-- Title: G Pages: 1 -->
<svg width="1150pt" height="336pt"
 viewBox="0.00 0.00 1150.07 336.00" xmlns="http://www.w3.org/2000/svg" xmlns:xlink="http://www.w3.org/1999/xlink">
<g id="graph0" class="graph" transform="scale(1 1) rotate(0) translate(4 332)">
<title>G</title>
<polygon fill="white" stroke="none" points="-4,4 -4,-332 1146.07,-332 1146.07,4 -4,4"/>
<!-- sequence_otel_jobs -->
<g id="node1" class="node">
<title>sequence_otel_jobs</title>
<ellipse fill="none" stroke="black" cx="405.21" cy="-310" rx="106.98" ry="18"/>
<text text-anchor="middle" x="405.21" y="-305.32" font-family="Times,serif" font-size="14.00">sequence_otel_jobs</text>
</g>
<!-- sequence_otel_event_job -->
<g id="node2" class="node">
<title>sequence_otel_event_job</title>
<ellipse fill="none" stroke="black" cx="405.21" cy="-237" rx="134.33" ry="18"/>
<text text-anchor="middle" x="405.21" y="-232.32" font-family="Times,serif" font-size="14.00">sequence_otel_event_job</text>
</g>
<!-- sequence_otel_jobs&#45;&gt;sequence_otel_event_job -->
<g id="edge1" class="edge">
<title>sequence_otel_jobs&#45;&gt;sequence_otel_event_job</title>
<path fill="none" stroke="black" d="M405.21,-291.81C405.21,-284.05 405.21,-274.68 405.21,-265.95"/>
<polygon fill="black" stroke="black" points="408.71,-266.03 405.21,-256.03 401.71,-266.03 408.71,-266.03"/>
</g>
<!-- sequence_otel_event_and_ancestors -->
<g id="node3" class="node">
<title>sequence_otel_event_and_ancestors</title>
<ellipse fill="none" stroke="black" cx="405.21" cy="-164" rx="190.63" ry="18"/>
<text text-anchor="middle" x="405.21" y="-159.32" font-family="Times,serif" font-size="14.00">sequence_otel_event_and_ancestors</text>
</g>
<!-- sequence_otel_event_job&#45;&gt;sequence_otel_event_and_ancestors -->
<g id="edge2" class="edge">
<title>sequence_otel_event_job&#45;&gt;sequence_otel_event_and_ancestors</title>
<path fill="none" stroke="black" d="M405.21,-218.81C405.21,-211.05 405.21,-201.68 405.21,-192.95"/>
<polygon fill="black" stroke="black" points="408.71,-193.03 405.21,-183.03 401.71,-193.03 408.71,-193.03"/>
</g>
<!-- sequence_otel_event_and_ancestors&#45;&gt;sequence_otel_event_and_ancestors -->
<g id="edge4" class="edge">
<title>sequence_otel_event_and_ancestors&#45;&gt;sequence_otel_event_and_ancestors</title>
<path fill="none" stroke="black" d="M587.96,-169.36C603.88,-168.23 613.84,-166.44 613.84,-164 613.84,-162.17 608.24,-160.71 598.72,-159.61"/>
<polygon fill="black" stroke="black" points="599.23,-156.05 588.96,-158.64 598.6,-163.02 599.23,-156.05"/>
<text text-anchor="middle" x="647.59" y="-159.32" font-family="Times,serif" font-size="14.00">recursion</text>
</g>
<!-- order_groups_by_start_timestamp -->
<g id="node4" class="node">
<title>order_groups_by_start_timestamp</title>
<ellipse fill="none" stroke="black" cx="182.21" cy="-18" rx="182.21" ry="18"/>
<text text-anchor="middle" x="182.21" y="-13.32" font-family="Times,serif" font-size="14.00">order_groups_by_start_timestamp</text>
</g>
<!-- sequence_otel_event_and_ancestors&#45;&gt;order_groups_by_start_timestamp -->
<g id="edge3" class="edge">
<title>sequence_otel_event_and_ancestors&#45;&gt;order_groups_by_start_timestamp</title>
<path fill="none" stroke="black" d="M300.36,-148.58C252.98,-139.79 204.24,-126.79 189.21,-109 175,-92.19 174.28,-66.74 176.52,-47.19"/>
<polygon fill="black" stroke="black" points="180.1,-47.87 178.1,-37.46 173.17,-46.85 180.1,-47.87"/>
</g>
<!-- group_events_using_async_information -->
<g id="node5" class="node">
<title>group_events_using_async_information</title>
<ellipse fill="none" stroke="black" cx="405.21" cy="-91" rx="206.94" ry="18"/>
<text text-anchor="middle" x="405.21" y="-86.33" font-family="Times,serif" font-size="14.00">group_events_using_async_information</text>
</g>
<!-- sequence_otel_event_and_ancestors&#45;&gt;group_events_using_async_information -->
<g id="edge5" class="edge">
<title>sequence_otel_event_and_ancestors&#45;&gt;group_events_using_async_information</title>
<path fill="none" stroke="black" d="M405.21,-145.81C405.21,-138.05 405.21,-128.68 405.21,-119.95"/>
<polygon fill="black" stroke="black" points="408.71,-120.03 405.21,-110.03 401.71,-120.03 408.71,-120.03"/>
</g>
<!-- sequence_groups_of_otel_events_asynchronously -->
<g id="node6" class="node">
<title>sequence_groups_of_otel_events_asynchronously</title>
<ellipse fill="none" stroke="black" cx="886.21" cy="-91" rx="255.86" ry="18"/>
<text text-anchor="middle" x="886.21" y="-86.33" font-family="Times,serif" font-size="14.00">sequence_groups_of_otel_events_asynchronously</text>
</g>
<!-- sequence_otel_event_and_ancestors&#45;&gt;sequence_groups_of_otel_events_asynchronously -->
<g id="edge6" class="edge">
<title>sequence_otel_event_and_ancestors&#45;&gt;sequence_groups_of_otel_events_asynchronously</title>
<path fill="none" stroke="black" d="M505.16,-148.25C581.82,-136.93 687.82,-121.28 768.57,-109.37"/>
<polygon fill="black" stroke="black" points="768.9,-112.71 778.29,-107.78 767.88,-105.78 768.9,-112.71"/>
</g>
<!-- sequence_groups_of_otel_events_asynchronously&#45;&gt;order_groups_by_start_timestamp -->
<g id="edge7" class="edge">
<title>sequence_groups_of_otel_events_asynchronously&#45;&gt;order_groups_by_start_timestamp</title>
<path fill="none" stroke="black" d="M743.74,-75.63C619.23,-63.07 439.73,-44.97 317.42,-32.64"/>
<polygon fill="black" stroke="black" points="317.8,-29.06 307.5,-31.54 317.1,-36.02 317.8,-29.06"/>
</g>
</g>
</svg>
