<?xml version="1.0" encoding="us-ascii" standalone="no"?><svg xmlns="http://www.w3.org/2000/svg" xmlns:xlink="http://www.w3.org/1999/xlink" contentStyleType="text/css" height="335px" preserveAspectRatio="none" style="width:454px;height:335px;background:#FFFFFF;" version="1.1" viewBox="0 0 454 335" width="454px" zoomAndPan="magnify"><defs/><g><rect fill="none" height="313.3018" style="stroke:#000000;stroke-width:1.5;" width="432" x="11" y="11"/><path d="M418,11 L418,20.2969 L408,30.2969 L11,30.2969 " fill="none" style="stroke:#000000;stroke-width:1.5;"/><text fill="#000000" font-family="sans-serif" font-size="14" lengthAdjust="spacing" textLength="397" x="14" y="24.9951">loop_nested_branch_counts_event_at_end_of_loop_equiv</text><rect fill="none" height="271.2031" style="stroke:#000000;stroke-width:1.5;" width="412" x="21" y="41.0986"/><path d="M428,41.0986 L428,50.3955 L418,60.3955 L21,60.3955 " fill="none" style="stroke:#000000;stroke-width:1.5;"/><text fill="#000000" font-family="sans-serif" font-size="14" lengthAdjust="spacing" textLength="397" x="24" y="55.0938">loop_nested_branch_counts_event_at_end_of_loop_equiv</text><rect fill="#F1F1F1" height="33.9688" rx="12.5" ry="12.5" style="stroke:#181818;stroke-width:0.5;" width="28" x="203.5" y="70.3955"/><text fill="#000000" font-family="sans-serif" font-size="12" lengthAdjust="spacing" textLength="8" x="213.5" y="91.5342">A</text><rect fill="#F1F1F1" height="33.9688" rx="12.5" ry="12.5" style="stroke:#181818;stroke-width:0.5;" width="187" x="124" y="168.3643"/><text fill="#000000" font-family="sans-serif" font-size="12" lengthAdjust="spacing" textLength="167" x="134" y="189.5029">B,BCNT,user=B,name=BC1</text><polygon fill="#F1F1F1" points="217.5,124.3643,229.5,136.3643,217.5,148.3643,205.5,136.3643,217.5,124.3643" style="stroke:#181818;stroke-width:0.5;"/><polygon fill="#F1F1F1" points="217.5,222.333,217.5,222.333,229.5,234.333,217.5,246.333,217.5,246.333,205.5,234.333,217.5,222.333" style="stroke:#181818;stroke-width:0.5;"/><rect fill="#F1F1F1" height="33.9688" rx="12.5" ry="12.5" style="stroke:#181818;stroke-width:0.5;" width="28" x="203.5" y="266.333"/><text fill="#000000" font-family="sans-serif" font-size="12" lengthAdjust="spacing" textLength="8" x="213.5" y="287.4717">C</text><line style="stroke:#181818;stroke-width:1.0;" x1="217.5" x2="217.5" y1="148.3643" y2="168.3643"/><polygon fill="#181818" points="213.5,158.3643,217.5,168.3643,221.5,158.3643,217.5,162.3643" style="stroke:#181818;stroke-width:1.0;"/><line style="stroke:#181818;stroke-width:1.0;" x1="229.5" x2="323" y1="234.333" y2="234.333"/><polygon fill="#181818" points="319,195.3486,323,185.3486,327,195.3486,323,191.3486" style="stroke:#181818;stroke-width:1.0;"/><line style="stroke:#181818;stroke-width:1.0;" x1="323" x2="323" y1="136.3643" y2="234.333"/><line style="stroke:#181818;stroke-width:1.0;" x1="323" x2="229.5" y1="136.3643" y2="136.3643"/><polygon fill="#181818" points="239.5,132.3643,229.5,136.3643,239.5,140.3643,235.5,136.3643" style="stroke:#181818;stroke-width:1.0;"/><line style="stroke:#181818;stroke-width:1.0;" x1="217.5" x2="217.5" y1="202.333" y2="222.333"/><polygon fill="#181818" points="213.5,212.333,217.5,222.333,221.5,212.333,217.5,216.333" style="stroke:#181818;stroke-width:1.0;"/><line style="stroke:#181818;stroke-width:1.0;" x1="217.5" x2="217.5" y1="104.3643" y2="124.3643"/><polygon fill="#181818" points="213.5,114.3643,217.5,124.3643,221.5,114.3643,217.5,118.3643" style="stroke:#181818;stroke-width:1.0;"/><line style="stroke:#181818;stroke-width:1.0;" x1="217.5" x2="217.5" y1="246.333" y2="266.333"/><polygon fill="#181818" points="213.5,256.333,217.5,266.333,221.5,256.333,217.5,260.333" style="stroke:#181818;stroke-width:1.0;"/><!--SRC=[dOwn3i8m34HtliBgd8Mrg0F9piHkfQsXaOeJ4gSCY7y70W95Ok8sdvwV3W0Ws2XEd6TePky3CYMX4VjeUPXmy9ab8It4WbQGU4H_m4BIERkbWUiAtZb6dyEVce_acNQxgUv8WQn0rHLEAsrsUvKJnKuhjYVgj5d_VBvCRgPQqPel-LZqsb-Qsnq0]--></g></svg>