<?xml version="1.0" encoding="us-ascii" standalone="no"?><svg xmlns="http://www.w3.org/2000/svg" xmlns:xlink="http://www.w3.org/1999/xlink" contentStyleType="text/css" height="397px" preserveAspectRatio="none" style="width:258px;height:397px;background:#FFFFFF;" version="1.1" viewBox="0 0 258 397" width="258px" zoomAndPan="magnify"><defs/><g><rect fill="none" height="375.0078" style="stroke:#000000;stroke-width:1.5;" width="236" x="11" y="11"/><path d="M204,11 L204,20.4883 L194,30.4883 L11,30.4883 " fill="none" style="stroke:#000000;stroke-width:1.5;"/><text fill="#000000" font-family="sans-serif" font-size="14" lengthAdjust="spacing" textLength="183" x="14" y="25.5352">loop nested branch counts</text><rect fill="none" height="333.5195" style="stroke:#000000;stroke-width:1.5;" width="216" x="21" y="40.4883"/><path d="M214,40.4883 L214,49.9766 L204,59.9766 L21,59.9766 " fill="none" style="stroke:#000000;stroke-width:1.5;"/><text fill="#000000" font-family="sans-serif" font-size="14" lengthAdjust="spacing" textLength="183" x="24" y="55.0234">loop nested branch counts</text><rect fill="#F1F1F1" height="34.1328" rx="12.5" ry="12.5" style="stroke:#181818;stroke-width:0.5;" width="28" x="106" y="69.9766"/><text fill="#000000" font-family="sans-serif" font-size="12" lengthAdjust="spacing" textLength="8" x="116" y="91.5781">A</text><rect fill="#F1F1F1" height="34.1328" rx="12.5" ry="12.5" style="stroke:#181818;stroke-width:0.5;" width="178" x="31" y="168.1094"/><text fill="#000000" font-family="sans-serif" font-size="12" lengthAdjust="spacing" textLength="158" x="41" y="189.7109">B,BCNT,user=B,name=BC1</text><rect fill="#F1F1F1" height="34.1328" rx="12.5" ry="12.5" style="stroke:#181818;stroke-width:0.5;" width="28" x="106" y="229.7422"/><text fill="#000000" font-family="sans-serif" font-size="12" lengthAdjust="spacing" textLength="8" x="116" y="251.3438">C</text><polygon fill="#F1F1F1" points="120,124.1094,132,136.1094,120,148.1094,108,136.1094,120,124.1094" style="stroke:#181818;stroke-width:0.5;"/><polygon fill="#F1F1F1" points="120,283.875,120,283.875,132,295.875,120,307.875,120,307.875,108,295.875,120,283.875" style="stroke:#181818;stroke-width:0.5;"/><rect fill="#F1F1F1" height="34.1328" rx="12.5" ry="12.5" style="stroke:#181818;stroke-width:0.5;" width="29" x="105.5" y="327.875"/><text fill="#000000" font-family="sans-serif" font-size="12" lengthAdjust="spacing" textLength="9" x="115.5" y="349.4766">D</text><line style="stroke:#181818;stroke-width:1.0;" x1="120" x2="120" y1="202.2422" y2="229.7422"/><polygon fill="#181818" points="116,219.7422,120,229.7422,124,219.7422,120,223.7422" style="stroke:#181818;stroke-width:1.0;"/><line style="stroke:#181818;stroke-width:1.0;" x1="120" x2="120" y1="148.1094" y2="168.1094"/><polygon fill="#181818" points="116,158.1094,120,168.1094,124,158.1094,120,162.1094" style="stroke:#181818;stroke-width:1.0;"/><line style="stroke:#181818;stroke-width:1.0;" x1="132" x2="221" y1="295.875" y2="295.875"/><polygon fill="#181818" points="217,222.2422,221,212.2422,225,222.2422,221,218.2422" style="stroke:#181818;stroke-width:1.0;"/><line style="stroke:#181818;stroke-width:1.0;" x1="221" x2="221" y1="136.1094" y2="295.875"/><line style="stroke:#181818;stroke-width:1.0;" x1="221" x2="132" y1="136.1094" y2="136.1094"/><polygon fill="#181818" points="142,132.1094,132,136.1094,142,140.1094,138,136.1094" style="stroke:#181818;stroke-width:1.0;"/><line style="stroke:#181818;stroke-width:1.0;" x1="120" x2="120" y1="263.875" y2="283.875"/><polygon fill="#181818" points="116,273.875,120,283.875,124,273.875,120,277.875" style="stroke:#181818;stroke-width:1.0;"/><line style="stroke:#181818;stroke-width:1.0;" x1="120" x2="120" y1="104.1094" y2="124.1094"/><polygon fill="#181818" points="116,114.1094,120,124.1094,124,114.1094,120,118.1094" style="stroke:#181818;stroke-width:1.0;"/><line style="stroke:#181818;stroke-width:1.0;" x1="120" x2="120" y1="307.875" y2="327.875"/><polygon fill="#181818" points="116,317.875,120,327.875,124,317.875,120,321.875" style="stroke:#181818;stroke-width:1.0;"/><!--SRC=[Kr1GK2X8B2h9BCdCprDGoidFBr38IoqkIKrHI2fAp4lEK4ZEByqhALPIgEPIW8BqelpI0dnguIf1mChH6eLVb5gGcbYYW286LkUau-Ji5w9JMfnQPEkaavUOcshhv6neZQdG6Qk1vHcPEQcenbgv85IcvgL070uMgGK0]--></g></svg>