<?xml version="1.0" encoding="us-ascii" standalone="no"?><svg xmlns="http://www.w3.org/2000/svg" xmlns:xlink="http://www.w3.org/1999/xlink" contentStyleType="text/css" height="355px" preserveAspectRatio="none" style="width:410px;height:355px;background:#FFFFFF;" version="1.1" viewBox="0 0 410 355" width="410px" zoomAndPan="magnify"><defs/><g><rect fill="none" height="333.2393" style="stroke:#000000;stroke-width:1.5;" width="388" x="11" y="11"/><path d="M374,11 L374,20.2969 L364,30.2969 L11,30.2969 " fill="none" style="stroke:#000000;stroke-width:1.5;"/><text fill="#000000" font-family="sans-serif" font-size="14" lengthAdjust="spacing" textLength="353" x="14" y="24.9951">loop_nested_branch_counts_event_at_end_of_loop</text><rect fill="none" height="291.1406" style="stroke:#000000;stroke-width:1.5;" width="368" x="21" y="41.0986"/><path d="M384,41.0986 L384,50.3955 L374,60.3955 L21,60.3955 " fill="none" style="stroke:#000000;stroke-width:1.5;"/><text fill="#000000" font-family="sans-serif" font-size="14" lengthAdjust="spacing" textLength="353" x="24" y="55.0938">loop_nested_branch_counts_event_at_end_of_loop</text><rect fill="#F1F1F1" height="33.9688" rx="12.5" ry="12.5" style="stroke:#181818;stroke-width:0.5;" width="28" x="193.5" y="70.3955"/><text fill="#000000" font-family="sans-serif" font-size="12" lengthAdjust="spacing" textLength="8" x="203.5" y="91.5342">A</text><rect fill="#F1F1F1" height="33.9688" rx="12.5" ry="12.5" style="stroke:#181818;stroke-width:0.5;" width="28" x="193.5" y="124.3643"/><text fill="#000000" font-family="sans-serif" font-size="12" lengthAdjust="spacing" textLength="8" x="203.5" y="145.5029">B</text><rect fill="#F1F1F1" height="33.9688" rx="12.5" ry="12.5" style="stroke:#181818;stroke-width:0.5;" width="28" x="193.5" y="178.333"/><text fill="#000000" font-family="sans-serif" font-size="12" lengthAdjust="spacing" textLength="8" x="203.5" y="199.4717">B</text><rect fill="#F1F1F1" height="33.9688" rx="12.5" ry="12.5" style="stroke:#181818;stroke-width:0.5;" width="137" x="139" y="232.3018"/><text fill="#000000" font-family="sans-serif" font-size="12" lengthAdjust="spacing" textLength="117" x="149" y="253.4404">B,BCNT,name=BC1</text><rect fill="#F1F1F1" height="33.9688" rx="12.5" ry="12.5" style="stroke:#181818;stroke-width:0.5;" width="28" x="193.5" y="286.2705"/><text fill="#000000" font-family="sans-serif" font-size="12" lengthAdjust="spacing" textLength="8" x="203.5" y="307.4092">C</text><line style="stroke:#181818;stroke-width:1.0;" x1="207.5" x2="207.5" y1="104.3643" y2="124.3643"/><polygon fill="#181818" points="203.5,114.3643,207.5,124.3643,211.5,114.3643,207.5,118.3643" style="stroke:#181818;stroke-width:1.0;"/><line style="stroke:#181818;stroke-width:1.0;" x1="207.5" x2="207.5" y1="158.333" y2="178.333"/><polygon fill="#181818" points="203.5,168.333,207.5,178.333,211.5,168.333,207.5,172.333" style="stroke:#181818;stroke-width:1.0;"/><line style="stroke:#181818;stroke-width:1.0;" x1="207.5" x2="207.5" y1="212.3018" y2="232.3018"/><polygon fill="#181818" points="203.5,222.3018,207.5,232.3018,211.5,222.3018,207.5,226.3018" style="stroke:#181818;stroke-width:1.0;"/><line style="stroke:#181818;stroke-width:1.0;" x1="207.5" x2="207.5" y1="266.2705" y2="286.2705"/><polygon fill="#181818" points="203.5,276.2705,207.5,286.2705,211.5,276.2705,207.5,280.2705" style="stroke:#181818;stroke-width:1.0;"/><!--SRC=[Kr1GK2X8B2h9BCdCprDGoidFBuZFIoqkIKs9JofAp4lEY4_EByqhAOvFBKlDAubFB8bFpKk9pq-B1wbKKgZcKe22zAByqWAI3O1h1m4hHsjKlXCXlewJir-8JbvYRggjaxCXcgmpWW-q4k90i4Wj0000]--></g></svg>