<?xml version="1.0" encoding="us-ascii" standalone="no"?><svg xmlns="http://www.w3.org/2000/svg" xmlns:xlink="http://www.w3.org/1999/xlink" contentStyleType="text/css" height="396px" preserveAspectRatio="none" style="width:194px;height:396px;background:#FFFFFF;" version="1.1" viewBox="0 0 194 396" width="194px" zoomAndPan="magnify"><defs/><g><rect fill="none" height="374.0742" style="stroke:#000000;stroke-width:1.5;" width="172" x="11" y="11"/><path d="M145,11 L145,20.4883 L135,30.4883 L11,30.4883 " fill="none" style="stroke:#000000;stroke-width:1.5;"/><text fill="#000000" font-family="sans-serif" font-size="14" lengthAdjust="spacing" textLength="124" x="14" y="25.5352">ORFork_ORFork_a</text><rect fill="none" height="332.5859" style="stroke:#000000;stroke-width:1.5;" width="152" x="21" y="40.4883"/><path d="M155,40.4883 L155,49.9766 L145,59.9766 L21,59.9766 " fill="none" style="stroke:#000000;stroke-width:1.5;"/><text fill="#000000" font-family="sans-serif" font-size="14" lengthAdjust="spacing" textLength="124" x="24" y="55.0234">ORFork_ORFork_a</text><rect fill="#008000" height="34.1328" rx="12.5" ry="12.5" style="stroke:#181818;stroke-width:0.5;" width="28" x="89" y="69.9766"/><text fill="#000000" font-family="sans-serif" font-size="12" lengthAdjust="spacing" textLength="8" x="99" y="91.5781">A</text><line style="stroke:#181818;stroke-width:1.5;" x1="75" x2="147" y1="124.1094" y2="124.1094"/><rect fill="#F1F1F1" height="34.1328" rx="12.5" ry="12.5" style="stroke:#181818;stroke-width:0.5;" width="27" x="61.5" y="144.1094"/><text fill="#000000" font-family="sans-serif" font-size="12" lengthAdjust="spacing" textLength="7" x="71.5" y="165.7109">B</text><line style="stroke:#181818;stroke-width:1.5;" x1="47.5" x2="103.5" y1="211.3086" y2="211.3086"/><rect fill="#F1F1F1" height="34.1328" rx="12.5" ry="12.5" style="stroke:#181818;stroke-width:0.5;" width="29" x="33" y="232.8086"/><text fill="#000000" font-family="sans-serif" font-size="12" lengthAdjust="spacing" textLength="9" x="43" y="254.4102">D</text><rect fill="#F1F1F1" height="34.1328" rx="12.5" ry="12.5" style="stroke:#181818;stroke-width:0.5;" width="27" x="90" y="232.8086"/><text fill="#000000" font-family="sans-serif" font-size="12" lengthAdjust="spacing" textLength="7" x="100" y="254.4102">E</text><line style="stroke:#181818;stroke-width:1.5;" x1="47.5" x2="103.5" y1="286.9414" y2="286.9414"/><rect fill="#F1F1F1" height="34.1328" rx="12.5" ry="12.5" style="stroke:#181818;stroke-width:0.5;" width="28" x="133" y="198.2422"/><text fill="#000000" font-family="sans-serif" font-size="12" lengthAdjust="spacing" textLength="8" x="143" y="219.8438">C</text><line style="stroke:#181818;stroke-width:1.5;" x1="75" x2="147" y1="306.9414" y2="306.9414"/><rect fill="#FF0000" height="34.1328" rx="12.5" ry="12.5" style="stroke:#181818;stroke-width:0.5;" width="26" x="90" y="326.9414"/><text fill="#000000" font-family="sans-serif" font-size="12" lengthAdjust="spacing" textLength="6" x="100" y="348.543">F</text><line style="stroke:#181818;stroke-width:1.0;" x1="47.5" x2="47.5" y1="212.8086" y2="232.8086"/><polygon fill="#181818" points="43.5,222.8086,47.5,232.8086,51.5,222.8086,47.5,226.8086" style="stroke:#181818;stroke-width:1.0;"/><line style="stroke:#181818;stroke-width:1.0;" x1="103.5" x2="103.5" y1="212.8086" y2="232.8086"/><polygon fill="#181818" points="99.5,222.8086,103.5,232.8086,107.5,222.8086,103.5,226.8086" style="stroke:#181818;stroke-width:1.0;"/><line style="stroke:#181818;stroke-width:1.0;" x1="47.5" x2="47.5" y1="266.9414" y2="286.9414"/><polygon fill="#181818" points="43.5,276.9414,47.5,286.9414,51.5,276.9414,47.5,280.9414" style="stroke:#181818;stroke-width:1.0;"/><line style="stroke:#181818;stroke-width:1.0;" x1="103.5" x2="103.5" y1="266.9414" y2="286.9414"/><polygon fill="#181818" points="99.5,276.9414,103.5,286.9414,107.5,276.9414,103.5,280.9414" style="stroke:#181818;stroke-width:1.0;"/><line style="stroke:#181818;stroke-width:1.0;" x1="75" x2="75" y1="178.2422" y2="211.3086"/><polygon fill="#181818" points="71,201.3086,75,211.3086,79,201.3086,75,205.3086" style="stroke:#181818;stroke-width:1.0;"/><line style="stroke:#181818;stroke-width:1.0;" x1="75" x2="75" y1="125.6094" y2="144.1094"/><polygon fill="#181818" points="71,134.1094,75,144.1094,79,134.1094,75,138.1094" style="stroke:#181818;stroke-width:1.0;"/><line style="stroke:#181818;stroke-width:1.0;" x1="147" x2="147" y1="125.6094" y2="198.2422"/><polygon fill="#181818" points="143,188.2422,147,198.2422,151,188.2422,147,192.2422" style="stroke:#181818;stroke-width:1.0;"/><line style="stroke:#181818;stroke-width:1.0;" x1="75" x2="75" y1="288.4414" y2="306.9414"/><polygon fill="#181818" points="71,296.9414,75,306.9414,79,296.9414,75,300.9414" style="stroke:#181818;stroke-width:1.0;"/><line style="stroke:#181818;stroke-width:1.0;" x1="147" x2="147" y1="232.375" y2="306.9414"/><polygon fill="#181818" points="143,296.9414,147,306.9414,151,296.9414,147,300.9414" style="stroke:#181818;stroke-width:1.0;"/><line style="stroke:#181818;stroke-width:1.0;" x1="103" x2="103" y1="104.1094" y2="124.1094"/><polygon fill="#181818" points="99,114.1094,103,124.1094,107,114.1094,103,118.1094" style="stroke:#181818;stroke-width:1.0;"/><line style="stroke:#181818;stroke-width:1.0;" x1="103" x2="103" y1="308.4414" y2="326.9414"/><polygon fill="#181818" points="99,316.9414,103,326.9414,107,316.9414,103,320.9414" style="stroke:#181818;stroke-width:1.0;"/><!--SRC=[AqWiAiaioSpFKr3o3tBBBygEXrA9IWhLN0f0a5wKNrg0AGkM0m7bzABKr3mhHskuI751JcO9d0S2LaxMA7nC5M1LBbXKAIIc9sRcOQfrHLMRcfU2PYektLRE29sOkfIBKbEit20gGB9WttFL0W00]--></g></svg>