<?xml version="1.0" encoding="us-ascii" standalone="no"?><svg xmlns="http://www.w3.org/2000/svg" xmlns:xlink="http://www.w3.org/1999/xlink" contentStyleType="text/css" height="356px" preserveAspectRatio="none" style="width:282px;height:356px;background:#FFFFFF;" version="1.1" viewBox="0 0 282 356" width="282px" zoomAndPan="magnify"><defs/><g><rect fill="none" height="334.5078" style="stroke:#000000;stroke-width:1.5;" width="260" x="11" y="11"/><path d="M173,11 L173,20.4883 L163,30.4883 L11,30.4883 " fill="none" style="stroke:#000000;stroke-width:1.5;"/><text fill="#000000" font-family="sans-serif" font-size="14" lengthAdjust="spacing" textLength="152" x="14" y="25.5352">ORFork_branch_count</text><rect fill="none" height="293.0195" style="stroke:#000000;stroke-width:1.5;" width="240" x="21" y="40.4883"/><path d="M183,40.4883 L183,49.9766 L173,59.9766 L21,59.9766 " fill="none" style="stroke:#000000;stroke-width:1.5;"/><text fill="#000000" font-family="sans-serif" font-size="14" lengthAdjust="spacing" textLength="152" x="24" y="55.0234">ORFork_branch_count</text><rect fill="#008000" height="34.1328" rx="12.5" ry="12.5" style="stroke:#181818;stroke-width:0.5;" width="28" x="136" y="69.9766"/><text fill="#000000" font-family="sans-serif" font-size="12" lengthAdjust="spacing" textLength="8" x="146" y="91.5781">A</text><line style="stroke:#181818;stroke-width:1.5;" x1="122" x2="235" y1="124.1094" y2="124.1094"/><rect fill="#F1F1F1" height="34.1328" rx="12.5" ry="12.5" style="stroke:#181818;stroke-width:0.5;" width="178" x="33" y="144.1094"/><text fill="#000000" font-family="sans-serif" font-size="12" lengthAdjust="spacing" textLength="158" x="43" y="165.7109">B,BCNT,user=B,name=BC1</text><rect fill="#F1F1F1" height="34.1328" rx="12.5" ry="12.5" style="stroke:#181818;stroke-width:0.5;" width="29" x="107.5" y="213.2422"/><text fill="#000000" font-family="sans-serif" font-size="12" lengthAdjust="spacing" textLength="9" x="117.5" y="234.8438">D</text><rect fill="#F1F1F1" height="34.1328" rx="12.5" ry="12.5" style="stroke:#181818;stroke-width:0.5;" width="28" x="221" y="178.6758"/><text fill="#000000" font-family="sans-serif" font-size="12" lengthAdjust="spacing" textLength="8" x="231" y="200.2773">C</text><line style="stroke:#181818;stroke-width:1.5;" x1="122" x2="235" y1="267.375" y2="267.375"/><rect fill="#FF0000" height="34.1328" rx="12.5" ry="12.5" style="stroke:#181818;stroke-width:0.5;" width="26" x="137" y="287.375"/><text fill="#000000" font-family="sans-serif" font-size="12" lengthAdjust="spacing" textLength="6" x="147" y="308.9766">F</text><line style="stroke:#181818;stroke-width:1.0;" x1="122" x2="122" y1="178.2422" y2="213.2422"/><polygon fill="#181818" points="118,203.2422,122,213.2422,126,203.2422,122,207.2422" style="stroke:#181818;stroke-width:1.0;"/><line style="stroke:#181818;stroke-width:1.0;" x1="122" x2="122" y1="125.6094" y2="144.1094"/><polygon fill="#181818" points="118,134.1094,122,144.1094,126,134.1094,122,138.1094" style="stroke:#181818;stroke-width:1.0;"/><line style="stroke:#181818;stroke-width:1.0;" x1="235" x2="235" y1="125.6094" y2="178.6758"/><polygon fill="#181818" points="231,168.6758,235,178.6758,239,168.6758,235,172.6758" style="stroke:#181818;stroke-width:1.0;"/><line style="stroke:#181818;stroke-width:1.0;" x1="122" x2="122" y1="247.375" y2="267.375"/><polygon fill="#181818" points="118,257.375,122,267.375,126,257.375,122,261.375" style="stroke:#181818;stroke-width:1.0;"/><line style="stroke:#181818;stroke-width:1.0;" x1="235" x2="235" y1="212.8086" y2="267.375"/><polygon fill="#181818" points="231,257.375,235,267.375,239,257.375,235,261.375" style="stroke:#181818;stroke-width:1.0;"/><line style="stroke:#181818;stroke-width:1.0;" x1="150" x2="150" y1="104.1094" y2="124.1094"/><polygon fill="#181818" points="146,114.1094,150,124.1094,154,114.1094,150,118.1094" style="stroke:#181818;stroke-width:1.0;"/><line style="stroke:#181818;stroke-width:1.0;" x1="150" x2="150" y1="268.875" y2="287.375"/><polygon fill="#181818" points="146,277.375,150,287.375,154,277.375,150,281.375" style="stroke:#181818;stroke-width:1.0;"/><!--SRC=[AqWiAiaioSpFKr3o3tBBBygEJofAp4lEY4_EByqhKLAevb80WlIY_D82x2h0yY2Wd5wKcffdvMWD5oakoCaiWVD0mCf9nydPBqIdj3YroDP99oynDzNMoTdG6bMH2veH2edfYPbvg6gS4MfIyrBGh58kIasnSeEe0Cc2dSzL2m00]--></g></svg>