<?xml version="1.0" encoding="us-ascii" standalone="no"?><svg xmlns="http://www.w3.org/2000/svg" xmlns:xlink="http://www.w3.org/1999/xlink" contentStyleType="text/css" height="408px" preserveAspectRatio="none" style="width:206px;height:408px;background:#FFFFFF;" version="1.1" viewBox="0 0 206 408" width="206px" zoomAndPan="magnify"><defs/><g><rect fill="none" height="386.0742" style="stroke:#000000;stroke-width:1.5;" width="184.5" x="11" y="11"/><path d="M154,11 L154,20.4883 L144,30.4883 L11,30.4883 " fill="none" style="stroke:#000000;stroke-width:1.5;"/><text fill="#000000" font-family="sans-serif" font-size="14" lengthAdjust="spacing" textLength="133" x="14" y="25.5352">ORFork_XORFork_a</text><rect fill="none" height="344.5859" style="stroke:#000000;stroke-width:1.5;" width="164.5" x="21" y="40.4883"/><path d="M164,40.4883 L164,49.9766 L154,59.9766 L21,59.9766 " fill="none" style="stroke:#000000;stroke-width:1.5;"/><text fill="#000000" font-family="sans-serif" font-size="14" lengthAdjust="spacing" textLength="133" x="24" y="55.0234">ORFork_XORFork_a</text><rect fill="#008000" height="34.1328" rx="12.5" ry="12.5" style="stroke:#181818;stroke-width:0.5;" width="28" x="95.5" y="69.9766"/><text fill="#000000" font-family="sans-serif" font-size="12" lengthAdjust="spacing" textLength="8" x="105.5" y="91.5781">A</text><line style="stroke:#181818;stroke-width:1.5;" x1="81.5" x2="159.5" y1="124.1094" y2="124.1094"/><rect fill="#F1F1F1" height="34.1328" rx="12.5" ry="12.5" style="stroke:#181818;stroke-width:0.5;" width="27" x="68" y="144.1094"/><text fill="#000000" font-family="sans-serif" font-size="12" lengthAdjust="spacing" textLength="7" x="78" y="165.7109">B</text><polygon fill="#F1F1F1" points="69.5,200.8086,93.5,200.8086,105.5,212.8086,93.5,224.8086,69.5,224.8086,57.5,212.8086,69.5,200.8086" style="stroke:#181818;stroke-width:0.5;"/><text fill="#000000" font-family="sans-serif" font-size="11" lengthAdjust="spacing" textLength="23" x="70" y="216.9658">XOR</text><text fill="#000000" font-family="sans-serif" font-size="11" lengthAdjust="spacing" textLength="22" x="35.5" y="210.4883">true</text><text fill="#000000" font-family="sans-serif" font-size="11" lengthAdjust="spacing" textLength="25" x="105.5" y="210.4883">false</text><rect fill="#F1F1F1" height="34.1328" rx="12.5" ry="12.5" style="stroke:#181818;stroke-width:0.5;" width="29" x="33" y="234.8086"/><text fill="#000000" font-family="sans-serif" font-size="12" lengthAdjust="spacing" textLength="9" x="43" y="256.4102">D</text><rect fill="#F1F1F1" height="34.1328" rx="12.5" ry="12.5" style="stroke:#181818;stroke-width:0.5;" width="27" x="102" y="234.8086"/><text fill="#000000" font-family="sans-serif" font-size="12" lengthAdjust="spacing" textLength="7" x="112" y="256.4102">E</text><polygon fill="#F1F1F1" points="81.5,274.9414,93.5,286.9414,81.5,298.9414,69.5,286.9414,81.5,274.9414" style="stroke:#181818;stroke-width:0.5;"/><rect fill="#F1F1F1" height="34.1328" rx="12.5" ry="12.5" style="stroke:#181818;stroke-width:0.5;" width="28" x="145.5" y="198.2422"/><text fill="#000000" font-family="sans-serif" font-size="12" lengthAdjust="spacing" textLength="8" x="155.5" y="219.8438">C</text><line style="stroke:#181818;stroke-width:1.5;" x1="81.5" x2="159.5" y1="318.9414" y2="318.9414"/><rect fill="#FF0000" height="34.1328" rx="12.5" ry="12.5" style="stroke:#181818;stroke-width:0.5;" width="26" x="96.5" y="338.9414"/><text fill="#000000" font-family="sans-serif" font-size="12" lengthAdjust="spacing" textLength="6" x="106.5" y="360.543">F</text><line style="stroke:#181818;stroke-width:1.0;" x1="57.5" x2="47.5" y1="212.8086" y2="212.8086"/><line style="stroke:#181818;stroke-width:1.0;" x1="47.5" x2="47.5" y1="212.8086" y2="234.8086"/><polygon fill="#181818" points="43.5,224.8086,47.5,234.8086,51.5,224.8086,47.5,228.8086" style="stroke:#181818;stroke-width:1.0;"/><line style="stroke:#181818;stroke-width:1.0;" x1="105.5" x2="115.5" y1="212.8086" y2="212.8086"/><line style="stroke:#181818;stroke-width:1.0;" x1="115.5" x2="115.5" y1="212.8086" y2="234.8086"/><polygon fill="#181818" points="111.5,224.8086,115.5,234.8086,119.5,224.8086,115.5,228.8086" style="stroke:#181818;stroke-width:1.0;"/><line style="stroke:#181818;stroke-width:1.0;" x1="47.5" x2="47.5" y1="268.9414" y2="286.9414"/><line style="stroke:#181818;stroke-width:1.0;" x1="47.5" x2="69.5" y1="286.9414" y2="286.9414"/><polygon fill="#181818" points="59.5,282.9414,69.5,286.9414,59.5,290.9414,63.5,286.9414" style="stroke:#181818;stroke-width:1.0;"/><line style="stroke:#181818;stroke-width:1.0;" x1="115.5" x2="115.5" y1="268.9414" y2="286.9414"/><line style="stroke:#181818;stroke-width:1.0;" x1="115.5" x2="93.5" y1="286.9414" y2="286.9414"/><polygon fill="#181818" points="103.5,282.9414,93.5,286.9414,103.5,290.9414,99.5,286.9414" style="stroke:#181818;stroke-width:1.0;"/><line style="stroke:#181818;stroke-width:1.0;" x1="81.5" x2="81.5" y1="178.2422" y2="200.8086"/><polygon fill="#181818" points="77.5,190.8086,81.5,200.8086,85.5,190.8086,81.5,194.8086" style="stroke:#181818;stroke-width:1.0;"/><line style="stroke:#181818;stroke-width:1.0;" x1="81.5" x2="81.5" y1="125.6094" y2="144.1094"/><polygon fill="#181818" points="77.5,134.1094,81.5,144.1094,85.5,134.1094,81.5,138.1094" style="stroke:#181818;stroke-width:1.0;"/><line style="stroke:#181818;stroke-width:1.0;" x1="159.5" x2="159.5" y1="125.6094" y2="198.2422"/><polygon fill="#181818" points="155.5,188.2422,159.5,198.2422,163.5,188.2422,159.5,192.2422" style="stroke:#181818;stroke-width:1.0;"/><line style="stroke:#181818;stroke-width:1.0;" x1="81.5" x2="81.5" y1="298.9414" y2="318.9414"/><polygon fill="#181818" points="77.5,308.9414,81.5,318.9414,85.5,308.9414,81.5,312.9414" style="stroke:#181818;stroke-width:1.0;"/><line style="stroke:#181818;stroke-width:1.0;" x1="159.5" x2="159.5" y1="232.375" y2="318.9414"/><polygon fill="#181818" points="155.5,308.9414,159.5,318.9414,163.5,308.9414,159.5,312.9414" style="stroke:#181818;stroke-width:1.0;"/><line style="stroke:#181818;stroke-width:1.0;" x1="109.5" x2="109.5" y1="104.1094" y2="124.1094"/><polygon fill="#181818" points="105.5,114.1094,109.5,124.1094,113.5,114.1094,109.5,118.1094" style="stroke:#181818;stroke-width:1.0;"/><line style="stroke:#181818;stroke-width:1.0;" x1="109.5" x2="109.5" y1="320.4414" y2="338.9414"/><polygon fill="#181818" points="105.5,328.9414,109.5,338.9414,113.5,328.9414,109.5,332.9414" style="stroke:#181818;stroke-width:1.0;"/><!--SRC=[AqWiAiaioSpFKr3o3tBBBygEZu3IYKeArLmAG91Ub5zQW4KQB0a2okb5gQbvLexMS97YWfpC4ZWF1AoSh57ucMaA6a2ZD1LACbBp53HAYafJDL4KW3Mve6fApIbELT18ImHIM1IxeYdEIybCGtMHGc9wOcOUghkS4Rg0Ej1ShboKccBb1b41aWK71LSj0000]--></g></svg>