<?xml version="1.0" encoding="us-ascii" standalone="no"?><svg xmlns="http://www.w3.org/2000/svg" xmlns:xlink="http://www.w3.org/1999/xlink" contentStyleType="text/css" height="402px" preserveAspectRatio="none" style="width:216px;height:402px;background:#FFFFFF;" version="1.1" viewBox="0 0 216 402" width="216px" zoomAndPan="magnify"><defs/><g><rect fill="none" height="380.0742" style="stroke:#000000;stroke-width:1.5;" width="194" x="11" y="11"/><path d="M155,11 L155,20.4883 L145,30.4883 L11,30.4883 " fill="none" style="stroke:#000000;stroke-width:1.5;"/><text fill="#000000" font-family="sans-serif" font-size="14" lengthAdjust="spacing" textLength="134" x="14" y="25.5352">ORFork_ANDFork_a</text><rect fill="none" height="338.5859" style="stroke:#000000;stroke-width:1.5;" width="174" x="21" y="40.4883"/><path d="M165,40.4883 L165,49.9766 L155,59.9766 L21,59.9766 " fill="none" style="stroke:#000000;stroke-width:1.5;"/><text fill="#000000" font-family="sans-serif" font-size="14" lengthAdjust="spacing" textLength="134" x="24" y="55.0234">ORFork_ANDFork_a</text><rect fill="#008000" height="34.1328" rx="12.5" ry="12.5" style="stroke:#181818;stroke-width:0.5;" width="28" x="101" y="69.9766"/><text fill="#000000" font-family="sans-serif" font-size="12" lengthAdjust="spacing" textLength="8" x="111" y="91.5781">A</text><line style="stroke:#181818;stroke-width:1.5;" x1="87" x2="169" y1="124.1094" y2="124.1094"/><rect fill="#F1F1F1" height="34.1328" rx="12.5" ry="12.5" style="stroke:#181818;stroke-width:0.5;" width="27" x="73.5" y="144.1094"/><text fill="#000000" font-family="sans-serif" font-size="12" lengthAdjust="spacing" textLength="7" x="83.5" y="165.7109">B</text><rect fill="#555555" height="6" rx="2.5" ry="2.5" style="stroke:#555555;stroke-width:1.0;" width="110" x="33" y="206.8086"/><rect fill="#F1F1F1" height="34.1328" rx="12.5" ry="12.5" style="stroke:#181818;stroke-width:0.5;" width="29" x="45" y="232.8086"/><text fill="#000000" font-family="sans-serif" font-size="12" lengthAdjust="spacing" textLength="9" x="55" y="254.4102">D</text><rect fill="#F1F1F1" height="34.1328" rx="12.5" ry="12.5" style="stroke:#181818;stroke-width:0.5;" width="27" x="102" y="232.8086"/><text fill="#000000" font-family="sans-serif" font-size="12" lengthAdjust="spacing" textLength="7" x="112" y="254.4102">E</text><rect fill="#555555" height="6" rx="2.5" ry="2.5" style="stroke:#555555;stroke-width:1.0;" width="110" x="33" y="286.9414"/><rect fill="#F1F1F1" height="34.1328" rx="12.5" ry="12.5" style="stroke:#181818;stroke-width:0.5;" width="28" x="155" y="198.2422"/><text fill="#000000" font-family="sans-serif" font-size="12" lengthAdjust="spacing" textLength="8" x="165" y="219.8438">C</text><line style="stroke:#181818;stroke-width:1.5;" x1="87" x2="169" y1="312.9414" y2="312.9414"/><rect fill="#FF0000" height="34.1328" rx="12.5" ry="12.5" style="stroke:#181818;stroke-width:0.5;" width="26" x="102" y="332.9414"/><text fill="#000000" font-family="sans-serif" font-size="12" lengthAdjust="spacing" textLength="6" x="112" y="354.543">F</text><line style="stroke:#181818;stroke-width:1.0;" x1="59.5" x2="59.5" y1="212.8086" y2="232.8086"/><polygon fill="#181818" points="55.5,222.8086,59.5,232.8086,63.5,222.8086,59.5,226.8086" style="stroke:#181818;stroke-width:1.0;"/><line style="stroke:#181818;stroke-width:1.0;" x1="115.5" x2="115.5" y1="212.8086" y2="232.8086"/><polygon fill="#181818" points="111.5,222.8086,115.5,232.8086,119.5,222.8086,115.5,226.8086" style="stroke:#181818;stroke-width:1.0;"/><line style="stroke:#181818;stroke-width:1.0;" x1="59.5" x2="59.5" y1="266.9414" y2="286.9414"/><polygon fill="#181818" points="55.5,276.9414,59.5,286.9414,63.5,276.9414,59.5,280.9414" style="stroke:#181818;stroke-width:1.0;"/><line style="stroke:#181818;stroke-width:1.0;" x1="115.5" x2="115.5" y1="266.9414" y2="286.9414"/><polygon fill="#181818" points="111.5,276.9414,115.5,286.9414,119.5,276.9414,115.5,280.9414" style="stroke:#181818;stroke-width:1.0;"/><line style="stroke:#181818;stroke-width:1.0;" x1="87" x2="87" y1="178.2422" y2="206.8086"/><polygon fill="#181818" points="83,196.8086,87,206.8086,91,196.8086,87,200.8086" style="stroke:#181818;stroke-width:1.0;"/><line style="stroke:#181818;stroke-width:1.0;" x1="87" x2="87" y1="125.6094" y2="144.1094"/><polygon fill="#181818" points="83,134.1094,87,144.1094,91,134.1094,87,138.1094" style="stroke:#181818;stroke-width:1.0;"/><line style="stroke:#181818;stroke-width:1.0;" x1="169" x2="169" y1="125.6094" y2="198.2422"/><polygon fill="#181818" points="165,188.2422,169,198.2422,173,188.2422,169,192.2422" style="stroke:#181818;stroke-width:1.0;"/><line style="stroke:#181818;stroke-width:1.0;" x1="87" x2="87" y1="292.9414" y2="312.9414"/><polygon fill="#181818" points="83,302.9414,87,312.9414,91,302.9414,87,306.9414" style="stroke:#181818;stroke-width:1.0;"/><line style="stroke:#181818;stroke-width:1.0;" x1="169" x2="169" y1="232.375" y2="312.9414"/><polygon fill="#181818" points="165,302.9414,169,312.9414,173,302.9414,169,306.9414" style="stroke:#181818;stroke-width:1.0;"/><line style="stroke:#181818;stroke-width:1.0;" x1="115" x2="115" y1="104.1094" y2="124.1094"/><polygon fill="#181818" points="111,114.1094,115,124.1094,119,114.1094,115,118.1094" style="stroke:#181818;stroke-width:1.0;"/><line style="stroke:#181818;stroke-width:1.0;" x1="115" x2="115" y1="314.4414" y2="332.9414"/><polygon fill="#181818" points="111,322.9414,115,332.9414,119,322.9414,115,326.9414" style="stroke:#181818;stroke-width:1.0;"/><!--SRC=[AqWiAiaioSpFKr3o3tBBBygET_Hp0TE9IWhLN0f0a5wKNrg0HHei2GBAwKMfgNbMZjPmaUA2dCmIE0y4h9oiKVXfG3DG1C2AN30LAIIc9sRcOIfrHLMQcfU2QYRO2LWqMpaZD88qeJfLkIWrnSeDeW8a2_OxLoq0]--></g></svg>