<?xml version="1.0" encoding="us-ascii" standalone="no"?><svg xmlns="http://www.w3.org/2000/svg" xmlns:xlink="http://www.w3.org/1999/xlink" contentStyleType="text/css" height="457px" preserveAspectRatio="none" style="width:175px;height:457px;background:#FFFFFF;" version="1.1" viewBox="0 0 175 457" width="175px" zoomAndPan="magnify"><defs/><g><rect fill="none" height="435.5078" style="stroke:#000000;stroke-width:1.5;" width="153" x="11" y="11"/><path d="M125,11 L125,20.4883 L115,30.4883 L11,30.4883 " fill="none" style="stroke:#000000;stroke-width:1.5;"/><text fill="#000000" font-family="sans-serif" font-size="14" lengthAdjust="spacing" textLength="104" x="14" y="25.5352">ORFork_loop_a</text><rect fill="none" height="394.0195" style="stroke:#000000;stroke-width:1.5;" width="133" x="21" y="40.4883"/><path d="M135,40.4883 L135,49.9766 L125,59.9766 L21,59.9766 " fill="none" style="stroke:#000000;stroke-width:1.5;"/><text fill="#000000" font-family="sans-serif" font-size="14" lengthAdjust="spacing" textLength="104" x="24" y="55.0234">ORFork_loop_a</text><rect fill="#008000" height="34.1328" rx="12.5" ry="12.5" style="stroke:#181818;stroke-width:0.5;" width="28" x="73.5" y="69.9766"/><text fill="#000000" font-family="sans-serif" font-size="12" lengthAdjust="spacing" textLength="8" x="83.5" y="91.5781">A</text><line style="stroke:#181818;stroke-width:1.5;" x1="47.5" x2="128" y1="124.1094" y2="124.1094"/><rect fill="#F1F1F1" height="34.1328" rx="12.5" ry="12.5" style="stroke:#181818;stroke-width:0.5;" width="27" x="34" y="144.1094"/><text fill="#000000" font-family="sans-serif" font-size="12" lengthAdjust="spacing" textLength="7" x="44" y="165.7109">B</text><rect fill="#F1F1F1" height="34.1328" rx="12.5" ry="12.5" style="stroke:#181818;stroke-width:0.5;" width="29" x="33" y="270.2422"/><text fill="#000000" font-family="sans-serif" font-size="12" lengthAdjust="spacing" textLength="9" x="43" y="291.8438">D</text><polygon fill="#F1F1F1" points="47.5,198.2422,59.5,210.2422,47.5,222.2422,35.5,210.2422,47.5,198.2422" style="stroke:#181818;stroke-width:0.5;"/><polygon fill="#F1F1F1" points="47.5,324.375,47.5,324.375,59.5,336.375,47.5,348.375,47.5,348.375,35.5,336.375,47.5,324.375" style="stroke:#181818;stroke-width:0.5;"/><rect fill="#F1F1F1" height="34.1328" rx="12.5" ry="12.5" style="stroke:#181818;stroke-width:0.5;" width="28" x="114" y="235.6758"/><text fill="#000000" font-family="sans-serif" font-size="12" lengthAdjust="spacing" textLength="8" x="124" y="257.2773">C</text><line style="stroke:#181818;stroke-width:1.5;" x1="47.5" x2="128" y1="368.375" y2="368.375"/><rect fill="#FF0000" height="34.1328" rx="12.5" ry="12.5" style="stroke:#181818;stroke-width:0.5;" width="27" x="74" y="388.375"/><text fill="#000000" font-family="sans-serif" font-size="12" lengthAdjust="spacing" textLength="7" x="84" y="409.9766">E</text><line style="stroke:#181818;stroke-width:1.0;" x1="47.5" x2="47.5" y1="222.2422" y2="270.2422"/><polygon fill="#181818" points="43.5,260.2422,47.5,270.2422,51.5,260.2422,47.5,264.2422" style="stroke:#181818;stroke-width:1.0;"/><line style="stroke:#181818;stroke-width:1.0;" x1="59.5" x2="74" y1="336.375" y2="336.375"/><polygon fill="#181818" points="70,297.3086,74,287.3086,78,297.3086,74,293.3086" style="stroke:#181818;stroke-width:1.0;"/><line style="stroke:#181818;stroke-width:1.0;" x1="74" x2="74" y1="210.2422" y2="336.375"/><line style="stroke:#181818;stroke-width:1.0;" x1="74" x2="59.5" y1="210.2422" y2="210.2422"/><polygon fill="#181818" points="69.5,206.2422,59.5,210.2422,69.5,214.2422,65.5,210.2422" style="stroke:#181818;stroke-width:1.0;"/><line style="stroke:#181818;stroke-width:1.0;" x1="47.5" x2="47.5" y1="304.375" y2="324.375"/><polygon fill="#181818" points="43.5,314.375,47.5,324.375,51.5,314.375,47.5,318.375" style="stroke:#181818;stroke-width:1.0;"/><line style="stroke:#181818;stroke-width:1.0;" x1="47.5" x2="47.5" y1="178.2422" y2="198.2422"/><polygon fill="#181818" points="43.5,188.2422,47.5,198.2422,51.5,188.2422,47.5,192.2422" style="stroke:#181818;stroke-width:1.0;"/><line style="stroke:#181818;stroke-width:1.0;" x1="47.5" x2="47.5" y1="125.6094" y2="144.1094"/><polygon fill="#181818" points="43.5,134.1094,47.5,144.1094,51.5,134.1094,47.5,138.1094" style="stroke:#181818;stroke-width:1.0;"/><line style="stroke:#181818;stroke-width:1.0;" x1="128" x2="128" y1="125.6094" y2="235.6758"/><polygon fill="#181818" points="124,225.6758,128,235.6758,132,225.6758,128,229.6758" style="stroke:#181818;stroke-width:1.0;"/><line style="stroke:#181818;stroke-width:1.0;" x1="47.5" x2="47.5" y1="348.375" y2="368.375"/><polygon fill="#181818" points="43.5,358.375,47.5,368.375,51.5,358.375,47.5,362.375" style="stroke:#181818;stroke-width:1.0;"/><line style="stroke:#181818;stroke-width:1.0;" x1="128" x2="128" y1="269.8086" y2="368.375"/><polygon fill="#181818" points="124,358.375,128,368.375,132,358.375,128,362.375" style="stroke:#181818;stroke-width:1.0;"/><line style="stroke:#181818;stroke-width:1.0;" x1="87.5" x2="87.5" y1="104.1094" y2="124.1094"/><polygon fill="#181818" points="83.5,114.1094,87.5,124.1094,91.5,114.1094,87.5,118.1094" style="stroke:#181818;stroke-width:1.0;"/><line style="stroke:#181818;stroke-width:1.0;" x1="87.5" x2="87.5" y1="369.875" y2="388.375"/><polygon fill="#181818" points="83.5,378.375,87.5,388.375,91.5,378.375,87.5,382.375" style="stroke:#181818;stroke-width:1.0;"/><!--SRC=[AqWiAiaioSpFKr3o3tBBBygEpydFBuXFL5Aevb80WlIY_D82T3cm30WefnUbfkPPELh3HOeBSZ9Bu3mGi7AoHk4NfHQa9g8g0IjpmQPCeJmZCoSLrNI5nFJ4p3nKEvmHcbFpKj1SeLoKccBb2b41aWNxYQiM0000]--></g></svg>