<?xml version="1.0" encoding="us-ascii" standalone="no"?><svg xmlns="http://www.w3.org/2000/svg" xmlns:xlink="http://www.w3.org/1999/xlink" contentStyleType="text/css" height="341px" preserveAspectRatio="none" style="width:235px;height:341px;background:#FFFFFF;" version="1.1" viewBox="0 0 235 341" width="235px" zoomAndPan="magnify"><defs/><g><rect fill="none" height="319.9609" style="stroke:#000000;stroke-width:1.5;" width="213" x="11" y="11"/><path d="M199,11 L199,20.4883 L189,30.4883 L11,30.4883 " fill="none" style="stroke:#000000;stroke-width:1.5;"/><text fill="#000000" font-family="sans-serif" font-size="14" lengthAdjust="spacing" textLength="178" x="14" y="25.5352">merge at correct event OR</text><rect fill="none" height="278.0195" style="stroke:#000000;stroke-width:1.5;" width="193" x="21" y="40.9414"/><path d="M209,40.9414 L209,50.4297 L199,60.4297 L21,60.4297 " fill="none" style="stroke:#000000;stroke-width:1.5;"/><text fill="#000000" font-family="sans-serif" font-size="14" lengthAdjust="spacing" textLength="178" x="24" y="55.4766">merge at correct event OR</text><rect fill="#008000" height="34.1328" rx="12.5" ry="12.5" style="stroke:#181818;stroke-width:0.5;" width="28" x="106" y="70.4297"/><text fill="#000000" font-family="sans-serif" font-size="12" lengthAdjust="spacing" textLength="8" x="116" y="92.0313">A</text><line style="stroke:#181818;stroke-width:1.5;" x1="63.5" x2="176.5" y1="124.5625" y2="124.5625"/><rect fill="#F1F1F1" height="34.1328" rx="12.5" ry="12.5" style="stroke:#181818;stroke-width:0.5;" width="27" x="50" y="144.5625"/><text fill="#000000" font-family="sans-serif" font-size="12" lengthAdjust="spacing" textLength="7" x="60" y="166.1641">B</text><rect fill="#F1F1F1" height="34.1328" rx="12.5" ry="12.5" style="stroke:#181818;stroke-width:0.5;" width="28" x="49.5" y="198.6953"/><text fill="#000000" font-family="sans-serif" font-size="12" lengthAdjust="spacing" textLength="8" x="59.5" y="220.2969">C</text><rect fill="#F1F1F1" height="34.1328" rx="12.5" ry="12.5" style="stroke:#181818;stroke-width:0.5;" width="29" x="105.5" y="144.5625"/><text fill="#000000" font-family="sans-serif" font-size="12" lengthAdjust="spacing" textLength="9" x="115.5" y="166.1641">D</text><rect fill="#F1F1F1" height="34.1328" rx="12.5" ry="12.5" style="stroke:#181818;stroke-width:0.5;" width="28" x="106" y="198.6953"/><text fill="#000000" font-family="sans-serif" font-size="12" lengthAdjust="spacing" textLength="8" x="116" y="220.2969">C</text><rect fill="#F1F1F1" height="34.1328" rx="12.5" ry="12.5" style="stroke:#181818;stroke-width:0.5;" width="27" x="163" y="144.5625"/><text fill="#000000" font-family="sans-serif" font-size="12" lengthAdjust="spacing" textLength="7" x="173" y="166.1641">E</text><rect fill="#F1F1F1" height="34.1328" rx="12.5" ry="12.5" style="stroke:#181818;stroke-width:0.5;" width="28" x="162.5" y="198.6953"/><text fill="#000000" font-family="sans-serif" font-size="12" lengthAdjust="spacing" textLength="8" x="172.5" y="220.2969">C</text><line style="stroke:#181818;stroke-width:1.5;" x1="63.5" x2="176.5" y1="252.8281" y2="252.8281"/><rect fill="#FF0000" height="34.1328" rx="12.5" ry="12.5" style="stroke:#181818;stroke-width:0.5;" width="26" x="107" y="272.8281"/><text fill="#000000" font-family="sans-serif" font-size="12" lengthAdjust="spacing" textLength="6" x="117" y="294.4297">F</text><line style="stroke:#181818;stroke-width:1.0;" x1="63.5" x2="63.5" y1="178.6953" y2="198.6953"/><polygon fill="#181818" points="59.5,188.6953,63.5,198.6953,67.5,188.6953,63.5,192.6953" style="stroke:#181818;stroke-width:1.0;"/><line style="stroke:#181818;stroke-width:1.0;" x1="120" x2="120" y1="178.6953" y2="198.6953"/><polygon fill="#181818" points="116,188.6953,120,198.6953,124,188.6953,120,192.6953" style="stroke:#181818;stroke-width:1.0;"/><line style="stroke:#181818;stroke-width:1.0;" x1="176.5" x2="176.5" y1="178.6953" y2="198.6953"/><polygon fill="#181818" points="172.5,188.6953,176.5,198.6953,180.5,188.6953,176.5,192.6953" style="stroke:#181818;stroke-width:1.0;"/><line style="stroke:#181818;stroke-width:1.0;" x1="63.5" x2="63.5" y1="126.0625" y2="144.5625"/><polygon fill="#181818" points="59.5,134.5625,63.5,144.5625,67.5,134.5625,63.5,138.5625" style="stroke:#181818;stroke-width:1.0;"/><line style="stroke:#181818;stroke-width:1.0;" x1="120" x2="120" y1="126.0625" y2="144.5625"/><polygon fill="#181818" points="116,134.5625,120,144.5625,124,134.5625,120,138.5625" style="stroke:#181818;stroke-width:1.0;"/><line style="stroke:#181818;stroke-width:1.0;" x1="176.5" x2="176.5" y1="126.0625" y2="144.5625"/><polygon fill="#181818" points="172.5,134.5625,176.5,144.5625,180.5,134.5625,176.5,138.5625" style="stroke:#181818;stroke-width:1.0;"/><line style="stroke:#181818;stroke-width:1.0;" x1="63.5" x2="63.5" y1="232.8281" y2="252.8281"/><polygon fill="#181818" points="59.5,242.8281,63.5,252.8281,67.5,242.8281,63.5,246.8281" style="stroke:#181818;stroke-width:1.0;"/><line style="stroke:#181818;stroke-width:1.0;" x1="120" x2="120" y1="232.8281" y2="252.8281"/><polygon fill="#181818" points="116,242.8281,120,252.8281,124,242.8281,120,246.8281" style="stroke:#181818;stroke-width:1.0;"/><line style="stroke:#181818;stroke-width:1.0;" x1="176.5" x2="176.5" y1="232.8281" y2="252.8281"/><polygon fill="#181818" points="172.5,242.8281,176.5,252.8281,180.5,242.8281,176.5,246.8281" style="stroke:#181818;stroke-width:1.0;"/><line style="stroke:#181818;stroke-width:1.0;" x1="120" x2="120" y1="104.5625" y2="124.5625"/><polygon fill="#181818" points="116,114.5625,120,124.5625,124,114.5625,120,118.5625" style="stroke:#181818;stroke-width:1.0;"/><line style="stroke:#181818;stroke-width:1.0;" x1="120" x2="120" y1="254.3281" y2="272.8281"/><polygon fill="#181818" points="116,262.8281,120,272.8281,124,262.8281,120,266.8281" style="stroke:#181818;stroke-width:1.0;"/><!--SRC=[AqWiAiaioSpFKr3AJIrAJrL8B558pYygIaqkKKWjIyqhKV0FKbAevb80WlIY_D82VEh0ga10ERqeDJNFoj4QBb9Sa9DP0kU1W9MJDIhV6KsrGc9wOcOUgXeNClIuujQJcfU2vZBbejGKApU82f0isCzSjG00]--></g></svg>