<?xml version="1.0" encoding="us-ascii" standalone="no"?><svg xmlns="http://www.w3.org/2000/svg" xmlns:xlink="http://www.w3.org/1999/xlink" contentStyleType="text/css" height="341px" preserveAspectRatio="none" style="width:186px;height:341px;background:#FFFFFF;" version="1.1" viewBox="0 0 186 341" width="186px" zoomAndPan="magnify"><defs/><g><rect fill="none" height="319.5078" style="stroke:#000000;stroke-width:1.5;" width="164" x="11" y="11"/><path d="M90,11 L90,20.4883 L80,30.4883 L11,30.4883 " fill="none" style="stroke:#000000;stroke-width:1.5;"/><text fill="#000000" font-family="sans-serif" font-size="14" lengthAdjust="spacing" textLength="69" x="14" y="25.5352">simple OR</text><rect fill="none" height="278.0195" style="stroke:#000000;stroke-width:1.5;" width="144" x="21" y="40.4883"/><path d="M100,40.4883 L100,49.9766 L90,59.9766 L21,59.9766 " fill="none" style="stroke:#000000;stroke-width:1.5;"/><text fill="#000000" font-family="sans-serif" font-size="14" lengthAdjust="spacing" textLength="69" x="24" y="55.0234">simple OR</text><rect fill="#008000" height="34.1328" rx="12.5" ry="12.5" style="stroke:#181818;stroke-width:0.5;" width="28" x="87.5" y="69.9766"/><text fill="#000000" font-family="sans-serif" font-size="12" lengthAdjust="spacing" textLength="8" x="97.5" y="91.5781">A</text><line style="stroke:#181818;stroke-width:1.5;" x1="46.5" x2="139.5" y1="124.1094" y2="124.1094"/><rect fill="#F1F1F1" height="34.1328" rx="12.5" ry="12.5" style="stroke:#181818;stroke-width:0.5;" width="27" x="33" y="144.1094"/><text fill="#000000" font-family="sans-serif" font-size="12" lengthAdjust="spacing" textLength="7" x="43" y="165.7109">B</text><rect fill="#F1F1F1" height="34.1328" rx="12.5" ry="12.5" style="stroke:#181818;stroke-width:0.5;" width="29" x="87" y="144.1094"/><text fill="#000000" font-family="sans-serif" font-size="12" lengthAdjust="spacing" textLength="9" x="97" y="165.7109">D</text><rect fill="#F1F1F1" height="34.1328" rx="12.5" ry="12.5" style="stroke:#181818;stroke-width:0.5;" width="27" x="126" y="144.1094"/><text fill="#000000" font-family="sans-serif" font-size="12" lengthAdjust="spacing" textLength="7" x="136" y="165.7109">E</text><line style="stroke:#181818;stroke-width:1.5;" x1="46.5" x2="139.5" y1="198.2422" y2="198.2422"/><rect fill="#F1F1F1" height="34.1328" rx="12.5" ry="12.5" style="stroke:#181818;stroke-width:0.5;" width="28" x="87.5" y="218.2422"/><text fill="#000000" font-family="sans-serif" font-size="12" lengthAdjust="spacing" textLength="8" x="97.5" y="239.8438">C</text><rect fill="#FF0000" height="34.1328" rx="12.5" ry="12.5" style="stroke:#181818;stroke-width:0.5;" width="26" x="88.5" y="272.375"/><text fill="#000000" font-family="sans-serif" font-size="12" lengthAdjust="spacing" textLength="6" x="98.5" y="293.9766">F</text><line style="stroke:#181818;stroke-width:1.0;" x1="46.5" x2="46.5" y1="125.6094" y2="144.1094"/><polygon fill="#181818" points="42.5,134.1094,46.5,144.1094,50.5,134.1094,46.5,138.1094" style="stroke:#181818;stroke-width:1.0;"/><line style="stroke:#181818;stroke-width:1.0;" x1="101.5" x2="101.5" y1="125.6094" y2="144.1094"/><polygon fill="#181818" points="97.5,134.1094,101.5,144.1094,105.5,134.1094,101.5,138.1094" style="stroke:#181818;stroke-width:1.0;"/><line style="stroke:#181818;stroke-width:1.0;" x1="139.5" x2="139.5" y1="125.6094" y2="144.1094"/><polygon fill="#181818" points="135.5,134.1094,139.5,144.1094,143.5,134.1094,139.5,138.1094" style="stroke:#181818;stroke-width:1.0;"/><line style="stroke:#181818;stroke-width:1.0;" x1="46.5" x2="46.5" y1="178.2422" y2="198.2422"/><polygon fill="#181818" points="42.5,188.2422,46.5,198.2422,50.5,188.2422,46.5,192.2422" style="stroke:#181818;stroke-width:1.0;"/><line style="stroke:#181818;stroke-width:1.0;" x1="101.5" x2="101.5" y1="178.2422" y2="198.2422"/><polygon fill="#181818" points="97.5,188.2422,101.5,198.2422,105.5,188.2422,101.5,192.2422" style="stroke:#181818;stroke-width:1.0;"/><line style="stroke:#181818;stroke-width:1.0;" x1="139.5" x2="139.5" y1="178.2422" y2="198.2422"/><polygon fill="#181818" points="135.5,188.2422,139.5,198.2422,143.5,188.2422,139.5,192.2422" style="stroke:#181818;stroke-width:1.0;"/><line style="stroke:#181818;stroke-width:1.0;" x1="101.5" x2="101.5" y1="104.1094" y2="124.1094"/><polygon fill="#181818" points="97.5,114.1094,101.5,124.1094,105.5,114.1094,101.5,118.1094" style="stroke:#181818;stroke-width:1.0;"/><line style="stroke:#181818;stroke-width:1.0;" x1="101.5" x2="101.5" y1="199.7422" y2="218.2422"/><polygon fill="#181818" points="97.5,208.2422,101.5,218.2422,105.5,208.2422,101.5,212.2422" style="stroke:#181818;stroke-width:1.0;"/><line style="stroke:#181818;stroke-width:1.0;" x1="101.5" x2="101.5" y1="252.375" y2="272.375"/><polygon fill="#181818" points="97.5,262.375,101.5,272.375,105.5,262.375,101.5,266.375" style="stroke:#181818;stroke-width:1.0;"/><!--SRC=[AqWiAiaioSpFKr0gpimjo4bLy0zIKgZcKW22zAByqW9aSR0e22Yd5wMcvbavMiD5YWjoCalWF12mSaAJLKXCJypCGrNZGeGQLuIQrBmKD9kid16ooaMfALPk43v89TZzNBK0]--></g></svg>