<?xml version="1.0" encoding="us-ascii" standalone="no"?><svg xmlns="http://www.w3.org/2000/svg" xmlns:xlink="http://www.w3.org/1999/xlink" contentStyleType="text/css" height="353px" preserveAspectRatio="none" style="width:245px;height:353px;background:#FFFFFF;" version="1.1" viewBox="0 0 245 353" width="245px" zoomAndPan="magnify"><defs/><g><rect fill="none" height="331.9609" style="stroke:#000000;stroke-width:1.5;" width="223" x="11" y="11"/><path d="M209,11 L209,20.4883 L199,30.4883 L11,30.4883 " fill="none" style="stroke:#000000;stroke-width:1.5;"/><text fill="#000000" font-family="sans-serif" font-size="14" lengthAdjust="spacing" textLength="188" x="14" y="25.5352">merge at correct event AND</text><rect fill="none" height="290.0195" style="stroke:#000000;stroke-width:1.5;" width="203" x="21" y="40.9414"/><path d="M219,40.9414 L219,50.4297 L209,60.4297 L21,60.4297 " fill="none" style="stroke:#000000;stroke-width:1.5;"/><text fill="#000000" font-family="sans-serif" font-size="14" lengthAdjust="spacing" textLength="188" x="24" y="55.4766">merge at correct event AND</text><rect fill="#008000" height="34.1328" rx="12.5" ry="12.5" style="stroke:#181818;stroke-width:0.5;" width="28" x="111" y="70.4297"/><text fill="#000000" font-family="sans-serif" font-size="12" lengthAdjust="spacing" textLength="8" x="121" y="92.0313">A</text><rect fill="#555555" height="6" rx="2.5" ry="2.5" style="stroke:#555555;stroke-width:1.0;" width="169" x="40.5" y="124.5625"/><rect fill="#F1F1F1" height="34.1328" rx="12.5" ry="12.5" style="stroke:#181818;stroke-width:0.5;" width="27" x="55" y="150.5625"/><text fill="#000000" font-family="sans-serif" font-size="12" lengthAdjust="spacing" textLength="7" x="65" y="172.1641">B</text><rect fill="#F1F1F1" height="34.1328" rx="12.5" ry="12.5" style="stroke:#181818;stroke-width:0.5;" width="28" x="54.5" y="204.6953"/><text fill="#000000" font-family="sans-serif" font-size="12" lengthAdjust="spacing" textLength="8" x="64.5" y="226.2969">C</text><rect fill="#F1F1F1" height="34.1328" rx="12.5" ry="12.5" style="stroke:#181818;stroke-width:0.5;" width="29" x="110.5" y="150.5625"/><text fill="#000000" font-family="sans-serif" font-size="12" lengthAdjust="spacing" textLength="9" x="120.5" y="172.1641">D</text><rect fill="#F1F1F1" height="34.1328" rx="12.5" ry="12.5" style="stroke:#181818;stroke-width:0.5;" width="28" x="111" y="204.6953"/><text fill="#000000" font-family="sans-serif" font-size="12" lengthAdjust="spacing" textLength="8" x="121" y="226.2969">C</text><rect fill="#F1F1F1" height="34.1328" rx="12.5" ry="12.5" style="stroke:#181818;stroke-width:0.5;" width="27" x="168" y="150.5625"/><text fill="#000000" font-family="sans-serif" font-size="12" lengthAdjust="spacing" textLength="7" x="178" y="172.1641">E</text><rect fill="#F1F1F1" height="34.1328" rx="12.5" ry="12.5" style="stroke:#181818;stroke-width:0.5;" width="28" x="167.5" y="204.6953"/><text fill="#000000" font-family="sans-serif" font-size="12" lengthAdjust="spacing" textLength="8" x="177.5" y="226.2969">C</text><rect fill="#555555" height="6" rx="2.5" ry="2.5" style="stroke:#555555;stroke-width:1.0;" width="169" x="40.5" y="258.8281"/><rect fill="#FF0000" height="34.1328" rx="12.5" ry="12.5" style="stroke:#181818;stroke-width:0.5;" width="26" x="112" y="284.8281"/><text fill="#000000" font-family="sans-serif" font-size="12" lengthAdjust="spacing" textLength="6" x="122" y="306.4297">F</text><line style="stroke:#181818;stroke-width:1.0;" x1="68.5" x2="68.5" y1="184.6953" y2="204.6953"/><polygon fill="#181818" points="64.5,194.6953,68.5,204.6953,72.5,194.6953,68.5,198.6953" style="stroke:#181818;stroke-width:1.0;"/><line style="stroke:#181818;stroke-width:1.0;" x1="125" x2="125" y1="184.6953" y2="204.6953"/><polygon fill="#181818" points="121,194.6953,125,204.6953,129,194.6953,125,198.6953" style="stroke:#181818;stroke-width:1.0;"/><line style="stroke:#181818;stroke-width:1.0;" x1="181.5" x2="181.5" y1="184.6953" y2="204.6953"/><polygon fill="#181818" points="177.5,194.6953,181.5,204.6953,185.5,194.6953,181.5,198.6953" style="stroke:#181818;stroke-width:1.0;"/><line style="stroke:#181818;stroke-width:1.0;" x1="68.5" x2="68.5" y1="130.5625" y2="150.5625"/><polygon fill="#181818" points="64.5,140.5625,68.5,150.5625,72.5,140.5625,68.5,144.5625" style="stroke:#181818;stroke-width:1.0;"/><line style="stroke:#181818;stroke-width:1.0;" x1="125" x2="125" y1="130.5625" y2="150.5625"/><polygon fill="#181818" points="121,140.5625,125,150.5625,129,140.5625,125,144.5625" style="stroke:#181818;stroke-width:1.0;"/><line style="stroke:#181818;stroke-width:1.0;" x1="181.5" x2="181.5" y1="130.5625" y2="150.5625"/><polygon fill="#181818" points="177.5,140.5625,181.5,150.5625,185.5,140.5625,181.5,144.5625" style="stroke:#181818;stroke-width:1.0;"/><line style="stroke:#181818;stroke-width:1.0;" x1="68.5" x2="68.5" y1="238.8281" y2="258.8281"/><polygon fill="#181818" points="64.5,248.8281,68.5,258.8281,72.5,248.8281,68.5,252.8281" style="stroke:#181818;stroke-width:1.0;"/><line style="stroke:#181818;stroke-width:1.0;" x1="125" x2="125" y1="238.8281" y2="258.8281"/><polygon fill="#181818" points="121,248.8281,125,258.8281,129,248.8281,125,252.8281" style="stroke:#181818;stroke-width:1.0;"/><line style="stroke:#181818;stroke-width:1.0;" x1="181.5" x2="181.5" y1="238.8281" y2="258.8281"/><polygon fill="#181818" points="177.5,248.8281,181.5,258.8281,185.5,248.8281,181.5,252.8281" style="stroke:#181818;stroke-width:1.0;"/><line style="stroke:#181818;stroke-width:1.0;" x1="125" x2="125" y1="104.5625" y2="124.5625"/><polygon fill="#181818" points="121,114.5625,125,124.5625,129,114.5625,125,118.5625" style="stroke:#181818;stroke-width:1.0;"/><line style="stroke:#181818;stroke-width:1.0;" x1="125" x2="125" y1="264.8281" y2="284.8281"/><polygon fill="#181818" points="121,274.8281,125,284.8281,129,274.8281,125,278.8281" style="stroke:#181818;stroke-width:1.0;"/><!--SRC=[AqWiAiaioSpFKr3AJIrAJrL8B558pYygIaqkKKWjIyqhKN3qSr5IgEPI08BqelpI0hmAmSf0G3czA3KrpyhH6YwIbb-K3UU0W9MJDIhV6LMnGc9wOcOUgX8NqhMuujQIcfU2wYpbejGKApU80f0asCDSjG00]--></g></svg>