<?xml version="1.0" encoding="us-ascii" standalone="no"?><svg xmlns="http://www.w3.org/2000/svg" xmlns:xlink="http://www.w3.org/1999/xlink" contentStyleType="text/css" height="368px" preserveAspectRatio="none" style="width:302px;height:368px;background:#FFFFFF;" version="1.1" viewBox="0 0 302 368" width="302px" zoomAndPan="magnify"><defs/><g><rect fill="none" height="346.9609" style="stroke:#000000;stroke-width:1.5;" width="280" x="11" y="11"/><path d="M266,11 L266,20.4883 L256,30.4883 L11,30.4883 " fill="none" style="stroke:#000000;stroke-width:1.5;"/><text fill="#000000" font-family="sans-serif" font-size="14" lengthAdjust="spacing" textLength="245" x="14" y="25.5352">merge at correct event AND with kill</text><rect fill="none" height="305.0195" style="stroke:#000000;stroke-width:1.5;" width="260" x="21" y="40.9414"/><path d="M276,40.9414 L276,50.4297 L266,60.4297 L21,60.4297 " fill="none" style="stroke:#000000;stroke-width:1.5;"/><text fill="#000000" font-family="sans-serif" font-size="14" lengthAdjust="spacing" textLength="245" x="24" y="55.4766">merge at correct event AND with kill</text><rect fill="#008000" height="34.1328" rx="12.5" ry="12.5" style="stroke:#181818;stroke-width:0.5;" width="28" x="139.5" y="70.4297"/><text fill="#000000" font-family="sans-serif" font-size="12" lengthAdjust="spacing" textLength="8" x="149.5" y="92.0313">A</text><rect fill="#555555" height="6" rx="2.5" ry="2.5" style="stroke:#555555;stroke-width:1.0;" width="226" x="40.5" y="124.5625"/><rect fill="#F1F1F1" height="34.1328" rx="12.5" ry="12.5" style="stroke:#181818;stroke-width:0.5;" width="27" x="55" y="150.5625"/><text fill="#000000" font-family="sans-serif" font-size="12" lengthAdjust="spacing" textLength="7" x="65" y="172.1641">B</text><rect fill="#F1F1F1" height="34.1328" rx="12.5" ry="12.5" style="stroke:#181818;stroke-width:0.5;" width="28" x="54.5" y="219.6953"/><text fill="#000000" font-family="sans-serif" font-size="12" lengthAdjust="spacing" textLength="8" x="64.5" y="241.2969">C</text><rect fill="#F1F1F1" height="34.1328" rx="12.5" ry="12.5" style="stroke:#181818;stroke-width:0.5;" width="29" x="110.5" y="150.5625"/><text fill="#000000" font-family="sans-serif" font-size="12" lengthAdjust="spacing" textLength="9" x="120.5" y="172.1641">D</text><rect fill="#F1F1F1" height="34.1328" rx="12.5" ry="12.5" style="stroke:#181818;stroke-width:0.5;" width="28" x="111" y="219.6953"/><text fill="#000000" font-family="sans-serif" font-size="12" lengthAdjust="spacing" textLength="8" x="121" y="241.2969">C</text><rect fill="#F1F1F1" height="34.1328" rx="12.5" ry="12.5" style="stroke:#181818;stroke-width:0.5;" width="27" x="168" y="150.5625"/><text fill="#000000" font-family="sans-serif" font-size="12" lengthAdjust="spacing" textLength="7" x="178" y="172.1641">E</text><rect fill="#F1F1F1" height="34.1328" rx="12.5" ry="12.5" style="stroke:#181818;stroke-width:0.5;" width="28" x="167.5" y="219.6953"/><text fill="#000000" font-family="sans-serif" font-size="12" lengthAdjust="spacing" textLength="8" x="177.5" y="241.2969">C</text><rect fill="#F1F1F1" height="34.1328" rx="12.5" ry="12.5" style="stroke:#181818;stroke-width:0.5;" width="29" x="223.5" y="185.1289"/><text fill="#000000" font-family="sans-serif" font-size="12" lengthAdjust="spacing" textLength="9" x="233.5" y="206.7305">G</text><rect fill="#555555" height="6" rx="2.5" ry="2.5" style="stroke:#555555;stroke-width:1.0;" width="226" x="40.5" y="273.8281"/><rect fill="#FF0000" height="34.1328" rx="12.5" ry="12.5" style="stroke:#181818;stroke-width:0.5;" width="26" x="140.5" y="299.8281"/><text fill="#000000" font-family="sans-serif" font-size="12" lengthAdjust="spacing" textLength="6" x="150.5" y="321.4297">F</text><line style="stroke:#181818;stroke-width:1.0;" x1="68.5" x2="68.5" y1="184.6953" y2="219.6953"/><polygon fill="#181818" points="64.5,209.6953,68.5,219.6953,72.5,209.6953,68.5,213.6953" style="stroke:#181818;stroke-width:1.0;"/><line style="stroke:#181818;stroke-width:1.0;" x1="125" x2="125" y1="184.6953" y2="219.6953"/><polygon fill="#181818" points="121,209.6953,125,219.6953,129,209.6953,125,213.6953" style="stroke:#181818;stroke-width:1.0;"/><line style="stroke:#181818;stroke-width:1.0;" x1="181.5" x2="181.5" y1="184.6953" y2="219.6953"/><polygon fill="#181818" points="177.5,209.6953,181.5,219.6953,185.5,209.6953,181.5,213.6953" style="stroke:#181818;stroke-width:1.0;"/><line style="stroke:#181818;stroke-width:1.0;" x1="68.5" x2="68.5" y1="130.5625" y2="150.5625"/><polygon fill="#181818" points="64.5,140.5625,68.5,150.5625,72.5,140.5625,68.5,144.5625" style="stroke:#181818;stroke-width:1.0;"/><line style="stroke:#181818;stroke-width:1.0;" x1="125" x2="125" y1="130.5625" y2="150.5625"/><polygon fill="#181818" points="121,140.5625,125,150.5625,129,140.5625,125,144.5625" style="stroke:#181818;stroke-width:1.0;"/><line style="stroke:#181818;stroke-width:1.0;" x1="181.5" x2="181.5" y1="130.5625" y2="150.5625"/><polygon fill="#181818" points="177.5,140.5625,181.5,150.5625,185.5,140.5625,181.5,144.5625" style="stroke:#181818;stroke-width:1.0;"/><line style="stroke:#181818;stroke-width:1.0;" x1="238" x2="238" y1="130.5625" y2="185.1289"/><polygon fill="#181818" points="234,175.1289,238,185.1289,242,175.1289,238,179.1289" style="stroke:#181818;stroke-width:1.0;"/><line style="stroke:#181818;stroke-width:1.0;" x1="68.5" x2="68.5" y1="253.8281" y2="273.8281"/><polygon fill="#181818" points="64.5,263.8281,68.5,273.8281,72.5,263.8281,68.5,267.8281" style="stroke:#181818;stroke-width:1.0;"/><line style="stroke:#181818;stroke-width:1.0;" x1="125" x2="125" y1="253.8281" y2="273.8281"/><polygon fill="#181818" points="121,263.8281,125,273.8281,129,263.8281,125,267.8281" style="stroke:#181818;stroke-width:1.0;"/><line style="stroke:#181818;stroke-width:1.0;" x1="181.5" x2="181.5" y1="253.8281" y2="273.8281"/><polygon fill="#181818" points="177.5,263.8281,181.5,273.8281,185.5,263.8281,181.5,267.8281" style="stroke:#181818;stroke-width:1.0;"/><line style="stroke:#181818;stroke-width:1.0;" x1="153.5" x2="153.5" y1="104.5625" y2="124.5625"/><polygon fill="#181818" points="149.5,114.5625,153.5,124.5625,157.5,114.5625,153.5,118.5625" style="stroke:#181818;stroke-width:1.0;"/><line style="stroke:#181818;stroke-width:1.0;" x1="153.5" x2="153.5" y1="279.8281" y2="299.8281"/><polygon fill="#181818" points="149.5,289.8281,153.5,299.8281,157.5,289.8281,153.5,293.8281" style="stroke:#181818;stroke-width:1.0;"/><!--SRC=[bP2n3i8m34JtViMf_OjqAXJO-8UeDS5gSIhBm83uTqYH8cMZjztvtd1Ul1eRHq5z8mq4RnYYAWq6Uf0OkdEF9ziL4yzpZLU5huB6-_8diW99JL0YSLsRaqlKAPiajsjBlo_ByC6pb9L-EtBOZfnA92tB0SbOJccKHdVy4UculgjwVm00]--></g></svg>