<?xml version="1.0" encoding="us-ascii" standalone="no"?><svg xmlns="http://www.w3.org/2000/svg" xmlns:xlink="http://www.w3.org/1999/xlink" contentStyleType="text/css" height="368px" preserveAspectRatio="none" style="width:353px;height:368px;background:#FFFFFF;" version="1.1" viewBox="0 0 353 368" width="353px" zoomAndPan="magnify"><defs/><g><rect fill="none" height="346.9609" style="stroke:#000000;stroke-width:1.5;" width="331" x="11" y="11"/><path d="M317,11 L317,20.4883 L307,30.4883 L11,30.4883 " fill="none" style="stroke:#000000;stroke-width:1.5;"/><text fill="#000000" font-family="sans-serif" font-size="14" lengthAdjust="spacing" textLength="296" x="14" y="25.5352">multiple same event AND with extra branch</text><rect fill="none" height="305.0195" style="stroke:#000000;stroke-width:1.5;" width="311" x="21" y="40.9414"/><path d="M327,40.9414 L327,50.4297 L317,60.4297 L21,60.4297 " fill="none" style="stroke:#000000;stroke-width:1.5;"/><text fill="#000000" font-family="sans-serif" font-size="14" lengthAdjust="spacing" textLength="296" x="24" y="55.4766">multiple same event AND with extra branch</text><rect fill="#008000" height="34.1328" rx="12.5" ry="12.5" style="stroke:#181818;stroke-width:0.5;" width="28" x="165" y="70.4297"/><text fill="#000000" font-family="sans-serif" font-size="12" lengthAdjust="spacing" textLength="8" x="175" y="92.0313">A</text><rect fill="#555555" height="6" rx="2.5" ry="2.5" style="stroke:#555555;stroke-width:1.0;" width="167" x="95.5" y="124.5625"/><rect fill="#F1F1F1" height="34.1328" rx="12.5" ry="12.5" style="stroke:#181818;stroke-width:0.5;" width="27" x="110" y="150.5625"/><text fill="#000000" font-family="sans-serif" font-size="12" lengthAdjust="spacing" textLength="7" x="120" y="172.1641">B</text><rect fill="#F1F1F1" height="34.1328" rx="12.5" ry="12.5" style="stroke:#181818;stroke-width:0.5;" width="28" x="109.5" y="219.6953"/><text fill="#000000" font-family="sans-serif" font-size="12" lengthAdjust="spacing" textLength="8" x="119.5" y="241.2969">C</text><rect fill="#F1F1F1" height="34.1328" rx="12.5" ry="12.5" style="stroke:#181818;stroke-width:0.5;" width="27" x="166" y="150.5625"/><text fill="#000000" font-family="sans-serif" font-size="12" lengthAdjust="spacing" textLength="7" x="176" y="172.1641">B</text><rect fill="#F1F1F1" height="34.1328" rx="12.5" ry="12.5" style="stroke:#181818;stroke-width:0.5;" width="28" x="165.5" y="219.6953"/><text fill="#000000" font-family="sans-serif" font-size="12" lengthAdjust="spacing" textLength="8" x="175.5" y="241.2969">C</text><rect fill="#F1F1F1" height="34.1328" rx="12.5" ry="12.5" style="stroke:#181818;stroke-width:0.5;" width="27" x="221.5" y="185.1289"/><text fill="#000000" font-family="sans-serif" font-size="12" lengthAdjust="spacing" textLength="7" x="231.5" y="206.7305">E</text><rect fill="#555555" height="6" rx="2.5" ry="2.5" style="stroke:#555555;stroke-width:1.0;" width="167" x="95.5" y="273.8281"/><rect fill="#FF0000" height="34.1328" rx="12.5" ry="12.5" style="stroke:#181818;stroke-width:0.5;" width="29" x="164.5" y="299.8281"/><text fill="#000000" font-family="sans-serif" font-size="12" lengthAdjust="spacing" textLength="9" x="174.5" y="321.4297">D</text><line style="stroke:#181818;stroke-width:1.0;" x1="123.5" x2="123.5" y1="184.6953" y2="219.6953"/><polygon fill="#181818" points="119.5,209.6953,123.5,219.6953,127.5,209.6953,123.5,213.6953" style="stroke:#181818;stroke-width:1.0;"/><line style="stroke:#181818;stroke-width:1.0;" x1="179.5" x2="179.5" y1="184.6953" y2="219.6953"/><polygon fill="#181818" points="175.5,209.6953,179.5,219.6953,183.5,209.6953,179.5,213.6953" style="stroke:#181818;stroke-width:1.0;"/><line style="stroke:#181818;stroke-width:1.0;" x1="123.5" x2="123.5" y1="130.5625" y2="150.5625"/><polygon fill="#181818" points="119.5,140.5625,123.5,150.5625,127.5,140.5625,123.5,144.5625" style="stroke:#181818;stroke-width:1.0;"/><line style="stroke:#181818;stroke-width:1.0;" x1="179.5" x2="179.5" y1="130.5625" y2="150.5625"/><polygon fill="#181818" points="175.5,140.5625,179.5,150.5625,183.5,140.5625,179.5,144.5625" style="stroke:#181818;stroke-width:1.0;"/><line style="stroke:#181818;stroke-width:1.0;" x1="235" x2="235" y1="130.5625" y2="185.1289"/><polygon fill="#181818" points="231,175.1289,235,185.1289,239,175.1289,235,179.1289" style="stroke:#181818;stroke-width:1.0;"/><line style="stroke:#181818;stroke-width:1.0;" x1="123.5" x2="123.5" y1="253.8281" y2="273.8281"/><polygon fill="#181818" points="119.5,263.8281,123.5,273.8281,127.5,263.8281,123.5,267.8281" style="stroke:#181818;stroke-width:1.0;"/><line style="stroke:#181818;stroke-width:1.0;" x1="179.5" x2="179.5" y1="253.8281" y2="273.8281"/><polygon fill="#181818" points="175.5,263.8281,179.5,273.8281,183.5,263.8281,179.5,267.8281" style="stroke:#181818;stroke-width:1.0;"/><line style="stroke:#181818;stroke-width:1.0;" x1="235" x2="235" y1="219.2617" y2="273.8281"/><polygon fill="#181818" points="231,263.8281,235,273.8281,239,263.8281,235,267.8281" style="stroke:#181818;stroke-width:1.0;"/><line style="stroke:#181818;stroke-width:1.0;" x1="179" x2="179" y1="104.5625" y2="124.5625"/><polygon fill="#181818" points="175,114.5625,179,124.5625,183,114.5625,179,118.5625" style="stroke:#181818;stroke-width:1.0;"/><line style="stroke:#181818;stroke-width:1.0;" x1="179" x2="179" y1="279.8281" y2="299.8281"/><polygon fill="#181818" points="175,289.8281,179,299.8281,183,289.8281,179,293.8281" style="stroke:#181818;stroke-width:1.0;"/><!--SRC=[fOz13e9034NtdAA1Mmmh5BVUeKeP6g4pgKLDZ7V7mGGpI-FR_VRzf8seniP1e9pcqJYE15US2EX6Oj0SMxYp3K0FKuIJefo74fu5lF4QvlXBRsqbAgz4uffwc_H1Brj8k5sTvtqk0tfa-Rjo-2eaNNv6fTIvzYEavVflyLe0]--></g></svg>