<?xml version="1.0" encoding="us-ascii" standalone="no"?><svg xmlns="http://www.w3.org/2000/svg" xmlns:xlink="http://www.w3.org/1999/xlink" contentStyleType="text/css" height="443px" preserveAspectRatio="none" style="width:230px;height:443px;background:#FFFFFF;" version="1.1" viewBox="0 0 230 443" width="230px" zoomAndPan="magnify"><defs/><g><rect fill="none" height="421.3018" style="stroke:#000000;stroke-width:1.5;" width="208" x="11" y="11"/><path d="M194,11 L194,20.2969 L184,30.2969 L11,30.2969 " fill="none" style="stroke:#000000;stroke-width:1.5;"/><text fill="#000000" font-family="sans-serif" font-size="14" lengthAdjust="spacing" textLength="173" x="14" y="24.9951">multiple same event AND</text><rect fill="none" height="379.2031" style="stroke:#000000;stroke-width:1.5;" width="188" x="21" y="41.0986"/><path d="M204,41.0986 L204,50.3955 L194,60.3955 L21,60.3955 " fill="none" style="stroke:#000000;stroke-width:1.5;"/><text fill="#000000" font-family="sans-serif" font-size="14" lengthAdjust="spacing" textLength="173" x="24" y="55.0938">multiple same event AND</text><rect fill="#008000" height="33.9688" rx="12.5" ry="12.5" style="stroke:#181818;stroke-width:0.5;" width="28" x="103.5" y="70.3955"/><text fill="#000000" font-family="sans-serif" font-size="12" lengthAdjust="spacing" textLength="8" x="113.5" y="91.5342">A</text><rect fill="#F1F1F1" height="33.9688" rx="12.5" ry="12.5" style="stroke:#181818;stroke-width:0.5;" width="28" x="103.5" y="124.3643"/><text fill="#000000" font-family="sans-serif" font-size="12" lengthAdjust="spacing" textLength="8" x="113.5" y="145.5029">B</text><rect fill="#555555" height="6" rx="2.5" ry="2.5" style="stroke:#555555;stroke-width:1.0;" width="157" x="39" y="178.333"/><rect fill="#F1F1F1" height="33.9688" rx="12.5" ry="12.5" style="stroke:#181818;stroke-width:0.5;" width="28" x="63" y="276.333"/><text fill="#000000" font-family="sans-serif" font-size="12" lengthAdjust="spacing" textLength="8" x="73" y="297.4717">C</text><polygon fill="#F1F1F1" points="77,204.333,89,216.333,77,228.333,65,216.333,77,204.333" style="stroke:#181818;stroke-width:0.5;"/><polygon fill="#F1F1F1" points="65,358.3018,89,358.3018,101,370.3018,89,382.3018,65,382.3018,53,370.3018,65,358.3018" style="stroke:#181818;stroke-width:0.5;"/><text fill="#000000" font-family="sans-serif" font-size="11" lengthAdjust="spacing" textLength="23" x="65.5" y="374.1099">true</text><rect fill="#F1F1F1" height="33.9688" rx="12.5" ry="12.5" style="stroke:#181818;stroke-width:0.5;" width="28" x="153.5" y="241.8486"/><text fill="#000000" font-family="sans-serif" font-size="12" lengthAdjust="spacing" textLength="8" x="163.5" y="262.9873">C</text><rect fill="#F1F1F1" height="33.9688" rx="12.5" ry="12.5" style="stroke:#181818;stroke-width:0.5;" width="29" x="153" y="310.8174"/><text fill="#000000" font-family="sans-serif" font-size="12" lengthAdjust="spacing" textLength="9" x="163" y="331.9561">D</text><rect fill="#555555" height="6" rx="2.5" ry="2.5" style="stroke:#555555;stroke-width:1.0;" width="157" x="39" y="402.3018"/><line style="stroke:#181818;stroke-width:1.0;" x1="117.5" x2="117.5" y1="104.3643" y2="124.3643"/><polygon fill="#181818" points="113.5,114.3643,117.5,124.3643,121.5,114.3643,117.5,118.3643" style="stroke:#181818;stroke-width:1.0;"/><line style="stroke:#181818;stroke-width:1.0;" x1="77" x2="77" y1="228.333" y2="276.333"/><polygon fill="#181818" points="73,266.333,77,276.333,81,266.333,77,270.333" style="stroke:#181818;stroke-width:1.0;"/><line style="stroke:#181818;stroke-width:1.0;" x1="101" x2="113" y1="370.3018" y2="370.3018"/><polygon fill="#181818" points="109,303.3174,113,293.3174,117,303.3174,113,299.3174" style="stroke:#181818;stroke-width:1.0;"/><line style="stroke:#181818;stroke-width:1.0;" x1="113" x2="113" y1="216.333" y2="370.3018"/><line style="stroke:#181818;stroke-width:1.0;" x1="113" x2="89" y1="216.333" y2="216.333"/><polygon fill="#181818" points="99,212.333,89,216.333,99,220.333,95,216.333" style="stroke:#181818;stroke-width:1.0;"/><line style="stroke:#181818;stroke-width:1.0;" x1="77" x2="77" y1="310.3018" y2="358.3018"/><polygon fill="#181818" points="73,348.3018,77,358.3018,81,348.3018,77,352.3018" style="stroke:#181818;stroke-width:1.0;"/><line style="stroke:#181818;stroke-width:1.0;" x1="167.5" x2="167.5" y1="275.8174" y2="310.8174"/><polygon fill="#181818" points="163.5,300.8174,167.5,310.8174,171.5,300.8174,167.5,304.8174" style="stroke:#181818;stroke-width:1.0;"/><line style="stroke:#181818;stroke-width:1.0;" x1="77" x2="77" y1="184.333" y2="204.333"/><polygon fill="#181818" points="73,194.333,77,204.333,81,194.333,77,198.333" style="stroke:#181818;stroke-width:1.0;"/><line style="stroke:#181818;stroke-width:1.0;" x1="167.5" x2="167.5" y1="184.333" y2="241.8486"/><polygon fill="#181818" points="163.5,231.8486,167.5,241.8486,171.5,231.8486,167.5,235.8486" style="stroke:#181818;stroke-width:1.0;"/><line style="stroke:#181818;stroke-width:1.0;" x1="77" x2="77" y1="382.3018" y2="402.3018"/><polygon fill="#181818" points="73,392.3018,77,402.3018,81,392.3018,77,396.3018" style="stroke:#181818;stroke-width:1.0;"/><line style="stroke:#181818;stroke-width:1.0;" x1="167.5" x2="167.5" y1="344.7861" y2="402.3018"/><polygon fill="#181818" points="163.5,392.3018,167.5,402.3018,171.5,392.3018,167.5,396.3018" style="stroke:#181818;stroke-width:1.0;"/><line style="stroke:#181818;stroke-width:1.0;" x1="117.5" x2="117.5" y1="158.333" y2="178.333"/><polygon fill="#181818" points="113.5,168.333,117.5,178.333,121.5,168.333,117.5,172.333" style="stroke:#181818;stroke-width:1.0;"/><!--SRC=[AqWiAiaioSpFKr3ABSqfoIp8ILKeJinDLKWjIyqhKN3qSr5IgEPI08BqelpI0jogm6f0G3czA3KrpyhH6YvYvOHWf-KNPSCv852KMf2QM88YPELiZKM9Gdb69j1QZPAYqbHD5FCK4jCJC_Fm6c7bWk2dvgKWd07YW7t6LGi0]--></g></svg>