<?xml version="1.0" encoding="us-ascii" standalone="no"?><svg xmlns="http://www.w3.org/2000/svg" xmlns:xlink="http://www.w3.org/1999/xlink" contentStyleType="text/css" height="353px" preserveAspectRatio="none" style="width:228px;height:353px;background:#FFFFFF;" version="1.1" viewBox="0 0 228 353" width="228px" zoomAndPan="magnify"><defs/><g><rect fill="none" height="331.9609" style="stroke:#000000;stroke-width:1.5;" width="206" x="11" y="11"/><path d="M192,11 L192,20.4883 L182,30.4883 L11,30.4883 " fill="none" style="stroke:#000000;stroke-width:1.5;"/><text fill="#000000" font-family="sans-serif" font-size="14" lengthAdjust="spacing" textLength="171" x="14" y="25.5352">multiple same event AND</text><rect fill="none" height="290.0195" style="stroke:#000000;stroke-width:1.5;" width="186" x="21" y="40.9414"/><path d="M202,40.9414 L202,50.4297 L192,60.4297 L21,60.4297 " fill="none" style="stroke:#000000;stroke-width:1.5;"/><text fill="#000000" font-family="sans-serif" font-size="14" lengthAdjust="spacing" textLength="171" x="24" y="55.4766">multiple same event AND</text><rect fill="#008000" height="34.1328" rx="12.5" ry="12.5" style="stroke:#181818;stroke-width:0.5;" width="28" x="102.5" y="70.4297"/><text fill="#000000" font-family="sans-serif" font-size="12" lengthAdjust="spacing" textLength="8" x="112.5" y="92.0313">A</text><rect fill="#555555" height="6" rx="2.5" ry="2.5" style="stroke:#555555;stroke-width:1.0;" width="112" x="60.5" y="124.5625"/><rect fill="#F1F1F1" height="34.1328" rx="12.5" ry="12.5" style="stroke:#181818;stroke-width:0.5;" width="27" x="75" y="150.5625"/><text fill="#000000" font-family="sans-serif" font-size="12" lengthAdjust="spacing" textLength="7" x="85" y="172.1641">B</text><rect fill="#F1F1F1" height="34.1328" rx="12.5" ry="12.5" style="stroke:#181818;stroke-width:0.5;" width="28" x="74.5" y="204.6953"/><text fill="#000000" font-family="sans-serif" font-size="12" lengthAdjust="spacing" textLength="8" x="84.5" y="226.2969">C</text><rect fill="#F1F1F1" height="34.1328" rx="12.5" ry="12.5" style="stroke:#181818;stroke-width:0.5;" width="27" x="131" y="150.5625"/><text fill="#000000" font-family="sans-serif" font-size="12" lengthAdjust="spacing" textLength="7" x="141" y="172.1641">B</text><rect fill="#F1F1F1" height="34.1328" rx="12.5" ry="12.5" style="stroke:#181818;stroke-width:0.5;" width="28" x="130.5" y="204.6953"/><text fill="#000000" font-family="sans-serif" font-size="12" lengthAdjust="spacing" textLength="8" x="140.5" y="226.2969">C</text><rect fill="#555555" height="6" rx="2.5" ry="2.5" style="stroke:#555555;stroke-width:1.0;" width="112" x="60.5" y="258.8281"/><rect fill="#FF0000" height="34.1328" rx="12.5" ry="12.5" style="stroke:#181818;stroke-width:0.5;" width="29" x="102" y="284.8281"/><text fill="#000000" font-family="sans-serif" font-size="12" lengthAdjust="spacing" textLength="9" x="112" y="306.4297">D</text><line style="stroke:#181818;stroke-width:1.0;" x1="88.5" x2="88.5" y1="184.6953" y2="204.6953"/><polygon fill="#181818" points="84.5,194.6953,88.5,204.6953,92.5,194.6953,88.5,198.6953" style="stroke:#181818;stroke-width:1.0;"/><line style="stroke:#181818;stroke-width:1.0;" x1="144.5" x2="144.5" y1="184.6953" y2="204.6953"/><polygon fill="#181818" points="140.5,194.6953,144.5,204.6953,148.5,194.6953,144.5,198.6953" style="stroke:#181818;stroke-width:1.0;"/><line style="stroke:#181818;stroke-width:1.0;" x1="88.5" x2="88.5" y1="130.5625" y2="150.5625"/><polygon fill="#181818" points="84.5,140.5625,88.5,150.5625,92.5,140.5625,88.5,144.5625" style="stroke:#181818;stroke-width:1.0;"/><line style="stroke:#181818;stroke-width:1.0;" x1="144.5" x2="144.5" y1="130.5625" y2="150.5625"/><polygon fill="#181818" points="140.5,140.5625,144.5,150.5625,148.5,140.5625,144.5,144.5625" style="stroke:#181818;stroke-width:1.0;"/><line style="stroke:#181818;stroke-width:1.0;" x1="88.5" x2="88.5" y1="238.8281" y2="258.8281"/><polygon fill="#181818" points="84.5,248.8281,88.5,258.8281,92.5,248.8281,88.5,252.8281" style="stroke:#181818;stroke-width:1.0;"/><line style="stroke:#181818;stroke-width:1.0;" x1="144.5" x2="144.5" y1="238.8281" y2="258.8281"/><polygon fill="#181818" points="140.5,248.8281,144.5,258.8281,148.5,248.8281,144.5,252.8281" style="stroke:#181818;stroke-width:1.0;"/><line style="stroke:#181818;stroke-width:1.0;" x1="116.5" x2="116.5" y1="104.5625" y2="124.5625"/><polygon fill="#181818" points="112.5,114.5625,116.5,124.5625,120.5,114.5625,116.5,118.5625" style="stroke:#181818;stroke-width:1.0;"/><line style="stroke:#181818;stroke-width:1.0;" x1="116.5" x2="116.5" y1="264.8281" y2="284.8281"/><polygon fill="#181818" points="112.5,274.8281,116.5,284.8281,120.5,274.8281,116.5,278.8281" style="stroke:#181818;stroke-width:1.0;"/><!--SRC=[AqWiAiaioSpFKr3ABSqfoIp8ILKeJinDLKWjIyqhKN3qSr5IgEPI08BqelpI0jogm6f0G3czA3KrpyhH6YwIbb-K3UU0W9MJDIhV6LMnGc9wOcOUqLfIyr9GxL0kIasnSe4e04c2dSvL2m00]--></g></svg>