<?xml version="1.0" encoding="us-ascii" standalone="no"?><svg xmlns="http://www.w3.org/2000/svg" xmlns:xlink="http://www.w3.org/1999/xlink" contentStyleType="text/css" height="300px" preserveAspectRatio="none" style="width:249px;height:300px;background:#FFFFFF;" version="1.1" viewBox="0 0 249 300" width="249px" zoomAndPan="magnify"><defs/><g><rect fill="none" height="278.4688" style="stroke:#000000;stroke-width:1.5;" width="227" x="11" y="11"/><path d="M194,11 L194,20.2969 L184,30.2969 L11,30.2969 " fill="none" style="stroke:#000000;stroke-width:1.5;"/><text fill="#000000" font-family="sans-serif" font-size="14" lengthAdjust="spacing" textLength="173" x="14" y="24.9951">multiple same event AND</text><rect fill="none" height="237.1719" style="stroke:#000000;stroke-width:1.5;" width="207" x="21" y="40.2969"/><path d="M204,40.2969 L204,49.5938 L194,59.5938 L21,59.5938 " fill="none" style="stroke:#000000;stroke-width:1.5;"/><text fill="#000000" font-family="sans-serif" font-size="14" lengthAdjust="spacing" textLength="173" x="24" y="54.292">multiple same event AND</text><rect fill="#008000" height="33.9688" rx="12.5" ry="12.5" style="stroke:#181818;stroke-width:0.5;" width="187" x="31" y="69.5938"/><text fill="#000000" font-family="sans-serif" font-size="12" lengthAdjust="spacing" textLength="167" x="41" y="90.7324">A,BCNT,user=A,name=BC1</text><rect fill="#F1F1F1" height="33.9688" rx="12.5" ry="12.5" style="stroke:#181818;stroke-width:0.5;" width="28" x="110.5" y="123.5625"/><text fill="#000000" font-family="sans-serif" font-size="12" lengthAdjust="spacing" textLength="8" x="120.5" y="144.7012">B</text><rect fill="#F1F1F1" height="33.9688" rx="12.5" ry="12.5" style="stroke:#181818;stroke-width:0.5;" width="28" x="110.5" y="177.5313"/><text fill="#000000" font-family="sans-serif" font-size="12" lengthAdjust="spacing" textLength="8" x="120.5" y="198.6699">C</text><rect fill="#FF0000" height="33.9688" rx="12.5" ry="12.5" style="stroke:#181818;stroke-width:0.5;" width="29" x="110" y="231.5"/><text fill="#000000" font-family="sans-serif" font-size="12" lengthAdjust="spacing" textLength="9" x="120" y="252.6387">D</text><line style="stroke:#181818;stroke-width:1.0;" x1="124.5" x2="124.5" y1="103.5625" y2="123.5625"/><polygon fill="#181818" points="120.5,113.5625,124.5,123.5625,128.5,113.5625,124.5,117.5625" style="stroke:#181818;stroke-width:1.0;"/><line style="stroke:#181818;stroke-width:1.0;" x1="124.5" x2="124.5" y1="157.5313" y2="177.5313"/><polygon fill="#181818" points="120.5,167.5313,124.5,177.5313,128.5,167.5313,124.5,171.5313" style="stroke:#181818;stroke-width:1.0;"/><line style="stroke:#181818;stroke-width:1.0;" x1="124.5" x2="124.5" y1="211.5" y2="231.5"/><polygon fill="#181818" points="120.5,221.5,124.5,231.5,128.5,221.5,124.5,225.5" style="stroke:#181818;stroke-width:1.0;"/><!--SRC=[AqWiAiaioSpFKr3ABSqfoIp8ILKeJinDLKWjIyqhKN3qSr5IgEPI08BqelpI0jogm6f0G3czA3KrpyfHnydPBqIdj3YroDPH9m-esDR9sT0QhipA2OdjZ60h5wMcMBb0-AbvAH1hkMe1]--></g></svg>