<?xml version="1.0" encoding="us-ascii" standalone="no"?><svg xmlns="http://www.w3.org/2000/svg" xmlns:xlink="http://www.w3.org/1999/xlink" contentStyleType="text/css" height="388px" preserveAspectRatio="none" style="width:249px;height:388px;background:#FFFFFF;" version="1.1" viewBox="0 0 249 388" width="249px" zoomAndPan="magnify"><defs/><g><rect fill="none" height="366.4688" style="stroke:#000000;stroke-width:1.5;" width="227" x="11" y="11"/><path d="M194,11 L194,20.2969 L184,30.2969 L11,30.2969 " fill="none" style="stroke:#000000;stroke-width:1.5;"/><text fill="#000000" font-family="sans-serif" font-size="14" lengthAdjust="spacing" textLength="173" x="14" y="24.9951">multiple same event AND</text><rect fill="none" height="325.1719" style="stroke:#000000;stroke-width:1.5;" width="207" x="21" y="40.2969"/><path d="M204,40.2969 L204,49.5938 L194,59.5938 L21,59.5938 " fill="none" style="stroke:#000000;stroke-width:1.5;"/><text fill="#000000" font-family="sans-serif" font-size="14" lengthAdjust="spacing" textLength="173" x="24" y="54.292">multiple same event AND</text><rect fill="#008000" height="33.9688" rx="12.5" ry="12.5" style="stroke:#181818;stroke-width:0.5;" width="28" x="110.5" y="69.5938"/><text fill="#000000" font-family="sans-serif" font-size="12" lengthAdjust="spacing" textLength="8" x="120.5" y="90.7324">A</text><rect fill="#F1F1F1" height="33.9688" rx="12.5" ry="12.5" style="stroke:#181818;stroke-width:0.5;" width="187" x="31" y="123.5625"/><text fill="#000000" font-family="sans-serif" font-size="12" lengthAdjust="spacing" textLength="167" x="41" y="144.7012">B,BCNT,user=B,name=BC1</text><rect fill="#F1F1F1" height="33.9688" rx="12.5" ry="12.5" style="stroke:#181818;stroke-width:0.5;" width="28" x="110.5" y="221.5313"/><text fill="#000000" font-family="sans-serif" font-size="12" lengthAdjust="spacing" textLength="8" x="120.5" y="242.6699">C</text><polygon fill="#F1F1F1" points="124.5,177.5313,136.5,189.5313,124.5,201.5313,112.5,189.5313,124.5,177.5313" style="stroke:#181818;stroke-width:0.5;"/><polygon fill="#F1F1F1" points="112.5,275.5,136.5,275.5,148.5,287.5,136.5,299.5,112.5,299.5,100.5,287.5,112.5,275.5" style="stroke:#181818;stroke-width:0.5;"/><text fill="#000000" font-family="sans-serif" font-size="11" lengthAdjust="spacing" textLength="23" x="113" y="291.3081">true</text><rect fill="#F1F1F1" height="33.9688" rx="12.5" ry="12.5" style="stroke:#181818;stroke-width:0.5;" width="29" x="110" y="319.5"/><text fill="#000000" font-family="sans-serif" font-size="12" lengthAdjust="spacing" textLength="9" x="120" y="340.6387">D</text><line style="stroke:#181818;stroke-width:1.0;" x1="124.5" x2="124.5" y1="103.5625" y2="123.5625"/><polygon fill="#181818" points="120.5,113.5625,124.5,123.5625,128.5,113.5625,124.5,117.5625" style="stroke:#181818;stroke-width:1.0;"/><line style="stroke:#181818;stroke-width:1.0;" x1="124.5" x2="124.5" y1="201.5313" y2="221.5313"/><polygon fill="#181818" points="120.5,211.5313,124.5,221.5313,128.5,211.5313,124.5,215.5313" style="stroke:#181818;stroke-width:1.0;"/><line style="stroke:#181818;stroke-width:1.0;" x1="148.5" x2="160.5" y1="287.5" y2="287.5"/><polygon fill="#181818" points="156.5,248.5156,160.5,238.5156,164.5,248.5156,160.5,244.5156" style="stroke:#181818;stroke-width:1.0;"/><line style="stroke:#181818;stroke-width:1.0;" x1="160.5" x2="160.5" y1="189.5313" y2="287.5"/><line style="stroke:#181818;stroke-width:1.0;" x1="160.5" x2="136.5" y1="189.5313" y2="189.5313"/><polygon fill="#181818" points="146.5,185.5313,136.5,189.5313,146.5,193.5313,142.5,189.5313" style="stroke:#181818;stroke-width:1.0;"/><line style="stroke:#181818;stroke-width:1.0;" x1="124.5" x2="124.5" y1="255.5" y2="275.5"/><polygon fill="#181818" points="120.5,265.5,124.5,275.5,128.5,265.5,124.5,269.5" style="stroke:#181818;stroke-width:1.0;"/><line style="stroke:#181818;stroke-width:1.0;" x1="124.5" x2="124.5" y1="157.5313" y2="177.5313"/><polygon fill="#181818" points="120.5,167.5313,124.5,177.5313,128.5,167.5313,124.5,171.5313" style="stroke:#181818;stroke-width:1.0;"/><line style="stroke:#181818;stroke-width:1.0;" x1="124.5" x2="124.5" y1="299.5" y2="319.5"/><polygon fill="#181818" points="120.5,309.5,124.5,319.5,128.5,309.5,124.5,313.5" style="stroke:#181818;stroke-width:1.0;"/><!--SRC=[AqWiAiaioSpFKr3ABSqfoIp8ILKeJinDLKWjIyqhKN3qSr5IgEPI08BqelpI0jogm6f0G3czA3KrpyhH6YvYvQJZvEmNebDQd5fawwIJ1zHew-HiY51Gb5gGcbY2KE-CBgLGdf49j5AZfAWqLHEXpWMYBZKl1U8whbe0]--></g></svg>