<?xml version="1.0" encoding="us-ascii" standalone="no"?><svg xmlns="http://www.w3.org/2000/svg" xmlns:xlink="http://www.w3.org/1999/xlink" contentStyleType="text/css" height="368px" preserveAspectRatio="none" style="width:352px;height:368px;background:#FFFFFF;" version="1.1" viewBox="0 0 352 368" width="352px" zoomAndPan="magnify"><defs/><g><rect fill="none" height="346.2705" style="stroke:#000000;stroke-width:1.5;" width="330" x="11" y="11"/><path d="M316,11 L316,20.2969 L306,30.2969 L11,30.2969 " fill="none" style="stroke:#000000;stroke-width:1.5;"/><text fill="#000000" font-family="sans-serif" font-size="14" lengthAdjust="spacing" textLength="295" x="14" y="24.9951">multiple same event AND with extra branch</text><rect fill="none" height="304.1719" style="stroke:#000000;stroke-width:1.5;" width="310" x="21" y="41.0986"/><path d="M326,41.0986 L326,50.3955 L316,60.3955 L21,60.3955 " fill="none" style="stroke:#000000;stroke-width:1.5;"/><text fill="#000000" font-family="sans-serif" font-size="14" lengthAdjust="spacing" textLength="295" x="24" y="55.0938">multiple same event AND with extra branch</text><rect fill="#008000" height="33.9688" rx="12.5" ry="12.5" style="stroke:#181818;stroke-width:0.5;" width="187" x="85" y="70.3955"/><text fill="#000000" font-family="sans-serif" font-size="12" lengthAdjust="spacing" textLength="167" x="95" y="91.5342">A,BCNT,user=A,name=BC1</text><rect fill="#555555" height="6" rx="2.5" ry="2.5" style="stroke:#555555;stroke-width:1.0;" width="112" x="122.5" y="124.3643"/><rect fill="#F1F1F1" height="33.9688" rx="12.5" ry="12.5" style="stroke:#181818;stroke-width:0.5;" width="28" x="136.5" y="150.3643"/><text fill="#000000" font-family="sans-serif" font-size="12" lengthAdjust="spacing" textLength="8" x="146.5" y="171.5029">B</text><rect fill="#F1F1F1" height="33.9688" rx="12.5" ry="12.5" style="stroke:#181818;stroke-width:0.5;" width="28" x="136.5" y="219.333"/><text fill="#000000" font-family="sans-serif" font-size="12" lengthAdjust="spacing" textLength="8" x="146.5" y="240.4717">C</text><rect fill="#F1F1F1" height="33.9688" rx="12.5" ry="12.5" style="stroke:#181818;stroke-width:0.5;" width="28" x="192.5" y="184.8486"/><text fill="#000000" font-family="sans-serif" font-size="12" lengthAdjust="spacing" textLength="8" x="202.5" y="205.9873">E</text><rect fill="#555555" height="6" rx="2.5" ry="2.5" style="stroke:#555555;stroke-width:1.0;" width="112" x="122.5" y="273.3018"/><rect fill="#FF0000" height="33.9688" rx="12.5" ry="12.5" style="stroke:#181818;stroke-width:0.5;" width="29" x="164" y="299.3018"/><text fill="#000000" font-family="sans-serif" font-size="12" lengthAdjust="spacing" textLength="9" x="174" y="320.4404">D</text><line style="stroke:#181818;stroke-width:1.0;" x1="150.5" x2="150.5" y1="184.333" y2="219.333"/><polygon fill="#181818" points="146.5,209.333,150.5,219.333,154.5,209.333,150.5,213.333" style="stroke:#181818;stroke-width:1.0;"/><line style="stroke:#181818;stroke-width:1.0;" x1="150.5" x2="150.5" y1="130.3643" y2="150.3643"/><polygon fill="#181818" points="146.5,140.3643,150.5,150.3643,154.5,140.3643,150.5,144.3643" style="stroke:#181818;stroke-width:1.0;"/><line style="stroke:#181818;stroke-width:1.0;" x1="206.5" x2="206.5" y1="130.3643" y2="184.8486"/><polygon fill="#181818" points="202.5,174.8486,206.5,184.8486,210.5,174.8486,206.5,178.8486" style="stroke:#181818;stroke-width:1.0;"/><line style="stroke:#181818;stroke-width:1.0;" x1="150.5" x2="150.5" y1="253.3018" y2="273.3018"/><polygon fill="#181818" points="146.5,263.3018,150.5,273.3018,154.5,263.3018,150.5,267.3018" style="stroke:#181818;stroke-width:1.0;"/><line style="stroke:#181818;stroke-width:1.0;" x1="206.5" x2="206.5" y1="218.8174" y2="273.3018"/><polygon fill="#181818" points="202.5,263.3018,206.5,273.3018,210.5,263.3018,206.5,267.3018" style="stroke:#181818;stroke-width:1.0;"/><line style="stroke:#181818;stroke-width:1.0;" x1="178.5" x2="178.5" y1="104.3643" y2="124.3643"/><polygon fill="#181818" points="174.5,114.3643,178.5,124.3643,182.5,114.3643,178.5,118.3643" style="stroke:#181818;stroke-width:1.0;"/><line style="stroke:#181818;stroke-width:1.0;" x1="178.5" x2="178.5" y1="279.3018" y2="299.3018"/><polygon fill="#181818" points="174.5,289.3018,178.5,299.3018,182.5,289.3018,178.5,293.3018" style="stroke:#181818;stroke-width:1.0;"/><!--SRC=[bOyn3e9044LxJZ61TXjR20Mxs59vWL56s0W36NRLn7XtMKmmM_gwdtd_9pEZEElin92EVd1s7WWM70deJkoWQcfuMDS3FPqWd0NvqgVmIc2baydF__IsLY3hX8ZpIcdJd9HVICfAyLeljJaKktQTvBQ7GAwBE9jO1kpGSgmSVmfn6szcGcrUVuLmt3vAtXy0]--></g></svg>