<?xml version="1.0" encoding="us-ascii" standalone="no"?><svg xmlns="http://www.w3.org/2000/svg" xmlns:xlink="http://www.w3.org/1999/xlink" contentStyleType="text/css" height="353px" preserveAspectRatio="none" style="width:200px;height:353px;background:#FFFFFF;" version="1.1" viewBox="0 0 200 353" width="200px" zoomAndPan="magnify"><defs/><g><rect fill="none" height="331.5078" style="stroke:#000000;stroke-width:1.5;" width="178.5" x="11" y="11"/><path d="M100,11 L100,20.4883 L90,30.4883 L11,30.4883 " fill="none" style="stroke:#000000;stroke-width:1.5;"/><text fill="#000000" font-family="sans-serif" font-size="14" lengthAdjust="spacing" textLength="79" x="14" y="25.5352">simple AND</text><rect fill="none" height="290.0195" style="stroke:#000000;stroke-width:1.5;" width="158.5" x="21" y="40.4883"/><path d="M110,40.4883 L110,49.9766 L100,59.9766 L21,59.9766 " fill="none" style="stroke:#000000;stroke-width:1.5;"/><text fill="#000000" font-family="sans-serif" font-size="14" lengthAdjust="spacing" textLength="79" x="24" y="55.0234">simple AND</text><rect fill="#008000" height="34.1328" rx="12.5" ry="12.5" style="stroke:#181818;stroke-width:0.5;" width="28" x="90" y="69.9766"/><text fill="#000000" font-family="sans-serif" font-size="12" lengthAdjust="spacing" textLength="8" x="100" y="91.5781">A</text><rect fill="#555555" height="6" rx="2.5" ry="2.5" style="stroke:#555555;stroke-width:1.0;" width="138.5" x="31" y="124.1094"/><rect fill="#F1F1F1" height="34.1328" rx="12.5" ry="12.5" style="stroke:#181818;stroke-width:0.5;" width="27" x="43.5" y="150.1094"/><text fill="#000000" font-family="sans-serif" font-size="12" lengthAdjust="spacing" textLength="7" x="53.5" y="171.7109">B</text><rect fill="#F1F1F1" height="34.1328" rx="12.5" ry="12.5" style="stroke:#181818;stroke-width:0.5;" width="28" x="43" y="204.2422"/><text fill="#000000" font-family="sans-serif" font-size="12" lengthAdjust="spacing" textLength="8" x="53" y="225.8438">C</text><rect fill="#F1F1F1" height="34.1328" rx="12.5" ry="12.5" style="stroke:#181818;stroke-width:0.5;" width="29" x="89" y="150.1094"/><text fill="#000000" font-family="sans-serif" font-size="12" lengthAdjust="spacing" textLength="9" x="99" y="171.7109">D</text><rect fill="#F1F1F1" height="34.1328" rx="12.5" ry="12.5" style="stroke:#181818;stroke-width:0.5;" width="27" x="90" y="204.2422"/><text fill="#000000" font-family="sans-serif" font-size="12" lengthAdjust="spacing" textLength="7" x="100" y="225.8438">E</text><rect fill="#F1F1F1" height="34.1328" rx="12.5" ry="12.5" style="stroke:#181818;stroke-width:0.5;" width="26" x="130" y="150.1094"/><text fill="#000000" font-family="sans-serif" font-size="12" lengthAdjust="spacing" textLength="6" x="140" y="171.7109">F</text><rect fill="#F1F1F1" height="34.1328" rx="12.5" ry="12.5" style="stroke:#181818;stroke-width:0.5;" width="29" x="128.5" y="204.2422"/><text fill="#000000" font-family="sans-serif" font-size="12" lengthAdjust="spacing" textLength="9" x="138.5" y="225.8438">G</text><rect fill="#555555" height="6" rx="2.5" ry="2.5" style="stroke:#555555;stroke-width:1.0;" width="138.5" x="31" y="258.375"/><rect fill="#FF0000" height="34.1328" rx="12.5" ry="12.5" style="stroke:#181818;stroke-width:0.5;" width="29" x="89.5" y="284.375"/><text fill="#000000" font-family="sans-serif" font-size="12" lengthAdjust="spacing" textLength="9" x="99.5" y="305.9766">H</text><line style="stroke:#181818;stroke-width:1.0;" x1="57" x2="57" y1="184.2422" y2="204.2422"/><polygon fill="#181818" points="53,194.2422,57,204.2422,61,194.2422,57,198.2422" style="stroke:#181818;stroke-width:1.0;"/><line style="stroke:#181818;stroke-width:1.0;" x1="103.5" x2="103.5" y1="184.2422" y2="204.2422"/><polygon fill="#181818" points="99.5,194.2422,103.5,204.2422,107.5,194.2422,103.5,198.2422" style="stroke:#181818;stroke-width:1.0;"/><line style="stroke:#181818;stroke-width:1.0;" x1="143" x2="143" y1="184.2422" y2="204.2422"/><polygon fill="#181818" points="139,194.2422,143,204.2422,147,194.2422,143,198.2422" style="stroke:#181818;stroke-width:1.0;"/><line style="stroke:#181818;stroke-width:1.0;" x1="57" x2="57" y1="130.1094" y2="150.1094"/><polygon fill="#181818" points="53,140.1094,57,150.1094,61,140.1094,57,144.1094" style="stroke:#181818;stroke-width:1.0;"/><line style="stroke:#181818;stroke-width:1.0;" x1="103.5" x2="103.5" y1="130.1094" y2="150.1094"/><polygon fill="#181818" points="99.5,140.1094,103.5,150.1094,107.5,140.1094,103.5,144.1094" style="stroke:#181818;stroke-width:1.0;"/><line style="stroke:#181818;stroke-width:1.0;" x1="143" x2="143" y1="130.1094" y2="150.1094"/><polygon fill="#181818" points="139,140.1094,143,150.1094,147,140.1094,143,144.1094" style="stroke:#181818;stroke-width:1.0;"/><line style="stroke:#181818;stroke-width:1.0;" x1="57" x2="57" y1="238.375" y2="258.375"/><polygon fill="#181818" points="53,248.375,57,258.375,61,248.375,57,252.375" style="stroke:#181818;stroke-width:1.0;"/><line style="stroke:#181818;stroke-width:1.0;" x1="103.5" x2="103.5" y1="238.375" y2="258.375"/><polygon fill="#181818" points="99.5,248.375,103.5,258.375,107.5,248.375,103.5,252.375" style="stroke:#181818;stroke-width:1.0;"/><line style="stroke:#181818;stroke-width:1.0;" x1="143" x2="143" y1="238.375" y2="258.375"/><polygon fill="#181818" points="139,248.375,143,258.375,147,248.375,143,252.375" style="stroke:#181818;stroke-width:1.0;"/><line style="stroke:#181818;stroke-width:1.0;" x1="104" x2="104" y1="104.1094" y2="124.1094"/><polygon fill="#181818" points="100,114.1094,104,124.1094,108,114.1094,104,118.1094" style="stroke:#181818;stroke-width:1.0;"/><line style="stroke:#181818;stroke-width:1.0;" x1="104" x2="104" y1="264.375" y2="284.375"/><polygon fill="#181818" points="100,274.375,104,284.375,108,274.375,104,278.375" style="stroke:#181818;stroke-width:1.0;"/><!--SRC=[AqWiAiaioSpFKr0gpimjo4bLSFHpKLAevb80WlIY_D8250cmC0WefnUbfkPPELh3HTBoYxBX712mSh96vJkZAbP8J4_Cp4DLueAcnPMm5ZSqBUu8VcfU2ggpb8jIKwmy80f0ac0FSjK20000]--></g></svg>