<?xml version="1.0" encoding="us-ascii" standalone="no"?><svg xmlns="http://www.w3.org/2000/svg" xmlns:xlink="http://www.w3.org/1999/xlink" contentStyleType="text/css" height="507px" preserveAspectRatio="none" style="width:181px;height:507px;background:#FFFFFF;" version="1.1" viewBox="0 0 181 507" width="181px" zoomAndPan="magnify"><defs/><g><rect fill="none" height="485.6406" style="stroke:#000000;stroke-width:1.5;" width="159" x="11" y="11"/><path d="M135,11 L135,20.4883 L125,30.4883 L11,30.4883 " fill="none" style="stroke:#000000;stroke-width:1.5;"/><text fill="#000000" font-family="sans-serif" font-size="14" lengthAdjust="spacing" textLength="114" x="14" y="25.5352">loop nested XOR</text><rect fill="none" height="444.1523" style="stroke:#000000;stroke-width:1.5;" width="139" x="21" y="40.4883"/><path d="M145,40.4883 L145,49.9766 L135,59.9766 L21,59.9766 " fill="none" style="stroke:#000000;stroke-width:1.5;"/><text fill="#000000" font-family="sans-serif" font-size="14" lengthAdjust="spacing" textLength="114" x="24" y="55.0234">loop nested XOR</text><rect fill="#008000" height="34.1328" rx="12.5" ry="12.5" style="stroke:#181818;stroke-width:0.5;" width="28" x="67" y="69.9766"/><text fill="#000000" font-family="sans-serif" font-size="12" lengthAdjust="spacing" textLength="8" x="77" y="91.5781">A</text><rect fill="#F1F1F1" height="34.1328" rx="12.5" ry="12.5" style="stroke:#181818;stroke-width:0.5;" width="27" x="67.5" y="168.1094"/><text fill="#000000" font-family="sans-serif" font-size="12" lengthAdjust="spacing" textLength="7" x="77.5" y="189.7109">B</text><polygon fill="#F1F1F1" points="69,222.2422,93,222.2422,105,234.2422,93,246.2422,69,246.2422,57,234.2422,69,222.2422" style="stroke:#181818;stroke-width:0.5;"/><text fill="#000000" font-family="sans-serif" font-size="11" lengthAdjust="spacing" textLength="23" x="69.5" y="238.3994">XOR</text><text fill="#000000" font-family="sans-serif" font-size="11" lengthAdjust="spacing" textLength="22" x="35" y="231.9219">true</text><text fill="#000000" font-family="sans-serif" font-size="11" lengthAdjust="spacing" textLength="25" x="105" y="231.9219">false</text><rect fill="#F1F1F1" height="34.1328" rx="12.5" ry="12.5" style="stroke:#181818;stroke-width:0.5;" width="28" x="33" y="256.2422"/><text fill="#000000" font-family="sans-serif" font-size="12" lengthAdjust="spacing" textLength="8" x="43" y="277.8438">C</text><rect fill="#F1F1F1" height="34.1328" rx="12.5" ry="12.5" style="stroke:#181818;stroke-width:0.5;" width="29" x="100.5" y="256.2422"/><text fill="#000000" font-family="sans-serif" font-size="12" lengthAdjust="spacing" textLength="9" x="110.5" y="277.8438">D</text><polygon fill="#F1F1F1" points="81,296.375,93,308.375,81,320.375,69,308.375,81,296.375" style="stroke:#181818;stroke-width:0.5;"/><rect fill="#F1F1F1" height="34.1328" rx="12.5" ry="12.5" style="stroke:#181818;stroke-width:0.5;" width="27" x="67.5" y="340.375"/><text fill="#000000" font-family="sans-serif" font-size="12" lengthAdjust="spacing" textLength="7" x="77.5" y="361.9766">E</text><polygon fill="#F1F1F1" points="81,124.1094,93,136.1094,81,148.1094,69,136.1094,81,124.1094" style="stroke:#181818;stroke-width:0.5;"/><polygon fill="#F1F1F1" points="81,394.5078,81,394.5078,93,406.5078,81,418.5078,81,418.5078,69,406.5078,81,394.5078" style="stroke:#181818;stroke-width:0.5;"/><rect fill="#FF0000" height="34.1328" rx="12.5" ry="12.5" style="stroke:#181818;stroke-width:0.5;" width="26" x="68" y="438.5078"/><text fill="#000000" font-family="sans-serif" font-size="12" lengthAdjust="spacing" textLength="6" x="78" y="460.1094">F</text><line style="stroke:#181818;stroke-width:1.0;" x1="57" x2="47" y1="234.2422" y2="234.2422"/><line style="stroke:#181818;stroke-width:1.0;" x1="47" x2="47" y1="234.2422" y2="256.2422"/><polygon fill="#181818" points="43,246.2422,47,256.2422,51,246.2422,47,250.2422" style="stroke:#181818;stroke-width:1.0;"/><line style="stroke:#181818;stroke-width:1.0;" x1="105" x2="115" y1="234.2422" y2="234.2422"/><line style="stroke:#181818;stroke-width:1.0;" x1="115" x2="115" y1="234.2422" y2="256.2422"/><polygon fill="#181818" points="111,246.2422,115,256.2422,119,246.2422,115,250.2422" style="stroke:#181818;stroke-width:1.0;"/><line style="stroke:#181818;stroke-width:1.0;" x1="47" x2="47" y1="290.375" y2="308.375"/><line style="stroke:#181818;stroke-width:1.0;" x1="47" x2="69" y1="308.375" y2="308.375"/><polygon fill="#181818" points="59,304.375,69,308.375,59,312.375,63,308.375" style="stroke:#181818;stroke-width:1.0;"/><line style="stroke:#181818;stroke-width:1.0;" x1="115" x2="115" y1="290.375" y2="308.375"/><line style="stroke:#181818;stroke-width:1.0;" x1="115" x2="93" y1="308.375" y2="308.375"/><polygon fill="#181818" points="103,304.375,93,308.375,103,312.375,99,308.375" style="stroke:#181818;stroke-width:1.0;"/><line style="stroke:#181818;stroke-width:1.0;" x1="81" x2="81" y1="202.2422" y2="222.2422"/><polygon fill="#181818" points="77,212.2422,81,222.2422,85,212.2422,81,216.2422" style="stroke:#181818;stroke-width:1.0;"/><line style="stroke:#181818;stroke-width:1.0;" x1="81" x2="81" y1="320.375" y2="340.375"/><polygon fill="#181818" points="77,330.375,81,340.375,85,330.375,81,334.375" style="stroke:#181818;stroke-width:1.0;"/><line style="stroke:#181818;stroke-width:1.0;" x1="81" x2="81" y1="148.1094" y2="168.1094"/><polygon fill="#181818" points="77,158.1094,81,168.1094,85,158.1094,81,162.1094" style="stroke:#181818;stroke-width:1.0;"/><line style="stroke:#181818;stroke-width:1.0;" x1="93" x2="144" y1="406.5078" y2="406.5078"/><polygon fill="#181818" points="140,281.3086,144,271.3086,148,281.3086,144,277.3086" style="stroke:#181818;stroke-width:1.0;"/><line style="stroke:#181818;stroke-width:1.0;" x1="144" x2="144" y1="136.1094" y2="406.5078"/><line style="stroke:#181818;stroke-width:1.0;" x1="144" x2="93" y1="136.1094" y2="136.1094"/><polygon fill="#181818" points="103,132.1094,93,136.1094,103,140.1094,99,136.1094" style="stroke:#181818;stroke-width:1.0;"/><line style="stroke:#181818;stroke-width:1.0;" x1="81" x2="81" y1="374.5078" y2="394.5078"/><polygon fill="#181818" points="77,384.5078,81,394.5078,85,384.5078,81,388.5078" style="stroke:#181818;stroke-width:1.0;"/><line style="stroke:#181818;stroke-width:1.0;" x1="81" x2="81" y1="104.1094" y2="124.1094"/><polygon fill="#181818" points="77,114.1094,81,124.1094,85,114.1094,81,118.1094" style="stroke:#181818;stroke-width:1.0;"/><line style="stroke:#181818;stroke-width:1.0;" x1="81" x2="81" y1="418.5078" y2="438.5078"/><polygon fill="#181818" points="77,428.5078,81,438.5078,85,428.5078,81,432.5078" style="stroke:#181818;stroke-width:1.0;"/><!--SRC=[RK-x2iCm4Dlp5KUwEB_WJ7skXKvT3POJWx7DnI53wR_NII35QRKSEad7AIfEDjdWgNOXHF8O4ZGzxu-QNXLbT1p6-Aiksen3nu2NntRRC29KskWCUMeBRWs9VAMXrCEJI3oYAGnBw5o6u0QGC2gFF-RBpkorDUKFr_sBDFNMuTk4eULjDUNushnwVm00]--></g></svg>