<?xml version="1.0" encoding="us-ascii" standalone="no"?><svg xmlns="http://www.w3.org/2000/svg" xmlns:xlink="http://www.w3.org/1999/xlink" contentStyleType="text/css" height="387px" preserveAspectRatio="none" style="width:239px;height:387px;background:#FFFFFF;" version="1.1" viewBox="0 0 239 387" width="239px" zoomAndPan="magnify"><defs/><g><rect fill="none" height="365.8281" style="stroke:#000000;stroke-width:1.5;" width="217" x="11" y="11"/><path d="M203,11 L203,20.4883 L193,30.4883 L11,30.4883 " fill="none" style="stroke:#000000;stroke-width:1.5;"/><text fill="#000000" font-family="sans-serif" font-size="14" lengthAdjust="spacing" textLength="182" x="14" y="25.5352">loop nested logic bunched</text><rect fill="none" height="323.8867" style="stroke:#000000;stroke-width:1.5;" width="197" x="21" y="40.9414"/><path d="M213,40.9414 L213,50.4297 L203,60.4297 L21,60.4297 " fill="none" style="stroke:#000000;stroke-width:1.5;"/><text fill="#000000" font-family="sans-serif" font-size="14" lengthAdjust="spacing" textLength="182" x="24" y="55.4766">loop nested logic bunched</text><rect fill="#008000" height="34.1328" rx="12.5" ry="12.5" style="stroke:#181818;stroke-width:0.5;" width="28" x="96" y="70.4297"/><text fill="#000000" font-family="sans-serif" font-size="12" lengthAdjust="spacing" textLength="8" x="106" y="92.0313">A</text><rect fill="#555555" height="6" rx="2.5" ry="2.5" style="stroke:#555555;stroke-width:1.0;" width="113" x="53.5" y="168.5625"/><rect fill="#F1F1F1" height="34.1328" rx="12.5" ry="12.5" style="stroke:#181818;stroke-width:0.5;" width="28" x="67.5" y="194.5625"/><text fill="#000000" font-family="sans-serif" font-size="12" lengthAdjust="spacing" textLength="8" x="77.5" y="216.1641">C</text><rect fill="#F1F1F1" height="34.1328" rx="12.5" ry="12.5" style="stroke:#181818;stroke-width:0.5;" width="29" x="123.5" y="194.5625"/><text fill="#000000" font-family="sans-serif" font-size="12" lengthAdjust="spacing" textLength="9" x="133.5" y="216.1641">D</text><rect fill="#555555" height="6" rx="2.5" ry="2.5" style="stroke:#555555;stroke-width:1.0;" width="113" x="53.5" y="248.6953"/><polygon fill="#F1F1F1" points="110,124.5625,122,136.5625,110,148.5625,98,136.5625,110,124.5625" style="stroke:#181818;stroke-width:0.5;"/><polygon fill="#F1F1F1" points="110,274.6953,110,274.6953,122,286.6953,110,298.6953,110,298.6953,98,286.6953,110,274.6953" style="stroke:#181818;stroke-width:0.5;"/><rect fill="#FF0000" height="34.1328" rx="12.5" ry="12.5" style="stroke:#181818;stroke-width:0.5;" width="26" x="97" y="318.6953"/><text fill="#000000" font-family="sans-serif" font-size="12" lengthAdjust="spacing" textLength="6" x="107" y="340.2969">F</text><line style="stroke:#181818;stroke-width:1.0;" x1="81.5" x2="81.5" y1="174.5625" y2="194.5625"/><polygon fill="#181818" points="77.5,184.5625,81.5,194.5625,85.5,184.5625,81.5,188.5625" style="stroke:#181818;stroke-width:1.0;"/><line style="stroke:#181818;stroke-width:1.0;" x1="138" x2="138" y1="174.5625" y2="194.5625"/><polygon fill="#181818" points="134,184.5625,138,194.5625,142,184.5625,138,188.5625" style="stroke:#181818;stroke-width:1.0;"/><line style="stroke:#181818;stroke-width:1.0;" x1="81.5" x2="81.5" y1="228.6953" y2="248.6953"/><polygon fill="#181818" points="77.5,238.6953,81.5,248.6953,85.5,238.6953,81.5,242.6953" style="stroke:#181818;stroke-width:1.0;"/><line style="stroke:#181818;stroke-width:1.0;" x1="138" x2="138" y1="228.6953" y2="248.6953"/><polygon fill="#181818" points="134,238.6953,138,248.6953,142,238.6953,138,242.6953" style="stroke:#181818;stroke-width:1.0;"/><line style="stroke:#181818;stroke-width:1.0;" x1="110" x2="110" y1="148.5625" y2="168.5625"/><polygon fill="#181818" points="106,158.5625,110,168.5625,114,158.5625,110,162.5625" style="stroke:#181818;stroke-width:1.0;"/><line style="stroke:#181818;stroke-width:1.0;" x1="122" x2="178.5" y1="286.6953" y2="286.6953"/><polygon fill="#181818" points="174.5,221.6289,178.5,211.6289,182.5,221.6289,178.5,217.6289" style="stroke:#181818;stroke-width:1.0;"/><line style="stroke:#181818;stroke-width:1.0;" x1="178.5" x2="178.5" y1="136.5625" y2="286.6953"/><line style="stroke:#181818;stroke-width:1.0;" x1="178.5" x2="122" y1="136.5625" y2="136.5625"/><polygon fill="#181818" points="132,132.5625,122,136.5625,132,140.5625,128,136.5625" style="stroke:#181818;stroke-width:1.0;"/><line style="stroke:#181818;stroke-width:1.0;" x1="110" x2="110" y1="254.6953" y2="274.6953"/><polygon fill="#181818" points="106,264.6953,110,274.6953,114,264.6953,110,268.6953" style="stroke:#181818;stroke-width:1.0;"/><line style="stroke:#181818;stroke-width:1.0;" x1="110" x2="110" y1="104.5625" y2="124.5625"/><polygon fill="#181818" points="106,114.5625,110,124.5625,114,114.5625,110,118.5625" style="stroke:#181818;stroke-width:1.0;"/><line style="stroke:#181818;stroke-width:1.0;" x1="110" x2="110" y1="298.6953" y2="318.6953"/><polygon fill="#181818" points="106,308.6953,110,318.6953,114,308.6953,110,312.6953" style="stroke:#181818;stroke-width:1.0;"/><!--SRC=[VOzD2i8m44RtFSLGRv6kHF4UiVbC1yDC65DSY7VNj5091TzkXlVDJ_PMkB0AzKara-1H42Xfv96kiumJGa-lZhv4qpd_ynQhSeW6Y3iEMyUGuSjMLcvgzwPHSQTX9v6FdcMldbiL4jgPwqvwJfpmEyqGt6LDriJoLFV-0000]--></g></svg>