<?xml version="1.0" encoding="us-ascii" standalone="no"?><svg xmlns="http://www.w3.org/2000/svg" xmlns:xlink="http://www.w3.org/1999/xlink" contentStyleType="text/css" height="483px" preserveAspectRatio="none" style="width:169px;height:483px;background:#FFFFFF;" version="1.1" viewBox="0 0 169 483" width="169px" zoomAndPan="magnify"><defs/><g><rect fill="none" height="461.6406" style="stroke:#000000;stroke-width:1.5;" width="147" x="11" y="11"/><path d="M126,11 L126,20.4883 L116,30.4883 L11,30.4883 " fill="none" style="stroke:#000000;stroke-width:1.5;"/><text fill="#000000" font-family="sans-serif" font-size="14" lengthAdjust="spacing" textLength="105" x="14" y="25.5352">loop nested OR</text><rect fill="none" height="420.1523" style="stroke:#000000;stroke-width:1.5;" width="127" x="21" y="40.4883"/><path d="M136,40.4883 L136,49.9766 L126,59.9766 L21,59.9766 " fill="none" style="stroke:#000000;stroke-width:1.5;"/><text fill="#000000" font-family="sans-serif" font-size="14" lengthAdjust="spacing" textLength="105" x="24" y="55.0234">loop nested OR</text><rect fill="#008000" height="34.1328" rx="12.5" ry="12.5" style="stroke:#181818;stroke-width:0.5;" width="28" x="61.5" y="69.9766"/><text fill="#000000" font-family="sans-serif" font-size="12" lengthAdjust="spacing" textLength="8" x="71.5" y="91.5781">A</text><rect fill="#F1F1F1" height="34.1328" rx="12.5" ry="12.5" style="stroke:#181818;stroke-width:0.5;" width="27" x="62" y="168.1094"/><text fill="#000000" font-family="sans-serif" font-size="12" lengthAdjust="spacing" textLength="7" x="72" y="189.7109">B</text><line style="stroke:#181818;stroke-width:1.5;" x1="47" x2="103.5" y1="222.2422" y2="222.2422"/><rect fill="#F1F1F1" height="34.1328" rx="12.5" ry="12.5" style="stroke:#181818;stroke-width:0.5;" width="28" x="33" y="242.2422"/><text fill="#000000" font-family="sans-serif" font-size="12" lengthAdjust="spacing" textLength="8" x="43" y="263.8438">C</text><rect fill="#F1F1F1" height="34.1328" rx="12.5" ry="12.5" style="stroke:#181818;stroke-width:0.5;" width="29" x="89" y="242.2422"/><text fill="#000000" font-family="sans-serif" font-size="12" lengthAdjust="spacing" textLength="9" x="99" y="263.8438">D</text><line style="stroke:#181818;stroke-width:1.5;" x1="47" x2="103.5" y1="296.375" y2="296.375"/><rect fill="#F1F1F1" height="34.1328" rx="12.5" ry="12.5" style="stroke:#181818;stroke-width:0.5;" width="27" x="62" y="316.375"/><text fill="#000000" font-family="sans-serif" font-size="12" lengthAdjust="spacing" textLength="7" x="72" y="337.9766">E</text><polygon fill="#F1F1F1" points="75.5,124.1094,87.5,136.1094,75.5,148.1094,63.5,136.1094,75.5,124.1094" style="stroke:#181818;stroke-width:0.5;"/><polygon fill="#F1F1F1" points="75.5,370.5078,75.5,370.5078,87.5,382.5078,75.5,394.5078,75.5,394.5078,63.5,382.5078,75.5,370.5078" style="stroke:#181818;stroke-width:0.5;"/><rect fill="#FF0000" height="34.1328" rx="12.5" ry="12.5" style="stroke:#181818;stroke-width:0.5;" width="26" x="62.5" y="414.5078"/><text fill="#000000" font-family="sans-serif" font-size="12" lengthAdjust="spacing" textLength="6" x="72.5" y="436.1094">F</text><line style="stroke:#181818;stroke-width:1.0;" x1="47" x2="47" y1="223.7422" y2="242.2422"/><polygon fill="#181818" points="43,232.2422,47,242.2422,51,232.2422,47,236.2422" style="stroke:#181818;stroke-width:1.0;"/><line style="stroke:#181818;stroke-width:1.0;" x1="103.5" x2="103.5" y1="223.7422" y2="242.2422"/><polygon fill="#181818" points="99.5,232.2422,103.5,242.2422,107.5,232.2422,103.5,236.2422" style="stroke:#181818;stroke-width:1.0;"/><line style="stroke:#181818;stroke-width:1.0;" x1="47" x2="47" y1="276.375" y2="296.375"/><polygon fill="#181818" points="43,286.375,47,296.375,51,286.375,47,290.375" style="stroke:#181818;stroke-width:1.0;"/><line style="stroke:#181818;stroke-width:1.0;" x1="103.5" x2="103.5" y1="276.375" y2="296.375"/><polygon fill="#181818" points="99.5,286.375,103.5,296.375,107.5,286.375,103.5,290.375" style="stroke:#181818;stroke-width:1.0;"/><line style="stroke:#181818;stroke-width:1.0;" x1="75.5" x2="75.5" y1="202.2422" y2="222.2422"/><polygon fill="#181818" points="71.5,212.2422,75.5,222.2422,79.5,212.2422,75.5,216.2422" style="stroke:#181818;stroke-width:1.0;"/><line style="stroke:#181818;stroke-width:1.0;" x1="75.5" x2="75.5" y1="297.875" y2="316.375"/><polygon fill="#181818" points="71.5,306.375,75.5,316.375,79.5,306.375,75.5,310.375" style="stroke:#181818;stroke-width:1.0;"/><line style="stroke:#181818;stroke-width:1.0;" x1="75.5" x2="75.5" y1="148.1094" y2="168.1094"/><polygon fill="#181818" points="71.5,158.1094,75.5,168.1094,79.5,158.1094,75.5,162.1094" style="stroke:#181818;stroke-width:1.0;"/><line style="stroke:#181818;stroke-width:1.0;" x1="87.5" x2="132" y1="382.5078" y2="382.5078"/><polygon fill="#181818" points="128,269.3086,132,259.3086,136,269.3086,132,265.3086" style="stroke:#181818;stroke-width:1.0;"/><line style="stroke:#181818;stroke-width:1.0;" x1="132" x2="132" y1="136.1094" y2="382.5078"/><line style="stroke:#181818;stroke-width:1.0;" x1="132" x2="87.5" y1="136.1094" y2="136.1094"/><polygon fill="#181818" points="97.5,132.1094,87.5,136.1094,97.5,140.1094,93.5,136.1094" style="stroke:#181818;stroke-width:1.0;"/><line style="stroke:#181818;stroke-width:1.0;" x1="75.5" x2="75.5" y1="350.5078" y2="370.5078"/><polygon fill="#181818" points="71.5,360.5078,75.5,370.5078,79.5,360.5078,75.5,364.5078" style="stroke:#181818;stroke-width:1.0;"/><line style="stroke:#181818;stroke-width:1.0;" x1="75.5" x2="75.5" y1="104.1094" y2="124.1094"/><polygon fill="#181818" points="71.5,114.1094,75.5,124.1094,79.5,114.1094,75.5,118.1094" style="stroke:#181818;stroke-width:1.0;"/><line style="stroke:#181818;stroke-width:1.0;" x1="75.5" x2="75.5" y1="394.5078" y2="414.5078"/><polygon fill="#181818" points="71.5,404.5078,75.5,414.5078,79.5,404.5078,75.5,408.5078" style="stroke:#181818;stroke-width:1.0;"/><!--SRC=[AqWiAiaioSpFKr3AoSylKCXBBIv9JL7m3r9IgEPI08BqelpI0Wn9i1G8AASNfQRcMJbQmqMAKWjI4qlWN12mSh96uHSNv6IYgW2hSiQYIY4nFJ4p3rEj2whQrBmKBAPQkQ8xIw4y8pCd5U7wejGKApU88f0HOCzorG80]--></g></svg>