<?xml version="1.0" encoding="us-ascii" standalone="no"?><svg xmlns="http://www.w3.org/2000/svg" xmlns:xlink="http://www.w3.org/1999/xlink" contentStyleType="text/css" height="495px" preserveAspectRatio="none" style="width:191px;height:495px;background:#FFFFFF;" version="1.1" viewBox="0 0 191 495" width="191px" zoomAndPan="magnify"><defs/><g><rect fill="none" height="473.6406" style="stroke:#000000;stroke-width:1.5;" width="169" x="11" y="11"/><path d="M136,11 L136,20.4883 L126,30.4883 L11,30.4883 " fill="none" style="stroke:#000000;stroke-width:1.5;"/><text fill="#000000" font-family="sans-serif" font-size="14" lengthAdjust="spacing" textLength="115" x="14" y="25.5352">loop nested AND</text><rect fill="none" height="432.1523" style="stroke:#000000;stroke-width:1.5;" width="149" x="21" y="40.4883"/><path d="M146,40.4883 L146,49.9766 L136,59.9766 L21,59.9766 " fill="none" style="stroke:#000000;stroke-width:1.5;"/><text fill="#000000" font-family="sans-serif" font-size="14" lengthAdjust="spacing" textLength="115" x="24" y="55.0234">loop nested AND</text><rect fill="#008000" height="34.1328" rx="12.5" ry="12.5" style="stroke:#181818;stroke-width:0.5;" width="28" x="71.5" y="69.9766"/><text fill="#000000" font-family="sans-serif" font-size="12" lengthAdjust="spacing" textLength="8" x="81.5" y="91.5781">A</text><rect fill="#F1F1F1" height="34.1328" rx="12.5" ry="12.5" style="stroke:#181818;stroke-width:0.5;" width="27" x="72" y="168.1094"/><text fill="#000000" font-family="sans-serif" font-size="12" lengthAdjust="spacing" textLength="7" x="82" y="189.7109">B</text><rect fill="#555555" height="6" rx="2.5" ry="2.5" style="stroke:#555555;stroke-width:1.0;" width="111" x="31" y="222.2422"/><rect fill="#F1F1F1" height="34.1328" rx="12.5" ry="12.5" style="stroke:#181818;stroke-width:0.5;" width="28" x="43" y="248.2422"/><text fill="#000000" font-family="sans-serif" font-size="12" lengthAdjust="spacing" textLength="8" x="53" y="269.8438">C</text><rect fill="#F1F1F1" height="34.1328" rx="12.5" ry="12.5" style="stroke:#181818;stroke-width:0.5;" width="29" x="99" y="248.2422"/><text fill="#000000" font-family="sans-serif" font-size="12" lengthAdjust="spacing" textLength="9" x="109" y="269.8438">D</text><rect fill="#555555" height="6" rx="2.5" ry="2.5" style="stroke:#555555;stroke-width:1.0;" width="111" x="31" y="302.375"/><rect fill="#F1F1F1" height="34.1328" rx="12.5" ry="12.5" style="stroke:#181818;stroke-width:0.5;" width="27" x="72" y="328.375"/><text fill="#000000" font-family="sans-serif" font-size="12" lengthAdjust="spacing" textLength="7" x="82" y="349.9766">E</text><polygon fill="#F1F1F1" points="85.5,124.1094,97.5,136.1094,85.5,148.1094,73.5,136.1094,85.5,124.1094" style="stroke:#181818;stroke-width:0.5;"/><polygon fill="#F1F1F1" points="85.5,382.5078,85.5,382.5078,97.5,394.5078,85.5,406.5078,85.5,406.5078,73.5,394.5078,85.5,382.5078" style="stroke:#181818;stroke-width:0.5;"/><rect fill="#FF0000" height="34.1328" rx="12.5" ry="12.5" style="stroke:#181818;stroke-width:0.5;" width="26" x="72.5" y="426.5078"/><text fill="#000000" font-family="sans-serif" font-size="12" lengthAdjust="spacing" textLength="6" x="82.5" y="448.1094">F</text><line style="stroke:#181818;stroke-width:1.0;" x1="57" x2="57" y1="228.2422" y2="248.2422"/><polygon fill="#181818" points="53,238.2422,57,248.2422,61,238.2422,57,242.2422" style="stroke:#181818;stroke-width:1.0;"/><line style="stroke:#181818;stroke-width:1.0;" x1="113.5" x2="113.5" y1="228.2422" y2="248.2422"/><polygon fill="#181818" points="109.5,238.2422,113.5,248.2422,117.5,238.2422,113.5,242.2422" style="stroke:#181818;stroke-width:1.0;"/><line style="stroke:#181818;stroke-width:1.0;" x1="57" x2="57" y1="282.375" y2="302.375"/><polygon fill="#181818" points="53,292.375,57,302.375,61,292.375,57,296.375" style="stroke:#181818;stroke-width:1.0;"/><line style="stroke:#181818;stroke-width:1.0;" x1="113.5" x2="113.5" y1="282.375" y2="302.375"/><polygon fill="#181818" points="109.5,292.375,113.5,302.375,117.5,292.375,113.5,296.375" style="stroke:#181818;stroke-width:1.0;"/><line style="stroke:#181818;stroke-width:1.0;" x1="85.5" x2="85.5" y1="202.2422" y2="222.2422"/><polygon fill="#181818" points="81.5,212.2422,85.5,222.2422,89.5,212.2422,85.5,216.2422" style="stroke:#181818;stroke-width:1.0;"/><line style="stroke:#181818;stroke-width:1.0;" x1="85.5" x2="85.5" y1="308.375" y2="328.375"/><polygon fill="#181818" points="81.5,318.375,85.5,328.375,89.5,318.375,85.5,322.375" style="stroke:#181818;stroke-width:1.0;"/><line style="stroke:#181818;stroke-width:1.0;" x1="85.5" x2="85.5" y1="148.1094" y2="168.1094"/><polygon fill="#181818" points="81.5,158.1094,85.5,168.1094,89.5,158.1094,85.5,162.1094" style="stroke:#181818;stroke-width:1.0;"/><line style="stroke:#181818;stroke-width:1.0;" x1="97.5" x2="154" y1="394.5078" y2="394.5078"/><polygon fill="#181818" points="150,275.3086,154,265.3086,158,275.3086,154,271.3086" style="stroke:#181818;stroke-width:1.0;"/><line style="stroke:#181818;stroke-width:1.0;" x1="154" x2="154" y1="136.1094" y2="394.5078"/><line style="stroke:#181818;stroke-width:1.0;" x1="154" x2="97.5" y1="136.1094" y2="136.1094"/><polygon fill="#181818" points="107.5,132.1094,97.5,136.1094,107.5,140.1094,103.5,136.1094" style="stroke:#181818;stroke-width:1.0;"/><line style="stroke:#181818;stroke-width:1.0;" x1="85.5" x2="85.5" y1="362.5078" y2="382.5078"/><polygon fill="#181818" points="81.5,372.5078,85.5,382.5078,89.5,372.5078,85.5,376.5078" style="stroke:#181818;stroke-width:1.0;"/><line style="stroke:#181818;stroke-width:1.0;" x1="85.5" x2="85.5" y1="104.1094" y2="124.1094"/><polygon fill="#181818" points="81.5,114.1094,85.5,124.1094,89.5,114.1094,85.5,118.1094" style="stroke:#181818;stroke-width:1.0;"/><line style="stroke:#181818;stroke-width:1.0;" x1="85.5" x2="85.5" y1="406.5078" y2="426.5078"/><polygon fill="#181818" points="81.5,416.5078,85.5,426.5078,89.5,416.5078,85.5,420.5078" style="stroke:#181818;stroke-width:1.0;"/><!--SRC=[AqWiAiaioSpFKr3AoSylKCXBBIv9JL5mz7DHKgZcKW22zAByqW9CMR0S22Yd5wMcvbavMiD5Yb8BKXDBu5mGi7AoHk6dvHTbemY05JbZAb98J4_CpCDKweAgD3Kl1TDCArTqDocKPsJcf2ASNfIQOkK6KGGo0UnLhbe0]--></g></svg>