<?xml version="1.0" encoding="us-ascii" standalone="no"?><svg xmlns="http://www.w3.org/2000/svg" xmlns:xlink="http://www.w3.org/1999/xlink" contentStyleType="text/css" height="469px" preserveAspectRatio="none" style="width:192px;height:469px;background:#FFFFFF;" version="1.1" viewBox="0 0 192 469" width="192px" zoomAndPan="magnify"><defs/><g><rect fill="none" height="447.5078" style="stroke:#000000;stroke-width:1.5;" width="170.5" x="11" y="11"/><path d="M135,11 L135,20.4883 L125,30.4883 L11,30.4883 " fill="none" style="stroke:#000000;stroke-width:1.5;"/><text fill="#000000" font-family="sans-serif" font-size="14" lengthAdjust="spacing" textLength="114" x="14" y="25.5352">ANDFork_loop_a</text><rect fill="none" height="406.0195" style="stroke:#000000;stroke-width:1.5;" width="150.5" x="21" y="40.4883"/><path d="M145,40.4883 L145,49.9766 L135,59.9766 L21,59.9766 " fill="none" style="stroke:#000000;stroke-width:1.5;"/><text fill="#000000" font-family="sans-serif" font-size="14" lengthAdjust="spacing" textLength="114" x="24" y="55.0234">ANDFork_loop_a</text><rect fill="#008000" height="34.1328" rx="12.5" ry="12.5" style="stroke:#181818;stroke-width:0.5;" width="28" x="83.5" y="69.9766"/><text fill="#000000" font-family="sans-serif" font-size="12" lengthAdjust="spacing" textLength="8" x="93.5" y="91.5781">A</text><rect fill="#555555" height="6" rx="2.5" ry="2.5" style="stroke:#555555;stroke-width:1.0;" width="130.5" x="31" y="124.1094"/><rect fill="#F1F1F1" height="34.1328" rx="12.5" ry="12.5" style="stroke:#181818;stroke-width:0.5;" width="27" x="44" y="150.1094"/><text fill="#000000" font-family="sans-serif" font-size="12" lengthAdjust="spacing" textLength="7" x="54" y="171.7109">B</text><rect fill="#F1F1F1" height="34.1328" rx="12.5" ry="12.5" style="stroke:#181818;stroke-width:0.5;" width="29" x="43" y="276.2422"/><text fill="#000000" font-family="sans-serif" font-size="12" lengthAdjust="spacing" textLength="9" x="53" y="297.8438">D</text><polygon fill="#F1F1F1" points="57.5,204.2422,69.5,216.2422,57.5,228.2422,45.5,216.2422,57.5,204.2422" style="stroke:#181818;stroke-width:0.5;"/><polygon fill="#F1F1F1" points="57.5,330.375,57.5,330.375,69.5,342.375,57.5,354.375,57.5,354.375,45.5,342.375,57.5,330.375" style="stroke:#181818;stroke-width:0.5;"/><rect fill="#F1F1F1" height="34.1328" rx="12.5" ry="12.5" style="stroke:#181818;stroke-width:0.5;" width="28" x="121.5" y="241.6758"/><text fill="#000000" font-family="sans-serif" font-size="12" lengthAdjust="spacing" textLength="8" x="131.5" y="263.2773">C</text><rect fill="#555555" height="6" rx="2.5" ry="2.5" style="stroke:#555555;stroke-width:1.0;" width="130.5" x="31" y="374.375"/><rect fill="#FF0000" height="34.1328" rx="12.5" ry="12.5" style="stroke:#181818;stroke-width:0.5;" width="27" x="84" y="400.375"/><text fill="#000000" font-family="sans-serif" font-size="12" lengthAdjust="spacing" textLength="7" x="94" y="421.9766">E</text><line style="stroke:#181818;stroke-width:1.0;" x1="57.5" x2="57.5" y1="228.2422" y2="276.2422"/><polygon fill="#181818" points="53.5,266.2422,57.5,276.2422,61.5,266.2422,57.5,270.2422" style="stroke:#181818;stroke-width:1.0;"/><line style="stroke:#181818;stroke-width:1.0;" x1="69.5" x2="84" y1="342.375" y2="342.375"/><polygon fill="#181818" points="80,303.3086,84,293.3086,88,303.3086,84,299.3086" style="stroke:#181818;stroke-width:1.0;"/><line style="stroke:#181818;stroke-width:1.0;" x1="84" x2="84" y1="216.2422" y2="342.375"/><line style="stroke:#181818;stroke-width:1.0;" x1="84" x2="69.5" y1="216.2422" y2="216.2422"/><polygon fill="#181818" points="79.5,212.2422,69.5,216.2422,79.5,220.2422,75.5,216.2422" style="stroke:#181818;stroke-width:1.0;"/><line style="stroke:#181818;stroke-width:1.0;" x1="57.5" x2="57.5" y1="310.375" y2="330.375"/><polygon fill="#181818" points="53.5,320.375,57.5,330.375,61.5,320.375,57.5,324.375" style="stroke:#181818;stroke-width:1.0;"/><line style="stroke:#181818;stroke-width:1.0;" x1="57.5" x2="57.5" y1="184.2422" y2="204.2422"/><polygon fill="#181818" points="53.5,194.2422,57.5,204.2422,61.5,194.2422,57.5,198.2422" style="stroke:#181818;stroke-width:1.0;"/><line style="stroke:#181818;stroke-width:1.0;" x1="57.5" x2="57.5" y1="130.1094" y2="150.1094"/><polygon fill="#181818" points="53.5,140.1094,57.5,150.1094,61.5,140.1094,57.5,144.1094" style="stroke:#181818;stroke-width:1.0;"/><line style="stroke:#181818;stroke-width:1.0;" x1="135.5" x2="135.5" y1="130.1094" y2="241.6758"/><polygon fill="#181818" points="131.5,231.6758,135.5,241.6758,139.5,231.6758,135.5,235.6758" style="stroke:#181818;stroke-width:1.0;"/><line style="stroke:#181818;stroke-width:1.0;" x1="57.5" x2="57.5" y1="354.375" y2="374.375"/><polygon fill="#181818" points="53.5,364.375,57.5,374.375,61.5,364.375,57.5,368.375" style="stroke:#181818;stroke-width:1.0;"/><line style="stroke:#181818;stroke-width:1.0;" x1="135.5" x2="135.5" y1="275.8086" y2="374.375"/><polygon fill="#181818" points="131.5,364.375,135.5,374.375,139.5,364.375,135.5,368.375" style="stroke:#181818;stroke-width:1.0;"/><line style="stroke:#181818;stroke-width:1.0;" x1="97.5" x2="97.5" y1="104.1094" y2="124.1094"/><polygon fill="#181818" points="93.5,114.1094,97.5,124.1094,101.5,114.1094,97.5,118.1094" style="stroke:#181818;stroke-width:1.0;"/><line style="stroke:#181818;stroke-width:1.0;" x1="97.5" x2="97.5" y1="380.375" y2="400.375"/><polygon fill="#181818" points="93.5,390.375,97.5,400.375,101.5,390.375,97.5,394.375" style="stroke:#181818;stroke-width:1.0;"/><!--SRC=[AqWiAiaioSpFKr1oz7Dnoo_AZi_9po-8JrHIgEPI08BqelpI0Wn9i1G8AASNfQRcMJbQmqNIWChW712mSh96uHUb5gGcbg08WPMvO5EcK9wHcPEAOhX2OdfYPXwg5Su8lQbvAQXkK2vAJR5oXIW0IO9zn5KB0000]--></g></svg>