<?xml version="1.0" encoding="us-ascii" standalone="no"?><svg xmlns="http://www.w3.org/2000/svg" xmlns:xlink="http://www.w3.org/1999/xlink" contentStyleType="text/css" height="414px" preserveAspectRatio="none" style="width:244px;height:414px;background:#FFFFFF;" version="1.1" viewBox="0 0 244 414" width="244px" zoomAndPan="magnify"><defs/><g><rect fill="none" height="392.0742" style="stroke:#000000;stroke-width:1.5;" width="222" x="11" y="11"/><path d="M165,11 L165,20.4883 L155,30.4883 L11,30.4883 " fill="none" style="stroke:#000000;stroke-width:1.5;"/><text fill="#000000" font-family="sans-serif" font-size="14" lengthAdjust="spacing" textLength="144" x="14" y="25.5352">ANDFork_ANDFork_a</text><rect fill="none" height="350.5859" style="stroke:#000000;stroke-width:1.5;" width="202" x="21" y="40.4883"/><path d="M175,40.4883 L175,49.9766 L165,59.9766 L21,59.9766 " fill="none" style="stroke:#000000;stroke-width:1.5;"/><text fill="#000000" font-family="sans-serif" font-size="14" lengthAdjust="spacing" textLength="144" x="24" y="55.0234">ANDFork_ANDFork_a</text><rect fill="#008000" height="34.1328" rx="12.5" ry="12.5" style="stroke:#181818;stroke-width:0.5;" width="28" x="111" y="69.9766"/><text fill="#000000" font-family="sans-serif" font-size="12" lengthAdjust="spacing" textLength="8" x="121" y="91.5781">A</text><rect fill="#555555" height="6" rx="2.5" ry="2.5" style="stroke:#555555;stroke-width:1.0;" width="182" x="31" y="124.1094"/><rect fill="#F1F1F1" height="34.1328" rx="12.5" ry="12.5" style="stroke:#181818;stroke-width:0.5;" width="27" x="83.5" y="150.1094"/><text fill="#000000" font-family="sans-serif" font-size="12" lengthAdjust="spacing" textLength="7" x="93.5" y="171.7109">B</text><rect fill="#555555" height="6" rx="2.5" ry="2.5" style="stroke:#555555;stroke-width:1.0;" width="108" x="43" y="212.8086"/><rect fill="#F1F1F1" height="34.1328" rx="12.5" ry="12.5" style="stroke:#181818;stroke-width:0.5;" width="29" x="55" y="238.8086"/><text fill="#000000" font-family="sans-serif" font-size="12" lengthAdjust="spacing" textLength="9" x="65" y="260.4102">D</text><rect fill="#F1F1F1" height="34.1328" rx="12.5" ry="12.5" style="stroke:#181818;stroke-width:0.5;" width="27" x="112" y="238.8086"/><text fill="#000000" font-family="sans-serif" font-size="12" lengthAdjust="spacing" textLength="7" x="122" y="260.4102">E</text><rect fill="#555555" height="6" rx="2.5" ry="2.5" style="stroke:#555555;stroke-width:1.0;" width="108" x="43" y="292.9414"/><rect fill="#F1F1F1" height="34.1328" rx="12.5" ry="12.5" style="stroke:#181818;stroke-width:0.5;" width="28" x="173" y="204.2422"/><text fill="#000000" font-family="sans-serif" font-size="12" lengthAdjust="spacing" textLength="8" x="183" y="225.8438">C</text><rect fill="#555555" height="6" rx="2.5" ry="2.5" style="stroke:#555555;stroke-width:1.0;" width="182" x="31" y="318.9414"/><rect fill="#FF0000" height="34.1328" rx="12.5" ry="12.5" style="stroke:#181818;stroke-width:0.5;" width="26" x="112" y="344.9414"/><text fill="#000000" font-family="sans-serif" font-size="12" lengthAdjust="spacing" textLength="6" x="122" y="366.543">F</text><line style="stroke:#181818;stroke-width:1.0;" x1="69.5" x2="69.5" y1="218.8086" y2="238.8086"/><polygon fill="#181818" points="65.5,228.8086,69.5,238.8086,73.5,228.8086,69.5,232.8086" style="stroke:#181818;stroke-width:1.0;"/><line style="stroke:#181818;stroke-width:1.0;" x1="125.5" x2="125.5" y1="218.8086" y2="238.8086"/><polygon fill="#181818" points="121.5,228.8086,125.5,238.8086,129.5,228.8086,125.5,232.8086" style="stroke:#181818;stroke-width:1.0;"/><line style="stroke:#181818;stroke-width:1.0;" x1="69.5" x2="69.5" y1="272.9414" y2="292.9414"/><polygon fill="#181818" points="65.5,282.9414,69.5,292.9414,73.5,282.9414,69.5,286.9414" style="stroke:#181818;stroke-width:1.0;"/><line style="stroke:#181818;stroke-width:1.0;" x1="125.5" x2="125.5" y1="272.9414" y2="292.9414"/><polygon fill="#181818" points="121.5,282.9414,125.5,292.9414,129.5,282.9414,125.5,286.9414" style="stroke:#181818;stroke-width:1.0;"/><line style="stroke:#181818;stroke-width:1.0;" x1="97" x2="97" y1="184.2422" y2="212.8086"/><polygon fill="#181818" points="93,202.8086,97,212.8086,101,202.8086,97,206.8086" style="stroke:#181818;stroke-width:1.0;"/><line style="stroke:#181818;stroke-width:1.0;" x1="97" x2="97" y1="130.1094" y2="150.1094"/><polygon fill="#181818" points="93,140.1094,97,150.1094,101,140.1094,97,144.1094" style="stroke:#181818;stroke-width:1.0;"/><line style="stroke:#181818;stroke-width:1.0;" x1="187" x2="187" y1="130.1094" y2="204.2422"/><polygon fill="#181818" points="183,194.2422,187,204.2422,191,194.2422,187,198.2422" style="stroke:#181818;stroke-width:1.0;"/><line style="stroke:#181818;stroke-width:1.0;" x1="97" x2="97" y1="298.9414" y2="318.9414"/><polygon fill="#181818" points="93,308.9414,97,318.9414,101,308.9414,97,312.9414" style="stroke:#181818;stroke-width:1.0;"/><line style="stroke:#181818;stroke-width:1.0;" x1="187" x2="187" y1="238.375" y2="318.9414"/><polygon fill="#181818" points="183,308.9414,187,318.9414,191,308.9414,187,312.9414" style="stroke:#181818;stroke-width:1.0;"/><line style="stroke:#181818;stroke-width:1.0;" x1="125" x2="125" y1="104.1094" y2="124.1094"/><polygon fill="#181818" points="121,114.1094,125,124.1094,129,114.1094,125,118.1094" style="stroke:#181818;stroke-width:1.0;"/><line style="stroke:#181818;stroke-width:1.0;" x1="125" x2="125" y1="324.9414" y2="344.9414"/><polygon fill="#181818" points="121,334.9414,125,344.9414,129,334.9414,125,338.9414" style="stroke:#181818;stroke-width:1.0;"/><!--SRC=[AqWiAiaioSpFKr1oz7Dnoo_AZeVHYKeArLmAG91Ub5zQW4qUB0i2okb5gQbvLexMS94qe0eu1mIidAnH-1WAm8fSC1Kf9AOdPkPXAdL5LPgQbu9g9WwzLiu8VHXwb8jIKwpS80f0ac2VSzK20000]--></g></svg>