<?xml version="1.0" encoding="us-ascii" standalone="no"?><svg xmlns="http://www.w3.org/2000/svg" xmlns:xlink="http://www.w3.org/1999/xlink" contentStyleType="text/css" height="420px" preserveAspectRatio="none" style="width:236px;height:420px;background:#FFFFFF;" version="1.1" viewBox="0 0 236 420" width="236px" zoomAndPan="magnify"><defs/><g><rect fill="none" height="398.0742" style="stroke:#000000;stroke-width:1.5;" width="214.5" x="11" y="11"/><path d="M164,11 L164,20.4883 L154,30.4883 L11,30.4883 " fill="none" style="stroke:#000000;stroke-width:1.5;"/><text fill="#000000" font-family="sans-serif" font-size="14" lengthAdjust="spacing" textLength="143" x="14" y="25.5352">ANDFork_XORFork_a</text><rect fill="none" height="356.5859" style="stroke:#000000;stroke-width:1.5;" width="194.5" x="21" y="40.4883"/><path d="M174,40.4883 L174,49.9766 L164,59.9766 L21,59.9766 " fill="none" style="stroke:#000000;stroke-width:1.5;"/><text fill="#000000" font-family="sans-serif" font-size="14" lengthAdjust="spacing" textLength="143" x="24" y="55.0234">ANDFork_XORFork_a</text><rect fill="#008000" height="34.1328" rx="12.5" ry="12.5" style="stroke:#181818;stroke-width:0.5;" width="28" x="105.5" y="69.9766"/><text fill="#000000" font-family="sans-serif" font-size="12" lengthAdjust="spacing" textLength="8" x="115.5" y="91.5781">A</text><rect fill="#555555" height="6" rx="2.5" ry="2.5" style="stroke:#555555;stroke-width:1.0;" width="174.5" x="31" y="124.1094"/><rect fill="#F1F1F1" height="34.1328" rx="12.5" ry="12.5" style="stroke:#181818;stroke-width:0.5;" width="27" x="78" y="150.1094"/><text fill="#000000" font-family="sans-serif" font-size="12" lengthAdjust="spacing" textLength="7" x="88" y="171.7109">B</text><polygon fill="#F1F1F1" points="79.5,206.8086,103.5,206.8086,115.5,218.8086,103.5,230.8086,79.5,230.8086,67.5,218.8086,79.5,206.8086" style="stroke:#181818;stroke-width:0.5;"/><text fill="#000000" font-family="sans-serif" font-size="11" lengthAdjust="spacing" textLength="23" x="80" y="222.9658">XOR</text><text fill="#000000" font-family="sans-serif" font-size="11" lengthAdjust="spacing" textLength="22" x="45.5" y="216.4883">true</text><text fill="#000000" font-family="sans-serif" font-size="11" lengthAdjust="spacing" textLength="25" x="115.5" y="216.4883">false</text><rect fill="#F1F1F1" height="34.1328" rx="12.5" ry="12.5" style="stroke:#181818;stroke-width:0.5;" width="29" x="43" y="240.8086"/><text fill="#000000" font-family="sans-serif" font-size="12" lengthAdjust="spacing" textLength="9" x="53" y="262.4102">D</text><rect fill="#F1F1F1" height="34.1328" rx="12.5" ry="12.5" style="stroke:#181818;stroke-width:0.5;" width="27" x="112" y="240.8086"/><text fill="#000000" font-family="sans-serif" font-size="12" lengthAdjust="spacing" textLength="7" x="122" y="262.4102">E</text><polygon fill="#F1F1F1" points="91.5,280.9414,103.5,292.9414,91.5,304.9414,79.5,292.9414,91.5,280.9414" style="stroke:#181818;stroke-width:0.5;"/><rect fill="#F1F1F1" height="34.1328" rx="12.5" ry="12.5" style="stroke:#181818;stroke-width:0.5;" width="28" x="165.5" y="204.2422"/><text fill="#000000" font-family="sans-serif" font-size="12" lengthAdjust="spacing" textLength="8" x="175.5" y="225.8438">C</text><rect fill="#555555" height="6" rx="2.5" ry="2.5" style="stroke:#555555;stroke-width:1.0;" width="174.5" x="31" y="324.9414"/><rect fill="#FF0000" height="34.1328" rx="12.5" ry="12.5" style="stroke:#181818;stroke-width:0.5;" width="26" x="106.5" y="350.9414"/><text fill="#000000" font-family="sans-serif" font-size="12" lengthAdjust="spacing" textLength="6" x="116.5" y="372.543">F</text><line style="stroke:#181818;stroke-width:1.0;" x1="67.5" x2="57.5" y1="218.8086" y2="218.8086"/><line style="stroke:#181818;stroke-width:1.0;" x1="57.5" x2="57.5" y1="218.8086" y2="240.8086"/><polygon fill="#181818" points="53.5,230.8086,57.5,240.8086,61.5,230.8086,57.5,234.8086" style="stroke:#181818;stroke-width:1.0;"/><line style="stroke:#181818;stroke-width:1.0;" x1="115.5" x2="125.5" y1="218.8086" y2="218.8086"/><line style="stroke:#181818;stroke-width:1.0;" x1="125.5" x2="125.5" y1="218.8086" y2="240.8086"/><polygon fill="#181818" points="121.5,230.8086,125.5,240.8086,129.5,230.8086,125.5,234.8086" style="stroke:#181818;stroke-width:1.0;"/><line style="stroke:#181818;stroke-width:1.0;" x1="57.5" x2="57.5" y1="274.9414" y2="292.9414"/><line style="stroke:#181818;stroke-width:1.0;" x1="57.5" x2="79.5" y1="292.9414" y2="292.9414"/><polygon fill="#181818" points="69.5,288.9414,79.5,292.9414,69.5,296.9414,73.5,292.9414" style="stroke:#181818;stroke-width:1.0;"/><line style="stroke:#181818;stroke-width:1.0;" x1="125.5" x2="125.5" y1="274.9414" y2="292.9414"/><line style="stroke:#181818;stroke-width:1.0;" x1="125.5" x2="103.5" y1="292.9414" y2="292.9414"/><polygon fill="#181818" points="113.5,288.9414,103.5,292.9414,113.5,296.9414,109.5,292.9414" style="stroke:#181818;stroke-width:1.0;"/><line style="stroke:#181818;stroke-width:1.0;" x1="91.5" x2="91.5" y1="184.2422" y2="206.8086"/><polygon fill="#181818" points="87.5,196.8086,91.5,206.8086,95.5,196.8086,91.5,200.8086" style="stroke:#181818;stroke-width:1.0;"/><line style="stroke:#181818;stroke-width:1.0;" x1="91.5" x2="91.5" y1="130.1094" y2="150.1094"/><polygon fill="#181818" points="87.5,140.1094,91.5,150.1094,95.5,140.1094,91.5,144.1094" style="stroke:#181818;stroke-width:1.0;"/><line style="stroke:#181818;stroke-width:1.0;" x1="179.5" x2="179.5" y1="130.1094" y2="204.2422"/><polygon fill="#181818" points="175.5,194.2422,179.5,204.2422,183.5,194.2422,179.5,198.2422" style="stroke:#181818;stroke-width:1.0;"/><line style="stroke:#181818;stroke-width:1.0;" x1="91.5" x2="91.5" y1="304.9414" y2="324.9414"/><polygon fill="#181818" points="87.5,314.9414,91.5,324.9414,95.5,314.9414,91.5,318.9414" style="stroke:#181818;stroke-width:1.0;"/><line style="stroke:#181818;stroke-width:1.0;" x1="179.5" x2="179.5" y1="238.375" y2="324.9414"/><polygon fill="#181818" points="175.5,314.9414,179.5,324.9414,183.5,314.9414,179.5,318.9414" style="stroke:#181818;stroke-width:1.0;"/><line style="stroke:#181818;stroke-width:1.0;" x1="119.5" x2="119.5" y1="104.1094" y2="124.1094"/><polygon fill="#181818" points="115.5,114.1094,119.5,124.1094,123.5,114.1094,119.5,118.1094" style="stroke:#181818;stroke-width:1.0;"/><line style="stroke:#181818;stroke-width:1.0;" x1="119.5" x2="119.5" y1="330.9414" y2="350.9414"/><polygon fill="#181818" points="115.5,340.9414,119.5,350.9414,123.5,340.9414,119.5,344.9414" style="stroke:#181818;stroke-width:1.0;"/><!--SRC=[AqWiAiaioSpFKr1oz7Dnoo_AZe_m3mBJYKeArLmAG91Ub5zQW4qUB0i2okb5gQbvLexMS94qe0eu1mIidAnH-9bf2Xf0apGLIZ9IynGqIefAKpLH580rkQ1gIiqfJbNGI4i4KbWKkw8fpal9J4Dna49YUc9c7ggpd16QW1fGtQrSb9fYvGPH09841mHNBG00]--></g></svg>