<?xml version="1.0" encoding="us-ascii" standalone="no"?><svg xmlns="http://www.w3.org/2000/svg" xmlns:xlink="http://www.w3.org/1999/xlink" contentStyleType="text/css" height="408px" preserveAspectRatio="none" style="width:224px;height:408px;background:#FFFFFF;" version="1.1" viewBox="0 0 224 408" width="224px" zoomAndPan="magnify"><defs/><g><rect fill="none" height="386.0742" style="stroke:#000000;stroke-width:1.5;" width="202" x="11" y="11"/><path d="M155,11 L155,20.4883 L145,30.4883 L11,30.4883 " fill="none" style="stroke:#000000;stroke-width:1.5;"/><text fill="#000000" font-family="sans-serif" font-size="14" lengthAdjust="spacing" textLength="134" x="14" y="25.5352">ANDFork_ORFork_a</text><rect fill="none" height="344.5859" style="stroke:#000000;stroke-width:1.5;" width="182" x="21" y="40.4883"/><path d="M165,40.4883 L165,49.9766 L155,59.9766 L21,59.9766 " fill="none" style="stroke:#000000;stroke-width:1.5;"/><text fill="#000000" font-family="sans-serif" font-size="14" lengthAdjust="spacing" textLength="134" x="24" y="55.0234">ANDFork_ORFork_a</text><rect fill="#008000" height="34.1328" rx="12.5" ry="12.5" style="stroke:#181818;stroke-width:0.5;" width="28" x="99" y="69.9766"/><text fill="#000000" font-family="sans-serif" font-size="12" lengthAdjust="spacing" textLength="8" x="109" y="91.5781">A</text><rect fill="#555555" height="6" rx="2.5" ry="2.5" style="stroke:#555555;stroke-width:1.0;" width="162" x="31" y="124.1094"/><rect fill="#F1F1F1" height="34.1328" rx="12.5" ry="12.5" style="stroke:#181818;stroke-width:0.5;" width="27" x="71.5" y="150.1094"/><text fill="#000000" font-family="sans-serif" font-size="12" lengthAdjust="spacing" textLength="7" x="81.5" y="171.7109">B</text><line style="stroke:#181818;stroke-width:1.5;" x1="57.5" x2="113.5" y1="217.3086" y2="217.3086"/><rect fill="#F1F1F1" height="34.1328" rx="12.5" ry="12.5" style="stroke:#181818;stroke-width:0.5;" width="29" x="43" y="238.8086"/><text fill="#000000" font-family="sans-serif" font-size="12" lengthAdjust="spacing" textLength="9" x="53" y="260.4102">D</text><rect fill="#F1F1F1" height="34.1328" rx="12.5" ry="12.5" style="stroke:#181818;stroke-width:0.5;" width="27" x="100" y="238.8086"/><text fill="#000000" font-family="sans-serif" font-size="12" lengthAdjust="spacing" textLength="7" x="110" y="260.4102">E</text><line style="stroke:#181818;stroke-width:1.5;" x1="57.5" x2="113.5" y1="292.9414" y2="292.9414"/><rect fill="#F1F1F1" height="34.1328" rx="12.5" ry="12.5" style="stroke:#181818;stroke-width:0.5;" width="28" x="153" y="204.2422"/><text fill="#000000" font-family="sans-serif" font-size="12" lengthAdjust="spacing" textLength="8" x="163" y="225.8438">C</text><rect fill="#555555" height="6" rx="2.5" ry="2.5" style="stroke:#555555;stroke-width:1.0;" width="162" x="31" y="312.9414"/><rect fill="#FF0000" height="34.1328" rx="12.5" ry="12.5" style="stroke:#181818;stroke-width:0.5;" width="26" x="100" y="338.9414"/><text fill="#000000" font-family="sans-serif" font-size="12" lengthAdjust="spacing" textLength="6" x="110" y="360.543">F</text><line style="stroke:#181818;stroke-width:1.0;" x1="57.5" x2="57.5" y1="218.8086" y2="238.8086"/><polygon fill="#181818" points="53.5,228.8086,57.5,238.8086,61.5,228.8086,57.5,232.8086" style="stroke:#181818;stroke-width:1.0;"/><line style="stroke:#181818;stroke-width:1.0;" x1="113.5" x2="113.5" y1="218.8086" y2="238.8086"/><polygon fill="#181818" points="109.5,228.8086,113.5,238.8086,117.5,228.8086,113.5,232.8086" style="stroke:#181818;stroke-width:1.0;"/><line style="stroke:#181818;stroke-width:1.0;" x1="57.5" x2="57.5" y1="272.9414" y2="292.9414"/><polygon fill="#181818" points="53.5,282.9414,57.5,292.9414,61.5,282.9414,57.5,286.9414" style="stroke:#181818;stroke-width:1.0;"/><line style="stroke:#181818;stroke-width:1.0;" x1="113.5" x2="113.5" y1="272.9414" y2="292.9414"/><polygon fill="#181818" points="109.5,282.9414,113.5,292.9414,117.5,282.9414,113.5,286.9414" style="stroke:#181818;stroke-width:1.0;"/><line style="stroke:#181818;stroke-width:1.0;" x1="85" x2="85" y1="184.2422" y2="217.3086"/><polygon fill="#181818" points="81,207.3086,85,217.3086,89,207.3086,85,211.3086" style="stroke:#181818;stroke-width:1.0;"/><line style="stroke:#181818;stroke-width:1.0;" x1="85" x2="85" y1="130.1094" y2="150.1094"/><polygon fill="#181818" points="81,140.1094,85,150.1094,89,140.1094,85,144.1094" style="stroke:#181818;stroke-width:1.0;"/><line style="stroke:#181818;stroke-width:1.0;" x1="167" x2="167" y1="130.1094" y2="204.2422"/><polygon fill="#181818" points="163,194.2422,167,204.2422,171,194.2422,167,198.2422" style="stroke:#181818;stroke-width:1.0;"/><line style="stroke:#181818;stroke-width:1.0;" x1="85" x2="85" y1="294.4414" y2="312.9414"/><polygon fill="#181818" points="81,302.9414,85,312.9414,89,302.9414,85,306.9414" style="stroke:#181818;stroke-width:1.0;"/><line style="stroke:#181818;stroke-width:1.0;" x1="167" x2="167" y1="238.375" y2="312.9414"/><polygon fill="#181818" points="163,302.9414,167,312.9414,171,302.9414,167,306.9414" style="stroke:#181818;stroke-width:1.0;"/><line style="stroke:#181818;stroke-width:1.0;" x1="113" x2="113" y1="104.1094" y2="124.1094"/><polygon fill="#181818" points="109,114.1094,113,124.1094,117,114.1094,113,118.1094" style="stroke:#181818;stroke-width:1.0;"/><line style="stroke:#181818;stroke-width:1.0;" x1="113" x2="113" y1="318.9414" y2="338.9414"/><polygon fill="#181818" points="109,328.9414,113,338.9414,117,328.9414,113,332.9414" style="stroke:#181818;stroke-width:1.0;"/><!--SRC=[AqWiAiaioSpFKr1oz7Dnoo_AZlSF0bE9IWhLN0f0a5wKNrg0HHei2GBAwKMfgNbMZjPmaJIW2ZW71AoSh57unGKvcIKe8c1LBbXKAIIc9sRcOQfrHLMRcfU2PYh84LWqMpaZD88qeRXLkIWrnSeDeW0a2VOxLoq0]--></g></svg>