<?xml version="1.0" encoding="us-ascii" standalone="no"?><svg xmlns="http://www.w3.org/2000/svg" xmlns:xlink="http://www.w3.org/1999/xlink" contentStyleType="text/css" height="368px" preserveAspectRatio="none" style="width:302px;height:368px;background:#FFFFFF;" version="1.1" viewBox="0 0 302 368" width="302px" zoomAndPan="magnify"><defs/><g><rect fill="none" height="346.5078" style="stroke:#000000;stroke-width:1.5;" width="280" x="11" y="11"/><path d="M183,11 L183,20.4883 L173,30.4883 L11,30.4883 " fill="none" style="stroke:#000000;stroke-width:1.5;"/><text fill="#000000" font-family="sans-serif" font-size="14" lengthAdjust="spacing" textLength="162" x="14" y="25.5352">ANDFork_branch_count</text><rect fill="none" height="305.0195" style="stroke:#000000;stroke-width:1.5;" width="260" x="21" y="40.4883"/><path d="M193,40.4883 L193,49.9766 L183,59.9766 L21,59.9766 " fill="none" style="stroke:#000000;stroke-width:1.5;"/><text fill="#000000" font-family="sans-serif" font-size="14" lengthAdjust="spacing" textLength="162" x="24" y="55.0234">ANDFork_branch_count</text><rect fill="#008000" height="34.1328" rx="12.5" ry="12.5" style="stroke:#181818;stroke-width:0.5;" width="28" x="146" y="69.9766"/><text fill="#000000" font-family="sans-serif" font-size="12" lengthAdjust="spacing" textLength="8" x="156" y="91.5781">A</text><rect fill="#555555" height="6" rx="2.5" ry="2.5" style="stroke:#555555;stroke-width:1.0;" width="240" x="31" y="124.1094"/><rect fill="#F1F1F1" height="34.1328" rx="12.5" ry="12.5" style="stroke:#181818;stroke-width:0.5;" width="178" x="43" y="150.1094"/><text fill="#000000" font-family="sans-serif" font-size="12" lengthAdjust="spacing" textLength="158" x="53" y="171.7109">B,BCNT,user=B,name=BC1</text><rect fill="#F1F1F1" height="34.1328" rx="12.5" ry="12.5" style="stroke:#181818;stroke-width:0.5;" width="29" x="117.5" y="219.2422"/><text fill="#000000" font-family="sans-serif" font-size="12" lengthAdjust="spacing" textLength="9" x="127.5" y="240.8438">D</text><rect fill="#F1F1F1" height="34.1328" rx="12.5" ry="12.5" style="stroke:#181818;stroke-width:0.5;" width="28" x="231" y="184.6758"/><text fill="#000000" font-family="sans-serif" font-size="12" lengthAdjust="spacing" textLength="8" x="241" y="206.2773">C</text><rect fill="#555555" height="6" rx="2.5" ry="2.5" style="stroke:#555555;stroke-width:1.0;" width="240" x="31" y="273.375"/><rect fill="#FF0000" height="34.1328" rx="12.5" ry="12.5" style="stroke:#181818;stroke-width:0.5;" width="26" x="147" y="299.375"/><text fill="#000000" font-family="sans-serif" font-size="12" lengthAdjust="spacing" textLength="6" x="157" y="320.9766">F</text><line style="stroke:#181818;stroke-width:1.0;" x1="132" x2="132" y1="184.2422" y2="219.2422"/><polygon fill="#181818" points="128,209.2422,132,219.2422,136,209.2422,132,213.2422" style="stroke:#181818;stroke-width:1.0;"/><line style="stroke:#181818;stroke-width:1.0;" x1="132" x2="132" y1="130.1094" y2="150.1094"/><polygon fill="#181818" points="128,140.1094,132,150.1094,136,140.1094,132,144.1094" style="stroke:#181818;stroke-width:1.0;"/><line style="stroke:#181818;stroke-width:1.0;" x1="245" x2="245" y1="130.1094" y2="184.6758"/><polygon fill="#181818" points="241,174.6758,245,184.6758,249,174.6758,245,178.6758" style="stroke:#181818;stroke-width:1.0;"/><line style="stroke:#181818;stroke-width:1.0;" x1="132" x2="132" y1="253.375" y2="273.375"/><polygon fill="#181818" points="128,263.375,132,273.375,136,263.375,132,267.375" style="stroke:#181818;stroke-width:1.0;"/><line style="stroke:#181818;stroke-width:1.0;" x1="245" x2="245" y1="218.8086" y2="273.375"/><polygon fill="#181818" points="241,263.375,245,273.375,249,263.375,245,267.375" style="stroke:#181818;stroke-width:1.0;"/><line style="stroke:#181818;stroke-width:1.0;" x1="160" x2="160" y1="104.1094" y2="124.1094"/><polygon fill="#181818" points="156,114.1094,160,124.1094,164,114.1094,160,118.1094" style="stroke:#181818;stroke-width:1.0;"/><line style="stroke:#181818;stroke-width:1.0;" x1="160" x2="160" y1="279.375" y2="299.375"/><polygon fill="#181818" points="156,289.375,160,299.375,164,289.375,160,293.375" style="stroke:#181818;stroke-width:1.0;"/><!--SRC=[AqWiAiaioSpFKr1oz7Dnoo_AZaygIinBpeXFpY_DAr5IgEPI08BqelpI0XnAm0f0G3czA3KrpyhH6YwI1bGCvu20bPEEaxDVY4vfSMgHhPDENc9kggsJiw4rgY8NL1CK4jCJC_DGbJWZbAJcfQ1Qf5oKccBb1b40aWGxdgiM0000]--></g></svg>