<?xml version="1.0" encoding="us-ascii" standalone="no"?><svg xmlns="http://www.w3.org/2000/svg" xmlns:xlink="http://www.w3.org/1999/xlink" contentStyleType="text/css" height="642px" preserveAspectRatio="none" style="width:617px;height:642px;background:#FFFFFF;" version="1.1" viewBox="0 0 617 642" width="617px" zoomAndPan="magnify"><defs/><g><rect fill="none" height="620.0469" style="stroke:#000000;stroke-width:1.5;" width="595" x="11" y="11"/><path d="M114,11 L114,20.2969 L104,30.2969 L11,30.2969 " fill="none" style="stroke:#000000;stroke-width:1.5;"/><text fill="#000000" font-family="sans-serif" font-size="14" lengthAdjust="spacing" textLength="93" x="14" y="24.9951">default_name</text><rect fill="none" height="578.75" style="stroke:#000000;stroke-width:1.5;" width="575" x="21" y="40.2969"/><path d="M124,40.2969 L124,49.5938 L114,59.5938 L21,59.5938 " fill="none" style="stroke:#000000;stroke-width:1.5;"/><text fill="#000000" font-family="sans-serif" font-size="14" lengthAdjust="spacing" textLength="93" x="24" y="54.292">default_name</text><rect fill="#F1F1F1" height="33.9688" rx="12.5" ry="12.5" style="stroke:#181818;stroke-width:0.5;" width="114" x="252" y="69.5938"/><text fill="#000000" font-family="sans-serif" font-size="12" lengthAdjust="spacing" textLength="94" x="262" y="90.7324">user_login_200</text><polygon fill="#F1F1F1" points="297,123.5625,321,123.5625,333,135.5625,321,147.5625,297,147.5625,285,135.5625,297,123.5625" style="stroke:#181818;stroke-width:0.5;"/><text fill="#000000" font-family="sans-serif" font-size="11" lengthAdjust="spacing" textLength="23" x="297.5" y="139.3706">XOR</text><rect fill="#F1F1F1" height="33.9688" rx="12.5" ry="12.5" style="stroke:#181818;stroke-width:0.5;" width="175" x="31" y="227.1719"/><text fill="#000000" font-family="sans-serif" font-size="12" lengthAdjust="spacing" textLength="155" x="41" y="248.3105">authorization_check_200</text><polygon fill="#F1F1F1" points="118.5,183.1719,130.5,195.1719,118.5,207.1719,106.5,195.1719,118.5,183.1719" style="stroke:#181818;stroke-width:0.5;"/><polygon fill="#F1F1F1" points="118.5,294.1406,118.5,294.1406,130.5,306.1406,118.5,318.1406,118.5,318.1406,106.5,306.1406,118.5,294.1406" style="stroke:#181818;stroke-width:0.5;"/><rect fill="#F1F1F1" height="33.9688" rx="12.5" ry="12.5" style="stroke:#181818;stroke-width:0.5;" width="151" x="43" y="353.1406"/><text fill="#000000" font-family="sans-serif" font-size="12" lengthAdjust="spacing" textLength="131" x="53" y="374.2793">fetch_user_data_200</text><rect fill="#F1F1F1" height="33.9688" rx="12.5" ry="12.5" style="stroke:#181818;stroke-width:0.5;" width="207" x="303" y="227.1719"/><text fill="#000000" font-family="sans-serif" font-size="12" lengthAdjust="spacing" textLength="187" x="313" y="248.3105">authenticate_credentials_200</text><polygon fill="#F1F1F1" points="394.5,281.1406,418.5,281.1406,430.5,293.1406,418.5,305.1406,394.5,305.1406,382.5,293.1406,394.5,281.1406" style="stroke:#181818;stroke-width:0.5;"/><text fill="#000000" font-family="sans-serif" font-size="11" lengthAdjust="spacing" textLength="23" x="395" y="296.9487">XOR</text><rect fill="#F1F1F1" height="33.9688" rx="12.5" ry="12.5" style="stroke:#181818;stroke-width:0.5;" width="150" x="245" y="340.75"/><text fill="#000000" font-family="sans-serif" font-size="12" lengthAdjust="spacing" textLength="130" x="255" y="361.8887">session_expired_200</text><rect fill="#F1F1F1" height="33.9688" rx="12.5" ry="12.5" style="stroke:#181818;stroke-width:0.5;" width="153" x="415" y="340.75"/><text fill="#000000" font-family="sans-serif" font-size="12" lengthAdjust="spacing" textLength="133" x="425" y="361.8887">validate_session_200</text><polygon fill="#F1F1F1" points="406.5,397.1094,406.5,397.1094,418.5,409.1094,406.5,421.1094,406.5,421.1094,394.5,409.1094,406.5,397.1094" style="stroke:#181818;stroke-width:0.5;"/><polygon fill="#F1F1F1" points="406.5,183.1719,418.5,195.1719,406.5,207.1719,394.5,195.1719,406.5,183.1719" style="stroke:#181818;stroke-width:0.5;"/><polygon fill="#F1F1F1" points="406.5,441.1094,406.5,441.1094,418.5,453.1094,406.5,465.1094,406.5,465.1094,394.5,453.1094,406.5,441.1094" style="stroke:#181818;stroke-width:0.5;"/><rect fill="#F1F1F1" height="33.9688" rx="12.5" ry="12.5" style="stroke:#181818;stroke-width:0.5;" width="134" x="339.5" y="485.1094"/><text fill="#000000" font-family="sans-serif" font-size="12" lengthAdjust="spacing" textLength="114" x="349.5" y="506.248">request_data_200</text><polygon fill="#F1F1F1" points="309,529.0781,309,529.0781,321,541.0781,309,553.0781,309,553.0781,297,541.0781,309,529.0781" style="stroke:#181818;stroke-width:0.5;"/><rect fill="#F1F1F1" height="33.9688" rx="12.5" ry="12.5" style="stroke:#181818;stroke-width:0.5;" width="154" x="232" y="573.0781"/><text fill="#000000" font-family="sans-serif" font-size="12" lengthAdjust="spacing" textLength="134" x="242" y="594.2168">return_response_200</text><line style="stroke:#181818;stroke-width:1.0;" x1="118.5" x2="118.5" y1="207.1719" y2="227.1719"/><polygon fill="#181818" points="114.5,217.1719,118.5,227.1719,122.5,217.1719,118.5,221.1719" style="stroke:#181818;stroke-width:1.0;"/><line style="stroke:#181818;stroke-width:1.0;" x1="130.5" x2="218" y1="306.1406" y2="306.1406"/><polygon fill="#181818" points="214,254.1563,218,244.1563,222,254.1563,218,250.1563" style="stroke:#181818;stroke-width:1.0;"/><line style="stroke:#181818;stroke-width:1.0;" x1="218" x2="218" y1="195.1719" y2="306.1406"/><line style="stroke:#181818;stroke-width:1.0;" x1="218" x2="130.5" y1="195.1719" y2="195.1719"/><polygon fill="#181818" points="140.5,191.1719,130.5,195.1719,140.5,199.1719,136.5,195.1719" style="stroke:#181818;stroke-width:1.0;"/><line style="stroke:#181818;stroke-width:1.0;" x1="118.5" x2="118.5" y1="261.1406" y2="294.1406"/><polygon fill="#181818" points="114.5,284.1406,118.5,294.1406,122.5,284.1406,118.5,288.1406" style="stroke:#181818;stroke-width:1.0;"/><line style="stroke:#181818;stroke-width:1.0;" x1="118.5" x2="118.5" y1="318.1406" y2="353.1406"/><polygon fill="#181818" points="114.5,343.1406,118.5,353.1406,122.5,343.1406,118.5,347.1406" style="stroke:#181818;stroke-width:1.0;"/><line style="stroke:#181818;stroke-width:1.0;" x1="382.5" x2="320" y1="293.1406" y2="293.1406"/><line style="stroke:#181818;stroke-width:1.0;" x1="320" x2="320" y1="293.1406" y2="340.75"/><polygon fill="#181818" points="316,330.75,320,340.75,324,330.75,320,334.75" style="stroke:#181818;stroke-width:1.0;"/><text fill="#000000" font-family="sans-serif" font-size="11" lengthAdjust="spacing" textLength="10" x="320" y="320.7534">""</text><line style="stroke:#181818;stroke-width:1.0;" x1="430.5" x2="491.5" y1="293.1406" y2="293.1406"/><line style="stroke:#181818;stroke-width:1.0;" x1="491.5" x2="491.5" y1="293.1406" y2="340.75"/><polygon fill="#181818" points="487.5,330.75,491.5,340.75,495.5,330.75,491.5,334.75" style="stroke:#181818;stroke-width:1.0;"/><text fill="#000000" font-family="sans-serif" font-size="11" lengthAdjust="spacing" textLength="10" x="491.5" y="320.7534">""</text><line style="stroke:#181818;stroke-width:1.0;" x1="320" x2="320" y1="374.7188" y2="409.1094"/><line style="stroke:#181818;stroke-width:1.0;" x1="320" x2="394.5" y1="409.1094" y2="409.1094"/><polygon fill="#181818" points="384.5,405.1094,394.5,409.1094,384.5,413.1094,388.5,409.1094" style="stroke:#181818;stroke-width:1.0;"/><line style="stroke:#181818;stroke-width:1.0;" x1="491.5" x2="491.5" y1="374.7188" y2="409.1094"/><line style="stroke:#181818;stroke-width:1.0;" x1="491.5" x2="418.5" y1="409.1094" y2="409.1094"/><polygon fill="#181818" points="428.5,405.1094,418.5,409.1094,428.5,413.1094,424.5,409.1094" style="stroke:#181818;stroke-width:1.0;"/><line style="stroke:#181818;stroke-width:1.0;" x1="406.5" x2="406.5" y1="261.1406" y2="281.1406"/><polygon fill="#181818" points="402.5,271.1406,406.5,281.1406,410.5,271.1406,406.5,275.1406" style="stroke:#181818;stroke-width:1.0;"/><line style="stroke:#181818;stroke-width:1.0;" x1="406.5" x2="406.5" y1="207.1719" y2="227.1719"/><polygon fill="#181818" points="402.5,217.1719,406.5,227.1719,410.5,217.1719,406.5,221.1719" style="stroke:#181818;stroke-width:1.0;"/><line style="stroke:#181818;stroke-width:1.0;" x1="418.5" x2="580" y1="453.1094" y2="453.1094"/><polygon fill="#181818" points="576,370.4453,580,360.4453,584,370.4453,580,366.4453" style="stroke:#181818;stroke-width:1.0;"/><line style="stroke:#181818;stroke-width:1.0;" x1="580" x2="580" y1="195.1719" y2="453.1094"/><line style="stroke:#181818;stroke-width:1.0;" x1="580" x2="418.5" y1="195.1719" y2="195.1719"/><polygon fill="#181818" points="428.5,191.1719,418.5,195.1719,428.5,199.1719,424.5,195.1719" style="stroke:#181818;stroke-width:1.0;"/><line style="stroke:#181818;stroke-width:1.0;" x1="406.5" x2="406.5" y1="421.1094" y2="441.1094"/><polygon fill="#181818" points="402.5,431.1094,406.5,441.1094,410.5,431.1094,406.5,435.1094" style="stroke:#181818;stroke-width:1.0;"/><line style="stroke:#181818;stroke-width:1.0;" x1="406.5" x2="406.5" y1="465.1094" y2="485.1094"/><polygon fill="#181818" points="402.5,475.1094,406.5,485.1094,410.5,475.1094,406.5,479.1094" style="stroke:#181818;stroke-width:1.0;"/><line style="stroke:#181818;stroke-width:1.0;" x1="285" x2="118.5" y1="135.5625" y2="135.5625"/><line style="stroke:#181818;stroke-width:1.0;" x1="118.5" x2="118.5" y1="135.5625" y2="183.1719"/><polygon fill="#181818" points="114.5,173.1719,118.5,183.1719,122.5,173.1719,118.5,177.1719" style="stroke:#181818;stroke-width:1.0;"/><text fill="#000000" font-family="sans-serif" font-size="11" lengthAdjust="spacing" textLength="10" x="118.5" y="163.1753">""</text><line style="stroke:#181818;stroke-width:1.0;" x1="333" x2="406.5" y1="135.5625" y2="135.5625"/><line style="stroke:#181818;stroke-width:1.0;" x1="406.5" x2="406.5" y1="135.5625" y2="183.1719"/><polygon fill="#181818" points="402.5,173.1719,406.5,183.1719,410.5,173.1719,406.5,177.1719" style="stroke:#181818;stroke-width:1.0;"/><text fill="#000000" font-family="sans-serif" font-size="11" lengthAdjust="spacing" textLength="10" x="406.5" y="163.1753">""</text><line style="stroke:#181818;stroke-width:1.0;" x1="118.5" x2="118.5" y1="387.1094" y2="541.0781"/><line style="stroke:#181818;stroke-width:1.0;" x1="118.5" x2="297" y1="541.0781" y2="541.0781"/><polygon fill="#181818" points="287,537.0781,297,541.0781,287,545.0781,291,541.0781" style="stroke:#181818;stroke-width:1.0;"/><line style="stroke:#181818;stroke-width:1.0;" x1="406.5" x2="406.5" y1="519.0781" y2="541.0781"/><line style="stroke:#181818;stroke-width:1.0;" x1="406.5" x2="321" y1="541.0781" y2="541.0781"/><polygon fill="#181818" points="331,537.0781,321,541.0781,331,545.0781,327,541.0781" style="stroke:#181818;stroke-width:1.0;"/><line style="stroke:#181818;stroke-width:1.0;" x1="309" x2="309" y1="103.5625" y2="123.5625"/><polygon fill="#181818" points="305,113.5625,309,123.5625,313,113.5625,309,117.5625" style="stroke:#181818;stroke-width:1.0;"/><line style="stroke:#181818;stroke-width:1.0;" x1="309" x2="309" y1="553.0781" y2="573.0781"/><polygon fill="#181818" points="305,563.0781,309,573.0781,313,563.0781,309,567.0781" style="stroke:#181818;stroke-width:1.0;"/><!--SRC=[fP9DJWCn38NtdCAQLTbLBCiXa5YnYwpajHCHaY5sMaJLkpEP0bBejFnvbxpu-RCT8gA1ithrALBdiEOIr4H-GaVxAtgFJKvb-29_YZLMHP1DI1iVpSroUTk8ilDgUreytDrVDq8Dom9QTDsfKYDZ0EkiD9NbedtA_fKhlx4zxEDf_TQCThqFc7smMcC4DLClZfNdhVvFZAZUiiBO35SF7EGyzhSZ_3bSGo8GgLF3o-17Zii0l_JUSl2kTlXHvA8veZis-CUrPJmNY9xPsRpxcAGbHvCXGug2Dc_CENxwwURm1W00]--></g></svg>