<?xml version="1.0" encoding="us-ascii" standalone="no"?><svg xmlns="http://www.w3.org/2000/svg" xmlns:xlink="http://www.w3.org/1999/xlink" contentStyleType="text/css" height="247px" preserveAspectRatio="none" style="width:190px;height:247px;background:#FFFFFF;" version="1.1" viewBox="0 0 190 247" width="190px" zoomAndPan="magnify"><defs/><g><rect fill="none" height="225.3018" style="stroke:#000000;stroke-width:1.5;" width="168" x="11" y="11"/><path d="M154,11 L154,20.2969 L144,30.2969 L11,30.2969 " fill="none" style="stroke:#000000;stroke-width:1.5;"/><text fill="#000000" font-family="sans-serif" font-size="14" lengthAdjust="spacing" textLength="133" x="14" y="24.9951">Example Sequence</text><rect fill="none" height="183.2031" style="stroke:#000000;stroke-width:1.5;" width="148" x="21" y="41.0986"/><path d="M164,41.0986 L164,50.3955 L154,60.3955 L21,60.3955 " fill="none" style="stroke:#000000;stroke-width:1.5;"/><text fill="#000000" font-family="sans-serif" font-size="14" lengthAdjust="spacing" textLength="133" x="24" y="55.0938">Example Sequence</text><rect fill="#F1F1F1" height="33.9688" rx="12.5" ry="12.5" style="stroke:#181818;stroke-width:0.5;" width="28" x="83.5" y="70.3955"/><text fill="#000000" font-family="sans-serif" font-size="12" lengthAdjust="spacing" textLength="8" x="93.5" y="91.5342">A</text><rect fill="#F1F1F1" height="33.9688" rx="12.5" ry="12.5" style="stroke:#181818;stroke-width:0.5;" width="28" x="83.5" y="124.3643"/><text fill="#000000" font-family="sans-serif" font-size="12" lengthAdjust="spacing" textLength="8" x="93.5" y="145.5029">B</text><rect fill="#F1F1F1" height="33.9688" rx="12.5" ry="12.5" style="stroke:#181818;stroke-width:0.5;" width="28" x="83.5" y="178.333"/><text fill="#000000" font-family="sans-serif" font-size="12" lengthAdjust="spacing" textLength="8" x="93.5" y="199.4717">C</text><line style="stroke:#181818;stroke-width:1.0;" x1="97.5" x2="97.5" y1="104.3643" y2="124.3643"/><polygon fill="#181818" points="93.5,114.3643,97.5,124.3643,101.5,114.3643,97.5,118.3643" style="stroke:#181818;stroke-width:1.0;"/><line style="stroke:#181818;stroke-width:1.0;" x1="97.5" x2="97.5" y1="158.333" y2="178.333"/><polygon fill="#181818" points="93.5,168.333,97.5,178.333,101.5,168.333,97.5,172.333" style="stroke:#181818;stroke-width:1.0;"/><!--SRC=[Kr1GK2X8B2h9BCdCprDGSgr8p2t8ILK8JYqiJSrBJbLIgEPIW8BqelpI0YnAu0f0mChH6fNlXCPtHl1Jyr8WXe95QW40]--></g></svg>