<?xml version="1.0" encoding="us-ascii" standalone="no"?><svg xmlns="http://www.w3.org/2000/svg" xmlns:xlink="http://www.w3.org/1999/xlink" contentStyleType="text/css" height="1177px" preserveAspectRatio="none" style="width:1122px;height:1177px;background:#FFFFFF;" version="1.1" viewBox="0 0 1122 1177" width="1122px" zoomAndPan="magnify"><defs/><g><rect fill="none" height="1155.0938" style="stroke:#000000;stroke-width:1.5;" width="1100" x="11" y="11"/><path d="M312,11 L312,20.2969 L302,30.2969 L11,30.2969 " fill="none" style="stroke:#000000;stroke-width:1.5;"/><text fill="#000000" font-family="sans-serif" font-size="14" lengthAdjust="spacing" textLength="291" x="14" y="24.9951">calculate_updated_graph_with_loop_event</text><ellipse cx="484.5" cy="50.2969" fill="#222222" rx="10" ry="10" style="stroke:#222222;stroke-width:1.0;"/><rect fill="#F1F1F1" height="33.9688" rx="12.5" ry="12.5" style="stroke:#181818;stroke-width:0.5;" width="353" x="308" y="80.2969"/><text fill="#000000" font-family="sans-serif" font-size="12" lengthAdjust="spacing" textLength="333" x="318" y="101.4355">input "Loop" paired with parent graph and LoopEvent</text><rect fill="none" height="989.8281" style="stroke:#000000;stroke-width:1.5;" width="1080" x="21" y="124.2656"/><path d="M132,124.2656 L132,133.5625 L122,143.5625 L21,143.5625 " fill="none" style="stroke:#000000;stroke-width:1.5;"/><text fill="#000000" font-family="sans-serif" font-size="14" lengthAdjust="spacing" textLength="101" x="24" y="138.2607">main algorithm</text><rect fill="#F1F1F1" height="33.9688" rx="12.5" ry="12.5" style="stroke:#181818;stroke-width:0.5;" width="378" x="295.5" y="160.5625"/><text fill="#000000" font-family="sans-serif" font-size="12" lengthAdjust="spacing" textLength="358" x="305.5" y="181.7012">get events connected to start events outside of the loop</text><rect fill="#F1F1F1" height="33.9688" rx="12.5" ry="12.5" style="stroke:#181818;stroke-width:0.5;" width="565" x="202" y="214.5313"/><text fill="#000000" font-family="sans-serif" font-size="12" lengthAdjust="spacing" textLength="545" x="212" y="235.6699">replace out eventsets containing the start events event types with the loop event type</text><rect fill="#F1F1F1" height="33.9688" rx="12.5" ry="12.5" style="stroke:#181818;stroke-width:0.5;" width="317" x="326" y="268.5"/><text fill="#000000" font-family="sans-serif" font-size="12" lengthAdjust="spacing" textLength="297" x="336" y="289.6387">add edges from those events to the loop event</text><rect fill="#F1F1F1" height="33.9688" rx="12.5" ry="12.5" style="stroke:#181818;stroke-width:0.5;" width="372" x="298.5" y="322.4688"/><text fill="#000000" font-family="sans-serif" font-size="12" lengthAdjust="spacing" textLength="352" x="308.5" y="343.6074">get events connected to end events outside of the loop</text><rect fill="#F1F1F1" height="33.9688" rx="12.5" ry="12.5" style="stroke:#181818;stroke-width:0.5;" width="549" x="210" y="376.4375"/><text fill="#000000" font-family="sans-serif" font-size="12" lengthAdjust="spacing" textLength="529" x="220" y="397.5762">replace in eventsets containing the end events event types with the loop event type</text><rect fill="#F1F1F1" height="33.9688" rx="12.5" ry="12.5" style="stroke:#181818;stroke-width:0.5;" width="317" x="326" y="430.4063"/><text fill="#000000" font-family="sans-serif" font-size="12" lengthAdjust="spacing" textLength="297" x="336" y="451.5449">add edges from the loop event to those events</text><rect fill="#F1F1F1" height="33.9688" rx="12.5" ry="12.5" style="stroke:#181818;stroke-width:0.5;" width="678" x="145.5" y="484.375"/><text fill="#000000" font-family="sans-serif" font-size="12" lengthAdjust="spacing" textLength="658" x="155.5" y="505.5137">remove all edges to/from loop events and remove any eventsets from events that reference a loop event</text><rect fill="#F1F1F1" height="33.9688" rx="12.5" ry="12.5" style="stroke:#181818;stroke-width:0.5;" width="145" x="412" y="538.3438"/><text fill="#000000" font-family="sans-serif" font-size="12" lengthAdjust="spacing" textLength="125" x="422" y="559.4824">get all break events</text><rect fill="#F1F1F1" height="33.9688" rx="12.5" ry="12.5" style="stroke:#181818;stroke-width:0.5;" width="349" x="310" y="636.3125"/><text fill="#000000" font-family="sans-serif" font-size="12" lengthAdjust="spacing" textLength="329" x="320" y="657.4512">get all direct successor events from the break event</text><rect fill="#F1F1F1" height="33.9688" rx="12.5" ry="12.5" style="stroke:#181818;stroke-width:0.5;" width="468" x="250.5" y="690.2813"/><text fill="#000000" font-family="sans-serif" font-size="12" lengthAdjust="spacing" textLength="448" x="260.5" y="711.4199">check if break event has a path back to the start node of parent graph</text><polygon fill="#F1F1F1" points="424,744.25,545,744.25,557,756.25,545,768.25,424,768.25,412,756.25,424,744.25" style="stroke:#181818;stroke-width:0.5;"/><text fill="#000000" font-family="sans-serif" font-size="11" lengthAdjust="spacing" textLength="121" x="424" y="760.0581">break event has path</text><text fill="#000000" font-family="sans-serif" font-size="11" lengthAdjust="spacing" textLength="23" x="389" y="753.6558">true</text><text fill="#000000" font-family="sans-serif" font-size="11" lengthAdjust="spacing" textLength="28" x="557" y="753.6558">false</text><rect fill="#F1F1F1" height="33.9688" rx="12.5" ry="12.5" style="stroke:#181818;stroke-width:0.5;" width="340" x="50" y="778.25"/><text fill="#000000" font-family="sans-serif" font-size="12" lengthAdjust="spacing" textLength="320" x="60" y="799.3887">get all direct successor events from the loop event</text><rect fill="#F1F1F1" height="33.9688" rx="12.5" ry="12.5" style="stroke:#181818;stroke-width:0.5;" width="374" x="33" y="832.2188"/><text fill="#000000" font-family="sans-serif" font-size="12" lengthAdjust="spacing" textLength="354" x="43" y="853.3574">add loop event type ineventset to each successor event</text><rect fill="#F1F1F1" height="33.9688" rx="12.5" ry="12.5" style="stroke:#181818;stroke-width:0.5;" width="419" x="539.5" y="778.25"/><text fill="#000000" font-family="sans-serif" font-size="12" lengthAdjust="spacing" textLength="399" x="549.5" y="799.3887">remove all edges from the break event to the successor events</text><rect fill="#F1F1F1" height="33.9688" rx="12.5" ry="12.5" style="stroke:#181818;stroke-width:0.5;" width="644" x="427" y="832.2188"/><text fill="#000000" font-family="sans-serif" font-size="12" lengthAdjust="spacing" textLength="624" x="437" y="853.3574">replace all in eventsets of the successor events that reference the break event with the loop event</text><polygon fill="#F1F1F1" points="484.5,872.1875,496.5,884.1875,484.5,896.1875,472.5,884.1875,484.5,872.1875" style="stroke:#181818;stroke-width:0.5;"/><rect fill="#F1F1F1" height="33.9688" rx="12.5" ry="12.5" style="stroke:#181818;stroke-width:0.5;" width="345" x="312" y="916.1875"/><text fill="#000000" font-family="sans-serif" font-size="12" lengthAdjust="spacing" textLength="325" x="322" y="937.3262">add edges from loop event to the successor events</text><polygon fill="#F1F1F1" points="484.5,592.3125,496.5,604.3125,484.5,616.3125,472.5,604.3125,484.5,592.3125" style="stroke:#181818;stroke-width:0.5;"/><polygon fill="#F1F1F1" points="425.5,970.1563,543.5,970.1563,555.5,982.1563,543.5,994.1563,425.5,994.1563,413.5,982.1563,425.5,970.1563" style="stroke:#181818;stroke-width:0.5;"/><text fill="#000000" font-family="sans-serif" font-size="11" lengthAdjust="spacing" textLength="118" x="425.5" y="985.9644">for each break event</text><rect fill="#F1F1F1" height="33.9688" rx="12.5" ry="12.5" style="stroke:#181818;stroke-width:0.5;" width="437" x="266" y="1014.1563"/><text fill="#000000" font-family="sans-serif" font-size="12" lengthAdjust="spacing" textLength="417" x="276" y="1035.2949">remove all nodes without path back to start event of parent graph</text><rect fill="#F1F1F1" height="33.9688" rx="12.5" ry="12.5" style="stroke:#181818;stroke-width:0.5;" width="160" x="404.5" y="1068.125"/><text fill="#000000" font-family="sans-serif" font-size="12" lengthAdjust="spacing" textLength="140" x="414.5" y="1089.2637">output updated graph</text><ellipse cx="484.5" cy="1144.0938" fill="none" rx="10" ry="10" style="stroke:#222222;stroke-width:1.5;"/><line style="stroke:#222222;stroke-width:2.5;" x1="478.3128" x2="490.6872" y1="1137.9066" y2="1150.2809"/><line style="stroke:#222222;stroke-width:2.5;" x1="490.6872" x2="478.3128" y1="1137.9066" y2="1150.2809"/><line style="stroke:#181818;stroke-width:1.0;" x1="484.5" x2="484.5" y1="60.2969" y2="80.2969"/><polygon fill="#181818" points="480.5,70.2969,484.5,80.2969,488.5,70.2969,484.5,74.2969" style="stroke:#181818;stroke-width:1.0;"/><line style="stroke:#181818;stroke-width:1.0;" x1="484.5" x2="484.5" y1="194.5313" y2="214.5313"/><polygon fill="#181818" points="480.5,204.5313,484.5,214.5313,488.5,204.5313,484.5,208.5313" style="stroke:#181818;stroke-width:1.0;"/><line style="stroke:#181818;stroke-width:1.0;" x1="484.5" x2="484.5" y1="248.5" y2="268.5"/><polygon fill="#181818" points="480.5,258.5,484.5,268.5,488.5,258.5,484.5,262.5" style="stroke:#181818;stroke-width:1.0;"/><line style="stroke:#181818;stroke-width:1.0;" x1="484.5" x2="484.5" y1="302.4688" y2="322.4688"/><polygon fill="#181818" points="480.5,312.4688,484.5,322.4688,488.5,312.4688,484.5,316.4688" style="stroke:#181818;stroke-width:1.0;"/><line style="stroke:#181818;stroke-width:1.0;" x1="484.5" x2="484.5" y1="356.4375" y2="376.4375"/><polygon fill="#181818" points="480.5,366.4375,484.5,376.4375,488.5,366.4375,484.5,370.4375" style="stroke:#181818;stroke-width:1.0;"/><line style="stroke:#181818;stroke-width:1.0;" x1="484.5" x2="484.5" y1="410.4063" y2="430.4063"/><polygon fill="#181818" points="480.5,420.4063,484.5,430.4063,488.5,420.4063,484.5,424.4063" style="stroke:#181818;stroke-width:1.0;"/><line style="stroke:#181818;stroke-width:1.0;" x1="484.5" x2="484.5" y1="464.375" y2="484.375"/><polygon fill="#181818" points="480.5,474.375,484.5,484.375,488.5,474.375,484.5,478.375" style="stroke:#181818;stroke-width:1.0;"/><line style="stroke:#181818;stroke-width:1.0;" x1="484.5" x2="484.5" y1="518.3438" y2="538.3438"/><polygon fill="#181818" points="480.5,528.3438,484.5,538.3438,488.5,528.3438,484.5,532.3438" style="stroke:#181818;stroke-width:1.0;"/><line style="stroke:#181818;stroke-width:1.0;" x1="484.5" x2="484.5" y1="670.2813" y2="690.2813"/><polygon fill="#181818" points="480.5,680.2813,484.5,690.2813,488.5,680.2813,484.5,684.2813" style="stroke:#181818;stroke-width:1.0;"/><line style="stroke:#181818;stroke-width:1.0;" x1="220" x2="220" y1="812.2188" y2="832.2188"/><polygon fill="#181818" points="216,822.2188,220,832.2188,224,822.2188,220,826.2188" style="stroke:#181818;stroke-width:1.0;"/><line style="stroke:#181818;stroke-width:1.0;" x1="749" x2="749" y1="812.2188" y2="832.2188"/><polygon fill="#181818" points="745,822.2188,749,832.2188,753,822.2188,749,826.2188" style="stroke:#181818;stroke-width:1.0;"/><line style="stroke:#181818;stroke-width:1.0;" x1="412" x2="220" y1="756.25" y2="756.25"/><line style="stroke:#181818;stroke-width:1.0;" x1="220" x2="220" y1="756.25" y2="778.25"/><polygon fill="#181818" points="216,768.25,220,778.25,224,768.25,220,772.25" style="stroke:#181818;stroke-width:1.0;"/><line style="stroke:#181818;stroke-width:1.0;" x1="557" x2="749" y1="756.25" y2="756.25"/><line style="stroke:#181818;stroke-width:1.0;" x1="749" x2="749" y1="756.25" y2="778.25"/><polygon fill="#181818" points="745,768.25,749,778.25,753,768.25,749,772.25" style="stroke:#181818;stroke-width:1.0;"/><line style="stroke:#181818;stroke-width:1.0;" x1="220" x2="220" y1="866.1875" y2="884.1875"/><line style="stroke:#181818;stroke-width:1.0;" x1="220" x2="472.5" y1="884.1875" y2="884.1875"/><polygon fill="#181818" points="462.5,880.1875,472.5,884.1875,462.5,888.1875,466.5,884.1875" style="stroke:#181818;stroke-width:1.0;"/><line style="stroke:#181818;stroke-width:1.0;" x1="749" x2="749" y1="866.1875" y2="884.1875"/><line style="stroke:#181818;stroke-width:1.0;" x1="749" x2="496.5" y1="884.1875" y2="884.1875"/><polygon fill="#181818" points="506.5,880.1875,496.5,884.1875,506.5,888.1875,502.5,884.1875" style="stroke:#181818;stroke-width:1.0;"/><line style="stroke:#181818;stroke-width:1.0;" x1="484.5" x2="484.5" y1="724.25" y2="744.25"/><polygon fill="#181818" points="480.5,734.25,484.5,744.25,488.5,734.25,484.5,738.25" style="stroke:#181818;stroke-width:1.0;"/><line style="stroke:#181818;stroke-width:1.0;" x1="484.5" x2="484.5" y1="896.1875" y2="916.1875"/><polygon fill="#181818" points="480.5,906.1875,484.5,916.1875,488.5,906.1875,484.5,910.1875" style="stroke:#181818;stroke-width:1.0;"/><line style="stroke:#181818;stroke-width:1.0;" x1="484.5" x2="484.5" y1="616.3125" y2="636.3125"/><polygon fill="#181818" points="480.5,626.3125,484.5,636.3125,488.5,626.3125,484.5,630.3125" style="stroke:#181818;stroke-width:1.0;"/><line style="stroke:#181818;stroke-width:1.0;" x1="555.5" x2="1085" y1="982.1563" y2="982.1563"/><polygon fill="#181818" points="1081,803.2344,1085,793.2344,1089,803.2344,1085,799.2344" style="stroke:#181818;stroke-width:1.0;"/><line style="stroke:#181818;stroke-width:1.0;" x1="1085" x2="1085" y1="604.3125" y2="982.1563"/><line style="stroke:#181818;stroke-width:1.0;" x1="1085" x2="496.5" y1="604.3125" y2="604.3125"/><polygon fill="#181818" points="506.5,600.3125,496.5,604.3125,506.5,608.3125,502.5,604.3125" style="stroke:#181818;stroke-width:1.0;"/><line style="stroke:#181818;stroke-width:1.0;" x1="484.5" x2="484.5" y1="950.1563" y2="970.1563"/><polygon fill="#181818" points="480.5,960.1563,484.5,970.1563,488.5,960.1563,484.5,964.1563" style="stroke:#181818;stroke-width:1.0;"/><line style="stroke:#181818;stroke-width:1.0;" x1="484.5" x2="484.5" y1="572.3125" y2="592.3125"/><polygon fill="#181818" points="480.5,582.3125,484.5,592.3125,488.5,582.3125,484.5,586.3125" style="stroke:#181818;stroke-width:1.0;"/><line style="stroke:#181818;stroke-width:1.0;" x1="484.5" x2="484.5" y1="994.1563" y2="1014.1563"/><polygon fill="#181818" points="480.5,1004.1563,484.5,1014.1563,488.5,1004.1563,484.5,1008.1563" style="stroke:#181818;stroke-width:1.0;"/><line style="stroke:#181818;stroke-width:1.0;" x1="484.5" x2="484.5" y1="1048.125" y2="1068.125"/><polygon fill="#181818" points="480.5,1058.125,484.5,1068.125,488.5,1058.125,484.5,1062.125" style="stroke:#181818;stroke-width:1.0;"/><line style="stroke:#181818;stroke-width:1.0;" x1="484.5" x2="484.5" y1="114.2656" y2="160.5625"/><polygon fill="#181818" points="480.5,150.5625,484.5,160.5625,488.5,150.5625,484.5,154.5625" style="stroke:#181818;stroke-width:1.0;"/><line style="stroke:#181818;stroke-width:1.0;" x1="484.5" x2="484.5" y1="1102.0938" y2="1134.0938"/><polygon fill="#181818" points="480.5,1124.0938,484.5,1134.0938,488.5,1124.0938,484.5,1128.0938" style="stroke:#181818;stroke-width:1.0;"/><!--SRC=[hLNBRiGW3BplLrWvxPvwRywzzHyY2aw2ceK8d5PLrN-l8Oy2oVOXTIziWcViCMC2030AHvgqDL19CSXf48JDD2fULDCvCVRDgwQ-6QmT6tn1GnMyds3vUMBuzdIlpJWHL8ySMp6pTgWWe4CMHaBa0s4KX927m5PlwCxPQOJgAhG1CNJMCV1QRTinGOS4iGWFqXg3agi4idCTwuwTo6k5O5kW7Y5KNkSq3iT1I0oH2mXdHkBasdGHbt761UXjH3yhMfcJdIA9K0fGTGnedRqom7fSwRZadA3-dKxarlrP9VVpfiY4y3yavW2RYTvLTxKlo2SzB1HaxoBB5uEFLba3pLiY8qQkpUm5SLIBx36MAxvlQqZuv50y7vR5FKD1sQiCgTZJai1FKgBtrgqrRFeJwdfF8tkKpw3RD0nwmK9vHBZbJuAt5tFC_ZDsFkDqWlR4p7WkAGFX9J0PE9ERy08xsD-atMfhPeV2C6o-zT2YVuNiomnxCXpODETMy78vphGppr7_jqOMYkfRdFEu1D9iP9O9spMcy5sP_M263gGQfTlJOISJOULG_QHfTZ6yzde8ZGnHeV59TPURmnWCDry0uNRCN9dSYDzRyfwXuKkmV4VAa73fnDi-VHF_Vvm-0G00]--></g></svg>