<?xml version="1.0" encoding="us-ascii" standalone="no"?><svg xmlns="http://www.w3.org/2000/svg" xmlns:xlink="http://www.w3.org/1999/xlink" contentStyleType="text/css" height="417px" preserveAspectRatio="none" style="width:252px;height:417px;background:#FFFFFF;" version="1.1" viewBox="0 0 252 417" width="252px" zoomAndPan="magnify"><defs/><g><rect fill="none" height="395.9609" style="stroke:#000000;stroke-width:1.5;" width="230" x="11" y="11"/><path d="M216,11 L216,20.4883 L206,30.4883 L11,30.4883 " fill="none" style="stroke:#000000;stroke-width:1.5;"/><text fill="#000000" font-family="sans-serif" font-size="14" lengthAdjust="spacing" textLength="195" x="14" y="25.5352">bunched_XORFork_ANDFork</text><rect fill="none" height="354.0195" style="stroke:#000000;stroke-width:1.5;" width="210" x="21" y="40.9414"/><path d="M226,40.9414 L226,50.4297 L216,60.4297 L21,60.4297 " fill="none" style="stroke:#000000;stroke-width:1.5;"/><text fill="#000000" font-family="sans-serif" font-size="14" lengthAdjust="spacing" textLength="195" x="24" y="55.4766">bunched_XORFork_ANDFork</text><rect fill="#008000" height="34.1328" rx="12.5" ry="12.5" style="stroke:#181818;stroke-width:0.5;" width="28" x="135" y="70.4297"/><text fill="#000000" font-family="sans-serif" font-size="12" lengthAdjust="spacing" textLength="8" x="145" y="92.0313">A</text><polygon fill="#F1F1F1" points="137,124.5625,161,124.5625,173,136.5625,161,148.5625,137,148.5625,125,136.5625,137,124.5625" style="stroke:#181818;stroke-width:0.5;"/><text fill="#000000" font-family="sans-serif" font-size="11" lengthAdjust="spacing" textLength="23" x="137.5" y="140.7197">XOR</text><text fill="#000000" font-family="sans-serif" font-size="11" lengthAdjust="spacing" textLength="22" x="103" y="134.2422">true</text><text fill="#000000" font-family="sans-serif" font-size="11" lengthAdjust="spacing" textLength="25" x="173" y="134.2422">false</text><rect fill="#555555" height="6" rx="2.5" ry="2.5" style="stroke:#555555;stroke-width:1.0;" width="112" x="47.5" y="158.5625"/><rect fill="#F1F1F1" height="34.1328" rx="12.5" ry="12.5" style="stroke:#181818;stroke-width:0.5;" width="29" x="61.5" y="184.5625"/><text fill="#000000" font-family="sans-serif" font-size="12" lengthAdjust="spacing" textLength="9" x="71.5" y="206.1641">D</text><rect fill="#F1F1F1" height="34.1328" rx="12.5" ry="12.5" style="stroke:#181818;stroke-width:0.5;" width="27" x="118.5" y="184.5625"/><text fill="#000000" font-family="sans-serif" font-size="12" lengthAdjust="spacing" textLength="7" x="128.5" y="206.1641">E</text><rect fill="#555555" height="6" rx="2.5" ry="2.5" style="stroke:#555555;stroke-width:1.0;" width="112" x="47.5" y="238.6953"/><rect fill="#F1F1F1" height="34.1328" rx="12.5" ry="12.5" style="stroke:#181818;stroke-width:0.5;" width="27" x="90" y="264.6953"/><text fill="#000000" font-family="sans-serif" font-size="12" lengthAdjust="spacing" textLength="7" x="100" y="286.2969">B</text><rect fill="#F1F1F1" height="34.1328" rx="12.5" ry="12.5" style="stroke:#181818;stroke-width:0.5;" width="28" x="180.5" y="158.5625"/><text fill="#000000" font-family="sans-serif" font-size="12" lengthAdjust="spacing" textLength="8" x="190.5" y="180.1641">C</text><polygon fill="#F1F1F1" points="149,304.8281,161,316.8281,149,328.8281,137,316.8281,149,304.8281" style="stroke:#181818;stroke-width:0.5;"/><rect fill="#FF0000" height="34.1328" rx="12.5" ry="12.5" style="stroke:#181818;stroke-width:0.5;" width="26" x="136" y="348.8281"/><text fill="#000000" font-family="sans-serif" font-size="12" lengthAdjust="spacing" textLength="6" x="146" y="370.4297">F</text><line style="stroke:#181818;stroke-width:1.0;" x1="76" x2="76" y1="164.5625" y2="184.5625"/><polygon fill="#181818" points="72,174.5625,76,184.5625,80,174.5625,76,178.5625" style="stroke:#181818;stroke-width:1.0;"/><line style="stroke:#181818;stroke-width:1.0;" x1="132" x2="132" y1="164.5625" y2="184.5625"/><polygon fill="#181818" points="128,174.5625,132,184.5625,136,174.5625,132,178.5625" style="stroke:#181818;stroke-width:1.0;"/><line style="stroke:#181818;stroke-width:1.0;" x1="76" x2="76" y1="218.6953" y2="238.6953"/><polygon fill="#181818" points="72,228.6953,76,238.6953,80,228.6953,76,232.6953" style="stroke:#181818;stroke-width:1.0;"/><line style="stroke:#181818;stroke-width:1.0;" x1="132" x2="132" y1="218.6953" y2="238.6953"/><polygon fill="#181818" points="128,228.6953,132,238.6953,136,228.6953,132,232.6953" style="stroke:#181818;stroke-width:1.0;"/><line style="stroke:#181818;stroke-width:1.0;" x1="103.5" x2="103.5" y1="244.6953" y2="264.6953"/><polygon fill="#181818" points="99.5,254.6953,103.5,264.6953,107.5,254.6953,103.5,258.6953" style="stroke:#181818;stroke-width:1.0;"/><line style="stroke:#181818;stroke-width:1.0;" x1="125" x2="103.5" y1="136.5625" y2="136.5625"/><line style="stroke:#181818;stroke-width:1.0;" x1="103.5" x2="103.5" y1="136.5625" y2="158.5625"/><polygon fill="#181818" points="99.5,148.5625,103.5,158.5625,107.5,148.5625,103.5,152.5625" style="stroke:#181818;stroke-width:1.0;"/><line style="stroke:#181818;stroke-width:1.0;" x1="173" x2="194.5" y1="136.5625" y2="136.5625"/><line style="stroke:#181818;stroke-width:1.0;" x1="194.5" x2="194.5" y1="136.5625" y2="158.5625"/><polygon fill="#181818" points="190.5,148.5625,194.5,158.5625,198.5,148.5625,194.5,152.5625" style="stroke:#181818;stroke-width:1.0;"/><line style="stroke:#181818;stroke-width:1.0;" x1="103.5" x2="103.5" y1="298.8281" y2="316.8281"/><line style="stroke:#181818;stroke-width:1.0;" x1="103.5" x2="137" y1="316.8281" y2="316.8281"/><polygon fill="#181818" points="127,312.8281,137,316.8281,127,320.8281,131,316.8281" style="stroke:#181818;stroke-width:1.0;"/><line style="stroke:#181818;stroke-width:1.0;" x1="194.5" x2="194.5" y1="192.6953" y2="316.8281"/><line style="stroke:#181818;stroke-width:1.0;" x1="194.5" x2="161" y1="316.8281" y2="316.8281"/><polygon fill="#181818" points="171,312.8281,161,316.8281,171,320.8281,167,316.8281" style="stroke:#181818;stroke-width:1.0;"/><line style="stroke:#181818;stroke-width:1.0;" x1="149" x2="149" y1="104.5625" y2="124.5625"/><polygon fill="#181818" points="145,114.5625,149,124.5625,153,114.5625,149,118.5625" style="stroke:#181818;stroke-width:1.0;"/><line style="stroke:#181818;stroke-width:1.0;" x1="149" x2="149" y1="328.8281" y2="348.8281"/><polygon fill="#181818" points="145,338.8281,149,348.8281,153,338.8281,149,342.8281" style="stroke:#181818;stroke-width:1.0;"/><!--SRC=[TP312i8m44Jl_OgbNj9VI4_LsgC5JzvAD9isA9iIavFuxoOLMaDmBWCxZs5tPs6TTjeGb5TFjmdbSEdFdR7teJcrqKju5H0qMkFd_zJ2HEr6YqYygTU9Li02Ne6Ra80vwx5QmoWL2f9156_h308n2aqvUanH99btylq6uUE9m9G8bcx23pyGIQssionAtdtJsB-yetX_0000]--></g></svg>