<?xml version="1.0" encoding="us-ascii" standalone="no"?><svg xmlns="http://www.w3.org/2000/svg" xmlns:xlink="http://www.w3.org/1999/xlink" contentStyleType="text/css" height="375px" preserveAspectRatio="none" style="width:302px;height:375px;background:#FFFFFF;" version="1.1" viewBox="0 0 302 375" width="302px" zoomAndPan="magnify"><defs/><g><rect fill="none" height="353.8281" style="stroke:#000000;stroke-width:1.5;" width="280" x="11" y="11"/><path d="M266,11 L266,20.4883 L256,30.4883 L11,30.4883 " fill="none" style="stroke:#000000;stroke-width:1.5;"/><text fill="#000000" font-family="sans-serif" font-size="14" lengthAdjust="spacing" textLength="245" x="14" y="25.5352">bunched_merge_XORFork_XORFork</text><rect fill="none" height="311.8867" style="stroke:#000000;stroke-width:1.5;" width="260" x="21" y="40.9414"/><path d="M276,40.9414 L276,50.4297 L266,60.4297 L21,60.4297 " fill="none" style="stroke:#000000;stroke-width:1.5;"/><text fill="#000000" font-family="sans-serif" font-size="14" lengthAdjust="spacing" textLength="245" x="24" y="55.4766">bunched_merge_XORFork_XORFork</text><rect fill="#008000" height="34.1328" rx="12.5" ry="12.5" style="stroke:#181818;stroke-width:0.5;" width="28" x="161.5" y="70.4297"/><text fill="#000000" font-family="sans-serif" font-size="12" lengthAdjust="spacing" textLength="8" x="171.5" y="92.0313">A</text><polygon fill="#F1F1F1" points="163.5,124.5625,187.5,124.5625,199.5,136.5625,187.5,148.5625,163.5,148.5625,151.5,136.5625,163.5,124.5625" style="stroke:#181818;stroke-width:0.5;"/><text fill="#000000" font-family="sans-serif" font-size="11" lengthAdjust="spacing" textLength="23" x="164" y="140.7197">XOR</text><text fill="#000000" font-family="sans-serif" font-size="11" lengthAdjust="spacing" textLength="22" x="129.5" y="134.2422">true</text><text fill="#000000" font-family="sans-serif" font-size="11" lengthAdjust="spacing" textLength="25" x="199.5" y="134.2422">false</text><polygon fill="#F1F1F1" points="116.5,158.5625,140.5,158.5625,152.5,170.5625,140.5,182.5625,116.5,182.5625,104.5,170.5625,116.5,158.5625" style="stroke:#181818;stroke-width:0.5;"/><text fill="#000000" font-family="sans-serif" font-size="11" lengthAdjust="spacing" textLength="23" x="117" y="174.7197">XOR</text><text fill="#000000" font-family="sans-serif" font-size="11" lengthAdjust="spacing" textLength="22" x="82.5" y="168.2422">true</text><text fill="#000000" font-family="sans-serif" font-size="11" lengthAdjust="spacing" textLength="25" x="152.5" y="168.2422">false</text><rect fill="#F1F1F1" height="34.1328" rx="12.5" ry="12.5" style="stroke:#181818;stroke-width:0.5;" width="29" x="80" y="192.5625"/><text fill="#000000" font-family="sans-serif" font-size="12" lengthAdjust="spacing" textLength="9" x="90" y="214.1641">D</text><rect fill="#F1F1F1" height="34.1328" rx="12.5" ry="12.5" style="stroke:#181818;stroke-width:0.5;" width="27" x="149" y="192.5625"/><text fill="#000000" font-family="sans-serif" font-size="12" lengthAdjust="spacing" textLength="7" x="159" y="214.1641">E</text><polygon fill="#F1F1F1" points="128.5,232.6953,140.5,244.6953,128.5,256.6953,116.5,244.6953,128.5,232.6953" style="stroke:#181818;stroke-width:0.5;"/><rect fill="#F1F1F1" height="34.1328" rx="12.5" ry="12.5" style="stroke:#181818;stroke-width:0.5;" width="28" x="208.5" y="158.5625"/><text fill="#000000" font-family="sans-serif" font-size="12" lengthAdjust="spacing" textLength="8" x="218.5" y="180.1641">C</text><polygon fill="#F1F1F1" points="175.5,262.6953,187.5,274.6953,175.5,286.6953,163.5,274.6953,175.5,262.6953" style="stroke:#181818;stroke-width:0.5;"/><rect fill="#FF0000" height="34.1328" rx="12.5" ry="12.5" style="stroke:#181818;stroke-width:0.5;" width="26" x="162.5" y="306.6953"/><text fill="#000000" font-family="sans-serif" font-size="12" lengthAdjust="spacing" textLength="6" x="172.5" y="328.2969">F</text><line style="stroke:#181818;stroke-width:1.0;" x1="104.5" x2="94.5" y1="170.5625" y2="170.5625"/><line style="stroke:#181818;stroke-width:1.0;" x1="94.5" x2="94.5" y1="170.5625" y2="192.5625"/><polygon fill="#181818" points="90.5,182.5625,94.5,192.5625,98.5,182.5625,94.5,186.5625" style="stroke:#181818;stroke-width:1.0;"/><line style="stroke:#181818;stroke-width:1.0;" x1="152.5" x2="162.5" y1="170.5625" y2="170.5625"/><line style="stroke:#181818;stroke-width:1.0;" x1="162.5" x2="162.5" y1="170.5625" y2="192.5625"/><polygon fill="#181818" points="158.5,182.5625,162.5,192.5625,166.5,182.5625,162.5,186.5625" style="stroke:#181818;stroke-width:1.0;"/><line style="stroke:#181818;stroke-width:1.0;" x1="94.5" x2="94.5" y1="226.6953" y2="244.6953"/><line style="stroke:#181818;stroke-width:1.0;" x1="94.5" x2="116.5" y1="244.6953" y2="244.6953"/><polygon fill="#181818" points="106.5,240.6953,116.5,244.6953,106.5,248.6953,110.5,244.6953" style="stroke:#181818;stroke-width:1.0;"/><line style="stroke:#181818;stroke-width:1.0;" x1="162.5" x2="162.5" y1="226.6953" y2="244.6953"/><line style="stroke:#181818;stroke-width:1.0;" x1="162.5" x2="140.5" y1="244.6953" y2="244.6953"/><polygon fill="#181818" points="150.5,240.6953,140.5,244.6953,150.5,248.6953,146.5,244.6953" style="stroke:#181818;stroke-width:1.0;"/><line style="stroke:#181818;stroke-width:1.0;" x1="151.5" x2="128.5" y1="136.5625" y2="136.5625"/><line style="stroke:#181818;stroke-width:1.0;" x1="128.5" x2="128.5" y1="136.5625" y2="158.5625"/><polygon fill="#181818" points="124.5,148.5625,128.5,158.5625,132.5,148.5625,128.5,152.5625" style="stroke:#181818;stroke-width:1.0;"/><line style="stroke:#181818;stroke-width:1.0;" x1="199.5" x2="222.5" y1="136.5625" y2="136.5625"/><line style="stroke:#181818;stroke-width:1.0;" x1="222.5" x2="222.5" y1="136.5625" y2="158.5625"/><polygon fill="#181818" points="218.5,148.5625,222.5,158.5625,226.5,148.5625,222.5,152.5625" style="stroke:#181818;stroke-width:1.0;"/><line style="stroke:#181818;stroke-width:1.0;" x1="128.5" x2="128.5" y1="256.6953" y2="274.6953"/><line style="stroke:#181818;stroke-width:1.0;" x1="128.5" x2="163.5" y1="274.6953" y2="274.6953"/><polygon fill="#181818" points="153.5,270.6953,163.5,274.6953,153.5,278.6953,157.5,274.6953" style="stroke:#181818;stroke-width:1.0;"/><line style="stroke:#181818;stroke-width:1.0;" x1="222.5" x2="222.5" y1="192.6953" y2="274.6953"/><line style="stroke:#181818;stroke-width:1.0;" x1="222.5" x2="187.5" y1="274.6953" y2="274.6953"/><polygon fill="#181818" points="197.5,270.6953,187.5,274.6953,197.5,278.6953,193.5,274.6953" style="stroke:#181818;stroke-width:1.0;"/><line style="stroke:#181818;stroke-width:1.0;" x1="175.5" x2="175.5" y1="104.5625" y2="124.5625"/><polygon fill="#181818" points="171.5,114.5625,175.5,124.5625,179.5,114.5625,175.5,118.5625" style="stroke:#181818;stroke-width:1.0;"/><line style="stroke:#181818;stroke-width:1.0;" x1="175.5" x2="175.5" y1="286.6953" y2="306.6953"/><polygon fill="#181818" points="171.5,296.6953,175.5,306.6953,179.5,296.6953,175.5,300.6953" style="stroke:#181818;stroke-width:1.0;"/><!--SRC=[AqWiAiaioSpFKr1AAirBpaXDYSzDBKfFZO_m3tBBByg6qKeArLmAG91Ub5zQG4WjM2K8AASNfQRcMJbQmqKoqnGqWCeq5KeoKlCKD4gAIbCruP94AG01AnTh5B7KdE9K1OsqH225HR4hckAybCmqBe9QhPmHsb2rA1UbfbYvGMI1Cf0muQe50000]--></g></svg>