<?xml version="1.0" encoding="us-ascii" standalone="no"?><svg xmlns="http://www.w3.org/2000/svg" xmlns:xlink="http://www.w3.org/1999/xlink" contentStyleType="text/css" height="354px" preserveAspectRatio="none" style="width:293px;height:354px;background:#FFFFFF;" version="1.1" viewBox="0 0 293 354" width="293px" zoomAndPan="magnify"><defs/><g><rect fill="none" height="332.8281" style="stroke:#000000;stroke-width:1.5;" width="271" x="11" y="11"/><path d="M257,11 L257,20.4883 L247,30.4883 L11,30.4883 " fill="none" style="stroke:#000000;stroke-width:1.5;"/><text fill="#000000" font-family="sans-serif" font-size="14" lengthAdjust="spacing" textLength="236" x="14" y="25.5352">bunched_merge_XORFork_ORFork</text><rect fill="none" height="290.8867" style="stroke:#000000;stroke-width:1.5;" width="251" x="21" y="40.9414"/><path d="M267,40.9414 L267,50.4297 L257,60.4297 L21,60.4297 " fill="none" style="stroke:#000000;stroke-width:1.5;"/><text fill="#000000" font-family="sans-serif" font-size="14" lengthAdjust="spacing" textLength="236" x="24" y="55.4766">bunched_merge_XORFork_ORFork</text><rect fill="#008000" height="34.1328" rx="12.5" ry="12.5" style="stroke:#181818;stroke-width:0.5;" width="28" x="155.5" y="70.4297"/><text fill="#000000" font-family="sans-serif" font-size="12" lengthAdjust="spacing" textLength="8" x="165.5" y="92.0313">A</text><polygon fill="#F1F1F1" points="157.5,124.5625,181.5,124.5625,193.5,136.5625,181.5,148.5625,157.5,148.5625,145.5,136.5625,157.5,124.5625" style="stroke:#181818;stroke-width:0.5;"/><text fill="#000000" font-family="sans-serif" font-size="11" lengthAdjust="spacing" textLength="23" x="158" y="140.7197">XOR</text><text fill="#000000" font-family="sans-serif" font-size="11" lengthAdjust="spacing" textLength="22" x="123.5" y="134.2422">true</text><text fill="#000000" font-family="sans-serif" font-size="11" lengthAdjust="spacing" textLength="25" x="193.5" y="134.2422">false</text><line style="stroke:#181818;stroke-width:1.5;" x1="96.5" x2="152.5" y1="158.5625" y2="158.5625"/><rect fill="#F1F1F1" height="34.1328" rx="12.5" ry="12.5" style="stroke:#181818;stroke-width:0.5;" width="29" x="82" y="180.0625"/><text fill="#000000" font-family="sans-serif" font-size="12" lengthAdjust="spacing" textLength="9" x="92" y="201.6641">D</text><rect fill="#F1F1F1" height="34.1328" rx="12.5" ry="12.5" style="stroke:#181818;stroke-width:0.5;" width="27" x="139" y="180.0625"/><text fill="#000000" font-family="sans-serif" font-size="12" lengthAdjust="spacing" textLength="7" x="149" y="201.6641">E</text><line style="stroke:#181818;stroke-width:1.5;" x1="96.5" x2="152.5" y1="234.1953" y2="234.1953"/><rect fill="#F1F1F1" height="34.1328" rx="12.5" ry="12.5" style="stroke:#181818;stroke-width:0.5;" width="28" x="201" y="158.5625"/><text fill="#000000" font-family="sans-serif" font-size="12" lengthAdjust="spacing" textLength="8" x="211" y="180.1641">C</text><polygon fill="#F1F1F1" points="169.5,241.6953,181.5,253.6953,169.5,265.6953,157.5,253.6953,169.5,241.6953" style="stroke:#181818;stroke-width:0.5;"/><rect fill="#FF0000" height="34.1328" rx="12.5" ry="12.5" style="stroke:#181818;stroke-width:0.5;" width="26" x="156.5" y="285.6953"/><text fill="#000000" font-family="sans-serif" font-size="12" lengthAdjust="spacing" textLength="6" x="166.5" y="307.2969">F</text><line style="stroke:#181818;stroke-width:1.0;" x1="96.5" x2="96.5" y1="160.0625" y2="180.0625"/><polygon fill="#181818" points="92.5,170.0625,96.5,180.0625,100.5,170.0625,96.5,174.0625" style="stroke:#181818;stroke-width:1.0;"/><line style="stroke:#181818;stroke-width:1.0;" x1="152.5" x2="152.5" y1="160.0625" y2="180.0625"/><polygon fill="#181818" points="148.5,170.0625,152.5,180.0625,156.5,170.0625,152.5,174.0625" style="stroke:#181818;stroke-width:1.0;"/><line style="stroke:#181818;stroke-width:1.0;" x1="96.5" x2="96.5" y1="214.1953" y2="234.1953"/><polygon fill="#181818" points="92.5,224.1953,96.5,234.1953,100.5,224.1953,96.5,228.1953" style="stroke:#181818;stroke-width:1.0;"/><line style="stroke:#181818;stroke-width:1.0;" x1="152.5" x2="152.5" y1="214.1953" y2="234.1953"/><polygon fill="#181818" points="148.5,224.1953,152.5,234.1953,156.5,224.1953,152.5,228.1953" style="stroke:#181818;stroke-width:1.0;"/><line style="stroke:#181818;stroke-width:1.0;" x1="145.5" x2="124" y1="136.5625" y2="136.5625"/><line style="stroke:#181818;stroke-width:1.0;" x1="124" x2="124" y1="136.5625" y2="158.5625"/><polygon fill="#181818" points="120,148.5625,124,158.5625,128,148.5625,124,152.5625" style="stroke:#181818;stroke-width:1.0;"/><line style="stroke:#181818;stroke-width:1.0;" x1="193.5" x2="215" y1="136.5625" y2="136.5625"/><line style="stroke:#181818;stroke-width:1.0;" x1="215" x2="215" y1="136.5625" y2="158.5625"/><polygon fill="#181818" points="211,148.5625,215,158.5625,219,148.5625,215,152.5625" style="stroke:#181818;stroke-width:1.0;"/><line style="stroke:#181818;stroke-width:1.0;" x1="124" x2="124" y1="235.6953" y2="253.6953"/><line style="stroke:#181818;stroke-width:1.0;" x1="124" x2="157.5" y1="253.6953" y2="253.6953"/><polygon fill="#181818" points="147.5,249.6953,157.5,253.6953,147.5,257.6953,151.5,253.6953" style="stroke:#181818;stroke-width:1.0;"/><line style="stroke:#181818;stroke-width:1.0;" x1="215" x2="215" y1="192.6953" y2="253.6953"/><line style="stroke:#181818;stroke-width:1.0;" x1="215" x2="181.5" y1="253.6953" y2="253.6953"/><polygon fill="#181818" points="191.5,249.6953,181.5,253.6953,191.5,257.6953,187.5,253.6953" style="stroke:#181818;stroke-width:1.0;"/><line style="stroke:#181818;stroke-width:1.0;" x1="169.5" x2="169.5" y1="104.5625" y2="124.5625"/><polygon fill="#181818" points="165.5,114.5625,169.5,124.5625,173.5,114.5625,169.5,118.5625" style="stroke:#181818;stroke-width:1.0;"/><line style="stroke:#181818;stroke-width:1.0;" x1="169.5" x2="169.5" y1="265.6953" y2="285.6953"/><polygon fill="#181818" points="165.5,275.6953,169.5,285.6953,173.5,275.6953,169.5,279.6953" style="stroke:#181818;stroke-width:1.0;"/><!--SRC=[XP0n3eCm34LtJc7H9LmXJ5LRragTs51Qd12L6cIIgUhTcu04IXdw5qls-z-oHyNEEZiGv7TFZmxRveLiiAcljshWPxEK7DuP11aU_FW7dS6eWs54aiToxLWD8j05k0u9X6EFnJgCciRUkgGJ9S_bdW9bbAKzUqbPfFOd5Vi9GMWLIhfSdZPhi5czNSBOocgPni3v3Tdd2m00]--></g></svg>