<?xml version="1.0" encoding="us-ascii" standalone="no"?><svg xmlns="http://www.w3.org/2000/svg" xmlns:xlink="http://www.w3.org/1999/xlink" contentStyleType="text/css" height="407px" preserveAspectRatio="none" style="width:242px;height:407px;background:#FFFFFF;" version="1.1" viewBox="0 0 242 407" width="242px" zoomAndPan="magnify"><defs/><g><rect fill="none" height="385.4609" style="stroke:#000000;stroke-width:1.5;" width="220" x="11" y="11"/><path d="M206,11 L206,20.4883 L196,30.4883 L11,30.4883 " fill="none" style="stroke:#000000;stroke-width:1.5;"/><text fill="#000000" font-family="sans-serif" font-size="14" lengthAdjust="spacing" textLength="185" x="14" y="25.5352">bunched_XORFork_ORFork</text><rect fill="none" height="343.5195" style="stroke:#000000;stroke-width:1.5;" width="200" x="21" y="40.9414"/><path d="M216,40.9414 L216,50.4297 L206,60.4297 L21,60.4297 " fill="none" style="stroke:#000000;stroke-width:1.5;"/><text fill="#000000" font-family="sans-serif" font-size="14" lengthAdjust="spacing" textLength="185" x="24" y="55.4766">bunched_XORFork_ORFork</text><rect fill="#008000" height="34.1328" rx="12.5" ry="12.5" style="stroke:#181818;stroke-width:0.5;" width="28" x="130" y="70.4297"/><text fill="#000000" font-family="sans-serif" font-size="12" lengthAdjust="spacing" textLength="8" x="140" y="92.0313">A</text><polygon fill="#F1F1F1" points="132,124.5625,156,124.5625,168,136.5625,156,148.5625,132,148.5625,120,136.5625,132,124.5625" style="stroke:#181818;stroke-width:0.5;"/><text fill="#000000" font-family="sans-serif" font-size="11" lengthAdjust="spacing" textLength="23" x="132.5" y="140.7197">XOR</text><text fill="#000000" font-family="sans-serif" font-size="11" lengthAdjust="spacing" textLength="22" x="98" y="134.2422">true</text><text fill="#000000" font-family="sans-serif" font-size="11" lengthAdjust="spacing" textLength="25" x="168" y="134.2422">false</text><line style="stroke:#181818;stroke-width:1.5;" x1="71" x2="127" y1="158.5625" y2="158.5625"/><rect fill="#F1F1F1" height="34.1328" rx="12.5" ry="12.5" style="stroke:#181818;stroke-width:0.5;" width="29" x="56.5" y="180.0625"/><text fill="#000000" font-family="sans-serif" font-size="12" lengthAdjust="spacing" textLength="9" x="66.5" y="201.6641">D</text><rect fill="#F1F1F1" height="34.1328" rx="12.5" ry="12.5" style="stroke:#181818;stroke-width:0.5;" width="27" x="113.5" y="180.0625"/><text fill="#000000" font-family="sans-serif" font-size="12" lengthAdjust="spacing" textLength="7" x="123.5" y="201.6641">E</text><line style="stroke:#181818;stroke-width:1.5;" x1="71" x2="127" y1="234.1953" y2="234.1953"/><rect fill="#F1F1F1" height="34.1328" rx="12.5" ry="12.5" style="stroke:#181818;stroke-width:0.5;" width="27" x="85" y="254.1953"/><text fill="#000000" font-family="sans-serif" font-size="12" lengthAdjust="spacing" textLength="7" x="95" y="275.7969">B</text><rect fill="#F1F1F1" height="34.1328" rx="12.5" ry="12.5" style="stroke:#181818;stroke-width:0.5;" width="28" x="175.5" y="158.5625"/><text fill="#000000" font-family="sans-serif" font-size="12" lengthAdjust="spacing" textLength="8" x="185.5" y="180.1641">C</text><polygon fill="#F1F1F1" points="144,294.3281,156,306.3281,144,318.3281,132,306.3281,144,294.3281" style="stroke:#181818;stroke-width:0.5;"/><rect fill="#FF0000" height="34.1328" rx="12.5" ry="12.5" style="stroke:#181818;stroke-width:0.5;" width="26" x="131" y="338.3281"/><text fill="#000000" font-family="sans-serif" font-size="12" lengthAdjust="spacing" textLength="6" x="141" y="359.9297">F</text><line style="stroke:#181818;stroke-width:1.0;" x1="71" x2="71" y1="160.0625" y2="180.0625"/><polygon fill="#181818" points="67,170.0625,71,180.0625,75,170.0625,71,174.0625" style="stroke:#181818;stroke-width:1.0;"/><line style="stroke:#181818;stroke-width:1.0;" x1="127" x2="127" y1="160.0625" y2="180.0625"/><polygon fill="#181818" points="123,170.0625,127,180.0625,131,170.0625,127,174.0625" style="stroke:#181818;stroke-width:1.0;"/><line style="stroke:#181818;stroke-width:1.0;" x1="71" x2="71" y1="214.1953" y2="234.1953"/><polygon fill="#181818" points="67,224.1953,71,234.1953,75,224.1953,71,228.1953" style="stroke:#181818;stroke-width:1.0;"/><line style="stroke:#181818;stroke-width:1.0;" x1="127" x2="127" y1="214.1953" y2="234.1953"/><polygon fill="#181818" points="123,224.1953,127,234.1953,131,224.1953,127,228.1953" style="stroke:#181818;stroke-width:1.0;"/><line style="stroke:#181818;stroke-width:1.0;" x1="98.5" x2="98.5" y1="235.6953" y2="254.1953"/><polygon fill="#181818" points="94.5,244.1953,98.5,254.1953,102.5,244.1953,98.5,248.1953" style="stroke:#181818;stroke-width:1.0;"/><line style="stroke:#181818;stroke-width:1.0;" x1="120" x2="98.5" y1="136.5625" y2="136.5625"/><line style="stroke:#181818;stroke-width:1.0;" x1="98.5" x2="98.5" y1="136.5625" y2="158.5625"/><polygon fill="#181818" points="94.5,148.5625,98.5,158.5625,102.5,148.5625,98.5,152.5625" style="stroke:#181818;stroke-width:1.0;"/><line style="stroke:#181818;stroke-width:1.0;" x1="168" x2="189.5" y1="136.5625" y2="136.5625"/><line style="stroke:#181818;stroke-width:1.0;" x1="189.5" x2="189.5" y1="136.5625" y2="158.5625"/><polygon fill="#181818" points="185.5,148.5625,189.5,158.5625,193.5,148.5625,189.5,152.5625" style="stroke:#181818;stroke-width:1.0;"/><line style="stroke:#181818;stroke-width:1.0;" x1="98.5" x2="98.5" y1="288.3281" y2="306.3281"/><line style="stroke:#181818;stroke-width:1.0;" x1="98.5" x2="132" y1="306.3281" y2="306.3281"/><polygon fill="#181818" points="122,302.3281,132,306.3281,122,310.3281,126,306.3281" style="stroke:#181818;stroke-width:1.0;"/><line style="stroke:#181818;stroke-width:1.0;" x1="189.5" x2="189.5" y1="192.6953" y2="306.3281"/><line style="stroke:#181818;stroke-width:1.0;" x1="189.5" x2="156" y1="306.3281" y2="306.3281"/><polygon fill="#181818" points="166,302.3281,156,306.3281,166,310.3281,162,306.3281" style="stroke:#181818;stroke-width:1.0;"/><line style="stroke:#181818;stroke-width:1.0;" x1="144" x2="144" y1="104.5625" y2="124.5625"/><polygon fill="#181818" points="140,114.5625,144,124.5625,148,114.5625,144,118.5625" style="stroke:#181818;stroke-width:1.0;"/><line style="stroke:#181818;stroke-width:1.0;" x1="144" x2="144" y1="318.3281" y2="338.3281"/><polygon fill="#181818" points="140,328.3281,144,338.3281,148,328.3281,144,332.3281" style="stroke:#181818;stroke-width:1.0;"/><!--SRC=[TP0x3eCm44HxJh4YZRc2gVAZZPGg7NBYjR625ilOLPIxnmO9Of5CCzBEq_wiSDvuCn2Kzq2F3cLxkroRmJtRsKfu5H2btH3iNsX2adRQ8HBVrql5A62Hhi1tIC2y2rWjOT9eU-EpIX8_rLiAX1Q6jkmvPv7aZwxyi5BOZmXCYMZvClpu1P4qQhtCeUJDdAO1qqEAzmS0]--></g></svg>