<?xml version="1.0" encoding="us-ascii" standalone="no"?><svg xmlns="http://www.w3.org/2000/svg" xmlns:xlink="http://www.w3.org/1999/xlink" contentStyleType="text/css" height="429px" preserveAspectRatio="none" style="width:251px;height:429px;background:#FFFFFF;" version="1.1" viewBox="0 0 251 429" width="251px" zoomAndPan="magnify"><defs/><g><rect fill="none" height="407.9609" style="stroke:#000000;stroke-width:1.5;" width="229" x="11" y="11"/><path d="M215,11 L215,20.4883 L205,30.4883 L11,30.4883 " fill="none" style="stroke:#000000;stroke-width:1.5;"/><text fill="#000000" font-family="sans-serif" font-size="14" lengthAdjust="spacing" textLength="194" x="14" y="25.5352">bunched_XORFork_XORFork</text><rect fill="none" height="366.0195" style="stroke:#000000;stroke-width:1.5;" width="209" x="21" y="40.9414"/><path d="M225,40.9414 L225,50.4297 L215,60.4297 L21,60.4297 " fill="none" style="stroke:#000000;stroke-width:1.5;"/><text fill="#000000" font-family="sans-serif" font-size="14" lengthAdjust="spacing" textLength="194" x="24" y="55.4766">bunched_XORFork_XORFork</text><rect fill="#008000" height="34.1328" rx="12.5" ry="12.5" style="stroke:#181818;stroke-width:0.5;" width="28" x="136" y="70.4297"/><text fill="#000000" font-family="sans-serif" font-size="12" lengthAdjust="spacing" textLength="8" x="146" y="92.0313">A</text><polygon fill="#F1F1F1" points="138,124.5625,162,124.5625,174,136.5625,162,148.5625,138,148.5625,126,136.5625,138,124.5625" style="stroke:#181818;stroke-width:0.5;"/><text fill="#000000" font-family="sans-serif" font-size="11" lengthAdjust="spacing" textLength="23" x="138.5" y="140.7197">XOR</text><text fill="#000000" font-family="sans-serif" font-size="11" lengthAdjust="spacing" textLength="22" x="104" y="134.2422">true</text><text fill="#000000" font-family="sans-serif" font-size="11" lengthAdjust="spacing" textLength="25" x="174" y="134.2422">false</text><polygon fill="#F1F1F1" points="91,158.5625,115,158.5625,127,170.5625,115,182.5625,91,182.5625,79,170.5625,91,158.5625" style="stroke:#181818;stroke-width:0.5;"/><text fill="#000000" font-family="sans-serif" font-size="11" lengthAdjust="spacing" textLength="23" x="91.5" y="174.7197">XOR</text><text fill="#000000" font-family="sans-serif" font-size="11" lengthAdjust="spacing" textLength="22" x="57" y="168.2422">true</text><text fill="#000000" font-family="sans-serif" font-size="11" lengthAdjust="spacing" textLength="25" x="127" y="168.2422">false</text><rect fill="#F1F1F1" height="34.1328" rx="12.5" ry="12.5" style="stroke:#181818;stroke-width:0.5;" width="29" x="54.5" y="192.5625"/><text fill="#000000" font-family="sans-serif" font-size="12" lengthAdjust="spacing" textLength="9" x="64.5" y="214.1641">D</text><rect fill="#F1F1F1" height="34.1328" rx="12.5" ry="12.5" style="stroke:#181818;stroke-width:0.5;" width="27" x="123.5" y="192.5625"/><text fill="#000000" font-family="sans-serif" font-size="12" lengthAdjust="spacing" textLength="7" x="133.5" y="214.1641">E</text><polygon fill="#F1F1F1" points="103,232.6953,115,244.6953,103,256.6953,91,244.6953,103,232.6953" style="stroke:#181818;stroke-width:0.5;"/><rect fill="#F1F1F1" height="34.1328" rx="12.5" ry="12.5" style="stroke:#181818;stroke-width:0.5;" width="27" x="89.5" y="276.6953"/><text fill="#000000" font-family="sans-serif" font-size="12" lengthAdjust="spacing" textLength="7" x="99.5" y="298.2969">B</text><rect fill="#F1F1F1" height="34.1328" rx="12.5" ry="12.5" style="stroke:#181818;stroke-width:0.5;" width="28" x="183" y="158.5625"/><text fill="#000000" font-family="sans-serif" font-size="12" lengthAdjust="spacing" textLength="8" x="193" y="180.1641">C</text><polygon fill="#F1F1F1" points="150,316.8281,162,328.8281,150,340.8281,138,328.8281,150,316.8281" style="stroke:#181818;stroke-width:0.5;"/><rect fill="#FF0000" height="34.1328" rx="12.5" ry="12.5" style="stroke:#181818;stroke-width:0.5;" width="26" x="137" y="360.8281"/><text fill="#000000" font-family="sans-serif" font-size="12" lengthAdjust="spacing" textLength="6" x="147" y="382.4297">F</text><line style="stroke:#181818;stroke-width:1.0;" x1="79" x2="69" y1="170.5625" y2="170.5625"/><line style="stroke:#181818;stroke-width:1.0;" x1="69" x2="69" y1="170.5625" y2="192.5625"/><polygon fill="#181818" points="65,182.5625,69,192.5625,73,182.5625,69,186.5625" style="stroke:#181818;stroke-width:1.0;"/><line style="stroke:#181818;stroke-width:1.0;" x1="127" x2="137" y1="170.5625" y2="170.5625"/><line style="stroke:#181818;stroke-width:1.0;" x1="137" x2="137" y1="170.5625" y2="192.5625"/><polygon fill="#181818" points="133,182.5625,137,192.5625,141,182.5625,137,186.5625" style="stroke:#181818;stroke-width:1.0;"/><line style="stroke:#181818;stroke-width:1.0;" x1="69" x2="69" y1="226.6953" y2="244.6953"/><line style="stroke:#181818;stroke-width:1.0;" x1="69" x2="91" y1="244.6953" y2="244.6953"/><polygon fill="#181818" points="81,240.6953,91,244.6953,81,248.6953,85,244.6953" style="stroke:#181818;stroke-width:1.0;"/><line style="stroke:#181818;stroke-width:1.0;" x1="137" x2="137" y1="226.6953" y2="244.6953"/><line style="stroke:#181818;stroke-width:1.0;" x1="137" x2="115" y1="244.6953" y2="244.6953"/><polygon fill="#181818" points="125,240.6953,115,244.6953,125,248.6953,121,244.6953" style="stroke:#181818;stroke-width:1.0;"/><line style="stroke:#181818;stroke-width:1.0;" x1="103" x2="103" y1="256.6953" y2="276.6953"/><polygon fill="#181818" points="99,266.6953,103,276.6953,107,266.6953,103,270.6953" style="stroke:#181818;stroke-width:1.0;"/><line style="stroke:#181818;stroke-width:1.0;" x1="126" x2="103" y1="136.5625" y2="136.5625"/><line style="stroke:#181818;stroke-width:1.0;" x1="103" x2="103" y1="136.5625" y2="158.5625"/><polygon fill="#181818" points="99,148.5625,103,158.5625,107,148.5625,103,152.5625" style="stroke:#181818;stroke-width:1.0;"/><line style="stroke:#181818;stroke-width:1.0;" x1="174" x2="197" y1="136.5625" y2="136.5625"/><line style="stroke:#181818;stroke-width:1.0;" x1="197" x2="197" y1="136.5625" y2="158.5625"/><polygon fill="#181818" points="193,148.5625,197,158.5625,201,148.5625,197,152.5625" style="stroke:#181818;stroke-width:1.0;"/><line style="stroke:#181818;stroke-width:1.0;" x1="103" x2="103" y1="310.8281" y2="328.8281"/><line style="stroke:#181818;stroke-width:1.0;" x1="103" x2="138" y1="328.8281" y2="328.8281"/><polygon fill="#181818" points="128,324.8281,138,328.8281,128,332.8281,132,328.8281" style="stroke:#181818;stroke-width:1.0;"/><line style="stroke:#181818;stroke-width:1.0;" x1="197" x2="197" y1="192.6953" y2="328.8281"/><line style="stroke:#181818;stroke-width:1.0;" x1="197" x2="162" y1="328.8281" y2="328.8281"/><polygon fill="#181818" points="172,324.8281,162,328.8281,172,332.8281,168,328.8281" style="stroke:#181818;stroke-width:1.0;"/><line style="stroke:#181818;stroke-width:1.0;" x1="150" x2="150" y1="104.5625" y2="124.5625"/><polygon fill="#181818" points="146,114.5625,150,124.5625,154,114.5625,150,118.5625" style="stroke:#181818;stroke-width:1.0;"/><line style="stroke:#181818;stroke-width:1.0;" x1="150" x2="150" y1="340.8281" y2="360.8281"/><polygon fill="#181818" points="146,350.8281,150,360.8281,154,350.8281,150,354.8281" style="stroke:#181818;stroke-width:1.0;"/><!--SRC=[AqWiAiaioSpFKr1AAirBpaXDYO_m3tBBByg6qKeArLmAG91Ub5zQW5iLM0q8AASNfQRcMJbQmqKoqnGqWCeq5KeoKlCKD4gAIbCruP94AG01AnTh5B7KdE9K1OsqH225HR4hckAybCmq514h9uGAd4PPEICfGZ52kIWrnSeD8WkKWOGELoq0]--></g></svg>