<?xml version="1.0" encoding="us-ascii" standalone="no"?><svg xmlns="http://www.w3.org/2000/svg" xmlns:xlink="http://www.w3.org/1999/xlink" contentStyleType="text/css" height="363px" preserveAspectRatio="none" style="width:303px;height:363px;background:#FFFFFF;" version="1.1" viewBox="0 0 303 363" width="303px" zoomAndPan="magnify"><defs/><g><rect fill="none" height="341.8281" style="stroke:#000000;stroke-width:1.5;" width="281" x="11" y="11"/><path d="M267,11 L267,20.4883 L257,30.4883 L11,30.4883 " fill="none" style="stroke:#000000;stroke-width:1.5;"/><text fill="#000000" font-family="sans-serif" font-size="14" lengthAdjust="spacing" textLength="246" x="14" y="25.5352">bunched_merge_XORFork_ANDFork</text><rect fill="none" height="299.8867" style="stroke:#000000;stroke-width:1.5;" width="261" x="21" y="40.9414"/><path d="M277,40.9414 L277,50.4297 L267,60.4297 L21,60.4297 " fill="none" style="stroke:#000000;stroke-width:1.5;"/><text fill="#000000" font-family="sans-serif" font-size="14" lengthAdjust="spacing" textLength="246" x="24" y="55.4766">bunched_merge_XORFork_ANDFork</text><rect fill="#008000" height="34.1328" rx="12.5" ry="12.5" style="stroke:#181818;stroke-width:0.5;" width="28" x="160.5" y="70.4297"/><text fill="#000000" font-family="sans-serif" font-size="12" lengthAdjust="spacing" textLength="8" x="170.5" y="92.0313">A</text><polygon fill="#F1F1F1" points="162.5,124.5625,186.5,124.5625,198.5,136.5625,186.5,148.5625,162.5,148.5625,150.5,136.5625,162.5,124.5625" style="stroke:#181818;stroke-width:0.5;"/><text fill="#000000" font-family="sans-serif" font-size="11" lengthAdjust="spacing" textLength="23" x="163" y="140.7197">XOR</text><text fill="#000000" font-family="sans-serif" font-size="11" lengthAdjust="spacing" textLength="22" x="128.5" y="134.2422">true</text><text fill="#000000" font-family="sans-serif" font-size="11" lengthAdjust="spacing" textLength="25" x="198.5" y="134.2422">false</text><rect fill="#555555" height="6" rx="2.5" ry="2.5" style="stroke:#555555;stroke-width:1.0;" width="112" x="73" y="158.5625"/><rect fill="#F1F1F1" height="34.1328" rx="12.5" ry="12.5" style="stroke:#181818;stroke-width:0.5;" width="29" x="87" y="184.5625"/><text fill="#000000" font-family="sans-serif" font-size="12" lengthAdjust="spacing" textLength="9" x="97" y="206.1641">D</text><rect fill="#F1F1F1" height="34.1328" rx="12.5" ry="12.5" style="stroke:#181818;stroke-width:0.5;" width="27" x="144" y="184.5625"/><text fill="#000000" font-family="sans-serif" font-size="12" lengthAdjust="spacing" textLength="7" x="154" y="206.1641">E</text><rect fill="#555555" height="6" rx="2.5" ry="2.5" style="stroke:#555555;stroke-width:1.0;" width="112" x="73" y="238.6953"/><rect fill="#F1F1F1" height="34.1328" rx="12.5" ry="12.5" style="stroke:#181818;stroke-width:0.5;" width="28" x="206" y="158.5625"/><text fill="#000000" font-family="sans-serif" font-size="12" lengthAdjust="spacing" textLength="8" x="216" y="180.1641">C</text><polygon fill="#F1F1F1" points="174.5,250.6953,186.5,262.6953,174.5,274.6953,162.5,262.6953,174.5,250.6953" style="stroke:#181818;stroke-width:0.5;"/><rect fill="#FF0000" height="34.1328" rx="12.5" ry="12.5" style="stroke:#181818;stroke-width:0.5;" width="26" x="161.5" y="294.6953"/><text fill="#000000" font-family="sans-serif" font-size="12" lengthAdjust="spacing" textLength="6" x="171.5" y="316.2969">F</text><line style="stroke:#181818;stroke-width:1.0;" x1="101.5" x2="101.5" y1="164.5625" y2="184.5625"/><polygon fill="#181818" points="97.5,174.5625,101.5,184.5625,105.5,174.5625,101.5,178.5625" style="stroke:#181818;stroke-width:1.0;"/><line style="stroke:#181818;stroke-width:1.0;" x1="157.5" x2="157.5" y1="164.5625" y2="184.5625"/><polygon fill="#181818" points="153.5,174.5625,157.5,184.5625,161.5,174.5625,157.5,178.5625" style="stroke:#181818;stroke-width:1.0;"/><line style="stroke:#181818;stroke-width:1.0;" x1="101.5" x2="101.5" y1="218.6953" y2="238.6953"/><polygon fill="#181818" points="97.5,228.6953,101.5,238.6953,105.5,228.6953,101.5,232.6953" style="stroke:#181818;stroke-width:1.0;"/><line style="stroke:#181818;stroke-width:1.0;" x1="157.5" x2="157.5" y1="218.6953" y2="238.6953"/><polygon fill="#181818" points="153.5,228.6953,157.5,238.6953,161.5,228.6953,157.5,232.6953" style="stroke:#181818;stroke-width:1.0;"/><line style="stroke:#181818;stroke-width:1.0;" x1="150.5" x2="129" y1="136.5625" y2="136.5625"/><line style="stroke:#181818;stroke-width:1.0;" x1="129" x2="129" y1="136.5625" y2="158.5625"/><polygon fill="#181818" points="125,148.5625,129,158.5625,133,148.5625,129,152.5625" style="stroke:#181818;stroke-width:1.0;"/><line style="stroke:#181818;stroke-width:1.0;" x1="198.5" x2="220" y1="136.5625" y2="136.5625"/><line style="stroke:#181818;stroke-width:1.0;" x1="220" x2="220" y1="136.5625" y2="158.5625"/><polygon fill="#181818" points="216,148.5625,220,158.5625,224,148.5625,220,152.5625" style="stroke:#181818;stroke-width:1.0;"/><line style="stroke:#181818;stroke-width:1.0;" x1="129" x2="129" y1="244.6953" y2="262.6953"/><line style="stroke:#181818;stroke-width:1.0;" x1="129" x2="162.5" y1="262.6953" y2="262.6953"/><polygon fill="#181818" points="152.5,258.6953,162.5,262.6953,152.5,266.6953,156.5,262.6953" style="stroke:#181818;stroke-width:1.0;"/><line style="stroke:#181818;stroke-width:1.0;" x1="220" x2="220" y1="192.6953" y2="262.6953"/><line style="stroke:#181818;stroke-width:1.0;" x1="220" x2="186.5" y1="262.6953" y2="262.6953"/><polygon fill="#181818" points="196.5,258.6953,186.5,262.6953,196.5,266.6953,192.5,262.6953" style="stroke:#181818;stroke-width:1.0;"/><line style="stroke:#181818;stroke-width:1.0;" x1="174.5" x2="174.5" y1="104.5625" y2="124.5625"/><polygon fill="#181818" points="170.5,114.5625,174.5,124.5625,178.5,114.5625,174.5,118.5625" style="stroke:#181818;stroke-width:1.0;"/><line style="stroke:#181818;stroke-width:1.0;" x1="174.5" x2="174.5" y1="274.6953" y2="294.6953"/><polygon fill="#181818" points="170.5,284.6953,174.5,294.6953,178.5,284.6953,174.5,288.6953" style="stroke:#181818;stroke-width:1.0;"/><!--SRC=[XP0n3i8m34Ntdi8gItg5TAee7K5YOei2ST88I2gJJ8YxanIfLTI1lrZoV_wMFKaADbZleBv6TnjHYIUIGN4vdGTFTz4T-rnhU5UGPCZ7wHyxaraxGuYET-tIiHfOmXi88pfWWI8sYvcbKq3HoE9zku506cdT5ZsKA3fLPkBZXS2qJANSpFVhP9goUZs3KF7Xv-Qy-GdLvmi0]--></g></svg>