<?xml version="1.0" encoding="us-ascii" standalone="no"?><svg xmlns="http://www.w3.org/2000/svg" xmlns:xlink="http://www.w3.org/1999/xlink" contentStyleType="text/css" height="389px" preserveAspectRatio="none" style="width:244px;height:389px;background:#FFFFFF;" version="1.1" viewBox="0 0 244 389" width="244px" zoomAndPan="magnify"><defs/><g><rect fill="none" height="367.9609" style="stroke:#000000;stroke-width:1.5;" width="222" x="11" y="11"/><path d="M208,11 L208,20.4883 L198,30.4883 L11,30.4883 " fill="none" style="stroke:#000000;stroke-width:1.5;"/><text fill="#000000" font-family="sans-serif" font-size="14" lengthAdjust="spacing" textLength="187" x="14" y="25.5352">merge at correct event XOR</text><rect fill="none" height="326.0195" style="stroke:#000000;stroke-width:1.5;" width="202" x="21" y="40.9414"/><path d="M218,40.9414 L218,50.4297 L208,60.4297 L21,60.4297 " fill="none" style="stroke:#000000;stroke-width:1.5;"/><text fill="#000000" font-family="sans-serif" font-size="14" lengthAdjust="spacing" textLength="187" x="24" y="55.4766">merge at correct event XOR</text><rect fill="#008000" height="34.1328" rx="12.5" ry="12.5" style="stroke:#181818;stroke-width:0.5;" width="28" x="110.5" y="70.4297"/><text fill="#000000" font-family="sans-serif" font-size="12" lengthAdjust="spacing" textLength="8" x="120.5" y="92.0313">A</text><polygon fill="#F1F1F1" points="112.5,124.5625,136.5,124.5625,148.5,136.5625,136.5,148.5625,112.5,148.5625,100.5,136.5625,112.5,124.5625" style="stroke:#181818;stroke-width:0.5;"/><text fill="#000000" font-family="sans-serif" font-size="11" lengthAdjust="spacing" textLength="23" x="113" y="140.7197">XOR</text><rect fill="#F1F1F1" height="34.1328" rx="12.5" ry="12.5" style="stroke:#181818;stroke-width:0.5;" width="27" x="62.5" y="168.5625"/><text fill="#000000" font-family="sans-serif" font-size="12" lengthAdjust="spacing" textLength="7" x="72.5" y="190.1641">B</text><rect fill="#F1F1F1" height="34.1328" rx="12.5" ry="12.5" style="stroke:#181818;stroke-width:0.5;" width="28" x="62" y="222.6953"/><text fill="#000000" font-family="sans-serif" font-size="12" lengthAdjust="spacing" textLength="8" x="72" y="244.2969">C</text><rect fill="#F1F1F1" height="34.1328" rx="12.5" ry="12.5" style="stroke:#181818;stroke-width:0.5;" width="29" x="110" y="168.5625"/><text fill="#000000" font-family="sans-serif" font-size="12" lengthAdjust="spacing" textLength="9" x="120" y="190.1641">D</text><rect fill="#F1F1F1" height="34.1328" rx="12.5" ry="12.5" style="stroke:#181818;stroke-width:0.5;" width="28" x="110.5" y="222.6953"/><text fill="#000000" font-family="sans-serif" font-size="12" lengthAdjust="spacing" textLength="8" x="120.5" y="244.2969">C</text><rect fill="#F1F1F1" height="34.1328" rx="12.5" ry="12.5" style="stroke:#181818;stroke-width:0.5;" width="27" x="159.5" y="168.5625"/><text fill="#000000" font-family="sans-serif" font-size="12" lengthAdjust="spacing" textLength="7" x="169.5" y="190.1641">E</text><rect fill="#F1F1F1" height="34.1328" rx="12.5" ry="12.5" style="stroke:#181818;stroke-width:0.5;" width="28" x="159" y="222.6953"/><text fill="#000000" font-family="sans-serif" font-size="12" lengthAdjust="spacing" textLength="8" x="169" y="244.2969">C</text><polygon fill="#F1F1F1" points="124.5,276.8281,124.5,276.8281,136.5,288.8281,124.5,300.8281,124.5,300.8281,112.5,288.8281,124.5,276.8281" style="stroke:#181818;stroke-width:0.5;"/><rect fill="#FF0000" height="34.1328" rx="12.5" ry="12.5" style="stroke:#181818;stroke-width:0.5;" width="26" x="111.5" y="320.8281"/><text fill="#000000" font-family="sans-serif" font-size="12" lengthAdjust="spacing" textLength="6" x="121.5" y="342.4297">F</text><line style="stroke:#181818;stroke-width:1.0;" x1="76" x2="76" y1="202.6953" y2="222.6953"/><polygon fill="#181818" points="72,212.6953,76,222.6953,80,212.6953,76,216.6953" style="stroke:#181818;stroke-width:1.0;"/><line style="stroke:#181818;stroke-width:1.0;" x1="124.5" x2="124.5" y1="202.6953" y2="222.6953"/><polygon fill="#181818" points="120.5,212.6953,124.5,222.6953,128.5,212.6953,124.5,216.6953" style="stroke:#181818;stroke-width:1.0;"/><line style="stroke:#181818;stroke-width:1.0;" x1="173" x2="173" y1="202.6953" y2="222.6953"/><polygon fill="#181818" points="169,212.6953,173,222.6953,177,212.6953,173,216.6953" style="stroke:#181818;stroke-width:1.0;"/><line style="stroke:#181818;stroke-width:1.0;" x1="100.5" x2="76" y1="136.5625" y2="136.5625"/><line style="stroke:#181818;stroke-width:1.0;" x1="76" x2="76" y1="136.5625" y2="168.5625"/><polygon fill="#181818" points="72,158.5625,76,168.5625,80,158.5625,76,162.5625" style="stroke:#181818;stroke-width:1.0;"/><line style="stroke:#181818;stroke-width:1.0;" x1="148.5" x2="173" y1="136.5625" y2="136.5625"/><line style="stroke:#181818;stroke-width:1.0;" x1="173" x2="173" y1="136.5625" y2="168.5625"/><polygon fill="#181818" points="169,158.5625,173,168.5625,177,158.5625,173,162.5625" style="stroke:#181818;stroke-width:1.0;"/><line style="stroke:#181818;stroke-width:1.0;" x1="124.5" x2="124.5" y1="148.5625" y2="155.2292"/><line style="stroke:#181818;stroke-width:1.0;" x1="124.5" x2="124.5" y1="155.2292" y2="168.5625"/><polygon fill="#181818" points="120.5,158.5625,124.5,168.5625,128.5,158.5625,124.5,162.5625" style="stroke:#181818;stroke-width:1.0;"/><line style="stroke:#181818;stroke-width:1.0;" x1="76" x2="76" y1="256.8281" y2="288.8281"/><line style="stroke:#181818;stroke-width:1.0;" x1="76" x2="112.5" y1="288.8281" y2="288.8281"/><polygon fill="#181818" points="102.5,284.8281,112.5,288.8281,102.5,292.8281,106.5,288.8281" style="stroke:#181818;stroke-width:1.0;"/><line style="stroke:#181818;stroke-width:1.0;" x1="173" x2="173" y1="256.8281" y2="288.8281"/><line style="stroke:#181818;stroke-width:1.0;" x1="173" x2="136.5" y1="288.8281" y2="288.8281"/><polygon fill="#181818" points="146.5,284.8281,136.5,288.8281,146.5,292.8281,142.5,288.8281" style="stroke:#181818;stroke-width:1.0;"/><line style="stroke:#181818;stroke-width:1.0;" x1="124.5" x2="124.5" y1="256.8281" y2="261.8281"/><line style="stroke:#181818;stroke-width:1.0;" x1="124.5" x2="124.5" y1="261.8281" y2="276.8281"/><polygon fill="#181818" points="120.5,266.8281,124.5,276.8281,128.5,266.8281,124.5,270.8281" style="stroke:#181818;stroke-width:1.0;"/><line style="stroke:#181818;stroke-width:1.0;" x1="124.5" x2="124.5" y1="104.5625" y2="124.5625"/><polygon fill="#181818" points="120.5,114.5625,124.5,124.5625,128.5,114.5625,124.5,118.5625" style="stroke:#181818;stroke-width:1.0;"/><line style="stroke:#181818;stroke-width:1.0;" x1="124.5" x2="124.5" y1="300.8281" y2="320.8281"/><polygon fill="#181818" points="120.5,310.8281,124.5,320.8281,128.5,310.8281,124.5,314.8281" style="stroke:#181818;stroke-width:1.0;"/><!--SRC=[AqWiAiaioSpFKr3AJIrAJrL8B558pYygIaqkKKWjIyqhKOZm3r9IgEPI08BqelpI0hmAmSf0G3czA3KrpyhH6YvIN9vPafoXe05KfWaN187anE9K1GrKCH2mShB657Es9awl2mLwNV7hJSrBWVW5uTcYr1GhDuWAe2madBXg0G00]--></g></svg>