<?xml version="1.0" encoding="us-ascii" standalone="no"?><svg xmlns="http://www.w3.org/2000/svg" xmlns:xlink="http://www.w3.org/1999/xlink" contentStyleType="text/css" height="433px" preserveAspectRatio="none" style="width:261px;height:433px;background:#FFFFFF;" version="1.1" viewBox="0 0 261 433" width="261px" zoomAndPan="magnify"><defs/><g><rect fill="none" height="411.2393" style="stroke:#000000;stroke-width:1.5;" width="239" x="11" y="11"/><path d="M225,11 L225,20.2969 L215,30.2969 L11,30.2969 " fill="none" style="stroke:#000000;stroke-width:1.5;"/><text fill="#000000" font-family="sans-serif" font-size="14" lengthAdjust="spacing" textLength="204" x="14" y="24.9951">merge from similar paths XOR</text><rect fill="none" height="369.1406" style="stroke:#000000;stroke-width:1.5;" width="219" x="21" y="41.0986"/><path d="M235,41.0986 L235,50.3955 L225,60.3955 L21,60.3955 " fill="none" style="stroke:#000000;stroke-width:1.5;"/><text fill="#000000" font-family="sans-serif" font-size="14" lengthAdjust="spacing" textLength="204" x="24" y="55.0938">merge from similar paths XOR</text><rect fill="#008000" height="33.9688" rx="12.5" ry="12.5" style="stroke:#181818;stroke-width:0.5;" width="28" x="119" y="70.3955"/><text fill="#000000" font-family="sans-serif" font-size="12" lengthAdjust="spacing" textLength="8" x="129" y="91.5342">A</text><polygon fill="#F1F1F1" points="121,124.3643,145,124.3643,157,136.3643,145,148.3643,121,148.3643,109,136.3643,121,124.3643" style="stroke:#181818;stroke-width:0.5;"/><text fill="#000000" font-family="sans-serif" font-size="11" lengthAdjust="spacing" textLength="23" x="121.5" y="140.1724">XOR</text><rect fill="#F1F1F1" height="33.9688" rx="12.5" ry="12.5" style="stroke:#181818;stroke-width:0.5;" width="28" x="80" y="168.3643"/><text fill="#000000" font-family="sans-serif" font-size="12" lengthAdjust="spacing" textLength="8" x="90" y="189.5029">B</text><rect fill="#F1F1F1" height="33.9688" rx="12.5" ry="12.5" style="stroke:#181818;stroke-width:0.5;" width="28" x="80" y="222.333"/><text fill="#000000" font-family="sans-serif" font-size="12" lengthAdjust="spacing" textLength="8" x="90" y="243.4717">C</text><rect fill="#F1F1F1" height="33.9688" rx="12.5" ry="12.5" style="stroke:#181818;stroke-width:0.5;" width="29" x="79.5" y="276.3018"/><text fill="#000000" font-family="sans-serif" font-size="12" lengthAdjust="spacing" textLength="9" x="89.5" y="297.4404">D</text><rect fill="#F1F1F1" height="33.9688" rx="12.5" ry="12.5" style="stroke:#181818;stroke-width:0.5;" width="28" x="158" y="168.3643"/><text fill="#000000" font-family="sans-serif" font-size="12" lengthAdjust="spacing" textLength="8" x="168" y="189.5029">C</text><rect fill="#F1F1F1" height="33.9688" rx="12.5" ry="12.5" style="stroke:#181818;stroke-width:0.5;" width="29" x="157.5" y="222.333"/><text fill="#000000" font-family="sans-serif" font-size="12" lengthAdjust="spacing" textLength="9" x="167.5" y="243.4717">D</text><polygon fill="#F1F1F1" points="133,320.2705,133,320.2705,145,332.2705,133,344.2705,133,344.2705,121,332.2705,133,320.2705" style="stroke:#181818;stroke-width:0.5;"/><rect fill="#FF0000" height="33.9688" rx="12.5" ry="12.5" style="stroke:#181818;stroke-width:0.5;" width="27" x="119.5" y="364.2705"/><text fill="#000000" font-family="sans-serif" font-size="12" lengthAdjust="spacing" textLength="7" x="129.5" y="385.4092">F</text><line style="stroke:#181818;stroke-width:1.0;" x1="94" x2="94" y1="202.333" y2="222.333"/><polygon fill="#181818" points="90,212.333,94,222.333,98,212.333,94,216.333" style="stroke:#181818;stroke-width:1.0;"/><line style="stroke:#181818;stroke-width:1.0;" x1="94" x2="94" y1="256.3018" y2="276.3018"/><polygon fill="#181818" points="90,266.3018,94,276.3018,98,266.3018,94,270.3018" style="stroke:#181818;stroke-width:1.0;"/><line style="stroke:#181818;stroke-width:1.0;" x1="172" x2="172" y1="202.333" y2="222.333"/><polygon fill="#181818" points="168,212.333,172,222.333,176,212.333,172,216.333" style="stroke:#181818;stroke-width:1.0;"/><line style="stroke:#181818;stroke-width:1.0;" x1="109" x2="94" y1="136.3643" y2="136.3643"/><line style="stroke:#181818;stroke-width:1.0;" x1="94" x2="94" y1="136.3643" y2="168.3643"/><polygon fill="#181818" points="90,158.3643,94,168.3643,98,158.3643,94,162.3643" style="stroke:#181818;stroke-width:1.0;"/><line style="stroke:#181818;stroke-width:1.0;" x1="157" x2="172" y1="136.3643" y2="136.3643"/><line style="stroke:#181818;stroke-width:1.0;" x1="172" x2="172" y1="136.3643" y2="168.3643"/><polygon fill="#181818" points="168,158.3643,172,168.3643,176,158.3643,172,162.3643" style="stroke:#181818;stroke-width:1.0;"/><line style="stroke:#181818;stroke-width:1.0;" x1="94" x2="94" y1="310.2705" y2="332.2705"/><line style="stroke:#181818;stroke-width:1.0;" x1="94" x2="121" y1="332.2705" y2="332.2705"/><polygon fill="#181818" points="111,328.2705,121,332.2705,111,336.2705,115,332.2705" style="stroke:#181818;stroke-width:1.0;"/><line style="stroke:#181818;stroke-width:1.0;" x1="172" x2="172" y1="256.3018" y2="332.2705"/><line style="stroke:#181818;stroke-width:1.0;" x1="172" x2="145" y1="332.2705" y2="332.2705"/><polygon fill="#181818" points="155,328.2705,145,332.2705,155,336.2705,151,332.2705" style="stroke:#181818;stroke-width:1.0;"/><line style="stroke:#181818;stroke-width:1.0;" x1="133" x2="133" y1="104.3643" y2="124.3643"/><polygon fill="#181818" points="129,114.3643,133,124.3643,137,114.3643,133,118.3643" style="stroke:#181818;stroke-width:1.0;"/><line style="stroke:#181818;stroke-width:1.0;" x1="133" x2="133" y1="344.2705" y2="364.2705"/><polygon fill="#181818" points="129,354.2705,133,364.2705,137,354.2705,133,358.2705" style="stroke:#181818;stroke-width:1.0;"/><!--SRC=[AqWiAiaioSpFKr3AJIrAJrL8AyhFLIZEpCtCIInIA4WioIXMYF0FKbAevb80WlIY_D820ah12a50ERqeDJNFoj4QBb9SdbcIdA6W0LIc2HS4WUJ4ubG53LGn4B1oiiOKSyOYvc9Dd7a4zARcfK3SYF14KMgAbHj41L0M4W9SjG00]--></g></svg>