<?xml version="1.0" encoding="us-ascii" standalone="no"?><svg xmlns="http://www.w3.org/2000/svg" xmlns:xlink="http://www.w3.org/1999/xlink" contentStyleType="text/css" height="389px" preserveAspectRatio="none" style="width:184px;height:389px;background:#FFFFFF;" version="1.1" viewBox="0 0 184 389" width="184px" zoomAndPan="magnify"><defs/><g><rect fill="none" height="367.5078" style="stroke:#000000;stroke-width:1.5;" width="162" x="11" y="11"/><path d="M99,11 L99,20.4883 L89,30.4883 L11,30.4883 " fill="none" style="stroke:#000000;stroke-width:1.5;"/><text fill="#000000" font-family="sans-serif" font-size="14" lengthAdjust="spacing" textLength="78" x="14" y="25.5352">simple XOR</text><rect fill="none" height="326.0195" style="stroke:#000000;stroke-width:1.5;" width="142" x="21" y="40.4883"/><path d="M109,40.4883 L109,49.9766 L99,59.9766 L21,59.9766 " fill="none" style="stroke:#000000;stroke-width:1.5;"/><text fill="#000000" font-family="sans-serif" font-size="14" lengthAdjust="spacing" textLength="78" x="24" y="55.0234">simple XOR</text><rect fill="#008000" height="34.1328" rx="12.5" ry="12.5" style="stroke:#181818;stroke-width:0.5;" width="28" x="78" y="69.9766"/><text fill="#000000" font-family="sans-serif" font-size="12" lengthAdjust="spacing" textLength="8" x="88" y="91.5781">A</text><polygon fill="#F1F1F1" points="80,124.1094,104,124.1094,116,136.1094,104,148.1094,80,148.1094,68,136.1094,80,124.1094" style="stroke:#181818;stroke-width:0.5;"/><text fill="#000000" font-family="sans-serif" font-size="11" lengthAdjust="spacing" textLength="23" x="80.5" y="140.2666">XOR</text><rect fill="#F1F1F1" height="34.1328" rx="12.5" ry="12.5" style="stroke:#181818;stroke-width:0.5;" width="27" x="31" y="168.1094"/><text fill="#000000" font-family="sans-serif" font-size="12" lengthAdjust="spacing" textLength="7" x="41" y="189.7109">B</text><rect fill="#F1F1F1" height="34.1328" rx="12.5" ry="12.5" style="stroke:#181818;stroke-width:0.5;" width="29" x="77.5" y="168.1094"/><text fill="#000000" font-family="sans-serif" font-size="12" lengthAdjust="spacing" textLength="9" x="87.5" y="189.7109">D</text><rect fill="#F1F1F1" height="34.1328" rx="12.5" ry="12.5" style="stroke:#181818;stroke-width:0.5;" width="27" x="126" y="168.1094"/><text fill="#000000" font-family="sans-serif" font-size="12" lengthAdjust="spacing" textLength="7" x="136" y="189.7109">E</text><polygon fill="#F1F1F1" points="92,222.2422,92,222.2422,104,234.2422,92,246.2422,92,246.2422,80,234.2422,92,222.2422" style="stroke:#181818;stroke-width:0.5;"/><rect fill="#F1F1F1" height="34.1328" rx="12.5" ry="12.5" style="stroke:#181818;stroke-width:0.5;" width="28" x="78" y="266.2422"/><text fill="#000000" font-family="sans-serif" font-size="12" lengthAdjust="spacing" textLength="8" x="88" y="287.8438">C</text><rect fill="#FF0000" height="34.1328" rx="12.5" ry="12.5" style="stroke:#181818;stroke-width:0.5;" width="26" x="79" y="320.375"/><text fill="#000000" font-family="sans-serif" font-size="12" lengthAdjust="spacing" textLength="6" x="89" y="341.9766">F</text><line style="stroke:#181818;stroke-width:1.0;" x1="68" x2="44.5" y1="136.1094" y2="136.1094"/><line style="stroke:#181818;stroke-width:1.0;" x1="44.5" x2="44.5" y1="136.1094" y2="168.1094"/><polygon fill="#181818" points="40.5,158.1094,44.5,168.1094,48.5,158.1094,44.5,162.1094" style="stroke:#181818;stroke-width:1.0;"/><line style="stroke:#181818;stroke-width:1.0;" x1="116" x2="139.5" y1="136.1094" y2="136.1094"/><line style="stroke:#181818;stroke-width:1.0;" x1="139.5" x2="139.5" y1="136.1094" y2="168.1094"/><polygon fill="#181818" points="135.5,158.1094,139.5,168.1094,143.5,158.1094,139.5,162.1094" style="stroke:#181818;stroke-width:1.0;"/><line style="stroke:#181818;stroke-width:1.0;" x1="92" x2="92" y1="148.1094" y2="154.776"/><line style="stroke:#181818;stroke-width:1.0;" x1="92" x2="92" y1="154.776" y2="168.1094"/><polygon fill="#181818" points="88,158.1094,92,168.1094,96,158.1094,92,162.1094" style="stroke:#181818;stroke-width:1.0;"/><line style="stroke:#181818;stroke-width:1.0;" x1="44.5" x2="44.5" y1="202.2422" y2="234.2422"/><line style="stroke:#181818;stroke-width:1.0;" x1="44.5" x2="80" y1="234.2422" y2="234.2422"/><polygon fill="#181818" points="70,230.2422,80,234.2422,70,238.2422,74,234.2422" style="stroke:#181818;stroke-width:1.0;"/><line style="stroke:#181818;stroke-width:1.0;" x1="139.5" x2="139.5" y1="202.2422" y2="234.2422"/><line style="stroke:#181818;stroke-width:1.0;" x1="139.5" x2="104" y1="234.2422" y2="234.2422"/><polygon fill="#181818" points="114,230.2422,104,234.2422,114,238.2422,110,234.2422" style="stroke:#181818;stroke-width:1.0;"/><line style="stroke:#181818;stroke-width:1.0;" x1="92" x2="92" y1="202.2422" y2="207.2422"/><line style="stroke:#181818;stroke-width:1.0;" x1="92" x2="92" y1="207.2422" y2="222.2422"/><polygon fill="#181818" points="88,212.2422,92,222.2422,96,212.2422,92,216.2422" style="stroke:#181818;stroke-width:1.0;"/><line style="stroke:#181818;stroke-width:1.0;" x1="92" x2="92" y1="104.1094" y2="124.1094"/><polygon fill="#181818" points="88,114.1094,92,124.1094,96,114.1094,92,118.1094" style="stroke:#181818;stroke-width:1.0;"/><line style="stroke:#181818;stroke-width:1.0;" x1="92" x2="92" y1="246.2422" y2="266.2422"/><polygon fill="#181818" points="88,256.2422,92,266.2422,96,256.2422,92,260.2422" style="stroke:#181818;stroke-width:1.0;"/><line style="stroke:#181818;stroke-width:1.0;" x1="92" x2="92" y1="300.375" y2="320.375"/><polygon fill="#181818" points="88,310.375,92,320.375,96,310.375,92,314.375" style="stroke:#181818;stroke-width:1.0;"/><!--SRC=[AqWiAiaioSpFKr0gpimjo4bLYF0FKbAevb80WlIY_D8250cmC0WefnUbfkPPELh3HOhBCqkICnGqWCequO8Wa9nOdAgWWIe60bPEriIfSo5IdIj2NMfU2iGzS14hPuIiSb5gYfKRX0zK2V4dLoq0]--></g></svg>